<?xml version="1.0" encoding="UTF-8"?>
<svg id="Layer_1" data-name="Layer 1" xmlns="http://www.w3.org/2000/svg" viewBox="0 0 1312 1312">
  <defs>
    <style>
      .cls-1 {
        fill: #4f6272;
      }

      .cls-2 {
        fill: #155b88;
      }

      .cls-3 {
        fill: #df803f;
      }

      .cls-4 {
        fill: #5a8ebe;
      }

      .cls-5 {
        fill: #ca7c43;
      }

      .cls-6 {
        fill: #ba7847;
      }

      .cls-7 {
        fill: #165a86;
      }

      .cls-8 {
        fill: #d27d41;
      }

      .cls-9 {
        fill: #1d5e89;
      }

      .cls-10 {
        fill: #b77848;
      }

      .cls-11 {
        fill: #286b98;
      }

      .cls-12 {
        fill: #b97748;
      }

      .cls-13 {
        fill: #d27e3f;
      }

      .cls-14 {
        fill: #ca7c42;
      }

      .cls-15 {
        fill: #296591;
      }

      .cls-16 {
        fill: #cd7d44;
      }

      .cls-17 {
        fill: #be7a47;
      }

      .cls-18 {
        fill: #d17d42;
      }

      .cls-19 {
        fill: #efc799;
      }

      .cls-20 {
        fill: #245f89;
      }

      .cls-21 {
        fill: #d77f3f;
      }

      .cls-22 {
        fill: #7bb6da;
      }

      .cls-23 {
        fill: #c97c45;
      }

      .cls-24 {
        fill: #c77b45;
      }

      .cls-25 {
        fill: #c97c42;
      }

      .cls-26 {
        fill: #db803e;
      }

      .cls-27 {
        fill: #da803f;
      }

      .cls-28 {
        fill: #c87b42;
      }

      .cls-29 {
        fill: #d87f3f;
      }

      .cls-30 {
        fill: #d57e3f;
      }

      .cls-31 {
        fill: #cd7c40;
      }

      .cls-32 {
        fill: #e57735;
      }

      .cls-33 {
        fill: #c27a48;
      }

      .cls-34 {
        fill: #c07a4a;
      }

      .cls-35 {
        fill: #7cb6da;
      }

      .cls-36 {
        fill: #255c85;
      }

      .cls-37 {
        fill: #e6823f;
      }

      .cls-38 {
        fill: #c77c47;
      }

      .cls-39 {
        fill: #74b0d5;
      }

      .cls-40 {
        fill: #c57b45;
      }

      .cls-41 {
        fill: #c77c44;
      }

      .cls-42 {
        fill: #22628d;
      }

      .cls-43 {
        fill: #135886;
      }

      .cls-44 {
        fill: #76b1d6;
      }

      .cls-45 {
        fill: #f2ba33;
      }

      .cls-46 {
        fill: #2a648f;
      }

      .cls-47 {
        fill: #105075;
      }

      .cls-48 {
        fill: #c27a47;
      }

      .cls-49 {
        fill: #3a6284;
      }

      .cls-50 {
        fill: #25608b;
      }

      .cls-51 {
        fill: #0d5177;
      }

      .cls-52 {
        fill: #215e8a;
      }

      .cls-53 {
        fill: #22618d;
      }

      .cls-54 {
        fill: #0d5076;
      }

      .cls-55 {
        fill: #b0764c;
      }

      .cls-56 {
        fill: #ce7d42;
      }

      .cls-57 {
        fill: #d97f40;
      }

      .cls-58 {
        fill: #35638a;
      }

      .cls-59 {
        fill: #db7f41;
      }

      .cls-60 {
        fill: #dd803e;
      }

      .cls-61 {
        fill: #115075;
      }

      .cls-62 {
        fill: #bb7948;
      }

      .cls-63 {
        fill: #cc7d43;
      }

      .cls-64 {
        fill: #da7f3d;
      }

      .cls-65 {
        fill: #ce7d43;
      }

      .cls-66 {
        fill: #be7a48;
      }

      .cls-67 {
        fill: #28628d;
      }

      .cls-68 {
        fill: #c67b44;
      }

      .cls-69 {
        fill: #e5823c;
      }

      .cls-70 {
        fill: #d47e3f;
      }

      .cls-71 {
        fill: #5999c1;
      }

      .cls-72 {
        fill: #c87c42;
      }

      .cls-73 {
        fill: #c67b45;
      }

      .cls-74 {
        fill: #c47a46;
      }

      .cls-75 {
        fill: #446076;
      }

      .cls-76 {
        fill: #316187;
      }

      .cls-77 {
        fill: #db7f3e;
      }

      .cls-78 {
        fill: #195a87;
      }

      .cls-79 {
        fill: #0f4f75;
      }

      .cls-80 {
        fill: #3d6184;
      }

      .cls-81 {
        fill: #2d618b;
      }

      .cls-82 {
        fill: #e3813c;
      }

      .cls-83 {
        fill: #2b5f88;
      }

      .cls-84 {
        fill: #c67c46;
      }

      .cls-85 {
        fill: #cc7d44;
      }

      .cls-86 {
        fill: #155986;
      }

      .cls-87 {
        fill: #165a85;
      }

      .cls-88 {
        fill: #c87c45;
      }

      .cls-89 {
        fill: #bf7b4a;
      }

      .cls-90 {
        fill: #ce7d40;
      }

      .cls-91 {
        fill: #c57b46;
      }

      .cls-92 {
        fill: #ac764f;
      }

      .cls-93 {
        fill: #3a658b;
      }

      .cls-94 {
        fill: #516371;
      }

      .cls-95 {
        fill: #e2813e;
      }

      .cls-96 {
        fill: #1d5f8c;
      }

      .cls-97 {
        fill: #415f79;
      }

      .cls-98 {
        fill: #296189;
      }

      .cls-99 {
        fill: #1d618f;
      }

      .cls-100 {
        fill: #de803f;
      }

      .cls-101 {
        fill: #cf7d43;
      }

      .cls-102 {
        fill: #c57a44;
      }

      .cls-103 {
        fill: #4689b6;
      }

      .cls-104 {
        fill: #cc7d42;
      }

      .cls-105 {
        fill: #e37736;
      }

      .cls-106 {
        fill: #1b5c88;
      }

      .cls-107 {
        fill: #c37b47;
      }

      .cls-108 {
        fill: #d27e40;
      }

      .cls-109 {
        fill: #c47b45;
      }

      .cls-110 {
        fill: #da7f3e;
      }

      .cls-111 {
        fill: #d07d44;
      }

      .cls-112 {
        fill: #476173;
      }

      .cls-113 {
        fill: #dc803f;
      }

      .cls-114 {
        fill: #0e5177;
      }

      .cls-115 {
        fill: #d17e42;
      }

      .cls-116 {
        fill: #57656d;
      }

      .cls-117 {
        fill: #d97f3e;
      }

      .cls-118 {
        fill: #28628b;
      }

      .cls-119 {
        fill: #d27e42;
      }

      .cls-120 {
        fill: #f8e14f;
      }

      .cls-121 {
        fill: #d27e41;
      }

      .cls-122 {
        fill: #be7949;
      }

      .cls-123 {
        fill: #145a86;
      }

      .cls-124 {
        fill: #2e5f87;
      }

      .cls-125 {
        fill: #1d5e8b;
      }

      .cls-126 {
        fill: #568ec0;
      }

      .cls-127 {
        fill: #bf7a49;
      }

      .cls-128 {
        fill: #d17e40;
      }

      .cls-129 {
        fill: #1a5b86;
      }

      .cls-130 {
        fill: #29628c;
      }

      .cls-131 {
        fill: #cd7c43;
      }

      .cls-132 {
        fill: #155a86;
      }

      .cls-133 {
        fill: #7cb7da;
      }

      .cls-134 {
        fill: #d17d40;
      }

      .cls-135 {
        fill: #336088;
      }

      .cls-136 {
        fill: #3e5f78;
      }

      .cls-137 {
        fill: #d67f40;
      }

      .cls-138 {
        fill: #d47e43;
      }

      .cls-139 {
        fill: #366388;
      }

      .cls-140 {
        fill: #ca7c45;
      }

      .cls-141 {
        fill: #35658c;
      }

      .cls-142 {
        fill: #d57f41;
      }

      .cls-143 {
        fill: #366187;
      }

      .cls-144 {
        fill: #4f6372;
      }
    </style>
  </defs>
  <circle class="cls-19" cx="656" cy="656" r="656"/>
  <g>
    <path class="cls-86" d="M247.25,818.22c-3.52-1.91-6.02-3.3-8.55-4.65-28.76-15.3-33.87-49.29-11-72.6,12.47-12.72,27.61-20.37,44.84-24.3,14.79-3.37,17.77-9.12,12.39-23.59-8-21.53-.16-41.84,20.42-51.86,13.54-6.59,28.19-10.27,42.91-7.01,9.45,2.09,11.57-3.43,10.95-8.67-2.6-22.22,12.02-27.39,28.77-29.81,11.57-1.67,13.49-6.6,11.79-17.61-8.24-53.38-12.29-107.02-7.8-161.11,2.68-32.29,3.72-64.69,8.57-96.82,1.94-12.84,7.27-21.76,19.1-27.46,24.76-11.92,50.63-20.44,77.35-26.6,1.56-.36,3.51-.9,4.8-.31,28.23,12.95,56.34.07,84.36-1.03,23.83-.94,47.43-7.1,71.2-10.43,6.9-.97,13.78-1.69,21.02,1.55,74.48,33.3,149.14,66.2,223.76,99.19,24.18,10.69,24,10.79,23.81,37.57-.31,43.41,4.26,87.46-1.82,130.02-4.58,32.1-3.11,64.3-8.4,96.05-1.07,6.43-6.46,7.09-10.32,9.87-5.69,4.1-12.71,6.28-18.38,12.55,15.25,6.25,30.1,11.86,44.88,16.93,26.52,9.1,33.76,28.66,34.28,53.4.12,5.9,1,11.92.15,17.68-1.66,11.24,3.46,14.37,13.8,14.88,35.25,1.74,59.59,20.19,76,50.57,14.36,26.6.29,63.23-29.44,73.67-15.42,5.41-31.58,8.69-47.26,13.39-5.58,1.67-11.17,4.06-16.01,7.25-12.88,8.49-13.15,16.76-1.68,26.98,6.92,6.17,13.89,12.31,20.5,18.81,22.18,21.8,21.79,48.93-.87,70.78-6.24,6.02-10.01,11.69-11.15,21.83-4.79,42.5-57.41,69.25-90.43,48.91-16.96-10.45-23.48-28.67-15.13-46.55,15.18-32.49,46.36-48.1,77.41-37.28,11.48,4,17.23-.37,22.65-8.8,5.66-8.8,5.84-17.35-1.14-25.52-4.74-5.56-11.28-8.76-17.29-12.63-34.62-22.29-35.11-57.2-.98-80.45,15.98-10.89,34.16-16.21,53.01-19.07,13.75-2.08,26.88-4.03,31.51-20.23,4.68-16.36-2.25-29.23-13.12-39.7-11.69-11.25-26.44-17.71-42.77-20.2-5.4-.82-8.34.44-7.83,6.25,1.78,20.31-12.2,28.79-27.54,35.43-67.51,29.21-132.68,63.55-201.53,89.94-16.13,6.18-28.67,7.31-44.7.77-57.35-23.4-112.2-51.85-167.48-79.49-41.02-20.51-82.69-39.87-120.37-66.41-13.43-9.46-26.77-19.07-40.34-28.33-9.69-6.61-10.4-16.9-11.33-26.85-.78-8.36-.89-16.93.04-25.25,1.03-9.19-3.12-9.81-10.25-8.35-7.47,1.53-14.58,3.99-21.44,7.23-9.84,4.66-11.83,12.53-8.52,22.14,8.82,25.6,2.62,39.27-22.91,50-8.13,3.42-16.84,5.89-24.24,10.48-8.51,5.28-18.08,12.36-15.12,23.82,2.95,11.42,12.83,15.99,24.77,18.33,13.02,2.55,23.02-2.6,33.35-8.08,24.05-12.73,45.03-16.8,73.23-2.53,70.83,35.84,143.08,69.07,214.91,103.03,54.05,25.56,107.88,51.21,158.08,83.97,7.45,4.86,10.3,10.58,10.95,18.33,1.22,14.68,1.78,29.42,3.29,44.07.65,6.29-.98,9.81-6.59,13.17-30.71,18.39-65.16,26.83-98.69,37.76-7.04,2.29-12.26-2.11-17.69-4.93-94.48-49.01-188.92-98.1-283.31-147.29-47.02-24.5-93.98-49.12-140.83-73.94-17.33-9.18-17.2-10.81-1.19-21.46,8.06-5.37,16.02-10.9,23.99-16.41.67-.46,1.11-1.25,2.59-2.98Z"/>
    <path class="cls-133" d="M400.59,475.69c3.6-43.62.45-88.39,7.95-132.65,3.18-18.78,12.82-23.63,28.86-13.03,78.09,51.58,163.47,88.91,248.73,126.43,17.57,7.73,24.99,15.21,23.5,34.08-5.87,74.33-2.68,148.91-7.02,223.26-.99,17.01-10.14,23.18-26.23,17.72-81.48-27.67-158.23-63.91-227.87-115.62-30.3-22.5-43.69-49.5-45.03-85.15-.68-18.08-1.89-36.13-2.9-55.05Z"/>
    <path class="cls-126" d="M907.15,367.31c-22.03,12.65-44.51,24.64-67.63,35.45-3.05,1.42-6.69,1.89-9.34,3.79-16.88,12.13-32.64,7.42-48.86-1.89-59.63-34.23-122.45-62.32-183.26-94.27-15.95-8.38-32.19-16.2-50-25.14,41.04-8.1,80.33-15.85,119.62-23.6,7.28-1.44,13.25,2.47,19.15,5.36,69.32,33.93,141.59,61.23,211.57,93.64,2.94,1.36,6.64,1.85,8.75,6.66Z"/>
    <path class="cls-133" d="M717.62,453.71c-9.2.08-17.52-2.99-25.58-6.7-87.37-40.25-171.94-85.91-256.1-132.33-2.95-1.63-6.7-3.21-6.81-6.85-.15-4.93,4.72-5.08,8.09-6.47,16.36-6.76,32.72-13.5,49.05-20.34,7.54-3.16,14.49-3.06,21.47,1.93,68.17,48.7,145.56,79.4,221.53,112.87,15.81,6.97,31.82,13.46,47.03,21.78,7.85,4.29,8.49,7.53.26,11.65-19.07,9.56-36.58,22.86-58.95,24.46Z"/>
    <path class="cls-4" d="M715.98,682.45c.4-63.95,4.04-127.77,9.45-191.48,1.31-15.49,9.19-27.92,22.99-35.79,8.05-4.59,16.35-8.83,24.86-12.5,11.18-4.82,18.85.11,17.55,12.27-2.89,26.91-2.11,53.83-2.05,80.77.1,44.56-1.61,89.22,1,133.63,1.14,19.45-5.38,28.16-21.3,35.35-13.79,6.22-26.71,14.43-39.77,22.16-8.3,4.92-12.16,1.37-12.55-6.54-.63-12.6-.17-25.25-.17-37.88Z"/>
    <path class="cls-4" d="M951.22,688.09c0,26.93-2.2,52.84.73,78.15,2.13,18.35-5.71,24.84-19.85,31.37-62.69,28.98-125.66,57.33-189.51,83.7-13.28,5.48-14.62,4.38-14.58-9.39.06-17.68.57-35.38-.04-53.04-.48-13.93,6.45-23.62,18.22-27.38,73.36-23.42,137.72-64.33,205.01-103.4Z"/>
    <path class="cls-133" d="M744.12,976.29c-30.31,16.32-54.96,38.89-74.63,66.85-3.47,4.94-6.54,4.59-11.66,3.11-33.43-9.64-64.4-24.8-94.87-41.16-58.69-31.51-116.76-64.26-176.29-94.1-44.09-22.1-89.06-42.44-131.87-67.05-11.75-6.75-11.8-6.84-.56-14.43,27.37-18.47,57.55-31.71,86.89-46.53,4.97-2.51,8.67-.62,13,1.26,54.17,23.55,106.97,49.99,159.64,76.6,73,36.89,148.01,69.7,220.13,108.37,3.57,1.91,8.09,2.63,10.22,7.08Z"/>
    <path class="cls-4" d="M853.13,582.87c-17.53,18.18-34.66,35.94-51.82,53.74-3.42-3.2-1.95-7.66-2.1-11.71-1.93-50.54,2.79-100.98,2.57-151.51-.05-11.67,2.72-23.39,1.95-35.19-.53-8.1,5.12-10.87,10.9-13.68,22-10.68,44.14-21.08,65.98-32.08,9.38-4.72,18.31-10.41,27.13-16.13,6.19-4.02,10.17-4.82,10.17,4.4-.03,48.46-.1,96.92-.06,145.38,0,4.28-2.16,6.96-5.13,9.57-14.87,13.07-29.56,26.35-44.58,39.25-1.98,1.7-4.86,8.77-8.07,1.97-2.41-5.11-4.73-7.74-10.22-6.52-3.3.74-4.87,3.18-4.72,6.54.29,6.46,6.6,5.06,8.01,5.96Z"/>
    <path class="cls-133" d="M579.42,830.9c-2.47-.56-4.18-.6-5.54-1.31-64.96-33.93-131.62-64.73-192.83-105.52-7.8-5.2-11.17-10.9-12.02-20.25-2.1-23.23,1.34-46.22,1.42-69.33.01-3.11.46-6.54,3.47-7.52,4.7-1.53,7.71,2.45,10.87,5.06,30.59,25.29,63.03,48.09,97.38,67.84,31.02,17.83,63.11,33.85,95.02,50.1,7.91,4.03,9.91,7.97,7.25,16.69-6.3,20.63-8.12,41.92-5.02,64.23Z"/>
    <path class="cls-4" d="M722.62,754.68c20.27-9.26,40.69-18.22,60.76-27.89,13.7-6.6,28.87-12.67,21.76-33.42-1.96-5.71,3.96-6.38,7.84-7.63,23.71-7.61,47.24-15.63,68.5-29,2.12-1.33,4.48-2.52,7.16-1.37,18.02,7.75,36.04,15.51,57,24.53-22.09,12.84-41.29,24.06-60.55,35.19-49.41,28.54-101.97,50.62-153.68,74.43-1.06.49-2.48.21-3.74.29-4.05-11.37-2.02-23.6-5.05-35.12Z"/>
    <path class="cls-133" d="M722.62,754.68c1.44.72,4.13,1.4,4.14,2.15.26,10.99,4.44,21.89.9,32.97-23.02.21-43.53-9.25-64.37-17.03-98.35-36.72-187.42-90.57-274.11-148.73-3.89-2.61-10-4.86-6.73-11.33,2.85-5.66,17.94-8.13,22.27-3.78,37.79,38.01,84.22,63.14,131.4,86.81,47.53,23.84,97.09,43.17,146.69,62.31,14.02,5.41,27.38,7.75,39.8-3.37Z"/>
    <path class="cls-4" d="M910.29,553.54c-1.27,13.52-2.48,26.39-3.69,39.25-.28,2.92-1.65,6.22-.72,8.68,5.4,14.36-2.83,20.33-14.12,25.92-26.04,12.88-51.61,26.69-77.63,39.6-4.11,2.04-9.66,9.49-13.76,2.66-3.11-5.19-3.01-13.2,2.27-18.87,3.15-3.38,6.67-6.43,10.04-9.61,29.13-27.39,58.24-54.79,87.43-82.12,2.34-2.19,4.09-5.46,10.2-5.51Z"/>
    <path class="cls-133" d="M661.66,1060.62c-.2,2.57-.46,5.44-2.85,6.7-3.61,1.89-6.27-1.35-9.08-2.78-41.44-20.94-82.79-42.05-124.21-63.01-96.76-48.97-193.56-97.87-290.29-146.9-2.69-1.36-9.12-1.4-5.35-7.01,3.35-5.01,7.63-8.62,14.64-3.6,26.85,19.24,56.25,34.11,85.83,48.56,76.59,37.42,152.01,77.02,226.7,118.08,30.94,17,62.25,33.86,96.58,43.79,3.12.9,8.26.43,8.02,6.18Z"/>
    <path class="cls-22" d="M608.3,846.18c-14.2-3.07-18.41-10.96-17.66-25.98,1.98-39.36,1.17-39.69,35.77-22.22,26.05,13.14,52.25,25.45,81.79,28.4,7.05.7,9.61,3.99,9.22,11.67-.71,13.77-3.58,27.59-.48,41.45,1.6,7.14-2.87,7.38-8.16,6.92-17.58-1.51-33.06-9.48-49.12-15.65-.44-3.56,2.31-3.9,4.67-4.63,7.3-.49,13.97,2.74,21.02,3.69,5.92.8,12.01,1.78,14.61-5.91,2.38-7.06-2.39-9.76-7.32-12.6-5.11-2.95-10.22-5.87-15.87-7.67-20.04-6.36-40.11-12.6-59.07-21.94-4.1-2.02-9.4-5.91-13.5.1-3.75,5.5-1.43,10.28,3,14.48,2.12,2.01,4.08,4.27,4.75,7.3-.34,2.09-1.12,3.56-3.64,2.59Z"/>
    <path class="cls-32" d="M1052.15,817.7c-.24,22.79-11.69,38.14-35.04,45.33-14.08,4.33-28.65,7.08-42.81,11.2-5.98,1.74-11.98,4.44-17.07,7.99-17.58,12.24-17.86,27.76-1.41,41.2,6.2,5.06,11.72,11.04,18.25,15.59,21.68,15.12,19.9,48.8-2.35,65.05-2.43,1.77-4.38,6.48-8.22,2.89-4.23-3.95.71-5.55,2.79-7.68,20.6-21.07,18.56-42.23-5.75-59.19-2.08-1.45-4.19-2.84-6.28-4.26-28.75-19.48-28.44-45.4,1.1-64.06,16.72-10.57,35.72-14.63,54.96-17.98,25.85-4.51,39.47-28.59,29.9-53.01-10.76-27.45-33.6-38.39-60.81-43.08-4.1-.71-12.05,2.52-11.5-3.22.74-7.76,8.47-2.34,12.53-1.93,32.71,3.32,54.89,21.52,68.99,50.41,2.32,4.74,2.8,8.57,2.74,14.76Z"/>
    <path class="cls-35" d="M900.5,1071.35c-18.45.28-29.85-9.01-30.3-24.71-.41-14.06,16.08-33.9,28.3-34.05,17.37-.21,32.58,15.06,32.76,32.9.18,18.16-8.57,25.52-30.75,25.86Z"/>
    <path class="cls-4" d="M673.11,1067.27c-1.9-7.08,2.84-10.62,5.89-13.83,21.71-22.87,43.6-45.55,68.69-64.94,8.73-6.75,9.78-3.7,10.64,5.01,3.08,31.2,3.28,31.23-24.69,45.59-9.73,4.99-19.55,9.83-29.47,14.45-9.9,4.61-19.97,8.84-31.06,13.73Z"/>
    <path class="cls-35" d="M720,810.54c.62,8.1-3.22,9.15-10.18,7.64-19.82-4.32-39.27-9.81-57.73-18.23-13.81-6.3-27.7-12.31-42.07-17.27-4.31-1.49-8.6-3.74-12.12-6.59-4.2-3.41-3.19-8.92-1.57-12.96,2.36-5.9,6.52-.91,9.4.11,33.75,11.9,66.94,25.45,101.83,33.93,7.27,1.77,12.18,5.46,12.44,13.38Z"/>
    <path class="cls-105" d="M263,808.15c-14.34.8-26.44-3.93-32.93-17.26-6.62-13.57-4.69-27.31,4.35-39.28,10.82-14.33,26.2-22,43.08-27.18,15.09-4.63,21.19-14.57,17.92-28.41-7.52-31.81,5.51-49.89,38.3-53.14,1.26-.13,2.61-.54,3.77-.25,5.87,1.48,16.18-3.3,16.4,6.12.19,8.36-9.37,3.66-14.46,4.44-8.87,1.35-17.37,3.45-25.25,7.65-13.88,7.4-19,20.49-14.07,35.27,6.25,18.69,2.23,27.96-15.91,35.95-5.77,2.54-11.94,4.21-17.67,6.83-4.94,2.25-10.02,4.68-14.18,8.07-25.22,20.55-21.05,42.93,10.65,61.19Z"/>
    <path class="cls-44" d="M947.14,1048.82c-1.15-8.9-1.57-17.73-6.44-25.38-3.54-5.56.18-7.14,4.14-9.21,4.47-2.34,7.5-2.22,10.05,2.9,6.29,12.62.3,22.19-7.75,31.69Z"/>
    <path class="cls-39" d="M914.85,1001.05c10.45-1.85,19.01-3.01,27.02,2.29q-9.42,12.29-27.02-2.29Z"/>
    <path class="cls-71" d="M664.79,868.29c-1.71.82-3.42,1.65-5.13,2.47-17.84-6.7-35.06-14.69-51.37-24.58.89-.82,1.79-1.64,2.68-2.46,3.6-2.19,6.43.26,9.21,1.77,11.75,6.39,24.11,11.36,36.58,16.11,3.34,1.27,7.54,1.87,8.02,6.69Z"/>
    <path class="cls-43" d="M671.93,583.95c0,19.98-.14,45.67.08,71.35.07,8.56-3.69,11.59-11.76,9.84-6.99-1.52-14.3-2.36-20.84-5.02-54.69-22.26-108.61-46.25-160.25-74.95-12.44-6.91-23.34-16.58-34.97-24.94-4.32-3.1-7.25-7.13-7.89-12.43-6.43-53.21-9.79-106.43-.18-159.66.45-2.48,1.12-4.92,1.77-7.35,3.39-12.64,6.11-13.81,17.32-6.75,28.55,17.96,56.47,36.98,85.62,53.92,38.99,22.66,78.8,44.02,122.33,57.11,9.29,2.8,10.91,9.24,10.98,17.43.23,25.27-.02,50.52-2.21,81.46Z"/>
    <path class="cls-2" d="M884.34,787.46c-7.31,1.85-12.76,3.23-18.48,4.68-.65-8.29,7.42-8.16,9.91-13.03-2.39-3.79-9.34,1.68-9.86-4-.4-4.35,4.7-5.45,7.82-7.24,21.77-12.5,43.71-24.68,69.76-32.55-4.08,9.96-13.74,11.37-18.76,17.93,4.16,3.24,7.93-3.16,12.07.1-2.27,6.08-8.71,8.39-13.13,14.22,4.56,1.45,9.22-1.8,13.69,1.36-2.92,6.02-8.05,10.26-13.59,13.29-15.1,8.26-29.94,17.1-46.15,23.2-3.91,1.47-9.37,4.8-11.49.91-2.82-5.18,4.05-7.12,7.26-9.97,3.06-2.71,7.82-3.18,10.94-8.89Z"/>
    <path class="cls-87" d="M453.74,868.85c38.23,18.59,74.44,41.04,113.15,58.71,9.27,4.23,7.37,8.81.14,13.3-1.07.66-2.24,1.17-3.37,1.73-56.74,27.89-42.3,24.62-92.88,1.42-63.22-29-125.6-59.73-187.37-91.68-2.83-1.46-7.59-1.34-7.73-5.4-.13-3.78,4.05-4.97,7-6.5,16.43-8.58,32.97-16.96,49.29-25.74,9.44-5.08,17.11.17,25.12,3.51,5.33,2.23,9.45,7.02,15.64,7.54,12.69,2.54,23.2,10.06,34.79,15.14,1.05.53,2.05,1.15,3.01,1.81,9.21,6.47,19.71,10.52,29.58,15.74,5.16,2.73,10.29,5.39,13.64,10.43Z"/>
    <path class="cls-123" d="M375.08,823.36c-3.97-2.92-11.74-3.6-7.63-11.52,4.02-7.76,9.29-2.68,13.95-.66,56.46,24.56,110.34,54.36,165.53,81.51,5.69,2.8,16.03,5.29,11.87,14.41-4.62,10.13-12.46,2.16-18.3-.35-29.37-12.6-56.42-30.09-86.56-41.09-16.05-5.79-30.54-14.74-45.68-22.38l.11.08c-10.58-7.52-23.8-10.67-33.27-20.02Z"/>
    <path class="cls-87" d="M651.33,966.61c14.09,5.92,27.67,14.33,39.68,24.9,4.08,3.59-1.23,21.63-6.58,24.83-10.49,6.28-21.24,12.14-31.72,18.43-4.47,2.68-9.16,3.21-13.16.49-13.98-9.47-30.2-15.06-43.64-25.46-5.69-4.4-8.56-8.76-1.48-13.91,15.77-11.45,33.25-19.93,50.86-28.12,1.47-.68,3.28-.65,6.05-1.16Z"/>
    <path class="cls-132" d="M592.63,936.49c12.03,7.58,24.75,13.57,34.89,23.19,3.76,3.56-.74,5.95-3.61,7.4-19.59,9.89-39.23,19.69-58.92,29.38-6.45,3.17-11.04-.62-15.89-4.42-22.13-17.34-22.31-17.44,1.57-32.15,11.84-7.3,24.17-13.81,36.3-20.64,1.79-1.01,3.69-1.81,5.66-2.76Z"/>
    <path class="cls-78" d="M674.4,972.35c-13.7-5.49-29-12.52-43.18-21.73-3.87-2.51-3.07-6.6-1.46-10.27,1.68-3.83,5.21-4.62,8.52-3.34,16.13,6.24,31.85,13.43,46.58,22.56,2.3,1.42,5.43,3.54,3.48,7.1-2.46,4.49-6.63,6.27-13.94,5.69Z"/>
    <path class="cls-129" d="M580.15,906.6c15.42,4.85,30.61,12.86,44.54,23.25,2.01,1.5,1.15,3.8.02,5.7-1.73,2.93-3.51,6.29-7.63,5.32-16.58-3.88-31.81-10.93-45.83-20.52-3.88-2.65-.91-6.16-.04-9.14,1.06-3.66,3.66-5.53,8.93-4.62Z"/>
    <path class="cls-9" d="M367.95,802.89c-3.73,3.62-4.57,10.99-10.5,9.43-5.9-1.55-14.07-3.36-14.6-11.21-.33-4.83,4.22-9.89,9.63-9.57,6.86.41,11.7,5.3,15.48,11.34Z"/>
    <path class="cls-103" d="M408.24,843.3c16.31,5.26,30.82,14.17,45.68,22.38-.06,1.06-.12,2.11-.18,3.17-15.3-8.29-31.86-14.32-45.5-25.55Z"/>
    <path class="cls-103" d="M375.08,823.36c11.63,5.78,23.54,11.09,33.27,20.02-12.89-3.83-24.29-10.68-35.64-17.64.79-.79,1.58-1.59,2.36-2.38Z"/>
    <path class="cls-11" d="M709.55,987.09c-3.35-.07-5.77-1.52-6.15-4.78-.32-2.81,1.66-4.42,4.37-4.81,3.18-.46,6.09.62,6.67,3.84.59,3.28-1.89,5.05-4.9,5.76Z"/>
    <path class="cls-99" d="M693.98,969.93c2.79-.11,5.02,1.19,5.58,3.76.75,3.42-1.36,5.43-4.71,5.55-2.73.1-4.65-1.48-4.97-4.28-.33-2.91,1.36-4.46,4.1-5.02Z"/>
    <path class="cls-50" d="M859.59,549.85c-.46,5.18,1.77,7.51,7.12,8,4.7.43,6.71,4.11,4.65,8.22-2.44,4.87-6.43,4.83-10.22,1.02-1.65-1.67-2.27-4.61-5.77-3.6-7.17,2.06-11.54-1.78-10.26-8.16,1.52-7.58,7.53-9.44,14.59-5.36l-.11-.11Z"/>
    <path class="cls-46" d="M852.5,446.24c3.1-.49,4.72,1.89,5.83,4.75,1.23,3.18,2.83,4.95,6.46,2.89,2.97-1.68,5.77-1.58,6.9,2.26.86,2.9.7,5.88-1.74,8.11-2.94,2.7-5.9,1.21-7.51-1.24-2.87-4.37-6.68-1.69-10.06-2.28-4.58-.79-7.61-3.79-7.4-8.62.17-3.98,3.24-5.5,7.52-5.87Z"/>
    <path class="cls-67" d="M872.05,521.43c-.28,2.82-2.89,6.07-4.36,5-6.55-4.73-16.08,1.1-21.44-6.41-1.85-2.59-2.56-5.72.53-7.75,4.12-2.71,9.01-8.84,12.59.38,1.65,4.27,4.7,4.07,8.04,4.2,2.92.11,4.79,1.33,4.64,4.57Z"/>
    <path class="cls-53" d="M859.7,549.97c0-3.42,0-6.84,0-10.26l-.11.14c9.8-7.29,15.26,5.79,23.93,5.34,1.96-.1,2.33,5.94.44,8.93-2.26,3.56-6.33,3.66-8.52.81-4.35-5.66-10.15-4.76-15.85-5.08,0,0,.11.11.11.11Z"/>
    <path class="cls-135" d="M881.56,481.68c4.49,3.25,10.05,6.27,16.56,7.88,2.97.74,2.5,5.81.66,8.89-1.88,3.13-6.15,3.65-7.32,1.21-3.52-7.3-17.21-2.24-16.35-13.92.23-3.08,2.59-3.97,6.45-4.06Z"/>
    <path class="cls-52" d="M872.24,501.77c-.15.82-.03,1.95-.52,2.39-8.71,7.78-14.26-5.68-22.8-3.62-2.35.57-2.86-6.19-.78-9.67.78-1.31,2.47-2.28,3.96-2.93,2.6-1.15,20.17,11.05,20.15,13.83Z"/>
    <path class="cls-81" d="M864.51,486.11c-3.67-4.7-9.53-6.86-15.93-8.63-2.77-.77-2.31-5.25-.58-7.79,2.09-3.08,5.95-4.83,8.54-1.85,3.49,4.01,6.63,6.75,12.38,6.75,3.91,0,3.74,3.98,3.17,6.87-.66,3.33-3.16,4.72-7.58,4.64Z"/>
    <path class="cls-130" d="M897.95,536.39c-.05,3.22-1.41,7.18-4.65,5.7-6.49-2.97-12.7-7.02-18.1-11.68-1.96-1.7.51-5.32,3.72-6.65,4.84-2.01,19.19,7.44,19.03,12.64Z"/>
    <path class="cls-76" d="M882.86,461.35c3.78,3.9,9.12,6.16,15.14,7.67,2.76.69,2.77,5.06,1.23,7.75-1.77,3.1-6.66,3.31-7.48,1.5-3.34-7.39-15.31-3-16.21-12.22-.29-2.98,3.02-4.7,7.31-4.7Z"/>
    <path class="cls-96" d="M859.49,431.29c-.08,4.63-2.38,7.14-6.95,7.18-5.08.04-7.84-2.62-7.76-7.74.07-4.4,2.24-7.14,6.9-7.17,5.16-.03,7.59,2.82,7.81,7.73Z"/>
    <path class="cls-53" d="M859.7,539.71c-1.89.88-3.71,2.15-5.7,2.56-4.06.85-7.83.03-9.02-4.56-1.03-3.94,1.28-6.36,4.89-7.58,4.62-1.57,7.22.62,8.55,4.84.5,1.59.79,3.24,1.18,4.87,0,0,.11-.14.11-.14Z"/>
    <path class="cls-124" d="M887.38,444.22c-.08,3.72-1.52,6.51-5.54,6.87-3.96.35-6.35-1.88-6.58-5.7-.28-4.66,2.66-6.59,6.99-6.65,3.64-.05,5.11,2.08,5.13,5.48Z"/>
    <path class="cls-58" d="M887.58,428.44c-4.6,1.3-10.19,6.93-12.61-2.25-.92-3.5.94-6.87,4.83-7.37,7.54-.97,7.29,4.78,7.68,9.75l.1-.13Z"/>
    <path class="cls-15" d="M906.78,433.63c5.41-.11,7.88,1.88,8.12,5.79.24,3.97-2.07,6.44-6.04,6.3-3.94-.14-5.85-2.88-6.01-6.68-.16-3.61,1.9-5.25,3.94-5.4Z"/>
    <path class="cls-98" d="M909.44,453.73c4.47.26,6.16,2.37,5.9,5.76-.27,3.63-1.79,6.7-6.17,5.95-3.09-.53-5.45-2.91-5.61-5.96-.21-4.21,3.22-5.23,5.87-5.75Z"/>
    <path class="cls-118" d="M914.55,395.62c-.58,3.72-2.71,6.38-6.33,6.71-3.49.32-5.22-2.4-5.31-5.63-.09-3.43,2.11-5.36,5.41-5.73,3.37-.37,5.55,1.21,6.23,4.64Z"/>
    <path class="cls-20" d="M908.53,516.04c3.66.32,4.51,2.9,4.51,5.99,0,3.67-1.33,6.72-5.51,6.52-3.33-.16-4.71-2.76-4.87-5.99-.2-4.08,2.09-5.9,5.88-6.52Z"/>
    <path class="cls-58" d="M887.48,428.58c1.48-.79,2.89-1.85,4.47-2.3,2.93-.84,6.09-1.13,7.54,2.34,1,2.38,1.02,5.33-1.61,6.69-3.25,1.69-6.67,1.43-8.8-2.11-.84-1.38-1.02-3.16-1.5-4.76,0,0-.1.13-.1.13Z"/>
    <path class="cls-80" d="M908.7,474.45c4.45.06,4.28,3.3,4.39,6.08.11,3-.39,5.93-4.44,5.82-3.38-.1-5.28-2.06-5.53-5.35-.31-4.03,2.19-5.82,5.58-6.55Z"/>
    <path class="cls-93" d="M893.41,509.69c3.65-.05,4.43,2.18,4.47,4.95.04,3.25-1.13,6.04-4.61,6.41-3.7.39-5.31-2.33-5.17-5.58.13-3.26,2.22-5.28,5.32-5.77Z"/>
    <path class="cls-42" d="M872.05,417.58c-1.04,3.91-3.11,5.76-6.48,5.56-3.52-.22-5.55-2.51-4.84-5.85.7-3.28,3.63-4.29,6.89-4.04,3.12.24,4.15,2.21,4.42,4.33Z"/>
    <path class="cls-139" d="M885.08,403.41c.09,3.3-1.19,5.89-4.62,6.21-3.56.33-5.38-2.11-5.21-5.41.16-3.2,2.19-5.36,5.55-5.58,3.27-.21,4.16,2.03,4.29,4.78Z"/>
    <path class="cls-141" d="M893.77,415.47c-3.24-.44-3.9-2.75-3.76-5.41.17-3.21,1.6-5.86,5.14-5.73,3.51.12,4.98,2.7,4.57,6.02-.41,3.35-2.67,4.93-5.96,5.12Z"/>
    <path class="cls-36" d="M912.71,500.91c.11,3.38-1,5.85-4.82,6-2.89.11-4.83-1.12-5.17-4.24-.47-4.24,1.77-6.46,5.67-6.77,3.27-.26,4.08,2.3,4.32,5.01Z"/>
    <path class="cls-143" d="M912.97,417.76c.11,3.47-1.35,5.56-5.04,5.53-2.87-.03-4.71-1.39-4.9-4.41-.22-3.57,1.52-5.42,5.1-5.5,2.98-.07,4.67,1.33,4.85,4.38Z"/>
    <path class="cls-83" d="M872.21,438.41c-.05,3.55-1.91,5.26-5.42,5.16-2.97-.08-4.51-1.72-4.57-4.64-.08-3.65,1.98-5.16,5.43-5.13,3.03.03,4.49,1.63,4.56,4.6Z"/>
    <path class="cls-49" d="M899.42,453.92c-.43,2.99-2.19,4.66-4.99,4.58-3.16-.09-5.78-1.37-5.2-5.23.39-2.58,1.65-4.79,4.74-4.71,3.47.08,5.13,2.17,5.44,5.36Z"/>
    <path class="cls-7" d="M453.28,709.38c-27.11-9.59-52.67-22.14-74.64-41.03-5.17-4.44-4.45-10.67-.8-16.1,4.46-6.62,9.52-3.02,14.25-.25,21.78,12.74,42.56,27.19,65.55,37.85,5.97,2.76,7.26,7.5,5.24,13.65-1.59,4.85-4.43,6.9-9.6,5.88Z"/>
    <path class="cls-106" d="M577.78,763.73c0,9.32-8.1,19.37-14.97,18.47-8.39-1.1-14.33-6.48-14.37-14.96-.04-8.82,5.66-15.75,14.44-16.36,8.21-.57,14.15,4.62,14.89,12.86Z"/>
    <path class="cls-125" d="M494.94,715.83c.08,4.86-2,8.06-6.38,8-7.07-.1-11.72-4.37-13.04-11.09-.82-4.18,2.88-5.59,6.5-5.5,6.21.17,11.4,2.09,12.92,8.59Z"/>
    <path class="cls-132" d="M664.79,868.29c-18.29-7.43-36.87-14.23-53.81-24.58-2.9-2.42-6.23-4.49-8.62-7.34-5.37-6.41-4.08-14.11-.39-20.1,3.61-5.84,9.46-1.08,13.42,1.12,25.9,14.34,56.07,17.93,81.83,32.81,7.28,4.2,7.96,7.91,6.02,15.06-2.12,7.83-6.57,10.33-13.88,8.78-8.23-1.74-16.39-3.82-24.58-5.75Z"/>
    <path class="cls-45" d="M663.26,577.4c0,22.74-.55,45.49.24,68.2.38,10.96-3.41,11.96-12.58,9.23-28.47-8.47-54.57-22.43-81.12-35.13-37.22-17.8-75.35-33.99-109.57-57.58-9.3-6.41-15.06-14.68-16.1-25.77-4.47-47.54-3.09-95.05,1.37-142.5,1.18-12.54,3.24-13.15,13.55-5.81,59.35,42.27,123.26,76.15,191.51,101.55,12.65,4.71,15.59,11.5,14.69,23.46-1.62,21.4-2.31,42.88-3.39,64.32.47.01.93.02,1.4.03Z"/>
    <path class="cls-97" d="M362.89,838.18c-1.17.14-2.35.27-3.52.41-3.64,2.78-7.49,4.34-12,2.04-.08-1.06-.16-2.12-.24-3.18-4.81-4.19-9.62-1.69-14.44,0-.1.86-.2,1.73-.3,2.59-2.57,2.82-8.24,2.79-7.77,8.4-1.08.08-2.16.16-3.25.24-5.29,2.75-11.86,2.51-16.41,6.97-1.91-1.58-3.82-3.16-5.73-4.74-.83-3.58,2.38-7.19-.11-10.75,2.67-1.44,5.35-2.88,8.02-4.31,5.64,1.86,10.81,1.78,14.7-3.55,2.21-2.08,7.61-1.89,5.18-7.27,2.53-1.51,5.07-3.01,7.6-4.52,3.78,2.83,8.89-1.04,12.53,2.49,1.06.1,2.13.2,3.19.3,1.49,5.14,6.95,4.46,10.25,6.97,1.83,2.33,3.73,4.64,2.3,7.91Z"/>
    <path class="cls-136" d="M410.94,863.29c-.17,2.15-.32,4.31-2.74,5.31-4.71-2.85-8.64-.97-12.39,2.03-.19,1.19-.38,2.37-.56,3.56-1.8.12-2.54-.73-2.31-2.49.06-2.29-.27-4.4-2.53-5.66,2.41-9.04-5.31-2.52-7.33-4.75-.12-1.2-.24-2.4-.36-3.59-1.26-3.53-5.8-2.02-7.51-4.86-.82-.65-1.65-1.29-2.47-1.94-2.06-1.72-3.37-3.74-2.67-6.57.02-2.14.04-4.27.06-6.41.07-1.37.8-2.14,2.17-2.31,1.25.25,2.5.5,3.74.75,1.03,5.86,4.57,6.44,9.35,4.45.91,1.02,1.83,2.04,2.74,3.06,1.91,3.46,4.38,4.62,7.79,1.87,3.3,1.63,6.61,3.27,9.91,4.9-.08,1.01-2.08,1.54-.97,2.58.34.32,1.91-1.03,2.73-1.88,3.21.69,6.16,1.86,8.37,4.42-1.02,2.95-3.6,4.86-5.03,7.53Z"/>
    <path class="cls-144" d="M540.63,931.53c-1.18.15-2.36.3-3.54.45-2.53,1.96-4.95,2.03-7.22-.44,1.01-1.09,3.1-2.65,2.86-3.19-1.23-2.76-3.96-.92-6.02-1.37-4.01.85-7.72,3.47-12.12,2.05-.76-.71-1.51-1.42-2.27-2.13-2.16-2.22-2.95-5.35-5.12-7.57-.5-2.27,6.38-2.07,1.9-5.67-.04-4.01,3.48-5.15,5.86-7.2,3.36,1.62,6.72,3.25,10.09,4.87-6.06,8.06,4.73,1.73,4.28,4.99.54-.04.82.21.85.75,2.54,4.71,6.21,3.83,10.08,2.05.86,1.03,1.72,2.05,2.58,3.08.98,3.52-.97,6.34-2.22,9.33Z"/>
    <path class="cls-144" d="M478.65,904.12c3.71-.24,8.06.49,8.14-5.3-1.14-2.72.85-3.77,2.64-4.93,1.79.94,3.59,1.87,5.38,2.81-1.36,8.3,6.44,4.48,9.39,7.08l.7.67c1.21,2.99,2.81,5.86,2.94,9.19-1.95,1.86-3.89,3.71-5.84,5.57-3.59-3.93-8.54-1.04-12.62-2.52-.72-.77-1.44-1.55-2.16-2.32,1.62-6.96-6.18-4.24-7.95-7.71-.18-.86-.37-1.73-.55-2.59l-.08.06Z"/>
    <path class="cls-111" d="M304.95,855.65c2.43-9.45,9.27-8.57,16.42-6.98-1.66,11.25-8.97,9.28-16.42,6.98Z"/>
    <path class="cls-60" d="M299.11,840.15c2.74.47,6.87-.46,7.3,3.15.53,4.47-5.54,4.28-7.19,7.61-3.15-.88-6.31-1.76-9.61-2.68,1.45-5.62,6.51-5.57,9.5-8.07Z"/>
    <path class="cls-38" d="M326.11,864.14c-3.54-.26-7.24-1.03-6.82-3.45.77-4.56,5.62-5.64,9.5-6.42,2.09-.42,5.8.94,5.16,3.83-.9,4.05-5.52,4.37-7.83,6.03Z"/>
    <path class="cls-137" d="M380.77,892.28c4.13-4.37,7.79-8.03,14.01-3.91,2.57,1.7,2.01,3.38.45,4.99-4.94,5.1-9.51,3.13-14.46-1.08Z"/>
    <path class="cls-1" d="M436.09,883.61c-.84-.79-1.68-1.57-2.53-2.36-1.91-1.08-3.69-2.23-2.69-4.9.84-.65,1.69-1.3,2.53-1.96,4.1-3.56,8.54-1.48,12.9-.78,2.74.06,5.69-.77,7.84,1.82-1.01,4.16-5.61,3.56-7.96,5.94-.75.74-1.51,1.48-2.26,2.22-2.61,1.01-5.22.8-7.83,0Z"/>
    <path class="cls-16" d="M370.08,844.32c1.67,1.88,4.03,3.47,2.67,6.57-.39.13-.84.17-1.16.39-3.77,2.67-7.49,3.01-11.18-.14-.92-.78-1.95-1.56-.92-2.86,2.72-3.43,5.94-5.64,10.6-3.97Z"/>
    <path class="cls-85" d="M376.49,879.26c2.51.55,5.84,1.19,5.59,3.9-.33,3.59-3.93,5.35-7.22,5.83-2.82.42-6.63-.49-6-4.17.58-3.4,4.43-4.59,7.63-5.56Z"/>
    <path class="cls-33" d="M360.29,873.6c-.82.03-1.74-.16-2.45.14-4.04,1.71-8.29,5.55-11.99.03-1.56-2.32,1.63-3.42,3.17-4.41,5.62-3.62,9.35-1.98,11.07,4.42l.19-.17Z"/>
    <path class="cls-74" d="M405.75,904.73c4.45-3.58,7.64-7.46,12.9-3.79,1.76,1.23,1.95,2.53.37,4-4.15,3.85-8.37,5.86-13.27-.21Z"/>
    <path class="cls-121" d="M324.61,848.43c-.29-2.3-5.37-2.35-3.11-5.45,2.6-3.57,6.44-4.96,10.88-2.95,2.58,6.23,1.75,7.12-7.77,8.4Z"/>
    <path class="cls-89" d="M360.1,873.78c3.13.56,6.85-1.7,9.32,1.94,1.31,1.93-.21,3.12-1.31,4.3-2.43,2.63-5.03,4.4-8.84,2.28-6.89-3.83,1.78-5.68,1.02-8.7,0,0-.19.17-.19.17Z"/>
    <path class="cls-140" d="M353.31,852.46c2.75.49,6.25.87,6.29,4.35.04,3.39-3.43,4.23-6.22,4.5-2.95.28-6.39-.71-6.43-3.98-.04-3.15,3.4-4.15,6.36-4.88Z"/>
    <path class="cls-56" d="M337.7,870.74c-2.2-.96-5.83-1.29-4.91-4.26,1.15-3.72,5.04-5.24,8.82-5.37,2.34-.08,5.8,1.24,4.86,3.87-1.23,3.48-5.07,4.98-8.77,5.76Z"/>
    <path class="cls-115" d="M332.69,837.43c8.32-9.11,9.67-9.11,14.44,0-4.81,3.28-9.63,3.25-14.44,0Z"/>
    <path class="cls-107" d="M478.73,904.06c-.4.11-.87.12-1.18.35-3.65,2.65-7.22,6.21-11.96,2.16-2.25-1.91-.73-3.59,1.02-4.89,4.91-3.68,9.08-3.53,12.05,2.44,0,0,.08-.06.08-.06Z"/>
    <path class="cls-101" d="M479.53,933.66c-.11,3.52-2.09,5.41-3.74,5.19-3.94-.54-8.33-1.37-9.77-5.91-.18-.58,2.83-2.86,4.6-3.21,4.12-.83,6.45,2.36,8.91,3.93Z"/>
    <path class="cls-127" d="M477.68,918.69c-1.48,3.26-4.36,4.62-7.19,4.36-2.6-.24-6.68-1.3-5.4-5.13.84-2.49,4.03-4.51,7.3-3.33,2.09.75,4.96,1.07,5.29,4.1Z"/>
    <path class="cls-77" d="M504.21,903.78c-2.24.86-4.42,2.02-6.74,2.51-3.11.66-6.27-1.09-7.27-3.4-1.47-3.39,2.95-4.13,4.62-6.19,3.26,2.19,7.71,2.8,9.39,7.08Z"/>
    <path class="cls-110" d="M479.28,906.65c3.67-.69,7.47-1.2,10.23,1.91,2.62,2.96-1.99,3.65-2.28,5.8-5.36.22-13.88,3.67-7.95-7.71Z"/>
    <path class="cls-73" d="M452.81,920.86c-1.36,3.07-3.24,5.25-6.73,4.17-2.59-.81-6.62-1.09-5.86-4.89.31-1.54,3.85-3.12,6.09-3.42,2.84-.39,5.59.88,6.5,4.14Z"/>
    <path class="cls-26" d="M327.02,825.03c2.57.38,6.41-1.18,6.88,2.81.32,2.74-3.05,3.78-5.16,4.47-2.63.86-5.63.61-8.47.84l-.02.17c-.77-5.22,3.9-6.03,6.76-8.3Z"/>
    <path class="cls-110" d="M507.85,913.63c-3.55-2.25-7-4.52-2.95-9.19,3.73-1.15,6.94.24,10.07,2.02.63,4.49-3.85,4.84-5.86,7.2,0,0-1.26-.03-1.26-.03Z"/>
    <path class="cls-30" d="M430.88,876.35c.9,1.63,1.79,3.27,2.69,4.9-.37.2-.75.37-1.1.59-3.11,1.95-5.97,4.77-10.12,2.01-1.71-1.14-2.34-2.8-1.38-4.12,2.39-3.31,5.83-4.5,9.9-3.38Z"/>
    <path class="cls-17" d="M433.69,868.44c-.42.02-.86-.02-1.26.08-3.91.97-8.15,3.8-11.23-1.18-1.43-2.31.5-4.18,2.46-4.86,5.61-1.94,8.71.65,9.83,6.15l.19-.19Z"/>
    <path class="cls-117" d="M320.26,833.33s.03-.18.02-.18c-2.45,8.94-6.02,9.67-13.15,2.68,4.05-2.54,8.47-3.15,13.12-2.51Z"/>
    <path class="cls-119" d="M489.39,916.68c4.81-2.15,10.58-9.13,12.62,2.52-4.98,3.02-9.74,4.91-12.62-2.52Z"/>
    <path class="cls-117" d="M347.36,840.62c3.76-2.07,7.66-3.36,12-2.04,1.87,6.22-3.23,6.81-6.85,7.42-3.07.52-6.91-.3-5.16-5.38Z"/>
    <path class="cls-8" d="M490.92,925.81c-1.09,2.58-3.08,4.09-5.81,4.09-3.04,0-6.77-.86-7.23-3.84-.53-3.38,3.2-4.36,6.06-4.58,3.17-.24,5.52,1.51,6.99,4.33Z"/>
    <path class="cls-65" d="M420.87,872.56c-.87,3.56-3.51,5-6.25,5.69-3,.75-6.29-.38-6.15-3.81.13-3.08,3.63-4.48,6.38-5.01,2.44-.47,4.58,1.18,6.02,3.13Z"/>
    <path class="cls-34" d="M414.11,893.76c-2.89-.89-6.01-1.24-5.45-4.41.55-3.1,3.55-4.7,6.49-4.51,2.17.14,5.45.92,5.01,4.13-.47,3.4-4.11,3.42-6.05,4.79Z"/>
    <path class="cls-13" d="M399.61,902.06c-2.09-.37-4.78-.93-3.97-3.51,1.08-3.44,4.34-4.91,7.89-4.88,2.18.02,4.83,1.3,4.05,3.53-1.15,3.26-4.37,4.76-7.97,4.86Z"/>
    <path class="cls-66" d="M383.08,861.29c1.03-.66,2.07-1.3,3.08-1.98,3.27-2.22,7.43-4.01,9.61.04,2.17,4.04-4.21,3.83-5.37,6.69-3.32-.24-6.2-1.15-7.33-4.75Z"/>
    <path class="cls-131" d="M372.31,835.61c-.72.77-1.44,1.54-2.17,2.31-2.42.09-4.84.17-7.25.26-2.82-2.39-2.47-5.75-2.74-8.93l-.14.13c4.45,1.38,9.94.72,12.3,6.23Z"/>
    <path class="cls-66" d="M436.09,883.61c2.61,0,5.22,0,7.83,0,.22,7.26-4.8,8.61-9.59,6.34-4.87-2.31.45-4.32,1.76-6.33Z"/>
    <path class="cls-92" d="M364.37,868.12c-2.13-.98-4.76-1.6-3.99-4.05,1.08-3.43,4.18-4.95,7.65-4.53,1.27.15,3.49,2.23,3.31,2.91-.94,3.5-4.06,4.71-6.97,5.67Z"/>
    <path class="cls-27" d="M529.34,916.33c-1.18.34-2.53.44-3.53,1.08-3.6,2.28-8.72,3.05-9.48-.98-1.04-5.51,4.76-4.98,8.73-5.09,1.43,1.66,2.86,3.33,4.28,4.99Z"/>
    <path class="cls-108" d="M395.81,870.63c-.84-4.81,2.52-6.45,6.1-7.12,3.57-.67,6.22.9,6.29,5.09-3.91,2.03-7.8,4.12-12.39,2.03Z"/>
    <path class="cls-63" d="M446.31,873.62c-4.14,2.98-8.43,3.39-12.9.78-2.76-2.12,1.23-3.92.28-5.96,0,0-.19.2-.19.19,5-.2,10.2-.9,12.82,4.99Z"/>
    <path class="cls-65" d="M507.21,919.33c4.79.44,9.76.77,5.12,7.57-3.49,1.76-7.45,2.68-9.48-1.3-1.64-3.22,2.84-4.15,4.36-6.27Z"/>
    <path class="cls-30" d="M540.63,931.53c-5.37-4.56,1.37-6.24,2.22-9.33,2.42.75,4.85,1.51,7.27,2.26,3.9,6.43-2.11,5.72-5.17,7.12-1.44-.02-2.88-.04-4.32-.05Z"/>
    <path class="cls-21" d="M557.97,929.08c1.78,1.8,6.88,2.26,4.09,5.98-2.81,3.76-7.5,2.64-11.59,1.21-2.12-7.19,1.51-8.41,7.5-7.19Z"/>
    <path class="cls-18" d="M339.4,854.22c-1.8-.41-4.43-.42-4.33-3.11.14-3.54,3.33-4.54,6.09-4.96,2.58-.39,5.86,1.18,5.32,3.7-.55,2.57-3.8,4.12-7.08,4.37Z"/>
    <path class="cls-40" d="M514.6,929.03c3.73-2.48,7.56-4.38,12.12-2.05-6.2,8.92-7.58,9.15-12.12,2.05Z"/>
    <path class="cls-88" d="M529.88,931.54c2.41.15,4.81.29,7.22.44-.55,6.63-5.95,8.7-10.07,6.35-4.6-2.63,1.19-4.67,2.85-6.79Z"/>
    <path class="cls-104" d="M540.27,919.13c-1.97,4.98-5.89,6.89-10.54,4.85-4.43-1.94.58-4.53.46-6.91,3.72-1.06,6.98.09,10.08,2.06Z"/>
    <path class="cls-134" d="M376.92,873.91c-3.24-.59-6.51-1.47-5.81-4.23.69-2.7,3.92-4.19,7.12-4.01,2.18.13,4.6,1.14,4.4,3.45-.29,3.49-3.86,3.63-5.71,4.79Z"/>
    <path class="cls-84" d="M392.94,871.7c.77.83,1.54,1.66,2.31,2.49-.19.38-.32.81-.59,1.12-2.61,3.02-5.51,5.49-9.76,3.29-.84-.43-1.82-2.34-1.52-2.96,1.97-3.95,5.4-4.95,9.56-3.94Z"/>
    <path class="cls-14" d="M385.4,840.81c-2.58,6.04-6.9,5.11-10.98,2.2-4.17-2.97.28-4.6,1.63-6.65,3.12,1.48,6.23,2.96,9.35,4.45Z"/>
    <path class="cls-77" d="M401.66,886.96c-2.49-.5-5.62-1.13-5.68-3.88-.07-3.38,3.17-4.52,6.11-4.62,2.55-.09,5.62,1.06,5.64,3.72.02,3.19-3.05,4.4-6.07,4.78Z"/>
    <path class="cls-48" d="M347.15,823c-4.58,1.18-9.64,4.78-12.53-2.49,5.11-3.84,10.24-7.8,12.53,2.49Z"/>
    <path class="cls-41" d="M464.13,911.39c-.22,3.13-2.44,4.37-4.88,4.95-2.75.65-5.49-.72-5.99-3.22-.58-2.89,2.45-3.98,4.79-4.52,2.54-.59,4.97-.05,6.07,2.79Z"/>
    <path class="cls-21" d="M360.01,829.38s.14-.13.14-.13c-3.79,2.03-7.88,3.36-11.45.24-2.7-2.35.67-4.2,1.64-6.2,4.43.11,7.97,1.64,9.67,6.09Z"/>
    <path class="cls-91" d="M452.49,905.2c-.31,2.88-2.66,3.75-4.95,4.44-2.08.62-4.77.18-5.23-1.81-.85-3.69,2.71-4.83,5.25-5.64,1.89-.6,3.91.76,4.92,3Z"/>
    <path class="cls-16" d="M466.57,893.78c-1.24,5.47-4.52,8.33-10.27,7.58-.76-.1-2.1-1.95-1.89-2.43,2.43-5.57,7.56-4.89,12.32-4.97l-.17-.18Z"/>
    <path class="cls-64" d="M489.43,893.89c-.88,1.64-1.76,3.28-2.64,4.93-6.47,1.3-10.69.44-7.4-7.65l-.16.22c3.64-.12,7.16.23,10.2,2.51Z"/>
    <path class="cls-62" d="M430.16,907.33c-2.45,4.43-5.18,7.17-9.98,5.84-.8-.22-1.92-2.55-1.65-2.88,2.72-3.31,5.9-5.8,11.63-2.96Z"/>
    <path class="cls-122" d="M440.07,913.66c-1.03,3.34-3.67,4.6-6.58,5.12-2.2.39-4.81-.54-4.56-2.95.33-3.28,3.57-4.31,6.44-4.74,1.93-.29,4.22-.16,4.71,2.57Z"/>
    <path class="cls-24" d="M443.86,894.68c1.56-4.76,4.75-6.58,9.4-5.66.61.12,1.54,2.51,1.22,2.86-2.78,3.04-5.75,6.09-10.63,2.8Z"/>
    <path class="cls-109" d="M466.74,893.96c.89-2.6,1.77-5.2,2.66-7.8l-.18.2c4.27-.17,8.71-.66,10.01,5.03,0,0,.16-.22.16-.22-4.12,1.64-8.26,3.16-12.82,2.61,0,0,.17.18.17.18Z"/>
    <path class="cls-116" d="M557.97,929.08c-4.27.55-7.79,1.89-7.5,7.19-.36,2.17.04,4.68-2.62,5.81-1.65-1.45-1.6-2.98-.23-4.57.14-2.44-.36-4.59-2.68-5.92,1.66-2.42,5.97-2.93,5.17-7.12,2.62,1.54,5.24,3.08,7.86,4.62Z"/>
    <path class="cls-68" d="M547.63,937.51c.08,1.52.15,3.05.23,4.57-3.7,1.28-7.15,4.78-11.79,1.01,2.3-5.1,5.87-7.36,11.57-5.58Z"/>
    <path class="cls-72" d="M486.43,936.96c2.25.26,4.5,1.65,4.28,3.56-.28,2.37-2.53,4.11-5.31,3.95-2.22-.13-4.48-1.65-4.29-3.55.24-2.45,2.55-3.94,5.32-3.95Z"/>
    <path class="cls-131" d="M410.94,863.29c-4.76-6.79.67-6.8,5.03-7.53,1.39,1.6,5.26,2.09,3.61,5.02-1.73,3.08-5.3,3.18-8.64,2.51Z"/>
    <path class="cls-70" d="M513.52,937.41c-2.21,2.91-4.32,4.94-7.54,4.57-2.1-.25-4.43-1.52-3.2-3.93,1.33-2.62,4.09-4.26,7.26-3.45,1.32.34,2.33,1.84,3.49,2.81Z"/>
    <path class="cls-29" d="M375.22,852.84c2.73-.76,5.34-2.83,8.26-.27,2.55,2.23.16,3.52-.75,5.13-3.01.95-6.28,2.75-8.99.08-1.67-1.65-.16-3.61,1.48-4.94Z"/>
    <path class="cls-28" d="M431.06,894.33c-.56,2.86-2.73,4.07-5.16,4.62-2.15.49-4.5-.05-4.55-2.7-.06-2.98,2.67-3.92,5-4.58,2.21-.62,4.03.17,4.71,2.66Z"/>
    <path class="cls-102" d="M469.4,886.15c-.41.05-.82.07-1.22.15-3.68.73-7.47,4.64-10.96-.17-1.28-1.76.29-3.25,1.55-3.98,5.13-2.97,8.45-.89,10.45,4.2,0,0,.18-.2.18-.2Z"/>
    <path class="cls-14" d="M446.19,881.38c-.22-5.81,3.95-5.77,7.96-5.94,1.77,1.13,3.46,2.42,1.72,4.69-2.74,3.59-6.18,2.94-9.68,1.25Z"/>
    <path class="cls-128" d="M407.6,851.34c.81,5.77-2.95,6.13-6.97,5.47-1.27-.21-3.43-2.34-3.23-2.99,1.34-4.39,5.26-2.96,8.44-3.17.51.43,1.09.67,1.76.7Z"/>
    <path class="cls-31" d="M464.08,926.68c0,2.7-1.85,4-3.77,4.25-2.96.38-5.95-.59-6.24-4.11-.21-2.49,2.22-3.2,4.29-3.28,2.5-.1,4.89.41,5.73,3.14Z"/>
    <path class="cls-102" d="M395.94,845.73c-.09,5.38-3.72,6.08-7.53,4.74-4.41-1.55-1.84-4.31-.26-6.61,2.6.62,5.19,1.25,7.79,1.87Z"/>
    <path class="cls-55" d="M456.01,854.8c-2.62,3.6-4.96,2.41-7.07,1.3-1.95-1.04-5.04-2-3.22-5.06,1.22-2.04,3.78-1.33,5.49-.31,1.84,1.1,3.33,2.8,4.79,4.08Z"/>
    <path class="cls-75" d="M649.19,987.52c-1.68,1.7-3.35,3.4-5.03,5.11-4.33-3.14-7.18-.28-10.07,2.45-.83.66-1.65,1.33-2.48,1.99-2.69,1.63-5.35,1.64-7.97-.15-.69-.55-1.39-1.11-2.08-1.66-2.35-2.57.07-3.38,1.67-4.48.36-.57.86-.97,1.5-1.2,3.64-2.64,7.68-4.57,11.62-6.68,5.35-11.91,10.53-13.59,18.06-5.86,2.83,5.76-.23,8.61-5.22,10.49Z"/>
    <path class="cls-112" d="M649.19,987.52c1.59-3.57,5.44-6.02,5.22-10.49,7.22.83,10.48,7.5,16.01,10.78,5.43,3.22-.13,5-.66,7.48-1.08,5.07-4.11,2.99-6.39,1.61-4.85-2.92-9.47-6.24-14.18-9.39Z"/>
    <path class="cls-142" d="M656.98,1002.64c-.81-.03-1.77-.37-2.4-.05-4.5,2.28-8.82,1.57-10.74-2.82-1.51-3.46,2.78-5.11,5.26-5.35,5.68-.55,8.12,2.86,7.67,8.41l.2-.2Z"/>
    <path class="cls-23" d="M680.17,1009.6c-3.38,5.93-7.12,8.51-12.72,6.9-1.24-.36-3.11-1.93-1.72-3.9,3.41-4.86,8.06-5.26,14.45-2.99Z"/>
    <path class="cls-5" d="M605.83,1005.34c.41-.05.83-.06,1.22-.16,4.49-1.15,9.06-5.24,13.4.13,1.74,2.16.25,3.96-1.54,4.98-6.28,3.54-9.79-.36-12.88-5.1l-.2.16Z"/>
    <path class="cls-121" d="M633.52,1015.23c-2.02,3.29-4.8,3.45-7.75,2.42-1.82-.63-4.7-1.51-3.64-3.84,1.48-3.28,4.62-4.74,8.28-2.83,1.7.89,3.88,1.75,3.11,4.25Z"/>
    <path class="cls-90" d="M656.78,1002.84c3.35.67,8.26-2.93,9.75,2.31.95,3.35-3.02,4.99-5.78,5.09-6.11.24-4.79-3.91-3.77-7.6,0,0-.2.2-.2.2Z"/>
    <path class="cls-25" d="M638.03,1002.64c2.48.93,5.8,1.35,5.68,5.17-.06,1.88-1.92,2.74-3.67,2.66-3.03-.14-6.17-1.22-6.7-4.34-.33-1.95,2.12-3.36,4.69-3.49Z"/>
    <path class="cls-6" d="M636.35,982.89c-2.51,4.59-6.05,7.4-11.62,6.69,1-7.22,5.89-7.69,11.62-6.69Z"/>
    <path class="cls-108" d="M634.09,995.08c-.96-4.98,2.79-6.51,6.22-7.22,2.92-.6,3.99,1.99,3.85,4.76-3.13,1.72-6.13,4.02-10.07,2.45Z"/>
    <path class="cls-12" d="M623.23,990.78c-.56,1.49-1.11,2.99-1.67,4.48-3.24,1.78-6.7,2.59-10.4,2.39l.15.18c1.48-6.54,5.59-8.65,11.91-7.05Z"/>
    <path class="cls-85" d="M623.65,996.92c2.68-.96,5.34-1.34,7.97.15,1.13,5.6-2.7,6.56-6.55,5.92-3.64-.61-4.77-3.14-1.42-6.06Z"/>
    <path class="cls-10" d="M611.17,997.65c-1.78,2.56-3.55,5.13-5.33,7.69,0,0,.2-.16.2-.16-2.12-.79-6.51.46-6.13-2.05.97-6.39,6.64-5.46,11.41-5.3,0,0-.15-.18-.15-.18Z"/>
    <path class="cls-94" d="M580.43,952.29c1.23-.14,2.45-.29,3.68-.43,5.51-1.88,11.78,1.63,16.99-2.37,2.55,1.64,5.1,3.28,7.64,4.92-4.32,3.24-4.91,7.94-5.06,12.82-.91.05-1.82.1-2.72.14-4.34,2.3-15.9-7.13-12.56,7.68-1.81.75-3.62,1.49-5.43,2.24-6.27-3.55-10.36-1.82-12.31,5.08-.94.85-1.88,1.71-2.82,2.56-3.8-2.79-9.06,0-12.72-3.31-.83-.59-1.66-1.17-2.49-1.76-.07-4.23-2.32-7.42-5-10.39,3.43-1.59,6.85-3.18,10.28-4.76,1.53,1.24,3.38,3,5.16,2.1,2.55-1.29-.08-3.24-.22-4.93,2.56-1.6,5.12-3.2,7.68-4.8,6.34,4.64,9.66,3.07,9.92-4.8Z"/>
    <path class="cls-100" d="M588.39,975.06c-3.13-2.01-9.04-3.25-5.47-8.28,2.23-3.15,6.85-6.2,11.88-3.31,2.1,1.21,4.1,2.6,6.15,3.91-2.48,5.33-8.63,4.7-12.56,7.68Z"/>
    <path class="cls-95" d="M603.68,967.23c-7.94-8.05-5.85-12.17,5.06-12.82,2.02,2.81,8.46,3.25,6.66,7.33-1.71,3.87-7.13,4.97-11.72,5.49Z"/>
    <path class="cls-113" d="M547.62,969.48c3.84-.17,7.86.34,9.5,4.04,1.56,3.5-3.49,3.82-4.5,6.36-4.89,1.66-9.73.11-11.54-3.94-2.29-5.14,4.54-3.98,6.54-6.46Z"/>
    <path class="cls-69" d="M601.09,949.49c-4.49,9.14-10.79,5.4-16.99,2.37,4.07-12.17,10.53-7.25,16.99-2.37Z"/>
    <path class="cls-3" d="M580.43,952.29c1.37,2.39,6.18,3.4,4.67,6.37-1.28,2.51-5,4.8-7.93,5.22-4.1.6-6.76-2.24-6.66-6.8,3.31-1.6,6.61-3.2,9.92-4.8Z"/>
    <path class="cls-57" d="M570.65,982.37c-2.59-3.59-4.12-6.86,1.04-9.86,6.17-3.59,8.72.38,11.27,4.79-3.97,2.01-7.42,5.28-12.31,5.08Z"/>
    <path class="cls-57" d="M555.12,981.63c5.14-2.35,10.36-4.98,12.72,3.31-3.97,1.13-6.8,6.8-11.85,3.34-2.3-1.58-4.68-3.91-.87-6.65Z"/>
    <path class="cls-82" d="M562.83,961.89c3.39.27,6.91.87,7.43,4.87.39,2.99-2.77,4.12-4.88,4.64-5.29,1.3-7.48-1.66-7.47-6.68,1.64-.94,3.29-1.89,4.93-2.83Z"/>
    <path class="cls-59" d="M382.06,657.78c24.46,12.44,46.82,23.79,69.16,35.2,2.6,1.33,6.17,3.01,4.4,6.45-2.22,4.3-5.03.47-7.26-.75-18.51-10.1-37.02-20.22-55.37-30.6-3.51-1.99-7.9-3.25-10.93-10.3Z"/>
    <path class="cls-138" d="M563.72,772.51c-3.42-.66-5.36-2.93-5.38-6.06-.02-3.29.78-7.49,4.39-8.05,3.91-.61,5.47,3.46,6.06,6.65.69,3.72-1.47,6.28-5.07,7.46Z"/>
    <path class="cls-37" d="M695.21,861.28c-1.02,4.48-2.01,8.11-7.5,5.03-23.27-13.04-49.5-18.87-73.57-29.98-3.95-1.82-9.14-3.59-6.84-8.54,2.45-5.25,6.88-.55,9.62.92,20.63,11.07,43.37,15.96,65.4,22.96,5.36,1.7,11.84,2.53,12.9,9.6Z"/>
    <path class="cls-120" d="M469.71,436.79c-1.02,20.26-2.04,40.51-3.08,60.77-.2,3.83-.35,8.42-5.49,8.17-4.06-.19-6.89-3.82-6.92-7.81-.16-28.32-6.42-56.62-.25-84.96.97-4.44,2.84-8.83,7.49-8.68,5.26.17,7.54,4.73,7.62,9.84.12,7.55.03,15.1.03,22.65.19,0,.39.02.58.02Z"/>
  </g>
  <g>
    <path class="cls-51" d="M1097.79,340.44c-5.98.14-11.58-2.36-16.73-6.32-12.14-9.32-23.6-19.19-33.27-30.74-3.87-4.63-7.59-9.99-7.47-15.62.13-6.11-1.54-8.02-8.24-9.37-17.48-3.51-33.56-14.5-46.4-26.16-10.4-9.44-16.25-24.7-12.8-37.98,4.81-18.49,13.92-34.38,28.82-45.88,19.71-15.22,52.08-.06,65.76,19.27,6.52,9.21,9.58,23.58-.27,31.79-3.5,2.92-7.93,4.52-13.65.98-5.78-3.57-10.74-7.73-11.36-14.51-.88-9.6-8.61-15.65-18.3-14.53-12.08,1.4-22.01,14.01-22.62,25.88-.63,12.16,9.95,22.54,19.74,28.75,8.02,5.09,18.26,10.49,27.77,12.73,5.4,1.27,9.21.57,12.44-3.26,8.96-10.61,19.08-21.03,27.87-31.31,7.67-8.97,19.4-3.54,26.11,3.44,10.68,11.11,22.56,22.51,33.15,34.29,6.25,6.97,6.45,12.58,1.21,17.54-5.09,4.82-12.21,4.42-17.87-1.39-7.24-7.41-14.46-14.84-21.64-22.3-6.73-6.99-8.09-1.23-11.08.98-3.49,2.58-3.29,5.49,1.15,9.61,5.7,5.28,11.33,10.76,16.46,16.68,4.33,4.99,6.74,10.3,2.71,14.7-4.11,4.49-8.74,2.96-14.55-1.62-6.33-4.98-11.32-11.06-16.73-16.72-4.14-4.33-6.8-4.56-10.2-1.35-11.37,10.72-5.69,18.82,5.51,27.22,4.26,3.19,8.58,6.78,12.64,10.53,11,10.15,10.95,10.44,6.31,20.97-1.48,1.23-2.97,2.46-4.45,3.69Z"/>
    <path class="cls-51" d="M742.59,142.24c-12.49,5.48-26.1,8.02-39.6,8.43-21.22.64-43.01-8.51-48.97-29.75-5-17.8-5.54-33.98-.15-51.29,7.41-23.8,42.16-28.13,63.33-19.83,10.2,4,18.65,13.53,16.19,25.14-.99,4.7-2.85,9.18-9.72,9.64-6.76.46-13.2-.54-17.5-5.95-5.69-7.16-15.63-7.85-22.45-1.73-9.16,8.23-10.02,24.47-3.88,34.76,6.01,10.07,19.98,13.1,31.26,12.46,9.48-.54,21.16-2.13,30.05-6.26,4.21-1.95,6.57-4.49,7.09-8.85,1.7-14.09,3.91-28.16,5.97-42.2.49-3.32.89-6.63,3.94-9.26,3.95-3.41,8.95-3.52,14.66-2.34,5.68,1.17,7.66,4.56,9.11,8.21.46,1.15.47,2.47.27,3.63-4.96,28.72-10.07,57.46-16.48,85.79-1.24,5.48-5.53,7.94-11.6,7.68-6.43-.27-9.59-4.12-10.9-9.28-.65-2.54-.38-5.23-.61-9.02Z"/>
    <path class="cls-114" d="M949.1,161.75c4.99-9.5,9.92-19.07,15.18-28.41,3.8-6.74,9.78-8.29,16.94-4.87,9.37,4.48,12.04,11.01,7.45,18.95-9.26,16.02-18.74,31.98-28.17,47.93-3.8,6.42-7.5,12.91-11.65,19.1-2.42,3.61-5.65,7.11-11.4,5.44-5.96-1.74-8.84-5.99-9.98-11.52-3.51-16.97-7.37-34.05-10.65-51.02-.24-1.22-.68-2.45-1.06-3.79-3.74.15-3.12,2.9-3.89,4.68-3.82,8.82-7.62,17.66-11.5,26.46-1.38,3.13-3.9,5.42-6.65,7.58-3.75,2.94-7.54,2.07-11.92.17-4.65-2.02-6.08-5.44-5.87-9.19.21-3.58,1.17-7.17,2.5-10.47,8.72-21.64,17.63-43.24,26.44-64.85,2.15-5.27,4.6-11.01,13.19-9.72,9.39,1.41,15.9,7.36,18.13,15.07,4.01,13.89,7.13,28.08,10.04,42.24.37,1.8-.88,3.86,2.88,6.24Z"/>
    <path class="cls-51" d="M799.45,109.53c2.36-10.33,4.74-20.71,7.19-30.96,2.9-12.13,14.07-13.49,24.57-10.59,13.81,3.82,28,7.83,41.73,12.57,8.11,2.79,10.83,7.58,8.7,14.33-2.25,7.13-8.26,10.08-16.04,7.75-8.94-2.68-17.93-5.27-26.85-8.02-9.12-2.81-7.78,3.05-9.37,6.7-1.95,4.47,1.21,6.27,5.93,7.47,6.17,1.57,12.38,3.09,18.47,5,7.31,2.3,13.07,6,11.09,13-1.94,6.89-8.89,6.1-15.35,4.66-6.29-1.4-12.5-3.48-18.66-5.46-5.77-1.85-8.92-.76-9.56,4.34-.27,2.14-1.15,4.18-1.67,6.28-1.52,6.04,1.23,9.68,8.43,11.71,9.2,2.6,19.14,3.24,28.41,5.45,6.04,1.44,10.94,3.08,10.94,9.72,0,8.11-3.16,12.41-10.47,12.64-12.26.38-23.59-2.06-36.12-5.01-2.37-.56-4.74-1.4-7.01-2.2-16.18-5.65-24.97-14.96-20.65-32.65,2.14-8.74,4.11-17.83,6.17-26.75.04.01.09.02.13.03Z"/>
    <path class="cls-51" d="M602.33,152.24c-5.83.94-12.51,1.14-19.11-.49-11.53-2.86-20.86-14.38-17.26-26.3,1.11-3.69,3.89-6.51,8.62-7.67,4.61-1.13,6.97,1.28,9.21,3.7,4.65,5.02,9.57,9.3,18.14,7.86,4.21-.71,8.47-1.68,9.91-5.88,1.53-4.47-1.16-7.58-5.37-9.5-7.46-3.38-15.54-6.22-23.17-9.12-9.96-3.78-21.77-9.68-23.47-21.55-2.94-20.55,18.57-32.17,35.75-35.04,7.94-1.32,15.97-1.37,23.69.29,10.43,2.24,16.41,9.36,15.2,17.42-1.2,8.01-8.71,11.74-18.45,9.34-.58-.14-1.14-.32-1.69-.52-6.89-2.53-14.15-4.69-18.76,2.88-3.15,5.18,1.26,9.93,10.9,13.14,2.17.72,4.52,1.33,6.57,2.05,13.6,4.78,30.56,17.15,25.8,35.09-4.12,15.51-21.59,23.22-36.51,24.29Z"/>
    <path class="cls-51" d="M369.66,183.58c-5.15-8.97-10.37-17.93-15.24-27.04-1.76-3.29-3.8-3.89-8.05-1.15-2.87,1.86-6.04,3.52-9.21,4.76-8.8,3.45-13.76,2.03-16.95-5.13-2.64-5.92-.22-12.08,7.11-16.55,17.29-10.53,35.37-20.08,53.67-28.87,6.73-3.23,10.51-.53,13.62,2.89,4.13,4.54,5.37,9.73.06,15.88-2.12,2.45-4.87,4.74-8.19,5.88-8.31,2.85-8.99,6.35-5.89,12.06,8.92,16.42,17.27,33.34,25.69,50.1,3.67,7.31,1.01,14.25-6.7,17.76-5.98,2.72-11.13,2.58-14.25-2.95-5.21-9.22-10.44-18.42-15.67-27.63Z"/>
    <path class="cls-51" d="M248.07,237.93c-15.8-13.41-34.01-9.86-49.5,2.22-8.29,6.46-15.74,15.31-22.58,22.91-8.57,9.51-14.85,22.14-3.08,31.76,8.67,7.09,17.46,14.46,26.15,21.66,9.25,7.67,18.51,15.5,27.88,22.98,7.69,6.14,12.7,4.9,20.54-3.94,5.49-6.19,11.14-12.41,16.55-18.33,11.46-12.54,18.42-31.33,10.07-47.56-6.3-12.25-15.67-22.91-26.02-31.7ZM248.46,286.35c.97,3.8.13,8.53-1.64,12.97-4.25,10.66-9.43,12.82-16.32,6.55-4.63-4.21-9.24-8.43-13.86-12.64-4.97-4.54-9.79-9.26-14.98-13.55-3.08-2.54-3.07-4.95.91-9.16,7.7-8.15,17.02-12.11,24.11-9.41,13.08,4.98,18.27,11.45,21.79,25.23Z"/>
    <path class="cls-54" d="M365.95,222.11c-21.19-20.22-43.97-38.23-69.11-53.09-7.22-4.27-15.19-1.4-23.71,4.39-7.63,6.05-9.17,13.22-8.08,20.04,4.49,28.13,13.72,54.14,27.63,79.04,2.61,4.67,6.72,8.51,14.02,4.86,7.48-3.75,8.37-10.44,5.56-14.74-7.36-11.28,3.17-19.83,11.54-25.96,1.63-1.19,3.37-2.38,4.88-3.74,4.83-4.38,8.74-5.01,11.93,0,2.09,3.29,5.56,5.4,9.43,6.69,6.21,2.07,11.03-1.51,15.07-5.92,3.45-3.76,4.55-8.04.85-11.57ZM316.97,218.26c-2.18,1.64-4.4,3.21-6.6,4.84-1.46,1.08-3,2.1-4.36,3.29-4.22,3.7-5.97,3.22-7.18-1.31-1.58-5.95-3.8-11.65-4.31-18.04-.34-4.22,1.93-5.98,5.58-4,6.11,3.32,11.81,7.15,17.61,10.85,2.11,1.35,1.26,2.86-.75,4.37Z"/>
    <path class="cls-51" d="M510.07,157.16c-14.17-24.7-30.31-47.93-49.34-69.01-5.16-5.72-12.98-6.5-22.06-3.63-8.78,2.78-13.49,8.58-14.35,15.32-3.71,28.82-1.28,56.65,4.68,85.51,2.27,5.01,4.28,10,12.28,8.32,7.98-1.67,8.58-7.18,8.92-12.74.17-2.91-.09-5.83-.44-8.69-.33-2.69.06-4.6,3.54-6,7.11-2.86,14.17-5.84,21.23-8.8,4.41-1.84,7.16-1.67,9.02,2.53,1.52,3.45,3.84,6.77,6.63,9.46,4.67,4.51,10.31,3.67,16.08.32,5.83-3.39,6.62-7.77,3.84-12.61ZM459.14,143.12c-11.36,4.14-11.49,4.28-11.77-5.14-.15-4.84-.07-9.74.6-14.64.55-4.02,3.58-4.96,6.36-2.18,4.69,4.71,9.81,9.37,12.79,14.97,3.79,7.12-6.48,4.07-7.97,7Z"/>
  </g>
  <g>
    <path class="cls-61" d="M1086.95,1042.92c-7.24-6.92-14.59-13.88-21.51-21.03-8.43-8.72-4.89-18.15,2.51-26.14,7.5-8.1,14.78-16.88,21.57-25.6,5.84-7.5,11.48-9.96,17.66-5.08,6.22,4.92,6.7,11.32-.55,19.59-4.43,5.05-8.25,10.65-12.71,15.63-4.4,4.92-5.19,8.26-.93,11.94,4.23,3.65,7.49,2.65,11.7-2.85,3.88-5.06,8.06-9.96,12.13-14.96,4.19-5.14,8.32-8.14,13.46-5,5.22,3.2,3.59,8.64.21,14-3.47,5.52-7.76,10.71-12.2,15.49-5.54,5.96-7.15,10.24-1.69,14.2,5.06,3.68,9.09,9.67,17.88-.41,7.2-8.25,12.69-18.67,18.22-27.94,3.53-5.92,7.76-11.26,13.24-9.2,5.35,2.01,12.03,3.76,7.91,14.58-7.68,20.22-21.94,39.07-37.93,52.64-7.87,6.67-19.31,8.49-27.34,1.04-7.23-6.7-14.51-13.86-21.63-20.9Z"/>
    <path class="cls-61" d="M1054.68,1093.43c-5.81-17.76-11.89-35.46-18.81-52.8-2.11-5.29-3.49-10.21,3.71-14.91,7.29-4.75,11.03-.92,13.62,3.8,12.82,23.31,23.34,47.72,30.94,73.14,1.77,5.91.59,12.17-6.01,18.41-5.86,5.54-12.57,8.83-18.13,6.69-27.96-10.74-52.67-24.32-72.62-46.35-2.4-2.65-3.57-5.96-.83-9.95,2.47-3.6,5.9-6.09,9.99-5.67,2.82.29,5.43,1.82,7.8,3.24,12.09,7.21,24.27,14.38,36.75,20.89,3.4,1.77,6.65,4.12,13.6,3.52Z"/>
    <path class="cls-61" d="M904.58,1184.68c-3.65-8.2-7.62-16.27-10.82-24.65-2.19-5.73-5.38-7.56-12.37-3.86-8.32,4.4-15.67,3.45-18.45-4.06-2.84-7.67,1.65-13.55,10.33-17.17,13.26-5.53,26.31-11.59,39.08-18.17,7.96-4.1,12.39-1.26,15.84,4.55,3.44,5.78,2.51,11.78-4.9,14.79-12.7,5.15-9.87,10.7-6.2,17.8,7.41,14.34,14.41,29.17,21.78,43.53,3.32,6.47,2.97,12.56-6.82,17.16-10.23,4.81-14.46.4-17.05-6.24-3.13-8.04-6.92-15.81-10.43-23.7Z"/>
    <path class="cls-61" d="M310.69,1122.33c7.25-10.53,14.51-21.06,21.75-31.59,3.82-5.56,8.84-8.2,16.15-2.76,6.74,5.02,7.03,10.58,3.27,16.43-8.76,13.64-17.06,29.22-25.98,41.22-7.21,9.7-1.41,15.56,8.04,20.32,7.32,3.68,14.66,7.68,11.32,16.26-4.17,10.69-8.36,11.97-22.03,3.95-8.15-4.79-16.1-10.13-24.23-14.95-11.22-6.65-14.31-12.91-7.95-20.89,6.98-8.76,17.08-27.55,19.6-28.02,0,0,.04.03.07.04Z"/>
    <path class="cls-61" d="M374.63,1158.93c5.27-10.11,10.55-20.24,15.86-30.32,3.17-6.02,6.62-12.3,16.34-7.14,8.67,4.61,8.14,10.84,4.88,17.59-7.04,14.53-13.58,29.75-21.08,43.93-4.46,8.43-2.96,13.39,9.53,17.19,7.87,2.4,16.94,4.88,14.77,14.8-2.46,11.21-6.58,13.1-20.89,7.17-9.09-3.77-30.41-9.86-34.99-20.63-3.94-9.25,4.26-20.98,8.39-28.8,2.41-4.57,4.8-9.19,7.2-13.79Z"/>
    <path class="cls-79" d="M969.07,1141.65c-6.2-10.35-12.38-20.8-18.82-30.9-4.11-6.45-4.49-12.89,3.39-18.07,7.37-4.85,12.44-.8,15.94,4.44,14.34,21.49,28.65,43.03,42.79,64.63,3.56,5.44,3.88,11.5-5.48,17.11-8.63,5.17-13.64,2.07-16.75-2.85-7.15-11.28-17.93-33.67-20.97-34.42-.01,0-.06.04-.09.06Z"/>
    <path class="cls-47" d="M309.06,1089.39c6.11-18.94-2.57-34.54-17.9-46.12-13.41-10.14-32.58-11.56-46.85-2.28-5.46,3.55-11.09,7.22-14.56,11.47-12.13,13.26-21.57,8.72-34.08-1.74-9.87-8.25-22.68-21.07-21.36-33.02,1.1-9.97,8.05-20.37,20.45-23.06,11.28-2.45,20.42,6.59,20.75,17.68.19,6.17,3.58,11.44,9.2,14.88,5.01,3.07,9.02,1.8,12.55-1.07,9.1-7.39,8.98-19.81,4.21-29.56-9.43-19.26-33.34-37.59-55.83-29.23-12.96,4.82-25.04,12.85-33.48,23.74-15.75,20.34-5.96,46.36,10.37,63.51,10.47,10.99,23.56,22.38,38.64,26.5,7.56,2.07,9.38,4.97,11.06,12.1,5.93,25.16,38.98,50.53,63.07,39,17.71-8.48,27.48-23.36,33.76-42.8ZM245.41,1102.82c-9.68-9-7.63-23.71,1.59-32.75,8.41-8.25,24.52-13.45,33.68-5.12,9.1,8.27,5.55,24.4-1.46,33.72-8.01,10.66-24.29,13.01-33.81,4.15Z"/>
    <path class="cls-47" d="M589.97,1221.79c22.06-11.23,17.4-41.38-5.49-46.96-12.21-2.98-24.5-4.48-37.22-5.47-6.32-.49-9.18,3.52-10.18,8.05-5.33,23.96-10.63,47.99-15.28,72.03-1.59,8.22,3.62,14.32,15.8,16.11,12.01,1.76,23.65,3.38,35.65,3.66,11.53.27,24.37-4.49,28.87-16.17,5.06-13.12-1.08-23.72-12.15-31.25ZM569.14,1194.94c6.08,1.28,12.05,2.95,10.67,9.22-1.65,7.51-9.83,8.42-17.55,8.16-8.19-.28-6.2-5.23-5.48-9.94.02-6.38,3.69-9.25,12.36-7.43ZM558.84,1246.29c-9.58-.6-8.9-5.15-7.81-10.28,1.07-5.03.41-11.17,7.16-9.17,11.34,2.64,20.3,3.98,18.99,12.34-1.22,7.8-10.05,7.63-18.34,7.11Z"/>
    <path class="cls-61" d="M697.56,1196.23c-6.35-13.23-21.35-19.7-35.47-19.34-14.81.37-29.71,8.75-35.25,21.95-6.49,15.45-7.69,30.64-5.59,47.73,2.58,20.94,23.49,29.39,42.6,29.44,16.05.04,35.82-6.28,39.92-23.45,4.82-20.13,2.93-37.24-6.22-56.32ZM684.18,1226.07c1.5,13.35-8.36,27.35-21.75,26.77-13.04-.56-20.54-14.68-18.74-27.11.84-5.79,2.64-11.52,6.22-16.61,6.82-9.69,19.96-10.4,27.41-1.01,4.29,5.41,7.2,11.53,6.85,17.95Z"/>
    <path class="cls-47" d="M798.6,1248.21c-4.46-12.23-12.78-23.08-26.42-25.84,11.04-7.57,15.03-20.9,10.45-33.19-3.65-9.81-12.73-17.08-23.19-17.42-11.72-.37-22.21.93-33.71,3.59-5.14,1.19-8.41,3.94-7.85,8.97,2.91,26.4,5.79,52.83,8.93,79.18.7,5.86,6.21,7.85,13.69,6.82,7.76-1.07,11.31-4.87,10.83-10.56-.38-4.47-1.22-8.88-1.85-13.32-.43-2.99-2.01-6.39,2.97-8.2,4.56-1.66,8.71-.55,11.77,2.07,5.15,4.41,9.5,9.23,11.67,15.27,2.02,5.63,7.01,8.59,15.24,5.91,8.21-2.68,9.47-7.82,7.47-13.28ZM751.88,1216.39c-10.32,1.57-5.79-6.11-8.31-9.7,1.65-3.89-5.37-9.87,4.28-11.68,7.23-1.35,13.14,1.32,14.03,7.77.81,5.92-.58,12.18-9.99,13.61Z"/>
    <path class="cls-61" d="M508.48,1247.43c-.71-26.41-3.48-52.99-6.23-79.46-.77-7.38-5.38-11.63-12.61-14.31-6.86-2.55-12.75-.6-16.91,3.56-18.33,18.31-35.12,38.01-50.61,59-2.25,7.32-7.46,12.63,1.72,17.74,9.26,5.15,13.91,0,18.31-4.43.51-.51,1.33-.88,1.59-1.48,2.63-6.17,7.73-5.91,15.42-3.41,10.13,3.3,27.74,6.7,23.88,21.67-1.59,6.16,7.46,10.22,15.37,10.42,7.22.18,10.24-3.22,10.07-9.29ZM471.12,1210.04c-3.39-2.61-12.11-1.77-8.26-7.53,3.86-5.77,7.86-16.39,15.06-14.13,6.94,2.18,4.51,13.23,3.81,20.13-.68,6.8-7.2.64-10.61,1.53Z"/>
    <path class="cls-47" d="M893.52,1219.99c-17.02-21.42-33.86-43.19-52.35-63.19-4.68-5.07-10.82-5.75-17.82-4.1-6.57,1.55-10.5,5.89-11.63,11.35-5.7,27.5-7.47,55.15-7.21,83.5.91,4.92,3.43,8.81,10.59,8.48,8.35-.38,10.52-5.52,11.81-10.74.43-1.76,1.34-3.67.99-5.26-1.45-6.66,2.84-9.23,10.57-11.61,10.26-3.15,26.61-10.14,32.11,4.21,1.86,4.87,10.46,5.06,17.5.69,6.08-3.78,9.38-8.35,5.43-13.32ZM839.67,1209.99c-4.17-.56-10.33,5.17-10.48-1.18-.17-7.2-3.37-18.03,4.57-20.94,6.14-2.25,11.29,8.5,14.5,14.56,3.42,6.46-6.79,4.2-8.59,7.56Z"/>
  </g>
</svg>