<svg version="1.1" viewBox="0.0 0.0 268.3333333333333 333.3333333333333" fill="none" stroke="none" stroke-linecap="square" stroke-miterlimit="10" xmlns:xlink="http://www.w3.org/1999/xlink" xmlns="http://www.w3.org/2000/svg"><clipPath id="p.0"><path d="m0 0l268.33334 0l0 333.33334l-268.33334 0l0 -333.33334z" clip-rule="nonzero"/></clipPath><g clip-path="url(#p.0)"><path fill="#000000" fill-opacity="0.0" d="m0 0l268.33334 0l0 333.33334l-268.33334 0z" fill-rule="evenodd"/><path fill="#000000" fill-opacity="0.0" d="m2.1194227 2.383202l264.09448 0l0 328.56693l-264.09448 0z" fill-rule="evenodd"/><path stroke="#000000" stroke-width="2.0" stroke-linejoin="round" stroke-linecap="butt" d="m2.1194227 2.383202l264.09448 0l0 328.56693l-264.09448 0z" fill-rule="evenodd"/><path fill="#b7b7b7" d="m17.397638 82.37533l0 0c0 -5.079277 4.117569 -9.196854 9.19685 -9.196854l0 0c2.4391556 0 4.778412 0.968956 6.5031567 2.693695c1.7247429 1.7247467 2.693695 4.064003 2.693695 6.5031586l0 0c0 5.079277 -4.117571 9.196854 -9.196852 9.196854l0 0c-5.079281 0 -9.19685 -4.1175766 -9.19685 -9.196854z" fill-rule="evenodd"/><path stroke="#000000" stroke-width="1.0" stroke-linejoin="round" stroke-linecap="butt" d="m17.397638 82.37533l0 0c0 -5.079277 4.117569 -9.196854 9.19685 -9.196854l0 0c2.4391556 0 4.778412 0.968956 6.5031567 2.693695c1.7247429 1.7247467 2.693695 4.064003 2.693695 6.5031586l0 0c0 5.079277 -4.117571 9.196854 -9.196852 9.196854l0 0c-5.079281 0 -9.19685 -4.1175766 -9.19685 -9.196854z" fill-rule="evenodd"/><path fill="#b7b7b7" d="m24.003937 44.278214l0 0c0 -5.079277 4.117571 -9.19685 9.19685 -9.19685l0 0c2.4391556 0 4.778412 0.9689522 6.5031548 2.693695c1.7247467 1.7247467 2.693695 4.063999 2.693695 6.5031548l0 0c0 5.079281 -4.117569 9.196854 -9.19685 9.196854l0 0c-5.079279 0 -9.19685 -4.117573 -9.19685 -9.196854z" fill-rule="evenodd"/><path stroke="#000000" stroke-width="1.0" stroke-linejoin="round" stroke-linecap="butt" d="m24.003937 44.278214l0 0c0 -5.079277 4.117571 -9.19685 9.19685 -9.19685l0 0c2.4391556 0 4.778412 0.9689522 6.5031548 2.693695c1.7247467 1.7247467 2.693695 4.063999 2.693695 6.5031548l0 0c0 5.079281 -4.117569 9.196854 -9.19685 9.196854l0 0c-5.079279 0 -9.19685 -4.117573 -9.19685 -9.196854z" fill-rule="evenodd"/><path fill="#b7b7b7" d="m67.93569 73.50394l0 0c0 -5.079277 4.1175766 -9.196854 9.196854 -9.196854l0 0c2.4391556 0 4.778412 0.968956 6.5031586 2.693695c1.7247391 1.7247467 2.693695 4.064003 2.693695 6.5031586l0 0c0 5.079277 -4.1175766 9.196854 -9.196854 9.196854l0 0c-5.079277 0 -9.196854 -4.1175766 -9.196854 -9.196854z" fill-rule="evenodd"/><path stroke="#000000" stroke-width="1.0" stroke-linejoin="round" stroke-linecap="butt" d="m67.93569 73.50394l0 0c0 -5.079277 4.1175766 -9.196854 9.196854 -9.196854l0 0c2.4391556 0 4.778412 0.968956 6.5031586 2.693695c1.7247391 1.7247467 2.693695 4.064003 2.693695 6.5031586l0 0c0 5.079277 -4.1175766 9.196854 -9.196854 9.196854l0 0c-5.079277 0 -9.196854 -4.1175766 -9.196854 -9.196854z" fill-rule="evenodd"/><path fill="#b7b7b7" d="m86.3294 44.278214l0 0c0 -5.079277 4.117569 -9.19685 9.196846 -9.19685l0 0c2.4391556 0 4.778412 0.9689522 6.5031586 2.693695c1.7247391 1.7247467 2.693695 4.063999 2.693695 6.5031548l0 0c0 5.079281 -4.117569 9.196854 -9.196854 9.196854l0 0c-5.079277 0 -9.196846 -4.117573 -9.196846 -9.196854z" fill-rule="evenodd"/><path stroke="#000000" stroke-width="1.0" stroke-linejoin="round" stroke-linecap="butt" d="m86.3294 44.278214l0 0c0 -5.079277 4.117569 -9.19685 9.196846 -9.19685l0 0c2.4391556 0 4.778412 0.9689522 6.5031586 2.693695c1.7247391 1.7247467 2.693695 4.063999 2.693695 6.5031548l0 0c0 5.079281 -4.117569 9.196854 -9.196854 9.196854l0 0c-5.079277 0 -9.196846 -4.117573 -9.196846 -9.196854z" fill-rule="evenodd"/><path fill="#b7b7b7" d="m104.7231 91.89764l0 0c0 -5.079277 4.117569 -9.196846 9.196846 -9.196846l0 0c2.4391556 0 4.778412 0.96894836 6.5031586 2.693695c1.7247467 1.7247391 2.693695 4.0639954 2.693695 6.503151l0 0c0 5.0792847 -4.117569 9.196854 -9.196854 9.196854l0 0c-5.079277 0 -9.196846 -4.117569 -9.196846 -9.196854z" fill-rule="evenodd"/><path stroke="#000000" stroke-width="1.0" stroke-linejoin="round" stroke-linecap="butt" d="m104.7231 91.89764l0 0c0 -5.079277 4.117569 -9.196846 9.196846 -9.196846l0 0c2.4391556 0 4.778412 0.96894836 6.5031586 2.693695c1.7247467 1.7247391 2.693695 4.0639954 2.693695 6.503151l0 0c0 5.0792847 -4.117569 9.196854 -9.196854 9.196854l0 0c-5.079277 0 -9.196846 -4.117569 -9.196846 -9.196854z" fill-rule="evenodd"/><path fill="#b7b7b7" d="m104.7231 128.68504l0 0c0 -5.0792847 4.117569 -9.196854 9.196846 -9.196854l0 0c2.4391556 0 4.778412 0.96894836 6.5031586 2.693695c1.7247467 1.7247467 2.693695 4.0639954 2.693695 6.5031586l0 0c0 5.0792694 -4.117569 9.196854 -9.196854 9.196854l0 0c-5.079277 0 -9.196846 -4.117584 -9.196846 -9.196854z" fill-rule="evenodd"/><path stroke="#000000" stroke-width="1.0" stroke-linejoin="round" stroke-linecap="butt" d="m104.7231 128.68504l0 0c0 -5.0792847 4.117569 -9.196854 9.196846 -9.196854l0 0c2.4391556 0 4.778412 0.96894836 6.5031586 2.693695c1.7247467 1.7247467 2.693695 4.0639954 2.693695 6.5031586l0 0c0 5.0792694 -4.117569 9.196854 -9.196854 9.196854l0 0c-5.079277 0 -9.196846 -4.117584 -9.196846 -9.196854z" fill-rule="evenodd"/><path fill="#b7b7b7" d="m67.93569 155.4147l0 0c0 -5.0792847 4.1175766 -9.196854 9.196854 -9.196854l0 0c2.4391556 0 4.778412 0.96894836 6.5031586 2.693695c1.7247391 1.7247467 2.693695 4.0639954 2.693695 6.5031586l0 0c0 5.0792694 -4.1175766 9.196838 -9.196854 9.196838l0 0c-5.079277 0 -9.196854 -4.117569 -9.196854 -9.196838z" fill-rule="evenodd"/><path stroke="#000000" stroke-width="1.0" stroke-linejoin="round" stroke-linecap="butt" d="m67.93569 155.4147l0 0c0 -5.0792847 4.1175766 -9.196854 9.196854 -9.196854l0 0c2.4391556 0 4.778412 0.96894836 6.5031586 2.693695c1.7247391 1.7247467 2.693695 4.0639954 2.693695 6.5031586l0 0c0 5.0792694 -4.1175766 9.196838 -9.196854 9.196838l0 0c-5.079277 0 -9.196854 -4.117569 -9.196854 -9.196838z" fill-rule="evenodd"/><path fill="#b7b7b7" d="m17.397638 147.07874l0 0c0 -5.0792694 4.117569 -9.196838 9.19685 -9.196838l0 0c2.4391556 0 4.778412 0.96894836 6.5031567 2.693695c1.7247429 1.7247314 2.693695 4.0639954 2.693695 6.5031433l0 0c0 5.0792847 -4.117571 9.196854 -9.196852 9.196854l0 0c-5.079281 0 -9.19685 -4.117569 -9.19685 -9.196854z" fill-rule="evenodd"/><path stroke="#000000" stroke-width="1.0" stroke-linejoin="round" stroke-linecap="butt" d="m17.397638 147.07874l0 0c0 -5.0792694 4.117569 -9.196838 9.19685 -9.196838l0 0c2.4391556 0 4.778412 0.96894836 6.5031567 2.693695c1.7247429 1.7247314 2.693695 4.0639954 2.693695 6.5031433l0 0c0 5.0792847 -4.117571 9.196854 -9.196852 9.196854l0 0c-5.079281 0 -9.19685 -4.117569 -9.19685 -9.196854z" fill-rule="evenodd"/><path fill="#b7b7b7" d="m49.21391 110.291336l0 0c0 -5.079277 4.117573 -9.196846 9.196854 -9.196846l0 0c2.4391556 0 4.778408 0.96894836 6.5031548 2.693695c1.7247467 1.7247391 2.693695 4.0639954 2.693695 6.503151l0 0c0 5.0792847 -4.117573 9.196854 -9.19685 9.196854l0 0c-5.079281 0 -9.196854 -4.117569 -9.196854 -9.196854z" fill-rule="evenodd"/><path stroke="#000000" stroke-width="1.0" stroke-linejoin="round" stroke-linecap="butt" d="m49.21391 110.291336l0 0c0 -5.079277 4.117573 -9.196846 9.196854 -9.196846l0 0c2.4391556 0 4.778408 0.96894836 6.5031548 2.693695c1.7247467 1.7247391 2.693695 4.0639954 2.693695 6.503151l0 0c0 5.0792847 -4.117573 9.196854 -9.19685 9.196854l0 0c-5.079281 0 -9.196854 -4.117569 -9.196854 -9.196854z" fill-rule="evenodd"/><path fill="#b7b7b7" d="m192.04855 82.374016l0 0c0 -5.079277 4.117569 -9.196854 9.196854 -9.196854l0 0c2.4391632 0 4.778412 0.968956 6.5031586 2.693695c1.7247467 1.7247467 2.693695 4.064003 2.693695 6.5031586l0 0c0 5.079277 -4.117569 9.196854 -9.196854 9.196854l0 0c-5.0792847 0 -9.196854 -4.1175766 -9.196854 -9.196854z" fill-rule="evenodd"/><path stroke="#000000" stroke-width="1.0" stroke-linejoin="round" stroke-linecap="butt" d="m192.04855 82.374016l0 0c0 -5.079277 4.117569 -9.196854 9.196854 -9.196854l0 0c2.4391632 0 4.778412 0.968956 6.5031586 2.693695c1.7247467 1.7247467 2.693695 4.064003 2.693695 6.5031586l0 0c0 5.079277 -4.117569 9.196854 -9.196854 9.196854l0 0c-5.0792847 0 -9.196854 -4.1175766 -9.196854 -9.196854z" fill-rule="evenodd"/><path fill="#b7b7b7" d="m218.77821 55.110237l0 0c0 -5.079281 4.117569 -9.19685 9.196854 -9.19685l0 0c2.439148 0 4.778412 0.96894836 6.5031586 2.693695c1.7247467 1.7247429 2.693695 4.063999 2.693695 6.5031548l0 0c0 5.079281 -4.117569 9.196846 -9.196854 9.196846l0 0c-5.0792847 0 -9.196854 -4.117565 -9.196854 -9.196846z" fill-rule="evenodd"/><path stroke="#000000" stroke-width="1.0" stroke-linejoin="round" stroke-linecap="butt" d="m218.77821 55.110237l0 0c0 -5.079281 4.117569 -9.19685 9.196854 -9.19685l0 0c2.439148 0 4.778412 0.96894836 6.5031586 2.693695c1.7247467 1.7247429 2.693695 4.063999 2.693695 6.5031548l0 0c0 5.079281 -4.117569 9.196846 -9.196854 9.196846l0 0c-5.0792847 0 -9.196854 -4.117565 -9.196854 -9.196846z" fill-rule="evenodd"/><path fill="#b7b7b7" d="m231.24803 146.42783l0 0c0 -5.0792847 4.117569 -9.196854 9.196854 -9.196854l0 0c2.439148 0 4.778412 0.96894836 6.5031586 2.693695c1.7247314 1.7247467 2.693695 4.0639954 2.693695 6.5031586l0 0c0 5.0792694 -4.117584 9.196838 -9.196854 9.196838l0 0c-5.0792847 0 -9.196854 -4.117569 -9.196854 -9.196838z" fill-rule="evenodd"/><path stroke="#000000" stroke-width="1.0" stroke-linejoin="round" stroke-linecap="butt" d="m231.24803 146.42783l0 0c0 -5.0792847 4.117569 -9.196854 9.196854 -9.196854l0 0c2.439148 0 4.778412 0.96894836 6.5031586 2.693695c1.7247314 1.7247467 2.693695 4.0639954 2.693695 6.5031586l0 0c0 5.0792694 -4.117584 9.196838 -9.196854 9.196838l0 0c-5.0792847 0 -9.196854 -4.117569 -9.196854 -9.196838z" fill-rule="evenodd"/><path fill="#b7b7b7" d="m192.04987 146.42783l0 0c0 -5.0792847 4.117569 -9.196854 9.196854 -9.196854l0 0c2.4391632 0 4.778412 0.96894836 6.5031586 2.693695c1.7247467 1.7247467 2.693695 4.0639954 2.693695 6.5031586l0 0c0 5.0792694 -4.117569 9.196838 -9.196854 9.196838l0 0c-5.0792847 0 -9.196854 -4.117569 -9.196854 -9.196838z" fill-rule="evenodd"/><path stroke="#000000" stroke-width="1.0" stroke-linejoin="round" stroke-linecap="butt" d="m192.04987 146.42783l0 0c0 -5.0792847 4.117569 -9.196854 9.196854 -9.196854l0 0c2.4391632 0 4.778412 0.96894836 6.5031586 2.693695c1.7247467 1.7247467 2.693695 4.0639954 2.693695 6.5031586l0 0c0 5.0792694 -4.117569 9.196838 -9.196854 9.196838l0 0c-5.0792847 0 -9.196854 -4.117569 -9.196854 -9.196838z" fill-rule="evenodd"/><path fill="#b7b7b7" d="m219.79659 100.76903l0 0c0 -5.079277 4.117569 -9.196846 9.196854 -9.196846l0 0c2.4391632 0 4.778412 0.96894836 6.5031586 2.693695c1.7247467 1.7247391 2.693695 4.0639954 2.693695 6.503151l0 0c0 5.0792847 -4.117569 9.196854 -9.196854 9.196854l0 0c-5.0792847 0 -9.196854 -4.117569 -9.196854 -9.196854z" fill-rule="evenodd"/><path stroke="#000000" stroke-width="1.0" stroke-linejoin="round" stroke-linecap="butt" d="m219.79659 100.76903l0 0c0 -5.079277 4.117569 -9.196846 9.196854 -9.196846l0 0c2.4391632 0 4.778412 0.96894836 6.5031586 2.693695c1.7247467 1.7247391 2.693695 4.0639954 2.693695 6.503151l0 0c0 5.0792847 -4.117569 9.196854 -9.196854 9.196854l0 0c-5.0792847 0 -9.196854 -4.117569 -9.196854 -9.196854z" fill-rule="evenodd"/><path fill="#b7b7b7" d="m168.35564 120.41207l0 0c0 -5.079277 4.117584 -9.196846 9.196854 -9.196846l0 0c2.4391632 0 4.778412 0.96894836 6.5031586 2.693695c1.7247467 1.7247391 2.693695 4.0639954 2.693695 6.503151l0 0c0 5.0792847 -4.117569 9.196846 -9.196854 9.196846l0 0c-5.0792694 0 -9.196854 -4.1175613 -9.196854 -9.196846z" fill-rule="evenodd"/><path stroke="#000000" stroke-width="1.0" stroke-linejoin="round" stroke-linecap="butt" d="m168.35564 120.41207l0 0c0 -5.079277 4.117584 -9.196846 9.196854 -9.196846l0 0c2.4391632 0 4.778412 0.96894836 6.5031586 2.693695c1.7247467 1.7247391 2.693695 4.0639954 2.693695 6.503151l0 0c0 5.0792847 -4.117569 9.196846 -9.196854 9.196846l0 0c-5.0792694 0 -9.196854 -4.1175613 -9.196854 -9.196846z" fill-rule="evenodd"/><path fill="#b7b7b7" d="m86.3294 239.82414l0 0c0 -5.0792694 4.117569 -9.196838 9.196846 -9.196838l0 0c2.4391556 0 4.778412 0.96894836 6.5031586 2.693695c1.7247391 1.7247314 2.693695 4.0639954 2.693695 6.5031433l0 0c0 5.0792847 -4.117569 9.196854 -9.196854 9.196854l0 0c-5.079277 0 -9.196846 -4.117569 -9.196846 -9.196854z" fill-rule="evenodd"/><path stroke="#000000" stroke-width="1.0" stroke-linejoin="round" stroke-linecap="butt" d="m86.3294 239.82414l0 0c0 -5.0792694 4.117569 -9.196838 9.196846 -9.196838l0 0c2.4391556 0 4.778412 0.96894836 6.5031586 2.693695c1.7247391 1.7247314 2.693695 4.0639954 2.693695 6.5031433l0 0c0 5.0792847 -4.117569 9.196854 -9.196854 9.196854l0 0c-5.079277 0 -9.196846 -4.117569 -9.196846 -9.196854z" fill-rule="evenodd"/><path fill="#b7b7b7" d="m92.93569 201.72704l0 0c0 -5.0792847 4.1175766 -9.196854 9.196854 -9.196854l0 0c2.4391556 0 4.778412 0.96894836 6.5031586 2.693695c1.7247391 1.7247467 2.693695 4.0639954 2.693695 6.5031586l0 0c0 5.0792847 -4.1175766 9.196854 -9.196854 9.196854l0 0c-5.079277 0 -9.196854 -4.117569 -9.196854 -9.196854z" fill-rule="evenodd"/><path stroke="#000000" stroke-width="1.0" stroke-linejoin="round" stroke-linecap="butt" d="m92.93569 201.72704l0 0c0 -5.0792847 4.1175766 -9.196854 9.196854 -9.196854l0 0c2.4391556 0 4.778412 0.96894836 6.5031586 2.693695c1.7247391 1.7247467 2.693695 4.0639954 2.693695 6.5031586l0 0c0 5.0792847 -4.1175766 9.196854 -9.196854 9.196854l0 0c-5.079277 0 -9.196854 -4.117569 -9.196854 -9.196854z" fill-rule="evenodd"/><path fill="#b7b7b7" d="m152.77559 257.2953l0 0c0 -5.0793 4.117569 -9.196869 9.196854 -9.196869l0 0c2.439148 0 4.778412 0.9689636 6.5031586 2.693695c1.7247314 1.7247467 2.693695 4.0640106 2.693695 6.503174l0 0c0 5.079254 -4.117569 9.196838 -9.196854 9.196838l0 0c-5.0792847 0 -9.196854 -4.117584 -9.196854 -9.196838z" fill-rule="evenodd"/><path stroke="#000000" stroke-width="1.0" stroke-linejoin="round" stroke-linecap="butt" d="m152.77559 257.2953l0 0c0 -5.0793 4.117569 -9.196869 9.196854 -9.196869l0 0c2.439148 0 4.778412 0.9689636 6.5031586 2.693695c1.7247314 1.7247467 2.693695 4.0640106 2.693695 6.503174l0 0c0 5.079254 -4.117569 9.196838 -9.196854 9.196838l0 0c-5.0792847 0 -9.196854 -4.117584 -9.196854 -9.196838z" fill-rule="evenodd"/><path fill="#b7b7b7" d="m155.26115 201.72704l0 0c0 -5.0792847 4.117569 -9.196854 9.196854 -9.196854l0 0c2.439148 0 4.778412 0.96894836 6.5031586 2.693695c1.7247314 1.7247467 2.693695 4.0639954 2.693695 6.5031586l0 0c0 5.0792847 -4.117569 9.196854 -9.196854 9.196854l0 0c-5.0792847 0 -9.196854 -4.117569 -9.196854 -9.196854z" fill-rule="evenodd"/><path stroke="#000000" stroke-width="1.0" stroke-linejoin="round" stroke-linecap="butt" d="m155.26115 201.72704l0 0c0 -5.0792847 4.117569 -9.196854 9.196854 -9.196854l0 0c2.439148 0 4.778412 0.96894836 6.5031586 2.693695c1.7247314 1.7247467 2.693695 4.0639954 2.693695 6.5031586l0 0c0 5.0792847 -4.117569 9.196854 -9.196854 9.196854l0 0c-5.0792847 0 -9.196854 -4.117569 -9.196854 -9.196854z" fill-rule="evenodd"/><path fill="#b7b7b7" d="m187.40552 244.79002l0 0c0 -5.0792847 4.117569 -9.196854 9.196838 -9.196854l0 0c2.4391632 0 4.778412 0.9689636 6.5031586 2.693695c1.7247467 1.7247467 2.693695 4.0640106 2.693695 6.5031586l0 0c0 5.0792847 -4.117569 9.196854 -9.196854 9.196854l0 0c-5.0792694 0 -9.196838 -4.117569 -9.196838 -9.196854z" fill-rule="evenodd"/><path stroke="#000000" stroke-width="1.0" stroke-linejoin="round" stroke-linecap="butt" d="m187.40552 244.79002l0 0c0 -5.0792847 4.117569 -9.196854 9.196838 -9.196854l0 0c2.4391632 0 4.778412 0.9689636 6.5031586 2.693695c1.7247467 1.7247467 2.693695 4.0640106 2.693695 6.5031586l0 0c0 5.0792847 -4.117569 9.196854 -9.196854 9.196854l0 0c-5.0792694 0 -9.196838 -4.117569 -9.196838 -9.196854z" fill-rule="evenodd"/><path fill="#b7b7b7" d="m187.40552 296.2546l0 0c0 -5.0792847 4.117569 -9.196869 9.196838 -9.196869l0 0c2.4391632 0 4.778412 0.9689636 6.5031586 2.693695c1.7247467 1.724762 2.693695 4.0639954 2.693695 6.503174l0 0c0 5.079254 -4.117569 9.196838 -9.196854 9.196838l0 0c-5.0792694 0 -9.196838 -4.117584 -9.196838 -9.196838z" fill-rule="evenodd"/><path stroke="#000000" stroke-width="1.0" stroke-linejoin="round" stroke-linecap="butt" d="m187.40552 296.2546l0 0c0 -5.0792847 4.117569 -9.196869 9.196838 -9.196869l0 0c2.4391632 0 4.778412 0.9689636 6.5031586 2.693695c1.7247467 1.724762 2.693695 4.0639954 2.693695 6.503174l0 0c0 5.079254 -4.117569 9.196838 -9.196854 9.196838l0 0c-5.0792694 0 -9.196838 -4.117584 -9.196838 -9.196838z" fill-rule="evenodd"/><path fill="#b7b7b7" d="m136.86745 312.86353l0 0c0 -5.0792847 4.117584 -9.196869 9.196854 -9.196869l0 0c2.4391632 0 4.778412 0.9689636 6.5031586 2.693695c1.7247467 1.724762 2.693695 4.0639954 2.693695 6.503174l0 0c0 5.0792847 -4.117569 9.196838 -9.196854 9.196838l0 0c-5.0792694 0 -9.196854 -4.1175537 -9.196854 -9.196838z" fill-rule="evenodd"/><path stroke="#000000" stroke-width="1.0" stroke-linejoin="round" stroke-linecap="butt" d="m136.86745 312.86353l0 0c0 -5.0792847 4.117584 -9.196869 9.196854 -9.196869l0 0c2.4391632 0 4.778412 0.9689636 6.5031586 2.693695c1.7247467 1.724762 2.693695 4.0639954 2.693695 6.503174l0 0c0 5.0792847 -4.117569 9.196838 -9.196854 9.196838l0 0c-5.0792694 0 -9.196854 -4.1175537 -9.196854 -9.196838z" fill-rule="evenodd"/><path fill="#b7b7b7" d="m86.3294 304.52756l0 0c0 -5.0792847 4.117569 -9.196838 9.196846 -9.196838l0 0c2.4391556 0 4.778412 0.9689331 6.5031586 2.693695c1.7247391 1.7247314 2.693695 4.0639954 2.693695 6.5031433l0 0c0 5.0792847 -4.117569 9.196838 -9.196854 9.196838l0 0c-5.079277 0 -9.196846 -4.1175537 -9.196846 -9.196838z" fill-rule="evenodd"/><path stroke="#000000" stroke-width="1.0" stroke-linejoin="round" stroke-linecap="butt" d="m86.3294 304.52756l0 0c0 -5.0792847 4.117569 -9.196838 9.196846 -9.196838l0 0c2.4391556 0 4.778412 0.9689331 6.5031586 2.693695c1.7247391 1.7247314 2.693695 4.0639954 2.693695 6.5031433l0 0c0 5.0792847 -4.117569 9.196838 -9.196854 9.196838l0 0c-5.079277 0 -9.196846 -4.1175537 -9.196846 -9.196838z" fill-rule="evenodd"/><path fill="#b7b7b7" d="m119.55249 244.79002l0 0c0 -5.0792847 4.1175766 -9.196854 9.196854 -9.196854l0 0c2.4391632 0 4.778412 0.9689636 6.5031586 2.693695c1.7247467 1.7247467 2.693695 4.0640106 2.693695 6.5031586l0 0c0 5.0792847 -4.117569 9.196854 -9.196854 9.196854l0 0c-5.079277 0 -9.196854 -4.117569 -9.196854 -9.196854z" fill-rule="evenodd"/><path stroke="#000000" stroke-width="1.0" stroke-linejoin="round" stroke-linecap="butt" d="m119.55249 244.79002l0 0c0 -5.0792847 4.1175766 -9.196854 9.196854 -9.196854l0 0c2.4391632 0 4.778412 0.9689636 6.5031586 2.693695c1.7247467 1.7247467 2.693695 4.0640106 2.693695 6.5031586l0 0c0 5.0792847 -4.117569 9.196854 -9.196854 9.196854l0 0c-5.079277 0 -9.196854 -4.117569 -9.196854 -9.196854z" fill-rule="evenodd"/><path fill="#b7b7b7" d="m62.636482 277.8609l0 0c0 -5.0792847 4.117569 -9.196869 9.196854 -9.196869l0 0c2.4391556 0 4.778412 0.9689636 6.503151 2.693695c1.7247467 1.724762 2.693695 4.0639954 2.693695 6.503174l0 0c0 5.0792847 -4.117569 9.196838 -9.196846 9.196838l0 0c-5.0792847 0 -9.196854 -4.1175537 -9.196854 -9.196838z" fill-rule="evenodd"/><path stroke="#000000" stroke-width="1.0" stroke-linejoin="round" stroke-linecap="butt" d="m62.636482 277.8609l0 0c0 -5.0792847 4.117569 -9.196869 9.196854 -9.196869l0 0c2.4391556 0 4.778412 0.9689636 6.503151 2.693695c1.7247467 1.724762 2.693695 4.0639954 2.693695 6.503174l0 0c0 5.0792847 -4.117569 9.196838 -9.196846 9.196838l0 0c-5.0792847 0 -9.196854 -4.1175537 -9.196854 -9.196838z" fill-rule="evenodd"/><path fill="#b7b7b7" d="m164.45801 55.110237l0 0c0 -5.079281 4.117569 -9.19685 9.196854 -9.19685l0 0c2.439148 0 4.778412 0.96894836 6.5031433 2.693695c1.7247467 1.7247429 2.693695 4.063999 2.693695 6.5031548l0 0c0 5.079281 -4.117569 9.196846 -9.196838 9.196846l0 0c-5.0792847 0 -9.196854 -4.117565 -9.196854 -9.196846z" fill-rule="evenodd"/><path stroke="#000000" stroke-width="1.0" stroke-linejoin="round" stroke-linecap="butt" d="m164.45801 55.110237l0 0c0 -5.079281 4.117569 -9.19685 9.196854 -9.19685l0 0c2.439148 0 4.778412 0.96894836 6.5031433 2.693695c1.7247467 1.7247429 2.693695 4.063999 2.693695 6.5031548l0 0c0 5.079281 -4.117569 9.196846 -9.196838 9.196846l0 0c-5.0792847 0 -9.196854 -4.117565 -9.196854 -9.196846z" fill-rule="evenodd"/><path fill="#b7b7b7" d="m104.7231 286.13385l0 0c0 -5.0792847 4.117569 -9.196838 9.196846 -9.196838l0 0c2.4391556 0 4.778412 0.9689331 6.5031586 2.693695c1.7247467 1.7247314 2.693695 4.0639954 2.693695 6.5031433l0 0c0 5.0792847 -4.117569 9.196869 -9.196854 9.196869l0 0c-5.079277 0 -9.196846 -4.117584 -9.196846 -9.196869z" fill-rule="evenodd"/><path stroke="#000000" stroke-width="1.0" stroke-linejoin="round" stroke-linecap="butt" d="m104.7231 286.13385l0 0c0 -5.0792847 4.117569 -9.196838 9.196846 -9.196838l0 0c2.4391556 0 4.778412 0.9689331 6.5031586 2.693695c1.7247467 1.7247314 2.693695 4.0639954 2.693695 6.5031433l0 0c0 5.0792847 -4.117569 9.196869 -9.196854 9.196869l0 0c-5.079277 0 -9.196846 -4.117584 -9.196846 -9.196869z" fill-rule="evenodd"/><path fill="#b7b7b7" d="m129.99213 155.4147l0 0c0 -5.0792847 4.117569 -9.196854 9.196854 -9.196854l0 0c2.439148 0 4.778412 0.96894836 6.5031586 2.693695c1.7247314 1.7247467 2.693695 4.0639954 2.693695 6.5031586l0 0c0 5.0792694 -4.117584 9.196838 -9.196854 9.196838l0 0c-5.0792847 0 -9.196854 -4.117569 -9.196854 -9.196838z" fill-rule="evenodd"/><path stroke="#000000" stroke-width="1.0" stroke-linejoin="round" stroke-linecap="butt" d="m129.99213 155.4147l0 0c0 -5.0792847 4.117569 -9.196854 9.196854 -9.196854l0 0c2.439148 0 4.778412 0.96894836 6.5031586 2.693695c1.7247314 1.7247467 2.693695 4.0639954 2.693695 6.5031586l0 0c0 5.0792694 -4.117584 9.196838 -9.196854 9.196838l0 0c-5.0792847 0 -9.196854 -4.117569 -9.196854 -9.196838z" fill-rule="evenodd"/><path fill="#56b4e9" d="m56.476418 91.74435l6.3991623 -6.3991623l7.3816376 7.3816376l7.3816376 -7.3816376l6.3991623 6.3991623l-7.3816376 7.3816376l7.3816376 7.3816376l-6.3991623 6.3991623l-7.3816376 -7.3816376l-7.3816376 7.3816376l-6.3991623 -6.3991623l7.3816414 -7.3816376z" fill-rule="evenodd"/><path stroke="#000000" stroke-width="2.0" stroke-linejoin="round" stroke-linecap="butt" d="m56.476418 91.74435l6.3991623 -6.3991623l7.3816376 7.3816376l7.3816376 -7.3816376l6.3991623 6.3991623l-7.3816376 7.3816376l7.3816376 7.3816376l-6.3991623 6.3991623l-7.3816376 -7.3816376l-7.3816376 7.3816376l-6.3991623 -6.3991623l7.3816414 -7.3816376z" fill-rule="evenodd"/><path fill="#009e73" d="m193.33075 95.68135l6.3991547 -6.3991547l7.3816376 7.3816376l7.381653 -7.3816376l6.3991547 6.3991547l-7.3816376 7.381645l7.3816376 7.3816376l-6.3991547 6.3991547l-7.381653 -7.3816376l-7.3816376 7.3816376l-6.3991547 -6.3991547l7.3816376 -7.3816376z" fill-rule="evenodd"/><path stroke="#000000" stroke-width="2.0" stroke-linejoin="round" stroke-linecap="butt" d="m193.33075 95.68135l6.3991547 -6.3991547l7.3816376 7.3816376l7.381653 -7.3816376l6.3991547 6.3991547l-7.3816376 7.381645l7.3816376 7.3816376l-6.3991547 6.3991547l-7.381653 -7.3816376l-7.3816376 7.3816376l-6.3991547 -6.3991547l7.3816376 -7.3816376z" fill-rule="evenodd"/><path fill="#e69f00" d="m125.40818 256.82834l6.3991623 -6.39917l7.3816376 7.381653l7.3816376 -7.381653l6.3991547 6.39917l-7.3816376 7.3816223l7.3816376 7.381653l-6.3991547 6.39917l-7.3816376 -7.381653l-7.3816376 7.381653l-6.3991623 -6.39917l7.38163 -7.381653z" fill-rule="evenodd"/><path stroke="#000000" stroke-width="2.0" stroke-linejoin="round" stroke-linecap="butt" d="m125.40818 256.82834l6.3991623 -6.39917l7.3816376 7.381653l7.3816376 -7.381653l6.3991547 6.39917l-7.3816376 7.3816223l7.3816376 7.381653l-6.3991547 6.39917l-7.3816376 -7.381653l-7.3816376 7.381653l-6.3991623 -6.39917l7.38163 -7.381653z" fill-rule="evenodd"/></g></svg>