<svg version="1.1" viewBox="0.0 0.0 867.8136482939633 248.6272965879265" fill="none" stroke="none" stroke-linecap="square" stroke-miterlimit="10" xmlns:xlink="http://www.w3.org/1999/xlink" xmlns="http://www.w3.org/2000/svg"><clipPath id="p.0"><path d="m0 0l867.81366 0l0 248.6273l-867.81366 0l0 -248.6273z" clip-rule="nonzero"/></clipPath><g clip-path="url(#p.0)"><path fill="#000000" fill-opacity="0.0" d="m0 0l867.81366 0l0 248.6273l-867.81366 0z" fill-rule="evenodd"/><path fill="#000000" fill-opacity="0.0" d="m28.620735 1.5262467l0 154.80315" fill-rule="evenodd"/><path stroke="#595959" stroke-width="1.0" stroke-linejoin="round" stroke-linecap="butt" d="m28.620735 4.9533334l0 151.37605" fill-rule="evenodd"/><path fill="#595959" stroke="#595959" stroke-width="1.0" stroke-linecap="butt" d="m28.620735 4.9533334l1.1245842 1.1245832l-1.1245842 -3.0897677l-1.1245842 3.0897677z" fill-rule="evenodd"/><path fill="#000000" fill-opacity="0.0" d="m28.620735 156.32939l191.77954 0" fill-rule="evenodd"/><path stroke="#595959" stroke-width="1.0" stroke-linejoin="round" stroke-linecap="butt" d="m28.620735 156.32939l185.77954 0" fill-rule="evenodd"/><path fill="#595959" stroke="#595959" stroke-width="1.0" stroke-linecap="butt" d="m214.40027 157.98112l4.538086 -1.6517334l-4.538086 -1.6517334z" fill-rule="evenodd"/><path fill="#000000" fill-opacity="0.0" d="m65.18241 156.32939l96.78741 0l0 35.559067l-96.78741 0z" fill-rule="evenodd"/><path fill="#000000" d="m101.53986 178.1294l0 -9.328125l2.265625 0l0 9.328125l-2.265625 0zm1.046875 -3.578125l0 -1.890625l4.828125 0l0 1.890625l-4.828125 0zm0 -3.75l0 -2.0l5.375 0l0 2.0l-5.375 0zm7.1898804 7.328125l0 -9.328125l4.03125 0q0.875 0 1.5625 0.40625q0.6875 0.390625 1.09375 1.09375q0.40625 0.6875 0.40625 1.546875q0 0.90625 -0.40625 1.625q-0.40625 0.71875 -1.09375 1.125q-0.6875 0.40625 -1.5625 0.40625l-1.765625 0l0 3.125l-2.265625 0zm2.234375 -5.109375l1.46875 0q0.296875 0 0.53125 -0.140625q0.25 -0.140625 0.390625 -0.390625q0.140625 -0.265625 0.140625 -0.59375q0 -0.34375 -0.140625 -0.578125q-0.140625 -0.25 -0.390625 -0.375q-0.234375 -0.140625 -0.53125 -0.140625l-1.46875 0l0 2.21875zm6.588806 5.109375l0 -9.328125l4.203125 0q0.890625 0 1.609375 0.390625q0.734375 0.375 1.140625 1.0625q0.421875 0.671875 0.421875 1.515625q0 0.875 -0.421875 1.578125q-0.40625 0.703125 -1.125 1.109375q-0.71875 0.390625 -1.625 0.390625l-2.046875 0l0 3.28125l-2.15625 0zm5.171875 0l-2.375 -4.21875l2.328125 -0.328125l2.640625 4.546875l-2.59375 0zm-3.015625 -5.015625l1.84375 0q0.34375 0 0.59375 -0.140625q0.265625 -0.15625 0.40625 -0.4375q0.140625 -0.28125 0.140625 -0.640625q0 -0.359375 -0.15625 -0.625q-0.15625 -0.28125 -0.46875 -0.421875q-0.296875 -0.15625 -0.71875 -0.15625l-1.640625 0l0 2.421875z" fill-rule="nonzero"/><path fill="#000000" fill-opacity="0.0" d="m-6.93832 130.89896l0 -62.86615l35.559055 0l0 62.86615z" fill-rule="evenodd"/><path fill="#000000" d="m14.861679 109.717445l-7.328125 0l0 2.78125l-2.0 0l0 -7.875l2.0 0l0 2.828125l7.328125 0l0 2.265625zm0 -6.698639l-9.328125 0l0 -4.03125q0 -0.875 0.40625 -1.5625q0.390625 -0.6875 1.09375 -1.09375q0.6875 -0.40625 1.546875 -0.40625q0.90625 0 1.625 0.40625q0.71875 0.40625 1.125 1.09375q0.40625 0.6875 0.40625 1.5625l0 1.765625l3.125 0l0 2.265625zm-5.109375 -2.234375l0 -1.46875q0 -0.296875 -0.140625 -0.53125q-0.140625 -0.25 -0.390625 -0.390625q-0.265625 -0.140625 -0.59375 -0.140625q-0.34375 0 -0.578125 0.140625q-0.25 0.140625 -0.375 0.390625q-0.140625 0.234375 -0.140625 0.53125l0 1.46875l2.21875 0zm5.109375 -6.588806l-9.328125 0l0 -4.203125q0 -0.890625 0.390625 -1.609375q0.375 -0.734375 1.0625 -1.140625q0.671875 -0.421875 1.515625 -0.421875q0.875 0 1.578125 0.421875q0.703125 0.40625 1.109375 1.125q0.390625 0.71875 0.390625 1.625l0 2.046875l3.28125 0l0 2.15625zm0 -5.171875l-4.21875 2.375l-0.328125 -2.328125l4.546875 -2.640625l0 2.59375zm-5.015625 3.015625l0 -1.84375q0 -0.34375 -0.140625 -0.59375q-0.15625 -0.265625 -0.4375 -0.40625q-0.28125 -0.140625 -0.640625 -0.140625q-0.359375 0 -0.625 0.15625q-0.28125 0.15625 -0.421875 0.46875q-0.15625 0.296875 -0.15625 0.71875l0 1.640625l2.421875 0z" fill-rule="nonzero"/><path fill="#000000" fill-opacity="0.0" d="m23.959318 24.822834l196.44095 0" fill-rule="evenodd"/><path stroke="#595959" stroke-width="1.0" stroke-linejoin="round" stroke-linecap="butt" stroke-dasharray="1.0,3.0" d="m23.959318 24.822834l196.44095 0" fill-rule="evenodd"/><path fill="#000000" fill-opacity="0.0" d="m-6.93832 7.0433073l35.559055 0l0 35.559055l-35.559055 0z" fill-rule="evenodd"/><path fill="#000000" d="m9.915182 28.187056l0 -7.5625l0.5 1.125l-2.0 0.953125l-0.390625 -2.03125l2.65625 -1.296875l1.453125 0l0 8.8125l-2.21875 0zm-1.703125 0.65625l0 -2.0l5.671875 0l0 2.0l-5.671875 0z" fill-rule="nonzero"/><path fill="#000000" fill-opacity="0.0" d="m198.5315 14.395013l0 152.56693" fill-rule="evenodd"/><path stroke="#595959" stroke-width="1.0" stroke-linejoin="round" stroke-linecap="butt" stroke-dasharray="1.0,3.0" d="m198.5315 14.395013l0 152.56693" fill-rule="evenodd"/><path fill="#000000" fill-opacity="0.0" d="m180.75197 156.32939l35.55905 0l0 35.559067l-35.55905 0z" fill-rule="evenodd"/><path fill="#000000" d="m197.60547 177.47314l0 -7.5625l0.5 1.125l-2.0 0.953125l-0.390625 -2.03125l2.65625 -1.296875l1.453125 0l0 8.8125l-2.21875 0zm-1.703125 0.65625l0 -2.0l5.671875 0l0 2.0l-5.671875 0z" fill-rule="nonzero"/><path fill="#000000" fill-opacity="0.0" d="m29.628609 155.24803l-1.0078735 -130.4252" fill-rule="evenodd"/><path stroke="#4285f4" stroke-width="4.0" stroke-linejoin="round" stroke-linecap="butt" d="m29.628609 155.24803l-1.0078735 -130.4252" fill-rule="evenodd"/><path fill="#000000" fill-opacity="0.0" d="m28.620735 24.822834l169.5748 0" fill-rule="evenodd"/><path stroke="#4285f4" stroke-width="4.0" stroke-linejoin="round" stroke-linecap="butt" d="m28.620735 24.822834l169.5748 0" fill-rule="evenodd"/><path fill="#000000" fill-opacity="0.0" d="m337.4265 1.5262467l0 154.80315" fill-rule="evenodd"/><path stroke="#595959" stroke-width="1.0" stroke-linejoin="round" stroke-linecap="butt" d="m337.4265 4.9533334l0 151.37605" fill-rule="evenodd"/><path fill="#595959" stroke="#595959" stroke-width="1.0" stroke-linecap="butt" d="m337.4265 4.9533334l1.1245728 1.1245832l-1.1245728 -3.0897677l-1.1246033 3.0897677z" fill-rule="evenodd"/><path fill="#000000" fill-opacity="0.0" d="m337.4265 156.32939l191.77954 0" fill-rule="evenodd"/><path stroke="#595959" stroke-width="1.0" stroke-linejoin="round" stroke-linecap="butt" d="m337.4265 156.32939l185.77954 0" fill-rule="evenodd"/><path fill="#595959" stroke="#595959" stroke-width="1.0" stroke-linecap="butt" d="m523.20605 157.98112l4.538086 -1.6517334l-4.538086 -1.6517334z" fill-rule="evenodd"/><path fill="#000000" fill-opacity="0.0" d="m373.9882 156.32939l96.787415 0l0 35.559067l-96.787415 0z" fill-rule="evenodd"/><path fill="#000000" d="m410.34564 178.1294l0 -9.328125l2.265625 0l0 9.328125l-2.265625 0zm1.046875 -3.578125l0 -1.890625l4.828125 0l0 1.890625l-4.828125 0zm0 -3.75l0 -2.0l5.375 0l0 2.0l-5.375 0zm7.1898804 7.328125l0 -9.328125l4.03125 0q0.875 0 1.5625 0.40625q0.6875 0.390625 1.09375 1.09375q0.40625 0.6875 0.40625 1.546875q0 0.90625 -0.40625 1.625q-0.40625 0.71875 -1.09375 1.125q-0.6875 0.40625 -1.5625 0.40625l-1.765625 0l0 3.125l-2.265625 0zm2.234375 -5.109375l1.46875 0q0.296875 0 0.53125 -0.140625q0.25 -0.140625 0.390625 -0.390625q0.140625 -0.265625 0.140625 -0.59375q0 -0.34375 -0.140625 -0.578125q-0.140625 -0.25 -0.390625 -0.375q-0.234375 -0.140625 -0.53125 -0.140625l-1.46875 0l0 2.21875zm6.588806 5.109375l0 -9.328125l4.203125 0q0.890625 0 1.609375 0.390625q0.734375 0.375 1.140625 1.0625q0.421875 0.671875 0.421875 1.515625q0 0.875 -0.421875 1.578125q-0.40625 0.703125 -1.125 1.109375q-0.71875 0.390625 -1.625 0.390625l-2.046875 0l0 3.28125l-2.15625 0zm5.171875 0l-2.375 -4.21875l2.328125 -0.328125l2.640625 4.546875l-2.59375 0zm-3.015625 -5.015625l1.84375 0q0.34375 0 0.59375 -0.140625q0.265625 -0.15625 0.40625 -0.4375q0.140625 -0.28125 0.140625 -0.640625q0 -0.359375 -0.15625 -0.625q-0.15625 -0.28125 -0.46875 -0.421875q-0.296875 -0.15625 -0.71875 -0.15625l-1.640625 0l0 2.421875z" fill-rule="nonzero"/><path fill="#000000" fill-opacity="0.0" d="m301.86746 130.89896l0 -62.86615l35.55905 0l0 62.86615z" fill-rule="evenodd"/><path fill="#000000" d="m323.66745 109.717445l-7.328125 0l0 2.78125l-2.0 0l0 -7.875l2.0 0l0 2.828125l7.328125 0l0 2.265625zm0 -6.698639l-9.328125 0l0 -4.03125q0 -0.875 0.40625 -1.5625q0.390625 -0.6875 1.09375 -1.09375q0.6875 -0.40625 1.546875 -0.40625q0.90625 0 1.625 0.40625q0.71875 0.40625 1.125 1.09375q0.40625 0.6875 0.40625 1.5625l0 1.765625l3.125 0l0 2.265625zm-5.109375 -2.234375l0 -1.46875q0 -0.296875 -0.140625 -0.53125q-0.140625 -0.25 -0.390625 -0.390625q-0.265625 -0.140625 -0.59375 -0.140625q-0.34375 0 -0.578125 0.140625q-0.25 0.140625 -0.375 0.390625q-0.140625 0.234375 -0.140625 0.53125l0 1.46875l2.21875 0zm5.109375 -6.588806l-9.328125 0l0 -4.203125q0 -0.890625 0.390625 -1.609375q0.375 -0.734375 1.0625 -1.140625q0.671875 -0.421875 1.515625 -0.421875q0.875 0 1.578125 0.421875q0.703125 0.40625 1.109375 1.125q0.390625 0.71875 0.390625 1.625l0 2.046875l3.28125 0l0 2.15625zm0 -5.171875l-4.21875 2.375l-0.328125 -2.328125l4.546875 -2.640625l0 2.59375zm-5.015625 3.015625l0 -1.84375q0 -0.34375 -0.140625 -0.59375q-0.15625 -0.265625 -0.4375 -0.40625q-0.28125 -0.140625 -0.640625 -0.140625q-0.359375 0 -0.625 0.15625q-0.28125 0.15625 -0.421875 0.46875q-0.15625 0.296875 -0.15625 0.71875l0 1.640625l2.421875 0z" fill-rule="nonzero"/><path fill="#000000" fill-opacity="0.0" d="m332.7651 24.822834l196.44095 0" fill-rule="evenodd"/><path stroke="#595959" stroke-width="1.0" stroke-linejoin="round" stroke-linecap="butt" stroke-dasharray="1.0,3.0" d="m332.7651 24.822834l196.44095 0" fill-rule="evenodd"/><path fill="#000000" fill-opacity="0.0" d="m301.86746 7.0433073l35.55905 0l0 35.559055l-35.55905 0z" fill-rule="evenodd"/><path fill="#000000" d="m318.72095 28.187056l0 -7.5625l0.5 1.125l-2.0 0.953125l-0.390625 -2.03125l2.65625 -1.296875l1.453125 0l0 8.8125l-2.21875 0zm-1.703125 0.65625l0 -2.0l5.671875 0l0 2.0l-5.671875 0z" fill-rule="nonzero"/><path fill="#000000" fill-opacity="0.0" d="m507.33728 14.395013l0 152.56693" fill-rule="evenodd"/><path stroke="#595959" stroke-width="1.0" stroke-linejoin="round" stroke-linecap="butt" stroke-dasharray="1.0,3.0" d="m507.33728 14.395013l0 152.56693" fill-rule="evenodd"/><path fill="#000000" fill-opacity="0.0" d="m489.55774 156.32939l35.559082 0l0 35.559067l-35.559082 0z" fill-rule="evenodd"/><path fill="#000000" d="m506.41125 177.47314l0 -7.5625l0.5 1.125l-2.0 0.953125l-0.390625 -2.03125l2.65625 -1.296875l1.453125 0l0 8.8125l-2.21875 0zm-1.703125 0.65625l0 -2.0l5.671875 0l0 2.0l-5.671875 0z" fill-rule="nonzero"/><path fill="#000000" fill-opacity="0.0" d="m659.5866 1.5262467l0 154.80315" fill-rule="evenodd"/><path stroke="#595959" stroke-width="1.0" stroke-linejoin="round" stroke-linecap="butt" d="m659.5866 4.9533334l0 151.37605" fill-rule="evenodd"/><path fill="#595959" stroke="#595959" stroke-width="1.0" stroke-linecap="butt" d="m659.5866 4.9533334l1.1245728 1.1245832l-1.1245728 -3.0897677l-1.1245728 3.0897677z" fill-rule="evenodd"/><path fill="#000000" fill-opacity="0.0" d="m659.5866 156.32939l191.77954 0" fill-rule="evenodd"/><path stroke="#595959" stroke-width="1.0" stroke-linejoin="round" stroke-linecap="butt" d="m659.5866 156.32939l185.77954 0" fill-rule="evenodd"/><path fill="#595959" stroke="#595959" stroke-width="1.0" stroke-linecap="butt" d="m845.36615 157.98112l4.538086 -1.6517334l-4.538086 -1.6517334z" fill-rule="evenodd"/><path fill="#000000" fill-opacity="0.0" d="m696.1483 156.32939l96.78735 0l0 35.559067l-96.78735 0z" fill-rule="evenodd"/><path fill="#000000" d="m732.50574 178.1294l0 -9.328125l2.265625 0l0 9.328125l-2.265625 0zm1.046875 -3.578125l0 -1.890625l4.828125 0l0 1.890625l-4.828125 0zm0 -3.75l0 -2.0l5.375 0l0 2.0l-5.375 0zm7.1898804 7.328125l0 -9.328125l4.03125 0q0.875 0 1.5625 0.40625q0.6875 0.390625 1.09375 1.09375q0.40625 0.6875 0.40625 1.546875q0 0.90625 -0.40625 1.625q-0.40625 0.71875 -1.09375 1.125q-0.6875 0.40625 -1.5625 0.40625l-1.765625 0l0 3.125l-2.265625 0zm2.234375 -5.109375l1.46875 0q0.296875 0 0.53125 -0.140625q0.25 -0.140625 0.390625 -0.390625q0.140625 -0.265625 0.140625 -0.59375q0 -0.34375 -0.140625 -0.578125q-0.140625 -0.25 -0.390625 -0.375q-0.234375 -0.140625 -0.53125 -0.140625l-1.46875 0l0 2.21875zm6.588806 5.109375l0 -9.328125l4.203125 0q0.890625 0 1.609375 0.390625q0.734375 0.375 1.140625 1.0625q0.421875 0.671875 0.421875 1.515625q0 0.875 -0.421875 1.578125q-0.40625 0.703125 -1.125 1.109375q-0.71875 0.390625 -1.625 0.390625l-2.046875 0l0 3.28125l-2.15625 0zm5.171875 0l-2.375 -4.21875l2.328125 -0.328125l2.640625 4.546875l-2.59375 0zm-3.015625 -5.015625l1.84375 0q0.34375 0 0.59375 -0.140625q0.265625 -0.15625 0.40625 -0.4375q0.140625 -0.28125 0.140625 -0.640625q0 -0.359375 -0.15625 -0.625q-0.15625 -0.28125 -0.46875 -0.421875q-0.296875 -0.15625 -0.71875 -0.15625l-1.640625 0l0 2.421875z" fill-rule="nonzero"/><path fill="#000000" fill-opacity="0.0" d="m624.0276 130.89896l0 -62.86615l35.55902 0l0 62.86615z" fill-rule="evenodd"/><path fill="#000000" d="m645.8276 109.717445l-7.328125 0l0 2.78125l-2.0 0l0 -7.875l2.0 0l0 2.828125l7.328125 0l0 2.265625zm0 -6.698639l-9.328125 0l0 -4.03125q0 -0.875 0.40625 -1.5625q0.390625 -0.6875 1.09375 -1.09375q0.6875 -0.40625 1.546875 -0.40625q0.90625 0 1.625 0.40625q0.71875 0.40625 1.125 1.09375q0.40625 0.6875 0.40625 1.5625l0 1.765625l3.125 0l0 2.265625zm-5.109375 -2.234375l0 -1.46875q0 -0.296875 -0.140625 -0.53125q-0.140625 -0.25 -0.390625 -0.390625q-0.265625 -0.140625 -0.59375 -0.140625q-0.34375 0 -0.578125 0.140625q-0.25 0.140625 -0.375 0.390625q-0.140625 0.234375 -0.140625 0.53125l0 1.46875l2.21875 0zm5.109375 -6.588806l-9.328125 0l0 -4.203125q0 -0.890625 0.390625 -1.609375q0.375 -0.734375 1.0625 -1.140625q0.671875 -0.421875 1.515625 -0.421875q0.875 0 1.578125 0.421875q0.703125 0.40625 1.109375 1.125q0.390625 0.71875 0.390625 1.625l0 2.046875l3.28125 0l0 2.15625zm0 -5.171875l-4.21875 2.375l-0.328125 -2.328125l4.546875 -2.640625l0 2.59375zm-5.015625 3.015625l0 -1.84375q0 -0.34375 -0.140625 -0.59375q-0.15625 -0.265625 -0.4375 -0.40625q-0.28125 -0.140625 -0.640625 -0.140625q-0.359375 0 -0.625 0.15625q-0.28125 0.15625 -0.421875 0.46875q-0.15625 0.296875 -0.15625 0.71875l0 1.640625l2.421875 0z" fill-rule="nonzero"/><path fill="#000000" fill-opacity="0.0" d="m654.9252 24.822834l196.44098 0" fill-rule="evenodd"/><path stroke="#595959" stroke-width="1.0" stroke-linejoin="round" stroke-linecap="butt" stroke-dasharray="1.0,3.0" d="m654.9252 24.822834l196.44098 0" fill-rule="evenodd"/><path fill="#000000" fill-opacity="0.0" d="m624.0276 7.0433073l35.55902 0l0 35.559055l-35.55902 0z" fill-rule="evenodd"/><path fill="#000000" d="m640.88104 28.187056l0 -7.5625l0.5 1.125l-2.0 0.953125l-0.390625 -2.03125l2.65625 -1.296875l1.453125 0l0 8.8125l-2.21875 0zm-1.703125 0.65625l0 -2.0l5.671875 0l0 2.0l-5.671875 0z" fill-rule="nonzero"/><path fill="#000000" fill-opacity="0.0" d="m829.4974 14.395013l0 152.56693" fill-rule="evenodd"/><path stroke="#595959" stroke-width="1.0" stroke-linejoin="round" stroke-linecap="butt" stroke-dasharray="1.0,3.0" d="m829.4974 14.395013l0 152.56693" fill-rule="evenodd"/><path fill="#000000" fill-opacity="0.0" d="m811.71783 156.32939l35.559082 0l0 35.559067l-35.559082 0z" fill-rule="evenodd"/><path fill="#000000" d="m828.57135 177.47314l0 -7.5625l0.5 1.125l-2.0 0.953125l-0.390625 -2.03125l2.65625 -1.296875l1.453125 0l0 8.8125l-2.21875 0zm-1.703125 0.65625l0 -2.0l5.671875 0l0 2.0l-5.671875 0z" fill-rule="nonzero"/><path fill="#000000" fill-opacity="0.0" d="m830.50525 155.24803l-1.0078735 -130.4252" fill-rule="evenodd"/><path stroke="#4285f4" stroke-width="4.0" stroke-linejoin="round" stroke-linecap="butt" d="m830.50525 155.24803l-1.0078735 -130.4252" fill-rule="evenodd"/><path fill="#000000" fill-opacity="0.0" d="m659.5866 155.33202l169.57483 0" fill-rule="evenodd"/><path stroke="#4285f4" stroke-width="4.0" stroke-linejoin="round" stroke-linecap="butt" d="m659.5866 155.33202l169.57483 0" fill-rule="evenodd"/><path fill="#000000" fill-opacity="0.0" d="m337.90683 155.3084l169.48032 -129.66928" fill-rule="evenodd"/><path stroke="#4285f4" stroke-width="4.0" stroke-linejoin="round" stroke-linecap="butt" d="m337.90683 155.3084l169.48032 -129.66928" fill-rule="evenodd"/><path fill="#000000" fill-opacity="0.0" d="m1.5498688 208.80183l223.71654 0l0 38.29921l-223.71654 0z" fill-rule="evenodd"/><path fill="#595959" d="m16.983318 223.47145l0 -13.0625l5.3125 0q1.0625 0 1.921875 0.53125q0.875 0.53125 1.390625 1.453125q0.53125 0.90625 0.53125 2.03125q0 1.125 -0.53125 2.046875q-0.515625 0.90625 -1.390625 1.453125q-0.859375 0.546875 -1.921875 0.546875l-3.296875 0l0 5.0l-2.015625 0zm2.015625 -6.9375l3.265625 0q0.5 0 0.90625 -0.28125q0.421875 -0.296875 0.671875 -0.765625q0.25 -0.484375 0.25 -1.0625q0 -0.578125 -0.25 -1.046875q-0.25 -0.46875 -0.671875 -0.75q-0.40625 -0.28125 -0.90625 -0.28125l-3.265625 0l0 4.1875zm13.703903 7.125q-1.5 0 -2.671875 -0.640625q-1.15625 -0.640625 -1.828125 -1.765625q-0.65625 -1.125 -0.65625 -2.578125q0 -1.15625 0.375 -2.109375q0.375 -0.953125 1.03125 -1.640625q0.65625 -0.703125 1.578125 -1.078125q0.9375 -0.390625 2.015625 -0.390625q0.953125 0 1.765625 0.359375q0.828125 0.359375 1.421875 1.0q0.609375 0.640625 0.9375 1.515625q0.328125 0.859375 0.3125 1.875l-0.015625 0.828125l-8.0 0l-0.4375 -1.53125l6.765625 0l-0.265625 0.3125l0 -0.4375q-0.0625 -0.625 -0.421875 -1.109375q-0.34375 -0.484375 -0.890625 -0.765625q-0.546875 -0.28125 -1.171875 -0.28125q-1.015625 0 -1.703125 0.390625q-0.6875 0.375 -1.046875 1.125q-0.34375 0.734375 -0.34375 1.8125q0 1.015625 0.421875 1.78125q0.421875 0.75 1.203125 1.171875q0.796875 0.40625 1.8125 0.40625q0.734375 0 1.359375 -0.234375q0.625 -0.25 1.359375 -0.890625l0.96875 1.359375q-0.453125 0.453125 -1.09375 0.796875q-0.640625 0.328125 -1.359375 0.53125q-0.71875 0.1875 -1.421875 0.1875zm6.3700714 -0.1875l0 -9.796875l1.9375 0l0 3.078125l-0.1875 -0.75q0.203125 -0.703125 0.703125 -1.28125q0.5 -0.578125 1.140625 -0.90625q0.640625 -0.34375 1.328125 -0.34375q0.3125 0 0.59375 0.0625q0.296875 0.046875 0.46875 0.125l-0.5 2.09375q-0.21875 -0.09375 -0.5 -0.15625q-0.265625 -0.078125 -0.53125 -0.078125q-0.5 0 -0.953125 0.203125q-0.453125 0.1875 -0.8125 0.546875q-0.34375 0.34375 -0.546875 0.796875q-0.203125 0.453125 -0.203125 1.0l0 5.40625l-1.9375 0zm8.580963 0l0 -10.890625q0 -0.84375 0.375 -1.5q0.375 -0.65625 1.015625 -1.015625q0.65625 -0.375 1.515625 -0.375q0.59375 0 1.109375 0.21875q0.53125 0.21875 0.859375 0.59375l-0.65625 1.46875q-0.25 -0.21875 -0.546875 -0.359375q-0.28125 -0.140625 -0.53125 -0.140625q-0.390625 0 -0.671875 0.125q-0.265625 0.125 -0.40625 0.375q-0.125 0.25 -0.125 0.609375l0 10.890625l-0.96875 0q-0.234375 0 -0.484375 0q-0.234375 0 -0.484375 0zm-1.5625 -7.859375l0 -1.765625l5.8125 0l0 1.765625l-5.8125 0zm12.021072 8.046875q-1.5 0 -2.671875 -0.640625q-1.15625 -0.640625 -1.828125 -1.765625q-0.65625 -1.125 -0.65625 -2.578125q0 -1.15625 0.375 -2.109375q0.375 -0.953125 1.03125 -1.640625q0.65625 -0.703125 1.578125 -1.078125q0.9375 -0.390625 2.015625 -0.390625q0.953125 0 1.765625 0.359375q0.828125 0.359375 1.421875 1.0q0.609375 0.640625 0.9375 1.515625q0.328125 0.859375 0.3125 1.875l-0.015625 0.828125l-8.0 0l-0.4375 -1.53125l6.765625 0l-0.265625 0.3125l0 -0.4375q-0.0625 -0.625 -0.421875 -1.109375q-0.34375 -0.484375 -0.890625 -0.765625q-0.546875 -0.28125 -1.171875 -0.28125q-1.015625 0 -1.703125 0.390625q-0.6875 0.375 -1.046875 1.125q-0.34375 0.734375 -0.34375 1.8125q0 1.015625 0.421875 1.78125q0.421875 0.75 1.203125 1.171875q0.796875 0.40625 1.8125 0.40625q0.734375 0 1.359375 -0.234375q0.625 -0.25 1.359375 -0.890625l0.96875 1.359375q-0.453125 0.453125 -1.09375 0.796875q-0.640625 0.328125 -1.359375 0.53125q-0.71875 0.1875 -1.421875 0.1875zm10.526318 0q-1.359375 0 -2.4375 -0.671875q-1.0625 -0.671875 -1.6875 -1.828125q-0.6249962 -1.15625 -0.6249962 -2.59375q0 -1.4375 0.6249962 -2.59375q0.625 -1.15625 1.6875 -1.828125q1.078125 -0.671875 2.4375 -0.671875q1.3125 0 2.375 0.53125q1.078125 0.53125 1.640625 1.453125l-1.0625 1.296875q-0.296875 -0.421875 -0.765625 -0.78125q-0.46875 -0.359375 -1.0 -0.5625q-0.515625 -0.203125 -1.0 -0.203125q-0.890625 0 -1.59375 0.4375q-0.703125 0.4375 -1.109375 1.203125q-0.40625 0.765625 -0.40625 1.71875q0 0.953125 0.421875 1.71875q0.4375 0.75 1.140625 1.203125q0.703125 0.4375 1.5625 0.4375q0.515625 0 0.984375 -0.171875q0.46875 -0.171875 0.921875 -0.5q0.453125 -0.34375 0.84375 -0.828125l1.0625 1.3125q-0.59375 0.84375 -1.703125 1.390625q-1.109375 0.53125 -2.3125 0.53125zm7.0435944 -0.1875l0 -12.296875l1.921875 0l0 12.296875l-1.921875 0zm-2.046875 -7.921875l0 -1.875l6.234375 0l0 1.875l-6.234375 0zm18.997131 8.109375q-1.359375 0 -2.5 -0.484375q-1.140625 -0.484375 -1.984375 -1.390625q-0.828125 -0.90625 -1.296875 -2.140625q-0.453125 -1.234375 -0.453125 -2.703125q0 -1.390625 0.5 -2.59375q0.5 -1.203125 1.375 -2.109375q0.875 -0.921875 2.03125 -1.421875q1.15625 -0.515625 2.5 -0.515625q0.953125 0 1.859375 0.296875q0.90625 0.28125 1.640625 0.796875q0.734375 0.515625 1.203125 1.171875l-1.34375 1.390625q-0.546875 -0.546875 -1.09375 -0.90625q-0.546875 -0.359375 -1.125 -0.546875q-0.5625 -0.1875 -1.140625 -0.1875q-0.921875 0 -1.71875 0.34375q-0.78125 0.34375 -1.375 0.96875q-0.578125 0.609375 -0.921875 1.46875q-0.328125 0.84375 -0.328125 1.84375q0 1.0625 0.3125 1.9375q0.328125 0.859375 0.921875 1.484375q0.609375 0.609375 1.4375 0.9375q0.828125 0.328125 1.84375 0.328125q0.609375 0 1.203125 -0.171875q0.59375 -0.171875 1.109375 -0.484375q0.53125 -0.3125 0.96875 -0.75l1.0 1.640625q-0.421875 0.515625 -1.171875 0.921875q-0.734375 0.40625 -1.640625 0.640625q-0.890625 0.234375 -1.8125 0.234375zm6.9176025 -0.1875l0 -13.8125l1.921875 0l0 13.8125l-1.921875 0zm8.230438 0.1875q-1.203125 0 -2.203125 -0.671875q-1.0 -0.671875 -1.609375 -1.828125q-0.59375 -1.15625 -0.59375 -2.609375q0 -1.484375 0.609375 -2.625q0.609375 -1.140625 1.640625 -1.796875q1.046875 -0.65625 2.328125 -0.65625q0.765625 0 1.390625 0.234375q0.640625 0.21875 1.109375 0.625q0.484375 0.390625 0.78125 0.921875q0.3125 0.515625 0.390625 1.109375l-0.421875 -0.140625l0 -2.546875l1.9375 0l0 9.796875l-1.9375 0l0 -2.328125l0.4375 -0.140625q-0.109375 0.515625 -0.453125 1.0q-0.34375 0.46875 -0.875 0.84375q-0.53125 0.359375 -1.171875 0.59375q-0.640625 0.21875 -1.359375 0.21875zm0.5 -1.765625q0.890625 0 1.546875 -0.421875q0.671875 -0.4375 1.046875 -1.1875q0.390625 -0.765625 0.390625 -1.734375q0 -0.953125 -0.390625 -1.703125q-0.375 -0.75 -1.046875 -1.171875q-0.65625 -0.4375 -1.546875 -0.4375q-0.859375 0 -1.515625 0.4375q-0.65625 0.421875 -1.046875 1.171875q-0.375 0.75 -0.375 1.703125q0 0.96875 0.375 1.734375q0.390625 0.75 1.046875 1.1875q0.65625 0.421875 1.515625 0.421875zm10.809402 1.765625q-1.234375 0 -2.21875 -0.421875q-0.984375 -0.4375 -1.640625 -1.28125l1.296875 -1.109375q0.5625 0.640625 1.21875 0.9375q0.671875 0.28125 1.515625 0.28125q0.328125 0 0.609375 -0.078125q0.296875 -0.078125 0.515625 -0.25q0.21875 -0.171875 0.328125 -0.40625q0.109375 -0.234375 0.109375 -0.515625q0 -0.484375 -0.359375 -0.78125q-0.1875 -0.125 -0.59375 -0.28125q-0.390625 -0.15625 -1.03125 -0.328125q-1.078125 -0.28125 -1.765625 -0.625q-0.6875 -0.359375 -1.0625 -0.8125q-0.28125 -0.359375 -0.421875 -0.765625q-0.125 -0.421875 -0.125 -0.9375q0 -0.609375 0.265625 -1.125q0.28125 -0.515625 0.75 -0.890625q0.484375 -0.390625 1.125 -0.59375q0.640625 -0.203125 1.375 -0.203125q0.6875 0 1.359375 0.1875q0.6875 0.1875 1.265625 0.546875q0.578125 0.34375 0.96875 0.828125l-1.09375 1.21875q-0.359375 -0.359375 -0.78125 -0.625q-0.421875 -0.265625 -0.859375 -0.40625q-0.421875 -0.15625 -0.765625 -0.15625q-0.390625 0 -0.71875 0.078125q-0.3125 0.0625 -0.53125 0.21875q-0.203125 0.140625 -0.328125 0.375q-0.109375 0.21875 -0.109375 0.5q0.015625 0.234375 0.125 0.453125q0.109375 0.21875 0.296875 0.359375q0.203125 0.15625 0.609375 0.328125q0.40625 0.15625 1.046875 0.3125q0.921875 0.234375 1.53125 0.53125q0.609375 0.28125 0.96875 0.65625q0.375 0.359375 0.515625 0.828125q0.15625 0.46875 0.15625 1.046875q0 0.828125 -0.484375 1.5q-0.46875 0.65625 -1.28125 1.03125q-0.796875 0.375 -1.78125 0.375zm8.936348 0q-1.2343826 0 -2.2187576 -0.421875q-0.984375 -0.4375 -1.640625 -1.28125l1.296875 -1.109375q0.5625 0.640625 1.21875 0.9375q0.671875 0.28125 1.5156326 0.28125q0.328125 0 0.609375 -0.078125q0.296875 -0.078125 0.515625 -0.25q0.21875 -0.171875 0.32810974 -0.40625q0.109375 -0.234375 0.109375 -0.515625q0 -0.484375 -0.35935974 -0.78125q-0.1875 -0.125 -0.59375 -0.28125q-0.390625 -0.15625 -1.0312576 -0.328125q-1.078125 -0.28125 -1.765625 -0.625q-0.6875 -0.359375 -1.0625 -0.8125q-0.28125 -0.359375 -0.421875 -0.765625q-0.125 -0.421875 -0.125 -0.9375q0 -0.609375 0.265625 -1.125q0.28125 -0.515625 0.75 -0.890625q0.484375 -0.390625 1.125 -0.59375q0.640625 -0.203125 1.375 -0.203125q0.6875076 0 1.3593826 0.1875q0.68748474 0.1875 1.2656097 0.546875q0.578125 0.34375 0.96875 0.828125l-1.09375 1.21875q-0.359375 -0.359375 -0.78125 -0.625q-0.42185974 -0.265625 -0.85935974 -0.40625q-0.421875 -0.15625 -0.765625 -0.15625q-0.39063263 0 -0.7187576 0.078125q-0.3125 0.0625 -0.53125 0.21875q-0.203125 0.140625 -0.328125 0.375q-0.109375 0.21875 -0.109375 0.5q0.015625 0.234375 0.125 0.453125q0.109375 0.21875 0.296875 0.359375q0.203125 0.15625 0.609375 0.328125q0.40625 0.15625 1.0468826 0.3125q0.921875 0.234375 1.5312347 0.53125q0.609375 0.28125 0.96875 0.65625q0.375 0.359375 0.515625 0.828125q0.15625 0.46875 0.15625 1.046875q0 0.828125 -0.484375 1.5q-0.46875 0.65625 -1.28125 1.03125q-0.79685974 0.375 -1.7812347 0.375zm5.9832 -0.1875l0 -9.796875l1.921875 0l0 9.796875l-1.921875 0zm0.9375 -11.953125q-0.609375 0 -0.953125 -0.3125q-0.328125 -0.328125 -0.328125 -0.90625q0 -0.546875 0.34375 -0.875q0.34375 -0.34375 0.9375 -0.34375q0.609375 0 0.9375 0.328125q0.34375 0.3125 0.34375 0.890625q0 0.546875 -0.34375 0.890625q-0.34375 0.328125 -0.9375 0.328125zm4.998932 11.953125l0 -10.890625q0 -0.84375 0.375 -1.5q0.375 -0.65625 1.015625 -1.015625q0.65625 -0.375 1.515625 -0.375q0.59375 0 1.109375 0.21875q0.53125 0.21875 0.859375 0.59375l-0.65625 1.46875q-0.25 -0.21875 -0.546875 -0.359375q-0.28125 -0.140625 -0.53125 -0.140625q-0.390625 0 -0.671875 0.125q-0.265625 0.125 -0.40625 0.375q-0.125 0.25 -0.125 0.609375l0 10.890625l-0.96875 0q-0.234375 0 -0.484375 0q-0.234375 0 -0.484375 0zm-1.5625 -7.859375l0 -1.765625l5.8125 0l0 1.765625l-5.8125 0zm8.140625 7.859375l0 -9.796875l1.921875 0l0 9.796875l-1.921875 0zm0.9375 -11.953125q-0.609375 0 -0.953125 -0.3125q-0.328125 -0.328125 -0.328125 -0.90625q0 -0.546875 0.34375 -0.875q0.34375 -0.34375 0.9375 -0.34375q0.609375 0 0.9375 0.328125q0.34375 0.3125 0.34375 0.890625q0 0.546875 -0.34375 0.890625q-0.34375 0.328125 -0.9375 0.328125zm8.096466 12.140625q-1.359375 0 -2.4375 -0.671875q-1.0625 -0.671875 -1.6875 -1.828125q-0.625 -1.15625 -0.625 -2.59375q0 -1.4375 0.625 -2.59375q0.625 -1.15625 1.6875 -1.828125q1.078125 -0.671875 2.4375 -0.671875q1.3125 0 2.375 0.53125q1.078125 0.53125 1.640625 1.453125l-1.0625 1.296875q-0.296875 -0.421875 -0.765625 -0.78125q-0.46875 -0.359375 -1.0 -0.5625q-0.515625 -0.203125 -1.0 -0.203125q-0.890625 0 -1.59375 0.4375q-0.703125 0.4375 -1.109375 1.203125q-0.40625 0.765625 -0.40625 1.71875q0 0.953125 0.421875 1.71875q0.4375 0.75 1.140625 1.203125q0.703125 0.4375 1.5625 0.4375q0.515625 0 0.984375 -0.171875q0.46875 -0.171875 0.921875 -0.5q0.453125 -0.34375 0.84375 -0.828125l1.0625 1.3125q-0.59375 0.84375 -1.703125 1.390625q-1.109375 0.53125 -2.3125 0.53125zm9.590485 0q-1.203125 0 -2.203125 -0.671875q-1.0 -0.671875 -1.609375 -1.828125q-0.59375 -1.15625 -0.59375 -2.609375q0 -1.484375 0.609375 -2.625q0.609375 -1.140625 1.640625 -1.796875q1.046875 -0.65625 2.328125 -0.65625q0.765625 0 1.390625 0.234375q0.640625 0.21875 1.109375 0.625q0.484375 0.390625 0.78125 0.921875q0.3125 0.515625 0.390625 1.109375l-0.421875 -0.140625l0 -2.546875l1.9375 0l0 9.796875l-1.9375 0l0 -2.328125l0.4375 -0.140625q-0.109375 0.515625 -0.453125 1.0q-0.34375 0.46875 -0.875 0.84375q-0.53125 0.359375 -1.171875 0.59375q-0.640625 0.21875 -1.359375 0.21875zm0.5 -1.765625q0.890625 0 1.546875 -0.421875q0.671875 -0.4375 1.046875 -1.1875q0.390625 -0.765625 0.390625 -1.734375q0 -0.953125 -0.390625 -1.703125q-0.375 -0.75 -1.046875 -1.171875q-0.65625 -0.4375 -1.546875 -0.4375q-0.859375 0 -1.515625 0.4375q-0.65625 0.421875 -1.046875 1.171875q-0.375 0.75 -0.375 1.703125q0 0.96875 0.375 1.734375q0.390625 0.75 1.046875 1.1875q0.65625 0.421875 1.515625 0.421875zm8.762512 1.578125l0 -12.296875l1.921875 0l0 12.296875l-1.921875 0zm-2.046875 -7.921875l0 -1.875l6.234375 0l0 1.875l-6.234375 0zm8.304626 7.921875l0 -9.796875l1.921875 0l0 9.796875l-1.921875 0zm0.9375 -11.953125q-0.609375 0 -0.953125 -0.3125q-0.328125 -0.328125 -0.328125 -0.90625q0 -0.546875 0.34375 -0.875q0.34375 -0.34375 0.9375 -0.34375q0.609375 0 0.9375 0.328125q0.34375 0.3125 0.34375 0.890625q0 0.546875 -0.34375 0.890625q-0.34375 0.328125 -0.9375 0.328125zm8.342682 12.140625q-1.4375 0 -2.578125 -0.65625q-1.125 -0.671875 -1.78125 -1.8125q-0.640625 -1.15625 -0.640625 -2.625q0 -1.46875 0.640625 -2.609375q0.65625 -1.15625 1.78125 -1.8125q1.140625 -0.671875 2.578125 -0.671875q1.40625 0 2.53125 0.671875q1.140625 0.65625 1.796875 1.8125q0.65625 1.140625 0.65625 2.609375q0 1.46875 -0.65625 2.625q-0.65625 1.140625 -1.796875 1.8125q-1.125 0.65625 -2.53125 0.65625zm0 -1.75q0.875 0 1.5625 -0.4375q0.6875 -0.4375 1.078125 -1.1875q0.390625 -0.765625 0.375 -1.71875q0.015625 -0.96875 -0.375 -1.71875q-0.390625 -0.765625 -1.078125 -1.1875q-0.6875 -0.4375 -1.5625 -0.4375q-0.875 0 -1.578125 0.4375q-0.703125 0.4375 -1.09375 1.203125q-0.390625 0.75 -0.375 1.703125q-0.015625 0.953125 0.375 1.71875q0.390625 0.75 1.09375 1.1875q0.703125 0.4375 1.578125 0.4375zm7.0673523 1.5625l0 -9.796875l1.921875 0l0 2.015625l-0.34375 0.21875q0.1875 -0.640625 0.734375 -1.1875q0.546875 -0.5625 1.28125 -0.90625q0.75 -0.34375 1.53125 -0.34375q1.125 0 1.859375 0.4375q0.75 0.4375 1.125 1.34375q0.375 0.890625 0.375 2.25l0 5.96875l-1.921875 0l0 -5.84375q0 -0.828125 -0.21875 -1.375q-0.21875 -0.5625 -0.6875 -0.8125q-0.46875 -0.25 -1.15625 -0.21875q-0.5625 0 -1.03125 0.1875q-0.46875 0.171875 -0.8125 0.5q-0.34375 0.3125 -0.546875 0.734375q-0.1875 0.40625 -0.1875 0.890625l0 5.9375l-0.953125 0q-0.234375 0 -0.484375 0q-0.25 0 -0.484375 0zm11.303589 3.34375l-0.703125 -0.859375q0.640625 -0.375 1.046875 -0.859375q0.421875 -0.484375 0.421875 -0.84375q0 -0.1875 -0.09375 -0.359375q-0.09375 -0.171875 -0.390625 -0.5q-0.375 -0.34375 -0.484375 -0.59375q-0.109375 -0.25 -0.109375 -0.515625q0 -0.453125 0.3125 -0.71875q0.3125 -0.28125 0.828125 -0.28125q0.453125 0 0.828125 0.28125q0.390625 0.265625 0.609375 0.75q0.21875 0.46875 0.21875 1.078125q0 0.5625 -0.1875 1.078125q-0.1875 0.53125 -0.53125 0.96875q-0.328125 0.453125 -0.78125 0.8125q-0.4375 0.359375 -0.984375 0.5625zm0.90625 -10.53125q-0.609375 0 -0.953125 -0.359375q-0.328125 -0.359375 -0.328125 -1.03125q0 -0.625 0.34375 -1.015625q0.359375 -0.390625 0.9375 -0.390625q0.625 0 0.953125 0.375q0.34375 0.359375 0.34375 1.03125q0 0.609375 -0.359375 1.0q-0.359375 0.390625 -0.9375 0.390625z" fill-rule="nonzero"/><path fill="#595959" d="m89.05616 245.87144l0 -2.671875l2.203125 0l0 -7.71875l-2.203125 0l0 -2.671875l7.59375 0l0 2.671875l-2.21875 0l0 7.71875l2.21875 0l0 2.671875l-7.59375 0zm14.057343 0.203125q-1.296875 0 -2.296875 -0.65625q-0.984375 -0.671875 -1.5625 -1.828125q-0.578125 -1.171875 -0.578125 -2.65625q0 -1.5 0.578125 -2.65625q0.578125 -1.171875 1.578125 -1.84375q1.015625 -0.671875 2.3125 -0.671875q0.671875 0 1.28125 0.203125q0.625 0.203125 1.125 0.5625q0.5 0.34375 0.8125 0.8125q0.328125 0.453125 0.390625 0.9375l-0.71875 0.171875l0 -6.390625l3.0 0l0 13.8125l-2.765625 0l-0.171875 -2.25l0.59375 0.078125q-0.0625 0.46875 -0.375 0.90625q-0.296875 0.421875 -0.78125 0.75q-0.484375 0.328125 -1.109375 0.515625q-0.625 0.203125 -1.3125 0.203125zm0.765625 -2.484375q0.6875 0 1.1875 -0.328125q0.5 -0.34375 0.765625 -0.9375q0.28125 -0.59375 0.28125 -1.390625q0 -0.828125 -0.28125 -1.421875q-0.265625 -0.59375 -0.765625 -0.921875q-0.5 -0.34375 -1.1875 -0.34375q-0.6875 0 -1.1875 0.34375q-0.5 0.328125 -0.78125 0.921875q-0.28125 0.59375 -0.28125 1.421875q0 0.796875 0.28125 1.390625q0.28125 0.59375 0.78125 0.9375q0.5 0.328125 1.1875 0.328125zm12.404312 2.46875q-1.640625 0 -2.859375 -0.65625q-1.203125 -0.671875 -1.875 -1.8125q-0.671875 -1.15625 -0.671875 -2.625q0 -1.140625 0.359375 -2.09375q0.375 -0.953125 1.046875 -1.640625q0.671875 -0.703125 1.59375 -1.078125q0.9375 -0.390625 2.03125 -0.390625q1.046875 0 1.90625 0.375q0.875 0.375 1.5 1.046875q0.640625 0.671875 0.96875 1.59375q0.34375 0.90625 0.3125 1.984375l-0.03125 0.796875l-7.890625 0l-0.421875 -1.671875l5.890625 0l-0.3125 0.34375l0 -0.359375q-0.03125 -0.46875 -0.296875 -0.828125q-0.25 -0.375 -0.65625 -0.578125q-0.40625 -0.203125 -0.9375 -0.203125q-0.71875 0 -1.234375 0.296875q-0.515625 0.28125 -0.78125 0.828125q-0.25 0.546875 -0.25 1.359375q0 0.8125 0.34375 1.421875q0.34375 0.609375 1.0 0.953125q0.671875 0.328125 1.578125 0.328125q0.640625 0 1.125 -0.1875q0.5 -0.1875 1.078125 -0.640625l1.40625 1.984375q-0.578125 0.5 -1.234375 0.828125q-0.65625 0.3125 -1.34375 0.46875q-0.671875 0.15625 -1.34375 0.15625zm9.870071 -0.015625q-1.25 0 -2.234375 -0.65625q-0.984375 -0.671875 -1.5625 -1.828125q-0.578125 -1.171875 -0.578125 -2.65625q0 -1.5 0.578125 -2.65625q0.578125 -1.15625 1.578125 -1.8125q1.015625 -0.671875 2.3125 -0.671875q0.703125 0 1.28125 0.203125q0.5937576 0.203125 1.0468826 0.578125q0.453125 0.359375 0.765625 0.84375q0.31248474 0.46875 0.46873474 1.0l-0.62498474 -0.078125l0 -2.34375l2.9687347 0l0 9.90625l-3.0156097 0l0 -2.390625l0.67185974 -0.015625q-0.15625 0.515625 -0.49998474 0.984375q-0.328125 0.46875 -0.8125 0.828125q-0.484375 0.34375 -1.0781326 0.5625q-0.59375 0.203125 -1.265625 0.203125zm0.8125 -2.515625q0.703125 0 1.2031326 -0.3125q0.5 -0.328125 0.78125 -0.90625q0.28125 -0.59375 0.28125 -1.40625q0 -0.796875 -0.28125 -1.375q-0.28125 -0.59375 -0.78125 -0.921875q-0.5000076 -0.328125 -1.2031326 -0.328125q-0.671875 0 -1.171875 0.328125q-0.484375 0.328125 -0.765625 0.921875q-0.28125 0.578125 -0.28125 1.375q0 0.8125 0.28125 1.40625q0.28125 0.578125 0.765625 0.90625q0.5 0.3125 1.171875 0.3125zm7.8413315 2.34375l0 -13.8125l2.984375 0l0 13.8125l-2.984375 0z" fill-rule="nonzero"/><path fill="#000000" fill-opacity="0.0" d="m303.5761 208.80183l238.14172 0l0 38.29921l-238.14172 0z" fill-rule="evenodd"/><path fill="#595959" d="m320.79315 223.47145l0 -13.0625l5.5625 0q1.109375 0 2.046875 0.5625q0.953125 0.546875 1.515625 1.484375q0.5625 0.9375 0.5625 2.109375q0 1.078125 -0.5625 2.0q-0.5625 0.90625 -1.5 1.453125q-0.921875 0.546875 -2.0625 0.546875l-3.546875 0l0 4.90625l-2.015625 0zm7.765625 0l-3.328125 -5.890625l2.078125 -0.46875l3.6875 6.375l-2.4375 -0.015625zm-5.75 -6.84375l3.734375 0q0.53125 0 0.953125 -0.265625q0.4375 -0.28125 0.671875 -0.75q0.25 -0.484375 0.25 -1.0625q0 -0.65625 -0.3125 -1.140625q-0.296875 -0.5 -0.84375 -0.78125q-0.546875 -0.28125 -1.25 -0.28125l-3.203125 0l0 4.28125zm13.858398 7.03125q-1.203125 0 -2.203125 -0.671875q-1.0 -0.671875 -1.609375 -1.828125q-0.59375 -1.15625 -0.59375 -2.609375q0 -1.484375 0.609375 -2.625q0.609375 -1.140625 1.640625 -1.796875q1.046875 -0.65625 2.328125 -0.65625q0.765625 0 1.390625 0.234375q0.640625 0.21875 1.109375 0.625q0.484375 0.390625 0.78125 0.921875q0.3125 0.515625 0.390625 1.109375l-0.421875 -0.140625l0 -2.546875l1.9375 0l0 9.796875l-1.9375 0l0 -2.328125l0.4375 -0.140625q-0.109375 0.515625 -0.453125 1.0q-0.34375 0.46875 -0.875 0.84375q-0.53125 0.359375 -1.171875 0.59375q-0.640625 0.21875 -1.359375 0.21875zm0.5 -1.765625q0.890625 0 1.546875 -0.421875q0.671875 -0.4375 1.046875 -1.1875q0.390625 -0.765625 0.390625 -1.734375q0 -0.953125 -0.390625 -1.703125q-0.375 -0.75 -1.046875 -1.171875q-0.65625 -0.4375 -1.546875 -0.4375q-0.859375 0 -1.515625 0.4375q-0.65625 0.421875 -1.046875 1.171875q-0.375 0.75 -0.375 1.703125q0 0.96875 0.375 1.734375q0.390625 0.75 1.046875 1.1875q0.65625 0.421875 1.515625 0.421875zm7.543762 1.578125l0 -9.796875l1.921875 0l0 2.015625l-0.34375 0.21875q0.1875 -0.640625 0.734375 -1.1875q0.546875 -0.5625 1.28125 -0.90625q0.75 -0.34375 1.53125 -0.34375q1.125 0 1.859375 0.4375q0.75 0.4375 1.125 1.34375q0.375 0.890625 0.375 2.25l0 5.96875l-1.921875 0l0 -5.84375q0 -0.828125 -0.21875 -1.375q-0.21875 -0.5625 -0.6875 -0.8125q-0.46875 -0.25 -1.15625 -0.21875q-0.5625 0 -1.03125 0.1875q-0.46875 0.171875 -0.8125 0.5q-0.34375 0.3125 -0.546875 0.734375q-0.1875 0.40625 -0.1875 0.890625l0 5.9375l-0.953125 0q-0.234375 0 -0.484375 0q-0.25 0 -0.484375 0zm15.178589 0.1875q-1.34375 0 -2.390625 -0.65625q-1.046875 -0.671875 -1.671875 -1.8125q-0.609375 -1.15625 -0.609375 -2.625q0 -1.46875 0.59375 -2.609375q0.609375 -1.15625 1.65625 -1.8125q1.046875 -0.671875 2.375 -0.671875q0.71875 0 1.40625 0.234375q0.6875 0.234375 1.21875 0.640625q0.546875 0.390625 0.84375 0.875q0.3125 0.46875 0.3125 0.953125l-0.5625 0.046875l0 -6.5625l1.921875 0l0 13.8125l-1.921875 0l0 -2.328125l0.375 0q0 0.4375 -0.296875 0.890625q-0.296875 0.4375 -0.796875 0.8125q-0.484375 0.359375 -1.140625 0.59375q-0.640625 0.21875 -1.3125 0.21875zm0.265625 -1.65625q0.875 0 1.546875 -0.453125q0.671875 -0.453125 1.046875 -1.21875q0.390625 -0.78125 0.390625 -1.765625q0 -0.984375 -0.390625 -1.75q-0.375 -0.78125 -1.046875 -1.234375q-0.671875 -0.453125 -1.546875 -0.453125q-0.875 0 -1.546875 0.453125q-0.671875 0.453125 -1.0625 1.234375q-0.375 0.765625 -0.375 1.75q0 0.984375 0.375 1.765625q0.390625 0.765625 1.0625 1.21875q0.671875 0.453125 1.546875 0.453125zm11.890564 1.65625q-1.4375 0 -2.578125 -0.65625q-1.125 -0.671875 -1.78125 -1.8125q-0.640625 -1.15625 -0.640625 -2.625q0 -1.46875 0.640625 -2.609375q0.65625 -1.15625 1.78125 -1.8125q1.140625 -0.671875 2.578125 -0.671875q1.40625 0 2.53125 0.671875q1.140625 0.65625 1.796875 1.8125q0.65625 1.140625 0.65625 2.609375q0 1.46875 -0.65625 2.625q-0.65625 1.140625 -1.796875 1.8125q-1.125 0.65625 -2.53125 0.65625zm0 -1.75q0.875 0 1.5625 -0.4375q0.6875 -0.4375 1.078125 -1.1875q0.390625 -0.765625 0.375 -1.71875q0.015625 -0.96875 -0.375 -1.71875q-0.390625 -0.765625 -1.078125 -1.1875q-0.6875 -0.4375 -1.5625 -0.4375q-0.875 0 -1.578125 0.4375q-0.703125 0.4375 -1.09375 1.203125q-0.390625 0.75 -0.375 1.703125q-0.015625 0.953125 0.375 1.71875q0.390625 0.75 1.09375 1.1875q0.703125 0.4375 1.578125 0.4375zm7.0361023 1.5625l0 -9.796875l1.9375 0l0 2.09375l-0.359375 0.21875q0.15625 -0.484375 0.46875 -0.921875q0.328125 -0.453125 0.796875 -0.796875q0.484375 -0.34375 1.03125 -0.546875q0.5625 -0.21875 1.140625 -0.21875q0.828125 0 1.46875 0.28125q0.640625 0.28125 1.046875 0.84375q0.40625 0.5625 0.59375 1.40625l-0.296875 -0.078125l0.125 -0.3125q0.21875 -0.4375 0.578125 -0.8125q0.359375 -0.390625 0.828125 -0.6875q0.46875 -0.296875 0.984375 -0.46875q0.53125 -0.171875 1.03125 -0.171875q1.09375 0 1.8125 0.453125q0.71875 0.453125 1.078125 1.375q0.375 0.90625 0.375 2.265625l0 5.875l-1.9375 0l0 -5.765625q0 -0.84375 -0.21875 -1.375q-0.21875 -0.53125 -0.65625 -0.78125q-0.421875 -0.265625 -1.09375 -0.265625q-0.515625 0 -0.984375 0.1875q-0.453125 0.171875 -0.796875 0.484375q-0.328125 0.3125 -0.515625 0.734375q-0.171875 0.421875 -0.171875 0.921875l0 5.859375l-1.953125 0l0 -5.796875q0 -0.765625 -0.21875 -1.296875q-0.21875 -0.53125 -0.65625 -0.8125q-0.421875 -0.28125 -1.046875 -0.28125q-0.515625 0 -0.96875 0.1875q-0.4375 0.171875 -0.78125 0.484375q-0.328125 0.296875 -0.515625 0.71875q-0.1875 0.421875 -0.1875 0.90625l0 5.890625l-1.9375 0zm28.218658 0.1875q-1.359375 0 -2.5 -0.484375q-1.140625 -0.484375 -1.984375 -1.390625q-0.828125 -0.90625 -1.296875 -2.140625q-0.453125 -1.234375 -0.453125 -2.703125q0 -1.390625 0.5 -2.59375q0.5 -1.203125 1.375 -2.109375q0.875 -0.921875 2.03125 -1.421875q1.15625 -0.515625 2.5 -0.515625q0.953125 0 1.859375 0.296875q0.90625 0.28125 1.640625 0.796875q0.734375 0.515625 1.203125 1.171875l-1.34375 1.390625q-0.546875 -0.546875 -1.09375 -0.90625q-0.546875 -0.359375 -1.125 -0.546875q-0.5625 -0.1875 -1.140625 -0.1875q-0.921875 0 -1.71875 0.34375q-0.78125 0.34375 -1.375 0.96875q-0.578125 0.609375 -0.921875 1.46875q-0.328125 0.84375 -0.328125 1.84375q0 1.0625 0.3125 1.9375q0.328125 0.859375 0.921875 1.484375q0.609375 0.609375 1.4375 0.9375q0.828125 0.328125 1.84375 0.328125q0.609375 0 1.203125 -0.171875q0.59375 -0.171875 1.109375 -0.484375q0.53125 -0.3125 0.96875 -0.75l1.0 1.640625q-0.421875 0.515625 -1.171875 0.921875q-0.734375 0.40625 -1.640625 0.640625q-0.890625 0.234375 -1.8125 0.234375zm6.9176025 -0.1875l0 -13.8125l1.921875 0l0 13.8125l-1.921875 0zm8.230438 0.1875q-1.203125 0 -2.203125 -0.671875q-1.0 -0.671875 -1.609375 -1.828125q-0.59375 -1.15625 -0.59375 -2.609375q0 -1.484375 0.609375 -2.625q0.609375 -1.140625 1.640625 -1.796875q1.046875 -0.65625 2.328125 -0.65625q0.765625 0 1.390625 0.234375q0.640625 0.21875 1.109375 0.625q0.484375 0.390625 0.78125 0.921875q0.3125 0.515625 0.390625 1.109375l-0.421875 -0.140625l0 -2.546875l1.9375 0l0 9.796875l-1.9375 0l0 -2.328125l0.4375 -0.140625q-0.109375 0.515625 -0.453125 1.0q-0.34375 0.46875 -0.875 0.84375q-0.53125 0.359375 -1.171875 0.59375q-0.640625 0.21875 -1.359375 0.21875zm0.5 -1.765625q0.890625 0 1.546875 -0.421875q0.671875 -0.4375 1.046875 -1.1875q0.390625 -0.765625 0.390625 -1.734375q0 -0.953125 -0.390625 -1.703125q-0.375 -0.75 -1.046875 -1.171875q-0.65625 -0.4375 -1.546875 -0.4375q-0.859375 0 -1.515625 0.4375q-0.65625 0.421875 -1.046875 1.171875q-0.375 0.75 -0.375 1.703125q0 0.96875 0.375 1.734375q0.390625 0.75 1.046875 1.1875q0.65625 0.421875 1.515625 0.421875zm10.809418 1.765625q-1.234375 0 -2.21875 -0.421875q-0.984375 -0.4375 -1.640625 -1.28125l1.296875 -1.109375q0.5625 0.640625 1.21875 0.9375q0.671875 0.28125 1.515625 0.28125q0.328125 0 0.609375 -0.078125q0.296875 -0.078125 0.515625 -0.25q0.21875 -0.171875 0.328125 -0.40625q0.109375 -0.234375 0.109375 -0.515625q0 -0.484375 -0.359375 -0.78125q-0.1875 -0.125 -0.59375 -0.28125q-0.390625 -0.15625 -1.03125 -0.328125q-1.078125 -0.28125 -1.765625 -0.625q-0.6875 -0.359375 -1.0625 -0.8125q-0.28125 -0.359375 -0.421875 -0.765625q-0.125 -0.421875 -0.125 -0.9375q0 -0.609375 0.265625 -1.125q0.28125 -0.515625 0.75 -0.890625q0.484375 -0.390625 1.125 -0.59375q0.640625 -0.203125 1.375 -0.203125q0.6875 0 1.359375 0.1875q0.6875 0.1875 1.265625 0.546875q0.578125 0.34375 0.96875 0.828125l-1.09375 1.21875q-0.359375 -0.359375 -0.78125 -0.625q-0.421875 -0.265625 -0.859375 -0.40625q-0.421875 -0.15625 -0.765625 -0.15625q-0.390625 0 -0.71875 0.078125q-0.3125 0.0625 -0.53125 0.21875q-0.203125 0.140625 -0.328125 0.375q-0.109375 0.21875 -0.109375 0.5q0.015625 0.234375 0.125 0.453125q0.109375 0.21875 0.296875 0.359375q0.203125 0.15625 0.609375 0.328125q0.40625 0.15625 1.046875 0.3125q0.921875 0.234375 1.53125 0.53125q0.609375 0.28125 0.96875 0.65625q0.375 0.359375 0.515625 0.828125q0.15625 0.46875 0.15625 1.046875q0 0.828125 -0.484375 1.5q-0.46875 0.65625 -1.28125 1.03125q-0.796875 0.375 -1.78125 0.375zm8.93634 0q-1.234375 0 -2.21875 -0.421875q-0.984375 -0.4375 -1.640625 -1.28125l1.296875 -1.109375q0.5625 0.640625 1.21875 0.9375q0.671875 0.28125 1.515625 0.28125q0.328125 0 0.609375 -0.078125q0.296875 -0.078125 0.515625 -0.25q0.21875 -0.171875 0.328125 -0.40625q0.109375 -0.234375 0.109375 -0.515625q0 -0.484375 -0.359375 -0.78125q-0.1875 -0.125 -0.59375 -0.28125q-0.390625 -0.15625 -1.03125 -0.328125q-1.078125 -0.28125 -1.765625 -0.625q-0.6875 -0.359375 -1.0625 -0.8125q-0.28125 -0.359375 -0.421875 -0.765625q-0.125 -0.421875 -0.125 -0.9375q0 -0.609375 0.265625 -1.125q0.28125 -0.515625 0.75 -0.890625q0.484375 -0.390625 1.125 -0.59375q0.640625 -0.203125 1.375 -0.203125q0.6875 0 1.359375 0.1875q0.6875 0.1875 1.265625 0.546875q0.578125 0.34375 0.96875 0.828125l-1.09375 1.21875q-0.359375 -0.359375 -0.78125 -0.625q-0.421875 -0.265625 -0.859375 -0.40625q-0.421875 -0.15625 -0.765625 -0.15625q-0.390625 0 -0.71875 0.078125q-0.3125 0.0625 -0.53125 0.21875q-0.203125 0.140625 -0.328125 0.375q-0.109375 0.21875 -0.109375 0.5q0.015625 0.234375 0.125 0.453125q0.109375 0.21875 0.296875 0.359375q0.203125 0.15625 0.609375 0.328125q0.40625 0.15625 1.046875 0.3125q0.921875 0.234375 1.53125 0.53125q0.609375 0.28125 0.96875 0.65625q0.375 0.359375 0.515625 0.828125q0.15625 0.46875 0.15625 1.046875q0 0.828125 -0.484375 1.5q-0.46875 0.65625 -1.28125 1.03125q-0.796875 0.375 -1.78125 0.375zm5.9832153 -0.1875l0 -9.796875l1.921875 0l0 9.796875l-1.921875 0zm0.9375 -11.953125q-0.609375 0 -0.953125 -0.3125q-0.328125 -0.328125 -0.328125 -0.90625q0 -0.546875 0.34375 -0.875q0.34375 -0.34375 0.9375 -0.34375q0.609375 0 0.9375 0.328125q0.34375 0.3125 0.34375 0.890625q0 0.546875 -0.34375 0.890625q-0.34375 0.328125 -0.9375 0.328125zm4.998932 11.953125l0 -10.890625q0 -0.84375 0.375 -1.5q0.375 -0.65625 1.015625 -1.015625q0.65625 -0.375 1.515625 -0.375q0.59375 0 1.109375 0.21875q0.53125 0.21875 0.859375 0.59375l-0.65625 1.46875q-0.25 -0.21875 -0.546875 -0.359375q-0.28125 -0.140625 -0.53125 -0.140625q-0.390625 0 -0.671875 0.125q-0.265625 0.125 -0.40625 0.375q-0.125 0.25 -0.125 0.609375l0 10.890625l-0.96875 0q-0.234375 0 -0.484375 0q-0.234375 0 -0.484375 0zm-1.5625 -7.859375l0 -1.765625l5.8125 0l0 1.765625l-5.8125 0zm8.140625 7.859375l0 -9.796875l1.921875 0l0 9.796875l-1.921875 0zm0.9375 -11.953125q-0.609375 0 -0.953125 -0.3125q-0.328125 -0.328125 -0.328125 -0.90625q0 -0.546875 0.34375 -0.875q0.34375 -0.34375 0.9375 -0.34375q0.609375 0 0.9375 0.328125q0.34375 0.3125 0.34375 0.890625q0 0.546875 -0.34375 0.890625q-0.34375 0.328125 -0.9375 0.328125zm8.096466 12.140625q-1.359375 0 -2.4375 -0.671875q-1.0625 -0.671875 -1.6875 -1.828125q-0.625 -1.15625 -0.625 -2.59375q0 -1.4375 0.625 -2.59375q0.625 -1.15625 1.6875 -1.828125q1.078125 -0.671875 2.4375 -0.671875q1.3125 0 2.375 0.53125q1.078125 0.53125 1.640625 1.453125l-1.0625 1.296875q-0.296875 -0.421875 -0.765625 -0.78125q-0.46875 -0.359375 -1.0 -0.5625q-0.515625 -0.203125 -1.0 -0.203125q-0.890625 0 -1.59375 0.4375q-0.703125 0.4375 -1.109375 1.203125q-0.40625 0.765625 -0.40625 1.71875q0 0.953125 0.421875 1.71875q0.4375 0.75 1.140625 1.203125q0.703125 0.4375 1.5625 0.4375q0.515625 0 0.984375 -0.171875q0.46875 -0.171875 0.921875 -0.5q0.453125 -0.34375 0.84375 -0.828125l1.0625 1.3125q-0.59375 0.84375 -1.703125 1.390625q-1.109375 0.53125 -2.3125 0.53125zm9.590454 0q-1.203125 0 -2.203125 -0.671875q-1.0 -0.671875 -1.609375 -1.828125q-0.59375 -1.15625 -0.59375 -2.609375q0 -1.484375 0.609375 -2.625q0.609375 -1.140625 1.640625 -1.796875q1.046875 -0.65625 2.328125 -0.65625q0.765625 0 1.390625 0.234375q0.640625 0.21875 1.109375 0.625q0.484375 0.390625 0.78125 0.921875q0.3125 0.515625 0.390625 1.109375l-0.421875 -0.140625l0 -2.546875l1.9375 0l0 9.796875l-1.9375 0l0 -2.328125l0.4375 -0.140625q-0.109375 0.515625 -0.453125 1.0q-0.34375 0.46875 -0.875 0.84375q-0.53125 0.359375 -1.171875 0.59375q-0.640625 0.21875 -1.359375 0.21875zm0.5 -1.765625q0.890625 0 1.546875 -0.421875q0.671875 -0.4375 1.046875 -1.1875q0.390625 -0.765625 0.390625 -1.734375q0 -0.953125 -0.390625 -1.703125q-0.375 -0.75 -1.046875 -1.171875q-0.65625 -0.4375 -1.546875 -0.4375q-0.859375 0 -1.515625 0.4375q-0.65625 0.421875 -1.046875 1.171875q-0.375 0.75 -0.375 1.703125q0 0.96875 0.375 1.734375q0.390625 0.75 1.046875 1.1875q0.65625 0.421875 1.515625 0.421875zm8.762543 1.578125l0 -12.296875l1.921875 0l0 12.296875l-1.921875 0zm-2.046875 -7.921875l0 -1.875l6.234375 0l0 1.875l-6.234375 0zm8.304626 7.921875l0 -9.796875l1.921875 0l0 9.796875l-1.921875 0zm0.9375 -11.953125q-0.609375 0 -0.953125 -0.3125q-0.328125 -0.328125 -0.328125 -0.90625q0 -0.546875 0.34375 -0.875q0.34375 -0.34375 0.9375 -0.34375q0.609375 0 0.9375 0.328125q0.34375 0.3125 0.34375 0.890625q0 0.546875 -0.34375 0.890625q-0.34375 0.328125 -0.9375 0.328125zm8.342682 12.140625q-1.4375 0 -2.578125 -0.65625q-1.125 -0.671875 -1.78125 -1.8125q-0.640625 -1.15625 -0.640625 -2.625q0 -1.46875 0.640625 -2.609375q0.65625 -1.15625 1.78125 -1.8125q1.140625 -0.671875 2.578125 -0.671875q1.40625 0 2.53125 0.671875q1.140625 0.65625 1.796875 1.8125q0.65625 1.140625 0.65625 2.609375q0 1.46875 -0.65625 2.625q-0.65625 1.140625 -1.796875 1.8125q-1.125 0.65625 -2.53125 0.65625zm0 -1.75q0.875 0 1.5625 -0.4375q0.6875 -0.4375 1.078125 -1.1875q0.390625 -0.765625 0.375 -1.71875q0.015625 -0.96875 -0.375 -1.71875q-0.390625 -0.765625 -1.078125 -1.1875q-0.6875 -0.4375 -1.5625 -0.4375q-0.875 0 -1.578125 0.4375q-0.703125 0.4375 -1.09375 1.203125q-0.390625 0.75 -0.375 1.703125q-0.015625 0.953125 0.375 1.71875q0.390625 0.75 1.09375 1.1875q0.703125 0.4375 1.578125 0.4375zm7.0673523 1.5625l0 -9.796875l1.9218445 0l0 2.015625l-0.34375 0.21875q0.1875 -0.640625 0.734375 -1.1875q0.546875 -0.5625 1.28125 -0.90625q0.75 -0.34375 1.53125 -0.34375q1.125 0 1.859375 0.4375q0.75 0.4375 1.125 1.34375q0.375 0.890625 0.375 2.25l0 5.96875l-1.921875 0l0 -5.84375q0 -0.828125 -0.21875 -1.375q-0.21875 -0.5625 -0.6875 -0.8125q-0.46875 -0.25 -1.15625 -0.21875q-0.5625 0 -1.03125 0.1875q-0.46875 0.171875 -0.8125 0.5q-0.34375 0.3125 -0.546875 0.734375q-0.1875 0.40625 -0.1875 0.890625l0 5.9375l-0.953125 0q-0.234375 0 -0.484375 0q-0.24996948 0 -0.48434448 0zm11.303558 3.34375l-0.703125 -0.859375q0.640625 -0.375 1.046875 -0.859375q0.421875 -0.484375 0.421875 -0.84375q0 -0.1875 -0.09375 -0.359375q-0.09375 -0.171875 -0.390625 -0.5q-0.375 -0.34375 -0.484375 -0.59375q-0.109375 -0.25 -0.109375 -0.515625q0 -0.453125 0.3125 -0.71875q0.3125 -0.28125 0.828125 -0.28125q0.453125 0 0.828125 0.28125q0.390625 0.265625 0.609375 0.75q0.21875 0.46875 0.21875 1.078125q0 0.5625 -0.1875 1.078125q-0.1875 0.53125 -0.53125 0.96875q-0.328125 0.453125 -0.78125 0.8125q-0.4375 0.359375 -0.984375 0.5625zm0.90625 -10.53125q-0.609375 0 -0.953125 -0.359375q-0.328125 -0.359375 -0.328125 -1.03125q0 -0.625 0.34375 -1.015625q0.359375 -0.390625 0.9375 -0.390625q0.625 0 0.953125 0.375q0.34375 0.359375 0.34375 1.03125q0 0.609375 -0.359375 1.0q-0.359375 0.390625 -0.9375 0.390625z" fill-rule="nonzero"/><path fill="#595959" d="m370.1565 245.87144l0 -13.0625l5.765625 0q1.34375 0 2.265625 0.390625q0.9375 0.375 1.40625 1.09375q0.484375 0.71875 0.484375 1.734375q0 1.109375 -0.546875 1.875q-0.546875 0.765625 -1.59375 1.03125l-0.03125 -0.359375q0.875 0.1875 1.515625 0.65625q0.640625 0.46875 0.984375 1.15625q0.359375 0.671875 0.359375 1.53125q0 0.984375 -0.34375 1.71875q-0.328125 0.734375 -0.96875 1.25q-0.625 0.5 -1.46875 0.75q-0.84375 0.234375 -1.875 0.234375l-5.953125 0zm2.984375 -2.65625l2.859375 0q0.515625 0 0.875 -0.15625q0.375 -0.171875 0.578125 -0.5q0.203125 -0.328125 0.203125 -0.796875q0 -0.421875 -0.21875 -0.71875q-0.203125 -0.296875 -0.609375 -0.453125q-0.390625 -0.171875 -0.921875 -0.171875l-2.765625 0l0 2.796875zm0 -5.15625l2.328125 0q0.484375 0 0.828125 -0.15625q0.359375 -0.171875 0.53125 -0.453125q0.171875 -0.296875 0.171875 -0.703125q0 -0.59375 -0.40625 -0.9375q-0.40625 -0.34375 -1.234375 -0.34375l-2.21875 0l0 2.59375zm14.481232 8.0q-1.640625 0 -2.859375 -0.65625q-1.203125 -0.671875 -1.875 -1.8125q-0.671875 -1.15625 -0.671875 -2.625q0 -1.140625 0.359375 -2.09375q0.375 -0.953125 1.046875 -1.640625q0.671875 -0.703125 1.59375 -1.078125q0.9375 -0.390625 2.03125 -0.390625q1.046875 0 1.90625 0.375q0.875 0.375 1.5 1.046875q0.640625 0.671875 0.96875 1.59375q0.34375 0.90625 0.3125 1.984375l-0.03125 0.796875l-7.890625 0l-0.421875 -1.671875l5.890625 0l-0.3125 0.34375l0 -0.359375q-0.03125 -0.46875 -0.296875 -0.828125q-0.25 -0.375 -0.65625 -0.578125q-0.40625 -0.203125 -0.9375 -0.203125q-0.71875 0 -1.234375 0.296875q-0.515625 0.28125 -0.78125 0.828125q-0.25 0.546875 -0.25 1.359375q0 0.8125 0.34375 1.421875q0.34375 0.609375 1.0 0.953125q0.671875 0.328125 1.578125 0.328125q0.640625 0 1.125 -0.1875q0.5 -0.1875 1.078125 -0.640625l1.40625 1.984375q-0.578125 0.5 -1.234375 0.828125q-0.65625 0.3125 -1.34375 0.46875q-0.671875 0.15625 -1.34375 0.15625zm6.2138367 -0.1875l0 -9.90625l2.828125 0l0.09375 2.015625l-0.59375 0.21875q0.203125 -0.671875 0.734375 -1.21875q0.53125 -0.546875 1.28125 -0.875q0.75 -0.34375 1.5625 -0.34375q1.125 0 1.890625 0.453125q0.765625 0.453125 1.15625 1.359375q0.390625 0.90625 0.390625 2.21875l0 6.078125l-3.0 0l0 -5.84375q0 -0.59375 -0.171875 -0.984375q-0.171875 -0.390625 -0.515625 -0.578125q-0.34375 -0.203125 -0.84375 -0.1875q-0.390625 0 -0.734375 0.125q-0.328125 0.125 -0.578125 0.359375q-0.234375 0.21875 -0.375 0.53125q-0.140625 0.296875 -0.140625 0.640625l0 5.9375l-1.484375 0q-0.515625 0 -0.890625 0q-0.375 0 -0.609375 0zm16.19046 0.1875q-1.4375 0 -2.578125 -0.671875q-1.140625 -0.671875 -1.796875 -1.828125q-0.65625 -1.171875 -0.65625 -2.65625q0 -1.46875 0.65625 -2.625q0.65625 -1.171875 1.796875 -1.84375q1.140625 -0.671875 2.578125 -0.671875q1.328125 0 2.4375 0.46875q1.109375 0.46875 1.765625 1.296875l-1.625 1.9375q-0.265625 -0.296875 -0.625 -0.546875q-0.34375 -0.265625 -0.78125 -0.40625q-0.421875 -0.15625 -0.890625 -0.15625q-0.703125 0 -1.25 0.328125q-0.546875 0.328125 -0.84375 0.90625q-0.296875 0.578125 -0.296875 1.3125q0 0.71875 0.296875 1.296875q0.3125 0.578125 0.859375 0.921875q0.546875 0.328125 1.234375 0.328125q0.484375 0 0.890625 -0.125q0.40625 -0.125 0.75 -0.359375q0.359375 -0.25 0.65625 -0.59375l1.59375 1.953125q-0.625 0.796875 -1.765625 1.265625q-1.125 0.46875 -2.40625 0.46875zm5.8239136 -0.1875l0 -13.8125l2.921875 0l0 5.921875l-0.59375 0.21875q0.203125 -0.671875 0.734375 -1.21875q0.53125 -0.546875 1.28125 -0.875q0.75 -0.34375 1.5625 -0.34375q1.125 0 1.890625 0.453125q0.765625 0.453125 1.15625 1.359375q0.390625 0.90625 0.390625 2.21875l0 6.078125l-3.0 0l0 -5.84375q0 -0.59375 -0.171875 -0.984375q-0.171875 -0.390625 -0.515625 -0.578125q-0.34375 -0.203125 -0.84375 -0.1875q-0.390625 0 -0.734375 0.125q-0.328125 0.125 -0.578125 0.359375q-0.234375 0.21875 -0.375 0.53125q-0.140625 0.296875 -0.140625 0.640625l0 5.9375l-1.484375 0q-0.515625 0 -0.890625 0q-0.375 0 -0.609375 0zm11.831116 0l0 -9.90625l2.828125 0l0.09375 1.796875l-0.390625 0.015625q0.21875 -0.484375 0.5625 -0.859375q0.34375 -0.375 0.78125 -0.625q0.453125 -0.25 0.921875 -0.375q0.46875 -0.140625 0.96875 -0.140625q0.71875 0 1.3125 0.234375q0.609375 0.21875 1.046875 0.71875q0.453125 0.484375 0.71875 1.328125l-0.46875 -0.046875l0.140625 -0.296875q0.25 -0.4375 0.625 -0.796875q0.390625 -0.375 0.84375 -0.625q0.46875 -0.25 0.96875 -0.375q0.515625 -0.140625 0.984375 -0.140625q1.171875 0 1.953125 0.46875q0.78125 0.453125 1.1875 1.375q0.40625 0.90625 0.40625 2.203125l0 6.046875l-3.015625 0l0 -5.796875q0 -0.609375 -0.171875 -1.0q-0.15625 -0.390625 -0.484375 -0.578125q-0.328125 -0.203125 -0.8125 -0.203125q-0.390625 0 -0.71875 0.140625q-0.328125 0.125 -0.5625 0.359375q-0.234375 0.21875 -0.359375 0.515625q-0.125 0.296875 -0.125 0.671875l0 5.890625l-3.015625 0l0 -5.828125q0 -0.546875 -0.171875 -0.9375q-0.15625 -0.390625 -0.5 -0.59375q-0.328125 -0.21875 -0.78125 -0.21875q-0.390625 0 -0.71875 0.140625q-0.328125 0.125 -0.5625 0.359375q-0.21875 0.21875 -0.359375 0.515625q-0.125 0.296875 -0.125 0.65625l0 5.90625l-3.0 0zm21.619171 0.171875q-1.25 0 -2.234375 -0.65625q-0.984375 -0.671875 -1.5625 -1.828125q-0.578125 -1.171875 -0.578125 -2.65625q0 -1.5 0.578125 -2.65625q0.578125 -1.15625 1.578125 -1.8125q1.015625 -0.671875 2.3125 -0.671875q0.703125 0 1.28125 0.203125q0.59375 0.203125 1.046875 0.578125q0.453125 0.359375 0.765625 0.84375q0.3125 0.46875 0.46875 1.0l-0.625 -0.078125l0 -2.34375l2.96875 0l0 9.90625l-3.015625 0l0 -2.390625l0.671875 -0.015625q-0.15625 0.515625 -0.5 0.984375q-0.328125 0.46875 -0.8125 0.828125q-0.484375 0.34375 -1.078125 0.5625q-0.59375 0.203125 -1.265625 0.203125zm0.8125 -2.515625q0.703125 0 1.203125 -0.3125q0.5 -0.328125 0.78125 -0.90625q0.28125 -0.59375 0.28125 -1.40625q0 -0.796875 -0.28125 -1.375q-0.28125 -0.59375 -0.78125 -0.921875q-0.5 -0.328125 -1.203125 -0.328125q-0.671875 0 -1.171875 0.328125q-0.484375 0.328125 -0.765625 0.921875q-0.28125 0.578125 -0.28125 1.375q0 0.8125 0.28125 1.40625q0.28125 0.578125 0.765625 0.90625q0.5 0.3125 1.171875 0.3125zm7.825714 2.34375l0 -9.90625l2.828125 0l0.140625 3.234375l-0.5625 -0.625q0.21875 -0.796875 0.734375 -1.421875q0.515625 -0.640625 1.203125 -1.015625q0.6875 -0.375 1.46875 -0.375q0.34375 0 0.625 0.0625q0.296875 0.046875 0.53125 0.125l-0.8125 3.296875q-0.203125 -0.125 -0.5625 -0.203125q-0.34375 -0.09375 -0.703125 -0.09375q-0.421875 0 -0.78125 0.140625q-0.34375 0.140625 -0.59375 0.40625q-0.234375 0.25 -0.375 0.609375q-0.140625 0.359375 -0.140625 0.796875l0 4.96875l-3.0 0zm11.363617 -2.90625l-1.109375 -2.25l4.625 -4.75l3.9375 0l-7.453125 7.0zm-2.875 2.90625l0 -13.8125l2.984375 0l0 13.8125l-2.984375 0zm6.71875 0l-3.5 -4.515625l2.109375 -1.640625l4.90625 6.15625l-3.515625 0z" fill-rule="nonzero"/><path fill="#000000" fill-opacity="0.0" d="m613.99603 208.80052l260.75592 0l0 38.29921l-260.75592 0z" fill-rule="evenodd"/><path fill="#595959" d="m634.1716 223.47014l0 -13.0625l5.3125 0q1.0625 0 1.921875 0.53125q0.875 0.53125 1.390625 1.453125q0.53125 0.90625 0.53125 2.03125q0 1.125 -0.53125 2.046875q-0.515625 0.90625 -1.390625 1.453125q-0.859375 0.546875 -1.921875 0.546875l-3.296875 0l0 5.0l-2.015625 0zm2.015625 -6.9375l3.265625 0q0.5 0 0.90625 -0.28125q0.421875 -0.296875 0.671875 -0.765625q0.25 -0.484375 0.25 -1.0625q0 -0.578125 -0.25 -1.046875q-0.25 -0.46875 -0.671875 -0.75q-0.40625 -0.28125 -0.90625 -0.28125l-3.265625 0l0 4.1875zm13.703918 7.125q-1.5 0 -2.671875 -0.640625q-1.15625 -0.640625 -1.828125 -1.765625q-0.65625 -1.125 -0.65625 -2.578125q0 -1.15625 0.375 -2.109375q0.375 -0.953125 1.03125 -1.640625q0.65625 -0.703125 1.578125 -1.078125q0.9375 -0.390625 2.015625 -0.390625q0.953125 0 1.765625 0.359375q0.828125 0.359375 1.421875 1.0q0.609375 0.640625 0.9375 1.515625q0.328125 0.859375 0.3125 1.875l-0.015625 0.828125l-8.0 0l-0.4375 -1.53125l6.765625 0l-0.265625 0.3125l0 -0.4375q-0.0625 -0.625 -0.421875 -1.109375q-0.34375 -0.484375 -0.890625 -0.765625q-0.546875 -0.28125 -1.171875 -0.28125q-1.015625 0 -1.703125 0.390625q-0.6875 0.375 -1.046875 1.125q-0.34375 0.734375 -0.34375 1.8125q0 1.015625 0.421875 1.78125q0.421875 0.75 1.203125 1.171875q0.796875 0.40625 1.8125 0.40625q0.734375 0 1.359375 -0.234375q0.625 -0.25 1.359375 -0.890625l0.96875 1.359375q-0.453125 0.453125 -1.09375 0.796875q-0.640625 0.328125 -1.359375 0.53125q-0.71875 0.1875 -1.421875 0.1875zm6.370056 -0.1875l0 -9.796875l1.9375 0l0 3.078125l-0.1875 -0.75q0.203125 -0.703125 0.703125 -1.28125q0.5 -0.578125 1.140625 -0.90625q0.640625 -0.34375 1.328125 -0.34375q0.3125 0 0.59375 0.0625q0.296875 0.046875 0.46875 0.125l-0.5 2.09375q-0.21875 -0.09375 -0.5 -0.15625q-0.265625 -0.078125 -0.53125 -0.078125q-0.5 0 -0.953125 0.203125q-0.453125 0.1875 -0.8125 0.546875q-0.34375 0.34375 -0.546875 0.796875q-0.203125 0.453125 -0.203125 1.0l0 5.40625l-1.9375 0zm8.580933 0l0 -10.890625q0 -0.84375 0.375 -1.5q0.375 -0.65625 1.015625 -1.015625q0.65625 -0.375 1.515625 -0.375q0.59375 0 1.109375 0.21875q0.53125 0.21875 0.859375 0.59375l-0.65625 1.46875q-0.25 -0.21875 -0.546875 -0.359375q-0.28125 -0.140625 -0.53125 -0.140625q-0.390625 0 -0.671875 0.125q-0.265625 0.125 -0.40625 0.375q-0.125 0.25 -0.125 0.609375l0 10.890625l-0.96875 0q-0.234375 0 -0.484375 0q-0.234375 0 -0.484375 0zm-1.5625 -7.859375l0 -1.765625l5.8125 0l0 1.765625l-5.8125 0zm12.021118 8.046875q-1.5 0 -2.671875 -0.640625q-1.15625 -0.640625 -1.828125 -1.765625q-0.65625 -1.125 -0.65625 -2.578125q0 -1.15625 0.375 -2.109375q0.375 -0.953125 1.03125 -1.640625q0.65625 -0.703125 1.578125 -1.078125q0.9375 -0.390625 2.015625 -0.390625q0.953125 0 1.765625 0.359375q0.828125 0.359375 1.421875 1.0q0.609375 0.640625 0.9375 1.515625q0.328125 0.859375 0.3125 1.875l-0.015625 0.828125l-8.0 0l-0.4375 -1.53125l6.765625 0l-0.265625 0.3125l0 -0.4375q-0.0625 -0.625 -0.421875 -1.109375q-0.34375 -0.484375 -0.890625 -0.765625q-0.546875 -0.28125 -1.171875 -0.28125q-1.015625 0 -1.703125 0.390625q-0.6875 0.375 -1.046875 1.125q-0.34375 0.734375 -0.34375 1.8125q0 1.015625 0.421875 1.78125q0.421875 0.75 1.203125 1.171875q0.796875 0.40625 1.8125 0.40625q0.734375 0 1.359375 -0.234375q0.625 -0.25 1.359375 -0.890625l0.96875 1.359375q-0.453125 0.453125 -1.09375 0.796875q-0.640625 0.328125 -1.359375 0.53125q-0.71875 0.1875 -1.421875 0.1875zm10.526306 0q-1.359375 0 -2.4375 -0.671875q-1.0625 -0.671875 -1.6875 -1.828125q-0.625 -1.15625 -0.625 -2.59375q0 -1.4375 0.625 -2.59375q0.625 -1.15625 1.6875 -1.828125q1.078125 -0.671875 2.4375 -0.671875q1.3125 0 2.375 0.53125q1.078125 0.53125 1.640625 1.453125l-1.0625 1.296875q-0.296875 -0.421875 -0.765625 -0.78125q-0.46875 -0.359375 -1.0 -0.5625q-0.515625 -0.203125 -1.0 -0.203125q-0.890625 0 -1.59375 0.4375q-0.703125 0.4375 -1.109375 1.203125q-0.40625 0.765625 -0.40625 1.71875q0 0.953125 0.421875 1.71875q0.4375 0.75 1.140625 1.203125q0.703125 0.4375 1.5625 0.4375q0.515625 0 0.984375 -0.171875q0.46875 -0.171875 0.921875 -0.5q0.453125 -0.34375 0.84375 -0.828125l1.0625 1.3125q-0.59375 0.84375 -1.703125 1.390625q-1.109375 0.53125 -2.3125 0.53125zm7.043579 -0.1875l0 -12.296875l1.921875 0l0 12.296875l-1.921875 0zm-2.046875 -7.921875l0 -1.875l6.234375 0l0 1.875l-6.234375 0zm13.700256 7.921875l0 -13.0625l1.984375 0l4.75 7.75l-0.953125 -0.015625l4.8125 -7.734375l1.875 0l0 13.0625l-2.015625 0l0 -5.359375q0 -1.671875 0.078125 -3.015625q0.078125 -1.34375 0.296875 -2.671875l0.25 0.6875l-4.265625 6.609375l-1.234375 0l-4.140625 -6.53125l0.203125 -0.765625q0.203125 1.25 0.28125 2.578125q0.09375 1.3125 0.09375 3.109375l0 5.359375l-2.015625 0zm15.947144 0l0 -9.796875l1.921875 0l0 9.796875l-1.921875 0zm0.9375 -11.953125q-0.609375 0 -0.953125 -0.3125q-0.328125 -0.328125 -0.328125 -0.90625q0 -0.546875 0.34375 -0.875q0.34375 -0.34375 0.9375 -0.34375q0.609375 0 0.9375 0.328125q0.34375 0.3125 0.34375 0.890625q0 0.546875 -0.34375 0.890625q-0.34375 0.328125 -0.9375 0.328125zm7.2020264 12.140625q-1.234375 0 -2.21875 -0.421875q-0.984375 -0.4375 -1.640625 -1.28125l1.296875 -1.109375q0.5625 0.640625 1.21875 0.9375q0.671875 0.28125 1.515625 0.28125q0.328125 0 0.609375 -0.078125q0.296875 -0.078125 0.515625 -0.25q0.21875 -0.171875 0.328125 -0.40625q0.109375 -0.234375 0.109375 -0.515625q0 -0.484375 -0.359375 -0.78125q-0.1875 -0.125 -0.59375 -0.28125q-0.390625 -0.15625 -1.03125 -0.328125q-1.078125 -0.28125 -1.765625 -0.625q-0.6875 -0.359375 -1.0625 -0.8125q-0.28125 -0.359375 -0.421875 -0.765625q-0.125 -0.421875 -0.125 -0.9375q0 -0.609375 0.265625 -1.125q0.28125 -0.515625 0.75 -0.890625q0.484375 -0.390625 1.125 -0.59375q0.640625 -0.203125 1.375 -0.203125q0.6875 0 1.359375 0.1875q0.6875 0.1875 1.265625 0.546875q0.578125 0.34375 0.96875 0.828125l-1.09375 1.21875q-0.359375 -0.359375 -0.78125 -0.625q-0.421875 -0.265625 -0.859375 -0.40625q-0.421875 -0.15625 -0.765625 -0.15625q-0.390625 0 -0.71875 0.078125q-0.3125 0.0625 -0.53125 0.21875q-0.203125 0.140625 -0.328125 0.375q-0.109375 0.21875 -0.109375 0.5q0.015625 0.234375 0.125 0.453125q0.109375 0.21875 0.296875 0.359375q0.203125 0.15625 0.609375 0.328125q0.40625 0.15625 1.046875 0.3125q0.921875 0.234375 1.53125 0.53125q0.609375 0.28125 0.96875 0.65625q0.375 0.359375 0.515625 0.828125q0.15625 0.46875 0.15625 1.046875q0 0.828125 -0.484375 1.5q-0.46875 0.65625 -1.28125 1.03125q-0.796875 0.375 -1.78125 0.375zm9.826965 0q-1.359375 0 -2.4375 -0.671875q-1.0625 -0.671875 -1.6875 -1.828125q-0.625 -1.15625 -0.625 -2.59375q0 -1.4375 0.625 -2.59375q0.625 -1.15625 1.6875 -1.828125q1.078125 -0.671875 2.4375 -0.671875q1.3125 0 2.375 0.53125q1.078125 0.53125 1.640625 1.453125l-1.0625 1.296875q-0.296875 -0.421875 -0.765625 -0.78125q-0.46875 -0.359375 -1.0 -0.5625q-0.515625 -0.203125 -1.0 -0.203125q-0.890625 0 -1.59375 0.4375q-0.703125 0.4375 -1.109375 1.203125q-0.40625 0.765625 -0.40625 1.71875q0 0.953125 0.421875 1.71875q0.4375 0.75 1.140625 1.203125q0.703125 0.4375 1.5625 0.4375q0.515625 0 0.984375 -0.171875q0.46875 -0.171875 0.921875 -0.5q0.453125 -0.34375 0.84375 -0.828125l1.0625 1.3125q-0.59375 0.84375 -1.703125 1.390625q-1.109375 0.53125 -2.3125 0.53125zm5.856079 -0.1875l0 -13.8125l1.921875 0l0 13.8125l-1.921875 0zm8.230469 0.1875q-1.203125 0 -2.203125 -0.671875q-1.0 -0.671875 -1.609375 -1.828125q-0.59375 -1.15625 -0.59375 -2.609375q0 -1.484375 0.609375 -2.625q0.609375 -1.140625 1.640625 -1.796875q1.046875 -0.65625 2.328125 -0.65625q0.765625 0 1.390625 0.234375q0.640625 0.21875 1.109375 0.625q0.484375 0.390625 0.78125 0.921875q0.3125 0.515625 0.390625 1.109375l-0.421875 -0.140625l0 -2.546875l1.9375 0l0 9.796875l-1.9375 0l0 -2.328125l0.4375 -0.140625q-0.109375 0.515625 -0.453125 1.0q-0.34375 0.46875 -0.875 0.84375q-0.53125 0.359375 -1.171875 0.59375q-0.640625 0.21875 -1.359375 0.21875zm0.5 -1.765625q0.890625 0 1.546875 -0.421875q0.671875 -0.4375 1.046875 -1.1875q0.390625 -0.765625 0.390625 -1.734375q0 -0.953125 -0.390625 -1.703125q-0.375 -0.75 -1.046875 -1.171875q-0.65625 -0.4375 -1.546875 -0.4375q-0.859375 0 -1.515625 0.4375q-0.65625 0.421875 -1.046875 1.171875q-0.375 0.75 -0.375 1.703125q0 0.96875 0.375 1.734375q0.390625 0.75 1.046875 1.1875q0.65625 0.421875 1.515625 0.421875zm10.809387 1.765625q-1.234375 0 -2.21875 -0.421875q-0.984375 -0.4375 -1.640625 -1.28125l1.296875 -1.109375q0.5625 0.640625 1.21875 0.9375q0.671875 0.28125 1.515625 0.28125q0.328125 0 0.609375 -0.078125q0.296875 -0.078125 0.515625 -0.25q0.21875 -0.171875 0.328125 -0.40625q0.109375 -0.234375 0.109375 -0.515625q0 -0.484375 -0.359375 -0.78125q-0.1875 -0.125 -0.59375 -0.28125q-0.390625 -0.15625 -1.03125 -0.328125q-1.078125 -0.28125 -1.765625 -0.625q-0.6875 -0.359375 -1.0625 -0.8125q-0.28125 -0.359375 -0.421875 -0.765625q-0.125 -0.421875 -0.125 -0.9375q0 -0.609375 0.265625 -1.125q0.28125 -0.515625 0.75 -0.890625q0.484375 -0.390625 1.125 -0.59375q0.640625 -0.203125 1.375 -0.203125q0.6875 0 1.359375 0.1875q0.6875 0.1875 1.265625 0.546875q0.578125 0.34375 0.96875 0.828125l-1.09375 1.21875q-0.359375 -0.359375 -0.78125 -0.625q-0.421875 -0.265625 -0.859375 -0.40625q-0.421875 -0.15625 -0.765625 -0.15625q-0.390625 0 -0.71875 0.078125q-0.3125 0.0625 -0.53125 0.21875q-0.203125 0.140625 -0.328125 0.375q-0.109375 0.21875 -0.109375 0.5q0.015625 0.234375 0.125 0.453125q0.109375 0.21875 0.296875 0.359375q0.203125 0.15625 0.609375 0.328125q0.40625 0.15625 1.046875 0.3125q0.921875 0.234375 1.53125 0.53125q0.609375 0.28125 0.96875 0.65625q0.375 0.359375 0.515625 0.828125q0.15625 0.46875 0.15625 1.046875q0 0.828125 -0.484375 1.5q-0.46875 0.65625 -1.28125 1.03125q-0.796875 0.375 -1.78125 0.375zm8.93634 0q-1.234375 0 -2.21875 -0.421875q-0.984375 -0.4375 -1.640625 -1.28125l1.296875 -1.109375q0.5625 0.640625 1.21875 0.9375q0.671875 0.28125 1.515625 0.28125q0.328125 0 0.609375 -0.078125q0.296875 -0.078125 0.515625 -0.25q0.21875 -0.171875 0.328125 -0.40625q0.109375 -0.234375 0.109375 -0.515625q0 -0.484375 -0.359375 -0.78125q-0.1875 -0.125 -0.59375 -0.28125q-0.390625 -0.15625 -1.03125 -0.328125q-1.078125 -0.28125 -1.765625 -0.625q-0.6875 -0.359375 -1.0625 -0.8125q-0.28125 -0.359375 -0.421875 -0.765625q-0.125 -0.421875 -0.125 -0.9375q0 -0.609375 0.265625 -1.125q0.28125 -0.515625 0.75 -0.890625q0.484375 -0.390625 1.125 -0.59375q0.640625 -0.203125 1.375 -0.203125q0.6875 0 1.359375 0.1875q0.6875 0.1875 1.265625 0.546875q0.578125 0.34375 0.96875 0.828125l-1.09375 1.21875q-0.359375 -0.359375 -0.78125 -0.625q-0.421875 -0.265625 -0.859375 -0.40625q-0.421875 -0.15625 -0.765625 -0.15625q-0.390625 0 -0.71875 0.078125q-0.3125 0.0625 -0.53125 0.21875q-0.203125 0.140625 -0.328125 0.375q-0.109375 0.21875 -0.109375 0.5q0.015625 0.234375 0.125 0.453125q0.109375 0.21875 0.296875 0.359375q0.203125 0.15625 0.609375 0.328125q0.40625 0.15625 1.046875 0.3125q0.921875 0.234375 1.53125 0.53125q0.609375 0.28125 0.96875 0.65625q0.375 0.359375 0.515625 0.828125q0.15625 0.46875 0.15625 1.046875q0 0.828125 -0.484375 1.5q-0.46875 0.65625 -1.28125 1.03125q-0.796875 0.375 -1.78125 0.375zm5.9832153 -0.1875l0 -9.796875l1.921875 0l0 9.796875l-1.921875 0zm0.9375 -11.953125q-0.609375 0 -0.953125 -0.3125q-0.328125 -0.328125 -0.328125 -0.90625q0 -0.546875 0.34375 -0.875q0.34375 -0.34375 0.9375 -0.34375q0.609375 0 0.9375 0.328125q0.34375 0.3125 0.34375 0.890625q0 0.546875 -0.34375 0.890625q-0.34375 0.328125 -0.9375 0.328125zm4.9989624 11.953125l0 -10.890625q0 -0.84375 0.375 -1.5q0.375 -0.65625 1.015625 -1.015625q0.65625 -0.375 1.515625 -0.375q0.59375 0 1.109375 0.21875q0.53125 0.21875 0.859375 0.59375l-0.65625 1.46875q-0.25 -0.21875 -0.546875 -0.359375q-0.28125 -0.140625 -0.53125 -0.140625q-0.390625 0 -0.671875 0.125q-0.265625 0.125 -0.40625 0.375q-0.125 0.25 -0.125 0.609375l0 10.890625l-0.96875 0q-0.234375 0 -0.484375 0q-0.234375 0 -0.484375 0zm-1.5625 -7.859375l0 -1.765625l5.8125 0l0 1.765625l-5.8125 0zm8.140625 7.859375l0 -9.796875l1.921875 0l0 9.796875l-1.921875 0zm0.9375 -11.953125q-0.609375 0 -0.953125 -0.3125q-0.328125 -0.328125 -0.328125 -0.90625q0 -0.546875 0.34375 -0.875q0.34375 -0.34375 0.9375 -0.34375q0.609375 0 0.9375 0.328125q0.34375 0.3125 0.34375 0.890625q0 0.546875 -0.34375 0.890625q-0.34375 0.328125 -0.9375 0.328125zm8.096436 12.140625q-1.359375 0 -2.4375 -0.671875q-1.0625 -0.671875 -1.6875 -1.828125q-0.625 -1.15625 -0.625 -2.59375q0 -1.4375 0.625 -2.59375q0.625 -1.15625 1.6875 -1.828125q1.078125 -0.671875 2.4375 -0.671875q1.3125 0 2.375 0.53125q1.078125 0.53125 1.640625 1.453125l-1.0625 1.296875q-0.296875 -0.421875 -0.765625 -0.78125q-0.46875 -0.359375 -1.0 -0.5625q-0.515625 -0.203125 -1.0 -0.203125q-0.890625 0 -1.59375 0.4375q-0.703125 0.4375 -1.109375 1.203125q-0.40625 0.765625 -0.40625 1.71875q0 0.953125 0.421875 1.71875q0.4375 0.75 1.140625 1.203125q0.703125 0.4375 1.5625 0.4375q0.515625 0 0.984375 -0.171875q0.46875 -0.171875 0.921875 -0.5q0.453125 -0.34375 0.84375 -0.828125l1.0625 1.3125q-0.59375 0.84375 -1.703125 1.390625q-1.109375 0.53125 -2.3125 0.53125zm9.590454 0q-1.203125 0 -2.203125 -0.671875q-1.0 -0.671875 -1.609375 -1.828125q-0.59375 -1.15625 -0.59375 -2.609375q0 -1.484375 0.609375 -2.625q0.609375 -1.140625 1.640625 -1.796875q1.046875 -0.65625 2.328125 -0.65625q0.765625 0 1.390625 0.234375q0.640625 0.21875 1.109375 0.625q0.484375 0.390625 0.78125 0.921875q0.3125 0.515625 0.390625 1.109375l-0.421875 -0.140625l0 -2.546875l1.9375 0l0 9.796875l-1.9375 0l0 -2.328125l0.4375 -0.140625q-0.109375 0.515625 -0.453125 1.0q-0.34375 0.46875 -0.875 0.84375q-0.53125 0.359375 -1.171875 0.59375q-0.640625 0.21875 -1.359375 0.21875zm0.5 -1.765625q0.890625 0 1.546875 -0.421875q0.671875 -0.4375 1.046875 -1.1875q0.390625 -0.765625 0.390625 -1.734375q0 -0.953125 -0.390625 -1.703125q-0.375 -0.75 -1.046875 -1.171875q-0.65625 -0.4375 -1.546875 -0.4375q-0.859375 0 -1.515625 0.4375q-0.65625 0.421875 -1.046875 1.171875q-0.375 0.75 -0.375 1.703125q0 0.96875 0.375 1.734375q0.390625 0.75 1.046875 1.1875q0.65625 0.421875 1.515625 0.421875zm8.762573 1.578125l0 -12.296875l1.921875 0l0 12.296875l-1.921875 0zm-2.046875 -7.921875l0 -1.875l6.234375 0l0 1.875l-6.234375 0zm8.304626 7.921875l0 -9.796875l1.921875 0l0 9.796875l-1.921875 0zm0.9375 -11.953125q-0.609375 0 -0.953125 -0.3125q-0.328125 -0.328125 -0.328125 -0.90625q0 -0.546875 0.34375 -0.875q0.34375 -0.34375 0.9375 -0.34375q0.609375 0 0.9375 0.328125q0.34375 0.3125 0.34375 0.890625q0 0.546875 -0.34375 0.890625q-0.34375 0.328125 -0.9375 0.328125zm8.342651 12.140625q-1.4375 0 -2.578125 -0.65625q-1.125 -0.671875 -1.78125 -1.8125q-0.640625 -1.15625 -0.640625 -2.625q0 -1.46875 0.640625 -2.609375q0.65625 -1.15625 1.78125 -1.8125q1.140625 -0.671875 2.578125 -0.671875q1.40625 0 2.53125 0.671875q1.140625 0.65625 1.796875 1.8125q0.65625 1.140625 0.65625 2.609375q0 1.46875 -0.65625 2.625q-0.65625 1.140625 -1.796875 1.8125q-1.125 0.65625 -2.53125 0.65625zm0 -1.75q0.875 0 1.5625 -0.4375q0.6875 -0.4375 1.078125 -1.1875q0.390625 -0.765625 0.375 -1.71875q0.015625 -0.96875 -0.375 -1.71875q-0.390625 -0.765625 -1.078125 -1.1875q-0.6875 -0.4375 -1.5625 -0.4375q-0.875 0 -1.578125 0.4375q-0.703125 0.4375 -1.09375 1.203125q-0.390625 0.75 -0.375 1.703125q-0.015625 0.953125 0.375 1.71875q0.390625 0.75 1.09375 1.1875q0.703125 0.4375 1.578125 0.4375zm7.067383 1.5625l0 -9.796875l1.921875 0l0 2.015625l-0.34375 0.21875q0.1875 -0.640625 0.734375 -1.1875q0.546875 -0.5625 1.28125 -0.90625q0.75 -0.34375 1.53125 -0.34375q1.125 0 1.859375 0.4375q0.75 0.4375 1.125 1.34375q0.375 0.890625 0.375 2.25l0 5.96875l-1.921875 0l0 -5.84375q0 -0.828125 -0.21875 -1.375q-0.21875 -0.5625 -0.6875 -0.8125q-0.46875 -0.25 -1.15625 -0.21875q-0.5625 0 -1.03125 0.1875q-0.46875 0.171875 -0.8125 0.5q-0.34375 0.3125 -0.546875 0.734375q-0.1875 0.40625 -0.1875 0.890625l0 5.9375l-0.953125 0q-0.234375 0 -0.484375 0q-0.25 0 -0.484375 0zm11.303589 3.34375l-0.703125 -0.859375q0.640625 -0.375 1.046875 -0.859375q0.421875 -0.484375 0.421875 -0.84375q0 -0.1875 -0.09375 -0.359375q-0.09375 -0.171875 -0.390625 -0.5q-0.375 -0.34375 -0.484375 -0.59375q-0.109375 -0.25 -0.109375 -0.515625q0 -0.453125 0.3125 -0.71875q0.3125 -0.28125 0.828125 -0.28125q0.453125 0 0.828125 0.28125q0.390625 0.265625 0.609375 0.75q0.21875 0.46875 0.21875 1.078125q0 0.5625 -0.1875 1.078125q-0.1875 0.53125 -0.53125 0.96875q-0.328125 0.453125 -0.78125 0.8125q-0.4375 0.359375 -0.984375 0.5625zm0.90625 -10.53125q-0.609375 0 -0.953125 -0.359375q-0.328125 -0.359375 -0.328125 -1.03125q0 -0.625 0.34375 -1.015625q0.359375 -0.390625 0.9375 -0.390625q0.625 0 0.953125 0.375q0.34375 0.359375 0.34375 1.03125q0 0.609375 -0.359375 1.0q-0.359375 0.390625 -0.9375 0.390625z" fill-rule="nonzero"/><path fill="#595959" d="m700.08295 245.87013l0 -13.0625l2.84375 0l6.84375 9.328125l-0.625 -0.09375q-0.09375 -0.609375 -0.15625 -1.171875q-0.046875 -0.5625 -0.09375 -1.09375q-0.046875 -0.546875 -0.078125 -1.109375q-0.015625 -0.5625 -0.03125 -1.203125q-0.015625 -0.65625 -0.015625 -1.421875l0 -3.234375l3.078125 0l0 13.0625l-2.859375 0l-7.15625 -9.625l0.953125 0.125q0.09375 0.90625 0.15625 1.53125q0.078125 0.625 0.125 1.109375q0.046875 0.484375 0.0625 0.875q0.015625 0.390625 0.015625 0.78125q0.015625 0.375 0.015625 0.84375l0 4.359375l-3.078125 0zm19.399353 0.1875q-1.546875 0 -2.75 -0.671875q-1.203125 -0.671875 -1.90625 -1.828125q-0.6875 -1.15625 -0.6875 -2.65625q0 -1.484375 0.6875 -2.640625q0.703125 -1.15625 1.90625 -1.828125q1.203125 -0.671875 2.75 -0.671875q1.546875 0 2.75 0.671875q1.203125 0.671875 1.890625 1.828125q0.703125 1.15625 0.703125 2.640625q0 1.5 -0.703125 2.65625q-0.6875 1.15625 -1.890625 1.828125q-1.203125 0.671875 -2.75 0.671875zm0 -2.578125q0.671875 0 1.1875 -0.328125q0.53125 -0.34375 0.828125 -0.921875q0.296875 -0.578125 0.28125 -1.328125q0.015625 -0.734375 -0.28125 -1.328125q-0.296875 -0.59375 -0.828125 -0.921875q-0.515625 -0.34375 -1.1875 -0.34375q-0.671875 0 -1.203125 0.34375q-0.53125 0.328125 -0.828125 0.921875q-0.296875 0.59375 -0.28125 1.328125q-0.015625 0.75 0.28125 1.328125q0.296875 0.578125 0.828125 0.921875q0.53125 0.328125 1.203125 0.328125zm8.114929 2.390625l0 -12.40625l2.984375 0l0 12.40625l-2.984375 0zm-1.75 -7.296875l0 -2.609375l6.65625 0l0 2.609375l-6.65625 0zm14.379517 7.296875l0 -2.671875l2.203125 0l0 -7.71875l-2.203125 0l0 -2.671875l7.59375 0l0 2.671875l-2.21875 0l0 7.71875l2.21875 0l0 2.671875l-7.59375 0zm14.057373 0.203125q-1.296875 0 -2.296875 -0.65625q-0.984375 -0.671875 -1.5625 -1.828125q-0.578125 -1.171875 -0.578125 -2.65625q0 -1.5 0.578125 -2.65625q0.578125 -1.171875 1.578125 -1.84375q1.015625 -0.671875 2.3125 -0.671875q0.671875 0 1.28125 0.203125q0.625 0.203125 1.125 0.5625q0.5 0.34375 0.8125 0.8125q0.328125 0.453125 0.390625 0.9375l-0.71875 0.171875l0 -6.390625l3.0 0l0 13.8125l-2.765625 0l-0.171875 -2.25l0.59375 0.078125q-0.0625 0.46875 -0.375 0.90625q-0.296875 0.421875 -0.78125 0.75q-0.484375 0.328125 -1.109375 0.515625q-0.625 0.203125 -1.3125 0.203125zm0.765625 -2.484375q0.6875 0 1.1875 -0.328125q0.5 -0.34375 0.765625 -0.9375q0.28125 -0.59375 0.28125 -1.390625q0 -0.828125 -0.28125 -1.421875q-0.265625 -0.59375 -0.765625 -0.921875q-0.5 -0.34375 -1.1875 -0.34375q-0.6875 0 -1.1875 0.34375q-0.5 0.328125 -0.78125 0.921875q-0.28125 0.59375 -0.28125 1.421875q0 0.796875 0.28125 1.390625q0.28125 0.59375 0.78125 0.9375q0.5 0.328125 1.1875 0.328125zm12.404297 2.46875q-1.640625 0 -2.859375 -0.65625q-1.203125 -0.671875 -1.875 -1.8125q-0.671875 -1.15625 -0.671875 -2.625q0 -1.140625 0.359375 -2.09375q0.375 -0.953125 1.046875 -1.640625q0.671875 -0.703125 1.59375 -1.078125q0.9375 -0.390625 2.03125 -0.390625q1.046875 0 1.90625 0.375q0.875 0.375 1.5 1.046875q0.640625 0.671875 0.96875 1.59375q0.34375 0.90625 0.3125 1.984375l-0.03125 0.796875l-7.890625 0l-0.421875 -1.671875l5.890625 0l-0.3125 0.34375l0 -0.359375q-0.03125 -0.46875 -0.296875 -0.828125q-0.25 -0.375 -0.65625 -0.578125q-0.40625 -0.203125 -0.9375 -0.203125q-0.71875 0 -1.234375 0.296875q-0.515625 0.28125 -0.78125 0.828125q-0.25 0.546875 -0.25 1.359375q0 0.8125 0.34375 1.421875q0.34375 0.609375 1.0 0.953125q0.671875 0.328125 1.578125 0.328125q0.640625 0 1.125 -0.1875q0.5 -0.1875 1.078125 -0.640625l1.40625 1.984375q-0.578125 0.5 -1.234375 0.828125q-0.65625 0.3125 -1.34375 0.46875q-0.671875 0.15625 -1.34375 0.15625zm9.870056 -0.015625q-1.25 0 -2.234375 -0.65625q-0.984375 -0.671875 -1.5625 -1.828125q-0.578125 -1.171875 -0.578125 -2.65625q0 -1.5 0.578125 -2.65625q0.578125 -1.15625 1.578125 -1.8125q1.015625 -0.671875 2.3125 -0.671875q0.703125 0 1.28125 0.203125q0.59375 0.203125 1.046875 0.578125q0.453125 0.359375 0.765625 0.84375q0.3125 0.46875 0.46875 1.0l-0.625 -0.078125l0 -2.34375l2.96875 0l0 9.90625l-3.015625 0l0 -2.390625l0.671875 -0.015625q-0.15625 0.515625 -0.5 0.984375q-0.328125 0.46875 -0.8125 0.828125q-0.484375 0.34375 -1.078125 0.5625q-0.59375 0.203125 -1.265625 0.203125zm0.8125 -2.515625q0.703125 0 1.203125 -0.3125q0.5 -0.328125 0.78125 -0.90625q0.28125 -0.59375 0.28125 -1.40625q0 -0.796875 -0.28125 -1.375q-0.28125 -0.59375 -0.78125 -0.921875q-0.5 -0.328125 -1.203125 -0.328125q-0.671875 0 -1.171875 0.328125q-0.484375 0.328125 -0.765625 0.921875q-0.28125 0.578125 -0.28125 1.375q0 0.8125 0.28125 1.40625q0.28125 0.578125 0.765625 0.90625q0.5 0.3125 1.171875 0.3125zm7.8413696 2.34375l0 -13.8125l2.984375 0l0 13.8125l-2.984375 0z" fill-rule="nonzero"/></g></svg>