<?xml version="1.0" encoding="UTF-8"?>
<svg id="Layer_1" data-name="Layer 1" xmlns="http://www.w3.org/2000/svg" viewBox="0 0 761.11 529.4">
  <defs>
    <style>
      .cls-1 {
        letter-spacing: -.02em;
      }

      .cls-2 {
        letter-spacing: 0em;
      }

      .cls-3 {
        fill: #e6e7e8;
      }

      .cls-4, .cls-5 {
        fill: #f7941d;
      }

      .cls-6 {
        fill: #f1f2f2;
      }

      .cls-7 {
        stroke-linecap: round;
      }

      .cls-7, .cls-5, .cls-8 {
        stroke-miterlimit: 10;
      }

      .cls-7, .cls-8 {
        fill: none;
        stroke: #bcbec0;
      }

      .cls-9 {
        letter-spacing: -.02em;
      }

      .cls-10 {
        letter-spacing: 0em;
      }

      .cls-11 {
        letter-spacing: 0em;
      }

      .cls-5 {
        stroke: #231f20;
        stroke-width: 3.58px;
      }

      .cls-8 {
        stroke-width: 20px;
      }

      .cls-12 {
        letter-spacing: 0em;
      }

      .cls-13 {
        font-family: Montserrat-SemiBold, Montserrat;
        font-size: 23px;
        font-weight: 600;
      }

      .cls-14 {
        letter-spacing: 0em;
      }

      .cls-15 {
        letter-spacing: -.02em;
      }

      .cls-16 {
        letter-spacing: 0em;
      }

      .cls-17 {
        letter-spacing: 0em;
      }

      .cls-18 {
        fill: #bcbec0;
        stroke-width: 0px;
      }

      .cls-19 {
        letter-spacing: -.01em;
      }

      .cls-20 {
        letter-spacing: 0em;
      }
    </style>
  </defs>
  <g>
    <path class="cls-8" d="M238.81,266.61c5.17-36.25,21.2-69,44.69-94.85"/>
    <polygon class="cls-18" points="286.43 195.13 279.3 176.32 260.82 168.38 305.32 151.4 286.43 195.13"/>
  </g>
  <g>
    <path class="cls-8" d="M305.31,432.88c-27.72-21.85-48.82-51.72-59.82-86.1"/>
    <polygon class="cls-18" points="267.17 355.95 247.32 352.68 231.19 364.7 238.81 317.68 267.17 355.95"/>
  </g>
  <g>
    <path class="cls-8" d="M482.7,458.46c-20.59,8.25-43.06,12.79-66.6,12.79-13.01,0-25.69-1.39-37.91-4.02"/>
    <polygon class="cls-18" points="396.96 452.98 384.24 468.57 386.62 488.54 349.64 458.51 396.96 452.98"/>
  </g>
  <g>
    <path class="cls-8" d="M593.4,317.68c-5.18,36.27-21.22,69.04-44.72,94.9"/>
    <polygon class="cls-18" points="545.75 389.2 552.87 408.02 571.35 415.96 526.84 432.92 545.75 389.2"/>
  </g>
  <g>
    <path class="cls-8" d="M526.85,151.37c27.74,21.86,48.87,51.74,59.88,86.15"/>
    <polygon class="cls-18" points="565.03 228.34 584.89 231.61 601.02 219.59 593.4 266.61 565.03 228.34"/>
  </g>
  <g>
    <path class="cls-8" d="M349.52,125.82c20.58-8.25,43.05-12.79,66.58-12.79,13.05,0,25.77,1.39,38.02,4.04"/>
    <polygon class="cls-18" points="435.35 131.32 448.08 115.74 445.71 95.77 482.67 125.82 435.35 131.32"/>
  </g>
  <g>
    <circle class="cls-5" cx="326.52" cy="137.04" r="25.53"/>
    <circle class="cls-5" cx="505.68" cy="137.04" r="25.53"/>
    <circle class="cls-5" cx="595.21" cy="292.15" r="25.53"/>
    <circle class="cls-5" cx="505.68" cy="447.25" r="25.53"/>
    <circle class="cls-5" cx="326.52" cy="447.25" r="25.53"/>
    <circle class="cls-5" cx="237" cy="292.15" r="25.53"/>
  </g>
  <text class="cls-13" transform="translate(185.31 81.55)"><tspan class="cls-6"><tspan class="cls-14" x="0" y="0">A</tspan><tspan class="cls-10" x="17.11" y="0">sk a </tspan></tspan><tspan class="cls-4"><tspan x="-37.93" y="27.6">Question</tspan></tspan></text>
  <text class="cls-13" transform="translate(579.34 81.71)"><tspan class="cls-3"><tspan class="cls-1" x="0" y="0">C</tspan><tspan class="cls-10" x="16.26" y="0">olle</tspan><tspan class="cls-2" x="58.69" y="0">c</tspan><tspan x="72.22" y="0">t</tspan></tspan><tspan class="cls-4"><tspan x="0" y="27.6">Data</tspan></tspan></text>
  <text class="cls-13" transform="translate(658.17 282.09)"><tspan class="cls-4"><tspan class="cls-16" x="0" y="0">E</tspan><tspan x="15.18" y="0">xplo</tspan><tspan class="cls-16" x="65.62" y="0">r</tspan><tspan x="75.05" y="0">e</tspan></tspan><tspan class="cls-3"><tspan x="0" y="27.6">t</tspan><tspan class="cls-20" x="9.75" y="27.6">h</tspan><tspan x="25.62" y="27.6">e Data</tspan></tspan></text>
  <text class="cls-13" transform="translate(581.5 495.7)"><tspan class="cls-4"><tspan class="cls-19" x="0" y="0">T</tspan><tspan class="cls-11" x="13.55" y="0">idy</tspan></tspan><tspan class="cls-3"><tspan x="0" y="27.6">t</tspan><tspan class="cls-20" x="9.75" y="27.6">h</tspan><tspan x="25.62" y="27.6">e Data</tspan></tspan></text>
  <text class="cls-13" transform="translate(154.39 495.7)"><tspan class="cls-4"><tspan x="0" y="0">Anal</tspan><tspan class="cls-16" x="53.59" y="0">y</tspan><tspan class="cls-12" x="66.65" y="0">z</tspan><tspan class="cls-11" x="78.71" y="0">e</tspan></tspan><tspan class="cls-3"><tspan x="-9.94" y="27.6">t</tspan><tspan class="cls-20" x="-.18" y="27.6">h</tspan><tspan x="15.69" y="27.6">e Data</tspan></tspan></text>
  <text class="cls-13" transform="translate(55.52 282.41)"><tspan class="cls-3"><tspan class="cls-15" x="0" y="0">F</tspan><tspan x="14.31" y="0">o</tspan><tspan class="cls-14" x="29.14" y="0">r</tspan><tspan x="38.69" y="0">mula</tspan><tspan class="cls-9" x="99.18" y="0">t</tspan><tspan class="cls-11" x="108.51" y="0">e</tspan></tspan><tspan class="cls-4"><tspan x="-55.52" y="27.6">In</tspan><tspan class="cls-9" x="-32.43" y="27.6">t</tspan><tspan class="cls-11" x="-23.09" y="27.6">e</tspan><tspan class="cls-17" x="-8.79" y="27.6">r</tspan><tspan x=".76" y="27.6">p</tspan><tspan class="cls-16" x="16.54" y="27.6">r</tspan><tspan x="25.97" y="27.6">etations</tspan></tspan></text>
  <g>
    <circle class="cls-18" cx="326.52" cy="137.04" r="4.04"/>
    <g>
      <line class="cls-7" x1="262.04" y1="87.3" x2="300.99" y2="98.75"/>
      <line class="cls-7" x1="300.99" y1="98.75" x2="326.52" y2="137.04"/>
    </g>
  </g>
  <g>
    <line class="cls-8" x1="320.8" x2="320.8" y2="67.02"/>
    <polygon class="cls-18" points="302.29 52.98 320.8 60.85 339.32 52.98 320.8 96.87 302.29 52.98"/>
  </g>
  <g>
    <line class="cls-8" x1="505.68" x2="505.68" y2="67.02"/>
    <polygon class="cls-18" points="487.17 52.98 505.68 60.85 524.2 52.98 505.68 96.87 487.17 52.98"/>
  </g>
  <g>
    <circle class="cls-18" cx="505.68" cy="137.04" r="4.04"/>
    <g>
      <line class="cls-7" x1="570.16" y1="87.3" x2="531.21" y2="98.75"/>
      <line class="cls-7" x1="531.21" y1="98.75" x2="505.68" y2="137.04"/>
    </g>
  </g>
  <g>
    <circle class="cls-18" cx="595.21" cy="292.09" r="4.04"/>
    <line class="cls-7" x1="593.4" y1="292.81" x2="649.32" y2="292.81"/>
  </g>
  <g>
    <circle class="cls-18" cx="505.68" cy="447.25" r="4.04"/>
    <g>
      <line class="cls-7" x1="570.16" y1="496.99" x2="531.21" y2="485.54"/>
      <line class="cls-7" x1="531.21" y1="485.54" x2="505.68" y2="447.25"/>
    </g>
  </g>
  <g>
    <circle class="cls-18" cx="326.52" cy="447.25" r="4.04"/>
    <g>
      <line class="cls-7" x1="262.04" y1="496.99" x2="300.99" y2="485.54"/>
      <line class="cls-7" x1="300.99" y1="485.54" x2="326.52" y2="447.25"/>
    </g>
  </g>
  <g>
    <circle class="cls-18" cx="236.5" cy="292.09" r="4.04"/>
    <line class="cls-7" x1="238.31" y1="292.81" x2="182.39" y2="292.81"/>
  </g>
</svg>