<?xml version="1.0" encoding="UTF-8"?>
<svg id="Layer_1" data-name="Layer 1" xmlns="http://www.w3.org/2000/svg" viewBox="0 0 490.01 496.21">
  <defs>
    <style>
      .cls-1 {
        fill: #033660;
      }

      .cls-2 {
        fill: #033662;
      }

      .cls-3 {
        fill: #03365f;
      }

      .cls-4 {
        fill: #053955;
      }

      .cls-5 {
        fill: #053a5b;
      }

      .cls-6 {
        fill: #05355d;
      }

      .cls-7 {
        fill: #04355c;
      }

      .cls-8 {
        fill: #043a5e;
      }

      .cls-9 {
        fill: #688a58;
      }

      .cls-10 {
        fill: #697574;
      }

      .cls-11 {
        fill: #685;
      }

      .cls-12 {
        fill: #697f95;
      }

      .cls-13 {
        fill: #69879c;
      }

      .cls-14 {
        fill: #6987a1;
      }

      .cls-15 {
        fill: #ebece2;
      }

      .cls-16 {
        fill: #eaeae0;
      }

      .cls-17 {
        fill: #e9eae2;
      }

      .cls-18 {
        fill: #e6eac4;
      }

      .cls-19 {
        fill: #edebde;
      }

      .cls-20 {
        fill: #ecebdf;
      }

      .cls-21 {
        fill: #ecebde;
      }

      .cls-22 {
        fill: #ecebdc;
      }

      .cls-23 {
        fill: #eceae0;
      }

      .cls-24 {
        fill: #e5f1b3;
      }

      .cls-25 {
        fill: #7d874e;
      }

      .cls-26 {
        fill: #6a8ca2;
      }

      .cls-27 {
        fill: #7e959e;
      }

      .cls-28 {
        fill: #738b44;
      }

      .cls-29 {
        fill: #8197ae;
      }

      .cls-30 {
        fill: #7d844f;
      }

      .cls-31 {
        fill: #7e9fae;
      }

      .cls-32 {
        fill: #7295af;
      }

      .cls-33 {
        fill: #7289a1;
      }

      .cls-34 {
        fill: #648198;
      }

      .cls-35 {
        fill: #6b8954;
      }

      .cls-36 {
        fill: #6b884f;
      }

      .cls-37 {
        fill: #7c92ab;
      }

      .cls-38 {
        fill: #97a3a7;
      }

      .cls-39 {
        fill: #6a8952;
      }

      .cls-40 {
        fill: #7fa2c2;
      }

      .cls-41 {
        fill: #7f9bae;
      }

      .cls-42 {
        fill: #7f874b;
      }

      .cls-43 {
        fill: #7f8d9f;
      }

      .cls-44 {
        fill: #7c99b0;
      }

      .cls-45 {
        fill: #91afc8;
      }

      .cls-46 {
        fill: #9bbfbd;
      }

      .cls-47 {
        fill: #8b9cab;
      }

      .cls-48 {
        fill: #9eb8cd;
      }

      .cls-49 {
        fill: #a1a978;
      }

      .cls-50 {
        fill: #92b0c7;
      }

      .cls-51 {
        fill: #92acc4;
      }

      .cls-52 {
        fill: #9fc1d0;
      }

      .cls-53 {
        fill: #848c58;
      }

      .cls-54 {
        fill: #b4ba92;
      }

      .cls-55 {
        fill: #b4b98a;
      }

      .cls-56 {
        fill: #8aa1b3;
      }

      .cls-57 {
        fill: #8aa2ba;
      }

      .cls-58 {
        fill: #b8c7c7;
      }

      .cls-59 {
        fill: #9dbdb1;
      }

      .cls-60 {
        fill: #9dbec0;
      }

      .cls-61 {
        fill: #8ba5ad;
      }

      .cls-62 {
        fill: #8b979b;
      }

      .cls-63 {
        fill: #9da974;
      }

      .cls-64 {
        fill: #9bb2ca;
      }

      .cls-65 {
        fill: #9bc0d8;
      }

      .cls-66 {
        fill: #8cabc2;
      }

      .cls-67 {
        fill: #8fa5b6;
      }

      .cls-68 {
        fill: #8fbbca;
      }

      .cls-69 {
        fill: #b3cde9;
      }

      .cls-70 {
        fill: #c1cfd4;
      }

      .cls-71 {
        fill: #c1d3a3;
      }

      .cls-72 {
        fill: #b3bcbf;
      }

      .cls-73 {
        fill: #c1d1e3;
      }

      .cls-74 {
        fill: #667d96;
      }

      .cls-75 {
        fill: #315673;
      }

      .cls-76 {
        fill: #325977;
      }

      .cls-77 {
        fill: #8da8be;
      }

      .cls-78 {
        fill: #8da9bf;
      }

      .cls-79 {
        fill: #2f4d61;
      }

      .cls-80 {
        fill: #8ea6b9;
      }

      .cls-81 {
        fill: #8ea5b8;
      }

      .cls-82 {
        fill: #b7c8c7;
      }

      .cls-83 {
        fill: #cde2f1;
      }

      .cls-84 {
        fill: #cdd3a0;
      }

      .cls-85 {
        fill: #b1bcb7;
      }

      .cls-86 {
        fill: #adc4c6;
      }

      .cls-87 {
        fill: #a7c2b6;
      }

      .cls-88 {
        fill: #a6af90;
      }

      .cls-89 {
        fill: #b1c2cf;
      }

      .cls-90 {
        fill: #bcccda;
      }

      .cls-91 {
        fill: #bcc78d;
      }

      .cls-92 {
        fill: #a6becd;
      }

      .cls-93 {
        fill: #aec1cd;
      }

      .cls-94 {
        fill: #b0b88a;
      }

      .cls-95 {
        fill: #adcfea;
      }

      .cls-96 {
        fill: #adb389;
      }

      .cls-97 {
        fill: #afbfcb;
      }

      .cls-98 {
        fill: #afced4;
      }

      .cls-99 {
        fill: #a5aac3;
      }

      .cls-100 {
        fill: #aeb38e;
      }

      .cls-101 {
        fill: #aeb388;
      }

      .cls-102 {
        fill: #a3bccd;
      }

      .cls-103 {
        fill: #a3bacd;
      }

      .cls-104 {
        fill: #aaaf85;
      }

      .cls-105 {
        fill: #d6e5da;
      }

      .cls-106 {
        fill: #becfd9;
      }

      .cls-107 {
        fill: #cabe9e;
      }

      .cls-108 {
        fill: #c9d0a9;
      }

      .cls-109 {
        fill: #d0dee9;
      }

      .cls-110 {
        fill: #c8e1f2;
      }

      .cls-111 {
        fill: #cee0ec;
      }

      .cls-112 {
        fill: #d2d6b4;
      }

      .cls-113 {
        fill: #d1eaf9;
      }

      .cls-114 {
        fill: #d1e0ef;
      }

      .cls-115 {
        fill: #d6dbae;
      }

      .cls-116 {
        fill: #d6dfe6;
      }

      .cls-117 {
        fill: #d6e2ec;
      }

      .cls-118 {
        fill: #d6e0ea;
      }

      .cls-119 {
        fill: #dce1e5;
      }

      .cls-120 {
        fill: #dbe7ab;
      }

      .cls-121 {
        fill: #dbe1e5;
      }

      .cls-122 {
        fill: #dbe1e8;
      }

      .cls-123 {
        fill: #dbe1e6;
      }

      .cls-124 {
        fill: #dbe0e8;
      }

      .cls-125 {
        fill: #d4dfe7;
      }

      .cls-126 {
        fill: #dae0e7;
      }

      .cls-127 {
        fill: #dae0bf;
      }

      .cls-128 {
        fill: #d9ddb3;
      }

      .cls-129 {
        fill: #acb286;
      }

      .cls-130 {
        fill: #d3e2ea;
      }

      .cls-131 {
        fill: #d3e0ef;
      }

      .cls-132 {
        fill: #d3e1f3;
      }

      .cls-133 {
        fill: #d3e1e4;
      }

      .cls-134 {
        fill: #c5e1f4;
      }

      .cls-135 {
        fill: #c5e2f4;
      }

      .cls-136 {
        fill: #c8bf9c;
      }

      .cls-137 {
        fill: #c8cfa2;
      }

      .cls-138 {
        fill: #c7c09d;
      }

      .cls-139 {
        fill: #afbcc2;
      }

      .cls-140 {
        fill: #d5e0eb;
      }

      .cls-141 {
        fill: #10a499;
      }

      .cls-142 {
        fill: #10a39a;
      }

      .cls-143 {
        fill: #143450;
      }

      .cls-144 {
        fill: #123353;
      }

      .cls-145 {
        fill: #12324e;
      }

      .cls-146 {
        fill: #112e52;
      }

      .cls-147 {
        fill: #13344e;
      }

      .cls-148 {
        fill: #11314e;
      }

      .cls-149 {
        fill: #11314f;
      }

      .cls-150 {
        fill: #11314d;
      }

      .cls-151 {
        fill: #11324e;
      }

      .cls-152 {
        fill: #113251;
      }

      .cls-153 {
        fill: #113454;
      }

      .cls-154 {
        fill: #113451;
      }

      .cls-155 {
        fill: #102e4d;
      }

      .cls-156 {
        fill: #102f4d;
      }

      .cls-157 {
        fill: #10304f;
      }

      .cls-158 {
        fill: #15a09e;
      }

      .cls-159 {
        fill: #21363d;
      }

      .cls-160 {
        fill: #15697f;
      }

      .cls-161 {
        fill: #16334a;
      }

      .cls-162 {
        fill: #16333e;
      }

      .cls-163 {
        fill: #17354d;
      }

      .cls-164 {
        fill: #162f40;
      }

      .cls-165 {
        fill: #163552;
      }

      .cls-166 {
        fill: #1c9c9b;
      }

      .cls-167 {
        fill: #13324d;
      }

      .cls-168 {
        fill: #13304c;
      }

      .cls-169 {
        fill: #233b48;
      }

      .cls-170 {
        fill: #092f4f;
      }

      .cls-171 {
        fill: #092f50;
      }

      .cls-172 {
        fill: #09839c;
      }

      .cls-173 {
        fill: #435e7b;
      }

      .cls-174 {
        fill: #426a8a;
      }

      .cls-175 {
        fill: #05859c;
      }

      .cls-176 {
        fill: #06849c;
      }

      .cls-177 {
        fill: #06849b;
      }

      .cls-178 {
        fill: #153350;
      }

      .cls-179 {
        fill: #14334d;
      }

      .cls-180 {
        fill: #153546;
      }

      .cls-181 {
        fill: #1b2e2f;
      }

      .cls-182 {
        fill: #0a3349;
      }

      .cls-183 {
        fill: #0a3351;
      }

      .cls-184 {
        fill: #0f304e;
      }

      .cls-185 {
        fill: #0e314f;
      }

      .cls-186 {
        fill: #0e2e4c;
      }

      .cls-187 {
        fill: #0e3150;
      }

      .cls-188 {
        fill: #0e304e;
      }

      .cls-189 {
        fill: #0e2c40;
      }

      .cls-190 {
        fill: #363c39;
      }

      .cls-191 {
        fill: #0b324e;
      }

      .cls-192 {
        fill: #19313b;
      }

      .cls-193 {
        fill: #3e6985;
      }

      .cls-194 {
        fill: #0d2f4d;
      }

      .cls-195 {
        fill: #0d324e;
      }

      .cls-196 {
        fill: #0c3153;
      }

      .cls-197 {
        fill: #0c324d;
      }

      .cls-198 {
        fill: #94a1ab;
      }

      .cls-199 {
        fill: #9bb1c2;
      }

      .cls-200 {
        fill: #6e8798;
      }

      .cls-201 {
        fill: #6e8ba2;
      }

      .cls-202 {
        fill: #a1b9ce;
      }

      .cls-203 {
        fill: #a1bcd3;
      }

      .cls-204 {
        fill: #95a6b5;
      }

      .cls-205 {
        fill: #6e8e40;
      }

      .cls-206 {
        fill: #95afc4;
      }

      .cls-207 {
        fill: #89a6af;
      }

      .cls-208 {
        fill: #466179;
      }

      .cls-209 {
        fill: #52786b;
      }

      .cls-210 {
        fill: #87a8c7;
      }

      .cls-211 {
        fill: #869db0;
      }

      .cls-212 {
        fill: #9a9a7f;
      }

      .cls-213 {
        fill: #99bad5;
      }

      .cls-214 {
        fill: #889cac;
      }

      .cls-215 {
        fill: #88a0b2;
      }

      .cls-216 {
        fill: #9ab1c5;
      }

      .cls-217 {
        fill: #9ac1e1;
      }

      .cls-218 {
        fill: #6f8ea7;
      }

      .cls-219 {
        fill: #6c8853;
      }

      .cls-220 {
        fill: #6c90b0;
      }

      .cls-221 {
        fill: #6c90a5;
      }

      .cls-222 {
        fill: #808f82;
      }

      .cls-223 {
        fill: #8098a7;
      }

      .cls-224 {
        fill: #809eb2;
      }

      .cls-225 {
        fill: #628269;
      }

      .cls-226 {
        fill: #5b758c;
      }

      .cls-227 {
        fill: #586c88;
      }

      .cls-228 {
        fill: #2b3a32;
      }

      .cls-229 {
        fill: #566c7a;
      }

      .cls-230 {
        fill: #63839a;
      }

      .cls-231 {
        fill: #296790;
      }

      .cls-232 {
        fill: #48799d;
      }

      .cls-233 {
        fill: #486770;
      }

      .cls-234 {
        fill: #485b6c;
      }

      .cls-235 {
        fill: #346e93;
      }

      .cls-236 {
        fill: #2e556c;
      }

      .cls-237 {
        fill: #305570;
      }

      .cls-238 {
        fill: #395969;
      }

      .cls-239 {
        fill: #57687b;
      }

      .cls-240 {
        fill: #83a6c2;
      }

      .cls-241 {
        fill: #839798;
      }

      .cls-242 {
        fill: #708ca1;
      }

      .cls-243 {
        fill: #4b6477;
      }

      .cls-244 {
        fill: #627c93;
      }

      .cls-245 {
        fill: #618ba1;
      }

      .cls-246 {
        fill: #496787;
      }

      .cls-247 {
        fill: #49718d;
      }

      .cls-248 {
        fill: #607a8e;
      }

      .cls-249 {
        fill: #5e879f;
      }

      .cls-250 {
        fill: #456a81;
      }

      .cls-251 {
        fill: #7495b7;
      }

      .cls-252 {
        fill: #7492aa;
      }

      .cls-253 {
        fill: #7992a7;
      }

      .cls-254 {
        fill: #7696a6;
      }

      .cls-255 {
        fill: #789bb4;
      }

      .cls-256 {
        fill: #788b8a;
      }

      .cls-257 {
        fill: #7895ac;
      }

      .cls-258 {
        fill: #7893a7;
      }

      .cls-259 {
        fill: #7894aa;
      }

      .cls-260 {
        fill: #4c627f;
      }

      .cls-261 {
        fill: #526961;
      }

      .cls-262 {
        fill: #527064;
      }

      .cls-263 {
        fill: #7692a9;
      }

      .cls-264 {
        fill: #7699b3;
      }

      .cls-265 {
        fill: #7796aa;
      }

      .cls-266 {
        fill: #7791aa;
      }

      .cls-267 {
        fill: #7791a6;
      }

      .cls-268 {
        fill: #50718f;
      }

      .cls-269 {
        fill: #4f6978;
      }

      .cls-270 {
        fill: #4f7081;
      }

      .cls-271 {
        fill: #7a834e;
      }

      .cls-272 {
        fill: #51718b;
      }

      .cls-273 {
        fill: #4e6c8d;
      }

      .cls-274 {
        fill: #7a95aa;
      }

      .cls-275 {
        fill: #7a96a7;
      }

      .cls-276 {
        fill: #7a96ab;
      }
    </style>
  </defs>
  <path class="cls-6" d="m420.21,75.97c10.37,11.31,20.08,23.09,28.44,36.06,8.89,13.79,16.3,28.31,22.52,43.37,4.52,10.92,7.78,22.38,10.69,33.89,1.03,2.92,1.32,6.06,2.53,8.93.57,3.31,1.16,6.62,1.57,9.95-.18,7.06,1.02,13.98,2.19,20.9,1.17,1.66.76,3.56.86,5.39,0,7.73,0,15.46,0,23.18-.43,3.87-.02,7.87-1.8,11.53-.98,16.23-4.18,32.06-8.56,47.67-1.23,4.38-2.46,8.77-3.69,13.15-1.29,2.54-1.47,5.51-3.11,7.9-10.14,24.78-23.08,47.94-39.95,68.81-.92,1.14-1.95,2.18-2.92,3.27-1.33,2.26-3.42,3.87-5.08,5.84-14.13,16.11-30.45,29.69-48.46,41.19-14.07,8.98-28.83,16.6-44.62,22.33-7.51,2.73-15.07,5.27-22.62,7.86-4.04.83-8.05,1.81-12.05,2.85h-.02c-7.64,1.65-15.31,3.07-23.09,3.85-4.11,2.01-8.55.78-12.81,1.28-8.4.63-16.81.11-25.21.27-4.61-.86-9.3-.29-13.93-.75-4.07,1.25-7.86-1.44-11.88-.85-5.08-2.48-10.81-2.26-16.1-3.86-8.64-.95-16.82-3.77-24.95-6.56-9.54-3.27-18.95-6.94-28.02-11.46-8-3.98-15.73-8.38-23.39-12.99-18.19-10.95-33.6-25.17-48.75-39.77-.35-.34-.6-.79-.89-1.18-1.27-2.32-3.43-3.87-5.04-5.91-11.19-12.2-20.55-25.72-28.82-40.01-6.44-11.13-12.06-22.66-16.29-34.82-3.36-9.67-6.73-19.34-9.2-29.28-.39-1.59-.48-3.25-.71-4.88-.61-3.35-1.05-6.74-2.15-9.99-.38-3.08-1.04-6.1-1.66-9.14.21-5-1.78-9.84-1.14-14.87-1.23-10.72-1.23-21.46-.47-32.21.09-1.32.25-2.65-.25-3.93l-.06-4.83c2.36-5.07,1.8-10.6,2.49-15.94,1.3-3.96,1.46-8.14,2.34-12.18-.28-6,2.26-11.43,3.76-17.01,2.67-9.98,5.95-19.79,9.94-29.38,6.63-15.93,14.71-31,24.4-45.28,6.32-9.3,13.28-18.05,20.77-26.4,2.34-2.65,5.01-4.99,7.25-7.73,1.96-2.05,3.92-4.09,5.88-6.14,2.24-1.38,3.89-3.43,5.87-5.12C119.01,31.48,159.96,12.41,206.22,4.37c3.04-2.03,6.8-.68,9.96-2.15,3.65-.03,7.3-.05,10.95-.08,2.96-1.59,6.18-.9,9.29-.94,7.13-.08,14.27-.07,21.4,0,3.37.97,6.93-.1,10.29.96h0c6.94,1.01,13.99,1.35,20.81,3.15,7.74,2.3,15.75,3.37,23.55,5.61,10.52,3.02,20.65,6.88,30.63,11.24,1.64.72,3.31,1.36,4.97,2.03,2.8,1.05,5.49,2.3,7.95,4.02,10.78,5.86,21.57,11.8,31.33,19.23,8.54,6.49,17.41,12.67,24.72,20.67,3.05,2.27,5.48,5.18,8.13,7.86Z"/>
  <path class="cls-113" d="m488.1,234c.02-1.65.04-3.29.06-4.94,1.41.24,1.85,1.17,1.84,2.49-.05,9.77-.08,19.54-.15,29.31,0,.44-.43.87-.66,1.31-1.23-1.31-.42-2.92-.66-4.38-.27-7.93.55-15.87-.44-23.79Z"/>
  <path class="cls-200" d="m1.39,233.01c.29.55.83,1.1.83,1.65,0,11.5-.07,22.99-.12,34.49-1.26-1.87-.51-4.06-.96-6.05-.72-8.68-.64-17.36-.06-26.04.1-1.35.2-2.7.3-4.05Z"/>
  <path class="cls-73" d="m228.13,1.19c1.8-1.75,4.08-1.02,6.11-.96,8.66.22,17.36-1.04,25.97.75-.71.9-1.72.62-2.64.68-9.81-.29-19.64.6-29.43-.46Z"/>
  <path class="cls-239" d="m228.13,1.19c9.96.06,19.93.13,29.89.19.05.22.11.45.16.67-10.35.03-20.7.06-31.05.09.33-.32.67-.63,1-.95Z"/>
  <path class="cls-44" d="m234.21,494.83c8.68.12,17.35.25,26.03.37-9.69,1.75-19.44.73-29.17.64.47-2.13,1.93-1.18,3.14-1.01Z"/>
  <path class="cls-56" d="m273.05,493.92c7.65-1.57,15.29-3.21,23.09-3.85-7.5,2.48-15.13,4.15-23.09,3.85Z"/>
  <path class="cls-110" d="m1.09,237.06c.02,8.68.04,17.36.06,26.04-1.81-2.87-.96-6.07-.88-9.07.15-5.65-1.06-11.39.82-16.96Z"/>
  <path class="cls-267" d="m288.93,5.32c-6.95-.94-13.99-1.34-20.81-3.15,7.12-.12,14.13.44,20.81,3.15Z"/>
  <path class="cls-243" d="m234.21,494.83c-1.04.35-2.36-.17-3.14,1.01-3.41.42-6.77.36-9.97-1.11,4.38-1.41,8.75-1.02,13.11.1Z"/>
  <path class="cls-47" d="m4.35,212.52c-.43,4.36-.86,8.72-1.27,13.08-.11,1.2-.41,2.24-1.75,2.58,1.43-5.99.99-12.26,2.81-18.19.73.79.51,1.65.21,2.53Z"/>
  <path class="cls-80" d="m193.12,490.02c5.49.79,11.27.35,16.1,3.86-5.35-1.35-11.01-1.43-16.1-3.86Z"/>
  <path class="cls-254" d="m420.21,75.97c-3.27-2.04-5.65-5-8.13-7.86,3.78,1.51,6.19,4.44,8.13,7.86Z"/>
  <path class="cls-83" d="m216.18,2.22c-2.92,2.55-6.56,1.78-9.96,2.15,2.71-3.57,6.56-1.82,9.96-2.15Z"/>
  <path class="cls-92" d="m488.92,257.97c.09,1.4.18,2.79.28,4.19-.89,2.27,1.43,5.44-1.98,7,.34-3.64.68-7.29,1.02-10.93.07-.5.3-.59.68-.26Z"/>
  <path class="cls-275" d="m72.28,74.27c-1.57,3.37-4.27,5.69-7.25,7.73,1.7-3.25,4.2-5.75,7.25-7.73Z"/>
  <path class="cls-56" d="m296.16,490.06c3.81-1.82,7.8-2.88,12.05-2.85-3.8,1.87-7.82,2.81-12.05,2.85Z"/>
  <path class="cls-89" d="m485.97,208.16c-1.35-3.16-1.48-6.57-2.1-9.89-.36-.8-.45-1.58.25-2.27,1.45,3.92,2.38,7.93,1.85,12.15Z"/>
  <path class="cls-97" d="m3.24,284.02c2.14,2.6,1.47,5.87,2.12,8.83.36.87.53,1.71-.34,2.4-1.28-3.64-1.94-7.37-1.78-11.23Z"/>
  <path class="cls-257" d="m4.35,212.52c-.07-.84-.14-1.68-.21-2.53.22-3.4.55-6.78,2.02-9.93.39,4.3-.89,8.35-1.8,12.45Z"/>
  <path class="cls-81" d="m356.03,28.21c-2.77-1.11-5.59-2.1-7.95-4.02,3.37-.08,5.94,1.42,7.95,4.02Z"/>
  <path class="cls-214" d="m5.02,295.25c.11-.8.23-1.6.34-2.4,1.01,3.36,2.02,6.72,1.7,10.3-1.37-2.45-1.59-5.2-2.04-7.89Z"/>
  <path class="cls-29" d="m84.03,63.01c-1.47,2.26-2.99,4.47-5.87,5.12,1.67-2.04,3.26-4.16,5.87-5.12Z"/>
  <path class="cls-264" d="m484.12,196.01c-.08.76-.17,1.51-.25,2.27-1.13-2.89-1.89-5.87-2-8.99,1.96,1.84,1.55,4.47,2.25,6.73Z"/>
  <path class="cls-258" d="m423.9,415.83c1.01-2.54,3.06-4.18,5.08-5.84-.6,2.9-2.69,4.5-5.08,5.84Z"/>
  <path class="cls-267" d="m258.18,2.05c-.04-.23-.09-.45-.16-.67.73-.13,1.46-.27,2.19-.4,2.62.5,5.44-.33,7.91,1.19-3.31-.04-6.62-.07-9.94-.11Z"/>
  <path class="cls-67" d="m62.08,412.15c2.09,1.62,4.49,2.98,5.04,5.91-2.1-1.61-4.23-3.19-5.04-5.91Z"/>
  <path class="cls-77" d="m471.86,337.9c.62-2.8,1.29-5.58,3.11-7.9-.34,2.91-.65,5.83-3.11,7.9Z"/>
  <path class="cls-123" d="m420.01,88.16c3.97,4.71,7.94,9.42,11.91,14.13,2.04,2.04,3.3,4.65,5.08,6.88,10.98,15.5,20.14,31.99,27.11,49.68.47,1.2,1.13,2.32,1.71,3.48,1.74,2.35,1.88,5.33,3.12,7.87,4.51,15.09,8.47,30.35,10.84,45.91.81,5.31,1.87,10.74,1.3,16.26-.23,2.22-.56,4.67,1.08,6.68.6,6.36.51,12.72.06,19.08-1.65,9.57-1.11,19.4-3.35,28.9-.56,3.65-1,7.33-1.92,10.91-2.69,9.86-4.81,19.92-8.19,29.55-7.25,20.65-16.96,40.16-29.73,58-12.79,17.84-27.37,33.93-44.51,47.92-18.55,15.14-38.8,27.11-60.78,36.12-9.25,3.79-18.55,7.86-28.58,9.52-4.26,1.44-8.78,1.63-13.1,2.81-8.35,3.31-17.57,1.99-26.03,4.88-1.76.6-3.91.05-5.88.03-10.03.62-20.06-.02-30.09-.04-1.28.03-2.57.07-3.85.1-5.25-1.82-10.8-1.81-16.21-2.69-14.07-1.48-27.67-5-40.96-9.68-10.13-3.57-20.19-7.39-29.69-12.46-19.67-10.49-37.89-22.92-54.34-38.14-16.57-15.34-30.78-32.52-42.48-51.65-6.68-10.93-12.63-22.4-17.14-34.54-1.93-5.19-4.28-10.24-5.97-15.53-.52-4.16-1.47-8.2-3.34-11.99-2.84-8.66-4.28-17.63-5.86-26.57-1.49-8.42-2.02-16.93-2.15-25.46-.77-5.24-.22-10.5-.3-15.75.89-5.45.62-11,1.29-16.47.57-15.81,3.88-31.15,8.3-46.26,6.29-21.51,15.78-41.58,27.9-60.41,7.62-11.83,15.86-23.18,25.85-33.17,4.41-4.92,9.01-9.64,14.02-13.95,23-21.45,49.59-37.02,78.88-48.17,2.82-.63,5.46-1.83,8.23-2.6,5.96-1.73,11.92-3.46,17.88-5.19,3.3-.83,6.72-1.1,10.01-1.98,3.09-1.63,6.59-1.52,9.87-1.83,3.7-.35,7.43-.3,11.06-1.27,3.82-.76,7.79-.18,11.56-1.37,8-.05,15.99-.05,23.99,0,4.11,1.11,8.4.57,12.54,1.4,6.72,1.18,13.42,2.46,20.15,3.52,10.47,1.66,20.52,4.98,30.74,7.61,2.56,1.21,5.46,1.53,7.91,3.04,21.1,8.05,40.59,19.1,58.84,32.3,6.09,4.4,11.6,9.62,17.37,14.46,5.45,5.21,11.05,10.27,15.85,16.12Z"/>
  <path class="cls-174" d="m256.97,10.33c-8.23,0-16.47,0-24.7,0-1.48.36-2.97.84-4.31-.37,11.43-1.28,22.85-1.37,34.27.06-1.69,1.11-3.48.66-5.26.31Z"/>
  <path class="cls-221" d="m420.01,88.16c-5.47-5.19-11.01-10.31-15.85-16.12,6.23,4.44,11.75,9.59,15.85,16.12Z"/>
  <path class="cls-240" d="m230.06,486.73c6.11-1.79,12.35-.41,18.52-.6,3.83-.12,7.82-1.23,11.57.64-.34.09-.69.18-1.03.27-8.01.76-16.02.65-24.03.07-1.68-.13-3.36-.25-5.04-.38Z"/>
  <path class="cls-34" d="m85.14,72.11c-4.21,5.12-8.99,9.66-14.02,13.95,3.71-5.62,8.26-10.39,14.02-13.95Z"/>
  <path class="cls-75" d="m235.1,487.11c8.01-.02,16.02-.05,24.03-.07-8,1.62-16.01,1.45-24.03.07Z"/>
  <path class="cls-247" d="m8.34,242.13c-.09,5.33-.17,10.66-.26,15.98-1.48-8.04-1.36-16.09-.05-24.14,1.2,2.68.72,5.42.31,8.15Z"/>
  <path class="cls-248" d="m488.92,257.97c-.22.1-.45.19-.68.26-.05-8.08-.09-16.15-.14-24.23,1.96,7.93.64,15.98.82,23.97Z"/>
  <path class="cls-211" d="m210.01,484.14c4.95-.71,9.71,1.16,14.62,1.07.94-.02,1.34.8,1.59,1.62-5.51-.27-10.87-1.4-16.21-2.69Z"/>
  <path class="cls-268" d="m482.22,258.13c-.02-6.36-.04-12.72-.06-19.08,1.41,6.36,1.38,12.72.06,19.08Z"/>
  <path class="cls-206" d="m292.07,481.85c4.09-2.21,8.62-2.39,13.1-2.81-4.14,1.97-8.5,2.97-13.1,2.81Z"/>
  <path class="cls-48" d="m8.34,242.13c-.1-2.72-.21-5.44-.31-8.15.48-2.68-.31-5.52,1.04-8.08.02,5.42.83,10.88-.73,16.23Z"/>
  <path class="cls-31" d="m16.09,310.15c2.44,3.63,3.95,7.51,3.34,11.99-1.11-4-2.23-7.99-3.34-11.99Z"/>
  <path class="cls-45" d="m476.95,297.94c-.17-3.78.64-7.39,1.92-10.91.38,3.82-.09,7.48-1.92,10.91Z"/>
  <path class="cls-276" d="m256.97,10.33c1.75-.1,3.5-.21,5.26-.31,2.29.46,4.79-.38,6.92,1.1-4.08.09-8.19.54-12.18-.79Z"/>
  <path class="cls-259" d="m200.14,14.18c-3.15,1.58-6.49,2.23-10.01,1.98,3.14-1.66,6.5-2.19,10.01-1.98Z"/>
  <path class="cls-252" d="m227.96,9.95c1.44.12,2.88.24,4.31.37-3.67,1.25-7.44.92-11.21.77,2.09-1.62,4.63-.54,6.89-1.13Z"/>
  <path class="cls-266" d="m437,109.17c-2.43-1.75-3.88-4.22-5.08-6.88,2.78,1.49,4.16,4.01,5.08,6.88Z"/>
  <path class="cls-253" d="m327.95,25.28c-2.82-.54-5.6-1.18-7.91-3.04,2.93.25,5.82.59,7.91,3.04Z"/>
  <path class="cls-74" d="m468.93,170.19c-1.85-2.3-2.41-5.12-3.12-7.87,2.54,2.03,2.88,4.93,3.12,7.87Z"/>
  <path class="cls-218" d="m172.25,21.35c-2.51,1.61-5.15,2.8-8.23,2.6,2.51-1.6,5.16-2.78,8.23-2.6Z"/>
  <path class="cls-186" d="m427.22,255.17c-1.43,13.4-2.4,26.87-6.34,39.87-2.77-.77-2.64-3.05-2.5-5.15.21-3.29.67-6.57,1.26-9.82.05-1.06.05-2.12.06-3.18,1.42-11.16,1.98-22.4,2.39-31.69-1.24,4.69-3.95,11.08-3.27,18.08-1.26,1.92-2.13.66-3.03-.37-.28-.43-.49-.91-.63-1.41-.33-2.92-.53-5.87-1.97-8.55-.41-2.44.5-4.63,1.46-6.74,5.76-12.69,5.74-25.56,2.62-39.01-8.39-36.17-26.3-66.78-53.45-91.77-19.71-18.14-42.51-31.26-68.57-38.55-13.07-3.66-26.36-5.44-39.76-6.9-6.56-.75-13.11-.68-19.67-.02-16.71.92-33.01,3.99-48.74,9.76-21.8,7.99-41.33,19.67-58.6,35.31-29,26.26-46.87,58.74-55.08,96.74-1.65,7.63-2.85,15.36-3.45,23.17-.57,8.31-.83,16.62.18,24.92.49,2,.32,4.04.49,6.06.4,6.31,2.51,12.34,3.02,18.63.1,3.26.09,6.51-.06,9.76-.08,1.81.34,4.06-2.26,4.76-2.34-8.42-3.83-17.02-5.57-25.58-.77-3.78-.03-7.53-.75-11.23-.49-10.11-.54-20.21.03-30.32.55-20.75,6.84-40.11,14.94-58.89,16.4-38.01,43.33-66.75,79.24-86.89,19.06-10.69,39.62-17.56,61.51-20.14,9.84-1.16,19.71-2.62,29.57-1.89,18.05,1.34,35.84,3.6,53.26,9.57,30.58,10.48,56.41,27.6,77.73,51.63,14.78,16.66,26.01,35.47,33.94,56.4,4.58,12.07,7.28,24.49,9.97,36.99.24,1.13.66,2.23,1,3.34.99,3.34-.34,6.85.75,10.18.11,2.58.21,5.17.32,7.75.44,5.06.49,10.13-.03,15.19Z"/>
  <path class="cls-8" d="m413.88,252.74c3.14,2.58,2.03,6.12,2.13,9.38-3.99,4.9-7.04,10.49-11.32,15.17-1.35,1.48-1.19,2.98,0,4.49,2.93,3.77,6.24,7.24,9.11,11.82,1.73-3.23,2.07-5.98,1.99-8.79-.17-6.48.56-12.99-.6-19.44-.21-1.17-.14-2.33.81-3.25.72.64,1.45,1.29,2.17,1.93,2.65.74,1.95,3.01,2.24,4.84.07,3.67-1.37,7.41.54,10.99.14,5.05-3.16,10.09-.07,15.16-4.11,16.81-10.96,32.48-19.79,47.3-11.15,18.72-25.28,34.89-42.23,48.58-1.12.9-2.08,2.21-3.78,2.12-2.88,1.15-5.91,1.62-8.95,2.06-1.42.38-2.84.91-4.35.42-.93-.48-2-.85-1.89-2.22,1.22-2.31,3.57-2.8,5.74-3.59,7.1-2.58,13.54-6.3,19.18-11.35,1.19-1.07,3.12-2.2,2.43-3.97-.59-1.51-2.66-.99-4.1-.95-16.09.38-32.14-.2-48.27,1.56-24.83,2.72-48.65-1.99-70.56-14.56-2.71-1.56-5.91-2.35-8.03-4.88-.3-.43-.42-.91-.38-1.43,4.09-2.78,7.8-1.29,11.44,1.03.47.02.93.09,1.39.18,6.12,2.47,12.05,5.38,18.21,7.76,1.06.49,2.17.86,3.29,1.19.7.18,1.4.4,2.11.54,4.55,1.69,9.38,2.19,14.06,3.32,3.09.92,6.26.41,9.39.52,3.09-.04,6.04,1.2,9.15.93.74-.01,1.45-.24,2.17-.39.95-.22,1.91-.34,2.88-.38,1.65-.01,3.3-.06,4.93-.4.47-.06.95-.05,1.42,0,4.47,1.13,8.35-.27,11.88-2.91,1.77-1.33,3.48-2.47,5.78-1.32.87.36,1.68.82,2.43,1.39.92-.05.75,3.13,2.68.65,1.66-2.14,4.14-3.16,6.6-.63,3.22,2.43,6.91.58,10.33,1.11,2.49.02,4.97.04,7.45.04,12.94,0,20.24-4.96,25.29-17.2-.54-2.73-3.85-1.77-4.98-3.71.02-1.05.71-1.79,1.2-2.62,1.27-6.8.76-13.61.27-20.41-2.42-18.67-9.66-34.84-24.35-47.18-.65-.55-1.06-1.27-1.22-2.12.57-2.44,2.39-3.78,4.35-5,2.33-.78,4.13.48,6.05,1.5,14.35,7.67,24.81,19.21,33.03,33.01.94,1.58,1.71,3.22,2.17,5.01.41,1.61.75,3.23,1.23,4.83,5.91-9.62,2.34-15.13-5.91-25.82-4.11-5.33-9.97-8.69-15.79-11.97-2.08-1.17-4.79-1.83-5.02-4.94,5.96-2.49,9.16,2.77,13.46,4.88,1.11.54,1.78,1.93,3.13,2.36,2.76.86,2.79-.62,2.25-2.6,5.52-7.03,8.99-15.47,15.19-22.03Z"/>
  <path class="cls-5" d="m71.33,299.06c1.88-4.97.31-10.15.93-15.2.64-.74.43-1.75.84-2.57,6.36-15.07,17.69-25.05,32.38-31.57,1.24-.55,2.54-.79,3.9-.41.5.18.92.47,1.25.89,1.16,2.31-.03,4.05-1.39,5.74-5.44,7.29-8.14,15.62-9.22,24.55-.77,4.7-.73,9.39-.01,14.08.97,9.57,3.41,18.67,8.58,26.9.36.58.7,1.18,1.07,1.75.85,1.24,1.93,2.27,3.02,3.3.48.42.95.86,1.43,1.28,1.83,1.86,4.75,2.15,6.32,4.35-.01.14.03.32-.04.46-.06.12-.22.2-.34.29,5.12.42,2.52,4.84,3.77,7.27.04.48.02.96-.03,1.44-.41,3.43-.62,6.85.25,10.25,1.9,8.81,4.52,17.33,9.39,25.03,1.06,1.67,1.97,3.47,2.28,5.48-.24,1.67.9,3.11.92,4.67.03,2.12-.9,3.76-3.4,3.81-11.76-8.65-21.53-19.29-30.48-30.72-13.33-17.02-23.16-35.89-29.65-56.51-.49-1.56-1.17-3.05-1.77-4.57Z"/>
  <path class="cls-170" d="m133.23,390.86c1.72-1.63,4.02-3.08,1.23-5.76-.61-.59-.07-1.51.64-2.05.69.08,1.41.3,1.73.86,5.79,10.12,16.35,14.18,25.43,20.13,1.47.78,2.7,2.73,4.68.89.47-.2.94-.24,1.43-.12,16.77,12.38,36.47,16.02,56.41,18.9,3.28.47,6.56.98,9.85,1.43,7.21.84,14.42.69,21.63.09,3.89-.24,7.74-1.74,11.18-.73-11.21-2.38-21.94-7.46-32.24-13.53-1.57-.93-3.23-1.71-4.27-3.31-1.41-5.01,2.78-1.19,3.19-1.62-1.63-1.5-3.72-2.26-.5-4.57,3.69.29,5.23,3.82,8.11,5.38,10.98,5.95,22.13,11.38,34.65,13.31,3.76.79,7.52.79,11.27,0,21.03-5.16,40.21-14.46,58.35-26.08,2.99-.64,5.99-1.23,9.08-1.07-14.86,13.2-32.65,21.03-50.95,27.98-11.49,4.36-23.5,6.56-35.46,8.9-3.37.66-6.95.22-10.43.28-8.41.47-16.81.54-25.21-.03-37.57-2.17-70.68-15.67-99.79-39.31Z"/>
  <path class="cls-162" d="m34.38,263.17c.56,6.31.53,12.73,3.49,18.59.66,1.31.8,2.61-.26,3.66-1.04,1.02-2.52.87-3.76.47-1.18-.38-2.04-1.59-1.59-2.75,2.68-7.05-.89-14.01-.19-21.01-1.11-3.94.54-8.09-.89-12.01-5.25-8.02-8.11-16.8-8.1-26.42,0-2.85.37-5.92,3.4-7.24,3.25-1.41,5.11,1.21,7.5,3.81,1.08-10.35,4.9-19.44,6.97-28.98.51-2.37,1.83-4.16,2.71-6.2,2.15-5,1-9.92.42-14.89-.56-4.38-.59-8.75.02-13.13.01-3.39.97-6.43,3.41-8.88,1.45-1.45,2.99-2.82,5.25-1.97,2.02.76,3.19,2.33,3.51,4.48.11.77-.23,1.66.93,2.48,3.57-2,4.74-5.94,6.81-9.16,4.44-6.89,9.81-13.05,15.06-19.31,1.54-1.84,3.7-3.3,3.4-6.33-.19-1.93,1.55-2.26,3.18-2.24,1.19.02,2.48-.02,2.61,1.58.11,1.48.35,3.32-1.33,3.97-6.63,2.57-8.75,9.43-14.15,13.83,3.08,1.16,4.86-.99,6.96-1.06,2.83-.1,6.59-1.88,8.21,1.17,1.92,3.6-1.15,6.07-3.97,8.1-5.85,4.21-12.67,6.32-19.27,8.9-1.69.66-3.5,1.02-4.51,2.68-6.44,10.53-11.1,21.89-15.9,33.91,4.61-1.4,7.28-5.07,11.38-5.89,1.81-.36,3.85-.91,5.05.88,1.13,1.69,2.34,3.41,1.1,5.92-1.19,2.43-2.44,4.72-4.48,6.43-4.72,3.95-9.47,7.87-14.36,11.61-3.55,2.71-6.01,5.4-6.14,10.51-.15,5.7-2.06,11.35-1.79,17.19-.8,7.28-.13,14.59-.36,21.88-.06,1.82.27,3.66-.29,5.45Z"/>
  <path class="cls-180" d="m447.3,162.19c-.03.33.03.7-.1.99-3.47,7.52-1.08,14.55,1.87,21.48,3.98,9.33,5.26,19.34,7.49,29.17.31,0,.78.14.93-.02,2.15-2.39,5.21-4.25,7.73-2.25,3,2.38,3.34,6.56,2.8,10.41-1.12,7.94-4.07,15.24-7.91,22.21-1.26,3-.22,6.14-.6,9.19-.19,1.54.71,3.27-.74,4.61-1.41,3.25-.37,6.69-.8,10.01-.73,3.17-1.03,6.29,1.01,9.15-.46,4.24-3.73,3.46-5.88,2.55-2.28-.97-.74-2.77.22-4.43,2.48-4.32,1.02-9.54,2.83-14.07,1.1-4.35-.21-8.84.75-13.2,0-.93,0-1.87-.01-2.8-.95-5.35.38-10.81-.74-16.16-.85-6.35-1.76-12.7-2.52-19.06-.34-2.89-1.95-4.74-4.1-6.5-5.99-4.92-12.95-8.64-17.92-14.83-.7-.88-1.58-1.56-1.95-2.69-.78-2.38-1.9-5,.23-6.99,1.98-1.85,4.83-1.37,7.03-.39,3.24,1.45,6.84,2.58,8.98,6.86.23-6.7-3.21-11.27-5.14-16.25-2.12-5.48-5.3-10.53-7.88-15.84-1.87-3.86-5.08-5.77-8.92-7.19-6.68-2.46-13.35-5.05-18.82-9.84-1.73-1.51-3.92-3.2-2.77-5.83,1.22-2.8,4.07-2.74,6.53-2.19,3,.67,5.89,1.81,9.05,2.42-4.34-4.86-6.5-11.6-13.42-14.02-1.5-.52-3.12-2.01-2.51-4.3.49-1.83,1.97-2.11,3.48-2.14,2.24-.05,2.78,1.44,2.64,3.32-.09,1.26.54,1.89,1.41,2.81,8.99,9.53,16.46,20.21,23.21,31.4,1.13-.52,1.7-1.56,1.89-2.73.37-2.32,1.05-3.98,3.95-4.07,3.02-.1,4.91.9,6.47,3.56,1.4,2.39.28,5.35,2.17,7.48.56,3.39.41,6.79.1,10.19Z"/>
  <path class="cls-151" d="m412.98,355.01c1.24-6.1,5.73-10.58,8.09-16.13.76-1.8,2.13-3.33,3.07-5.07.61-1.12,1.22-1.89,2.64-1.75,4.98.46,9.4-2.4,15-2.12-3.06-4.6-5.55-8.83-8.56-12.66-1.18-1.5-1.65-2.34-.26-3.64,1.84-1.71,2.76.17,3.48,1.21,2.28,3.26,4.74,6.5,6.39,10.09,2.53,5.51,7.35,7.35,12.41,9.19,1.14.42,3.48.05,2.8,2.43-.78,2.75-2.57,1.16-3.96.6-2.46-.99-4.91-2.03-7.3-3.18-1.56-.75-3.11-1.12-4.81-.77-4.61.95-9.27,1.75-13.83,2.92-3.07.79-4.12,3.81-4.8,6.36-.62,2.32,2.12,2.37,3.63,3.2,6.22,3.44,12.38,7,18.61,10.43,1.26.7,1.69,1.47,1.11,2.78-.92,2.08-2.3,1.39-3.66.59-6.49-3.8-13.19-7.3-19.37-11.55-2.63-1.81-3.28-.85-4.42,1.01-1.57,2.56-2.3,6.03-6.35,5.96l.1.09Z"/>
  <path class="cls-196" d="m168.65,67.08c3.02-10.1,2.06-20.42,4.45-30.3.77-3.18,3.51-3.96,5.76-1.39,6.96,7.97,13.71,16.12,20.52,24.22.89,1.06,1.6,2.6.01,3.35-1.09.51-2.51,1.82-4.09-.42-1.56-2.2-2.52-6.02-6.41-5.34-4.85.85-9.76,1.94-14.01,4.45-1.2.71-1.19,3.51-1.65,5.38-.46,1.84,1.16,5.06-2.34,4.93-3.93-.15.12-3.78-2.23-4.88Z"/>
  <path class="cls-145" d="m304.96,441.86c.65-8.16,7.91-14.7,19.54-14,6.91.42,14.22,8.81,13.74,15.63-.61,8.74-4.11,15-10.71,16.52-10.47,2.42-16.56-.17-21.38-9.07-.33-3.04-3.85-5.66-1.19-9.09Z"/>
  <path class="cls-167" d="m60.75,376.87c-2.26-2.29-2.91-4.12-1.06-7.65,2.79-5.31,5.51-10.83,6.84-16.87.61-2.74,3.59-4.65,3.39-8.65-6.25,3.76-12.11,7.28-17.95,10.81-.71.43-1.35.97-2.07,1.38-1.12.63-2.12.78-2.94-.58-.9-1.48.02-2.07,1.08-2.71,7.65-4.63,15.3-9.27,22.96-13.89,1.17-.71,2.43-1.37,3.52.05,1.11,1.44,1.1,3,.31,4.67-3.66,7.76-6.4,15.94-10.58,23.48-.29.52-.39,1.14-.67,1.98,4-.11,6.63-2.87,9.71-4.56,2.89-1.58,5.49-3.69,8.42-5.19,1.55-.8,3.14-2.89,5.31-1.03,1.44,1.9.04,3.31-1.22,4.07-8.28,5.01-15.72,11.45-25.03,14.69Z"/>
  <path class="cls-178" d="m353.06,428.64c3.04.87,6.11.18,8.14,3.27,2.73,4.14,2.53,7.49-.84,11.02-3.18,3.32-7.27,5.15-11.09,7.45-1.8,1.09-2.56.33-3.4-1.27-4.14-7.94-8.38-15.83-12.6-23.73-.99-1.86-1.25-3.34,1.32-4.09,3.75-1.1,6.57-4.38,10.87-4.35,7.44.04,10.51,4.37,7.59,11.7Z"/>
  <path class="cls-167" d="m88.2,361.14c4.69,4.86,9.81,9.49,11.52,16.37,2.51,10.12-8.86,22.14-18.82,19.29-7.58-2.16-11.76-9.16-16.47-15.04-.17-.22.51-1.12.79-1.7,4-5.91,9.96-9.69,15.41-13.98,2.34-1.84,4.17-4.68,7.58-4.95Z"/>
  <path class="cls-150" d="m407.13,404.85c.51,3.75-1.92,6.24-4.66,8.51-2.47,2.05-3.94,6.12-7.26,6.09-3.31-.03-4.21-4.24-6.3-6.49-4.29-4.6-8.48-9.31-12.93-13.74-1.71-1.7-1.99-2.78-.06-4.3,3.66-2.87,5.95-7.43,11.42-8.05,4.7-.53,7.87,1.28,7.65,5.91-.17,3.55.86,4.51,4.37,4.33,5.91-.29,7.82,1.79,7.79,7.73Z"/>
  <path class="cls-147" d="m219.07,458.97c.34-4.04-.76-8.18.87-12.13,2.08-1.98-1-4.86,1.18-6.83l-.05-.1c3.7-.55,7.39-.73,11.07.1,1.69.65,3.39,1.3,5.08,1.95,6.93,2.64,11.02,10.29,9.81,18.35-1.03,6.84-6.33,11.41-13.77,11.85-3.43.52-6.86.56-10.29-.02-1.54-.44-3.46.91-4.69-1,1.04-4-.39-8.16.78-12.16Z"/>
  <path class="cls-157" d="m303.28,447.14c-.44,3.48-3.54,4.46-5.55,5.82,2.82,3.03,5.63,5.98,8.37,9,.9.99,3.06,1.96,1.5,3.5-1.38,1.37-2.97.22-4.25-1.09-2.9-2.97-5.96-5.77-8.83-8.76-1.48-1.54-2.73-1.62-4.79-.9-3.21,1.12-.34,2.56-.56,3.78-.59,3.4,2.44,6.07,1.96,9.52-.2,1.43-.64,2.08-2.1,2.05-1.15-.03-1.79-.38-1.92-1.67-.97-9.26-3.76-18.15-5.71-27.21-.56-2.59,1.15-2.57,2.12-2.88,4.77-1.5,9.75-1.5,14.71-1.39,2.67.06,3.07,2.65,4.36,4.24,2.3,1.76,1.52,3.88.67,5.99Z"/>
  <path class="cls-184" d="m259.87,59.29c-3.21.48-6.16-1.17-9.05-2.74-1-.54-2.68-1.53-1.6-3.03.79-1.1,2.15-2.05,3.86-.87,3.46,2.38,7.19,3.1,11.18,1.31,3.43-1.55,3.74-4.34,1.16-7.25-3-3.39-7.44-3.98-11.04-6.18-4.22-2.58-5.59-7.32-3.23-11.65,3.51-6.48,14.91-7.95,20.01-2.6.72.75,1.46,1.35.19,2.31-1.2.9-2.31,2.26-3.78.61-2.53-2.83-5.73-2.13-8.81-1.73-2.64.34-3.9,2.46-4.41,4.71-.49,2.18,1.03,3.53,2.96,4.48,2.16,1.06,4.13,2.56,6.36,3.43,6.98,2.74,8.61,5.08,7.41,11.28-1.01,5.22-4.69,7.9-11.19,7.92Z"/>
  <path class="cls-146" d="m375.34,60.86c5.37.4,9.01,3.65,11.95,7.81.65.92,1.46,2.57-.53,3.29-1.46.53-2.89.72-3.67-1.23-1.23-3.06-3.11-5.41-6.79-5.55-2.18-.08-4.83-.32-5.76,1.83-.99,2.3-1.09,4.9,1.1,7.28,4.08,4.42,7.51,9.14,4.56,15.84-1.66,3.78-4.61,5.29-8.13,4.94-5.54-.55-9.85-3.74-12.88-8.37-.49-.76-2.22-2.31-.42-3.33,1.25-.7,2.86-.5,4,.91,1.46,1.79,2.97,3.54,4.58,5.19,2.38,2.43,5.39,2.22,7.62.36,1.95-1.63,2.53-4.47,1.05-6.99-1.41-2.41-3-4.73-4.67-6.97-2.32-3.1-3.4-6.55-1.53-9.98,1.92-3.51,5.17-5.47,9.5-5.03Z"/>
  <path class="cls-155" d="m134.22,85.99c0,5.92-8.54,13.24-14.38,12.23-1.17-.2-3.07-.12-2.6-2.14.33-1.44.52-3.21,3.19-2.49,2.87.77,5.35-.67,7.53-2.74,2.03-1.93,2.97-4.02,1.96-6.65-1.17-3.04-3.81-3.48-6.59-3.07-2.29.33-4.51,1.06-6.79,1.52-6.86,1.39-10.15-.18-12.34-5.83-1.49-3.83,1.24-10.08,5.65-12.51,1.73-.95,3.66-1.68,5.58-2.06,1.33-.26,3.52-1.51,3.92,1.23.36,2.47-1.05,2.66-3.31,2.74-6.13.21-9.65,5.95-6.87,10.6.89,1.49,1.46,2.23,3.75,1.61,4.07-1.11,8.43-.94,12.58-2.28,3.22-1.05,9.65,4.06,8.73,9.84Z"/>
  <path class="cls-153" d="m115.67,431.7c-3.44-1.71-3.85-3.83-2.55-6.37,1.91-3.74.39-6.23-2.76-8.26-.97-.62-1.98-1.28-2.73-2.13-3.32-3.76-6.86-4.89-10.88-1.1-1.97,1.85-3.53.74-4.43-.9-1.24-2.25,1.37-2.31,2.37-2.84,7.76-4.1,15.63-7.99,23.45-11.99,2.01-1.03,3.83-1.73,5.95-.06,2.26,1.78.37,3.35-.06,4.87-2.67,9.49-5.48,18.94-8.36,28.8Z"/>
  <path class="cls-152" d="m361.08,407.98c-.03-3.2,2.32-4.17,5.73-2.28,4.34,2.41,8.53,5.09,12.75,7.72,3.78,2.36,7.54,4.77,11.21,7.29.69.48,2.34.3,1.96,1.69-.32,1.18-1.58,1.7-2.76,1.76-.77.04-1.58-.34-2.33-.64-2.06-.8-3.71-3.9-6.09-2.4-3.89,2.46-8.17,4.41-11.44,7.82-1.09,1.13-.39,2.1-.07,3.18.37,1.27.64,2.57.99,3.84.45,1.62-.25,2.58-1.77,2.97-1.92.5-1.99-.68-2.25-2.19-.69-3.99-2.07-7.9-2.47-11.91-.6-5.86-2.58-11.39-3.46-16.87Z"/>
  <path class="cls-156" d="m337.98,79.26c-7.85-2.14-12.32-7.15-12.88-15.36-.5-7.34,1.9-13.74,8.31-17.41,6.79-3.89,13.83-3.3,20.62,1.19,2.7,1.78,2.58,4.82,5.29,6.96-2.94.63-4.41,1.71-6.13-1.71-3.01-6-12.57-6.53-18.33-1.7-5.13,4.3-6.65,11.38-4.4,17.64,2.41,6.71,9.49,7.93,15.03,6.63,1.15-.27,2.07-1.02,3.01.33.9,1.29,1.1,2.4-.39,3.37-3.37.76-6.75.62-10.13.07Z"/>
  <path class="cls-154" d="m67.11,323.25c.8,1.83,1.58,3.42-.29,5.35-6.32,6.53-12.38,13.31-18.68,19.85-.91.95-1.72,3.58-3.74,1.89-1.86-1.56-1.23-3.24.53-4.96,4.49-4.4,4.44-4.53,1.05-10.12-.44-.73-.73-1.39-.89-2.18-.87-4.19-2.77-6.92-7.75-6.01-2.84.52-4.86-.62-4.98-3.88,11.59-.99,23.17-1.09,34.75.06Z"/>
  <path class="cls-144" d="m218.96,442.8c-4.18-.67-8.52-.85-12.48-2.17-2.82-.94-3.14-.05-3.47,2.11-.17,1.14-.34,2.38-.89,3.36-1.94,3.41-.98,4.68,2.86,4.98,3.2.25,6.33,1.34,9.51,1.93,1.3.24,1.67.92,1.47,2.05-.25,1.37-1.43,1.3-2.34,1.13-3.23-.59-6.46-1.25-9.66-2.02-2.36-.57-3.45-.14-4.08,2.58-1.82,7.94-1.99,7.88,5.99,9.5,2.56.52,5.08,1.22,7.63,1.78,1,.22,1.35.75,1.3,1.73-.06,1.16-.9,1.41-1.7,1.27-5.9-1.06-11.87-1.92-17.65-3.44-2.45-.64-1.63-3.5-.99-5.22,2.64-7.12,3.41-14.61,4.66-22,.42-2.48,1.55-3.39,4.28-3.48,4.76-.17,8.94,2.52,13.63,2.24,1.61.72,4.04,1.01,1.9,3.67Z"/>
  <path class="cls-148" d="m159.18,439.15c-1.27-.36-2.56-.67-3.82-1.08-6.48-2.1-6.26-2-9.53,4.37-.91,1.78-.25,6.67-4.34,4.72-3.59-1.72-.16-4.61.7-6.5,3.01-6.62,6.81-12.89,9.77-19.54,1.46-3.28,2.83-3.22,5.45-1.69,2.42,1.41,5.07,2.43,7.61,3.62,2.7,1.71,5.01,3.67,5.29,7.2.51,6.37-3.67,9.73-11.14,8.89Z"/>
  <path class="cls-149" d="m262.4,466.24c-.97-6.8-1.79-13.62-2.95-20.38-.76-4.46-.72-4.88,3.69-4.8,3.88.06,7.54-2.24,11.65-.47,4.28,1.85,5.76,4.18,5.35,10.33-.28,4.16-3.46,5.15-6.62,6.17-.45.15-1.01-.06-1.49.04-7.17,1.51-8.22,1.1-6.03,8.18.52,1.67.09,3.63.1,5.46,0,1.21.03,2.35-1.7,2.38-1.71.03-2.37-.71-2.27-2.4.09-1.49.02-2.99.02-4.48.08-.01.16-.03.25-.04Z"/>
  <path class="cls-168" d="m140.87,428.19c-3.45.42-6.21-1.28-8.59-3.32-2.44-2.09-3.89-1.58-5.34.92-1.49,2.55-2.97,5.12-4.7,7.5-.64.88-1.91,1.97-3.23.97-1.26-.95-1.14-2.02-.07-3.34,5.41-6.72,9.34-14.42,13.97-21.66,1.55-2.42,2.91-2.74,5.22-1.43,3.19,1.81,6.17,3.84,8.8,6.45,2.65,2.62,2.71,5.46,1.4,8.62-1.38,3.33-3.52,5.59-7.47,5.29Z"/>
  <path class="cls-185" d="m137.53,53.31c-2.12,1.12-4.2,2.16-6.22,3.31-1.23.7-2.57,1.32-3.63.22-.36-.37-2.57-1.59,0-2.8,6.9-3.27,13.66-6.81,20.46-10.3,1.47-.75,2.37-1.27,3.39.88.99,2.08-.27,2.09-1.39,2.68-2.59,1.39-5.14,2.86-7.71,4.29,1.43,2.42,2.99,4.78,4.26,7.29,2.85,5.62,5.55,11.33,8.34,16.99.75,1.51,1.63,2.84-.65,3.97-2.14,1.05-2.62-.42-3.29-1.76-3.6-7.24-7.17-14.5-10.8-21.74-.62-1.24-.86-2.93-2.76-3.03Z"/>
  <path class="cls-194" d="m212.25,39.05c-.02-.21-.03-1.21-.19-2.19-.58-3.61-.38-8.12-6.4-5.74-.56.22-1.35.11-1.97-.07-1.53-.43-4.21,1.51-4.46-1.4-.25-2.95,2.52-2.35,4.39-2.61,5.98-.83,11.94-1.73,17.92-2.51,1.39-.18,3.29-1.65,3.83,1.25.44,2.39-1.83,2.29-2.64,2.29-7.59.03-8.07,3.87-6.75,10.22,1.25,6.01,1.33,12.28,2.88,18.29.38,1.48.9,2.99-.75,3.97-.65.39-1.65.68-2.3.45-1.72-.6-1.76-2.14-1.65-3.72.42-5.93-2.53-11.49-1.94-18.24Z"/>
  <path class="cls-188" d="m298.5,32.29c-1.51-.02-1.99,1.59-2.32,3.19-1.41,6.95-2.75,13.91-4.11,20.87-.25,1.29-.57,2.58-.73,3.89-.2,1.64-.99,2.36-2.65,2.06-1.92-.35-1.64-1.49-1.32-2.96,1.7-7.96,3.1-15.99,5.02-23.9.75-3.07.5-4.24-2.89-4.34-1.89-.05-3.69-1.21-5.75-.98-1.6.18-1.84-.97-1.76-2.3.11-1.63,1.21-1.92,2.44-1.67,7.39,1.55,14.9,2.52,22.11,4.9,1.01.33,2.97-.48,2.09,2.09-.72,2.11-1.71,1.82-3.31,1.21-2-.77-4.11-1.26-6.81-2.05Z"/>
  <path class="cls-165" d="m433.96,379.01c-.63.86-1.08,1.54-1.59,2.17-2.63,3.2-5.34,6.32-7.88,9.59-1.52,1.96-2.58,2.2-4.68.43-6.56-5.53-13.4-10.74-20.09-16.13-.87-.7-2.84-1.05-1.5-2.9,1.19-1.64,2.43-1.7,4.1-.33,5.48,4.51,11.24,8.71,16.59,13.36,2.87,2.49,4.59,2.36,6.58-.83,1.39-2.22,3.25-4.16,4.98-6.15.51-.59,1.27-1.21,2.16-.63.49.32.84.88,1.33,1.42Z"/>
  <path class="cls-161" d="m175.02,427.64c2.8.2,2,1.82,1.42,3.45-2.51,7.06-4.79,14.21-7.56,21.17-1.13,2.84-.18,3.92,2.16,4.7,2.47.83,4.99,1.51,7.44,2.39,1.33.47,3.29.88,2.43,2.93-.73,1.74-2.27.72-3.43.29-2.63-.98-5.15-2.41-7.86-3.01-4.76-1.07-7.54-3.03-5.42-8.38,1.42-6.79,4.08-13.15,6.7-19.53.8-1.95,1.11-4.34,4.11-4.01Z"/>
  <path class="cls-187" d="m309.91,68.13c-1.05-.69-2.17-1.12-1.49-2.98,3.57-9.71,6.46-19.63,8.68-29.73.33-1.49,1.28-1.39,2.18-1.07,1.07.38,2.89.21,2.23,2.38-3,9.77-5.92,19.56-8.99,29.31-.31.97-1.15,2.05-2.62,2.09Z"/>
  <path class="cls-179" d="m195.2,436.84c-2.41,8.58-4.8,17.17-7.26,25.73-.44,1.54-1.71,2.74-3.27,2.17-1.76-.63-1.1-1.83-.57-3.51,2.61-8.22,4.88-16.55,6.91-24.94.46-1.89.85-2.61,2.71-2.41,2.07.22,1.64,1.64,1.48,2.95Z"/>
  <path class="cls-143" d="m394.24,376.78c.75.57,1.41,1.01,1.99,1.54,6.36,5.82,12.76,11.6,19,17.55.95.91,3.8,1.66,1.27,4.12-2.26,2.21-2.91-.31-3.84-1.15-6.38-5.8-12.65-11.73-18.96-17.62-.81-.75-2.18-1.31-1.47-2.73.33-.66,1.21-1.06,2.01-1.72Z"/>
  <path class="cls-171" d="m236.25,46.11c-.1-2.62-.2-5.25-.29-7.87-.6-4.63-.35-9.27-.15-13.91,2.31-1.23,3.67-.89,3.82,2.06.13,2.59-.58,5.24.47,7.78l.17-.07c1.01,5.68-.41,11.47.76,17.15-.97,1.4-1.05,2.99-.88,4.6.26,2.46-1.07,2.69-2.96,2.21-1.47-3.89.26-8.03-.94-11.94Z"/>
  <path class="cls-163" d="m412.88,354.92c6.52,5.86,14.35,9.91,21.24,15.26,1.25.97,4.61,1.3,2.49,4.18-1.86,2.54-3.16-.25-4.32-1.04-6.73-4.53-13.22-9.41-19.99-13.86-3.68-2.41-2.63-3.45.69-4.45,0,0-.11-.09-.11-.09Z"/>
  <path class="cls-134" d="m88.2,361.14c-7.66,6.31-15.32,12.62-22.99,18.93-1.34-1.27-1.83-3.73-4.46-3.19,7.65-4.86,15.29-9.75,22.97-14.56,1.65-1.03,3.74-1.59,3.29-4.21,1.41.61,1.1,1.9,1.19,3.04Z"/>
  <path class="cls-135" d="m175.02,427.64c-3.83,3.96-4.32,9.49-6.67,14.14-1.54,3.06-1.4,6.86-4.14,9.39-.02-1.49-.39-3.08,0-4.46,1.31-4.62-.08-7.21-5.03-7.56,4.34.38,7.96-.97,9.6-5.19,1.75-4.48-.62-7.91-3.75-10.9,3.74.63,6.57,3.23,9.98,4.58Z"/>
  <path class="cls-217" d="m67.11,323.25c-11.59-.02-23.17-.04-34.76-.06.45-1.22,1.53-1.09,2.49-1.1,9.92-.02,19.84-.01,29.77-.01,1.01,0,2,.07,2.5,1.17Z"/>
  <path class="cls-272" d="m65.04,231.93c-.01,10.11-.02,20.21-.03,30.32-1.43-10.11-1.45-20.21.03-30.32Z"/>
  <path class="cls-66" d="m34.38,263.17c-.15-9.12-1.03-18.25.65-27.33-.03,9.11.85,18.25-.65,27.33Z"/>
  <path class="cls-12" d="m233.02,430.17c8.4.01,16.81.02,25.21.03-8.41,1.37-16.81,1.4-25.21-.03Z"/>
  <path class="cls-215" d="m241.03,51.24c-1.69-5.65-.79-11.42-.76-17.15,1.61,5.66.59,11.43.76,17.15Z"/>
  <path class="cls-95" d="m303.28,447.14c-.22-2-.45-4-.67-5.99.78.24,1.57.47,2.35.71.4,3.03.8,6.06,1.19,9.08-2.42-.16-.68-3.47-2.87-3.8Z"/>
  <path class="cls-224" d="m456.13,229.03c1.44,5.33,1.02,10.75.74,16.16-1.5-5.33-.73-10.76-.74-16.16Z"/>
  <path class="cls-274" d="m236.17,24.17c-.07,4.69-.14,9.38-.22,14.07-.87-5-1.95-10.01.23-14.97.31.21.41.41.3.61-.1.2-.21.3-.31.3Z"/>
  <path class="cls-210" d="m427.22,255.17c.01-5.06.02-10.12.03-15.19,1.41,5.06,1.21,10.13-.03,15.19Z"/>
  <path class="cls-213" d="m458.76,257.98c.82-4.56-.82-9.37,1.34-13.8-.65,4.58,1.26,9.41-1.34,13.8Z"/>
  <path class="cls-76" d="m236.17,24.17c-.04-.3-.03-.6.01-.9,2.49-.41,4.13.15,3.99,3.17-.12,2.57-.06,5.16-.08,7.73-1.74-2.02-.81-4.45-.92-6.69-.1-2.13-.41-3.64-3.01-3.31Z"/>
  <path class="cls-201" d="m218.96,442.8c.52-1.82-.47-2.86-1.9-3.67,1.57-.68,2.74.45,4.07.88-.56,2.25,1.06,4.87-1.18,6.83-.12-1.4.93-3.08-.98-4.04Z"/>
  <path class="cls-27" d="m44.08,157.05c0,4.38-.01,8.75-.02,13.13-1.29-4.38-1.63-8.75.02-13.13Z"/>
  <path class="cls-224" d="m456.88,247.98c.25,4.43.58,8.86-.75,13.2-.12-4.42-.69-8.87.75-13.2Z"/>
  <path class="cls-37" d="m219.07,458.97c.26,4.09.37,8.16-.78,12.16-.22-4.08-.68-8.18.78-12.16Z"/>
  <path class="cls-273" d="m236.25,46.11c1.59,3.88.55,7.97.94,11.94-1.95-3.85-.95-7.94-.94-11.94Z"/>
  <path class="cls-204" d="m31.17,250.11c2.01,3.88.81,7.99.89,12.01-1.62-3.91-.51-8.01-.89-12.01Z"/>
  <path class="cls-103" d="m232.15,440.01c-3.69-.03-7.38-.06-11.07-.1,3.7-1.36,7.4-1.57,11.07.1Z"/>
  <path class="cls-244" d="m337.98,79.26c3.38-.02,6.76-.05,10.13-.07-3.37,1.39-6.74,1.72-10.13.07Z"/>
  <path class="cls-265" d="m447.3,162.19c-.03-3.4-.06-6.79-.1-10.19,1.29,3.39,1.29,6.78.1,10.19Z"/>
  <path class="cls-57" d="m426.94,232.23c-1.48-3.3-.82-6.76-.75-10.18,1.57,3.3.72,6.77.75,10.18Z"/>
  <path class="cls-227" d="m222.98,472.13c3.43,0,6.86.02,10.29.02-3.43,1.48-6.86,1.23-10.29-.02Z"/>
  <path class="cls-263" d="m458.97,277.14c-3.39-2.71-2.13-5.94-1.01-9.15.11,3.07-.27,6.2,1.01,9.15Z"/>
  <path class="cls-23" d="m413.88,252.74c-4.53,7.69-8.36,15.84-14.67,22.36-.99,3.22-3.03,2.68-4.87,1.08-10.89-9.49-24.32-12.36-37.95-14.72-2.13-.37-4.29-.52-6.29-1.42-7.64-1.01-15.27-.86-22.9-.04-2.14,1-4.47,1.2-6.75,1.65-.83.16-1.75.56-1.79,1.48-.05,1.32,1.13,1.45,2.1,1.56,1.98.23,3.98.06,5.97.33,16.8,2.27,33.2,16.94,37.25,33.37.38,1.53,1.29,3.24-.67,4.47-3.17,1.04-6.44.39-9.65.59-1.74.11-3.6-.4-5.12.91-1.4,1.54-1.04,3.43-1.05,5.22-.04,5.96.03,11.92-.04,17.88-.02,2.12.3,4.36-1.46,6.09-2.12,1.34-4.49.98-6.79.99-7.46.03-14.93.03-22.39,0-7.2-.03-8.18-.94-8.19-7.91-.01-17.09-.07-34.17.02-51.25.11-1.76-.56-2.86-2.49-2.86-12.02,0-24.03-.32-36.04.18-.47.02-.87.44-1.24.76-.93,6.72-.11,13.46-.39,20.17-.11,2.61.35,5.27-.59,7.83-.27.56-.68.98-1.22,1.29-6.65,1.11-13.31,1.02-19.97.08-.57-.28-1.01-.71-1.31-1.27-1.19-8.84-.73-17.69-.29-26.55.25-.84.69-1.55,1.34-2.14,11.34-4.78,22.91-9.25,34.77-12.2,8.99-2.23,18.02,1.22,26.44,5.51,8.87,4.52,18,8.58,27.11,12.63,2.5,1.11,4.63,2.63,6.28,4.78,1.64,2.13,3.56,2.92,6.06,1.56,2.64-2.11,2.76-3.76-.87-4.71-10.32.72-18.22-5.74-27.01-9.36-7.35-3.03-14.43-6.82-21.73-10.04-8.24-3.64-10.32-3.53-18.66-.51-8.76,3.16-17.52,6.34-26.36,9.26-2.02.67-4.05,1.71-6.25.53-2.5-3.04-1.15-6.65-1.43-10-.29-3.43.36-6.91-.43-10.32-.56-1.39-1.55-2.47-2.59-3.51-.91-1.16-1.94-2.21-3.06-3.17-7-6.21-8.34-14.78-8.58-23.24-.3-10.71,1.02-21.34,8.86-29.8.88-.83,2.08-1.19,2.98-2,.31-.35.64-.68.97-1.02,1.02-1.05,2.02-2.1,2.56-3.5.57-16.78.14-33.55.2-50.32,0-.85-.36-1.61-.73-2.34-5.69-7.11-12.55-13.1-18.8-19.67-1.22-1.28-2.92-2.23-4.42-.97-6.57,5.47-14.39,9.39-19.9,16.15-.66,7.83-.25,15.66-.25,23.48,0,26.15-.17,52.3.09,78.42,2.04,2.14,2.24-.41,3.09-1.25.36-.69.76-1.35,1.01-2.1,1.75-4.69.83-9.56.95-14.35.15-5.98,0-11.97.05-17.96.09-10.83,1.66-12.35,12.49-12.18.89.04,1.78.06,2.67.07,1.2-.03,2.4,0,3.6.14.62.07,1.2.23,1.77.47,2.44,1.44,2.28,3.91,2.3,6.2.12,13.32.02,26.63,0,39.95,0,4.05-1.03,7.9-2.57,11.62-.44.98-1.01,1.89-1.65,2.75-.87,1.1-1.64,2.29-2.51,3.4-.43.53-.9,1.03-1.37,1.51-.46.51-.95,1.01-1.45,1.48-3.94,3.36-8.62,5.01-13.62,5.93-.47.08-.94.12-1.41.15-1.19.08-2.32.28-3.02,1.42-1.05,9.27-.15,18.55-.47,27.81-.08,2.27.46,4.7-1.38,6.61-3.18,1.13-5-.93-6.87-2.9-1.8-3.19-1.3-6.73-1.48-10.17-.38-7.05.72-14.14-.62-21.1-.12.19-.34.3-.34.42-.11,10.51.78,11.27-12.73,11.12-6.48-.07-12.97,0-19.45-.03-1.99-.01-4.02.07-5.74-1.24-1.51-2.05-1.13-4.44-1.13-6.72.03-17.22-.2-34.43.16-51.63-.3-.45-.59-.91-.9-1.35-2.14-2.69-4.91-3.3-8.28-3.18-6.99.25-13.99.06-20.99.09-4.03.02-7.68,1.25-10.98,3.52-.53,7.32-.07,14.63-.23,21.93-.04,1.82.14,3.66-.54,5.43-.26.57-.66,1.02-1.18,1.35-4.39,1.45-8.92.62-13.38.71-7.82.17-15.65-.04-23.48.1-.58.05-1.16.07-1.74.06-1.42-.39-1.78-1.27-1.17-2.59,2.71-35.87,14.97-68.18,36.98-96.57,26.88-34.67,61.89-56.67,104.94-65.58,7.89-1.63,15.83-3.24,23.98-2.77,7.09-.69,14.19-.72,21.28.02,12.8.45,25.26,2.76,37.62,6.07,16.16,4.33,31.26,10.96,45.3,19.97,17.83,11.45,33.18,25.4,46.3,42.29,14.31,18.41,24.34,38.6,30.74,60.77,2.45,8.48,4.4,17.11,4.9,26.02.43,7.72-2.7,14.54-4.95,21.57-.74,2.31-1.7,4.57-2.27,6.95Z"/>
  <path class="cls-271" d="m108.24,255.04c1.52-1.35,2.38-2.95,1.86-5.05-2.39-2.77-.24-6.46-1.94-9.36-.39-.32-.78-.62-1.22-.86-9.72-.68-19.43-.14-29.13-.25-1.2-.01-2.29.25-2.9,1.46-.72,11.01-.22,22.02-.25,33.02.13,2.89-.51,5.63-1.59,8.29.13.74-.01,1.34-.82,1.58-.57-6.04-2.83-11.81-2.9-17.93.26-9.13-.52-18.25-.14-27.38.03-.95.27-1.82.9-2.55v-.08c11.21-.71,22.44-.1,33.66-.34,1.77-.04,3.64.52,5.32-.53v-.02c1.26-7.55.2-15.15.58-22.72.12-2.46-.49-4.96.43-7.37,11.13-1.97,22.37-1.22,33.58-1.32,3.06-.03,5.8,1.08,8.45,2.48h-.03c.73.95.92,1.97.48,3.09-.9,1.28-2.05,1.81-3.58,1.19-.67-.5-1.13-1.19-1.62-1.85-2.54-1.86-5.46-.96-8.21-1.02-6.3-.13-12.6-.1-18.91,0-2.48.04-5.07-.02-6.41,2.75-.53,2.15-.28,4.32-.28,6.48-.02,34.24,0,68.48-.05,102.72,0,2.56.76,5.39-1.51,7.54-.94-.86-1.89-1.72-2.83-2.59-.95-19.21-.18-38.44-.42-57.65-.04-3.31.01-6.63-.06-9.94-.04-.62-.19-1.21-.47-1.77Z"/>
  <path class="cls-68" d="m419.22,268.99c-.21-1.68.05-3.45-1.05-4.94-2.45-8.28,1.58-15.31,4.68-23.56.84,12.85-.41,24.64-1.92,36.41-2.97-2.11-.32-5.45-1.72-7.9Z"/>
  <path class="cls-222" d="m70.13,235.99c-.02.76-.05,1.53-.07,2.29-.87,5.72-.11,11.47-.41,17.2-.08,1.58.59,3.3-.62,4.74-1.39-8.74-1.43-17.47.04-26.2.36.66.71,1.32,1.07,1.98Z"/>
  <path class="cls-105" d="m69.02,260.21c.03-5.76.01-11.52.12-17.28.03-1.57-.54-3.33.91-4.65-.13,9.22.99,18.47-.69,27.65-.12-1.9-.23-3.81-.35-5.71Z"/>
  <path class="cls-90" d="m256.24,69.1c-7.09,0-14.19-.01-21.28-.02,7.09-1.53,14.19-1.56,21.28.02Z"/>
  <path class="cls-232" d="m419.22,268.99c1.82,2.36-.13,5.55,1.72,7.9,0,.99.01,1.99.02,2.98-3.22-.51-1.58-2.99-1.75-4.61-.22-2.07-.01-4.19.01-6.28Z"/>
  <path class="cls-176" d="m236.06,354.12c6.32,4.6,13.57,7.48,20.55,10.82,18.34,8.76,38.08,10.82,57.8,8.73,16.78-1.77,33.47-1.18,50.2-1.55,1.98-.04,4.02-.21,5.99,1.42-5.82,8.81-14.6,13.52-23.99,17.29-2.3.92-4.72,1.44-6.63,3.15-2.8,3.13-6.79,4.12-10.49,5.35-17.37,5.77-34.94,5.7-52.5.88-13.78-3.79-26.46-9.82-37.51-19.03-7.03-5.86-13.04-12.49-14.51-21.93-.45-2.92-1.54-7.06,1.96-8.54,3.35-1.41,6.76.41,9.13,3.39Z"/>
  <path class="cls-23" d="m306.08,370.86c-3.44.86-6.62-.89-9.96-.97-3.32-1.03-6.82.32-10.13-.76-5.12-.4-10.08-1.48-14.84-3.42-1.15-1.54-1.42-3.3-1.42-5.17-.01-27.2-.05-54.4.03-81.6,0-1,.11-1.99.44-2.94.26-.63.67-1.13,1.23-1.51,5.16-1.56,10.46-.72,15.69-.73,5.74-.01,11.52-.72,17.23.58,2.72,1.24,3.13,3.64,3.14,6.24.06,28.37.04,56.74.02,85.11,0,1.87-.33,3.63-1.41,5.19Z"/>
  <path class="cls-123" d="m346,394.1c-2.18,3.82-6.3,5.17-9.73,7.24-15,9.03-30.99,15.78-48.06,19.85-4.05.43-8.1.69-12.13-.14-6.5-.61-12.63-2.54-18.6-5.11-8.65-3.73-17.2-7.62-24.31-14.01-3.59-2.33-4.6-6.34-5.97-9.91-2.25-5.82-3.71-11.91-3.46-18.27.41-2.66-.9-5.69,1.71-7.87.98-.06,1.45.62,1.91,1.32,12.64,19.01,31.61,28.33,52.8,33.78,19.74,5.08,39.14,3.61,57.74-5.26,1.29-.61,2.56-1.7,4.16-.71,1.32-.3,2.63-.61,3.95-.91Z"/>
  <path class="cls-4" d="m224.95,374.07c.33,9.99,3.55,19.13,8.21,27.85-1.85,2.81,1.84,2.82,2.31,4.42-1.34,1.67-3.19-2.73-4.34.46-4.61.47-7.1-3.17-9.9-5.62-9.48-8.31-18.91-16.77-23.88-28.86-1.28-3.11-4.03-3.2-6.73-2.97-7.22.61-13.78-1.15-19.98-4.82-7.41-4.38-12.4-10.41-13.78-19.09-.12-2.99-.08-5.98-.07-8.97,3.03-18.53,18.73-24.84,32.01-16.16,1.85,1.21,3.41,2.72,4,4.92.88,3.26.15,5.66-3.69,6.05-3.2.32-6.32.72-8.28,3.74-.46.64-1.04,1.15-1.75,1.51-7.11,2.91-10.86,12.11-7.81,19.12.78,1.78,2.08,2.92,3.79,3.77,14.62,7.24,34.28,2.18,43.62-11.26.67-.96,1.31-1.92,2.3-2.59,2.01-.8,3.93-1.79,5.87-2.74,1.04.45,1.25,1.59,1.91,2.34.58.58,1.31.89,2.06,1.17,1.76.82,3.75,1.33,4.71,3.29.12,1.46,1.75,2.72.6,4.36,0,0-.1.16-.1.16-2.17-.8-4.37-1.53-6.49-2.43-2.82-1.21-3.44.03-3.56,2.64-.54,11.42,6.16,18.89,14.03,25.58,14.03,11.93,30.6,18.87,48.53,21.47,15.31,2.22,30.85,1.81,45.36-5.26,1.91-.93,4.04-1.43,6.07-2.12.83.06,1.62.18,2.06,1.02-7.05,3.22-14.04,6.54-21.73,8.11-17.3,3.54-34.16,1.94-50.73-3.95-14.36-5.1-27.21-12.6-37.71-23.79-2.5-2.66-4.65-5.62-5.91-9.12-2.75,2.28-.96,5.17-1.03,7.8Z"/>
  <path class="cls-60" d="m360.08,273.06c12.01,10.44,20.97,22.81,24.36,38.67.72,3.38,1.15,6.83,1.71,10.24.52,7.63.92,15.26-.23,22.87l-1.95,1.19c-5.77,4.61-12.98,6.32-19.42,9.6-7.79,3.97-15.85,7.42-24.47,9.32-1.11-.08-2.03-.42-2.3-1.66,1.28-3.35,4.54-4.72,7.03-6.8,10.75-9,18.33-20,21.76-33.7,4.51-18.01-2.82-38.56-17.59-49.73-2.47-1.87-5.59-3.04-7.17-6,.09-1.36,1.05-1.64,2.15-1.78,6.01,1.27,12.48,1.61,16.11,7.8Z"/>
  <path class="cls-20" d="m267.2,364.18c-6.8-1.71-12.76-5.42-19.14-8.11-2.25-.98-3.22-2.8-3.25-5.15-.16-13.97-.17-27.93,0-41.9.02-1.18.32-2.31,1.11-3.24,6.3-2.17,12.76-.98,19.16-.8,2.14.06,3.24,1.8,3.23,3.79-.02,18.21.97,36.43-.49,54.64-.21.26-.43.52-.64.77Z"/>
  <path class="cls-183" d="m360.08,273.06c-4.47-4.23-10.46-5.03-15.91-7.04-.96-.66-1.95-.5-2.87.05-.08.04.55.66.85,1.01,28.04,15.64,35.44,49.67,16.65,76.09-5.66,7.96-12.59,14.48-20.66,19.86-1.06,1.19-2.07,2.46-3.96,2.03-4.15-1.82-5.81,2.63-8.85,3.71-3.26,1.16-6.09,1.76-9.27.47.74-1.7,2.38-2.26,3.88-2.82,9.41-3.5,17.57-8.99,25.08-15.55.49-.48,1-.95,1.5-1.42,1.49-1.4,2.97-2.81,4.15-4.5,6.4-7.8,10.29-16.79,12.59-26.53.89-3.76.3-7.57.44-11.36.04-1.25-.3-2.47-.38-3.72.04-.51.19-.98.43-1.43-3.97-16.27-13.91-27.39-29.33-33.61-4.59-1.85-9.48-2.72-14.52-2.25-1.72.16-3.52.02-3.79-2.13-.28-2.23,1.4-3.19,3.24-3.73,2.16-.64,4.67.56,6.63-1.24,8.4-.62,16.79-.67,25.19.02,4.86,1.87,10.12,1.54,15.14,2.9,10.48,2.83,20.61,6.15,28.76,13.7,1.86,1.73,2.82.15,4.13-.49,3.2.71.9,2.6.63,3.78-.33,1.45-1.37.51-2.3.22-4.79-1.51-7.68-5.97-12.51-7.73-1.77-.64-3.39-.93-5.15-1.17-5.68,1.06-10.35-2.56-15.63-3.4-2.64-.42-5.08-1.91-7.7-1.96,2.73.89,6.33-.01,7.63,4-.92,1.85-2.32,3.22-4.1,4.22Z"/>
  <path class="cls-23" d="m346.24,350.97c-8.46,8.74-19.03,13.98-30.18,18.28-.34-.04-.67-.07-1.01-.11-3.83,1.29-5.25-.56-5.31-4.1-.12-7.96-.05-15.93-.03-23.89,0-3.7,1.73-5.46,5.46-5.47,8.96-.02,17.92-.04,26.88,0,3.74.02,5.44,1.85,5.41,5.53-.03,3.31.39,6.66-1.22,9.76Z"/>
  <path class="cls-30" d="m350.97,346.19c-1.23,1.23-2.47,2.46-3.7,3.69-1.51-3.17-.59-6.52-.59-9.76,0-2.9-1.01-3.67-3.77-3.63-9.48.14-18.96.17-28.44-.01-3.06-.06-4.02.84-3.96,3.93.19,8.98.07,17.96.07,26.95,0,.83.06,1.66-.3,2.45-1,.07-2,.14-3,.22-1.29-1.63-.63-3.54-.63-5.3-.05-27.65-.03-55.29-.05-82.94,0-1.82.23-3.66-.23-5.47-.66-1.08-1.69-1.69-2.89-1.68-10.77.16-21.56-.68-32.31.44l.02.07c-1.14,1.67-.56,3.55-.57,5.33-.04,26.4-.01,52.8-.06,79.2,0,1.76.64,3.65-.61,5.29-.99,0-2.07.29-2.74-.79,0,0-.13-.35-.13-.35,1.18-2.53.5-5.22.52-7.82.08-15.42-.04-30.84.1-46.25.03-3.14-.65-4.47-4.1-4.29-5.29.29-10.61.08-15.91.07-.64.04-1.22-.12-1.75-.47-.39-.94-.4-1.78.57-2.4,6.84-.55,13.75.67,20.57-.68l-.04-.03c1.4-8.36.2-16.79.62-25.17.08-1.63-.52-3.32.42-4.87,12.99-.77,26-.12,38.99-.34,1.8-.03,2.77.76,3.06,2.49,0,17.92.09,35.85-.11,53.77-.04,3.97.8,5.57,5.14,5.4,10.27-.39,20.56-.28,30.84-.37,1.36-7.14.25-14.35.62-21.51.14-2.78-.37-5.58.33-8.33,5.64-.72,11.27-.72,16.91,0l1.02,2.91c-.21.16-.41.31-.61.47-.25.04-.51.07-.76.11-2.75-.17-5.51-.13-8.27-.13-1.53,0-2.97.08-3.4,1.97-.51,9.32-.11,18.62-.18,27.92-.03,3.33-.08,6.64-.66,9.92Z"/>
  <path class="cls-177" d="m365.69,274.99c13.4,5.18,22.31,15.4,30.21,26.73,5.12,7.34,6.64,15.76,7.07,24.44.34,6.87-4.69,11.46-7.64,16.91-.79,1.45-2.68,1.08-4.15.77-1.86-.4-2.02-1.91-2.09-3.48-.3-6.78.03-13.53-.79-20.35-2.03-16.73-8.03-31.31-20.59-42.87-.72-.67-1.35-1.43-2.03-2.15Z"/>
  <path class="cls-141" d="m364.17,268.83c-2.04-2.68-5.86-1.92-8.85-4.76,9.07.7,16.72,3.81,24.55,6.11,4.58,2.96,9.15,5.91,13.73,8.87,7.23,4.66,11.89,11.49,15.71,18.94,1.68,3.28,2.24,6.88.71,10.56-1.06,2.55-1.88,5.2-3.28,7.91-1.98-6.47-4.14-12.68-7.99-18.29-8.31-12.11-18.67-21.82-31.72-28.59-.86-.44-1.91-.51-2.87-.76Z"/>
  <path class="cls-182" d="m246.33,303.11c-.13.65-.26,1.3-.38,1.95-.78,15.67-.11,31.35-.37,47.03-.03,1.64.96,2.76,1.53,4.1-.42.19-1.19.59-1.21.55-2.37-4.05-6.35-2.37-9.72-2.77.75-1.55-3.29-2.12-.83-4.02,1.54-1.37,3.48,1.12,4.99-.55.53-1.13.39-2.31.39-3.46-.02-31.86.07-63.72-.04-95.57.25-1.57-1.36-3.75,1.48-4.46,1.59-.02,1.87,1.64,2.93,2.29,1.35,7.22-.13,14.53.76,21.76.71.89,1.43,1.78,1.28,3.04-.29.38-.58.76-.87,1.14-1.22,9.31-.83,18.63-.2,27.95l.24.03c.22.22.3.44.23.66-.07.22-.14.34-.21.34Z"/>
  <path class="cls-126" d="m390.04,348.87c.24.2.73.46.69.59-2.47,9.26-14.11,18.41-23.65,18.54-3.66.05-7.31-.07-10.97-.12-2.96-1.34-6.46,1.02-9.27-1.35.16-1.61,1.41-2.16,2.67-2.62,10.66-3.88,20.75-9.04,31.05-13.72,2.9-1.32,5.98-3.29,9.46-1.33Z"/>
  <path class="cls-172" d="m416,262.12c1.42,7.7,1.16,15.48,1.04,23.25-.01.83.16,1.72-.09,2.48-.86,2.6-.08,6.69-2.74,7.51-2.83.87-2.42-3.53-4.19-5.2-2.73-2.58-4.73-5.92-7.18-8.81-1.24-1.46-1.58-2.1.03-3.92,3.7-4.17,7.35-8.47,10-13.48.5-.95.94-3.27,3.15-1.83,0,0-.01,0-.01,0Z"/>
  <path class="cls-191" d="m390.04,348.87c-5.59.28-10.28,3.2-15.14,5.44-9.11,4.21-18.21,8.41-27.64,11.87-.71.49-1.43.52-2.14,0-1.83-2.28-3.99-.7-5.05.35-2.71,2.67-2.5,2.89-3.99-.51.59-2.31,2.86-.98,4.1-1.89,13.36-4.33,25.92-10.57,38.68-16.33,1.63-.74,3.4-1.19,5.1-1.78,2.37.21,5.13-.4,6.06,2.85Z"/>
  <path class="cls-128" d="m307.04,275.15c.02,28.29.04,56.59.08,84.88,0,3.33.1,6.65.16,9.98-.22.53-.48,1.01-1.2.85,0-30,0-60.01.03-90.01,0-2.17.25-4.37-2.09-5.65.99-.86,2-.83,3.02-.05Z"/>
  <path class="cls-55" d="m269.94,364.96c.05-28.09.07-56.18.19-84.27,0-1.85-.96-4.03,1.05-5.55-.02,30.19-.03,60.37-.05,90.56-.4-.25-.8-.49-1.19-.74Z"/>
  <path class="cls-137" d="m310.28,369.8c-.04-9.97.03-19.95-.17-29.92-.06-3.15,1.15-3.96,4.09-3.92,9.64.13,19.29.11,28.93,0,2.93-.04,4.25.81,4.06,3.96-.21,3.31.04,6.64.09,9.97-.34.36-.69.73-1.03,1.1-.05-3.48-.22-6.96-.11-10.43.08-2.54-.84-3.55-3.44-3.53-9.44.09-18.89.08-28.33.02-2.33-.02-3.24.89-3.22,3.22.07,8.45.15,16.9-.05,25.35-.08,3.17,1.65,3.49,3.98,3.53-1.48,1.06-3.14.8-4.78.66Z"/>
  <path class="cls-237" d="m247.1,356.18c-1.58-.98-2.02-2.43-2.01-4.22.04-14.88.02-29.76.07-44.64,0-.76.51-1.51.78-2.27,0,0,.45-.03.45-.03.22.35.22.69-.06,1.02-.06,15.06-.08,30.12-.24,45.17-.02,2.03.78,3.45,1.97,4.84-.31.07-.63.11-.95.12Z"/>
  <path class="cls-245" d="m385.92,344.83c.08-7.62.16-15.24.23-22.87,1.29,7.64,1.84,15.26-.23,22.87Z"/>
  <path class="cls-40" d="m345.12,366.18c.71,0,1.42,0,2.14,0,2.64,2.2,6.18-.28,8.85,1.71-3.3.04-6.61.08-9.91.14-1.49.03-1.66-.68-1.08-1.84Z"/>
  <path class="cls-72" d="m285.98,369.12c3.39.05,6.85-.78,10.13.76-3.41.2-6.84.64-10.13-.76Z"/>
  <path class="cls-235" d="m340.19,364.13c-1.37.63-2.73,1.26-4.1,1.89-.76-.08-1.52-.15-1.91-.96,1.31-.69,2.25-2.11,3.96-2.03.34,1.01,1.25.95,2.05,1.1Z"/>
  <path class="cls-20" d="m120.15,332.01c-3.15.08-5.04-2.08-7.07-3.98-.59-1.09-.39-2.27-.39-3.42,0-37.84,0-75.67,0-113.51,0-.99-.08-2,.26-2.96,11.7-1.75,23.43-1.44,35.15-.31,1.29,2.94,1.48,6.04,1.48,9.21,0,22.39-.1,44.77.05,67.15.21,1.64.28,3.28,0,4.92-.42,1.51-1.47,2.55-2.68,3.45-12.13,8.99-19.81,21.06-24.44,35.24-.51,1.56-.74,3.27-2.35,4.2Z"/>
  <path class="cls-175" d="m129.38,381.27c-11.13-9.11-20.87-19.57-28.98-31.58-4.62-6.84-8.71-13.96-12.57-21.25-2.39-4.51-3.61-9.25-3.64-14.3-.09-12.76-.59-25.53,2.93-38.06,2.03-7.21,4.69-13.67,12.9-16.75-1,2.97-1.9,5.55-2.75,8.14-5.68,17.24-3.64,34.14,3.11,50.48,3.29,7.96,8.49,14.95,17.38,17.76,2.39.76,1.45,2.53,1.25,3.54-2.83,13.92,2.71,26.05,8.01,38.23.59,1.34,1.56,2.52,2.35,3.78Z"/>
  <path class="cls-122" d="m162.02,405.18c-6.48-4.02-13.09-7.83-19.38-12.12-3.51-2.4-4.77-6.85-7.54-10.01-3.63-7.5-8.22-14.57-10.2-22.8-.65-2.71-1.21-5.45-1.81-8.17-.7-3.69-.59-7.38-.06-11.08.1-.33.09-.66-.03-.98-.35-4.48-.28-8.96,1.4-13.18,3.95-9.96,8.92-19.32,16.63-26.97.71-.7,1.4-1.43,2.21-2.02,1.07-.79,2.21-1.79,3.59-.93,1.47.91.86,2.35.43,3.59-.71,2.04-1.46,4.07-2.04,6.15-2.53,7.59-4.18,15.37-5.11,23.31-.92,3.6-.88,7.21-.1,10.82,3.47,19.91,7.85,39.48,20.02,56.31,1.62,2.24,4.19,3.94,4.45,7.06-.4,1.37-1.3,1.54-2.48,1.03Z"/>
  <path class="cls-197" d="m144.18,306.07c-.15-3.21,2.81-5.52,2.75-9.76-13.66,12.16-21.78,26.28-23.94,43.7-.28-.73-.89-1.52-.78-2.19.59-3.48-.85-4.67-4.78-3.6,1.31-1.07,2.01-1.64,2.72-2.22,4.06-16.92,12.73-30.79,27.02-40.96.76-.54,1.32-1.37,1.98-2.07,1.07-.7,2.03-1.57,3.25-2.03.87-.4,1.72-.82,2.59-1.24,10.86-4.91,22.03-4.36,33.31-1.91,1.24.29,2.44.72,3.52,1.42.71.63,1.39,1.32,2.24,1.8,1.7.99,3.4,1.99,5.1,2.98,2.86-.35,1.39-2.57,1.41-3.82.14-9.38.05-18.77.1-28.16,0-1.61-.41-3.3.44-4.84,1.31-.47,2.61-.36,3.91.03,1.79,1.7,1.47,3.94,1.48,6.06.04,10.09,0,20.19.03,30.28,0,2.3-.22,4.67,1.36,6.64,4.7,4.58,8.18,10.23,12.79,14.83.12-19.44,0-38.82.03-58.21,0-2.66-.01-5.31,1.36-7.73.65-1.04,1.3-2.07,1.96-3.11,3.58,1.21,2.42,4.32,2.43,6.69.11,23.78.05,47.56.07,71.35,0,2.32-.27,4.66.53,6.92.47,1.49.98,2.98,1.24,4.53-.26,3.89,1.59,8.05-1.48,11.58-.55,2.95-3.03,2.51-5.05,2.88-.62-.86-.61-1.82-.48-2.8.22-3.17,2.13-6.6-1.46-9.17-.41-.27-.73-.6-.99-1.01,2.06-6.24,0-11.68-3.25-16.9-7.15-11.43-15.29-21.73-29.05-25.71-2.24-.65-4.53-.99-6.8-1.46-3.71-.74-7.42-.71-11.13-.01-2.26.48-4.46,1.21-6.71,1.72-5.98,1.36-9.93,4.78-12.09,10.54-.85,2.26-1.83,4.62-3.98,6.14-.92.12-1.34-.46-1.66-1.19Z"/>
  <path class="cls-22" d="m73.08,282.28c.08-2.74.17-5.49.25-8.23.82-9.59.07-19.2.41-28.79.09-2.55-.92-5.89,3.17-6.64,10.74.28,21.49-.65,32.21.48l.03.03c.72,3.57.95,7.14-.16,10.69-14.53,5.13-25.51,14.47-33.05,27.89-.88,1.57-1.91,3.05-2.86,4.57Z"/>
  <path class="cls-21" d="m108.24,255.04c.31-.02.6.03.89.13.86,1.2.51,2.58.51,3.88.02,19.97.04,39.94-.04,59.91,0,1.42,1.07,3.42-1.31,4.2-5.78-8.41-8.7-17.77-9.26-27.92-.59-5.13-.52-10.26-.05-15.4.56-9.21,3.89-17.39,9.24-24.81Z"/>
  <path class="cls-166" d="m84.91,272.95c-2.28,13.33-4.58,26.62-3.2,40.29-7.32-15.41-11.03-22.29,3.2-40.29Z"/>
  <path class="cls-100" d="m113.26,208.2c-.03,36.12-.05,72.23-.08,108.35,0,3.83-.06,7.65-.09,11.48-.35-.35-.7-.69-1.06-1.04.05-39.63.09-79.25.14-118.88.4-.41.76-.35,1.09.09Z"/>
  <path class="cls-94" d="m108.29,323.16c1.59-1.51.84-3.46.84-5.19.04-20.94,0-41.87-.01-62.81,1.61,1.05.99,2.71.99,4.11.05,20.32.06,40.63.05,60.95,0,1.44.47,3.04-.97,4.17-.3-.41-.6-.82-.9-1.24Z"/>
  <path class="cls-99" d="m98.99,279.84c.02,5.13.03,10.27.05,15.4-1.15-5.13-1.45-10.26-.05-15.4Z"/>
  <path class="cls-226" d="m123.03,341c.02,3.69.04,7.38.06,11.08-1.52-3.68-1.41-7.38-.06-11.08Z"/>
  <path class="cls-54" d="m109,249.82c.05-3.56.1-7.12.16-10.69,2.05,3.47.43,7.25.94,10.85-.37-.06-.73-.11-1.1-.17Z"/>
  <path class="cls-46" d="m145.21,307.18c1-1.84,2.32-3.57,2.95-5.52,3.11-9.74,10.84-12.62,19.85-13.73,4.1-.6,8.21-.48,12.32-.07,10.54,1.13,19.08,6.11,26.2,13.72,5.6,5.98,9.99,12.8,13.33,20.27,1.7,3.79,2.32,7.65-.87,11.14-.43,2.8-2.62,4.13-4.7,5.44-9.03,5.7-18.51,6.89-28.36,2.36-2.53-1.16-5.07-2.62-5.58-5.85-.65-1.29-1.01-2.45.82-3.17,2.31-.91,4.54-1.91,7.14-1.86,3.94.08,5.08-1.85,3.19-5.31-.53-.98-1.4-1.85-2.27-2.57-7.12-5.93-21.93-6.86-27.68,4.87-1.45,2.95-3.15,5.77-3.47,9.14-.73,3.34-.67,6.69-.03,10.03,4.73,15.1,15.48,22.49,32.86,21.92,4.29-.14,6.29,1.07,8.15,4.93,7.06,14.64,18.93,24.91,32.09,33.87,11.59,8.13,24.54,13.33,38.93,17.7-4.95.96-8.86,1.81-12.9,1.63-7.7.61-15.39.63-23.09-.01-18.09-1.37-35.6-5.24-52.54-11.84-5.57-2.17-10.11-5.5-14.25-9.6-3.26-1.32-5.03-4.29-6.86-6.9-11.5-16.41-17.26-34.95-19.65-54.68-.02-5.54,0-11.08-.03-16.62.39-6.68,1.71-13.16,4.46-19.3Z"/>
  <path class="cls-189" d="m145.21,307.18c.22,3.02-.86,5.82-1.72,8.6-1.03,3.31-1.51,6.65-1.51,10.08-.48,6.1-.68,12.19.09,18.29,2.98,21.15,9.18,41,23.23,57.69.74.88,1.33,1.89,1.99,2.83-.11.57-.22,1.14-.33,1.71-1.58.09-2.27-1.09-3.05-2.14-7.14-8.65-12.98-18.16-16.73-28.68-3.97-11.15-6.97-22.64-8.15-34.5-.59-3.68-.49-7.37-.06-11.06.55-8.24,2.16-16.25,5.22-23.94.34.37.68.74,1.03,1.11Z"/>
  <path class="cls-193" d="m234.07,426.12c7.7,0,15.39,0,23.09.01-7.7,1.46-15.39,1.44-23.09-.01Z"/>
  <path class="cls-33" d="m276.08,421.05c4.04.05,8.09.09,12.13.14-4.06,1.34-8.11,1.42-12.13-.14Z"/>
  <path class="cls-220" d="m163.91,404.25c1.02.71,2.03,1.42,3.05,2.14-2.45,2.88-3.33-.65-4.94-1.21.71-.16,1.53-.06,1.89-.93Z"/>
  <path class="cls-36" d="m39.11,208.15c1.97-10.7,7.28-17.54,15.89-21.95,1.39-.71,2.69-1.27,4.04.13,1.36,1.42.67,2.75-.08,4.06-2.09,3.67-5.16,6.32-8.61,8.73-3.63,2.53-6.93,5.53-11.24,9.03Z"/>
  <path class="cls-35" d="m47.56,174.38c-1.66-7.42-1.87-13.62-.37-19.82.34-1.42.73-2.98,1.59-4.09,1.84-2.37,3.78-2.66,4.95.69,1.33,3.79,2.22,7.45-.22,11.35-2.16,3.44-3.68,7.27-5.96,11.87Z"/>
  <path class="cls-219" d="m31.77,244.97c-4.24-7.79-6.82-15.06-5.69-23.27.18-1.33.29-2.87,1.9-3.12,1.51-.24,2.42,1.06,2.99,2.22,1.33,2.68,2.46,5.44,2.17,8.57-.46,4.88-.86,9.77-1.37,15.6Z"/>
  <path class="cls-11" d="m63.48,150.12c4.6-6.52,10.57-11.22,18.17-13.64,1.35-.43,3.3-1.01,4.03.6.7,1.55-1.01,2.51-2.11,3.51-5.7,5.14-13.14,6.69-20.08,9.53Z"/>
  <path class="cls-39" d="m451.99,201.99c-6.3-4.38-11.81-8.55-16.78-13.34-2.06-1.98-5.28-4.9-3.26-7.43,2.48-3.1,5.84.01,8.17,1.77,6.07,4.56,10.49,10.35,11.87,19Z"/>
  <path class="cls-28" d="m440.26,162.14c-.95-3.5-3.77-6.25-4.1-9.97-.11-1.28.08-2.64.38-3.9.48-2.07.97-4.72,3.45-4.79,2.17-.06,2.82,2.4,3.43,4.28.25.78.42,1.58.63,2.37,1.03,3.23.34,6.54.43,9.81.09,3.34-1.8,3.42-4.23,2.21Z"/>
  <path class="cls-9" d="m428.12,145.17c-8.85-3.83-17.5-5.94-23.48-13.15,7.1-2.28,17.94,3.64,23.48,13.15Z"/>
  <path class="cls-225" d="m463.14,230.23c.27,3.44-2.45,5.7-3.88,8.7-.4-5.93-.99-11.86-1.12-17.8-.09-3.84,3.05-8.55,4.76-7.77,3.63,1.64,2.44,5.37,2.6,8.27.08,1.43-.06,3.35-1.33,4.66-1.9-1.31-.91-3.66-2.32-5.97-.91,3.92-.7,7,1.29,9.91Z"/>
  <path class="cls-205" d="m463.14,230.23c-1.46-.2-3.14-.23-3.05-2.34.14-3.06-.78-6.21.62-9.15.17-.37,1.17-.53,1.76-.47,1.21.12,1.5,1.09,1.53,2.14.07,1.96.11,3.92.16,5.89-.1,1.38.13,2.84-1.03,3.94Z"/>
  <path class="cls-209" d="m440.26,162.14c2.63.25,4.04-.62,3.83-3.58-.2-2.8-.04-5.62-.03-8.43,2.18,6.04.68,12.04-.86,18.4l-2.94-6.39Z"/>
  <path class="cls-140" d="m175.4,57.29c-.94-5.11.35-9.79.76-14.51.21-2.35,1.48-1.9,2.59-.87.95.89,1.65,2.09,2.28,3.25,1.57,2.89,6.46,5.25,5.05,7.98-1.73,3.35-7.08,2.5-10.68,4.15Z"/>
  <path class="cls-123" d="m334.08,444.96c0,7.71-5.77,13.25-13.53,13.01-5.46-.17-11.35-7.8-11.47-14.84-.1-5.99,5.94-12.78,11.46-12.14,8.43.98,14.16,6.34,13.54,13.97Z"/>
  <path class="cls-130" d="m348.49,445.87q-4.97-9.87,2.35-13.21c3.51-1.62,6.08-.72,7.75,2.71,1.91,3.91-.85,6.78-10.1,10.5Z"/>
  <path class="cls-133" d="m350.12,424.75c0,3.05-5.49,8.99-7.84,8.04-3.07-1.24-4.37-5.16-4.39-7.61-.02-3.01,4.08-4.65,6.94-4.78,2.06-.1,6.1,0,5.29,4.36Z"/>
  <path class="cls-121" d="m96.21,380.34c.17,5.89-3.44,8.81-7.52,11.2-3.88,2.28-7.81,2.34-11.4-.86-.62-.55-1.35-.96-2-1.47-6.85-5.45-6.88-6.28-.35-11.74,3.81-3.19,7.63-6.35,11.4-9.58,1.02-.88,1.86-2.16,3.19-.53,3.24,3.96,7,7.66,6.68,12.97Z"/>
  <path class="cls-116" d="m403.08,405.47c-.09,2.17-5.15,9.02-6.75,9.15-.92.07-7.93-7.06-7.79-7.94.3-1.99,7.34-6.68,9.99-6.65,3.5.03,4.73,1.49,4.56,5.44Z"/>
  <path class="cls-125" d="m392.05,395.63c.02,2.17-4.22,8.19-6.16,8.09-.8-.04-6.87-6.17-6.84-6.9.04-1.19,7.2-6.93,8.75-6.78,2.9.28,4.39,1.97,4.25,5.59Z"/>
  <path class="cls-124" d="m223.01,458.88c.04-3.81.2-7.63.08-11.44-.07-2.43.43-3.72,3.26-3.42,5.97.64,12.26.13,15.52,7.02,2.1,4.43,1.66,8.71-.31,12.77-1.79,3.69-5.08,5.49-9.37,5.25-2.98-.17-5.98-.09-8.97-.12-1.02-3.34-.68-6.7-.2-10.06Z"/>
  <path class="cls-32" d="m223.01,458.88c.07,3.35.13,6.71.2,10.06-2.06-3.32-1.33-6.69-.2-10.06Z"/>
  <path class="cls-131" d="m285.29,441.57c8.14-2.53,12.99-2.15,13.69,1.34.54,2.68.82,5.89-2.96,6.81-2.7.65-5.93,2.96-8.13.13-1.58-2.02-1.7-5.19-2.6-8.28Z"/>
  <path class="cls-109" d="m120.31,402.64c-1.52,4.64-3.04,9.28-4.56,13.94-3.45-1.16-5.71-3.83-8.34-5.95-1.29-1.04-1.46-2.09.33-2.95,3.98-1.91,7.92-3.9,11.88-5.85.23.27.46.54.69.81Z"/>
  <path class="cls-111" d="m379.65,418.06q-11.63,8.07-13.53-4.75c-.16-1.06-.2-2.14-.36-3.9,4.22,2.67,7.82,4.96,11.42,7.23.7.44,1.42.82,2.46,1.42Z"/>
  <path class="cls-132" d="m56.23,326.23c1.92.05,3.88-.5,5.86.36-3.76,3.46-7.43,6.84-11.07,10.18-.93-1.92-2.36-4.85-3.78-7.78-1.07-1.9.12-2.28,1.63-2.41,2.45-.21,4.94.36,7.36-.36Z"/>
  <path class="cls-51" d="m56.23,326.23c-1.89,1.45-4.1.8-6.18.92-1.37.08-2.7-.04-2.81,1.85-1.98-2.01-1.01-2.72,1.26-2.75,2.58-.04,5.16-.01,7.74-.01Z"/>
  <path class="cls-118" d="m158.75,435.14c-2.45-.78-7.07-.54-7.07-4.24,0-2.47,1.29-6.89,4.88-7.74,2.83-.67,8.94,4.82,8.88,7.12-.07,2.96-2.74,5.08-6.69,4.86Z"/>
  <path class="cls-117" d="m264.31,450c.06-2-1.62-5.07.81-5.69,3.04-.78,6.67-1.1,9.73.38,2.19,1.06,1.33,3.6,1.2,5.46-.24,3.44-2.79,4.1-5.7,4.04-3.7,1.05-6.22.38-6.04-4.18Z"/>
  <path class="cls-64" d="m264.31,450c.63,3.38,2.74,4.64,6.04,4.18-5.84,1.72-6.22,1.46-6.04-4.18Z"/>
  <path class="cls-114" d="m145.07,419.5c-.1,2.88-2.87,5.85-5.39,5.18-3.26-.86-6.59-2.12-8.51-5.16-.63-.99,5.11-7.82,6.19-7.74,2.01.14,7.77,5.91,7.71,7.72Z"/>
  <path class="cls-136" d="m227.05,331.06c-.36-.99-.72-1.97-1.08-2.96-.78-7.1-.28-14.23-.31-21.34-.09-19.9-.03-39.8-.03-59.7,0-2.32.09-4.65-.53-6.92,2.09-4.93,3.11-10.01,3.05-15.42-.16-12.6.01-25.2-.07-37.8-.01-1.75,1-4.21-1.99-4.86-1.62-1.79-1.36-4.02-1.36-6.15-.03-17.58-.04-35.16,0-52.73,0-2.12-.3-4.36,1.37-6.12.94-.56,2.02-.62,2.79.09,4.82,4.5,10.38,8.35,13.33,14.57.18,3.95.83,7.94-.51,11.82-2.46,1.55-3,3.51-1.22,5.95.39.72.66,1.48.82,2.29.42,11.22.12,22.44.17,33.66,0,1.66-.11,3.31-1.32,4.64-5.76,7.03-8.35,15.4-8.77,24.17-.5,10.49.4,20.94,8.75,28.94,1.03,3.53.93,7.16.94,10.77.04,29.04-.08,58.07.09,87.11.04,7.08-.65,10.4-9.01,6.09-.58-.3-1.29-.25-1.96-.23-.71-.26-1.42-.51-2.13-.77-1.39-4.96.58-10.15-1.03-15.1Z"/>
  <path class="cls-7" d="m380.06,186.14c1.78.37,3.65.53,5.34,1.16,5.28,1.99,10.76,3.96,11.63,10.68.97,7.5-.1,14.24-9.02,18.05,7.3,2.68,11.36,7.19,12,13.95.97,10.12-5.57,17.79-15.83,19.06-1.31.16-2.65.16-3.97.24-9.75.39-19.5.62-29.24-.13-.83-6.92-.34-13.88-.33-20.81.03-14.07-.38-28.14.23-42.21,9.73-.85,19.47-.85,29.2,0Z"/>
  <path class="cls-3" d="m225.31,226.12c-1.23,5.98-2.32,12.06-6.93,16.59-3.63,3.57-7.86,6.08-13.08,6.54-4.76.46-9.52.64-14.28-.08-10.85-2.39-17.31-8.95-19.01-20.03-.51-14.67-.77-29.35.14-44.02l.02-.04c4.4-.73,8.79-.72,13.19,0,1.56,8.04.72,16.14.51,24.21-.15,5.62-.63,11.22.18,16.82,1.7,5.21,4.31,9.8,10.16,10.88,6.22,1.14,11.82-2.97,14.03-9.66.95-5.72-.01-11.49.52-17.22.7-8.34.15-16.74,1.22-25.06,4.35-.53,8.7-1.02,13.04.15l-.03.07c1.33,3.18.56,6.5.55,9.73-.03,10.38.42,20.76-.24,31.13Z"/>
  <path class="cls-2" d="m309.08,250.13c-5.15-.21-9.18-2.89-13.09-5.89-1.59-1.22-1.55-2.33-.23-3.63.12-.12.23-.24.34-.36,2.35-2.57,4.26-5.91,7.15-7.51,3.67-2.04,4.9,3.37,8.31,4.29,4.04,1.09,7.26-.08,10.7-.89,1.86-.44,3.1-2.07,2.94-4.57-.17-2.68-.57-4.82-3.36-5.97-5.11-2.1-10.62-3.15-15.46-5.96-4-2.32-8.06-4.54-9.31-9.54-.8-3.33-.62-6.67-.1-10.01,2.46-11.85,16.87-18.88,32.38-14.79.31.08.57.37.89.44,3.73.87,9.03,1.96,9.22,5.37.21,3.67-4.75,6.32-7.54,9.32-1.72,1.85-3.31-.33-4.82-.96-4.48-1.88-9.01-2.34-13.3.08-3.69,2.08-3.82,5.91-.33,8.34,3.22,2.24,6.92,3.39,10.78,4.38,14.44,3.71,18.94,11.88,14.49,25.6-2.39,7.36-8.82,11.19-16.54,12.4-4.37.41-8.74.64-13.1-.14Z"/>
  <path class="cls-1" d="m262.06,250.22c-13.61-2.75-24.22-10.47-27.14-26.98-.47-3.77-.43-7.54-.02-11.31,1.57-14.68,10.12-23.43,27.19-27.84,3.67-.81,7.35-.64,11.04-.09,5.14,1.06,9.79,3.28,14.13,6.14,2.72,1.79,3.54,3.84.1,5.9-.98.59-1.96,1.27-2.73,2.11-3.08,3.38-6.23,3.97-9.74.64-.44-.41-1.2-.48-1.81-.71-3.66-.79-7.32-.79-10.98,0-6.95,2.13-10.55,7.16-12.06,13.99-.78,3.37-.6,6.74-.12,10.12.75,6.26,6.52,12.94,12.07,13.99,3.4.7,6.81.7,10.21,0,1.93-.14,3.54-1.22,4.59-2.58,2.29-2.96,4.31-2.99,6.76-.31,1.21,1.32,2.64,2.48,4.09,3.56,4.24,3.15,4.38,3.26.55,6.47-4.08,3.42-8.85,5.62-14.04,6.9-4.03.57-8.06.56-12.1,0Z"/>
  <path class="cls-195" d="m241.1,131.1l-13.11-13.73c-2.99-1.33-2.31,1.07-2.34,2.43-.09,4.32-.03,8.64-.03,12.96,0,14.78.02,29.57-.02,44.35,0,1.62.45,3.33-.47,4.87-.98.04-1.97.07-2.95.11-.4-.47-.74-.98-1.01-1.53-.95-11.74-.24-23.5-.4-35.25-.12-9.11,0-18.23-.05-27.29-3.85-.14-5.67,3.22-8.47,4.85-2.07,1.69-4.77,2.75-5.59,5.68-.26,29.76-.04,59.51-.1,89.26,0,3.5-.05,6.98-1.21,10.34-.72,2.01-1.89,3.54-4.16,3.9-.86-1.19-.51-2.57-.52-3.87-.02-33.38-.02-66.77,0-100.15,0-1.28-.45-2.68.64-3.79,6.36-4.82,12.77-9.56,19.04-14.49,2.63-2.07,4.62-1.86,6.84.52,5.96,6.37,12.03,12.63,18.05,18.94,1.35.82,1.37,2.15,1.37,3.51-.03,17.32.03,34.65-.03,51.97,0,.53-.26.95-.45,1.4-.98.72-1.95,1.43-2.93,2.15-2.43-.32-2.01-2.27-2.04-3.8-.25-12.39-.03-24.79-.2-37.18-.07-5.35,1.22-10.73.13-16.14Z"/>
  <path class="cls-138" d="m212.05,121.88c2.73-2.59,5.64-4.93,9.04-6.6,1.13,10.17.27,20.38.45,30.57-.94,10.09-.16,20.2-.44,30.29-.05,1.94.51,4.02-1,5.72-1.16.07-2.32.19-3.48.22-7.69.14-8.31.66-8.42,8.61-.13,9.47-.07,18.95-.06,28.42,0,2.84-.13,5.63-1.96,8.02-1.04-1.69-.51-3.57-.52-5.34-.04-22.23-.02-44.46-.03-66.67.06-4.06,3.43-6.18,5.39-9.12.42-.6.95-1.09,1.64-1.37.45-.12.91-.16,1.38-.14,1.93.47,2.93-.21,2.78-2.29-.2-3.25.42-6.52-.44-9.7-1.77-.02-.95,1.74-1.68,2.43-.45.8-1.13,1.37-1.8,1.96-.53.46-1.13.77-1.83.9-3.86.51-4.1-2.85-5.4-5.07-.03-.92-.13-1.85.2-2.74.63-3.78,4.66-4.96,6.17-8.07Z"/>
  <path class="cls-107" d="m206.12,253.22c5.04-1.2,9.85-2.93,13.99-6.18,1.39,1.34.99,3.1,1,4.71.03,16.62.04,33.23,0,49.85,0,2.1.53,4.74-2.2,5.48-2.44.66-3.15-1.72-4.33-3.3-1.88-2.52-4-4.87-6.68-6.62-1.29-1.09-2.29-2.26-2.26-4.16.22-13.26-.42-26.53.49-39.78Z"/>
  <path class="cls-53" d="m152.18,287.89c-1.04.27-1.51,2.14-3.03,1.09-.83-.93-.49-1.93-.18-2.93-.7-20.24-.19-40.48-.25-60.72-.02-5.08-.82-10.22.59-15.25.88-.33,1.76-.67,2.65-1,1.3,1.43.63,3.17.64,4.75.06,15.75.02,31.5.06,47.25,0,1.61-.52,3.32.55,4.83,10.78.06,21.56.04,32.33.24,2.92.05,3.76-1.08,3.58-3.8-.17-2.47.03-4.97.01-7.46-.02-2.35.82-3.17,2.99-1.78.77,10.98.89,21.95-.03,32.93-1.02-.37-2.05-.74-3.07-1.11-2.42-3.55-.95-7.59-1.46-11.37-.04-2.04-1.15-3.07-3.13-3.04-9.76.14-19.53-.57-29.26.39-.4.31-.78.65-1.09,1.05-1.2,3.22-.33,6.56-.57,9.82-.16,2.11.3,4.34-1.34,6.12Z"/>
  <path class="cls-25" d="m247.13,272.99c-1.01-.29-.9-1.09-.85-1.86.11-.52.43-.85.94-.98,10.35-3.57,20.71-7.09,31.02-10.75,2.42-.86,4.79-1.64,6.47-4.2,1.73-2.63,5.04-2.67,6.73-.02,1.72,2.7,4.23,3.62,6.71,4.78,12.87,6.04,25.83,11.87,38.63,18.04,3.43,1.65,6.85.51,10.22,1.12,3.08,1.9,3.61,4.19,1.06,6.95-3.48,2.78-6.22,2-8.28-1.77-.98-1.79-2.44-3.12-4.23-3.94-12.85-5.87-25.73-11.66-38.61-17.48-2.39-1.08-4.69-2.58-7.36-.41-.6.49-2.21.53-2.81.07-3.51-2.68-6.63-.57-9.81.56-9.3,3.3-18.58,6.67-27.88,9.96-.58.2-1.31-.04-1.97-.08Z"/>
  <path class="cls-42" d="m160.85,192.45c-.76,1.8-1.88,1.37-3.19.61-4.86-2.82-10.16-5.22-14.55-8.43-7.67-5.6-14.82-3.27-21.6-.1-9.55,4.46-18.49,10.24-27.72,15.39-1.8,1.01-3.19,2.05-3.83,4.24-.73,2.48-3.12,2.26-5.05,1.78-1.98-.49-2.91-2.14-2.92-4.16,0-1.84.8-3.71,2.71-3.55,9.35.78,15.39-6.2,22.93-9.57,4.95-2.22,9.53-5.28,14.23-8.03,1.94-1.14,3.7-2.11,4.62-4.76,1.13-3.25,4.76-4.45,7.36-2.07,7.41,6.79,16.57,10.75,24.76,16.26.92.62,2.25.89,2.27,2.39Z"/>
  <path class="cls-82" d="m230.21,346.92c1.11-1.24,2.27-.88,3.57-.25,5.35,2.56,6.34,1.96,6.34-3.76.02-33.24.02-66.49.03-99.73,1.28.45,1.93,1.36,1.99,2.71-1.97.86-.49,2.04-.28,3.1-.6,15.14-.17,30.29-.24,45.43-.08,17.65.02,35.3-.09,52.95,0,1.49,1.3,3.67-1.28,4.57-1.64-.67-3.28-1.34-4.91-2-1.71-1-3.42-2.01-5.12-3.01Z"/>
  <path class="cls-87" d="m208.13,297.05c4.16.37,5.78,3.77,7.64,6.68.83,1.3,1.32,3.06,3.04,2.6,1.79-.48,1.32-2.46,1.32-3.9,0-18.46,0-36.93-.02-55.39.3-.34.61-.68.91-1.02,1.04,1.33.57,2.88.57,4.33.03,19.74.06,39.47-.05,59.21,0,1.49,1.36,3.76-1.39,4.54-2.88-6.2-7.82-10.84-12.05-16.02-.29-.24-.38-.48-.27-.7.11-.22.21-.33.31-.33Z"/>
  <path class="cls-18" d="m152.15,206.1c-13.94-2.3-27.98-.62-41.97-.98-.39.54-.74.51-1.04-.08,7.62-3,15.57-3.23,23.61-2.96,4.32.15,8.65.1,12.97,0,3.1-.07,5.09,1.39,6.43,4.02Z"/>
  <path class="cls-207" d="m206.16,130.17c0,.98-.01,1.95-.02,2.93,1.6,2.44.99,5.41,1.95,8.01.44,2.22.47,4.45.02,6.68-.85,1.71-.76,3.76-1.94,5.35,0,24.66.01,49.32.02,73.99-.28.34-.56.68-.85,1.01-.08-23.31-.16-46.62-.23-69.93-.02-9.16-.03-18.32.06-27.47.02-1.54-.79-3.38.97-4.6,1.21,1.34.96,2.69.01,4.03Z"/>
  <path class="cls-203" d="m201.31,124.22c-.06,33.61-.12,67.22-.18,100.83,0,2.33.03,4.66.05,6.99-1.58-1.05-1.02-2.69-1.02-4.1-.02-33.05-.02-66.11.03-99.16,0-1.56-.66-3.39,1.13-4.55Z"/>
  <path class="cls-260" d="m225.11,240.14c1.03.6,1.03,1.61,1.03,2.62-.05,28.45-.11,56.9-.16,85.34-1.33-1.59-.79-3.5-.8-5.27-.05-25.25-.03-50.51-.1-75.76,0-1.71.82-3.71-1.04-5.08.36-.61.71-1.23,1.07-1.84Z"/>
  <path class="cls-262" d="m220.14,314.1c1.3-.73.99-2,.99-3.11-.02-21.65-.07-43.31-.11-64.96.36-.31.71-.62,1.07-.94.01,22.14.03,44.29.03,66.43,0,1.15.24,2.6-.34,3.4-1.11,1.54-1.42.17-1.63-.82Z"/>
  <path class="cls-173" d="m225.11,181.99c0-20.95,0-41.89.05-62.84,0-1.22-.8-2.91.85-3.52,1.06-.39,1.69.71,1.97,1.74-3.25.15-1.78,2.66-1.78,4.06-.08,18.72-.03,37.44-.02,56.16,0,1.49-.06,2.98-.09,4.47-.33-.02-.65-.05-.98-.07Z"/>
  <path class="cls-241" d="m241.1,131.1c1.8,1.61.99,3.75,1,5.64.04,15.65-.04,31.3-.01,46.95,0,1.54-.73,3.39,1.12,4.53.05.28,0,.54-.13.79-3.56,1.1-2.36-1.78-2.37-3.12-.11-10.24-.04-20.49-.08-30.73,0-1.62.45-3.31-.47-4.85-.36-.3-.71-.59-1.07-.89.3-1.82-.53-3.86,1.06-5.43,2.15-4.16.44-8.61.97-12.9Z"/>
  <path class="cls-208" d="m351.18,186.3c0,20.9,0,41.79,0,62.69-.29.45-.61.48-.94.04,0-20.89,0-41.78,0-62.67.27-.68.58-.7.93-.06Z"/>
  <path class="cls-127" d="m153.21,265.9c-2.01-1.31-1-3.33-1.01-4.99-.15-17.28-.18-34.56-.24-51.84.05-.99.11-1.98.16-2.97,1.13.53,2,1.29,1.87,2.64-1.88,19.03-.38,38.1-.78,57.15Z"/>
  <path class="cls-106" d="m246.12,186.08c-.01-17.05-.02-34.1-.04-51.16,0-1.95.38-3.96-.85-5.73,1.9.13,1.9,1.5,1.9,2.87-.01,17.28-.02,34.56-.08,51.83,0,.73-.6,1.45-.93,2.18Z"/>
  <path class="cls-61" d="m208.13,297.05c-.01.35-.03.69-.04,1.04-2.52-1.35-3.01-3.54-3-6.23.06-12.88-.04-25.76-.08-38.64.37,0,.73,0,1.1,0,.87,6.02-.25,12.03-.02,18.05.23,6.28.13,12.58.03,18.87-.04,2.56.17,4.94,2,6.91Z"/>
  <path class="cls-108" d="m310.11,274.07c-1.08-1.34-2.34-2.05-4.21-2.03-12.55.13-25.1.13-37.65.17-.38.38-.74.38-1.06-.08.89-1.38,2.32-1.06,3.6-1.06,11.92-.02,23.84-.04,35.76.02,1.84,0,4.7-.79,3.56,2.97Z"/>
  <path class="cls-198" d="m172.15,185.11c-.05,14.67-.09,29.34-.14,44.02-1.26-1.4-.82-3.14-.83-4.74-.04-11.71-.04-23.43-.01-35.14,0-1.43-.44-3.02.97-4.14Z"/>
  <path class="cls-58" d="m240.14,150.32c1.74,1.23.93,3.05.94,4.59.06,9.96-.04,19.92.04,29.88.01,1.55-1.1,3.93,1.94,4.22-.63,1.25-1.8,1.05-2.89,1.06-.01-13.25-.02-26.5-.04-39.75Z"/>
  <path class="cls-79" d="m186.06,226.1c-1.54-1.5-.91-3.43-.92-5.17-.08-11.88-.08-23.77-.1-35.65.59-.54,1.08-.47,1.48.22.04,8.21.42,16.41-.21,24.61-.09,5.33-.17,10.66-.26,15.99Z"/>
  <path class="cls-199" d="m225.31,226.12c-.1-13.62-.21-27.25-.31-40.87,1.22.44,1.1,1.5,1.1,2.46,0,12.05,0,24.09-.06,36.14,0,.76-.48,1.51-.74,2.27Z"/>
  <path class="cls-65" d="m201.11,253.18c0,11.54.06,23.07-.06,34.61,0,.72,1.7,4.09-1.89,2.21,1.6-1.27.92-3.04.93-4.6.06-9.21,0-18.42.08-27.63.01-1.55-.66-3.33.93-4.6Z"/>
  <path class="cls-129" d="m109.11,235.05c-.75,1.23-1.99,1.02-3.12,1.02-11.96-.04-23.91-.1-35.87-.15,1.4-1.27,3.13-.85,4.74-.85,11.42-.03,22.84-.02,34.25-.02Z"/>
  <path class="cls-59" d="m220.11,181.85c0-10.19,0-20.38.06-30.57.01-1.74-.6-3.65.84-5.18,1.34,7.9.26,15.86.61,23.79.16,3.82-.3,7.64.26,11.45.11.24.21.49.29.75-.68-.08-1.37-.16-2.05-.24Z"/>
  <path class="cls-112" d="m192.1,286.02c.01-10.98.02-21.95.03-32.93,1.82,1.81.9,4.1.99,6.17.43,9.24-.86,18.55.94,27.75-.86.08-1.49-.31-1.96-.99Z"/>
  <path class="cls-69" d="m211.3,210.14c-.71,5.7.77,11.54-1.04,17.17-.02-10.51-.06-21.01-.02-31.52,0-.92.49-1.84.75-2.76,1.24,5.68.62,11.4.31,17.11Z"/>
  <path class="cls-115" d="m347.18,303.14c-.03,8.25,0,16.5-.14,24.75-.03,1.67.88,3.67-1.07,4.98.03-8.74.03-17.48.1-26.21.01-1.54-.76-3.37,1.17-4.43.23.22.29.43.2.63-.09.19-.18.29-.26.29Z"/>
  <path class="cls-104" d="m267.19,272.13c.35.03.71.05,1.06.08-.05,8.25-.04,16.49-.18,24.74-.03,1.69.83,3.68-1.05,5.02.06-9.94.11-19.89.17-29.83Z"/>
  <path class="cls-101" d="m109.14,205.03c.35.03.69.06,1.04.08,0,8.28.05,16.55-.04,24.83-.02,1.71.77,3.69-1.02,5.08,0-10,.01-20,.02-29.99Z"/>
  <path class="cls-139" d="m351.18,186.3h-.47s-.46.06-.46.06c.18-.27.35-.76.54-.77,9.77-.53,19.55-1.41,29.27.55-9.63.05-19.26.11-28.88.16Z"/>
  <path class="cls-14" d="m350.25,249.04c.31.03.63.02.94-.04,9.67.1,19.35.19,29.02.29-10,1.19-19.99,1.63-29.96-.25Z"/>
  <path class="cls-236" d="m246.06,302.08c-2.12-6.41-.61-12.99-.84-19.48-.1-2.78-1.32-5.91,1.04-8.47-.07,9.32-.13,18.63-.2,27.95Z"/>
  <path class="cls-70" d="m186.32,210.11c-.1-8.29-.2-16.58-.31-24.87-.25-.2-.33-.41-.26-.63.07-.22.15-.32.23-.32,1.31.62,1.23,1.83,1.16,2.96-.45,7.61.97,15.29-.82,22.86Z"/>
  <path class="cls-234" d="m211.3,210.14c-.1-5.7-.21-11.4-.31-17.11.11-2.6.22-5.19.33-7.79.37-.6.69-.57.97.07-.07,6.7-.11,13.4-.22,20.1-.03,1.59.4,3.3-.77,4.72Z"/>
  <path class="cls-255" d="m351.18,259c-8.4,0-16.79-.01-25.19-.02,8.4-1.57,16.79-1.52,25.19.02Z"/>
  <path class="cls-238" d="m247.23,270.15c-.31.33-.63.65-.94.98-2.31-2.58-.95-5.69-1.09-8.54-.25-4.79-.09-9.6-.11-14.4,2.28,2,.81,4.63,1.1,6.94.63,4.98-1.17,10.14,1.05,15.02Z"/>
  <path class="cls-63" d="m246.33,303.11c0-.33-.01-.67-.02-1,6.92-.04,13.84-.07,20.75-.11-3.97,2.25-8.26.64-12.39,1.01-2.76.25-5.56.08-8.34.1Z"/>
  <path class="cls-49" d="m347.18,303.14c-.02-.31,0-.62.07-.92,5.51-.09,11.01-.19,16.51-.29.02.36.05.72.07,1.08-5.55.04-11.1.08-16.65.12Z"/>
  <path class="cls-98" d="m212.28,185.32c-.32-.06-.64-.08-.97-.07,4.57-1.56,9.14-2.52,13.72-.06-4.25.04-8.5.09-12.75.13Z"/>
  <path class="cls-250" d="m191.03,249.16c4.76.03,9.52.06,14.28.08-4.77,1.36-9.53,1.5-14.28-.08Z"/>
  <path class="cls-78" d="m185.98,184.29c.07.32.08.63.03.95,0,0-.49-.01-.49-.01,0,0-.49.05-.49.04-4.29-.07-8.58-.14-12.86-.2,4.5-2.06,9.2-.57,13.8-.78Z"/>
  <path class="cls-62" d="m309.08,250.13c4.37.05,8.74.09,13.1.14-4.38,1.35-8.75,1.39-13.1-.14Z"/>
  <path class="cls-38" d="m262.06,250.22c4.03,0,8.06,0,12.1,0-4.03,1.39-8.06,1.33-12.1,0Z"/>
  <path class="cls-230" d="m234.9,211.93c0,3.77.02,7.54.02,11.31-1.31-3.77-1.49-7.54-.02-11.31Z"/>
  <path class="cls-52" d="m262.11,198.07c3.66-1.7,7.32-1.59,10.98,0-3.66,0-7.32,0-10.98,0Z"/>
  <path class="cls-93" d="m273.13,184c-3.68.03-7.36.06-11.04.09,3.66-1.65,7.34-1.54,11.04-.09Z"/>
  <path class="cls-102" d="m272.21,236.17c-3.4,1.42-6.81,1.78-10.21,0,3.4,0,6.81,0,10.21,0Z"/>
  <path class="cls-71" d="m348.08,286.08c1.61-2.62,1.17-4.92-1.06-6.95,3.83,2.03,4.14,4.06,1.06,6.95Z"/>
  <path class="cls-216" d="m296.96,200.08c.03,3.34.07,6.68.1,10.01-1.66-3.32-1.44-6.66-.1-10.01Z"/>
  <path class="cls-242" d="m249.93,222.18c-1.28-3.39-1.44-6.77.12-10.12-.04,3.37-.08,6.75-.12,10.12Z"/>
  <path class="cls-120" d="m149.32,210.08c-.07,24.17-.13,48.34-.2,72.51,0,1.16-.09,2.31-.14,3.46-1.44-1.74-.8-3.82-.8-5.74-.07-24.01-.08-48.01-.1-72.02.32-.66.66-.67,1.03-.04.07.61.15,1.21.22,1.82Z"/>
  <path class="cls-53" d="m149.1,208.26c-.34.01-.68.03-1.03.04-11.6-.03-23.21-.07-34.81-.1-.36-.03-.73-.06-1.09-.09,2.12-1.42,4.54-1.94,7-1.96,8.64-.09,17.28-.03,25.93-.04,1.75,0,3.36.15,4,2.16Z"/>
  <path class="cls-24" d="m76.21,239.16c-1.65,2.16-2.04,4.67-2.04,7.3.01,7.62.03,15.24-.02,22.85-.01,1.6.51,3.34-.82,4.73-.01-11.62-.02-23.25-.04-34.87.97-.83,1.94-.79,2.91-.02Z"/>
  <path class="cls-54" d="m76.21,239.16c-.97,0-1.94.01-2.91.02.47-1.19,1.53-1.08,2.5-1.08,10.24-.01,20.48-.01,30.71,0,.99,0,2,0,2.61,1.01-10.97.02-21.94.04-32.91.07Z"/>
  <path class="cls-212" d="m307.04,275.15c-1.01.02-2.01.03-3.02.05-10.95-.04-21.9-.08-32.85-.12.64-.97,1.64-.97,2.64-.97,10.22,0,20.43,0,30.65,0,.99,0,2,.03,2.58,1.05Z"/>
  <path class="cls-246" d="m224.95,374.07c-1.49-2.63-1.08-5.5-.55-8.16.36-1.81,1.44-1.67,1.58.36-1.85,2.4-.25,5.26-1.03,7.8Z"/>
  <path class="cls-119" d="m222.3,343.2c-.17.91-.34,1.82-.51,2.73-7.44,13.12-19.45,17.82-33.72,18.05-5.56.09-10.7-1.92-15.51-4.6-1.45-.81-2.27-2.04-2.78-3.81-2.08-7.32.13-13.36,4.84-18.88,1.47-1.72,2.79-2.18,4.41-.34,4.63,2.17,8.15,6.53,13.66,6.98,3.65.59,7.29.7,10.93-.09,6.61-1.29,11.4-5.96,16.97-9.19,2.59-.44,2.01,1.49,2,2.81-.03,2.11.34,4.25-.28,6.34Z"/>
  <path class="cls-142" d="m222.02,384.08c.24,4.31,2.09,8.17,3.78,12.2-2.52.05-3.92-1.63-5.3-2.83-7.44-6.49-13.45-14.15-18.16-22.86-1.65-3.05-1.03-4.46,2.28-5.19,5.71-1.26,10.11-4.82,14.42-8.5,2.75.43,1.48,2.6,1.51,3.95.16,7.76-.43,15.57,1.47,23.22Z"/>
  <path class="cls-158" d="m164.46,349.68c-4.68-7.8-1.41-20.2,4.19-24.79,4.62-3.79,9.66-4.12,17.76.26-12.2,3.7-19.87,11.12-21.94,24.53Z"/>
  <path class="cls-164" d="m192.03,344.26c-5.53-.68-9.62-3.73-13-7.92.44-.46.87-.93,1.31-1.39,11.93,10.25,25.23,9.95,37.05-.8.48-.44,1.06-.77,1.59-1.16.5.07,1,.14,1.5.21.2.69.22,1.34-.48,1.79-4.45,4.46-9.6,7.72-15.8,9.17-4.05.66-8.1.47-12.16.1Z"/>
  <path class="cls-160" d="m222.02,384.08c-2.91-6.81-1.57-13.99-1.94-21.03-.11-2.07.83-4.36-1.04-6.14.45-.68.9-1.36,2.14-3.23-.07,10.97-.32,20.72.84,30.4Z"/>
  <path class="cls-41" d="m227.05,331.06c2.36,4.89.47,10.08,1.03,15.09-1.64-.54-.93-2.03-1.25-3.11.67-3.99.31-7.99.22-11.99Z"/>
  <path class="cls-26" d="m158.04,346.07c-1.36-3.35-1.43-6.69.03-10.03,0,3.34-.02,6.69-.03,10.03Z"/>
  <path class="cls-231" d="m342.15,267.07c-1.58.04-2.63-.89-4.7-2.34,3.13-.18,5.02-.01,6.72,1.28-.73.23-1.75-.08-2.02,1.05Z"/>
  <path class="cls-96" d="m246.33,306.05c.02-.34.04-.68.06-1.02,5.96,0,11.92.05,17.88,0,2.23-.02,3.86.24,3.85,3.12-.06,18.05-.03,36.09-.08,54.14,0,.51-.64,1.02-.97,1.52,0-17.59-.09-35.17.07-52.75.03-3.73-.72-5.43-4.89-5.13-5.28.37-10.61.1-15.92.11Z"/>
  <path class="cls-15" d="m350.97,346.19c-.97-.68-.87-1.73-.87-2.7.01-12.43.04-24.87.07-37.3,4.57-1.16,9.18-.58,13.78-.34l.15.15c.76,4.4.63,8.8.1,13.2-1.98,10.19-6.37,19.2-13.24,26.99Z"/>
  <path class="cls-50" d="m364.21,319.2c-.03-4.4-.07-8.8-.1-13.2.25-.06.5-.08.75-.07.19,4.44.99,8.92-.65,13.27Z"/>
  <path class="cls-91" d="m363.95,305.85c-4.59.11-9.19.22-13.78.34,4.55-2.05,9.16-1.4,13.78-.34Z"/>
  <path class="cls-256" d="m240.25,351.94c1.51-1.35.81-3.12.81-4.71.04-31.15.04-62.29.09-93.44,0-1.61-.52-3.35.72-4.8.08,6.31.23,12.63.24,18.94.03,26.78.05,53.56-.08,80.34,0,1.14,2.12,4.11-1.77,3.66Z"/>
  <path class="cls-202" d="m138.96,330.02c.02,3.69.04,7.38.06,11.06-1.37-3.68-1.39-7.37-.06-11.06Z"/>
  <path class="cls-19" d="m189.06,273.1c0,3.94-.02,7.87-.03,11.81-3.29.52-6.56-.51-9.61-1.1-8.94-1.72-17.05.51-25.19,3.47-1,0-1.53-.52-1.51-1.49.12-5.24-.51-10.49.34-15.71l.12.03c11.08-1.16,22.19-.21,33.29-.52,2.65-.07,1.81,2.28,2.59,3.51Z"/>
  <path class="cls-88" d="m153.06,270.08c.81,5.71-1.29,11.61,1.16,17.2-.48.87-1.28.69-2.04.61.45-5.93-1.06-11.96.88-17.81Z"/>
  <path class="cls-251" d="m219.99,334.99c.16-.6.32-1.19.48-1.79,1.57-.5,2.77-.2,2.65,1.69-.19,2.77.73,5.67-.82,8.31-.05-2.38-.16-4.77-.13-7.15.03-2.05-1.12-1.38-2.17-1.06Z"/>
  <path class="cls-249" d="m180.32,287.86c-4.11.02-8.21.05-12.32.07,4.1-1.47,8.2-1.32,12.32-.07Z"/>
  <path class="cls-13" d="m142.06,344.15c-1.51-6.09-1.51-12.18-.09-18.29.03,6.09.06,12.19.09,18.29Z"/>
  <path class="cls-169" d="m228.21,132.35c4.19,3.2,2.84,7.02,2.95,10.44.03.97-.73,1.43-1.68,1.26-.98-.18-1.26-.98-1.26-1.85-.02-3.05,0-6.11,0-9.85Z"/>
  <path class="cls-190" d="m236.09,142.69c-.47,1.15.9,3.44-1.48,3.43-2.28,0-1.49-2.17-1.44-3.48.04-1.14-.81-3.08,1.12-3.24,2.3-.19,1.76,1.82,1.8,3.28Z"/>
  <path class="cls-228" d="m240.13,144c-.41,1.8,1.04,3.96-1.06,5.43-1.46-1.5-1.03-3.41-.89-5.13.13-1.69,1.16-1.02,1.95-.3Z"/>
  <path class="cls-16" d="m380.07,224.08c3.08.78,5.02,2.02,5.16,5.91.15,4.21-1.69,6.02-5.2,7.05-4.98.9-9.98.72-14.98.13l.04-.13c-.16-.29-.41-.58-.44-.89-1.12-12.81.87-14.37,15.41-12.08Z"/>
  <path class="cls-17" d="m365.2,198.24c4.58-.93,9.04.22,13.5.88,2.42.36,4.02,2.08,4.42,4.64.64,4.06-1.94,5.91-5.09,7.36-4.28.71-8.56.88-12.83-.13l-.05-.02c-.91-4.24-.97-8.49.04-12.72Z"/>
  <path class="cls-223" d="m380.07,224.08c-3.12-.03-6.24-.05-9.35-.09q-5.49-.07-5.58,5.16c-.04,2.63-.03,5.27-.04,7.9-2.18-4-.57-8.26-.76-12.39-.06-1.16,1.04-1.65,2.11-1.58,4.55.29,9.2-.93,13.63,1Z"/>
  <path class="cls-229" d="m365.06,237.18c4.99-.04,9.99-.09,14.98-.13-4.98,1.7-9.97,1.56-14.98.13Z"/>
  <path class="cls-233" d="m365.2,198.24c-.01,4.24-.03,8.48-.04,12.72-1.83-4.25-1.75-8.49.04-12.72Z"/>
  <path class="cls-269" d="m365.21,210.98c4.28.04,8.55.08,12.83.13-4.29,1.46-8.57,1.81-12.83-.13Z"/>
  <path class="cls-261" d="m221.86,181.34c-1.67-4.85-.59-9.85-.74-14.78-.21-6.82-.1-13.64-.12-20.46.03-10.28.06-20.55.09-30.83,1.6-.51,1.01.82,1.01,1.35-.05,21.57-.15,43.14-.24,64.71Z"/>
  <path class="cls-85" d="m206.16,130.17c0-1.34,0-2.69-.01-4.03,1.85-1.58,3.57-3.34,5.91-4.26.62,4.6-4.32,5.25-5.89,8.29Z"/>
  <path class="cls-85" d="m206.17,153.14c.11-1.69-.57-3.5.77-5,1.95-2.32,1.82-4.67.12-7.05-1.86-2.48-.6-5.32-.92-7.98,2.61.13,1.61,4.57,4.79,4.01,2.72,2.65,1.02,5.89,1.17,8.88-1.3,2.94-3.45,5.19-5.94,7.14Z"/>
  <path class="cls-86" d="m214.09,134.93c.29-2.08-.99-5.24,3.19-4.65.08.93-.22,1.78-.5,2.63-.67,2.83-.6,5.67-.08,8.51.3.55.74.97,1.22,1.36.35,3.7-1.1,4.13-3.88,2.15-2.01-3.34-1.63-6.67.06-10Z"/>
  <path class="cls-192" d="m217.92,142.78l-1.77.28c-.89-3.64-.67-7.29-.12-10.95.42-.61.84-1.22,1.26-1.83,2.09,4.07.71,8.32.63,12.5Z"/>
  <path class="cls-181" d="m212.11,146c-2.19-2.72-.43-5.97-1.17-8.88.38-.37.76-.74,1.14-1.11,2.97,2.71,1.33,5.92.99,8.99-.32.33-.64.66-.96,1Z"/>
  <path class="cls-10" d="m213.06,145c-.39-2.99,1.2-6.2-.99-8.99.34-.99,1.19-1.01,2.02-1.08-.02,3.33-.04,6.66-.06,10,0,0-.48.09-.48.09l-.49-.02Z"/>
  <path class="cls-84" d="m189.06,273.1c-1.04-2.37-2.71-3.15-5.41-3.1-10.15.2-20.31.09-30.47.1.74-1.22,1.97-1.02,3.09-1.02,9.72-.02,19.44.08,29.16-.05,3.08-.04,4.31,1.01,3.63,4.06Z"/>
  <path class="cls-159" d="m207.06,141.08c.24-.2.49-.59.72-.59,2.66.09,1.41,2.22,1.25,3.17-.26,1.57,1.61,4.46-2.09,4.47.04-2.35.08-4.7.12-7.05Z"/>
  <path class="cls-43" d="m192.03,344.26c4.05-.03,8.11-.07,12.16-.1-4.04,1.4-8.09,1.48-12.16.1Z"/>
  <path class="cls-270" d="m216.03,132.11c.04,3.65.08,7.3.12,10.95-1.74-3.63-1.48-7.28-.12-10.95Z"/>
</svg>