<?xml version="1.0" encoding="UTF-8"?>
<svg id="Layer_1" data-name="Layer 1" xmlns="http://www.w3.org/2000/svg" viewBox="0 0 4493.94 3577.38">
  <defs>
    <style>
      .cls-1 {
        font-size: 250px;
      }

      .cls-1, .cls-2, .cls-3, .cls-4 {
        fill: #009444;
      }

      .cls-1, .cls-3 {
        font-family: CMUSerif-Italic, 'CMU Serif';
        font-style: italic;
      }

      .cls-2 {
        stroke: #231f20;
        stroke-width: 10px;
      }

      .cls-2, .cls-5 {
        stroke-miterlimit: 10;
      }

      .cls-5 {
        fill: none;
        stroke: #662d91;
        stroke-width: 50px;
      }

      .cls-6 {
        fill: #92278f;
      }

      .cls-6, .cls-7, .cls-8, .cls-4 {
        font-family: Inter-SemiBold, Inter;
        font-size: 200px;
        font-variation-settings: 'wght' 600, 'slnt' 0;
        font-weight: 600;
      }

      .cls-7, .cls-9 {
        fill: #ed1c24;
      }

      .cls-8 {
        fill: #662d91;
      }

      .cls-3 {
        font-size: 175px;
      }

      .cls-9 {
        stroke-width: 0px;
      }
    </style>
  </defs>
  <circle class="cls-2" cx="1164.07" cy="1005.28" r="74.17"/>
  <circle class="cls-2" cx="1447.73" cy="1005.28" r="74.17"/>
  <circle class="cls-2" cx="1740.07" cy="1009.62" r="74.17"/>
  <circle class="cls-2" cx="2028.07" cy="1009.62" r="74.17"/>
  <circle class="cls-2" cx="2311.73" cy="1009.62" r="74.17"/>
  <circle class="cls-2" cx="2608.73" cy="1005.28" r="74.17"/>
  <circle class="cls-2" cx="2896.73" cy="1005.28" r="74.17"/>
  <circle class="cls-2" cx="3180.39" cy="1005.28" r="74.17"/>
  <circle class="cls-2" cx="3472.73" cy="1009.62" r="74.17"/>
  <circle class="cls-2" cx="1164.07" cy="1273.11" r="74.17"/>
  <circle class="cls-2" cx="1447.73" cy="1273.11" r="74.17"/>
  <circle class="cls-2" cx="1740.07" cy="1277.45" r="74.17"/>
  <circle class="cls-2" cx="2028.07" cy="1277.45" r="74.17"/>
  <circle class="cls-2" cx="2311.73" cy="1277.45" r="74.17"/>
  <circle class="cls-2" cx="2608.73" cy="1273.11" r="74.17"/>
  <circle class="cls-2" cx="2896.73" cy="1273.11" r="74.17"/>
  <circle class="cls-2" cx="3180.39" cy="1273.11" r="74.17"/>
  <circle class="cls-2" cx="3472.73" cy="1277.45" r="74.17"/>
  <circle class="cls-2" cx="1164.07" cy="1522.94" r="74.17"/>
  <circle class="cls-2" cx="1447.73" cy="1522.94" r="74.17"/>
  <circle class="cls-2" cx="1740.07" cy="1527.28" r="74.17"/>
  <circle class="cls-2" cx="2028.07" cy="1527.28" r="74.17"/>
  <circle class="cls-2" cx="2311.73" cy="1527.28" r="74.17"/>
  <circle class="cls-2" cx="2608.73" cy="1522.94" r="74.17"/>
  <circle class="cls-2" cx="2896.73" cy="1522.94" r="74.17"/>
  <circle class="cls-2" cx="3180.39" cy="1522.94" r="74.17"/>
  <circle class="cls-2" cx="3472.73" cy="1527.28" r="74.17"/>
  <circle class="cls-2" cx="1164.07" cy="1790.77" r="74.17"/>
  <circle class="cls-2" cx="1447.73" cy="1790.77" r="74.17"/>
  <circle class="cls-2" cx="1740.07" cy="1795.11" r="74.17"/>
  <circle class="cls-2" cx="2028.07" cy="1795.11" r="74.17"/>
  <circle class="cls-2" cx="2311.73" cy="1795.11" r="74.17"/>
  <circle class="cls-2" cx="2608.73" cy="1790.77" r="74.17"/>
  <circle class="cls-2" cx="2896.73" cy="1790.77" r="74.17"/>
  <circle class="cls-2" cx="3180.39" cy="1790.77" r="74.17"/>
  <circle class="cls-2" cx="3472.73" cy="1795.11" r="74.17"/>
  <circle class="cls-2" cx="1164.07" cy="2089.94" r="74.17"/>
  <circle class="cls-2" cx="1447.73" cy="2089.94" r="74.17"/>
  <circle class="cls-2" cx="1740.07" cy="2094.28" r="74.17"/>
  <circle class="cls-2" cx="2028.07" cy="2094.28" r="74.17"/>
  <circle class="cls-2" cx="2311.73" cy="2094.28" r="74.17"/>
  <circle class="cls-2" cx="2608.73" cy="2089.94" r="74.17"/>
  <circle class="cls-2" cx="2896.73" cy="2089.94" r="74.17"/>
  <circle class="cls-2" cx="3180.39" cy="2089.94" r="74.17"/>
  <circle class="cls-2" cx="3472.73" cy="2094.28" r="74.17"/>
  <circle class="cls-2" cx="1164.07" cy="2357.77" r="74.17"/>
  <circle class="cls-2" cx="1447.73" cy="2357.77" r="74.17"/>
  <circle class="cls-2" cx="1740.07" cy="2362.11" r="74.17"/>
  <circle class="cls-2" cx="2028.07" cy="2362.11" r="74.17"/>
  <circle class="cls-2" cx="2311.73" cy="2362.11" r="74.17"/>
  <circle class="cls-2" cx="2608.73" cy="2357.77" r="74.17"/>
  <circle class="cls-2" cx="2896.73" cy="2357.77" r="74.17"/>
  <circle class="cls-2" cx="3180.39" cy="2357.77" r="74.17"/>
  <circle class="cls-2" cx="3472.73" cy="2362.11" r="74.17"/>
  <circle class="cls-2" cx="1164.07" cy="2659.11" r="74.17"/>
  <circle class="cls-2" cx="1447.73" cy="2659.11" r="74.17"/>
  <circle class="cls-2" cx="1740.07" cy="2663.45" r="74.17"/>
  <circle class="cls-2" cx="2028.07" cy="2663.45" r="74.17"/>
  <circle class="cls-2" cx="2311.73" cy="2663.45" r="74.17"/>
  <circle class="cls-2" cx="2608.73" cy="2659.11" r="74.17"/>
  <circle class="cls-2" cx="2896.73" cy="2659.11" r="74.17"/>
  <circle class="cls-2" cx="3180.39" cy="2659.11" r="74.17"/>
  <circle class="cls-2" cx="3472.73" cy="2663.45" r="74.17"/>
  <text class="cls-4" transform="translate(1578.44 172.73)"><tspan x="0" y="0">SAMPLED </tspan><tspan x="-342.97" y="240">POPULATION</tspan></text>
  <g>
    <text class="cls-1" transform="translate(2717.06 300.21)"><tspan x="0" y="0">S</tspan></text>
    <text class="cls-3" transform="translate(2845.72 366.19)"><tspan x="0" y="0">P</tspan></text>
  </g>
  <rect class="cls-5" x="994.1" y="825.01" width="1201.57" height="1100" rx="180.45" ry="180.45"/>
  <rect class="cls-5" x="2192.35" y="840.64" width="1425.34" height="825.99" rx="180.45" ry="180.45"/>
  <rect class="cls-5" x="2192.35" y="1676.94" width="1408.77" height="1151.66" rx="180.45" ry="180.45"/>
  <rect class="cls-5" x="994.1" y="1925.01" width="601.19" height="903.59" rx="180.45" ry="180.45"/>
  <rect class="cls-5" x="1595.29" y="1925.01" width="600.38" height="903.59" rx="180.45" ry="180.45"/>
  <text class="cls-6" transform="translate(328.63 740.8)"><tspan x="0" y="0">CLUSTER 1</tspan></text>
  <text class="cls-6" transform="translate(2742.7 740.8)"><tspan x="0" y="0">CLUSTER 2</tspan></text>
  <text class="cls-6" transform="translate(3391.9 3159.48)"><tspan x="0" y="0">CLUSTER 3</tspan></text>
  <text class="cls-8" transform="translate(434.98 2233.15)"><tspan x="0" y="0">•••</tspan></text>
  <g>
    <path class="cls-9" d="M603.34,1293.52c36.97-11.76,74.66-21.11,112.75-27.87,4.76-.88,9.53-1.63,14.3-2.43,4.78-.73,9.55-1.52,14.34-2.17l7.18-1.02,7.19-.93c4.83-.64,9.47-1.17,14.23-1.74,18.96-2.26,38.12-4.2,57.32-5.55,19.21-1.33,38.49-2.09,57.77-2.16,19.28-.05,38.58.61,57.81,2.02,38.46,2.83,76.69,8.66,114.07,17.87,18.68,4.61,37.15,10.03,55.33,16.22l6.81,2.36c2.27.78,4.54,1.56,6.78,2.43l13.47,5.07,13.32,5.43,3.33,1.36,3.29,1.45,6.58,2.9c35.05,15.51,68.56,34.27,100.25,55.52,4.02,2.57,7.87,5.39,11.76,8.15,3.88,2.78,7.8,5.49,11.63,8.32l11.37,8.66c1.88,1.46,3.81,2.85,5.66,4.36l5.54,4.51c14.9,11.85,29.06,24.6,42.85,37.66l10.22,9.92,9.95,10.19c3.35,3.36,6.52,6.9,9.76,10.36l4.84,5.22c1.6,1.75,3.15,3.55,4.72,5.32,12.6,14.17,24.64,28.82,36.05,43.93-12.11-14.55-24.8-28.6-38.01-42.1-1.65-1.69-3.28-3.4-4.95-5.07l-5.06-4.96c-3.39-3.29-6.69-6.66-10.18-9.84l-10.36-9.64-10.6-9.36c-14.29-12.3-28.88-24.24-44.14-35.25l-5.68-4.19c-1.89-1.4-3.86-2.69-5.79-4.04l-11.61-8c-3.91-2.61-7.9-5.1-11.84-7.65-3.95-2.53-7.87-5.12-11.94-7.46-32.14-19.41-65.78-36.2-100.65-49.71l-6.54-2.52-3.27-1.26-3.3-1.17-13.21-4.67-13.32-4.31c-2.21-.74-4.45-1.4-6.69-2.05l-6.71-1.97c-17.92-5.17-36.04-9.58-54.31-13.18-36.54-7.19-73.64-11.06-110.78-12.04-18.57-.48-37.15-.24-55.7.68-18.55.94-37.07,2.56-55.55,4.71-18.48,2.18-36.9,4.92-55.4,8.02-4.6.77-9.33,1.55-13.85,2.37l-6.84,1.21-6.83,1.3c-4.55.84-9.08,1.82-13.62,2.73-4.52.99-9.06,1.92-13.57,2.97-36.11,8.18-71.62,18.8-106.23,31.64l-13.94-40.54Z"/>
    <path class="cls-9" d="M472.41,1375.01c75.61-4.12,174.31,2.02,243.36,23.94l-86.81-91.93-7.9-126.16c-31.12,65.42-94.01,141.73-148.65,194.15Z"/>
  </g>
  <text class="cls-7" transform="translate(66.67 1497.9)"><tspan x="0" y="0">SRS</tspan></text>
  <text class="cls-7" transform="translate(1712.47 3513.47)"><tspan x="0" y="0">SRS</tspan></text>
  <text class="cls-7" transform="translate(3950.64 2385.88)"><tspan x="0" y="0">SRS</tspan></text>
  <g>
    <path class="cls-9" d="M3854.89,2497.21c-36.97,11.76-74.66,21.11-112.75,27.87-4.76.88-9.53,1.63-14.3,2.43-4.78.73-9.55,1.52-14.34,2.17l-7.18,1.02-7.19.93c-4.83.64-9.47,1.17-14.23,1.74-18.96,2.26-38.12,4.2-57.32,5.55-19.21,1.33-38.49,2.09-57.77,2.16-19.28.05-38.58-.61-57.81-2.02-38.46-2.83-76.69-8.66-114.07-17.87-18.68-4.61-37.15-10.03-55.33-16.22l-6.81-2.36c-2.27-.78-4.54-1.56-6.78-2.43l-13.47-5.07-13.32-5.43-3.33-1.36-3.29-1.45-6.58-2.9c-35.05-15.51-68.56-34.27-100.25-55.52-4.02-2.57-7.87-5.39-11.76-8.15-3.88-2.78-7.8-5.49-11.63-8.32l-11.37-8.66c-1.88-1.46-3.81-2.85-5.66-4.36l-5.54-4.51c-14.9-11.85-29.06-24.6-42.85-37.66l-10.22-9.92-9.95-10.19c-3.35-3.36-6.52-6.9-9.76-10.36l-4.84-5.22c-1.6-1.75-3.15-3.55-4.72-5.32-12.61-14.17-24.64-28.82-36.05-43.93,12.11,14.55,24.8,28.6,38.01,42.1,1.65,1.69,3.28,3.4,4.95,5.07l5.06,4.96c3.39,3.29,6.69,6.66,10.18,9.84l10.36,9.64,10.6,9.36c14.29,12.3,28.88,24.24,44.14,35.25l5.68,4.19c1.89,1.4,3.86,2.69,5.79,4.04l11.61,8c3.91,2.61,7.9,5.1,11.84,7.65,3.96,2.53,7.87,5.12,11.94,7.46,32.14,19.41,65.78,36.2,100.65,49.71l6.54,2.52,3.27,1.26,3.3,1.17,13.21,4.67,13.32,4.31c2.21.74,4.45,1.4,6.69,2.05l6.71,1.97c17.92,5.17,36.04,9.58,54.31,13.18,36.54,7.19,73.64,11.06,110.78,12.04,18.57.48,37.15.24,55.7-.68,18.55-.94,37.07-2.56,55.55-4.71,18.48-2.18,36.9-4.92,55.4-8.02,4.6-.77,9.33-1.55,13.85-2.37l6.84-1.21,6.83-1.3c4.55-.84,9.08-1.82,13.62-2.73,4.52-.99,9.06-1.92,13.57-2.97,36.11-8.18,71.62-18.8,106.23-31.64l13.94,40.54Z"/>
    <path class="cls-9" d="M3985.81,2415.72c-75.61,4.12-174.31-2.02-243.36-23.94l86.81,91.93,7.9,126.16c31.12-65.42,94.01-141.73,148.65-194.15Z"/>
  </g>
  <g>
    <polygon class="cls-9" points="1895.48 2526.61 1915.86 3192.5 1875.1 3192.5 1895.48 2526.61"/>
    <path class="cls-9" d="M1895.48,3343.37c-26.34-71-71.29-159.08-118.9-213.68l118.9,43.01,118.87-43.01c-47.61,54.6-92.55,142.69-118.87,213.68Z"/>
  </g>
</svg>