<?xml version="1.0" encoding="UTF-8"?>
<svg id="Layer_1" data-name="Layer 1" xmlns="http://www.w3.org/2000/svg" viewBox="0 0 6914.52 3696.75">
  <defs>
    <style>
      .cls-1 {
        stroke: #d1d3d4;
      }

      .cls-1, .cls-2 {
        stroke-width: 30px;
      }

      .cls-1, .cls-2, .cls-3, .cls-4, .cls-5, .cls-6, .cls-7 {
        stroke-miterlimit: 10;
      }

      .cls-1, .cls-2, .cls-6 {
        fill: none;
      }

      .cls-2 {
        stroke: #f68b31;
      }

      .cls-8, .cls-4 {
        fill: #fff;
      }

      .cls-9, .cls-5 {
        fill: #f68b31;
      }

      .cls-10, .cls-11, .cls-7 {
        fill: #d1d3d4;
      }

      .cls-12, .cls-3, .cls-13, .cls-14 {
        fill: #009444;
      }

      .cls-12, .cls-13, .cls-11, .cls-15 {
        font-family: CMUSerif-Italic, 'CMU Serif';
        font-style: italic;
      }

      .cls-12, .cls-15, .cls-16 {
        font-size: 250px;
      }

      .cls-3, .cls-4, .cls-5, .cls-7 {
        stroke: #231f20;
        stroke-width: 10px;
      }

      .cls-13, .cls-11 {
        font-size: 175px;
      }

      .cls-17, .cls-14 {
        font-family: Inter-SemiBold, Inter;
        font-size: 200px;
        font-variation-settings: 'wght' 600, 'slnt' 0;
        font-weight: 600;
      }

      .cls-6 {
        stroke: #fff;
        stroke-width: 20px;
      }

      .cls-7 {
        opacity: .6;
      }

      .cls-16 {
        font-family: Apple-Chancery, 'Apple Chancery';
      }
    </style>
  </defs>
  <rect class="cls-1" x="937.31" y="468.44" width="4068" height="2796.04" rx="120.53" ry="120.53"/>
  <circle class="cls-4" cx="515.79" cy="602.52" r="74.17"/>
  <circle class="cls-4" cx="803.79" cy="602.52" r="74.17"/>
  <circle class="cls-7" cx="1087.45" cy="602.52" r="74.17"/>
  <circle class="cls-7" cx="1379.79" cy="606.86" r="74.17"/>
  <circle class="cls-7" cx="1667.79" cy="606.86" r="74.17"/>
  <circle class="cls-7" cx="1951.45" cy="606.86" r="74.17"/>
  <circle class="cls-7" cx="2243.79" cy="602.52" r="74.17"/>
  <circle class="cls-7" cx="2531.79" cy="602.52" r="74.17"/>
  <circle class="cls-7" cx="2815.45" cy="602.52" r="74.17"/>
  <circle class="cls-7" cx="3107.79" cy="606.86" r="74.17"/>
  <circle class="cls-7" cx="3395.79" cy="606.86" r="74.17"/>
  <circle class="cls-7" cx="3679.45" cy="606.86" r="74.17"/>
  <circle class="cls-7" cx="3976.45" cy="602.52" r="74.17"/>
  <circle class="cls-7" cx="4264.45" cy="602.52" r="74.17"/>
  <circle class="cls-7" cx="4548.11" cy="602.52" r="74.17"/>
  <circle class="cls-7" cx="4840.45" cy="606.86" r="74.17"/>
  <circle class="cls-4" cx="5128.45" cy="606.86" r="74.17"/>
  <circle class="cls-4" cx="5412.11" cy="606.86" r="74.17"/>
  <circle class="cls-4" cx="515.79" cy="870.35" r="74.17"/>
  <circle class="cls-7" cx="1087.45" cy="870.35" r="74.17"/>
  <circle class="cls-7" cx="1379.79" cy="874.69" r="74.17"/>
  <circle class="cls-7" cx="1667.79" cy="874.69" r="74.17"/>
  <circle class="cls-7" cx="1951.45" cy="874.69" r="74.17"/>
  <circle class="cls-7" cx="2243.79" cy="870.35" r="74.17"/>
  <circle class="cls-7" cx="2531.79" cy="870.35" r="74.17"/>
  <circle class="cls-7" cx="2815.45" cy="870.35" r="74.17"/>
  <circle class="cls-7" cx="3107.79" cy="874.69" r="74.17"/>
  <circle class="cls-7" cx="3395.79" cy="874.69" r="74.17"/>
  <circle class="cls-7" cx="3679.45" cy="874.69" r="74.17"/>
  <circle class="cls-7" cx="3976.45" cy="870.35" r="74.17"/>
  <circle class="cls-7" cx="4264.45" cy="870.35" r="74.17"/>
  <circle class="cls-7" cx="4548.11" cy="870.35" r="74.17"/>
  <circle class="cls-7" cx="4840.45" cy="874.69" r="74.17"/>
  <circle class="cls-4" cx="515.79" cy="1169.52" r="74.17"/>
  <circle class="cls-7" cx="1087.45" cy="1169.52" r="74.17"/>
  <circle class="cls-7" cx="1379.79" cy="1173.86" r="74.17"/>
  <circle class="cls-7" cx="1667.79" cy="1173.86" r="74.17"/>
  <circle class="cls-7" cx="1951.45" cy="1173.86" r="74.17"/>
  <circle class="cls-7" cx="2243.79" cy="1169.52" r="74.17"/>
  <circle class="cls-3" cx="2531.79" cy="1169.52" r="74.17"/>
  <circle class="cls-3" cx="2815.45" cy="1169.52" r="74.17"/>
  <circle class="cls-3" cx="3107.79" cy="1173.86" r="74.17"/>
  <circle class="cls-3" cx="3395.79" cy="1173.86" r="74.17"/>
  <circle class="cls-3" cx="3679.45" cy="1173.86" r="74.17"/>
  <circle class="cls-3" cx="3976.45" cy="1169.52" r="74.17"/>
  <circle class="cls-3" cx="4264.45" cy="1169.52" r="74.17"/>
  <circle class="cls-3" cx="4548.11" cy="1169.52" r="74.17"/>
  <circle class="cls-3" cx="4840.45" cy="1173.86" r="74.17"/>
  <circle class="cls-5" cx="5128.45" cy="1173.86" r="74.17"/>
  <circle class="cls-5" cx="5412.11" cy="1173.86" r="74.17"/>
  <circle class="cls-4" cx="515.79" cy="1437.35" r="74.17"/>
  <circle class="cls-7" cx="1087.45" cy="1437.35" r="74.17"/>
  <circle class="cls-7" cx="1379.79" cy="1441.69" r="74.17"/>
  <circle class="cls-7" cx="1667.79" cy="1441.69" r="74.17"/>
  <circle class="cls-7" cx="1951.45" cy="1441.69" r="74.17"/>
  <circle class="cls-7" cx="2243.79" cy="1437.35" r="74.17"/>
  <circle class="cls-3" cx="2531.79" cy="1437.35" r="74.17"/>
  <circle class="cls-3" cx="2815.45" cy="1437.35" r="74.17"/>
  <circle class="cls-3" cx="3107.79" cy="1441.69" r="74.17"/>
  <circle class="cls-3" cx="3395.79" cy="1441.69" r="74.17"/>
  <circle class="cls-3" cx="3679.45" cy="1441.69" r="74.17"/>
  <circle class="cls-3" cx="3976.45" cy="1437.35" r="74.17"/>
  <circle class="cls-3" cx="4264.45" cy="1437.35" r="74.17"/>
  <circle class="cls-3" cx="4548.11" cy="1437.35" r="74.17"/>
  <circle class="cls-3" cx="4840.45" cy="1441.69" r="74.17"/>
  <circle class="cls-5" cx="5128.45" cy="1441.69" r="74.17"/>
  <circle class="cls-5" cx="5412.11" cy="1441.69" r="74.17"/>
  <circle class="cls-4" cx="515.79" cy="1687.18" r="74.17"/>
  <circle class="cls-7" cx="1087.45" cy="1687.18" r="74.17"/>
  <circle class="cls-7" cx="1379.79" cy="1691.52" r="74.17"/>
  <circle class="cls-7" cx="1667.79" cy="1691.52" r="74.17"/>
  <circle class="cls-7" cx="1951.45" cy="1691.52" r="74.17"/>
  <circle class="cls-7" cx="2243.79" cy="1687.18" r="74.17"/>
  <circle class="cls-3" cx="2531.79" cy="1687.18" r="74.17"/>
  <circle class="cls-3" cx="2815.45" cy="1687.18" r="74.17"/>
  <circle class="cls-3" cx="3107.79" cy="1691.52" r="74.17"/>
  <circle class="cls-3" cx="3395.79" cy="1691.52" r="74.17"/>
  <circle class="cls-3" cx="3679.45" cy="1691.52" r="74.17"/>
  <circle class="cls-3" cx="3976.45" cy="1687.18" r="74.17"/>
  <circle class="cls-3" cx="4264.45" cy="1687.18" r="74.17"/>
  <circle class="cls-3" cx="4548.11" cy="1687.18" r="74.17"/>
  <circle class="cls-3" cx="4840.45" cy="1691.52" r="74.17"/>
  <circle class="cls-5" cx="5128.45" cy="1691.52" r="74.17"/>
  <circle class="cls-5" cx="5412.11" cy="1691.52" r="74.17"/>
  <circle class="cls-4" cx="515.79" cy="1955.01" r="74.17"/>
  <circle class="cls-7" cx="1087.45" cy="1955.01" r="74.17"/>
  <circle class="cls-7" cx="1379.79" cy="1959.35" r="74.17"/>
  <circle class="cls-7" cx="1667.79" cy="1959.35" r="74.17"/>
  <circle class="cls-7" cx="1951.45" cy="1959.35" r="74.17"/>
  <circle class="cls-7" cx="2243.79" cy="1955.01" r="74.17"/>
  <circle class="cls-3" cx="2531.79" cy="1955.01" r="74.17"/>
  <circle class="cls-3" cx="2815.45" cy="1955.01" r="74.17"/>
  <circle class="cls-3" cx="3107.79" cy="1959.35" r="74.17"/>
  <circle class="cls-3" cx="3395.79" cy="1959.35" r="74.17"/>
  <circle class="cls-3" cx="3679.45" cy="1959.35" r="74.17"/>
  <circle class="cls-3" cx="3976.45" cy="1955.01" r="74.17"/>
  <circle class="cls-3" cx="4264.45" cy="1955.01" r="74.17"/>
  <circle class="cls-3" cx="4548.11" cy="1955.01" r="74.17"/>
  <circle class="cls-3" cx="4840.45" cy="1959.35" r="74.17"/>
  <circle class="cls-5" cx="5128.45" cy="1959.35" r="74.17"/>
  <circle class="cls-5" cx="5412.11" cy="1959.35" r="74.17"/>
  <circle class="cls-4" cx="515.79" cy="2254.18" r="74.17"/>
  <circle class="cls-7" cx="1087.45" cy="2254.18" r="74.17"/>
  <circle class="cls-7" cx="1379.79" cy="2258.52" r="74.17"/>
  <circle class="cls-7" cx="1667.79" cy="2258.52" r="74.17"/>
  <circle class="cls-7" cx="1951.45" cy="2258.52" r="74.17"/>
  <circle class="cls-7" cx="2243.79" cy="2254.18" r="74.17"/>
  <circle class="cls-3" cx="2531.79" cy="2254.18" r="74.17"/>
  <circle class="cls-3" cx="2815.45" cy="2254.18" r="74.17"/>
  <circle class="cls-3" cx="3107.79" cy="2258.52" r="74.17"/>
  <circle class="cls-3" cx="3395.79" cy="2258.52" r="74.17"/>
  <circle class="cls-3" cx="3679.45" cy="2258.52" r="74.17"/>
  <circle class="cls-3" cx="3976.45" cy="2254.18" r="74.17"/>
  <circle class="cls-3" cx="4264.45" cy="2254.18" r="74.17"/>
  <circle class="cls-3" cx="4548.11" cy="2254.18" r="74.17"/>
  <circle class="cls-3" cx="4840.45" cy="2258.52" r="74.17"/>
  <circle class="cls-5" cx="5128.45" cy="2258.52" r="74.17"/>
  <circle class="cls-5" cx="5412.11" cy="2258.52" r="74.17"/>
  <circle class="cls-4" cx="515.79" cy="2522.01" r="74.17"/>
  <circle class="cls-7" cx="1087.45" cy="2522.01" r="74.17"/>
  <circle class="cls-7" cx="1379.79" cy="2526.35" r="74.17"/>
  <circle class="cls-7" cx="1667.79" cy="2526.35" r="74.17"/>
  <circle class="cls-7" cx="1951.45" cy="2526.35" r="74.17"/>
  <circle class="cls-7" cx="2243.79" cy="2522.01" r="74.17"/>
  <circle class="cls-3" cx="2531.79" cy="2522.01" r="74.17"/>
  <circle class="cls-3" cx="2815.45" cy="2522.01" r="74.17"/>
  <circle class="cls-3" cx="3107.79" cy="2526.35" r="74.17"/>
  <circle class="cls-3" cx="3395.79" cy="2526.35" r="74.17"/>
  <circle class="cls-3" cx="3679.45" cy="2526.35" r="74.17"/>
  <circle class="cls-3" cx="3976.45" cy="2522.01" r="74.17"/>
  <circle class="cls-3" cx="4264.45" cy="2522.01" r="74.17"/>
  <circle class="cls-3" cx="4548.11" cy="2522.01" r="74.17"/>
  <circle class="cls-3" cx="4840.45" cy="2526.35" r="74.17"/>
  <circle class="cls-5" cx="5128.45" cy="2526.35" r="74.17"/>
  <circle class="cls-5" cx="5412.11" cy="2526.35" r="74.17"/>
  <circle class="cls-4" cx="515.79" cy="2823.35" r="74.17"/>
  <circle class="cls-7" cx="1087.45" cy="2823.35" r="74.17"/>
  <circle class="cls-7" cx="1379.79" cy="2827.69" r="74.17"/>
  <circle class="cls-7" cx="1667.79" cy="2827.69" r="74.17"/>
  <circle class="cls-7" cx="1951.45" cy="2827.69" r="74.17"/>
  <circle class="cls-7" cx="2243.79" cy="2823.35" r="74.17"/>
  <circle class="cls-3" cx="2531.79" cy="2823.35" r="74.17"/>
  <circle class="cls-3" cx="2815.45" cy="2823.35" r="74.17"/>
  <circle class="cls-3" cx="3107.79" cy="2827.69" r="74.17"/>
  <circle class="cls-3" cx="3395.79" cy="2827.69" r="74.17"/>
  <circle class="cls-3" cx="3679.45" cy="2827.69" r="74.17"/>
  <circle class="cls-3" cx="3976.45" cy="2823.35" r="74.17"/>
  <circle class="cls-3" cx="4264.45" cy="2823.35" r="74.17"/>
  <circle class="cls-3" cx="4548.11" cy="2823.35" r="74.17"/>
  <circle class="cls-3" cx="4840.45" cy="2827.69" r="74.17"/>
  <circle class="cls-5" cx="5128.45" cy="2827.69" r="74.17"/>
  <circle class="cls-5" cx="5412.11" cy="2827.69" r="74.17"/>
  <circle class="cls-4" cx="515.79" cy="3122.52" r="74.17"/>
  <circle class="cls-7" cx="1087.45" cy="3122.52" r="74.17"/>
  <circle class="cls-7" cx="1379.79" cy="3126.86" r="74.17"/>
  <circle class="cls-7" cx="1667.79" cy="3126.86" r="74.17"/>
  <circle class="cls-7" cx="1951.45" cy="3126.86" r="74.17"/>
  <circle class="cls-7" cx="2243.79" cy="3122.52" r="74.17"/>
  <circle class="cls-7" cx="2531.79" cy="3122.52" r="74.17"/>
  <circle class="cls-7" cx="2815.45" cy="3122.52" r="74.17"/>
  <circle class="cls-7" cx="3107.79" cy="3122.52" r="74.17"/>
  <circle class="cls-7" cx="4840.45" cy="3122.52" r="74.17"/>
  <circle class="cls-4" cx="5128.45" cy="3126.86" r="74.17"/>
  <circle class="cls-4" cx="5412.11" cy="3126.86" r="74.17"/>
  <circle class="cls-4" cx="515.79" cy="3390.35" r="74.17"/>
  <circle class="cls-4" cx="803.79" cy="3390.35" r="74.17"/>
  <circle class="cls-4" cx="1087.45" cy="3390.35" r="74.17"/>
  <circle class="cls-4" cx="1379.79" cy="3394.69" r="74.17"/>
  <circle class="cls-4" cx="1667.79" cy="3394.69" r="74.17"/>
  <circle class="cls-4" cx="1951.45" cy="3394.69" r="74.17"/>
  <circle class="cls-4" cx="2243.79" cy="3390.35" r="74.17"/>
  <circle class="cls-4" cx="2531.79" cy="3390.35" r="74.17"/>
  <circle class="cls-4" cx="2815.45" cy="3390.35" r="74.17"/>
  <circle class="cls-4" cx="5128.45" cy="3394.69" r="74.17"/>
  <circle class="cls-4" cx="4840.45" cy="3394.69" r="74.17"/>
  <circle class="cls-4" cx="5412.11" cy="3394.69" r="74.17"/>
  <circle class="cls-4" cx="5704.45" cy="602.52" r="74.17"/>
  <circle class="cls-4" cx="5996.79" cy="606.86" r="74.17"/>
  <circle class="cls-4" cx="6284.79" cy="606.86" r="74.17"/>
  <circle class="cls-4" cx="6568.45" cy="606.86" r="74.17"/>
  <circle class="cls-5" cx="5704.45" cy="1169.52" r="74.17"/>
  <circle class="cls-5" cx="5996.79" cy="1173.86" r="74.17"/>
  <circle class="cls-4" cx="6284.79" cy="1173.86" r="74.17"/>
  <circle class="cls-4" cx="6568.45" cy="1173.86" r="74.17"/>
  <circle class="cls-5" cx="5704.45" cy="1437.35" r="74.17"/>
  <circle class="cls-5" cx="5996.79" cy="1441.69" r="74.17"/>
  <circle class="cls-4" cx="6284.79" cy="1441.69" r="74.17"/>
  <circle class="cls-4" cx="6568.45" cy="1441.69" r="74.17"/>
  <circle class="cls-5" cx="5704.45" cy="1687.18" r="74.17"/>
  <circle class="cls-5" cx="5996.79" cy="1691.52" r="74.17"/>
  <circle class="cls-4" cx="6284.79" cy="1691.52" r="74.17"/>
  <circle class="cls-4" cx="6568.45" cy="1691.52" r="74.17"/>
  <circle class="cls-5" cx="5704.45" cy="1955.01" r="74.17"/>
  <circle class="cls-5" cx="5996.79" cy="1959.35" r="74.17"/>
  <circle class="cls-4" cx="6284.79" cy="1959.35" r="74.17"/>
  <circle class="cls-4" cx="6568.45" cy="1959.35" r="74.17"/>
  <circle class="cls-5" cx="5704.45" cy="2254.18" r="74.17"/>
  <circle class="cls-5" cx="5996.79" cy="2258.52" r="74.17"/>
  <circle class="cls-4" cx="6284.79" cy="2258.52" r="74.17"/>
  <circle class="cls-4" cx="6568.45" cy="2258.52" r="74.17"/>
  <circle class="cls-5" cx="5704.45" cy="2522.01" r="74.17"/>
  <circle class="cls-5" cx="5996.79" cy="2526.35" r="74.17"/>
  <circle class="cls-4" cx="6284.79" cy="2526.35" r="74.17"/>
  <circle class="cls-4" cx="6568.45" cy="2526.35" r="74.17"/>
  <circle class="cls-5" cx="5704.45" cy="2823.35" r="74.17"/>
  <circle class="cls-5" cx="5996.79" cy="2827.69" r="74.17"/>
  <circle class="cls-4" cx="6284.79" cy="2827.69" r="74.17"/>
  <circle class="cls-4" cx="6568.45" cy="2827.69" r="74.17"/>
  <circle class="cls-4" cx="5704.45" cy="3122.52" r="74.17"/>
  <circle class="cls-4" cx="5996.79" cy="3126.86" r="74.17"/>
  <circle class="cls-4" cx="6284.79" cy="3126.86" r="74.17"/>
  <circle class="cls-4" cx="6568.45" cy="3126.86" r="74.17"/>
  <circle class="cls-4" cx="5704.45" cy="3390.35" r="74.17"/>
  <circle class="cls-4" cx="5996.79" cy="3394.69" r="74.17"/>
  <circle class="cls-4" cx="6284.79" cy="3394.69" r="74.17"/>
  <circle class="cls-4" cx="6568.45" cy="3394.69" r="74.17"/>
  <rect class="cls-6" x="179.72" y="310.46" width="6724.81" height="3376.3"/>
  <text class="cls-8" transform="translate(140.31 223.51)"><tspan class="cls-17" x="0" y="0">UNIVERSE: </tspan><tspan class="cls-16" x="1105.31" y="0">U</tspan></text>
  <rect class="cls-2" x="2357.38" y="1011.85" width="3806.41" height="1973.51" rx="91.03" ry="91.03"/>
  <text class="cls-9" transform="translate(4927.14 925.64)"><tspan class="cls-17" x="0" y="0">ACCESS FRAME: </tspan><tspan class="cls-15" x="1675.48" y="0">F</tspan></text>
  <g>
    <text class="cls-10" transform="translate(874.12 3311.59) rotate(-90)"><tspan class="cls-17" x="0" y="0">TARGET POPULATION: </tspan><tspan class="cls-15" x="2275.75" y="0">T</tspan></text>
    <text class="cls-11" transform="translate(920.96 865.38) rotate(-90)"><tspan x="0" y="0">P</tspan></text>
  </g>
  <text class="cls-14" transform="translate(3366.61 3210.48)"><tspan x="0" y="0">SAMPLED </tspan><tspan x="-342.97" y="240">POPULATION</tspan></text>
  <g>
    <text class="cls-12" transform="translate(4505.23 3337.97)"><tspan x="0" y="0">S</tspan></text>
    <text class="cls-13" transform="translate(4633.89 3403.95)"><tspan x="0" y="0">P</tspan></text>
  </g>
</svg>