<?xml version="1.0" encoding="UTF-8"?>
<svg id="Layer_1" data-name="Layer 1" xmlns="http://www.w3.org/2000/svg" viewBox="0 0 4576.14 3577.38">
  <defs>
    <style>
      .cls-1 {
        font-size: 250px;
      }

      .cls-1, .cls-2, .cls-3, .cls-4 {
        fill: #009444;
      }

      .cls-1, .cls-3 {
        font-family: CMUSerif-Italic, 'CMU Serif';
        font-style: italic;
      }

      .cls-2 {
        stroke: #231f20;
        stroke-width: 10px;
      }

      .cls-2, .cls-5 {
        stroke-miterlimit: 10;
      }

      .cls-5 {
        fill: none;
        stroke: #662d91;
        stroke-width: 50px;
      }

      .cls-6 {
        fill: #92278f;
      }

      .cls-6, .cls-7, .cls-8, .cls-4 {
        font-family: Inter-SemiBold, Inter;
        font-size: 200px;
        font-variation-settings: 'wght' 600, 'slnt' 0;
        font-weight: 600;
      }

      .cls-7, .cls-9 {
        fill: #ed1c24;
      }

      .cls-8 {
        fill: #662d91;
      }

      .cls-3 {
        font-size: 175px;
      }

      .cls-9 {
        stroke-width: 0px;
      }
    </style>
  </defs>
  <circle class="cls-2" cx="1246.27" cy="1005.28" r="74.17"/>
  <circle class="cls-2" cx="1529.93" cy="1005.28" r="74.17"/>
  <circle class="cls-2" cx="1822.27" cy="1009.62" r="74.17"/>
  <circle class="cls-2" cx="2110.27" cy="1009.62" r="74.17"/>
  <circle class="cls-2" cx="2393.93" cy="1009.62" r="74.17"/>
  <circle class="cls-2" cx="2690.93" cy="1005.28" r="74.17"/>
  <circle class="cls-2" cx="2978.93" cy="1005.28" r="74.17"/>
  <circle class="cls-2" cx="3262.59" cy="1005.28" r="74.17"/>
  <circle class="cls-2" cx="3554.93" cy="1009.62" r="74.17"/>
  <circle class="cls-2" cx="1246.27" cy="1273.11" r="74.17"/>
  <circle class="cls-2" cx="1529.93" cy="1273.11" r="74.17"/>
  <circle class="cls-2" cx="1822.27" cy="1277.45" r="74.17"/>
  <circle class="cls-2" cx="2110.27" cy="1277.45" r="74.17"/>
  <circle class="cls-2" cx="2393.93" cy="1277.45" r="74.17"/>
  <circle class="cls-2" cx="2690.93" cy="1273.11" r="74.17"/>
  <circle class="cls-2" cx="2978.93" cy="1273.11" r="74.17"/>
  <circle class="cls-2" cx="3262.59" cy="1273.11" r="74.17"/>
  <circle class="cls-2" cx="3554.93" cy="1277.45" r="74.17"/>
  <circle class="cls-2" cx="1246.27" cy="1522.94" r="74.17"/>
  <circle class="cls-2" cx="1529.93" cy="1522.94" r="74.17"/>
  <circle class="cls-2" cx="1822.27" cy="1527.28" r="74.17"/>
  <circle class="cls-2" cx="2110.27" cy="1527.28" r="74.17"/>
  <circle class="cls-2" cx="2393.93" cy="1527.28" r="74.17"/>
  <circle class="cls-2" cx="2690.93" cy="1522.94" r="74.17"/>
  <circle class="cls-2" cx="2978.93" cy="1522.94" r="74.17"/>
  <circle class="cls-2" cx="3262.59" cy="1522.94" r="74.17"/>
  <circle class="cls-2" cx="3554.93" cy="1527.28" r="74.17"/>
  <circle class="cls-2" cx="1246.27" cy="1790.77" r="74.17"/>
  <circle class="cls-2" cx="1529.93" cy="1790.77" r="74.17"/>
  <circle class="cls-2" cx="1822.27" cy="1795.11" r="74.17"/>
  <circle class="cls-2" cx="2110.27" cy="1795.11" r="74.17"/>
  <circle class="cls-2" cx="2393.93" cy="1795.11" r="74.17"/>
  <circle class="cls-2" cx="2690.93" cy="1790.77" r="74.17"/>
  <circle class="cls-2" cx="2978.93" cy="1790.77" r="74.17"/>
  <circle class="cls-2" cx="3262.59" cy="1790.77" r="74.17"/>
  <circle class="cls-2" cx="3554.93" cy="1795.11" r="74.17"/>
  <circle class="cls-2" cx="1246.27" cy="2089.94" r="74.17"/>
  <circle class="cls-2" cx="1529.93" cy="2089.94" r="74.17"/>
  <circle class="cls-2" cx="1822.27" cy="2094.28" r="74.17"/>
  <circle class="cls-2" cx="2110.27" cy="2094.28" r="74.17"/>
  <circle class="cls-2" cx="2393.93" cy="2094.28" r="74.17"/>
  <circle class="cls-2" cx="2690.93" cy="2089.94" r="74.17"/>
  <circle class="cls-2" cx="2978.93" cy="2089.94" r="74.17"/>
  <circle class="cls-2" cx="3262.59" cy="2089.94" r="74.17"/>
  <circle class="cls-2" cx="3554.93" cy="2094.28" r="74.17"/>
  <circle class="cls-2" cx="1246.27" cy="2357.77" r="74.17"/>
  <circle class="cls-2" cx="1529.93" cy="2357.77" r="74.17"/>
  <circle class="cls-2" cx="1822.27" cy="2362.11" r="74.17"/>
  <circle class="cls-2" cx="2110.27" cy="2362.11" r="74.17"/>
  <circle class="cls-2" cx="2393.93" cy="2362.11" r="74.17"/>
  <circle class="cls-2" cx="2690.93" cy="2357.77" r="74.17"/>
  <circle class="cls-2" cx="2978.93" cy="2357.77" r="74.17"/>
  <circle class="cls-2" cx="3262.59" cy="2357.77" r="74.17"/>
  <circle class="cls-2" cx="3554.93" cy="2362.11" r="74.17"/>
  <circle class="cls-2" cx="1246.27" cy="2659.11" r="74.17"/>
  <circle class="cls-2" cx="1529.93" cy="2659.11" r="74.17"/>
  <circle class="cls-2" cx="1822.27" cy="2663.45" r="74.17"/>
  <circle class="cls-2" cx="2110.27" cy="2663.45" r="74.17"/>
  <circle class="cls-2" cx="2393.93" cy="2663.45" r="74.17"/>
  <circle class="cls-2" cx="2690.93" cy="2659.11" r="74.17"/>
  <circle class="cls-2" cx="2978.93" cy="2659.11" r="74.17"/>
  <circle class="cls-2" cx="3262.59" cy="2659.11" r="74.17"/>
  <circle class="cls-2" cx="3554.93" cy="2663.45" r="74.17"/>
  <text class="cls-4" transform="translate(1660.64 172.73)"><tspan x="0" y="0">SAMPLED </tspan><tspan x="-342.97" y="240">POPULATION</tspan></text>
  <g>
    <text class="cls-1" transform="translate(2799.26 300.21)"><tspan x="0" y="0">S</tspan></text>
    <text class="cls-3" transform="translate(2927.92 366.19)"><tspan x="0" y="0">P</tspan></text>
  </g>
  <rect class="cls-5" x="1076.3" y="825.01" width="1201.57" height="1100" rx="180.45" ry="180.45"/>
  <rect class="cls-5" x="2274.55" y="840.64" width="1425.34" height="825.99" rx="180.45" ry="180.45"/>
  <rect class="cls-5" x="2274.55" y="1676.94" width="1408.77" height="1151.66" rx="180.45" ry="180.45"/>
  <rect class="cls-5" x="1076.3" y="1925.01" width="601.19" height="903.59" rx="180.45" ry="180.45"/>
  <rect class="cls-5" x="1677.49" y="1925.01" width="600.38" height="903.59" rx="180.45" ry="180.45"/>
  <text class="cls-6" transform="translate(336.33 740.79)"><tspan x="0" y="0">STRATUM 1</tspan></text>
  <text class="cls-6" transform="translate(2750.4 740.79)"><tspan x="0" y="0">STRATUM 2</tspan></text>
  <text class="cls-6" transform="translate(3399.59 3159.48)"><tspan x="0" y="0">STRATUM 3</tspan></text>
  <text class="cls-8" transform="translate(517.18 2233.15)"><tspan x="0" y="0">•••</tspan></text>
  <g>
    <path class="cls-9" d="M685.54,1293.52c36.97-11.76,74.66-21.11,112.75-27.87,4.76-.88,9.53-1.63,14.3-2.43,4.78-.73,9.55-1.52,14.34-2.17l7.18-1.02,7.19-.93c4.83-.64,9.47-1.17,14.23-1.74,18.96-2.26,38.12-4.2,57.32-5.55,19.21-1.33,38.49-2.09,57.77-2.16,19.28-.05,38.58.61,57.81,2.02,38.46,2.83,76.69,8.66,114.07,17.87,18.68,4.61,37.15,10.03,55.33,16.22l6.81,2.36c2.27.78,4.54,1.56,6.78,2.43l13.47,5.07,13.32,5.43,3.33,1.36,3.29,1.45,6.58,2.9c35.05,15.51,68.56,34.27,100.25,55.52,4.02,2.57,7.87,5.39,11.76,8.15,3.88,2.78,7.8,5.49,11.63,8.32l11.37,8.66c1.88,1.46,3.81,2.85,5.66,4.36l5.54,4.51c14.9,11.85,29.06,24.6,42.85,37.66l10.22,9.92,9.95,10.19c3.35,3.36,6.52,6.9,9.76,10.36l4.84,5.22c1.6,1.75,3.15,3.55,4.72,5.32,12.6,14.17,24.64,28.82,36.05,43.93-12.11-14.55-24.8-28.6-38.01-42.1-1.65-1.69-3.28-3.4-4.95-5.07l-5.06-4.96c-3.39-3.29-6.69-6.66-10.18-9.84l-10.36-9.64-10.6-9.36c-14.29-12.3-28.88-24.24-44.14-35.25l-5.68-4.19c-1.89-1.4-3.86-2.69-5.79-4.04l-11.61-8c-3.91-2.61-7.9-5.1-11.84-7.65-3.95-2.53-7.87-5.12-11.94-7.46-32.14-19.41-65.78-36.2-100.65-49.71l-6.54-2.52-3.27-1.26-3.3-1.17-13.21-4.67-13.32-4.31c-2.21-.74-4.45-1.4-6.69-2.05l-6.71-1.97c-17.92-5.17-36.04-9.58-54.31-13.18-36.54-7.19-73.64-11.06-110.78-12.04-18.57-.48-37.15-.24-55.7.68-18.55.94-37.07,2.56-55.55,4.71-18.48,2.18-36.9,4.92-55.4,8.02-4.6.77-9.33,1.55-13.85,2.37l-6.84,1.21-6.83,1.3c-4.55.84-9.08,1.82-13.62,2.73-4.52.99-9.06,1.92-13.57,2.97-36.11,8.18-71.62,18.8-106.23,31.64l-13.94-40.54Z"/>
    <path class="cls-9" d="M554.62,1375.01c75.61-4.12,174.31,2.02,243.36,23.94l-86.81-91.93-7.9-126.16c-31.12,65.42-94.01,141.73-148.65,194.15Z"/>
  </g>
  <text class="cls-7" transform="translate(148.88 1497.9)"><tspan x="0" y="0">SRS</tspan></text>
  <text class="cls-7" transform="translate(66.67 2634.07)"><tspan x="0" y="0">SRS</tspan></text>
  <text class="cls-7" transform="translate(1794.67 3513.46)"><tspan x="0" y="0">SRS</tspan></text>
  <g>
    <path class="cls-9" d="M3923.14,1083.82c-34.62-12.84-70.12-23.46-106.23-31.64-4.51-1.05-9.04-1.99-13.57-2.97-4.54-.91-9.07-1.89-13.62-2.73l-6.83-1.3-6.84-1.21c-4.52-.82-9.25-1.59-13.85-2.37-18.51-3.1-36.92-5.84-55.4-8.02-18.48-2.15-36.99-3.77-55.55-4.71-18.55-.93-37.13-1.17-55.7-.68-37.13.98-74.24,4.85-110.78,12.04-18.27,3.6-36.39,8-54.31,13.18l-6.71,1.97c-2.24.65-4.48,1.31-6.69,2.05l-13.32,4.31-13.21,4.67-3.3,1.17-3.27,1.26-6.54,2.52c-34.87,13.5-68.51,30.3-100.65,49.71-4.07,2.34-7.99,4.93-11.94,7.46-3.94,2.55-7.93,5.04-11.84,7.65l-11.61,8c-1.93,1.35-3.9,2.64-5.79,4.04l-5.68,4.19c-15.27,11.01-29.86,22.95-44.14,35.25l-10.6,9.36-10.36,9.64c-3.49,3.18-6.8,6.54-10.18,9.84l-5.06,4.96c-1.67,1.67-3.29,3.38-4.95,5.07-13.21,13.51-25.9,27.55-38.01,42.1,11.41-15.11,23.44-29.76,36.05-43.93,1.57-1.77,3.13-3.57,4.72-5.32l4.84-5.22c3.24-3.46,6.41-7,9.76-10.36l9.95-10.19,10.22-9.92c13.79-13.06,27.95-25.81,42.85-37.66l5.54-4.51c1.85-1.5,3.77-2.9,5.66-4.36l11.37-8.66c3.83-2.83,7.75-5.54,11.63-8.32,3.89-2.76,7.75-5.57,11.76-8.15,31.7-21.25,65.2-40.01,100.25-55.52l6.58-2.9,3.29-1.45,3.33-1.36,13.32-5.43,13.47-5.07c2.24-.87,4.51-1.65,6.78-2.43l6.81-2.36c18.18-6.19,36.64-11.61,55.33-16.22,37.37-9.2,75.61-15.04,114.07-17.87,19.23-1.41,38.52-2.07,57.81-2.02,19.28.07,38.56.83,57.77,2.16,19.2,1.35,38.36,3.29,57.32,5.55,4.77.57,9.41,1.11,14.23,1.74l7.19.93,7.18,1.02c4.79.65,9.56,1.44,14.34,2.17,4.77.81,9.54,1.56,14.3,2.43,38.1,6.76,75.78,16.11,112.75,27.87l-13.94,40.54Z"/>
    <path class="cls-9" d="M4068.01,1124.77c-54.63-52.44-117.52-128.76-148.64-194.17l-7.91,126.19-86.8,91.9c69.05-21.92,167.75-28.06,243.35-23.92Z"/>
  </g>
  <text class="cls-7" transform="translate(4032.84 1302.77)"><tspan x="0" y="0">SRS</tspan></text>
  <text class="cls-7" transform="translate(4032.84 2385.88)"><tspan x="0" y="0">SRS</tspan></text>
  <g>
    <path class="cls-9" d="M3937.09,2497.21c-36.97,11.76-74.66,21.11-112.75,27.87-4.76.88-9.53,1.63-14.3,2.43-4.78.73-9.55,1.52-14.34,2.17l-7.18,1.02-7.19.93c-4.83.64-9.47,1.17-14.23,1.74-18.96,2.26-38.12,4.2-57.32,5.55-19.21,1.33-38.49,2.09-57.77,2.16-19.28.05-38.58-.61-57.81-2.02-38.46-2.83-76.69-8.66-114.07-17.87-18.68-4.61-37.15-10.03-55.33-16.22l-6.81-2.36c-2.27-.78-4.54-1.56-6.78-2.43l-13.47-5.07-13.32-5.43-3.33-1.36-3.29-1.45-6.58-2.9c-35.05-15.51-68.56-34.27-100.25-55.52-4.02-2.57-7.87-5.39-11.76-8.15-3.88-2.78-7.8-5.49-11.63-8.32l-11.37-8.66c-1.88-1.46-3.81-2.85-5.66-4.36l-5.54-4.51c-14.9-11.85-29.06-24.6-42.85-37.66l-10.22-9.92-9.95-10.19c-3.35-3.36-6.52-6.9-9.76-10.36l-4.84-5.22c-1.6-1.75-3.15-3.55-4.72-5.32-12.61-14.17-24.64-28.82-36.05-43.93,12.11,14.55,24.8,28.6,38.01,42.1,1.65,1.69,3.28,3.4,4.95,5.07l5.06,4.96c3.39,3.29,6.69,6.66,10.18,9.84l10.36,9.64,10.6,9.36c14.29,12.3,28.88,24.24,44.14,35.25l5.68,4.19c1.89,1.4,3.86,2.69,5.79,4.04l11.61,8c3.91,2.61,7.9,5.1,11.84,7.65,3.96,2.53,7.87,5.12,11.94,7.46,32.14,19.41,65.78,36.2,100.65,49.71l6.54,2.52,3.27,1.26,3.3,1.17,13.21,4.67,13.32,4.31c2.21.74,4.45,1.4,6.69,2.05l6.71,1.97c17.92,5.17,36.04,9.58,54.31,13.18,36.54,7.19,73.64,11.06,110.78,12.04,18.57.48,37.15.24,55.7-.68,18.55-.94,37.07-2.56,55.55-4.71,18.48-2.18,36.9-4.92,55.4-8.02,4.6-.77,9.33-1.55,13.85-2.37l6.84-1.21,6.83-1.3c4.55-.84,9.08-1.82,13.62-2.73,4.52-.99,9.06-1.92,13.57-2.97,36.11-8.18,71.62-18.8,106.23-31.64l13.94,40.54Z"/>
    <path class="cls-9" d="M4068.01,2415.72c-75.61,4.12-174.31-2.02-243.36-23.94l86.81,91.93,7.9,126.16c31.12-65.42,94.01-141.73,148.65-194.15Z"/>
  </g>
  <g>
    <path class="cls-9" d="M643.09,2646.71c34.62,12.84,70.12,23.46,106.23,31.64,4.51,1.05,9.04,1.99,13.57,2.97,4.54.91,9.07,1.89,13.62,2.73l6.83,1.3,6.84,1.21c4.52.82,9.25,1.59,13.85,2.37,18.51,3.1,36.92,5.84,55.4,8.02,18.48,2.15,36.99,3.77,55.55,4.71,18.55.93,37.13,1.17,55.7.68,37.13-.98,74.24-4.85,110.78-12.04,18.27-3.6,36.39-8,54.31-13.18l6.71-1.97c2.24-.65,4.48-1.31,6.69-2.05l13.32-4.31,13.21-4.67,3.3-1.17,3.27-1.26,6.54-2.52c34.87-13.5,68.51-30.3,100.65-49.71,4.07-2.34,7.99-4.93,11.94-7.46,3.94-2.55,7.93-5.04,11.84-7.65l11.61-8c1.93-1.35,3.9-2.64,5.79-4.04l5.68-4.19c15.27-11.01,29.86-22.95,44.14-35.25l10.6-9.36,10.36-9.64c3.49-3.18,6.8-6.54,10.18-9.84l5.06-4.96c1.67-1.67,3.29-3.38,4.95-5.07,13.21-13.51,25.9-27.55,38.01-42.1-11.41,15.11-23.44,29.76-36.05,43.93-1.57,1.77-3.13,3.57-4.72,5.32l-4.84,5.22c-3.24,3.46-6.41,7-9.76,10.36l-9.95,10.19-10.22,9.92c-13.79,13.06-27.95,25.81-42.85,37.66l-5.54,4.51c-1.85,1.5-3.77,2.9-5.66,4.36l-11.37,8.66c-3.83,2.83-7.75,5.54-11.63,8.32-3.89,2.76-7.75,5.57-11.76,8.15-31.7,21.25-65.2,40.01-100.25,55.52l-6.58,2.9-3.29,1.45-3.33,1.36-13.32,5.43-13.47,5.07c-2.24.87-4.51,1.65-6.78,2.43l-6.81,2.36c-18.18,6.19-36.64,11.61-55.33,16.22-37.37,9.2-75.61,15.04-114.07,17.87-19.23,1.41-38.52,2.07-57.81,2.02-19.28-.07-38.56-.83-57.77-2.16-19.2-1.35-38.36-3.29-57.32-5.55-4.77-.57-9.41-1.11-14.23-1.74l-7.19-.93-7.18-1.02c-4.79-.65-9.56-1.44-14.34-2.17-4.77-.81-9.54-1.56-14.3-2.43-38.1-6.76-75.78-16.11-112.75-27.87l13.94-40.54Z"/>
    <path class="cls-9" d="M498.22,2605.76c54.63,52.44,117.52,128.76,148.64,194.17l7.91-126.19,86.8-91.9c-69.05,21.92-167.75,28.06-243.35,23.92Z"/>
  </g>
  <g>
    <polygon class="cls-9" points="1977.68 2526.61 1998.07 3192.5 1957.3 3192.5 1977.68 2526.61"/>
    <path class="cls-9" d="M1977.68,3343.37c-26.34-71-71.29-159.08-118.9-213.68l118.9,43.01,118.87-43.01c-47.61,54.6-92.55,142.69-118.87,213.68Z"/>
  </g>
</svg>