<svg version="1.1" viewBox="0.0 0.0 347.6745406824147 217.44094488188978" fill="none" stroke="none" stroke-linecap="square" stroke-miterlimit="10" xmlns:xlink="http://www.w3.org/1999/xlink" xmlns="http://www.w3.org/2000/svg"><clipPath id="p.0"><path d="m0 0l347.67453 0l0 217.44095l-347.67453 0l0 -217.44095z" clip-rule="nonzero"/></clipPath><g clip-path="url(#p.0)"><path fill="#000000" fill-opacity="0.0" d="m0 0l347.67453 0l0 217.44095l-347.67453 0z" fill-rule="evenodd"/><path fill="#000000" fill-opacity="0.0" d="m30.375328 0l0 159.37007" fill-rule="evenodd"/><path stroke="#595959" stroke-width="1.0" stroke-linejoin="round" stroke-linecap="butt" d="m30.375328 0l0 159.37007" fill-rule="evenodd"/><path fill="#000000" fill-opacity="0.0" d="m31.24147 158.76115l310.80316 0" fill-rule="evenodd"/><path stroke="#595959" stroke-width="1.0" stroke-linejoin="round" stroke-linecap="butt" d="m31.24147 158.76115l310.80316 0" fill-rule="evenodd"/><path fill="#003660" d="m53.76378 91.45407l25.952759 0l0 67.30708l-25.952759 0z" fill-rule="evenodd"/><path fill="#003660" d="m109.97113 54.698162l25.952759 0l0 104.06299l-25.952759 0z" fill-rule="evenodd"/><path fill="#003660" d="m166.17848 128.92651l25.952759 0l0 30.456696l-25.952759 0z" fill-rule="evenodd"/><path fill="#003660" d="m293.04987 91.45407l25.952759 0l0 67.30708l-25.952759 0z" fill-rule="evenodd"/><path fill="#000000" fill-opacity="0.0" d="m9.3175855E-5 208.77759l58.01575 -58.015762l29.700787 29.70079l-58.015747 58.015747z" fill-rule="evenodd"/><path fill="#595959" d="m40.18684 206.92662q-0.9612236 0.9612274 -2.1102715 1.4252625q-1.1490479 0.4640503 -2.386486 0.41984558q-1.226387 -0.055236816 -2.4306793 -0.59661865q-1.1932449 -0.5524292 -2.2318058 -1.5909882q-0.98332024 -0.98332214 -1.480505 -2.1876068q-0.49718475 -1.2042999 -0.5192814 -2.4638367q-0.033145905 -1.2705688 0.43089294 -2.4417267q0.45298958 -1.18219 1.4031639 -2.13237q0.67396164 -0.6739502 1.5246983 -1.1048431q0.83969116 -0.4419403 1.7235756 -0.5966339q0.8838806 -0.15467834 1.6793785 -0.022094727l0.033145905 1.9335022q-0.77339935 0 -1.4142151 0.13258362q-0.64081573 0.13258362 -1.1821938 0.40879822q-0.53033066 0.26516724 -0.93912506 0.6739502q-0.651865 0.6518707 -0.9722729 1.4584198q-0.3093605 0.79548645 -0.28726196 1.6572723q0.022096634 0.83969116 0.38669777 1.6904297q0.36460304 0.8286438 1.0717087 1.5357513q0.7513008 0.751297 1.590992 1.1490479q0.83968735 0.37564087 1.7014732 0.39775085q0.8617897 0 1.6793785 -0.3535614q0.8175926 -0.35354614 1.5357475 -1.071701q0.43089294 -0.43089294 0.7292061 -0.9722748q0.29830933 -0.54138184 0.4419403 -1.1269531q0.15468216 -0.59661865 0.15468216 -1.2153473l1.8672028 0.45300293q0.06629181 0.66290283 -0.17677689 1.4804993q-0.23202133 0.8065491 -0.70710754 1.6130829q-0.46403885 0.7955017 -1.115902 1.4473572zm7.5320854 -7.532074q-0.8507385 0.8507385 -2.0329323 1.0827484q-1.1821938 0.23202515 -2.4306793 -0.15467834q-1.2374382 -0.39775085 -2.2649536 -1.4252625q-1.0496101 -1.0496063 -1.4252586 -2.2870483q-0.3756523 -1.237442 -0.11048889 -2.4306793q0.2762146 -1.2042847 1.1821976 -2.1102753q0.541378 -0.5413666 1.1490479 -0.8175812q0.60766983 -0.29830933 1.226387 -0.34251404q0.6187172 -0.06628418 1.2042923 0.09944153q0.5855713 0.14363098 1.0606613 0.5082245l-0.39775085 0.19888306l-1.800911 -1.8009186l1.370018 -1.3700104l6.927437 6.927429l-1.370018 1.3700256l-1.6462326 -1.6462402l0.20992279 -0.40879822q0.28726196 0.4419403 0.38669968 1.0275269q0.088386536 0.5745239 -0.022098541 1.215332q-0.12153244 0.62976074 -0.40879822 1.2484894q-0.29830933 0.607666 -0.80654144 1.1159058zm-0.8949318 -1.6020508q0.62976456 -0.62976074 0.7954941 -1.3921051q0.16572952 -0.78445435 -0.09943771 -1.5799408q-0.26516342 -0.81759644 -0.9501724 -1.5026093q-0.67396164 -0.67396545 -1.4805069 -0.92807007q-0.7954941 -0.26516724 -1.5688934 -0.088394165q-0.77339554 0.15467834 -1.4031639 0.7844391q-0.60766983 0.6076813 -0.7623482 1.381073q-0.16572952 0.76234436 0.088386536 1.5688934q0.26516724 0.7955017 0.93912506 1.4694519q0.6850128 0.6850128 1.4915543 0.9612274q0.80654526 0.25411987 1.5799408 0.09944153q0.762352 -0.16572571 1.3700218 -0.773407zm7.311943 -5.080139l-8.695202 -8.695206l1.3589706 -1.358963l8.695206 8.695206l-1.3589745 1.358963zm-7.0489693 -4.154251l-1.3258247 -1.3258209l4.408367 -4.408371l1.3258286 1.3258209l-4.408371 4.408371zm11.948956 -0.45846558q-0.43089294 0.43089294 -0.9280777 0.41984558q-0.48613358 -0.022094727 -0.9612236 -0.49719238q-0.4419403 -0.4419403 -0.4750862 -0.96121216q-0.022094727 -0.5303345 0.38669968 -0.9391327q0.4419403 -0.4419403 0.93912506 -0.40879822q0.49718475 0.011047363 0.97227097 0.48614502q0.43089676 0.43089294 0.4529915 0.96121216q0.022098541 0.5303345 -0.38669968 0.9391327zm7.265003 -8.855988l-7.4909134 -7.490921l0.8617859 -0.11047363l-0.8507385 2.773178l-1.6241341 -0.8507385l1.1379967 -3.7896576l0.6850128 -0.68499756l8.7173 8.7173l-1.4363098 1.4363098zm-0.8065491 2.11026l-1.370018 -1.3700104l4.3973236 -4.3973236l1.370018 1.3700256l-4.3973236 4.3973083z" fill-rule="nonzero"/><path fill="#000000" fill-opacity="0.0" d="m54.418728 208.77759l58.01575 -58.015762l29.70079 29.70079l-58.015755 58.015747z" fill-rule="evenodd"/><path fill="#595959" d="m93.97225 207.55984q-0.9612198 0.9612274 -2.1102676 1.4252625q-1.1490479 0.46403503 -2.3864899 0.41984558q-1.226387 -0.055236816 -2.4306793 -0.59661865q-1.1932373 -0.5524292 -2.231804 -1.5909882q-0.98332214 -0.98332214 -1.4805069 -2.187622q-0.49718475 -1.2042847 -0.5192795 -2.4638214q-0.03314209 -1.2705841 0.43089294 -2.4417267q0.4529953 -1.18219 1.4031677 -2.13237q0.6739578 -0.67396545 1.5246964 -1.1048584q0.83969116 -0.4419403 1.7235718 -0.59661865q0.88388824 -0.15467834 1.6793823 -0.022094727l0.03314209 1.9335022q-0.77339935 0 -1.4142075 0.13256836q-0.64081573 0.13258362 -1.1821976 0.40879822q-0.53032684 0.26516724 -0.93912506 0.67396545q-0.6518631 0.6518707 -0.9722748 1.4584045q-0.3093567 0.7955017 -0.28726196 1.6572876q0.022094727 0.83969116 0.3867035 1.6904297q0.36460114 0.82862854 1.0717087 1.5357361q0.751297 0.75131226 1.5909882 1.1490479q0.83969116 0.37565613 1.701477 0.39775085q0.8617859 0 1.6793747 -0.35354614q0.81759644 -0.3535614 1.5357513 -1.0717163q0.43089294 -0.43089294 0.7292023 -0.9722748q0.29830933 -0.5413666 0.4419403 -1.1269379q0.15467834 -0.5966339 0.15467834 -1.2153473l1.8672028 0.45298767q0.06629181 0.6629181 -0.17677307 1.4805145q-0.23201752 0.8065338 -0.70710754 1.6130829q-0.46403503 0.79548645 -1.1159058 1.4473572zm7.532089 -7.532089q-0.8507385 0.8507385 -2.032936 1.0827637q-1.18219 0.23200989 -2.4306793 -0.15467834q-1.2374344 -0.39775085 -2.264946 -1.4252625q-1.049614 -1.0496216 -1.4252625 -2.2870483q-0.3756485 -1.237442 -0.11048889 -2.4306793q0.2762146 -1.2042999 1.1821976 -2.1102753q0.5413742 -0.54138184 1.1490479 -0.81759644q0.607666 -0.29830933 1.226387 -0.34249878q0.618721 -0.06629944 1.2042923 0.09944153q0.5855713 0.14363098 1.0606613 0.5082245l-0.39775085 0.19888306l-1.800911 -1.8009186l1.370018 -1.3700256l6.927437 6.9274445l-1.370018 1.3700104l-1.6462326 -1.646225l0.20992279 -0.40879822q0.28726196 0.4419403 0.38669586 1.0275116q0.088386536 0.5745239 -0.022094727 1.2153473q-0.121536255 0.62976074 -0.40879822 1.2484741q-0.29830933 0.6076813 -0.80654144 1.1159058zm-0.8949356 -1.6020355q0.6297684 -0.62976074 0.7955017 -1.3921204q0.16572571 -0.7844391 -0.09944153 -1.5799408q-0.26516724 -0.8175812 -0.9501724 -1.502594q-0.67396545 -0.67396545 -1.4805069 -0.9280853q-0.7954941 -0.26516724 -1.5688934 -0.088378906q-0.77339935 0.15467834 -1.4031677 0.7844391q-0.607666 0.607666 -0.76234436 1.381073q-0.16572571 0.76234436 0.088386536 1.5688934q0.26516724 0.79548645 0.93912506 1.4694519q0.6850128 0.6850128 1.4915543 0.9612274q0.80654144 0.25411987 1.5799408 0.09942627q0.762352 -0.16572571 1.370018 -0.7733917zm7.3119507 -5.080139l-8.695206 -8.695206l1.3589706 -1.358963l8.695206 8.695206l-1.3589706 1.358963zm-7.048973 -4.154251l-1.3258286 -1.3258209l4.408371 -4.408371l1.3258286 1.3258209l-4.408371 4.408371zm11.948959 -0.45846558q-0.43089294 0.43089294 -0.9280777 0.41984558q-0.4861374 -0.022109985 -0.9612274 -0.49719238q-0.4419403 -0.4419403 -0.4750824 -0.9612274q-0.022102356 -0.5303192 0.38669586 -0.93911743q0.4419403 -0.4419403 0.93912506 -0.40879822q0.49718475 0.011047363 0.9722748 0.48612976q0.43089294 0.43089294 0.45298767 0.9612274q0.022094727 0.5303345 -0.38669586 0.9391327zm6.2816772 -6.5689545l-1.513649 -0.65185547l-0.36460114 -5.999359q-0.011047363 -0.45298767 -0.07733917 -1.0054169q-0.055244446 -0.56347656 -0.16573334 -1.1159058q-0.11048126 -0.5524292 -0.29830933 -1.0054169q-0.17677307 -0.46403503 -0.47509003 -0.76234436q-0.41983795 -0.41984558 -0.8838806 -0.5524292q-0.46403503 -0.13258362 -0.9280777 0.022094727q-0.46403503 0.15467834 -0.894928 0.5855713q-0.3867035 0.3867035 -0.54138184 0.98332214q-0.14363098 0.5855713 -0.03314972 1.2926788q0.11048889 0.70710754 0.47509003 1.4252625l-1.7788162 0.40879822q-0.5413742 -0.98332214 -0.6297684 -1.9776917q-0.088386536 -1.0164642 0.25411987 -1.9335022q0.3425064 -0.93911743 1.0938034 -1.6904144q0.7844467 -0.78445435 1.7235718 -1.060669q0.9280777 -0.28726196 1.845108 -0.055236816q0.91703033 0.23200989 1.668335 0.98332214q0.29830933 0.29830933 0.55242157 0.68499756q0.24307251 0.37565613 0.44194794 0.8617859q0.18782043 0.47509766 0.32040405 1.0717163q0.14363098 0.5855713 0.23201752 1.2926788q0.088394165 0.70710754 0.121536255 1.5357513l0.18782806 4.386261l-0.6629181 -0.13256836l4.5409546 -4.5409546l1.370018 1.3700104l-5.5795135 5.5795135z" fill-rule="nonzero"/><path fill="#000000" fill-opacity="0.0" d="m109.97122 208.77759l58.015747 -58.015762l29.70079 29.70079l-58.015747 58.015747z" fill-rule="evenodd"/><path fill="#595959" d="m149.7754 207.30919q-0.9612274 0.9612274 -2.1102753 1.4252625q-1.1490479 0.46403503 -2.3864899 0.41984558q-1.2263794 -0.055236816 -2.4306793 -0.59661865q-1.1932373 -0.5524292 -2.2317963 -1.5909882q-0.98332214 -0.98332214 -1.4805145 -2.1876068q-0.49717712 -1.2042999 -0.51927185 -2.4638367q-0.03315735 -1.2705841 0.43089294 -2.4417267q0.45298767 -1.18219 1.4031525 -2.13237q0.67396545 -0.6739502 1.524704 -1.1048431q0.83969116 -0.44195557 1.7235718 -0.5966339q0.8838806 -0.15467834 1.6793823 -0.022094727l0.03314209 1.9335022q-0.7733917 0 -1.4142151 0.13258362q-0.6408081 0.13258362 -1.18219 0.40879822q-0.5303345 0.26515198 -0.9391327 0.6739502q-0.65185547 0.6518707 -0.9722595 1.4584045q-0.30937195 0.7955017 -0.28726196 1.6572876q0.022094727 0.83969116 0.38668823 1.6904297q0.36460876 0.8286438 1.0717163 1.5357513q0.751297 0.751297 1.5909882 1.1490479q0.83969116 0.37564087 1.701477 0.3977356q0.8617859 0 1.6793823 -0.35354614q0.8175812 -0.35354614 1.5357361 -1.0717163q0.43089294 -0.43089294 0.7292023 -0.9722595q0.29832458 -0.54138184 0.44195557 -1.1269531q0.15467834 -0.59661865 0.15467834 -1.2153473l1.8672028 0.45298767q0.06628418 0.6629181 -0.17678833 1.4805145q-0.23200989 0.8065338 -0.7070923 1.6130829q-0.4640503 0.7955017 -1.1159058 1.4473572zm7.532074 -7.532089q-0.85072327 0.8507385 -2.0329285 1.0827637q-1.18219 0.23202515 -2.4306793 -0.15467834q-1.2374268 -0.39775085 -2.2649536 -1.4252625q-1.0496063 -1.0496063 -1.4252625 -2.2870483q-0.37564087 -1.237442 -0.11047363 -2.4306793q0.2762146 -1.2042847 1.18219 -2.1102753q0.54138184 -0.54138184 1.1490479 -0.81759644q0.607666 -0.29830933 1.2263947 -0.34249878q0.6187134 -0.06628418 1.2042847 0.09944153q0.5855713 0.14363098 1.0606537 0.5082245l-0.3977356 0.19888306l-1.8009186 -1.8009186l1.3700256 -1.3700104l6.927429 6.927429l-1.3700256 1.3700256l-1.646225 -1.6462402l0.20991516 -0.40879822q0.28726196 0.4419403 0.3867035 1.0275116q0.088394165 0.5745239 -0.022094727 1.2153473q-0.121536255 0.62976074 -0.40879822 1.2484894q-0.29830933 0.607666 -0.8065491 1.1158905zm-0.894928 -1.6020355q0.629776 -0.62976074 0.7955017 -1.3921051q0.16572571 -0.78445435 -0.09944153 -1.579956q-0.26516724 -0.8175812 -0.95018005 -1.502594q-0.6739502 -0.67396545 -1.4804993 -0.9280853q-0.7955017 -0.26515198 -1.5688934 -0.088378906q-0.7733917 0.15467834 -1.4031677 0.7844391q-0.607666 0.6076813 -0.76234436 1.381073q-0.16572571 0.76234436 0.088394165 1.5688934q0.26515198 0.7955017 0.93911743 1.4694519q0.6850128 0.6850128 1.4915619 0.9612274q0.8065338 0.25411987 1.5799408 0.09944153q0.76234436 -0.16572571 1.3700104 -0.773407zm7.3119507 -5.080139l-8.695206 -8.695206l1.3589783 -1.358963l8.69519 8.695206l-1.358963 1.358963zm-7.0489655 -4.154251l-1.3258362 -1.3258209l4.408371 -4.408371l1.3258209 1.3258209l-4.4083557 4.408371zm11.948944 -0.45846558q-0.43089294 0.43089294 -0.92807007 0.41984558q-0.48614502 -0.022094727 -0.9612274 -0.49719238q-0.4419403 -0.4419403 -0.4750824 -0.96121216q-0.022094727 -0.5303345 0.38668823 -0.9391327q0.44195557 -0.4419403 0.9391327 -0.40879822q0.49719238 0.011047363 0.9722748 0.48612976q0.43089294 0.43089294 0.45298767 0.9612274q0.022094727 0.5303345 -0.3867035 0.9391327zm8.502441 -8.524536q-0.98332214 0.98332214 -2.1434174 1.2595367q-1.1711426 0.26516724 -2.8615723 -0.16572571l0.40879822 -1.8009186q0.81759644 0.15467834 1.4473572 0.14363098q0.6408081 -0.022094727 1.1380005 -0.20991516q0.48612976 -0.19888306 0.8617859 -0.5745392q0.46403503 -0.46403503 0.62976074 -1.0937958q0.16574097 -0.629776 -0.011047363 -1.2705841q-0.16572571 -0.6518707 -0.68499756 -1.1711426q-0.50823975 -0.50823975 -1.060669 -0.6850128q-0.5524292 -0.17677307 -1.093811 -0.011047363q-0.55241394 0.15467834 -1.038559 0.6408081q-0.23200989 0.23202515 -0.41984558 0.5303345q-0.1988678 0.28726196 -0.38668823 0.6518707q-0.19888306 0.35354614 -0.39775085 0.8175812l-1.4363098 -0.6408081l-0.28726196 -5.988312l0.68499756 0.13258362l-3.9332733 3.9332733l-1.3258209 -1.3258209l5.2922516 -5.2922516l0.79548645 0.26516724l0.33146667 6.3639526l-0.67396545 -0.011047363q0.044189453 -0.15467834 0.24307251 -0.4419403q0.20991516 -0.29830933 0.3645935 -0.45298767q0.5745239 -0.5745239 1.3037262 -0.8617859q0.7181549 -0.29830933 1.4915619 -0.2762146q0.76234436 0.011047363 1.502594 0.3093567q0.74024963 0.29830933 1.3368835 0.89494324q0.894928 0.894928 1.1711426 2.0329285q0.2762146 1.1380005 -0.044204712 2.276001q-0.3093567 1.1269531 -1.2042847 2.021881z" fill-rule="nonzero"/><path fill="#000000" fill-opacity="0.0" d="m239.28618 208.77759l58.015762 -58.015762l29.700775 29.70079l-58.015747 58.015747z" fill-rule="evenodd"/><path fill="#595959" d="m278.57587 207.82368q-0.96121216 0.9612274 -2.11026 1.4252625q-1.1490479 0.46403503 -2.3865051 0.41984558q-1.2263794 -0.055252075 -2.430664 -0.59661865q-1.1932373 -0.5524292 -2.2318115 -1.5909882q-0.9833069 -0.98332214 -1.4804993 -2.187622q-0.49719238 -1.2042847 -0.5192871 -2.4638214q-0.03314209 -1.2705841 0.4309082 -2.4417267q0.4529724 -1.18219 1.4031677 -2.13237q0.6739502 -0.67396545 1.5246887 -1.1048584q0.83969116 -0.4419403 1.7235718 -0.59661865q0.8838806 -0.15467834 1.6793823 -0.022094727l0.03314209 1.9334869q-0.773407 0 -1.4142151 0.13258362q-0.6408081 0.13258362 -1.18219 0.40879822q-0.5303345 0.26516724 -0.93914795 0.67396545q-0.65185547 0.65185547 -0.9722595 1.4584045q-0.3093567 0.7955017 -0.28726196 1.6572876q0.022094727 0.83969116 0.38668823 1.6904297q0.36462402 0.82862854 1.0717163 1.5357361q0.75131226 0.75131226 1.5910034 1.1490479q0.83969116 0.37565613 1.701477 0.39775085q0.8617859 0 1.6793823 -0.35354614q0.8175659 -0.3535614 1.5357361 -1.0717163q0.4308777 -0.43089294 0.7292175 -0.9722748q0.29830933 -0.5413666 0.44192505 -1.1269531q0.1546936 -0.59661865 0.1546936 -1.215332l1.8671875 0.45298767q0.06628418 0.6629181 -0.17675781 1.4805145q-0.23202515 0.8065338 -0.7071228 1.6130829q-0.4640503 0.79548645 -1.1159058 1.4473572zm7.5321045 -7.532089q-0.8507385 0.8507385 -2.032959 1.0827637q-1.18219 0.23200989 -2.430664 -0.15467834q-1.2374268 -0.39775085 -2.2649536 -1.4252625q-1.0496216 -1.0496216 -1.4252625 -2.2870483q-0.37564087 -1.237442 -0.11047363 -2.4306793q0.2762146 -1.2042999 1.18219 -2.1102753q0.54138184 -0.54138184 1.1490479 -0.81759644q0.607666 -0.29830933 1.2263794 -0.34249878q0.6187134 -0.06629944 1.2042847 0.09942627q0.5855713 0.14363098 1.060669 0.50823975l-0.3977356 0.1988678l-1.8009338 -1.8009033l1.3700256 -1.3700256l6.927429 6.9274445l-1.3699951 1.3700104l-1.6462402 -1.646225l0.20993042 -0.40879822q0.28726196 0.4419403 0.38668823 1.0275116q0.088378906 0.5745239 -0.022094727 1.2153473q-0.12155151 0.62976074 -0.40881348 1.2484741q-0.29830933 0.6076813 -0.80651855 1.1159058zm-0.8949585 -1.6020355q0.62979126 -0.62976074 0.7955017 -1.3921204q0.16574097 -0.7844391 -0.09942627 -1.5799408q-0.26516724 -0.81759644 -0.9501648 -1.502594q-0.6739807 -0.67396545 -1.4805298 -0.9280853q-0.7954712 -0.26516724 -1.5688782 -0.088378906q-0.773407 0.15467834 -1.4031677 0.7844391q-0.607666 0.607666 -0.7623596 1.381073q-0.16571045 0.76234436 0.088409424 1.5688934q0.26513672 0.79548645 0.93911743 1.4694519q0.68499756 0.6850128 1.4915466 0.9612274q0.8065491 0.2541046 1.579956 0.09942627q0.7623291 -0.16572571 1.3699951 -0.7733917zm7.3119507 -5.080139l-8.69519 -8.695206l1.3589783 -1.358963l8.69519 8.69519l-1.3589783 1.3589783zm-7.04895 -4.154251l-1.3258362 -1.3258209l4.4083557 -4.408371l1.3258362 1.3258209l-4.4083557 4.408371zm11.948944 -0.45848083q-0.4309082 0.43089294 -0.92807007 0.41984558q-0.48614502 -0.022094727 -0.9612427 -0.49717712q-0.44192505 -0.4419403 -0.47506714 -0.9612274q-0.022094727 -0.5303345 0.38668823 -0.93911743q0.44195557 -0.4419403 0.93911743 -0.40879822q0.49719238 0.011047363 0.97229004 0.48612976q0.4308777 0.43089294 0.4529724 0.9612274q0.022094727 0.5303345 -0.38668823 0.93911743z" fill-rule="nonzero"/><path fill="#595959" d="m302.96637 178.83698l-1.2374268 -1.7235718l0.7292175 -7.292038l1.8340454 -1.8340607l-1.3258362 10.84967zm0.4640503 3.8669891l-7.689789 -11.84404l1.3589783 -1.358963l7.689789 11.84404l-1.3589783 1.358963zm4.673523 -4.673523l-5.0160217 -1.0827637l0.26516724 -2.0329285l6.4854736 1.3810577l-1.7346191 1.7346344z" fill-rule="nonzero"/><path fill="#000000" fill-opacity="0.0" d="m225.47244 113.65879l34.236206 0l0 22.897636l-34.236206 0z" fill-rule="evenodd"/><path fill="#595959" d="m237.20682 145.96442q-0.796875 0 -1.234375 -0.46875q-0.421875 -0.46875 -0.421875 -1.328125q0 -0.796875 0.453125 -1.296875q0.453125 -0.515625 1.203125 -0.515625q0.796875 0 1.21875 0.46875q0.4375 0.46875 0.4375 1.34375q0 0.78125 -0.453125 1.296875q-0.453125 0.5 -1.203125 0.5zm4.515625 0q-0.796875 0 -1.234375 -0.46875q-0.421875 -0.46875 -0.421875 -1.328125q0 -0.796875 0.453125 -1.296875q0.453125 -0.515625 1.203125 -0.515625q0.796875 0 1.21875 0.46875q0.4375 0.46875 0.4375 1.34375q0 0.78125 -0.453125 1.296875q-0.453125 0.5 -1.203125 0.5zm4.53125 0q-0.796875 0 -1.234375 -0.46875q-0.421875 -0.46875 -0.421875 -1.328125q0 -0.796875 0.453125 -1.296875q0.453125 -0.515625 1.203125 -0.515625q0.796875 0 1.21875 0.46875q0.4375 0.46875 0.4375 1.34375q0 0.78125 -0.453125 1.296875q-0.453125 0.5 -1.203125 0.5z" fill-rule="nonzero"/></g></svg>