<svg version="1.1" viewBox="0.0 0.0 835.5931758530184 188.5538057742782" fill="none" stroke="none" stroke-linecap="square" stroke-miterlimit="10" xmlns:xlink="http://www.w3.org/1999/xlink" xmlns="http://www.w3.org/2000/svg"><clipPath id="p.0"><path d="m0 0l835.5932 0l0 188.5538l-835.5932 0l0 -188.5538z" clip-rule="nonzero"/></clipPath><g clip-path="url(#p.0)"><path fill="#000000" fill-opacity="0.0" d="m0 0l835.5932 0l0 188.5538l-835.5932 0z" fill-rule="evenodd"/><path fill="#000000" fill-opacity="0.0" d="m-12.884515 -11.790009l930.89764 0l0 90.11024l-930.89764 0z" fill-rule="evenodd"/><path fill="#595959" d="m5.2873607 20.924366q-2.03125 0 -3.0 -0.625q-0.9687501 -0.625 -0.9687501 -2.3125q0 -0.765625 0.046875 -1.375q0.0625 -0.609375 0.109375 -1.203125q0.0625 -0.59375 0.0625 -1.296875q0 -0.390625 -0.265625 -0.75q-0.25 -0.359375 -0.90625 -0.609375q-0.640625 -0.25 -1.84375 -0.25l0 -1.484375q1.203125 0 1.84375 -0.25q0.65625 -0.25 0.90625 -0.609375q0.265625 -0.359375 0.265625 -0.75q0 -0.671875 -0.0625 -1.28125q-0.046875 -0.609375 -0.109375 -1.21875q-0.046875 -0.625 -0.046875 -1.375q0 -1.6875 0.9687501 -2.3125q0.96875 -0.625 3.0 -0.625l1.46875 0l0 1.34375l-0.984375 0q-0.96875 0 -1.5 0.15625q-0.515625 0.15625 -0.71875 0.53125q-0.1875 0.375 -0.1875 1.015625q0 0.875 0.046875 1.78125q0.0625 0.90625 0.0625 1.890625q0 1.125 -0.453125 1.671875q-0.4375 0.546875 -1.5781251 0.734375l0 0.078125q1.1406251 0.203125 1.5781251 0.75q0.453125 0.53125 0.453125 1.671875q0 1.015625 -0.0625 1.890625q-0.046875 0.859375 -0.046875 1.765625q0 0.640625 0.1875 1.015625q0.203125 0.375 0.71875 0.53125q0.53125 0.15625 1.5 0.15625l0.984375 0l0 1.34375l-1.46875 0z" fill-rule="nonzero"/><path fill="#990055" d="m50.53736 17.939991q-1.5625 0 -2.6875 -0.46875q-1.125 -0.484375 -1.75 -1.328125q-0.625 -0.84375 -0.625 -1.921875q0 -0.875 0.390625 -1.53125q0.40625 -0.65625 1.015625 -1.125q0.625 -0.484375 1.34375 -0.828125l0 -0.078125q-0.84375 -0.5625 -1.4375 -1.34375q-0.578125 -0.78125 -0.578125 -1.84375q0 -1.078125 0.5625 -1.90625q0.5625 -0.828125 1.546875 -1.265625q1.0 -0.4375 2.28125 -0.4375q2.03125 0 3.1875 1.015625q1.15625 1.015625 1.15625 2.65625q0 0.9375 -0.59375 1.75q-0.59375 0.796875 -1.421875 1.34375l0 0.09375q0.75 0.359375 1.328125 0.828125q0.59375 0.453125 0.9375 1.109375q0.359375 0.65625 0.359375 1.59375q0 1.046875 -0.59375 1.890625q-0.578125 0.828125 -1.703125 1.3125q-1.125 0.484375 -2.71875 0.484375zm1.0 -7.90625q1.34375 -1.09375 1.34375 -2.34375q0 -0.59375 -0.265625 -1.0625q-0.265625 -0.46875 -0.796875 -0.734375q-0.515625 -0.28125 -1.265625 -0.28125q-0.9375 0 -1.5625 0.5q-0.609375 0.484375 -0.609375 1.359375q0 0.6875 0.40625 1.15625q0.421875 0.453125 1.140625 0.78125q0.71875 0.328125 1.609375 0.625zm-0.953125 6.15625q1.234375 0 1.9375 -0.53125q0.703125 -0.53125 0.703125 -1.484375q0 -0.578125 -0.28125 -0.984375q-0.28125 -0.40625 -0.796875 -0.703125q-0.5 -0.296875 -1.1875 -0.546875q-0.6875 -0.25 -1.484375 -0.515625q-0.546875 0.296875 -0.953125 0.6875q-0.390625 0.375 -0.625 0.84375q-0.234375 0.453125 -0.234375 1.0q0 0.6875 0.359375 1.1875q0.359375 0.5 1.015625 0.78125q0.671875 0.265625 1.546875 0.265625zm11.890671 1.75q-1.34375 0 -2.359375 -0.453125q-1.0 -0.453125 -1.703125 -1.078125l1.3125 -1.484375q0.5 0.421875 1.171875 0.71875q0.671875 0.296875 1.390625 0.296875q1.0 0 1.8125 -0.5q0.828125 -0.515625 1.34375 -1.703125q0.53125 -1.203125 0.53125 -3.25q0 -1.671875 -0.390625 -2.71875q-0.390625 -1.0625 -1.078125 -1.53125q-0.6875 -0.484375 -1.578125 -0.484375q-0.65625 0 -1.234375 0.296875q-0.5625 0.296875 -0.90625 0.859375q-0.328125 0.5625 -0.328125 1.390625q0 1.21875 0.640625 1.828125q0.65625 0.609375 1.8125 0.609375q0.71875 0 1.515625 -0.375q0.796875 -0.390625 1.546875 -1.3125l0.109375 1.734375q-0.796875 0.78125 -1.78125 1.25q-0.96875 0.46875 -1.890625 0.46875q-1.234375 0 -2.1875 -0.453125q-0.9375 -0.453125 -1.484375 -1.375q-0.546875 -0.9375 -0.546875 -2.375q0 -1.34375 0.640625 -2.34375q0.65625 -1.0 1.734375 -1.546875q1.078125 -0.546875 2.3125 -0.546875q1.09375 0 2.046875 0.40625q0.96875 0.390625 1.703125 1.203125q0.75 0.8125 1.171875 2.0625q0.4375 1.234375 0.4375 2.953125q0 1.984375 -0.484375 3.40625q-0.484375 1.40625 -1.296875 2.3125q-0.796875 0.890625 -1.84375 1.3125q-1.03125 0.421875 -2.140625 0.421875zm13.640671 0q-0.90625 0 -1.515625 -0.609375q-0.609375 -0.625 -0.609375 -1.53125q0 -0.953125 0.609375 -1.546875q0.609375 -0.609375 1.515625 -0.609375q0.90625 0 1.5 0.609375q0.609375 0.59375 0.609375 1.546875q0 0.90625 -0.609375 1.53125q-0.59375 0.609375 -1.5 0.609375zm8.265671 -0.25l0 -2.0l3.78125 0l0 -8.921875l-3.015625 0l0 -1.53125q0.859375 -0.125 1.5 -0.265625q0.640625 -0.15625 1.15625 -0.375q0.53125 -0.21875 1.015625 -0.46875l1.796875 0l0 11.5625l3.328125 0l0 2.0l-9.5625 0z" fill-rule="nonzero"/><path fill="#595959" d="m99.975044 22.268116l-0.640625 -1.46875q1.40625 -0.546875 2.078125 -1.390625q0.671875 -0.84375 0.65625 -2.015625l-0.265625 -2.265625l1.265625 1.921875q-0.28125 0.28125 -0.609375 0.390625q-0.328125 0.09375 -0.6875 0.09375q-0.546875 0 -1.0 -0.203125q-0.453125 -0.21875 -0.734375 -0.640625q-0.28125 -0.421875 -0.28125 -1.046875q0 -0.875 0.609375 -1.390625q0.609375 -0.515625 1.4375 -0.515625q1.15625 0 1.734375 0.859375q0.578125 0.859375 0.578125 2.34375q0 1.9375 -1.078125 3.296875q-1.078125 1.375 -3.0625 2.03125z" fill-rule="nonzero"/><path fill="#990055" d="m146.53735 17.939991q-1.5625 0 -2.6875 -0.46875q-1.125 -0.484375 -1.75 -1.328125q-0.625 -0.84375 -0.625 -1.921875q0 -0.875 0.390625 -1.53125q0.40625 -0.65625 1.015625 -1.125q0.625 -0.484375 1.34375 -0.828125l0 -0.078125q-0.84375 -0.5625 -1.4375 -1.34375q-0.578125 -0.78125 -0.578125 -1.84375q0 -1.078125 0.5625 -1.90625q0.5625 -0.828125 1.546875 -1.265625q1.0 -0.4375 2.28125 -0.4375q2.03125 0 3.1875 1.015625q1.15625 1.015625 1.15625 2.65625q0 0.9375 -0.59375 1.75q-0.59375 0.796875 -1.421875 1.34375l0 0.09375q0.75 0.359375 1.328125 0.828125q0.59375 0.453125 0.9375 1.109375q0.359375 0.65625 0.359375 1.59375q0 1.046875 -0.59375 1.890625q-0.578125 0.828125 -1.703125 1.3125q-1.125 0.484375 -2.71875 0.484375zm1.0 -7.90625q1.34375 -1.09375 1.34375 -2.34375q0 -0.59375 -0.265625 -1.0625q-0.265625 -0.46875 -0.796875 -0.734375q-0.515625 -0.28125 -1.265625 -0.28125q-0.9375 0 -1.5625 0.5q-0.609375 0.484375 -0.609375 1.359375q0 0.6875 0.40625 1.15625q0.421875 0.453125 1.140625 0.78125q0.71875 0.328125 1.609375 0.625zm-0.953125 6.15625q1.234375 0 1.9375 -0.53125q0.703125 -0.53125 0.703125 -1.484375q0 -0.578125 -0.28125 -0.984375q-0.28125 -0.40625 -0.796875 -0.703125q-0.5 -0.296875 -1.1875 -0.546875q-0.6875 -0.25 -1.484375 -0.515625q-0.546875 0.296875 -0.953125 0.6875q-0.390625 0.375 -0.625 0.84375q-0.234375 0.453125 -0.234375 1.0q0 0.6875 0.359375 1.1875q0.359375 0.5 1.015625 0.78125q0.671875 0.265625 1.546875 0.265625zm10.781296 1.5q0.09375 -1.8125 0.359375 -3.328125q0.265625 -1.515625 0.75 -2.84375q0.5 -1.328125 1.265625 -2.625q0.78125 -1.3125 1.890625 -2.703125l-7.3125 0l0 -2.0625l10.03125 0l0 1.484375q-1.328125 1.5 -2.15625 2.84375q-0.828125 1.328125 -1.3125 2.703125q-0.484375 1.375 -0.703125 2.953125q-0.203125 1.578125 -0.3125 3.578125l-2.5 0zm14.750046 0.25q-0.90625 0 -1.515625 -0.609375q-0.609375 -0.625 -0.609375 -1.53125q0 -0.953125 0.609375 -1.546875q0.609375 -0.609375 1.515625 -0.609375q0.90625 0 1.5 0.609375q0.609375 0.59375 0.609375 1.546875q0 0.90625 -0.609375 1.53125q-0.59375 0.609375 -1.5 0.609375zm8.265671 -0.25l0 -2.0l3.78125 0l0 -8.921875l-3.015625 0l0 -1.53125q0.859375 -0.125 1.5 -0.265625q0.640625 -0.15625 1.15625 -0.375q0.53125 -0.21875 1.015625 -0.46875l1.796875 0l0 11.5625l3.328125 0l0 2.0l-9.5625 0z" fill-rule="nonzero"/><path fill="#595959" d="m195.97504 22.268116l-0.640625 -1.46875q1.40625 -0.546875 2.078125 -1.390625q0.671875 -0.84375 0.65625 -2.015625l-0.265625 -2.265625l1.265625 1.921875q-0.28125 0.28125 -0.609375 0.390625q-0.328125 0.09375 -0.6875 0.09375q-0.546875 0 -1.0 -0.203125q-0.453125 -0.21875 -0.734375 -0.640625q-0.28125 -0.421875 -0.28125 -1.046875q0 -0.875 0.609375 -1.390625q0.609375 -0.515625 1.4375 -0.515625q1.15625 0 1.734375 0.859375q0.578125 0.859375 0.578125 2.34375q0 1.9375 -1.078125 3.296875q-1.078125 1.375 -3.0625 2.03125z" fill-rule="nonzero"/><path fill="#669900" d="m241.67798 17.939991q-1.34375 0 -2.359375 -0.453125q-1.0 -0.453125 -1.703125 -1.078125l1.3125 -1.484375q0.5 0.421875 1.171875 0.71875q0.671875 0.296875 1.390625 0.296875q1.0 0 1.8125 -0.5q0.828125 -0.515625 1.34375 -1.703125q0.53125 -1.203125 0.53125 -3.25q0 -1.671875 -0.390625 -2.71875q-0.390625 -1.0625 -1.078125 -1.53125q-0.6875 -0.484375 -1.578125 -0.484375q-0.65625 0 -1.234375 0.296875q-0.5625 0.296875 -0.90625 0.859375q-0.328125 0.5625 -0.328125 1.390625q0 1.21875 0.640625 1.828125q0.65625 0.609375 1.8125 0.609375q0.71875 0 1.515625 -0.375q0.796875 -0.390625 1.546875 -1.3125l0.109375 1.734375q-0.796875 0.78125 -1.78125 1.25q-0.96875 0.46875 -1.890625 0.46875q-1.234375 0 -2.1875 -0.453125q-0.9375 -0.453125 -1.484375 -1.375q-0.546875 -0.9375 -0.546875 -2.375q0 -1.34375 0.640625 -2.34375q0.65625 -1.0 1.734375 -1.546875q1.078125 -0.546875 2.3125 -0.546875q1.09375 0 2.046875 0.40625q0.96875 0.390625 1.703125 1.203125q0.75 0.8125 1.171875 2.0625q0.4375 1.234375 0.4375 2.953125q0 1.984375 -0.484375 3.40625q-0.484375 1.40625 -1.296875 2.3125q-0.796875 0.890625 -1.84375 1.3125q-1.03125 0.421875 -2.140625 0.421875zm13.640686 0q-1.546875 0 -2.671875 -0.828125q-1.125 -0.828125 -1.75 -2.40625q-0.625 -1.578125 -0.625 -3.859375q0 -3.4375 1.359375 -5.203125q1.375 -1.78125 3.6875 -1.78125q2.3125 0 3.671875 1.78125q1.359375 1.765625 1.359375 5.203125q0 2.28125 -0.609375 3.859375q-0.609375 1.578125 -1.75 2.40625q-1.125 0.828125 -2.671875 0.828125zm0 -1.90625q0.796875 0 1.4375 -0.515625q0.640625 -0.53125 1.0 -1.671875q0.375 -1.140625 0.375 -3.0q0 -1.859375 -0.375 -2.96875q-0.359375 -1.109375 -1.0 -1.59375q-0.640625 -0.5 -1.4375 -0.5q-0.8125 0 -1.453125 0.5q-0.640625 0.484375 -1.015625 1.59375q-0.359375 1.109375 -0.359375 2.96875q0 1.859375 0.359375 3.0q0.375 1.140625 1.015625 1.671875q0.640625 0.515625 1.453125 0.515625zm0 -3.765625q-0.609375 0 -1.046875 -0.40625q-0.4375 -0.40625 -0.4375 -1.109375q0 -0.703125 0.4375 -1.109375q0.4375 -0.40625 1.046875 -0.40625q0.609375 0 1.03125 0.40625q0.4375 0.40625 0.4375 1.109375q0 0.703125 -0.4375 1.109375q-0.421875 0.40625 -1.03125 0.40625zm12.7969055 5.671875q-0.90625 0 -1.515625 -0.609375q-0.609375 -0.625 -0.609375 -1.53125q0 -0.953125 0.609375 -1.546875q0.609375 -0.609375 1.515625 -0.609375q0.90625 0 1.5 0.609375q0.609375 0.59375 0.609375 1.546875q0 0.90625 -0.609375 1.53125q-0.59375 0.609375 -1.5 0.609375zm8.2656555 -0.25l0 -2.0l3.78125 0l0 -8.921875l-3.015625 0l0 -1.53125q0.859375 -0.125 1.5 -0.265625q0.640625 -0.15625 1.15625 -0.375q0.53125 -0.21875 1.015625 -0.46875l1.796875 0l0 11.5625l3.328125 0l0 2.0l-9.5625 0z" fill-rule="nonzero"/><path fill="#595959" d="m291.97504 22.268116l-0.640625 -1.46875q1.40625 -0.546875 2.078125 -1.390625q0.671875 -0.84375 0.65625 -2.015625l-0.265625 -2.265625l1.265625 1.921875q-0.28125 0.28125 -0.609375 0.390625q-0.328125 0.09375 -0.6875 0.09375q-0.546875 0 -1.0 -0.203125q-0.453125 -0.21875 -0.734375 -0.640625q-0.28125 -0.421875 -0.28125 -1.046875q0 -0.875 0.609375 -1.390625q0.609375 -0.515625 1.4375 -0.515625q1.15625 0 1.734375 0.859375q0.578125 0.859375 0.578125 2.34375q0 1.9375 -1.078125 3.296875q-1.078125 1.375 -3.0625 2.03125z" fill-rule="nonzero"/><path fill="#ff00ff" d="m337.67798 17.939991q-1.34375 0 -2.359375 -0.453125q-1.0 -0.453125 -1.703125 -1.078125l1.3125 -1.484375q0.5 0.421875 1.171875 0.71875q0.671875 0.296875 1.390625 0.296875q1.0 0 1.8125 -0.5q0.828125 -0.515625 1.34375 -1.703125q0.53125 -1.203125 0.53125 -3.25q0 -1.671875 -0.390625 -2.71875q-0.390625 -1.0625 -1.078125 -1.53125q-0.6875 -0.484375 -1.578125 -0.484375q-0.65625 0 -1.234375 0.296875q-0.5625 0.296875 -0.90625 0.859375q-0.328125 0.5625 -0.328125 1.390625q0 1.21875 0.640625 1.828125q0.65625 0.609375 1.8125 0.609375q0.71875 0 1.515625 -0.375q0.796875 -0.390625 1.546875 -1.3125l0.109375 1.734375q-0.796875 0.78125 -1.78125 1.25q-0.96875 0.46875 -1.890625 0.46875q-1.234375 0 -2.1875 -0.453125q-0.9375 -0.453125 -1.484375 -1.375q-0.546875 -0.9375 -0.546875 -2.375q0 -1.34375 0.640625 -2.34375q0.65625 -1.0 1.734375 -1.546875q1.078125 -0.546875 2.3125 -0.546875q1.09375 0 2.046875 0.40625q0.96875 0.390625 1.703125 1.203125q0.75 0.8125 1.171875 2.0625q0.4375 1.234375 0.4375 2.953125q0 1.984375 -0.484375 3.40625q-0.484375 1.40625 -1.296875 2.3125q-0.796875 0.890625 -1.84375 1.3125q-1.03125 0.421875 -2.140625 0.421875zm11.687561 -0.25q0.09375 -1.8125 0.359375 -3.328125q0.265625 -1.515625 0.75 -2.84375q0.5 -1.328125 1.265625 -2.625q0.78125 -1.3125 1.890625 -2.703125l-7.3125 0l0 -2.0625l10.03125 0l0 1.484375q-1.328125 1.5 -2.15625 2.84375q-0.828125 1.328125 -1.3125 2.703125q-0.484375 1.375 -0.703125 2.953125q-0.203125 1.578125 -0.3125 3.578125l-2.5 0zm14.7500305 0.25q-0.90625 0 -1.515625 -0.609375q-0.609375 -0.625 -0.609375 -1.53125q0 -0.953125 0.609375 -1.546875q0.609375 -0.609375 1.515625 -0.609375q0.90625 0 1.5 0.609375q0.609375 0.59375 0.609375 1.546875q0 0.90625 -0.609375 1.53125q-0.59375 0.609375 -1.5 0.609375zm13.9375305 -0.25l0 -8.640625q0.03125 -0.59375 0.0625 -1.34375q0.046875 -0.75 0.0625 -1.34375l-0.09375 0q-0.34375 0.53125 -0.71875 1.078125q-0.375 0.53125 -0.71875 1.078125l-2.859375 3.78125l8.484375 0l0 1.890625l-10.96875 0l0 -1.65625l6.21875 -8.4375l2.84375 0l0 13.59375l-2.3125 0z" fill-rule="nonzero"/><path fill="#595959" d="m387.97504 22.268116l-0.640625 -1.46875q1.40625 -0.546875 2.078125 -1.390625q0.671875 -0.84375 0.65625 -2.015625l-0.265625 -2.265625l1.265625 1.921875q-0.28125 0.28125 -0.609375 0.390625q-0.328125 0.09375 -0.6875 0.09375q-0.546875 0 -1.0 -0.203125q-0.453125 -0.21875 -0.734375 -0.640625q-0.28125 -0.421875 -0.28125 -1.046875q0 -0.875 0.609375 -1.390625q0.609375 -0.515625 1.4375 -0.515625q1.15625 0 1.734375 0.859375q0.578125 0.859375 0.578125 2.34375q0 1.9375 -1.078125 3.296875q-1.078125 1.375 -3.0625 2.03125z" fill-rule="nonzero"/><path fill="#ff00ff" d="m433.67798 17.939991q-1.34375 0 -2.359375 -0.453125q-1.0 -0.453125 -1.703125 -1.078125l1.3125 -1.484375q0.5 0.421875 1.171875 0.71875q0.671875 0.296875 1.390625 0.296875q1.0 0 1.8125 -0.5q0.828125 -0.515625 1.34375 -1.703125q0.53125 -1.203125 0.53125 -3.25q0 -1.671875 -0.390625 -2.71875q-0.390625 -1.0625 -1.078125 -1.53125q-0.6875 -0.484375 -1.578125 -0.484375q-0.65625 0 -1.234375 0.296875q-0.5625 0.296875 -0.90625 0.859375q-0.328125 0.5625 -0.328125 1.390625q0 1.21875 0.640625 1.828125q0.65625 0.609375 1.8125 0.609375q0.71875 0 1.515625 -0.375q0.796875 -0.390625 1.546875 -1.3125l0.109375 1.734375q-0.796875 0.78125 -1.78125 1.25q-0.96875 0.46875 -1.890625 0.46875q-1.234375 0 -2.1875 -0.453125q-0.9375 -0.453125 -1.484375 -1.375q-0.546875 -0.9375 -0.546875 -2.375q0 -1.34375 0.640625 -2.34375q0.65625 -1.0 1.734375 -1.546875q1.078125 -0.546875 2.3125 -0.546875q1.09375 0 2.046875 0.40625q0.96875 0.390625 1.703125 1.203125q0.75 0.8125 1.171875 2.0625q0.4375 1.234375 0.4375 2.953125q0 1.984375 -0.484375 3.40625q-0.484375 1.40625 -1.296875 2.3125q-0.796875 0.890625 -1.84375 1.3125q-1.03125 0.421875 -2.140625 0.421875zm12.796936 0q-1.34375 0 -2.359375 -0.453125q-1.0 -0.453125 -1.703125 -1.078125l1.3125 -1.484375q0.5 0.421875 1.171875 0.71875q0.671875 0.296875 1.390625 0.296875q1.0 0 1.8125 -0.5q0.828125 -0.515625 1.34375 -1.703125q0.53125 -1.203125 0.53125 -3.25q0 -1.671875 -0.390625 -2.71875q-0.390625 -1.0625 -1.078125 -1.53125q-0.6875 -0.484375 -1.578125 -0.484375q-0.65625 0 -1.234375 0.296875q-0.5625 0.296875 -0.90625 0.859375q-0.328125 0.5625 -0.328125 1.390625q0 1.21875 0.640625 1.828125q0.65625 0.609375 1.8125 0.609375q0.71875 0 1.515625 -0.375q0.796875 -0.390625 1.546875 -1.3125l0.109375 1.734375q-0.796875 0.78125 -1.78125 1.25q-0.96875 0.46875 -1.890625 0.46875q-1.234375 0 -2.1875 -0.453125q-0.9375 -0.453125 -1.484375 -1.375q-0.546875 -0.9375 -0.546875 -2.375q0 -1.34375 0.640625 -2.34375q0.65625 -1.0 1.734375 -1.546875q1.078125 -0.546875 2.3125 -0.546875q1.09375 0 2.046875 0.40625q0.96875 0.390625 1.703125 1.203125q0.75 0.8125 1.171875 2.0625q0.4375 1.234375 0.4375 2.953125q0 1.984375 -0.484375 3.40625q-0.484375 1.40625 -1.296875 2.3125q-0.796875 0.890625 -1.84375 1.3125q-1.03125 0.421875 -2.140625 0.421875zm13.6406555 0q-0.90625 0 -1.515625 -0.609375q-0.609375 -0.625 -0.609375 -1.53125q0 -0.953125 0.609375 -1.546875q0.609375 -0.609375 1.515625 -0.609375q0.90625 0 1.5 0.609375q0.609375 0.59375 0.609375 1.546875q0 0.90625 -0.609375 1.53125q-0.59375 0.609375 -1.5 0.609375zm8.2656555 -0.25l0 -2.0l3.78125 0l0 -8.921875l-3.015625 0l0 -1.53125q0.859375 -0.125 1.5 -0.265625q0.640625 -0.15625 1.15625 -0.375q0.53125 -0.21875 1.015625 -0.46875l1.796875 0l0 11.5625l3.328125 0l0 2.0l-9.5625 0z" fill-rule="nonzero"/><path fill="#595959" d="m483.97504 22.268116l-0.640625 -1.46875q1.40625 -0.546875 2.078125 -1.390625q0.671875 -0.84375 0.65625 -2.015625l-0.265625 -2.265625l1.265625 1.921875q-0.28125 0.28125 -0.609375 0.390625q-0.328125 0.09375 -0.6875 0.09375q-0.546875 0 -1.0 -0.203125q-0.453125 -0.21875 -0.734375 -0.640625q-0.28125 -0.421875 -0.28125 -1.046875q0 -0.875 0.609375 -1.390625q0.609375 -0.515625 1.4375 -0.515625q1.15625 0 1.734375 0.859375q0.578125 0.859375 0.578125 2.34375q0 1.9375 -1.078125 3.296875q-1.078125 1.375 -3.0625 2.03125z" fill-rule="nonzero"/><path fill="#ff00ff" d="m525.9905 17.689991l0 -2.0l3.78125 0l0 -8.921875l-3.015625 0l0 -1.53125q0.859375 -0.125 1.5 -0.265625q0.640625 -0.15625 1.15625 -0.375q0.53125 -0.21875 1.015625 -0.46875l1.796875 0l0 11.5625l3.328125 0l0 2.0l-9.5625 0zm17.328186 0.25q-1.546875 0 -2.671875 -0.828125q-1.125 -0.828125 -1.75 -2.40625q-0.625 -1.578125 -0.625 -3.859375q0 -3.4375 1.359375 -5.203125q1.375 -1.78125 3.6875 -1.78125q2.3125 0 3.671875 1.78125q1.359375 1.765625 1.359375 5.203125q0 2.28125 -0.609375 3.859375q-0.609375 1.578125 -1.75 2.40625q-1.125 0.828125 -2.671875 0.828125zm0 -1.90625q0.796875 0 1.4375 -0.515625q0.640625 -0.53125 1.0 -1.671875q0.375 -1.140625 0.375 -3.0q0 -1.859375 -0.375 -2.96875q-0.359375 -1.109375 -1.0 -1.59375q-0.640625 -0.5 -1.4375 -0.5q-0.8125 0 -1.453125 0.5q-0.640625 0.484375 -1.015625 1.59375q-0.359375 1.109375 -0.359375 2.96875q0 1.859375 0.359375 3.0q0.375 1.140625 1.015625 1.671875q0.640625 0.515625 1.453125 0.515625zm0 -3.765625q-0.609375 0 -1.046875 -0.40625q-0.4375 -0.40625 -0.4375 -1.109375q0 -0.703125 0.4375 -1.109375q0.4375 -0.40625 1.046875 -0.40625q0.609375 0 1.03125 0.40625q0.4375 0.40625 0.4375 1.109375q0 0.703125 -0.4375 1.109375q-0.421875 0.40625 -1.03125 0.40625zm12.796936 5.671875q-1.546875 0 -2.671875 -0.828125q-1.125 -0.828125 -1.75 -2.40625q-0.625 -1.578125 -0.625 -3.859375q0 -3.4375 1.359375 -5.203125q1.375 -1.78125 3.6875 -1.78125q2.3125 0 3.671875 1.78125q1.359375 1.765625 1.359375 5.203125q0 2.28125 -0.609375 3.859375q-0.609375 1.578125 -1.75 2.40625q-1.125 0.828125 -2.671875 0.828125zm0 -1.90625q0.796875 0 1.4375 -0.515625q0.640625 -0.53125 1.0 -1.671875q0.375 -1.140625 0.375 -3.0q0 -1.859375 -0.375 -2.96875q-0.359375 -1.109375 -1.0 -1.59375q-0.640625 -0.5 -1.4375 -0.5q-0.8125 0 -1.453125 0.5q-0.640625 0.484375 -1.015625 1.59375q-0.359375 1.109375 -0.359375 2.96875q0 1.859375 0.359375 3.0q0.375 1.140625 1.015625 1.671875q0.640625 0.515625 1.453125 0.515625zm0 -3.765625q-0.609375 0 -1.046875 -0.40625q-0.4375 -0.40625 -0.4375 -1.109375q0 -0.703125 0.4375 -1.109375q0.4375 -0.40625 1.046875 -0.40625q0.609375 0 1.03125 0.40625q0.4375 0.40625 0.4375 1.109375q0 0.703125 -0.4375 1.109375q-0.421875 0.40625 -1.03125 0.40625zm12.796875 5.671875q-0.90625 0 -1.515625 -0.609375q-0.609375 -0.625 -0.609375 -1.53125q0 -0.953125 0.609375 -1.546875q0.609375 -0.609375 1.515625 -0.609375q0.90625 0 1.5 0.609375q0.609375 0.59375 0.609375 1.546875q0 0.90625 -0.609375 1.53125q-0.59375 0.609375 -1.5 0.609375zm12.796936 0q-1.546875 0 -2.671875 -0.828125q-1.125 -0.828125 -1.75 -2.40625q-0.625 -1.578125 -0.625 -3.859375q0 -3.4375 1.359375 -5.203125q1.375 -1.78125 3.6875 -1.78125q2.3125 0 3.671875 1.78125q1.359375 1.765625 1.359375 5.203125q0 2.28125 -0.609375 3.859375q-0.609375 1.578125 -1.75 2.40625q-1.125 0.828125 -2.671875 0.828125zm0 -1.90625q0.796875 0 1.4375 -0.515625q0.640625 -0.53125 1.0 -1.671875q0.375 -1.140625 0.375 -3.0q0 -1.859375 -0.375 -2.96875q-0.359375 -1.109375 -1.0 -1.59375q-0.640625 -0.5 -1.4375 -0.5q-0.8125 0 -1.453125 0.5q-0.640625 0.484375 -1.015625 1.59375q-0.359375 1.109375 -0.359375 2.96875q0 1.859375 0.359375 3.0q0.375 1.140625 1.015625 1.671875q0.640625 0.515625 1.453125 0.515625zm0 -3.765625q-0.609375 0 -1.046875 -0.40625q-0.4375 -0.40625 -0.4375 -1.109375q0 -0.703125 0.4375 -1.109375q0.4375 -0.40625 1.046875 -0.40625q0.609375 0 1.03125 0.40625q0.4375 0.40625 0.4375 1.109375q0 0.703125 -0.4375 1.109375q-0.421875 0.40625 -1.03125 0.40625z" fill-rule="nonzero"/><path fill="#595959" d="m592.772 22.268116l-0.640625 -1.46875q1.40625 -0.546875 2.078125 -1.390625q0.671875 -0.84375 0.65625 -2.015625l-0.265625 -2.265625l1.265625 1.921875q-0.28125 0.28125 -0.609375 0.390625q-0.328125 0.09375 -0.6875 0.09375q-0.546875 0 -1.0 -0.203125q-0.453125 -0.21875 -0.734375 -0.640625q-0.28125 -0.421875 -0.28125 -1.046875q0 -0.875 0.609375 -1.390625q0.609375 -0.515625 1.4375 -0.515625q1.15625 0 1.734375 0.859375q0.578125 0.859375 0.578125 2.34375q0 1.9375 -1.078125 3.296875q-1.078125 1.375 -3.0625 2.03125z" fill-rule="nonzero"/><path fill="#ffab40" d="m626.53735 17.939991q-1.5625 0 -2.6875 -0.46875q-1.125 -0.484375 -1.75 -1.328125q-0.625 -0.84375 -0.625 -1.921875q0 -0.875 0.390625 -1.53125q0.40625 -0.65625 1.015625 -1.125q0.625 -0.484375 1.34375 -0.828125l0 -0.078125q-0.84375 -0.5625 -1.4375 -1.34375q-0.578125 -0.78125 -0.578125 -1.84375q0 -1.078125 0.5625 -1.90625q0.5625 -0.828125 1.546875 -1.265625q1.0 -0.4375 2.28125 -0.4375q2.03125 0 3.1875 1.015625q1.15625 1.015625 1.15625 2.65625q0 0.9375 -0.59375 1.75q-0.59375 0.796875 -1.421875 1.34375l0 0.09375q0.75 0.359375 1.328125 0.828125q0.59375 0.453125 0.9375 1.109375q0.359375 0.65625 0.359375 1.59375q0 1.046875 -0.59375 1.890625q-0.578125 0.828125 -1.703125 1.3125q-1.125 0.484375 -2.71875 0.484375zm1.0 -7.90625q1.34375 -1.09375 1.34375 -2.34375q0 -0.59375 -0.265625 -1.0625q-0.265625 -0.46875 -0.796875 -0.734375q-0.515625 -0.28125 -1.265625 -0.28125q-0.9375 0 -1.5625 0.5q-0.609375 0.484375 -0.609375 1.359375q0 0.6875 0.40625 1.15625q0.421875 0.453125 1.140625 0.78125q0.71875 0.328125 1.609375 0.625zm-0.953125 6.15625q1.234375 0 1.9375 -0.53125q0.703125 -0.53125 0.703125 -1.484375q0 -0.578125 -0.28125 -0.984375q-0.28125 -0.40625 -0.796875 -0.703125q-0.5 -0.296875 -1.1875 -0.546875q-0.6875 -0.25 -1.484375 -0.515625q-0.546875 0.296875 -0.953125 0.6875q-0.390625 0.375 -0.625 0.84375q-0.234375 0.453125 -0.234375 1.0q0 0.6875 0.359375 1.1875q0.359375 0.5 1.015625 0.78125q0.671875 0.265625 1.546875 0.265625zm13.875061 1.5l0 -8.640625q0.03125 -0.59375 0.0625 -1.34375q0.046875 -0.75 0.0625 -1.34375l-0.09375 0q-0.34375 0.53125 -0.71875 1.078125q-0.375 0.53125 -0.71875 1.078125l-2.859375 3.78125l8.484375 0l0 1.890625l-10.96875 0l0 -1.65625l6.21875 -8.4375l2.84375 0l0 13.59375l-2.3125 0zm11.656311 0.25q-0.90625 0 -1.515625 -0.609375q-0.609375 -0.625 -0.609375 -1.53125q0 -0.953125 0.609375 -1.546875q0.609375 -0.609375 1.515625 -0.609375q0.90625 0 1.5 0.609375q0.609375 0.59375 0.609375 1.546875q0 0.90625 -0.609375 1.53125q-0.59375 0.609375 -1.5 0.609375zm8.265625 -0.25l0 -2.0l3.78125 0l0 -8.921875l-3.015625 0l0 -1.53125q0.859375 -0.125 1.5 -0.265625q0.640625 -0.15625 1.15625 -0.375q0.53125 -0.21875 1.015625 -0.46875l1.796875 0l0 11.5625l3.328125 0l0 2.0l-9.5625 0z" fill-rule="nonzero"/><path fill="#595959" d="m675.97504 22.268116l-0.640625 -1.46875q1.40625 -0.546875 2.078125 -1.390625q0.671875 -0.84375 0.65625 -2.015625l-0.265625 -2.265625l1.265625 1.921875q-0.28125 0.28125 -0.609375 0.390625q-0.328125 0.09375 -0.6875 0.09375q-0.546875 0 -1.0 -0.203125q-0.453125 -0.21875 -0.734375 -0.640625q-0.28125 -0.421875 -0.28125 -1.046875q0 -0.875 0.609375 -1.390625q0.609375 -0.515625 1.4375 -0.515625q1.15625 0 1.734375 0.859375q0.578125 0.859375 0.578125 2.34375q0 1.9375 -1.078125 3.296875q-1.078125 1.375 -3.0625 2.03125z" fill-rule="nonzero"/><path fill="#990055" d="m722.53735 17.939991q-1.5625 0 -2.6875 -0.46875q-1.125 -0.484375 -1.75 -1.328125q-0.625 -0.84375 -0.625 -1.921875q0 -0.875 0.390625 -1.53125q0.40625 -0.65625 1.015625 -1.125q0.625 -0.484375 1.34375 -0.828125l0 -0.078125q-0.84375 -0.5625 -1.4375 -1.34375q-0.578125 -0.78125 -0.578125 -1.84375q0 -1.078125 0.5625 -1.90625q0.5625 -0.828125 1.546875 -1.265625q1.0 -0.4375 2.28125 -0.4375q2.03125 0 3.1875 1.015625q1.15625 1.015625 1.15625 2.65625q0 0.9375 -0.59375 1.75q-0.59375 0.796875 -1.421875 1.34375l0 0.09375q0.75 0.359375 1.328125 0.828125q0.59375 0.453125 0.9375 1.109375q0.359375 0.65625 0.359375 1.59375q0 1.046875 -0.59375 1.890625q-0.578125 0.828125 -1.703125 1.3125q-1.125 0.484375 -2.71875 0.484375zm1.0 -7.90625q1.34375 -1.09375 1.34375 -2.34375q0 -0.59375 -0.265625 -1.0625q-0.265625 -0.46875 -0.796875 -0.734375q-0.515625 -0.28125 -1.265625 -0.28125q-0.9375 0 -1.5625 0.5q-0.609375 0.484375 -0.609375 1.359375q0 0.6875 0.40625 1.15625q0.421875 0.453125 1.140625 0.78125q0.71875 0.328125 1.609375 0.625zm-0.953125 6.15625q1.234375 0 1.9375 -0.53125q0.703125 -0.53125 0.703125 -1.484375q0 -0.578125 -0.28125 -0.984375q-0.28125 -0.40625 -0.796875 -0.703125q-0.5 -0.296875 -1.1875 -0.546875q-0.6875 -0.25 -1.484375 -0.515625q-0.546875 0.296875 -0.953125 0.6875q-0.390625 0.375 -0.625 0.84375q-0.234375 0.453125 -0.234375 1.0q0 0.6875 0.359375 1.1875q0.359375 0.5 1.015625 0.78125q0.671875 0.265625 1.546875 0.265625zm11.890686 1.75q-1.34375 0 -2.359375 -0.453125q-1.0 -0.453125 -1.703125 -1.078125l1.3125 -1.484375q0.5 0.421875 1.171875 0.71875q0.671875 0.296875 1.390625 0.296875q1.0 0 1.8125 -0.5q0.828125 -0.515625 1.34375 -1.703125q0.53125 -1.203125 0.53125 -3.25q0 -1.671875 -0.390625 -2.71875q-0.390625 -1.0625 -1.078125 -1.53125q-0.6875 -0.484375 -1.578125 -0.484375q-0.65625 0 -1.234375 0.296875q-0.5625 0.296875 -0.90625 0.859375q-0.328125 0.5625 -0.328125 1.390625q0 1.21875 0.640625 1.828125q0.65625 0.609375 1.8125 0.609375q0.71875 0 1.515625 -0.375q0.796875 -0.390625 1.546875 -1.3125l0.109375 1.734375q-0.796875 0.78125 -1.78125 1.25q-0.96875 0.46875 -1.890625 0.46875q-1.234375 0 -2.1875 -0.453125q-0.9375 -0.453125 -1.484375 -1.375q-0.546875 -0.9375 -0.546875 -2.375q0 -1.34375 0.640625 -2.34375q0.65625 -1.0 1.734375 -1.546875q1.078125 -0.546875 2.3125 -0.546875q1.09375 0 2.046875 0.40625q0.96875 0.390625 1.703125 1.203125q0.75 0.8125 1.171875 2.0625q0.4375 1.234375 0.4375 2.953125q0 1.984375 -0.484375 3.40625q-0.484375 1.40625 -1.296875 2.3125q-0.796875 0.890625 -1.84375 1.3125q-1.03125 0.421875 -2.140625 0.421875zm13.640686 0q-0.90625 0 -1.515625 -0.609375q-0.609375 -0.625 -0.609375 -1.53125q0 -0.953125 0.609375 -1.546875q0.609375 -0.609375 1.515625 -0.609375q0.90625 0 1.5 0.609375q0.609375 0.59375 0.609375 1.546875q0 0.90625 -0.609375 1.53125q-0.59375 0.609375 -1.5 0.609375zm13.9375 -0.25l0 -8.640625q0.03125 -0.59375 0.0625 -1.34375q0.046875 -0.75 0.0625 -1.34375l-0.09375 0q-0.34375 0.53125 -0.71875 1.078125q-0.375 0.53125 -0.71875 1.078125l-2.859375 3.78125l8.484375 0l0 1.890625l-10.96875 0l0 -1.65625l6.21875 -8.4375l2.84375 0l0 13.59375l-2.3125 0z" fill-rule="nonzero"/><path fill="#669900" d="m49.677986 56.33999q-1.34375 0 -2.359375 -0.453125q-1.0 -0.453125 -1.703125 -1.078125l1.3125 -1.484375q0.5 0.421875 1.171875 0.71875q0.671875 0.296875 1.390625 0.296875q1.0 0 1.8125 -0.5q0.828125 -0.515625 1.34375 -1.703125q0.53125 -1.203125 0.53125 -3.25q0 -1.671875 -0.390625 -2.71875q-0.390625 -1.0625 -1.078125 -1.53125q-0.6875 -0.484375 -1.578125 -0.484375q-0.65625 0 -1.234375 0.296875q-0.5625 0.296875 -0.90625 0.859375q-0.328125 0.5625 -0.328125 1.390625q0 1.21875 0.640625 1.828125q0.65625 0.609375 1.8125 0.609375q0.71875 0 1.515625 -0.375q0.796875 -0.390625 1.546875 -1.3125l0.109375 1.734375q-0.796875 0.78125 -1.78125 1.25q-0.96875 0.46875 -1.890625 0.46875q-1.234375 0 -2.1875 -0.453125q-0.9375 -0.453125 -1.484375 -1.375q-0.546875 -0.9375 -0.546875 -2.375q0 -1.34375 0.640625 -2.34375q0.65625 -1.0 1.734375 -1.546875q1.078125 -0.546875 2.3125 -0.546875q1.09375 0 2.046875 0.40625q0.96875 0.390625 1.703125 1.203125q0.75 0.8125 1.171875 2.0625q0.4375 1.234375 0.4375 2.953125q0 1.984375 -0.484375 3.40625q-0.484375 1.40625 -1.296875 2.3125q-0.796875 0.890625 -1.84375 1.3125q-1.03125 0.421875 -2.140625 0.421875zm8.625046 -0.25l0 -1.421875q2.125 -1.84375 3.640625 -3.265625q1.53125 -1.4375 2.359375 -2.609375q0.828125 -1.1875 0.828125 -2.234375q0 -1.09375 -0.671875 -1.71875q-0.65625 -0.625 -1.9375 -0.625q-0.875 0 -1.625 0.453125q-0.75 0.4375 -1.359375 1.0625l-1.34375 -1.375q0.984375 -1.0 2.0625 -1.546875q1.09375 -0.546875 2.578125 -0.546875q1.421875 0 2.453125 0.515625q1.03125 0.515625 1.609375 1.453125q0.578125 0.9375 0.578125 2.203125q0 1.1875 -0.75 2.4375q-0.75 1.25 -2.015625 2.546875q-1.265625 1.296875 -2.84375 2.734375q0.59375 -0.0625 1.25 -0.109375q0.671875 -0.046875 1.21875 -0.046875l3.84375 0l0 2.09375l-9.875 0zm17.812546 0.25q-0.90625 0 -1.515625 -0.609375q-0.609375 -0.625 -0.609375 -1.53125q0 -0.953125 0.609375 -1.546875q0.609375 -0.609375 1.515625 -0.609375q0.90625 0 1.5 0.609375q0.609375 0.59375 0.609375 1.546875q0 0.90625 -0.609375 1.53125q-0.59375 0.609375 -1.5 0.609375zm12.421921 0q-1.171875 0 -2.109375 -0.25q-0.921875 -0.25 -1.640625 -0.6875q-0.71875 -0.4375 -1.21875 -0.96875l1.15625 -1.578125q0.6875 0.609375 1.59375 1.046875q0.90625 0.4375 2.015625 0.4375q0.828125 0 1.484375 -0.234375q0.671875 -0.25 1.03125 -0.703125q0.375 -0.46875 0.375 -1.109375q0 -0.703125 -0.421875 -1.21875q-0.421875 -0.515625 -1.40625 -0.796875q-0.984375 -0.28125 -2.671875 -0.28125l0 -1.796875q1.46875 0 2.34375 -0.28125q0.875 -0.296875 1.28125 -0.765625q0.40625 -0.484375 0.40625 -1.125q0 -0.859375 -0.65625 -1.328125q-0.640625 -0.484375 -1.734375 -0.484375q-0.875 0 -1.640625 0.359375q-0.765625 0.34375 -1.453125 0.921875l-1.265625 -1.515625q0.9375 -0.765625 2.046875 -1.234375q1.125 -0.484375 2.421875 -0.484375q1.390625 0 2.46875 0.421875q1.078125 0.421875 1.6875 1.21875q0.609375 0.796875 0.609375 1.953125q0 1.125 -0.75 1.890625q-0.75 0.765625 -2.0 1.21875l0 0.09375q0.890625 0.203125 1.625 0.65625q0.734375 0.453125 1.15625 1.140625q0.4375 0.671875 0.4375 1.5625q0 1.234375 -0.71875 2.125q-0.71875 0.890625 -1.890625 1.34375q-1.15625 0.453125 -2.5625 0.453125z" fill-rule="nonzero"/><path fill="#595959" d="m99.975044 60.668114l-0.640625 -1.46875q1.40625 -0.546875 2.078125 -1.390625q0.671875 -0.84375 0.65625 -2.015625l-0.265625 -2.265625l1.265625 1.921875q-0.28125 0.28125 -0.609375 0.390625q-0.328125 0.09375 -0.6875 0.09375q-0.546875 0 -1.0 -0.203125q-0.453125 -0.21875 -0.734375 -0.640625q-0.28125 -0.421875 -0.28125 -1.046875q0 -0.875 0.609375 -1.390625q0.609375 -0.515625 1.4375 -0.515625q1.15625 0 1.734375 0.859375q0.578125 0.859375 0.578125 2.34375q0 1.9375 -1.078125 3.296875q-1.078125 1.375 -3.0625 2.03125z" fill-rule="nonzero"/><path fill="#ff00ff" d="m145.67798 56.33999q-1.34375 0 -2.359375 -0.453125q-1.0 -0.453125 -1.703125 -1.078125l1.3125 -1.484375q0.5 0.421875 1.171875 0.71875q0.671875 0.296875 1.390625 0.296875q1.0 0 1.8125 -0.5q0.828125 -0.515625 1.34375 -1.703125q0.53125 -1.203125 0.53125 -3.25q0 -1.671875 -0.390625 -2.71875q-0.390625 -1.0625 -1.078125 -1.53125q-0.6875 -0.484375 -1.578125 -0.484375q-0.65625 0 -1.234375 0.296875q-0.5625 0.296875 -0.90625 0.859375q-0.328125 0.5625 -0.328125 1.390625q0 1.21875 0.640625 1.828125q0.65625 0.609375 1.8125 0.609375q0.71875 0 1.515625 -0.375q0.796875 -0.390625 1.546875 -1.3125l0.109375 1.734375q-0.796875 0.78125 -1.78125 1.25q-0.96875 0.46875 -1.890625 0.46875q-1.234375 0 -2.1875 -0.453125q-0.9375 -0.453125 -1.484375 -1.375q-0.546875 -0.9375 -0.546875 -2.375q0 -1.34375 0.640625 -2.34375q0.65625 -1.0 1.734375 -1.546875q1.078125 -0.546875 2.3125 -0.546875q1.09375 0 2.046875 0.40625q0.96875 0.390625 1.703125 1.203125q0.75 0.8125 1.171875 2.0625q0.4375 1.234375 0.4375 2.953125q0 1.984375 -0.484375 3.40625q-0.484375 1.40625 -1.296875 2.3125q-0.796875 0.890625 -1.84375 1.3125q-1.03125 0.421875 -2.140625 0.421875zm12.796921 0q-1.34375 0 -2.359375 -0.453125q-1.0 -0.453125 -1.703125 -1.078125l1.3125 -1.484375q0.5 0.421875 1.171875 0.71875q0.671875 0.296875 1.390625 0.296875q1.0 0 1.8125 -0.5q0.828125 -0.515625 1.34375 -1.703125q0.53125 -1.203125 0.53125 -3.25q0 -1.671875 -0.390625 -2.71875q-0.390625 -1.0625 -1.078125 -1.53125q-0.6875 -0.484375 -1.578125 -0.484375q-0.65625 0 -1.234375 0.296875q-0.5625 0.296875 -0.90625 0.859375q-0.328125 0.5625 -0.328125 1.390625q0 1.21875 0.640625 1.828125q0.65625 0.609375 1.8125 0.609375q0.71875 0 1.515625 -0.375q0.796875 -0.390625 1.546875 -1.3125l0.109375 1.734375q-0.796875 0.78125 -1.78125 1.25q-0.96875 0.46875 -1.890625 0.46875q-1.234375 0 -2.1875 -0.453125q-0.9375 -0.453125 -1.484375 -1.375q-0.546875 -0.9375 -0.546875 -2.375q0 -1.34375 0.640625 -2.34375q0.65625 -1.0 1.734375 -1.546875q1.078125 -0.546875 2.3125 -0.546875q1.09375 0 2.046875 0.40625q0.96875 0.390625 1.703125 1.203125q0.75 0.8125 1.171875 2.0625q0.4375 1.234375 0.4375 2.953125q0 1.984375 -0.484375 3.40625q-0.484375 1.40625 -1.296875 2.3125q-0.796875 0.890625 -1.84375 1.3125q-1.03125 0.421875 -2.140625 0.421875zm13.640671 0q-0.90625 0 -1.515625 -0.609375q-0.609375 -0.625 -0.609375 -1.53125q0 -0.953125 0.609375 -1.546875q0.609375 -0.609375 1.515625 -0.609375q0.90625 0 1.5 0.609375q0.609375 0.59375 0.609375 1.546875q0 0.90625 -0.609375 1.53125q-0.59375 0.609375 -1.5 0.609375zm13.937546 -0.25l0 -8.640625q0.03125 -0.59375 0.0625 -1.34375q0.046875 -0.75 0.0625 -1.34375l-0.09375 0q-0.34375 0.53125 -0.71875 1.078125q-0.375 0.53125 -0.71875 1.078125l-2.859375 3.78125l8.484375 0l0 1.890625l-10.96875 0l0 -1.65625l6.21875 -8.4375l2.84375 0l0 13.59375l-2.3125 0z" fill-rule="nonzero"/><path fill="#595959" d="m195.97504 60.668114l-0.640625 -1.46875q1.40625 -0.546875 2.078125 -1.390625q0.671875 -0.84375 0.65625 -2.015625l-0.265625 -2.265625l1.265625 1.921875q-0.28125 0.28125 -0.609375 0.390625q-0.328125 0.09375 -0.6875 0.09375q-0.546875 0 -1.0 -0.203125q-0.453125 -0.21875 -0.734375 -0.640625q-0.28125 -0.421875 -0.28125 -1.046875q0 -0.875 0.609375 -1.390625q0.609375 -0.515625 1.4375 -0.515625q1.15625 0 1.734375 0.859375q0.578125 0.859375 0.578125 2.34375q0 1.9375 -1.078125 3.296875q-1.078125 1.375 -3.0625 2.03125z" fill-rule="nonzero"/><path fill="#ff00ff" d="m241.67798 56.33999q-1.34375 0 -2.359375 -0.453125q-1.0 -0.453125 -1.703125 -1.078125l1.3125 -1.484375q0.5 0.421875 1.171875 0.71875q0.671875 0.296875 1.390625 0.296875q1.0 0 1.8125 -0.5q0.828125 -0.515625 1.34375 -1.703125q0.53125 -1.203125 0.53125 -3.25q0 -1.671875 -0.390625 -2.71875q-0.390625 -1.0625 -1.078125 -1.53125q-0.6875 -0.484375 -1.578125 -0.484375q-0.65625 0 -1.234375 0.296875q-0.5625 0.296875 -0.90625 0.859375q-0.328125 0.5625 -0.328125 1.390625q0 1.21875 0.640625 1.828125q0.65625 0.609375 1.8125 0.609375q0.71875 0 1.515625 -0.375q0.796875 -0.390625 1.546875 -1.3125l0.109375 1.734375q-0.796875 0.78125 -1.78125 1.25q-0.96875 0.46875 -1.890625 0.46875q-1.234375 0 -2.1875 -0.453125q-0.9375 -0.453125 -1.484375 -1.375q-0.546875 -0.9375 -0.546875 -2.375q0 -1.34375 0.640625 -2.34375q0.65625 -1.0 1.734375 -1.546875q1.078125 -0.546875 2.3125 -0.546875q1.09375 0 2.046875 0.40625q0.96875 0.390625 1.703125 1.203125q0.75 0.8125 1.171875 2.0625q0.4375 1.234375 0.4375 2.953125q0 1.984375 -0.484375 3.40625q-0.484375 1.40625 -1.296875 2.3125q-0.796875 0.890625 -1.84375 1.3125q-1.03125 0.421875 -2.140625 0.421875zm13.296936 0q-1.171875 0 -2.109375 -0.25q-0.921875 -0.25 -1.625 -0.6875q-0.703125 -0.4375 -1.234375 -0.9375l1.125 -1.578125q0.46875 0.390625 0.984375 0.71875q0.515625 0.328125 1.140625 0.53125q0.625 0.203125 1.421875 0.203125q0.84375 0 1.53125 -0.3125q0.6875 -0.3125 1.078125 -0.890625q0.390625 -0.59375 0.390625 -1.390625q0 -1.21875 -0.796875 -1.875q-0.796875 -0.671875 -2.109375 -0.671875q-0.734375 0 -1.28125 0.1875q-0.53125 0.171875 -1.234375 0.578125l-1.171875 -0.75l0.4375 -6.6875l7.984375 0l0 2.0625l-5.859375 0l-0.296875 3.28125q0.53125 -0.203125 1.015625 -0.3125q0.5 -0.125 1.109375 -0.125q1.28125 0 2.34375 0.46875q1.078125 0.453125 1.703125 1.390625q0.625 0.9375 0.625 2.375q0 1.5 -0.71875 2.546875q-0.71875 1.046875 -1.90625 1.59375q-1.1875 0.53125 -2.546875 0.53125zm13.1406555 0q-0.90625 0 -1.515625 -0.609375q-0.609375 -0.625 -0.609375 -1.53125q0 -0.953125 0.609375 -1.546875q0.609375 -0.609375 1.515625 -0.609375q0.90625 0 1.5 0.609375q0.609375 0.59375 0.609375 1.546875q0 0.90625 -0.609375 1.53125q-0.59375 0.609375 -1.5 0.609375zm7.7812805 -0.25l0 -1.421875q2.125 -1.84375 3.640625 -3.265625q1.53125 -1.4375 2.359375 -2.609375q0.828125 -1.1875 0.828125 -2.234375q0 -1.09375 -0.671875 -1.71875q-0.65625 -0.625 -1.9375 -0.625q-0.875 0 -1.625 0.453125q-0.75 0.4375 -1.359375 1.0625l-1.34375 -1.375q0.984375 -1.0 2.0625 -1.546875q1.09375 -0.546875 2.578125 -0.546875q1.421875 0 2.453125 0.515625q1.03125 0.515625 1.609375 1.453125q0.578125 0.9375 0.578125 2.203125q0 1.1875 -0.75 2.4375q-0.75 1.25 -2.015625 2.546875q-1.265625 1.296875 -2.84375 2.734375q0.59375 -0.0625 1.25 -0.109375q0.671875 -0.046875 1.21875 -0.046875l3.84375 0l0 2.09375l-9.875 0z" fill-rule="nonzero"/><path fill="#595959" d="m291.97504 60.668114l-0.640625 -1.46875q1.40625 -0.546875 2.078125 -1.390625q0.671875 -0.84375 0.65625 -2.015625l-0.265625 -2.265625l1.265625 1.921875q-0.28125 0.28125 -0.609375 0.390625q-0.328125 0.09375 -0.6875 0.09375q-0.546875 0 -1.0 -0.203125q-0.453125 -0.21875 -0.734375 -0.640625q-0.28125 -0.421875 -0.28125 -1.046875q0 -0.875 0.609375 -1.390625q0.609375 -0.515625 1.4375 -0.515625q1.15625 0 1.734375 0.859375q0.578125 0.859375 0.578125 2.34375q0 1.9375 -1.078125 3.296875q-1.078125 1.375 -3.0625 2.03125z" fill-rule="nonzero"/><path fill="#669900" d="m337.67798 56.33999q-1.34375 0 -2.359375 -0.453125q-1.0 -0.453125 -1.703125 -1.078125l1.3125 -1.484375q0.5 0.421875 1.171875 0.71875q0.671875 0.296875 1.390625 0.296875q1.0 0 1.8125 -0.5q0.828125 -0.515625 1.34375 -1.703125q0.53125 -1.203125 0.53125 -3.25q0 -1.671875 -0.390625 -2.71875q-0.390625 -1.0625 -1.078125 -1.53125q-0.6875 -0.484375 -1.578125 -0.484375q-0.65625 0 -1.234375 0.296875q-0.5625 0.296875 -0.90625 0.859375q-0.328125 0.5625 -0.328125 1.390625q0 1.21875 0.640625 1.828125q0.65625 0.609375 1.8125 0.609375q0.71875 0 1.515625 -0.375q0.796875 -0.390625 1.546875 -1.3125l0.109375 1.734375q-0.796875 0.78125 -1.78125 1.25q-0.96875 0.46875 -1.890625 0.46875q-1.234375 0 -2.1875 -0.453125q-0.9375 -0.453125 -1.484375 -1.375q-0.546875 -0.9375 -0.546875 -2.375q0 -1.34375 0.640625 -2.34375q0.65625 -1.0 1.734375 -1.546875q1.078125 -0.546875 2.3125 -0.546875q1.09375 0 2.046875 0.40625q0.96875 0.390625 1.703125 1.203125q0.75 0.8125 1.171875 2.0625q0.4375 1.234375 0.4375 2.953125q0 1.984375 -0.484375 3.40625q-0.484375 1.40625 -1.296875 2.3125q-0.796875 0.890625 -1.84375 1.3125q-1.03125 0.421875 -2.140625 0.421875zm9.109436 -0.25l0 -2.0l3.78125 0l0 -8.921875l-3.015625 0l0 -1.53125q0.859375 -0.125 1.5 -0.265625q0.640625 -0.15625 1.15625 -0.375q0.53125 -0.21875 1.015625 -0.46875l1.796875 0l0 11.5625l3.328125 0l0 2.0l-9.5625 0zm17.328156 0.25q-0.90625 0 -1.515625 -0.609375q-0.609375 -0.625 -0.609375 -1.53125q0 -0.953125 0.609375 -1.546875q0.609375 -0.609375 1.515625 -0.609375q0.90625 0 1.5 0.609375q0.609375 0.59375 0.609375 1.546875q0 0.90625 -0.609375 1.53125q-0.59375 0.609375 -1.5 0.609375zm12.7969055 0q-1.546875 0 -2.671875 -0.828125q-1.125 -0.828125 -1.75 -2.40625q-0.625 -1.578125 -0.625 -3.859375q0 -3.4375 1.359375 -5.203125q1.375 -1.78125 3.6875 -1.78125q2.3125 0 3.671875 1.78125q1.359375 1.765625 1.359375 5.203125q0 2.28125 -0.609375 3.859375q-0.609375 1.578125 -1.75 2.40625q-1.125 0.828125 -2.671875 0.828125zm0 -1.90625q0.796875 0 1.4375 -0.515625q0.640625 -0.53125 1.0 -1.671875q0.375 -1.140625 0.375 -3.0q0 -1.859375 -0.375 -2.96875q-0.359375 -1.109375 -1.0 -1.59375q-0.640625 -0.5 -1.4375 -0.5q-0.8125 0 -1.453125 0.5q-0.640625 0.484375 -1.015625 1.59375q-0.359375 1.109375 -0.359375 2.96875q0 1.859375 0.359375 3.0q0.375 1.140625 1.015625 1.671875q0.640625 0.515625 1.453125 0.515625zm0 -3.765625q-0.609375 0 -1.046875 -0.40625q-0.4375 -0.40625 -0.4375 -1.109375q0 -0.703125 0.4375 -1.109375q0.4375 -0.40625 1.046875 -0.40625q0.609375 0 1.03125 0.40625q0.4375 0.40625 0.4375 1.109375q0 0.703125 -0.4375 1.109375q-0.421875 0.40625 -1.03125 0.40625z" fill-rule="nonzero"/><path fill="#595959" d="m387.97504 60.668114l-0.640625 -1.46875q1.40625 -0.546875 2.078125 -1.390625q0.671875 -0.84375 0.65625 -2.015625l-0.265625 -2.265625l1.265625 1.921875q-0.28125 0.28125 -0.609375 0.390625q-0.328125 0.09375 -0.6875 0.09375q-0.546875 0 -1.0 -0.203125q-0.453125 -0.21875 -0.734375 -0.640625q-0.28125 -0.421875 -0.28125 -1.046875q0 -0.875 0.609375 -1.390625q0.609375 -0.515625 1.4375 -0.515625q1.15625 0 1.734375 0.859375q0.578125 0.859375 0.578125 2.34375q0 1.9375 -1.078125 3.296875q-1.078125 1.375 -3.0625 2.03125z" fill-rule="nonzero"/><path fill="#669900" d="m433.67798 56.33999q-1.34375 0 -2.359375 -0.453125q-1.0 -0.453125 -1.703125 -1.078125l1.3125 -1.484375q0.5 0.421875 1.171875 0.71875q0.671875 0.296875 1.390625 0.296875q1.0 0 1.8125 -0.5q0.828125 -0.515625 1.34375 -1.703125q0.53125 -1.203125 0.53125 -3.25q0 -1.671875 -0.390625 -2.71875q-0.390625 -1.0625 -1.078125 -1.53125q-0.6875 -0.484375 -1.578125 -0.484375q-0.65625 0 -1.234375 0.296875q-0.5625 0.296875 -0.90625 0.859375q-0.328125 0.5625 -0.328125 1.390625q0 1.21875 0.640625 1.828125q0.65625 0.609375 1.8125 0.609375q0.71875 0 1.515625 -0.375q0.796875 -0.390625 1.546875 -1.3125l0.109375 1.734375q-0.796875 0.78125 -1.78125 1.25q-0.96875 0.46875 -1.890625 0.46875q-1.234375 0 -2.1875 -0.453125q-0.9375 -0.453125 -1.484375 -1.375q-0.546875 -0.9375 -0.546875 -2.375q0 -1.34375 0.640625 -2.34375q0.65625 -1.0 1.734375 -1.546875q1.078125 -0.546875 2.3125 -0.546875q1.09375 0 2.046875 0.40625q0.96875 0.390625 1.703125 1.203125q0.75 0.8125 1.171875 2.0625q0.4375 1.234375 0.4375 2.953125q0 1.984375 -0.484375 3.40625q-0.484375 1.40625 -1.296875 2.3125q-0.796875 0.890625 -1.84375 1.3125q-1.03125 0.421875 -2.140625 0.421875zm13.640686 0q-1.546875 0 -2.671875 -0.828125q-1.125 -0.828125 -1.75 -2.40625q-0.625 -1.578125 -0.625 -3.859375q0 -3.4375 1.359375 -5.203125q1.375 -1.78125 3.6875 -1.78125q2.3125 0 3.671875 1.78125q1.359375 1.765625 1.359375 5.203125q0 2.28125 -0.609375 3.859375q-0.609375 1.578125 -1.75 2.40625q-1.125 0.828125 -2.671875 0.828125zm0 -1.90625q0.796875 0 1.4375 -0.515625q0.640625 -0.53125 1.0 -1.671875q0.375 -1.140625 0.375 -3.0q0 -1.859375 -0.375 -2.96875q-0.359375 -1.109375 -1.0 -1.59375q-0.640625 -0.5 -1.4375 -0.5q-0.8125 0 -1.453125 0.5q-0.640625 0.484375 -1.015625 1.59375q-0.359375 1.109375 -0.359375 2.96875q0 1.859375 0.359375 3.0q0.375 1.140625 1.015625 1.671875q0.640625 0.515625 1.453125 0.515625zm0 -3.765625q-0.609375 0 -1.046875 -0.40625q-0.4375 -0.40625 -0.4375 -1.109375q0 -0.703125 0.4375 -1.109375q0.4375 -0.40625 1.046875 -0.40625q0.609375 0 1.03125 0.40625q0.4375 0.40625 0.4375 1.109375q0 0.703125 -0.4375 1.109375q-0.421875 0.40625 -1.03125 0.40625zm12.7969055 5.671875q-0.90625 0 -1.515625 -0.609375q-0.609375 -0.625 -0.609375 -1.53125q0 -0.953125 0.609375 -1.546875q0.609375 -0.609375 1.515625 -0.609375q0.90625 0 1.5 0.609375q0.609375 0.59375 0.609375 1.546875q0 0.90625 -0.609375 1.53125q-0.59375 0.609375 -1.5 0.609375zm12.7969055 0q-1.546875 0 -2.671875 -0.828125q-1.125 -0.828125 -1.75 -2.40625q-0.625 -1.578125 -0.625 -3.859375q0 -3.4375 1.359375 -5.203125q1.375 -1.78125 3.6875 -1.78125q2.3125 0 3.671875 1.78125q1.359375 1.765625 1.359375 5.203125q0 2.28125 -0.609375 3.859375q-0.609375 1.578125 -1.75 2.40625q-1.125 0.828125 -2.671875 0.828125zm0 -1.90625q0.796875 0 1.4375 -0.515625q0.640625 -0.53125 1.0 -1.671875q0.375 -1.140625 0.375 -3.0q0 -1.859375 -0.375 -2.96875q-0.359375 -1.109375 -1.0 -1.59375q-0.640625 -0.5 -1.4375 -0.5q-0.8125 0 -1.453125 0.5q-0.640625 0.484375 -1.015625 1.59375q-0.359375 1.109375 -0.359375 2.96875q0 1.859375 0.359375 3.0q0.375 1.140625 1.015625 1.671875q0.640625 0.515625 1.453125 0.515625zm0 -3.765625q-0.609375 0 -1.046875 -0.40625q-0.4375 -0.40625 -0.4375 -1.109375q0 -0.703125 0.4375 -1.109375q0.4375 -0.40625 1.046875 -0.40625q0.609375 0 1.03125 0.40625q0.4375 0.40625 0.4375 1.109375q0 0.703125 -0.4375 1.109375q-0.421875 0.40625 -1.03125 0.40625z" fill-rule="nonzero"/><path fill="#595959" d="m483.97504 60.668114l-0.640625 -1.46875q1.40625 -0.546875 2.078125 -1.390625q0.671875 -0.84375 0.65625 -2.015625l-0.265625 -2.265625l1.265625 1.921875q-0.28125 0.28125 -0.609375 0.390625q-0.328125 0.09375 -0.6875 0.09375q-0.546875 0 -1.0 -0.203125q-0.453125 -0.21875 -0.734375 -0.640625q-0.28125 -0.421875 -0.28125 -1.046875q0 -0.875 0.609375 -1.390625q0.609375 -0.515625 1.4375 -0.515625q1.15625 0 1.734375 0.859375q0.578125 0.859375 0.578125 2.34375q0 1.9375 -1.078125 3.296875q-1.078125 1.375 -3.0625 2.03125z" fill-rule="nonzero"/><path fill="#990055" d="m530.53735 56.33999q-1.5625 0 -2.6875 -0.46875q-1.125 -0.484375 -1.75 -1.328125q-0.625 -0.84375 -0.625 -1.921875q0 -0.875 0.390625 -1.53125q0.40625 -0.65625 1.015625 -1.125q0.625 -0.484375 1.34375 -0.828125l0 -0.078125q-0.84375 -0.5625 -1.4375 -1.34375q-0.578125 -0.78125 -0.578125 -1.84375q0 -1.078125 0.5625 -1.90625q0.5625 -0.828125 1.546875 -1.265625q1.0 -0.4375 2.28125 -0.4375q2.03125 0 3.1875 1.015625q1.15625 1.015625 1.15625 2.65625q0 0.9375 -0.59375 1.75q-0.59375 0.796875 -1.421875 1.34375l0 0.09375q0.75 0.359375 1.328125 0.828125q0.59375 0.453125 0.9375 1.109375q0.359375 0.65625 0.359375 1.59375q0 1.046875 -0.59375 1.890625q-0.578125 0.828125 -1.703125 1.3125q-1.125 0.484375 -2.71875 0.484375zm1.0 -7.90625q1.34375 -1.09375 1.34375 -2.34375q0 -0.59375 -0.265625 -1.0625q-0.265625 -0.46875 -0.796875 -0.734375q-0.515625 -0.28125 -1.265625 -0.28125q-0.9375 0 -1.5625 0.5q-0.609375 0.484375 -0.609375 1.359375q0 0.6875 0.40625 1.15625q0.421875 0.453125 1.140625 0.78125q0.71875 0.328125 1.609375 0.625zm-0.953125 6.15625q1.234375 0 1.9375 -0.53125q0.703125 -0.53125 0.703125 -1.484375q0 -0.578125 -0.28125 -0.984375q-0.28125 -0.40625 -0.796875 -0.703125q-0.5 -0.296875 -1.1875 -0.546875q-0.6875 -0.25 -1.484375 -0.515625q-0.546875 0.296875 -0.953125 0.6875q-0.390625 0.375 -0.625 0.84375q-0.234375 0.453125 -0.234375 1.0q0 0.6875 0.359375 1.1875q0.359375 0.5 1.015625 0.78125q0.671875 0.265625 1.546875 0.265625zm10.781311 1.5q0.09375 -1.8125 0.359375 -3.328125q0.265625 -1.515625 0.75 -2.84375q0.5 -1.328125 1.265625 -2.625q0.78125 -1.3125 1.890625 -2.703125l-7.3125 0l0 -2.0625l10.03125 0l0 1.484375q-1.328125 1.5 -2.15625 2.84375q-0.828125 1.328125 -1.3125 2.703125q-0.484375 1.375 -0.703125 2.953125q-0.203125 1.578125 -0.3125 3.578125l-2.5 0zm14.750061 0.25q-0.90625 0 -1.515625 -0.609375q-0.609375 -0.625 -0.609375 -1.53125q0 -0.953125 0.609375 -1.546875q0.609375 -0.609375 1.515625 -0.609375q0.90625 0 1.5 0.609375q0.609375 0.59375 0.609375 1.546875q0 0.90625 -0.609375 1.53125q-0.59375 0.609375 -1.5 0.609375zm13.9375 -0.25l0 -8.640625q0.03125 -0.59375 0.0625 -1.34375q0.046875 -0.75 0.0625 -1.34375l-0.09375 0q-0.34375 0.53125 -0.71875 1.078125q-0.375 0.53125 -0.71875 1.078125l-2.859375 3.78125l8.484375 0l0 1.890625l-10.96875 0l0 -1.65625l6.21875 -8.4375l2.84375 0l0 13.59375l-2.3125 0z" fill-rule="nonzero"/><path fill="#595959" d="m579.97504 60.668114l-0.640625 -1.46875q1.40625 -0.546875 2.078125 -1.390625q0.671875 -0.84375 0.65625 -2.015625l-0.265625 -2.265625l1.265625 1.921875q-0.28125 0.28125 -0.609375 0.390625q-0.328125 0.09375 -0.6875 0.09375q-0.546875 0 -1.0 -0.203125q-0.453125 -0.21875 -0.734375 -0.640625q-0.28125 -0.421875 -0.28125 -1.046875q0 -0.875 0.609375 -1.390625q0.609375 -0.515625 1.4375 -0.515625q1.15625 0 1.734375 0.859375q0.578125 0.859375 0.578125 2.34375q0 1.9375 -1.078125 3.296875q-1.078125 1.375 -3.0625 2.03125z" fill-rule="nonzero"/><path fill="#990055" d="m626.53735 56.33999q-1.5625 0 -2.6875 -0.46875q-1.125 -0.484375 -1.75 -1.328125q-0.625 -0.84375 -0.625 -1.921875q0 -0.875 0.390625 -1.53125q0.40625 -0.65625 1.015625 -1.125q0.625 -0.484375 1.34375 -0.828125l0 -0.078125q-0.84375 -0.5625 -1.4375 -1.34375q-0.578125 -0.78125 -0.578125 -1.84375q0 -1.078125 0.5625 -1.90625q0.5625 -0.828125 1.546875 -1.265625q1.0 -0.4375 2.28125 -0.4375q2.03125 0 3.1875 1.015625q1.15625 1.015625 1.15625 2.65625q0 0.9375 -0.59375 1.75q-0.59375 0.796875 -1.421875 1.34375l0 0.09375q0.75 0.359375 1.328125 0.828125q0.59375 0.453125 0.9375 1.109375q0.359375 0.65625 0.359375 1.59375q0 1.046875 -0.59375 1.890625q-0.578125 0.828125 -1.703125 1.3125q-1.125 0.484375 -2.71875 0.484375zm1.0 -7.90625q1.34375 -1.09375 1.34375 -2.34375q0 -0.59375 -0.265625 -1.0625q-0.265625 -0.46875 -0.796875 -0.734375q-0.515625 -0.28125 -1.265625 -0.28125q-0.9375 0 -1.5625 0.5q-0.609375 0.484375 -0.609375 1.359375q0 0.6875 0.40625 1.15625q0.421875 0.453125 1.140625 0.78125q0.71875 0.328125 1.609375 0.625zm-0.953125 6.15625q1.234375 0 1.9375 -0.53125q0.703125 -0.53125 0.703125 -1.484375q0 -0.578125 -0.28125 -0.984375q-0.28125 -0.40625 -0.796875 -0.703125q-0.5 -0.296875 -1.1875 -0.546875q-0.6875 -0.25 -1.484375 -0.515625q-0.546875 0.296875 -0.953125 0.6875q-0.390625 0.375 -0.625 0.84375q-0.234375 0.453125 -0.234375 1.0q0 0.6875 0.359375 1.1875q0.359375 0.5 1.015625 0.78125q0.671875 0.265625 1.546875 0.265625zm11.890686 1.75q-1.34375 0 -2.359375 -0.453125q-1.0 -0.453125 -1.703125 -1.078125l1.3125 -1.484375q0.5 0.421875 1.171875 0.71875q0.671875 0.296875 1.390625 0.296875q1.0 0 1.8125 -0.5q0.828125 -0.515625 1.34375 -1.703125q0.53125 -1.203125 0.53125 -3.25q0 -1.671875 -0.390625 -2.71875q-0.390625 -1.0625 -1.078125 -1.53125q-0.6875 -0.484375 -1.578125 -0.484375q-0.65625 0 -1.234375 0.296875q-0.5625 0.296875 -0.90625 0.859375q-0.328125 0.5625 -0.328125 1.390625q0 1.21875 0.640625 1.828125q0.65625 0.609375 1.8125 0.609375q0.71875 0 1.515625 -0.375q0.796875 -0.390625 1.546875 -1.3125l0.109375 1.734375q-0.796875 0.78125 -1.78125 1.25q-0.96875 0.46875 -1.890625 0.46875q-1.234375 0 -2.1875 -0.453125q-0.9375 -0.453125 -1.484375 -1.375q-0.546875 -0.9375 -0.546875 -2.375q0 -1.34375 0.640625 -2.34375q0.65625 -1.0 1.734375 -1.546875q1.078125 -0.546875 2.3125 -0.546875q1.09375 0 2.046875 0.40625q0.96875 0.390625 1.703125 1.203125q0.75 0.8125 1.171875 2.0625q0.4375 1.234375 0.4375 2.953125q0 1.984375 -0.484375 3.40625q-0.484375 1.40625 -1.296875 2.3125q-0.796875 0.890625 -1.84375 1.3125q-1.03125 0.421875 -2.140625 0.421875zm13.640686 0q-0.90625 0 -1.515625 -0.609375q-0.609375 -0.625 -0.609375 -1.53125q0 -0.953125 0.609375 -1.546875q0.609375 -0.609375 1.515625 -0.609375q0.90625 0 1.5 0.609375q0.609375 0.59375 0.609375 1.546875q0 0.90625 -0.609375 1.53125q-0.59375 0.609375 -1.5 0.609375zm12.796875 0q-1.546875 0 -2.671875 -0.828125q-1.125 -0.828125 -1.75 -2.40625q-0.625 -1.578125 -0.625 -3.859375q0 -3.4375 1.359375 -5.203125q1.375 -1.78125 3.6875 -1.78125q2.3125 0 3.671875 1.78125q1.359375 1.765625 1.359375 5.203125q0 2.28125 -0.609375 3.859375q-0.609375 1.578125 -1.75 2.40625q-1.125 0.828125 -2.671875 0.828125zm0 -1.90625q0.796875 0 1.4375 -0.515625q0.640625 -0.53125 1.0 -1.671875q0.375 -1.140625 0.375 -3.0q0 -1.859375 -0.375 -2.96875q-0.359375 -1.109375 -1.0 -1.59375q-0.640625 -0.5 -1.4375 -0.5q-0.8125 0 -1.453125 0.5q-0.640625 0.484375 -1.015625 1.59375q-0.359375 1.109375 -0.359375 2.96875q0 1.859375 0.359375 3.0q0.375 1.140625 1.015625 1.671875q0.640625 0.515625 1.453125 0.515625zm0 -3.765625q-0.609375 0 -1.046875 -0.40625q-0.4375 -0.40625 -0.4375 -1.109375q0 -0.703125 0.4375 -1.109375q0.4375 -0.40625 1.046875 -0.40625q0.609375 0 1.03125 0.40625q0.4375 0.40625 0.4375 1.109375q0 0.703125 -0.4375 1.109375q-0.421875 0.40625 -1.03125 0.40625z" fill-rule="nonzero"/><path fill="#595959" d="m675.97504 60.668114l-0.640625 -1.46875q1.40625 -0.546875 2.078125 -1.390625q0.671875 -0.84375 0.65625 -2.015625l-0.265625 -2.265625l1.265625 1.921875q-0.28125 0.28125 -0.609375 0.390625q-0.328125 0.09375 -0.6875 0.09375q-0.546875 0 -1.0 -0.203125q-0.453125 -0.21875 -0.734375 -0.640625q-0.28125 -0.421875 -0.28125 -1.046875q0 -0.875 0.609375 -1.390625q0.609375 -0.515625 1.4375 -0.515625q1.15625 0 1.734375 0.859375q0.578125 0.859375 0.578125 2.34375q0 1.9375 -1.078125 3.296875q-1.078125 1.375 -3.0625 2.03125z" fill-rule="nonzero"/><path fill="#669900" d="m721.678 56.33999q-1.34375 0 -2.359375 -0.453125q-1.0 -0.453125 -1.703125 -1.078125l1.3125 -1.484375q0.5 0.421875 1.171875 0.71875q0.671875 0.296875 1.390625 0.296875q1.0 0 1.8125 -0.5q0.828125 -0.515625 1.34375 -1.703125q0.53125 -1.203125 0.53125 -3.25q0 -1.671875 -0.390625 -2.71875q-0.390625 -1.0625 -1.078125 -1.53125q-0.6875 -0.484375 -1.578125 -0.484375q-0.65625 0 -1.234375 0.296875q-0.5625 0.296875 -0.90625 0.859375q-0.328125 0.5625 -0.328125 1.390625q0 1.21875 0.640625 1.828125q0.65625 0.609375 1.8125 0.609375q0.71875 0 1.515625 -0.375q0.796875 -0.390625 1.546875 -1.3125l0.109375 1.734375q-0.796875 0.78125 -1.78125 1.25q-0.96875 0.46875 -1.890625 0.46875q-1.234375 0 -2.1875 -0.453125q-0.9375 -0.453125 -1.484375 -1.375q-0.546875 -0.9375 -0.546875 -2.375q0 -1.34375 0.640625 -2.34375q0.65625 -1.0 1.734375 -1.546875q1.078125 -0.546875 2.3125 -0.546875q1.09375 0 2.046875 0.40625q0.96875 0.390625 1.703125 1.203125q0.75 0.8125 1.171875 2.0625q0.4375 1.234375 0.4375 2.953125q0 1.984375 -0.484375 3.40625q-0.484375 1.40625 -1.296875 2.3125q-0.796875 0.890625 -1.84375 1.3125q-1.03125 0.421875 -2.140625 0.421875zm8.625061 -0.25l0 -1.421875q2.125 -1.84375 3.640625 -3.265625q1.53125 -1.4375 2.359375 -2.609375q0.828125 -1.1875 0.828125 -2.234375q0 -1.09375 -0.671875 -1.71875q-0.65625 -0.625 -1.9375 -0.625q-0.875 0 -1.625 0.453125q-0.75 0.4375 -1.359375 1.0625l-1.34375 -1.375q0.984375 -1.0 2.0625 -1.546875q1.09375 -0.546875 2.578125 -0.546875q1.421875 0 2.453125 0.515625q1.03125 0.515625 1.609375 1.453125q0.578125 0.9375 0.578125 2.203125q0 1.1875 -0.75 2.4375q-0.75 1.25 -2.015625 2.546875q-1.265625 1.296875 -2.84375 2.734375q0.59375 -0.0625 1.25 -0.109375q0.671875 -0.046875 1.21875 -0.046875l3.84375 0l0 2.09375l-9.875 0zm17.812561 0.25q-0.90625 0 -1.515625 -0.609375q-0.609375 -0.625 -0.609375 -1.53125q0 -0.953125 0.609375 -1.546875q0.609375 -0.609375 1.515625 -0.609375q0.90625 0 1.5 0.609375q0.609375 0.59375 0.609375 1.546875q0 0.90625 -0.609375 1.53125q-0.59375 0.609375 -1.5 0.609375zm13.9375 -0.25l0 -8.640625q0.03125 -0.59375 0.0625 -1.34375q0.046875 -0.75 0.0625 -1.34375l-0.09375 0q-0.34375 0.53125 -0.71875 1.078125q-0.375 0.53125 -0.71875 1.078125l-2.859375 3.78125l8.484375 0l0 1.890625l-10.96875 0l0 -1.65625l6.21875 -8.4375l2.84375 0l0 13.59375l-2.3125 0z" fill-rule="nonzero"/><path fill="#595959" d="m814.28735 59.324364l0 -1.34375l0.984375 0q0.984375 0 1.5 -0.15625q0.53125 -0.15625 0.71875 -0.53125q0.1875 -0.375 0.1875 -1.015625q0 -0.90625 -0.0625 -1.765625q-0.046875 -0.875 -0.046875 -1.890625q0 -1.140625 0.453125 -1.671875q0.453125 -0.546875 1.578125 -0.75l0 -0.078125q-1.125 -0.1875 -1.578125 -0.734375q-0.453125 -0.546875 -0.453125 -1.671875q0 -0.984375 0.046875 -1.890625q0.0625 -0.90625 0.0625 -1.78125q0 -0.640625 -0.1875 -1.015625q-0.1875 -0.375 -0.71875 -0.53125q-0.515625 -0.15625 -1.5 -0.15625l-0.984375 0l0 -1.34375l1.46875 0q2.03125 0 2.984375 0.625q0.96875 0.625 0.96875 2.3125q0 0.75 -0.046875 1.375q-0.046875 0.609375 -0.109375 1.21875q-0.0625 0.609375 -0.0625 1.28125q0 0.390625 0.25 0.75q0.265625 0.359375 0.90625 0.609375q0.65625 0.25 1.859375 0.25l0 1.484375q-1.203125 0 -1.859375 0.25q-0.640625 0.25 -0.90625 0.609375q-0.25 0.359375 -0.25 0.75q0 0.703125 0.0625 1.296875q0.0625 0.59375 0.109375 1.203125q0.046875 0.609375 0.046875 1.375q0 1.6875 -0.96875 2.3125q-0.953125 0.625 -2.984375 0.625l-1.46875 0z" fill-rule="nonzero"/><path stroke="#9e9e9e" stroke-width="1.0" stroke-linecap="butt" d="m72.56431 100.845146l0 84.18897" fill-rule="nonzero"/><path stroke="#9e9e9e" stroke-width="1.0" stroke-linecap="butt" d="m262.5643 100.845146l0 84.18897" fill-rule="nonzero"/><path stroke="#9e9e9e" stroke-width="1.0" stroke-linecap="butt" d="m452.5643 100.845146l0 84.18897" fill-rule="nonzero"/><path stroke="#9e9e9e" stroke-width="1.0" stroke-linecap="butt" d="m642.56433 100.845146l0 84.18897" fill-rule="nonzero"/><path stroke="#9e9e9e" stroke-width="1.0" stroke-linecap="butt" d="m832.56433 100.845146l0 84.18897" fill-rule="nonzero"/><path stroke="#9e9e9e" stroke-width="1.0" stroke-linecap="butt" d="m72.06562 101.343834l760.9974 0" fill-rule="nonzero"/><path stroke="#9e9e9e" stroke-width="1.0" stroke-linecap="butt" d="m72.06562 142.93964l760.9974 0" fill-rule="nonzero"/><path stroke="#9e9e9e" stroke-width="1.0" stroke-linecap="butt" d="m72.06562 184.53543l760.9974 0" fill-rule="nonzero"/><path fill="#ffab40" d="m132.8152 132.4086l0 -16.609367l5.53125 0l0 2.5625l-2.78125 0l0.109375 -0.15625l0 11.874992l-0.1875 -0.234375l2.859375 0l0 2.5625l-5.53125 0zm11.913757 -3.484375q-1.34375 0 -2.4375 -0.515625q-1.09375 -0.5156174 -1.75 -1.3906174q-0.640625 -0.875 -0.640625 -1.984375q0 -0.71875 0.1875 -1.3125q0.1875 -0.59375 0.5625 -1.046875q0.390625 -0.453125 0.9375 -0.78125q0.546875 -0.328125 1.25 -0.53125l-0.21875 0.75q-0.515625 -0.203125 -0.953125 -0.5q-0.421875 -0.3125 -0.71875 -0.6875q-0.296875 -0.390625 -0.46875 -0.828125q-0.15625 -0.453125 -0.15625 -0.9375q0 -1.046875 0.578125 -1.84375q0.59375 -0.796875 1.59375 -1.25q1.0 -0.46875 2.234375 -0.46875q1.21875 0 2.203125 0.46875q1.0 0.453125 1.59375 1.25q0.609375 0.796875 0.609375 1.84375q0 0.484375 -0.15625 0.9375q-0.140625 0.4375 -0.453125 0.8125q-0.296875 0.359375 -0.71875 0.671875q-0.421875 0.296875 -0.984375 0.53125l-0.171875 -0.671875q0.640625 0.171875 1.171875 0.484375q0.546875 0.296875 0.9375 0.75q0.390625 0.453125 0.59375 1.046875q0.21875 0.59375 0.21875 1.3125q0 1.125 -0.65625 2.0q-0.640625 0.875 -1.75 1.3906174q-1.09375 0.5 -2.4375 0.5zm0 -2.4999924q0.515625 0 0.921875 -0.203125q0.421875 -0.21875 0.65625 -0.5625q0.25 -0.359375 0.25 -0.828125q0 -0.484375 -0.234375 -0.84375q-0.234375 -0.375 -0.65625 -0.578125q-0.421875 -0.21875 -0.9375 -0.21875q-0.515625 0 -0.9375 0.21875q-0.40625 0.203125 -0.65625 0.578125q-0.234375 0.359375 -0.234375 0.84375q0 0.453125 0.234375 0.8125q0.25 0.34375 0.65625 0.5625q0.421875 0.21875 0.9375 0.21875zm0 -5.75q0.453125 0 0.8125 -0.171875q0.359375 -0.1875 0.5625 -0.484375q0.203125 -0.3125 0.203125 -0.734375q0 -0.40625 -0.203125 -0.71875q-0.203125 -0.3125 -0.5625 -0.5q-0.359375 -0.1875 -0.8125 -0.1875q-0.46875 0 -0.828125 0.1875q-0.359375 0.1875 -0.578125 0.5q-0.203125 0.3125 -0.203125 0.71875q0 0.421875 0.203125 0.734375q0.21875 0.296875 0.578125 0.484375q0.359375 0.171875 0.828125 0.171875zm11.87822 8.374992q-1.75 0 -3.0 -0.796875q-1.234375 -0.8124924 -1.890625 -2.3124924q-0.640625 -1.5 -0.640625 -3.609375q0 -2.109375 0.640625 -3.609375q0.65625 -1.5 1.890625 -2.296875q1.25 -0.8125 3.0 -0.8125q1.765625 0 3.015625 0.8125q1.25 0.796875 1.890625 2.296875q0.65625 1.5 0.65625 3.609375q0 2.109375 -0.65625 3.609375q-0.640625 1.5 -1.890625 2.3124924q-1.25 0.796875 -3.015625 0.796875zm0 -2.6874924q1.21875 0 1.875 -1.046875q0.671875 -1.046875 0.671875 -2.984375q0 -2.0 -0.671875 -3.0625q-0.65625 -1.078125 -1.875 -1.078125q-1.203125 0 -1.875 1.078125q-0.65625 1.0625 -0.65625 3.0625q0 1.9375 0.65625 2.984375q0.671875 1.046875 1.875 1.046875zm7.889847 6.2343674l-0.84375 -1.0625q0.734375 -0.34375 1.1875 -0.859375q0.453125 -0.5 0.453125 -0.875q0 -0.171875 -0.09375 -0.375q-0.078125 -0.1875 -0.421875 -0.4375q-0.421875 -0.3125 -0.578125 -0.609375q-0.140625 -0.3125 -0.140625 -0.6874924q0 -0.578125 0.421875 -0.90625q0.421875 -0.34375 1.09375 -0.34375q0.53125 0 0.96875 0.296875q0.4375 0.296875 0.6875 0.828125q0.265625 0.5156174 0.265625 1.2031174q0 0.640625 -0.234375 1.21875q-0.21875 0.59375 -0.625 1.109375q-0.390625 0.515625 -0.953125 0.90625q-0.546875 0.390625 -1.1875 0.59375zm15.324341 -3.671875q-1.34375 0 -2.4375 -0.515625q-1.09375 -0.5156174 -1.75 -1.3906174q-0.640625 -0.875 -0.640625 -1.984375q0 -0.71875 0.1875 -1.3125q0.1875 -0.59375 0.5625 -1.046875q0.390625 -0.453125 0.9375 -0.78125q0.546875 -0.328125 1.25 -0.53125l-0.21875 0.75q-0.515625 -0.203125 -0.953125 -0.5q-0.421875 -0.3125 -0.71875 -0.6875q-0.296875 -0.390625 -0.46875 -0.828125q-0.15625 -0.453125 -0.15625 -0.9375q0 -1.046875 0.578125 -1.84375q0.59375 -0.796875 1.59375 -1.25q1.0 -0.46875 2.234375 -0.46875q1.21875 0 2.203125 0.46875q1.0 0.453125 1.59375 1.25q0.609375 0.796875 0.609375 1.84375q0 0.484375 -0.15625 0.9375q-0.140625 0.4375 -0.453125 0.8125q-0.296875 0.359375 -0.71875 0.671875q-0.421875 0.296875 -0.984375 0.53125l-0.171875 -0.671875q0.640625 0.171875 1.171875 0.484375q0.546875 0.296875 0.9375 0.75q0.390625 0.453125 0.59375 1.046875q0.21875 0.59375 0.21875 1.3125q0 1.125 -0.65625 2.0q-0.640625 0.875 -1.75 1.3906174q-1.09375 0.5 -2.4375 0.5zm0 -2.4999924q0.515625 0 0.921875 -0.203125q0.421875 -0.21875 0.65625 -0.5625q0.25 -0.359375 0.25 -0.828125q0 -0.484375 -0.234375 -0.84375q-0.234375 -0.375 -0.65625 -0.578125q-0.421875 -0.21875 -0.9375 -0.21875q-0.515625 0 -0.9375 0.21875q-0.40625 0.203125 -0.65625 0.578125q-0.234375 0.359375 -0.234375 0.84375q0 0.453125 0.234375 0.8125q0.25 0.34375 0.65625 0.5625q0.421875 0.21875 0.9375 0.21875zm0 -5.75q0.453125 0 0.8125 -0.171875q0.359375 -0.1875 0.5625 -0.484375q0.203125 -0.3125 0.203125 -0.734375q0 -0.40625 -0.203125 -0.71875q-0.203125 -0.3125 -0.5625 -0.5q-0.359375 -0.1875 -0.8125 -0.1875q-0.46875 0 -0.828125 0.1875q-0.359375 0.1875 -0.578125 0.5q-0.203125 0.3125 -0.203125 0.71875q0 0.421875 0.203125 0.734375q0.21875 0.296875 0.578125 0.484375q0.359375 0.171875 0.828125 0.171875zm10.862595 8.312492q-1.484375 0 -2.6875 -0.59375q-1.203125 -0.5937424 -1.984375 -1.7187424l1.703125 -1.859375q0.765625 0.84375 1.40625 1.15625q0.65625 0.296875 1.46875 0.296875q0.59375 0 1.0625 -0.234375q0.46875 -0.25 0.734375 -0.6875q0.265625 -0.4375 0.265625 -0.984375q0 -0.5625 -0.265625 -1.0q-0.265625 -0.4375 -0.734375 -0.6875q-0.453125 -0.265625 -1.046875 -0.265625q-0.4375 0 -0.8125 0.078125q-0.359375 0.0625 -0.78125 0.25q-0.421875 0.171875 -1.0 0.515625l-1.34375 -1.796875l0.796875 -5.765625l7.5 0l0 2.671875l-5.984375 0l0.828125 -1.046875l-0.625 4.140625l-1.109375 -0.375q0.34375 -0.3125 0.859375 -0.546875q0.515625 -0.25 1.109375 -0.40625q0.59375 -0.171875 1.203125 -0.171875q1.21875 0 2.203125 0.578125q0.984375 0.5625 1.5625 1.578125q0.578125 1.0 0.578125 2.3125q0 1.28125 -0.65625 2.328125q-0.65625 1.03125 -1.765625 1.6406174q-1.09375 0.59375 -2.484375 0.59375zm7.6972504 3.34375l-1.671875 -1.578125q1.71875 -1.203125 2.546875 -2.9531174q0.84375 -1.75 0.84375 -3.75q0 -2.0 -0.84375 -3.75q-0.828125 -1.75 -2.546875 -2.953125l1.6875 -1.578125q2.28125 1.421875 3.46875 3.546875q1.203125 2.125 1.203125 4.734375q0 2.59375 -1.203125 4.7343674q-1.203125 2.125 -3.484375 3.546875z" fill-rule="nonzero"/><path fill="#990055" d="m323.02042 132.4086l0 -16.609367l5.53125 0l0 2.5625l-2.78125 0l0.109375 -0.15625l0 11.874992l-0.1875 -0.234375l2.859375 0l0 2.5625l-5.53125 0zm11.913757 -3.484375q-1.34375 0 -2.4375 -0.515625q-1.09375 -0.5156174 -1.75 -1.3906174q-0.640625 -0.875 -0.640625 -1.984375q0 -0.71875 0.1875 -1.3125q0.1875 -0.59375 0.5625 -1.046875q0.390625 -0.453125 0.9375 -0.78125q0.546875 -0.328125 1.25 -0.53125l-0.21875 0.75q-0.515625 -0.203125 -0.953125 -0.5q-0.421875 -0.3125 -0.71875 -0.6875q-0.296875 -0.390625 -0.46875 -0.828125q-0.15625 -0.453125 -0.15625 -0.9375q0 -1.046875 0.578125 -1.84375q0.59375 -0.796875 1.59375 -1.25q1.0 -0.46875 2.234375 -0.46875q1.21875 0 2.203125 0.46875q1.0 0.453125 1.59375 1.25q0.609375 0.796875 0.609375 1.84375q0 0.484375 -0.15625 0.9375q-0.140625 0.4375 -0.453125 0.8125q-0.296875 0.359375 -0.71875 0.671875q-0.421875 0.296875 -0.984375 0.53125l-0.171875 -0.671875q0.640625 0.171875 1.171875 0.484375q0.546875 0.296875 0.9375 0.75q0.390625 0.453125 0.59375 1.046875q0.21875 0.59375 0.21875 1.3125q0 1.125 -0.65625 2.0q-0.640625 0.875 -1.75 1.3906174q-1.09375 0.5 -2.4375 0.5zm0 -2.4999924q0.515625 0 0.921875 -0.203125q0.421875 -0.21875 0.65625 -0.5625q0.25 -0.359375 0.25 -0.828125q0 -0.484375 -0.234375 -0.84375q-0.234375 -0.375 -0.65625 -0.578125q-0.421875 -0.21875 -0.9375 -0.21875q-0.515625 0 -0.9375 0.21875q-0.40625 0.203125 -0.65625 0.578125q-0.234375 0.359375 -0.234375 0.84375q0 0.453125 0.234375 0.8125q0.25 0.34375 0.65625 0.5625q0.421875 0.21875 0.9375 0.21875zm0 -5.75q0.453125 0 0.8125 -0.171875q0.359375 -0.1875 0.5625 -0.484375q0.203125 -0.3125 0.203125 -0.734375q0 -0.40625 -0.203125 -0.71875q-0.203125 -0.3125 -0.5625 -0.5q-0.359375 -0.1875 -0.8125 -0.1875q-0.46875 0 -0.828125 0.1875q-0.359375 0.1875 -0.578125 0.5q-0.203125 0.3125 -0.203125 0.71875q0 0.421875 0.203125 0.734375q0.21875 0.296875 0.578125 0.484375q0.359375 0.171875 0.828125 0.171875zm10.86261 8.312492q-1.484375 0 -2.6875 -0.59375q-1.203125 -0.5937424 -1.984375 -1.7187424l1.703125 -1.859375q0.765625 0.84375 1.40625 1.15625q0.65625 0.296875 1.46875 0.296875q0.59375 0 1.0625 -0.234375q0.46875 -0.25 0.734375 -0.6875q0.265625 -0.4375 0.265625 -0.984375q0 -0.5625 -0.265625 -1.0q-0.265625 -0.4375 -0.734375 -0.6875q-0.453125 -0.265625 -1.046875 -0.265625q-0.4375 0 -0.8125 0.078125q-0.359375 0.0625 -0.78125 0.25q-0.421875 0.171875 -1.0 0.515625l-1.34375 -1.796875l0.796875 -5.765625l7.5 0l0 2.671875l-5.984375 0l0.828125 -1.046875l-0.625 4.140625l-1.109375 -0.375q0.34375 -0.3125 0.859375 -0.546875q0.515625 -0.25 1.109375 -0.40625q0.59375 -0.171875 1.203125 -0.171875q1.21875 0 2.203125 0.578125q0.984375 0.5625 1.5625 1.578125q0.578125 1.0 0.578125 2.3125q0 1.28125 -0.65625 2.328125q-0.65625 1.03125 -1.765625 1.6406174q-1.09375 0.59375 -2.484375 0.59375zm7.43161 3.609375l-0.84375 -1.0625q0.734375 -0.34375 1.1875 -0.859375q0.453125 -0.5 0.453125 -0.875q0 -0.171875 -0.09375 -0.375q-0.078125 -0.1875 -0.421875 -0.4375q-0.421875 -0.3125 -0.578125 -0.609375q-0.140625 -0.3125 -0.140625 -0.6874924q0 -0.578125 0.421875 -0.90625q0.421875 -0.34375 1.09375 -0.34375q0.53125 0 0.96875 0.296875q0.4375 0.296875 0.6875 0.828125q0.265625 0.5156174 0.265625 1.2031174q0 0.640625 -0.234375 1.21875q-0.21875 0.59375 -0.625 1.109375q-0.390625 0.515625 -0.953125 0.90625q-0.546875 0.390625 -1.1875 0.59375zm13.621216 -3.734375l-0.0625 -0.1875l4.078125 -8.249992l0.546875 1.125q-0.1875 0.671875 -0.609375 1.21875q-0.40625 0.53125 -0.984375 0.9375q-0.5625 0.40625 -1.171875 0.625q-0.609375 0.203125 -1.171875 0.203125q-1.0625 0 -1.96875 -0.578125q-0.890625 -0.578125 -1.4375 -1.546875q-0.53125 -0.96875 -0.53125 -2.109375q0 -1.34375 0.640625 -2.4375q0.640625 -1.09375 1.734375 -1.734375q1.109375 -0.640625 2.484375 -0.640625q1.015625 0 1.890625 0.359375q0.875 0.34375 1.53125 0.96875q0.671875 0.625 1.046875 1.453125q0.375 0.8125 0.375 1.734375q0 0.671875 -0.125 1.3125q-0.109375 0.640625 -0.359375 1.3125q-0.234375 0.671875 -0.5625 1.40625q-0.3125 0.71875 -0.75 1.578125l-1.640625 3.2499924l-2.953125 0zm1.390625 -6.8281174q0.578125 0 1.015625 -0.25q0.453125 -0.265625 0.703125 -0.703125q0.25 -0.453125 0.25 -0.984375q0 -0.578125 -0.25 -1.03125q-0.25 -0.46875 -0.6875 -0.71875q-0.4375 -0.265625 -1.015625 -0.265625q-0.5625 0 -0.984375 0.25q-0.421875 0.25 -0.671875 0.71875q-0.25 0.453125 -0.25 1.046875q0 0.5 0.25 0.9375q0.25 0.4375 0.671875 0.71875q0.4375 0.28125 0.96875 0.28125zm11.780304 7.0156174q-1.75 0 -3.0 -0.796875q-1.234375 -0.8124924 -1.890625 -2.3124924q-0.640625 -1.5 -0.640625 -3.609375q0 -2.109375 0.640625 -3.609375q0.65625 -1.5 1.890625 -2.296875q1.25 -0.8125 3.0 -0.8125q1.765625 0 3.015625 0.8125q1.25 0.796875 1.890625 2.296875q0.65625 1.5 0.65625 3.609375q0 2.109375 -0.65625 3.609375q-0.640625 1.5 -1.890625 2.3124924q-1.25 0.796875 -3.015625 0.796875zm0 -2.6874924q1.21875 0 1.875 -1.046875q0.671875 -1.046875 0.671875 -2.984375q0 -2.0 -0.671875 -3.0625q-0.65625 -1.078125 -1.875 -1.078125q-1.203125 0 -1.875 1.078125q-0.65625 1.0625 -0.65625 3.0625q0 1.9375 0.65625 2.984375q0.671875 1.046875 1.875 1.046875zm8.155457 5.9687424l-1.671875 -1.578125q1.71875 -1.203125 2.546875 -2.9531174q0.84375 -1.75 0.84375 -3.75q0 -2.0 -0.84375 -3.75q-0.828125 -1.75 -2.546875 -2.953125l1.6875 -1.578125q2.28125 1.421875 3.46875 3.546875q1.203125 2.125 1.203125 4.734375q0 2.59375 -1.203125 4.7343674q-1.203125 2.125 -3.484375 3.546875z" fill-rule="nonzero"/><path fill="#669900" d="m513.22565 132.4086l0 -16.609367l5.53125 0l0 2.5625l-2.78125 0l0.109375 -0.15625l0 11.874992l-0.1875 -0.234375l2.859375 0l0 2.5625l-5.53125 0zm10.210632 -3.546875l-0.0625 -0.1875l4.078125 -8.249992l0.546875 1.125q-0.1875 0.671875 -0.609375 1.21875q-0.40625 0.53125 -0.984375 0.9375q-0.5625 0.40625 -1.171875 0.625q-0.609375 0.203125 -1.171875 0.203125q-1.0625 0 -1.96875 -0.578125q-0.890625 -0.578125 -1.4375 -1.546875q-0.53125 -0.96875 -0.53125 -2.109375q0 -1.34375 0.640625 -2.4375q0.640625 -1.09375 1.734375 -1.734375q1.109375 -0.640625 2.484375 -0.640625q1.015625 0 1.890625 0.359375q0.875 0.34375 1.53125 0.96875q0.671875 0.625 1.046875 1.453125q0.375 0.8125 0.375 1.734375q0 0.671875 -0.125 1.3125q-0.109375 0.640625 -0.359375 1.3125q-0.234375 0.671875 -0.5625 1.40625q-0.3125 0.71875 -0.75 1.578125l-1.640625 3.2499924l-2.953125 0zm1.390625 -6.8281174q0.578125 0 1.015625 -0.25q0.453125 -0.265625 0.703125 -0.703125q0.25 -0.453125 0.25 -0.984375q0 -0.578125 -0.25 -1.03125q-0.25 -0.46875 -0.6875 -0.71875q-0.4375 -0.265625 -1.015625 -0.265625q-0.5625 0 -0.984375 0.25q-0.421875 0.25 -0.671875 0.71875q-0.25 0.453125 -0.25 1.046875q0 0.5 0.25 0.9375q0.25 0.4375 0.671875 0.71875q0.4375 0.28125 0.96875 0.28125zm11.780273 7.0156174q-1.75 0 -3.0 -0.796875q-1.234375 -0.8124924 -1.890625 -2.3124924q-0.640625 -1.5 -0.640625 -3.609375q0 -2.109375 0.640625 -3.609375q0.65625 -1.5 1.890625 -2.296875q1.25 -0.8125 3.0 -0.8125q1.765625 0 3.015625 0.8125q1.25 0.796875 1.890625 2.296875q0.65625 1.5 0.65625 3.609375q0 2.109375 -0.65625 3.609375q-0.640625 1.5 -1.890625 2.3124924q-1.25 0.796875 -3.015625 0.796875zm0 -2.6874924q1.21875 0 1.875 -1.046875q0.671875 -1.046875 0.671875 -2.984375q0 -2.0 -0.671875 -3.0625q-0.65625 -1.078125 -1.875 -1.078125q-1.203125 0 -1.875 1.078125q-0.65625 1.0625 -0.65625 3.0625q0 1.9375 0.65625 2.984375q0.671875 1.046875 1.875 1.046875zm7.8898315 6.2343674l-0.84375 -1.0625q0.734375 -0.34375 1.1875 -0.859375q0.453125 -0.5 0.453125 -0.875q0 -0.171875 -0.09375 -0.375q-0.078125 -0.1875 -0.421875 -0.4375q-0.421875 -0.3125 -0.578125 -0.609375q-0.140625 -0.3125 -0.140625 -0.6874924q0 -0.578125 0.421875 -0.90625q0.421875 -0.34375 1.09375 -0.34375q0.53125 0 0.96875 0.296875q0.4375 0.296875 0.6875 0.828125q0.265625 0.5156174 0.265625 1.2031174q0 0.640625 -0.234375 1.21875q-0.21875 0.59375 -0.625 1.109375q-0.390625 0.515625 -0.953125 0.90625q-0.546875 0.390625 -1.1875 0.59375zm13.621216 -3.734375l-0.0625 -0.1875l4.078125 -8.249992l0.546875 1.125q-0.1875 0.671875 -0.609375 1.21875q-0.40625 0.53125 -0.984375 0.9375q-0.5625 0.40625 -1.171875 0.625q-0.609375 0.203125 -1.171875 0.203125q-1.0625 0 -1.96875 -0.578125q-0.890625 -0.578125 -1.4375 -1.546875q-0.53125 -0.96875 -0.53125 -2.109375q0 -1.34375 0.640625 -2.4375q0.640625 -1.09375 1.734375 -1.734375q1.109375 -0.640625 2.484375 -0.640625q1.015625 0 1.890625 0.359375q0.875 0.34375 1.53125 0.96875q0.671875 0.625 1.046875 1.453125q0.375 0.8125 0.375 1.734375q0 0.671875 -0.125 1.3125q-0.109375 0.640625 -0.359375 1.3125q-0.234375 0.671875 -0.5625 1.40625q-0.3125 0.71875 -0.75 1.578125l-1.640625 3.2499924l-2.953125 0zm1.390625 -6.8281174q0.578125 0 1.015625 -0.25q0.453125 -0.265625 0.703125 -0.703125q0.25 -0.453125 0.25 -0.984375q0 -0.578125 -0.25 -1.03125q-0.25 -0.46875 -0.6875 -0.71875q-0.4375 -0.265625 -1.015625 -0.265625q-0.5625 0 -0.984375 0.25q-0.421875 0.25 -0.671875 0.71875q-0.25 0.453125 -0.25 1.046875q0 0.5 0.25 0.9375q0.25 0.4375 0.671875 0.71875q0.4375 0.28125 0.96875 0.28125zm10.764709 6.9531174q-1.484375 0 -2.6875 -0.59375q-1.203125 -0.5937424 -1.984375 -1.7187424l1.703125 -1.859375q0.765625 0.84375 1.40625 1.15625q0.65625 0.296875 1.46875 0.296875q0.59375 0 1.0625 -0.234375q0.46875 -0.25 0.734375 -0.6875q0.265625 -0.4375 0.265625 -0.984375q0 -0.5625 -0.265625 -1.0q-0.265625 -0.4375 -0.734375 -0.6875q-0.453125 -0.265625 -1.046875 -0.265625q-0.4375 0 -0.8125 0.078125q-0.359375 0.0625 -0.78125 0.25q-0.421875 0.171875 -1.0 0.515625l-1.34375 -1.796875l0.796875 -5.765625l7.5 0l0 2.671875l-5.984375 0l0.828125 -1.046875l-0.625 4.140625l-1.109375 -0.375q0.34375 -0.3125 0.859375 -0.546875q0.515625 -0.25 1.109375 -0.40625q0.59375 -0.171875 1.203125 -0.171875q1.21875 0 2.203125 0.578125q0.984375 0.5625 1.5625 1.578125q0.578125 1.0 0.578125 2.3125q0 1.28125 -0.65625 2.328125q-0.65625 1.03125 -1.765625 1.6406174q-1.09375 0.59375 -2.484375 0.59375zm7.6972046 3.34375l-1.671875 -1.578125q1.71875 -1.203125 2.546875 -2.9531174q0.84375 -1.75 0.84375 -3.75q0 -2.0 -0.84375 -3.75q-0.828125 -1.75 -2.546875 -2.953125l1.6875 -1.578125q2.28125 1.421875 3.46875 3.546875q1.203125 2.125 1.203125 4.734375q0 2.59375 -1.203125 4.7343674q-1.203125 2.125 -3.484375 3.546875z" fill-rule="nonzero"/><path fill="#ff00ff" d="m696.7986 132.4086l0 -16.609367l5.53125 0l0 2.5625l-2.78125 0l0.109375 -0.15625l0 11.874992l-0.1875 -0.234375l2.859375 0l0 2.5625l-5.53125 0zm10.210632 -3.546875l-0.0625 -0.1875l4.078125 -8.249992l0.546875 1.125q-0.1875 0.671875 -0.609375 1.21875q-0.40625 0.53125 -0.984375 0.9375q-0.5625 0.40625 -1.171875 0.625q-0.609375 0.203125 -1.171875 0.203125q-1.0625 0 -1.96875 -0.578125q-0.890625 -0.578125 -1.4375 -1.546875q-0.53125 -0.96875 -0.53125 -2.109375q0 -1.34375 0.640625 -2.4375q0.640625 -1.09375 1.734375 -1.734375q1.109375 -0.640625 2.484375 -0.640625q1.015625 0 1.890625 0.359375q0.875 0.34375 1.53125 0.96875q0.671875 0.625 1.046875 1.453125q0.375 0.8125 0.375 1.734375q0 0.671875 -0.125 1.3125q-0.109375 0.640625 -0.359375 1.3125q-0.234375 0.671875 -0.5625 1.40625q-0.3125 0.71875 -0.75 1.578125l-1.640625 3.2499924l-2.953125 0zm1.390625 -6.8281174q0.578125 0 1.015625 -0.25q0.453125 -0.265625 0.703125 -0.703125q0.25 -0.453125 0.25 -0.984375q0 -0.578125 -0.25 -1.03125q-0.25 -0.46875 -0.6875 -0.71875q-0.4375 -0.265625 -1.015625 -0.265625q-0.5625 0 -0.984375 0.25q-0.421875 0.25 -0.671875 0.71875q-0.25 0.453125 -0.25 1.046875q0 0.5 0.25 0.9375q0.25 0.4375 0.671875 0.71875q0.4375 0.28125 0.96875 0.28125zm10.764648 6.9531174q-1.484375 0 -2.6875 -0.59375q-1.203125 -0.5937424 -1.984375 -1.7187424l1.703125 -1.859375q0.765625 0.84375 1.40625 1.15625q0.65625 0.296875 1.46875 0.296875q0.59375 0 1.0625 -0.234375q0.46875 -0.25 0.734375 -0.6875q0.265625 -0.4375 0.265625 -0.984375q0 -0.5625 -0.265625 -1.0q-0.265625 -0.4375 -0.734375 -0.6875q-0.453125 -0.265625 -1.046875 -0.265625q-0.4375 0 -0.8125 0.078125q-0.359375 0.0625 -0.78125 0.25q-0.421875 0.171875 -1.0 0.515625l-1.34375 -1.796875l0.796875 -5.765625l7.5 0l0 2.671875l-5.984375 0l0.828125 -1.046875l-0.625 4.140625l-1.109375 -0.375q0.34375 -0.3125 0.859375 -0.546875q0.515625 -0.25 1.109375 -0.40625q0.59375 -0.171875 1.203125 -0.171875q1.21875 0 2.203125 0.578125q0.984375 0.5625 1.5625 1.578125q0.578125 1.0 0.578125 2.3125q0 1.28125 -0.65625 2.328125q-0.65625 1.03125 -1.765625 1.6406174q-1.09375 0.59375 -2.484375 0.59375zm7.4316406 3.609375l-0.84375 -1.0625q0.734375 -0.34375 1.1875 -0.859375q0.453125 -0.5 0.453125 -0.875q0 -0.171875 -0.09375 -0.375q-0.078125 -0.1875 -0.421875 -0.4375q-0.421875 -0.3125 -0.578125 -0.609375q-0.140625 -0.3125 -0.140625 -0.6874924q0 -0.578125 0.421875 -0.90625q0.421875 -0.34375 1.09375 -0.34375q0.53125 0 0.96875 0.296875q0.4375 0.296875 0.6875 0.828125q0.265625 0.5156174 0.265625 1.2031174q0 0.640625 -0.234375 1.21875q-0.21875 0.59375 -0.625 1.109375q-0.390625 0.515625 -0.953125 0.90625q-0.546875 0.390625 -1.1875 0.59375zm13.683716 -4.6562424l0 -10.59375l0.6875 1.59375l-2.796875 1.328125l-0.546875 -2.84375l3.71875 -1.8125l2.046875 0l0 12.328125l-3.109375 0zm-2.390625 0.9218674l0 -2.7968674l7.953125 0l0 2.7968674l-7.953125 0zm15.2005005 0.1875q-1.75 0 -3.0 -0.796875q-1.234375 -0.8124924 -1.890625 -2.3124924q-0.640625 -1.5 -0.640625 -3.609375q0 -2.109375 0.640625 -3.609375q0.65625 -1.5 1.890625 -2.296875q1.25 -0.8125 3.0 -0.8125q1.765625 0 3.015625 0.8125q1.25 0.796875 1.890625 2.296875q0.65625 1.5 0.65625 3.609375q0 2.109375 -0.65625 3.609375q-0.640625 1.5 -1.890625 2.3124924q-1.25 0.796875 -3.015625 0.796875zm0 -2.6874924q1.21875 0 1.875 -1.046875q0.671875 -1.046875 0.671875 -2.984375q0 -2.0 -0.671875 -3.0625q-0.65625 -1.078125 -1.875 -1.078125q-1.203125 0 -1.875 1.078125q-0.65625 1.0625 -0.65625 3.0625q0 1.9375 0.65625 2.984375q0.671875 1.046875 1.875 1.046875zm12.592957 2.6874924q-1.75 0 -3.0 -0.796875q-1.234375 -0.8124924 -1.890625 -2.3124924q-0.640625 -1.5 -0.640625 -3.609375q0 -2.109375 0.640625 -3.609375q0.65625 -1.5 1.890625 -2.296875q1.25 -0.8125 3.0 -0.8125q1.765625 0 3.015625 0.8125q1.25 0.796875 1.890625 2.296875q0.65625 1.5 0.65625 3.609375q0 2.109375 -0.65625 3.609375q-0.640625 1.5 -1.890625 2.3124924q-1.25 0.796875 -3.015625 0.796875zm0 -2.6874924q1.21875 0 1.875 -1.046875q0.671875 -1.046875 0.671875 -2.984375q0 -2.0 -0.671875 -3.0625q-0.65625 -1.078125 -1.875 -1.078125q-1.203125 0 -1.875 1.078125q-0.65625 1.0625 -0.65625 3.0625q0 1.9375 0.65625 2.984375q0.671875 1.046875 1.875 1.046875zm7.0930176 6.0468674l0 -2.5625l2.796875 0l-0.109375 0.15625l0 -11.874992l0.1875 0.234375l-2.875 0l0 -2.5625l5.5625 0l0 16.609367l-5.5625 0z" fill-rule="nonzero"/><path fill="#000000" d="m166.94711 169.53566l0 -10.59375l0.6875 0.53125l-2.5625 1.359375l-0.546875 -1.75l3.484375 -1.875l0.96875 0l0 12.328125l-2.03125 0zm-2.0625 0.921875l0 -1.9375l6.21875 0l0 1.9375l-6.21875 0z" fill-rule="nonzero"/><path fill="#000000" d="m357.0628 170.58253q-1.296875 0 -2.34375 -0.578125q-1.03125 -0.59375 -1.71875 -1.6875l1.109375 -1.25q0.875 0.96875 1.53125 1.328125q0.65625 0.34375 1.421875 0.34375q0.765625 0 1.375 -0.328125q0.625 -0.34375 0.984375 -0.921875q0.359375 -0.578125 0.359375 -1.28125q0 -0.75 -0.34375 -1.328125q-0.34375 -0.59375 -0.921875 -0.9375q-0.578125 -0.34375 -1.3125 -0.34375q-0.34375 0 -0.671875 0.046875q-0.3125 0.046875 -0.765625 0.21875q-0.4375 0.15625 -1.171875 0.515625l-1.0625 -1.4375l0.765625 -5.546875l7.046875 0l0 1.875l-5.78125 0l0.390625 -0.359375l-0.609375 4.140625l-0.46875 -0.546875q0.1875 -0.1875 0.625 -0.359375q0.453125 -0.171875 1.0 -0.296875q0.5625 -0.125 1.0625 -0.125q1.203125 0 2.140625 0.5625q0.9375 0.546875 1.484375 1.515625q0.5625 0.96875 0.5625 2.21875q0 1.28125 -0.625 2.328125q-0.609375 1.03125 -1.671875 1.640625q-1.0625 0.59375 -2.390625 0.59375z" fill-rule="nonzero"/><path fill="#000000" d="m547.0628 170.58253q-1.296875 0 -2.34375 -0.578125q-1.03125 -0.59375 -1.71875 -1.6875l1.109375 -1.25q0.875 0.96875 1.53125 1.328125q0.65625 0.34375 1.421875 0.34375q0.765625 0 1.375 -0.328125q0.625 -0.34375 0.984375 -0.921875q0.359375 -0.578125 0.359375 -1.28125q0 -0.75 -0.34375 -1.328125q-0.34375 -0.59375 -0.921875 -0.9375q-0.578125 -0.34375 -1.3125 -0.34375q-0.34375 0 -0.671875 0.046875q-0.3125 0.046875 -0.765625 0.21875q-0.4375 0.15625 -1.171875 0.515625l-1.0625 -1.4375l0.765625 -5.546875l7.046875 0l0 1.875l-5.78125 0l0.390625 -0.359375l-0.609375 4.140625l-0.46875 -0.546875q0.1875 -0.1875 0.625 -0.359375q0.453125 -0.171875 1.0 -0.296875q0.5625 -0.125 1.0625 -0.125q1.203125 0 2.140625 0.5625q0.9375 0.546875 1.484375 1.515625q0.5625 0.96875 0.5625 2.21875q0 1.28125 -0.625 2.328125q-0.609375 1.03125 -1.671875 1.640625q-1.0625 0.59375 -2.390625 0.59375z" fill-rule="nonzero"/><path fill="#000000" d="m737.0628 170.58253q-1.296875 0 -2.34375 -0.578125q-1.03125 -0.59375 -1.71875 -1.6875l1.109375 -1.25q0.875 0.96875 1.53125 1.328125q0.65625 0.34375 1.421875 0.34375q0.765625 0 1.375 -0.328125q0.625 -0.34375 0.984375 -0.921875q0.359375 -0.578125 0.359375 -1.28125q0 -0.75 -0.34375 -1.328125q-0.34375 -0.59375 -0.921875 -0.9375q-0.578125 -0.34375 -1.3125 -0.34375q-0.34375 0 -0.671875 0.046875q-0.3125 0.046875 -0.765625 0.21875q-0.4375 0.15625 -1.171875 0.515625l-1.0625 -1.4375l0.765625 -5.546875l7.046875 0l0 1.875l-5.78125 0l0.390625 -0.359375l-0.609375 4.140625l-0.46875 -0.546875q0.1875 -0.1875 0.625 -0.359375q0.453125 -0.171875 1.0 -0.296875q0.5625 -0.125 1.0625 -0.125q1.203125 0 2.140625 0.5625q0.9375 0.546875 1.484375 1.515625q0.5625 0.96875 0.5625 2.21875q0 1.28125 -0.625 2.328125q-0.609375 1.03125 -1.671875 1.640625q-1.0625 0.59375 -2.390625 0.59375z" fill-rule="nonzero"/></g></svg>