<svg version="1.1" viewBox="0.0 0.0 897.6167979002624 172.02099737532808" fill="none" stroke="none" stroke-linecap="square" stroke-miterlimit="10" xmlns:xlink="http://www.w3.org/1999/xlink" xmlns="http://www.w3.org/2000/svg"><clipPath id="p.0"><path d="m0 0l897.6168 0l0 172.021l-897.6168 0l0 -172.021z" clip-rule="nonzero"/></clipPath><g clip-path="url(#p.0)"><path fill="#000000" fill-opacity="0.0" d="m0 0l897.6168 0l0 172.021l-897.6168 0z" fill-rule="evenodd"/><path fill="#000000" fill-opacity="0.0" d="m507.88715 147.94489l0 -23.275597" fill-rule="evenodd"/><path stroke="#595959" stroke-width="1.0" stroke-linejoin="round" stroke-linecap="butt" d="m507.88715 147.94489l0 -23.275597" fill-rule="evenodd"/><path fill="#000000" fill-opacity="0.0" d="m507.88715 124.66929l-11.338593 0" fill-rule="evenodd"/><path stroke="#595959" stroke-width="1.0" stroke-linejoin="round" stroke-linecap="butt" d="m507.88715 124.66929l-11.338593 0" fill-rule="evenodd"/><path fill="#000000" fill-opacity="0.0" d="m507.88715 124.66929l0 -23.275589" fill-rule="evenodd"/><path stroke="#595959" stroke-width="1.0" stroke-linejoin="round" stroke-linecap="butt" d="m507.88715 124.66929l0 -23.275589" fill-rule="evenodd"/><path fill="#000000" fill-opacity="0.0" d="m507.88715 101.3937l-11.338593 0" fill-rule="evenodd"/><path stroke="#595959" stroke-width="1.0" stroke-linejoin="round" stroke-linecap="butt" d="m507.88715 101.3937l-11.338593 0" fill-rule="evenodd"/><path fill="#000000" fill-opacity="0.0" d="m507.88715 101.3937l0 -23.275589" fill-rule="evenodd"/><path stroke="#595959" stroke-width="1.0" stroke-linejoin="round" stroke-linecap="butt" d="m507.88715 101.3937l0 -23.275589" fill-rule="evenodd"/><path fill="#000000" fill-opacity="0.0" d="m507.88715 78.11811l-11.338593 0" fill-rule="evenodd"/><path stroke="#595959" stroke-width="1.0" stroke-linejoin="round" stroke-linecap="butt" d="m507.88715 78.11811l-11.338593 0" fill-rule="evenodd"/><path fill="#000000" fill-opacity="0.0" d="m507.88715 78.11811l0 -23.275593" fill-rule="evenodd"/><path stroke="#595959" stroke-width="1.0" stroke-linejoin="round" stroke-linecap="butt" d="m507.88715 78.11811l0 -23.275593" fill-rule="evenodd"/><path fill="#000000" fill-opacity="0.0" d="m507.88715 54.842518l-11.338593 0" fill-rule="evenodd"/><path stroke="#595959" stroke-width="1.0" stroke-linejoin="round" stroke-linecap="butt" d="m507.88715 54.842518l-11.338593 0" fill-rule="evenodd"/><path fill="#000000" fill-opacity="0.0" d="m507.88715 55.40814l0 -23.275593" fill-rule="evenodd"/><path stroke="#595959" stroke-width="1.0" stroke-linejoin="round" stroke-linecap="butt" d="m507.88715 55.40814l0 -23.275593" fill-rule="evenodd"/><path fill="#000000" fill-opacity="0.0" d="m507.88715 32.132545l-11.338593 0" fill-rule="evenodd"/><path stroke="#595959" stroke-width="1.0" stroke-linejoin="round" stroke-linecap="butt" d="m507.88715 32.132545l-11.338593 0" fill-rule="evenodd"/><path fill="#000000" fill-opacity="0.0" d="m507.88715 32.132545l0 -23.275589" fill-rule="evenodd"/><path stroke="#595959" stroke-width="1.0" stroke-linejoin="round" stroke-linecap="butt" d="m507.88715 32.132545l0 -23.275589" fill-rule="evenodd"/><path fill="#000000" fill-opacity="0.0" d="m459.44095 100.74803l27.590546 0l0 42.015747l-27.590546 0z" fill-rule="evenodd"/><path fill="#595959" d="m472.48782 126.746155l0 -10.59375l0.6875 0.53125l-2.5625 1.359375l-0.546875 -1.75l3.484375 -1.875l0.96875 0l0 12.328125l-2.03125 0zm-2.0625 0.921875l0 -1.9375l6.21875 0l0 1.9375l-6.21875 0z" fill-rule="nonzero"/><path fill="#000000" fill-opacity="0.0" d="m459.44095 78.76378l27.590546 0l0 42.015747l-27.590546 0z" fill-rule="evenodd"/><path fill="#595959" d="m470.17532 105.68378l-0.609375 -1.53125l3.984375 -4.5q0.3125 -0.328125 0.65625 -0.765625q0.359375 -0.4375 0.671875 -0.90625q0.3125 -0.46875 0.5 -0.921875q0.203125 -0.453125 0.203125 -0.875q0 -0.59375 -0.234375 -1.015625q-0.234375 -0.421875 -0.671875 -0.640625q-0.4375 -0.21875 -1.046875 -0.21875q-0.546875 0 -1.078125 0.3125q-0.515625 0.3125 -0.9375 0.890625q-0.421875 0.578125 -0.671875 1.34375l-1.546875 -0.96875q0.3125 -1.078125 0.953125 -1.84375q0.65625 -0.78125 1.546875 -1.1875q0.90625 -0.421875 1.96875 -0.421875q1.109375 0 1.96875 0.46875q0.859375 0.453125 1.34375 1.265625q0.484375 0.8125 0.484375 1.875q0 0.421875 -0.09375 0.875q-0.09375 0.4375 -0.296875 0.921875q-0.203125 0.46875 -0.53125 0.984375q-0.3125 0.515625 -0.75 1.078125q-0.4375 0.5625 -1.0 1.171875l-2.96875 3.234375l-0.375 -0.5625l6.421875 0l0 1.9375l-7.890625 0z" fill-rule="nonzero"/><path fill="#000000" fill-opacity="0.0" d="m459.44095 55.48819l27.590546 0l0 42.015747l-27.590546 0z" fill-rule="evenodd"/><path fill="#595959" d="m473.12845 82.59569q-1.390625 0 -2.40625 -0.625q-1.015625 -0.640625 -1.90625 -2.140625l1.5625 -0.984375q0.46875 0.6875 0.921875 1.125q0.46875 0.4375 0.953125 0.65625q0.484375 0.203125 1.015625 0.203125q0.65625 0 1.21875 -0.328125q0.5625 -0.328125 0.890625 -0.90625q0.34375 -0.578125 0.34375 -1.3125q0 -0.71875 -0.265625 -1.234375q-0.265625 -0.515625 -0.765625 -0.78125q-0.5 -0.28125 -1.1875 -0.28125q-0.328125 0 -0.671875 0.078125q-0.34375 0.0625 -0.734375 0.1875q-0.390625 0.109375 -0.859375 0.296875l-0.5625 -1.46875l4.03125 -4.4375l0.390625 0.578125l-5.5625 0l0 -1.875l7.484375 0l0.375 0.75l-4.265625 4.734375l-0.46875 -0.484375q0.140625 -0.078125 0.484375 -0.140625q0.359375 -0.0625 0.578125 -0.0625q0.8125 0 1.53125 0.3125q0.71875 0.296875 1.25 0.859375q0.53125 0.546875 0.84375 1.28125q0.3125 0.734375 0.3125 1.578125q0 1.265625 -0.609375 2.265625q-0.609375 1.0 -1.640625 1.578125q-1.015625 0.578125 -2.28125 0.578125z" fill-rule="nonzero"/><path fill="#000000" fill-opacity="0.0" d="m459.44095 32.212597l27.590546 0l0 42.01575l-27.590546 0z" fill-rule="evenodd"/><path fill="#595959" d="m475.00345 59.132595l0 -10.515625l0.46875 0.109375l-4.28125 5.234375l-0.078125 -0.21875l8.109375 0l0 1.84375l-9.359375 0l-0.859375 -1.671875l6.390625 -7.84375l1.546875 0l0 13.0625l-1.9375 0z" fill-rule="nonzero"/><path fill="#000000" fill-opacity="0.0" d="m459.44095 10.228347l27.590546 0l0 42.015747l-27.590546 0z" fill-rule="evenodd"/><path fill="#595959" d="m473.23782 37.273346q-1.296875 0 -2.34375 -0.578125q-1.03125 -0.59375 -1.71875 -1.6875l1.109375 -1.25q0.875 0.96875 1.53125 1.328125q0.65625 0.34375 1.421875 0.34375q0.765625 0 1.375 -0.328125q0.625 -0.34375 0.984375 -0.921875q0.359375 -0.578125 0.359375 -1.28125q0 -0.75 -0.34375 -1.3281269q-0.34375 -0.59375 -0.921875 -0.9375q-0.578125 -0.34375 -1.3125 -0.34375q-0.34375 0 -0.671875 0.046875q-0.3125 0.046875 -0.765625 0.21875q-0.4375 0.15625 -1.171875 0.515625l-1.0625 -1.4375l0.765625 -5.546875l7.046875 0l0 1.875l-5.78125 0l0.390625 -0.359375l-0.609375 4.140625l-0.46875 -0.546875q0.1875 -0.1875 0.625 -0.359375q0.453125 -0.171875 1.0 -0.296875q0.5625 -0.125 1.0625 -0.125q1.203125 0 2.140625 0.5625q0.9375 0.546875 1.484375 1.515625q0.5625 0.96875 0.5625 2.218752q0 1.28125 -0.625 2.328125q-0.609375 1.03125 -1.671875 1.640625q-1.0625 0.59375 -2.390625 0.59375z" fill-rule="nonzero"/><path fill="#000000" fill-opacity="0.0" d="m507.88715 147.94489l377.13385 0" fill-rule="evenodd"/><path stroke="#595959" stroke-width="1.0" stroke-linejoin="round" stroke-linecap="butt" d="m507.88715 147.94489l377.13385 0" fill-rule="evenodd"/><path fill="#000000" fill-opacity="0.0" d="m669.41864 147.94489l0 7.1811066" fill-rule="evenodd"/><path stroke="#595959" stroke-width="1.0" stroke-linejoin="round" stroke-linecap="butt" d="m669.41864 147.94489l0 7.1811066" fill-rule="evenodd"/><path fill="#000000" fill-opacity="0.0" d="m702.53284 148.13387l0 7.1810913" fill-rule="evenodd"/><path stroke="#595959" stroke-width="1.0" stroke-linejoin="round" stroke-linecap="butt" d="m702.53284 148.13387l0 7.1810913" fill-rule="evenodd"/><path fill="#000000" fill-opacity="0.0" d="m768.6916 147.94489l0 7.1811066" fill-rule="evenodd"/><path stroke="#595959" stroke-width="1.0" stroke-linejoin="round" stroke-linecap="butt" d="m768.6916 147.94489l0 7.1811066" fill-rule="evenodd"/><path fill="#000000" fill-opacity="0.0" d="m857.17847 148.14961l0 7.1810913" fill-rule="evenodd"/><path stroke="#595959" stroke-width="1.0" stroke-linejoin="round" stroke-linecap="butt" d="m857.17847 148.14961l0 7.1810913" fill-rule="evenodd"/><path fill="#000000" fill-opacity="0.0" d="m603.15356 147.94489l0 7.1811066" fill-rule="evenodd"/><path stroke="#595959" stroke-width="1.0" stroke-linejoin="round" stroke-linecap="butt" d="m603.15356 147.94489l0 7.1811066" fill-rule="evenodd"/><path fill="#000000" fill-opacity="0.0" d="m614.4816 155.31496l40.440918 0l0 22.897644l-40.440918 0z" fill-rule="evenodd"/><path fill="#595959" d="m628.1066 172.57065q-1.046875 0 -1.90625 -0.4375q-0.84375 -0.4375 -1.359375 -1.171875q-0.515625 -0.734375 -0.515625 -1.640625q0 -0.5 0.140625 -0.9375q0.140625 -0.4375 0.421875 -0.796875q0.28125 -0.375 0.671875 -0.671875q0.40625 -0.3125 0.9375 -0.546875l-0.109375 0.328125q-0.40625 -0.15625 -0.734375 -0.390625q-0.328125 -0.234375 -0.578125 -0.53125q-0.234375 -0.3125 -0.359375 -0.65625q-0.109375 -0.359375 -0.109375 -0.734375q0 -0.84375 0.46875 -1.53125q0.46875 -0.703125 1.25 -1.109375q0.796875 -0.421875 1.78125 -0.421875q0.96875 0 1.765625 0.421875q0.796875 0.40625 1.265625 1.109375q0.46875 0.6875 0.46875 1.53125q0 0.375 -0.125 0.734375q-0.109375 0.34375 -0.34375 0.640625q-0.21875 0.28125 -0.5625 0.53125q-0.34375 0.234375 -0.78125 0.40625l-0.046875 -0.265625q0.484375 0.1875 0.875 0.5q0.390625 0.296875 0.671875 0.6875q0.296875 0.375 0.453125 0.8125q0.15625 0.4375 0.15625 0.890625q0 0.921875 -0.515625 1.65625q-0.515625 0.734375 -1.375 1.171875q-0.84375 0.421875 -1.90625 0.421875zm0 -1.59375q0.59375 0 1.0625 -0.21875q0.46875 -0.234375 0.734375 -0.609375q0.28125 -0.390625 0.28125 -0.890625q0 -0.53125 -0.28125 -0.9375q-0.265625 -0.40625 -0.734375 -0.640625q-0.46875 -0.25 -1.0625 -0.25q-0.59375 0 -1.0625 0.25q-0.453125 0.234375 -0.734375 0.640625q-0.265625 0.40625 -0.265625 0.9375q0 0.484375 0.265625 0.875q0.28125 0.375 0.734375 0.609375q0.46875 0.234375 1.0625 0.234375zm0 -5.078125q0.515625 0 0.921875 -0.1875q0.40625 -0.203125 0.640625 -0.515625q0.234375 -0.328125 0.234375 -0.765625q0 -0.4375 -0.234375 -0.765625q-0.234375 -0.34375 -0.640625 -0.53125q-0.40625 -0.203125 -0.921875 -0.203125q-0.515625 0 -0.921875 0.203125q-0.40625 0.1875 -0.640625 0.53125q-0.234375 0.328125 -0.234375 0.765625q0 0.4375 0.234375 0.765625q0.234375 0.3125 0.640625 0.515625q0.40625 0.1875 0.921875 0.1875zm9.170288 6.625q-0.828125 0 -1.546875 -0.296875q-0.71875 -0.296875 -1.234375 -0.8125q-0.515625 -0.53125 -0.8125 -1.25q-0.296875 -0.734375 -0.296875 -1.59375q0 -0.4375 0.109375 -0.96875q0.125 -0.53125 0.375 -1.171875q0.25 -0.640625 0.59375 -1.34375q0.359375 -0.71875 0.828125 -1.484375l1.453125 -2.46875l1.6875 0l0.0625 0.15625l-1.765625 2.96875q-0.484375 0.8125 -0.859375 1.546875q-0.375 0.734375 -0.640625 1.390625q-0.25 0.640625 -0.375 1.171875l-0.375 -1.65625q0.296875 -0.484375 0.640625 -0.859375q0.359375 -0.390625 0.765625 -0.640625q0.40625 -0.25 0.859375 -0.375q0.453125 -0.140625 0.921875 -0.140625q0.9375 0 1.703125 0.515625q0.78125 0.5 1.25 1.328125q0.484375 0.828125 0.484375 1.828125q0 1.203125 -0.5 2.140625q-0.484375 0.921875 -1.359375 1.46875q-0.859375 0.546875 -1.96875 0.546875zm0 -1.59375q0.625 0 1.109375 -0.296875q0.484375 -0.296875 0.765625 -0.828125q0.28125 -0.546875 0.28125 -1.234375q0 -0.59375 -0.296875 -1.109375q-0.28125 -0.515625 -0.765625 -0.828125q-0.46875 -0.328125 -1.0625 -0.328125q-0.65625 0 -1.171875 0.3125q-0.515625 0.296875 -0.8125 0.8125q-0.28125 0.5 -0.28125 1.125q0 0.671875 0.28125 1.21875q0.296875 0.53125 0.796875 0.84375q0.5 0.3125 1.15625 0.3125z" fill-rule="nonzero"/><path fill="#000000" fill-opacity="0.0" d="m682.3123 155.50394l40.44098 0l0 22.897644l-40.44098 0z" fill-rule="evenodd"/><path fill="#595959" d="m696.9094 172.71275l-0.0625 -0.15625l3.328125 -7.078125l0.046875 1.328125q-0.28125 0.484375 -0.625 0.859375q-0.34375 0.359375 -0.75 0.625q-0.40625 0.265625 -0.84375 0.40625q-0.4375 0.125 -0.875 0.125q-0.921875 0 -1.6875 -0.46875q-0.765625 -0.484375 -1.234375 -1.28125q-0.453125 -0.8125 -0.453125 -1.75q0 -1.140625 0.5 -2.046875q0.515625 -0.90625 1.40625 -1.421875q0.890625 -0.53125 2.0 -0.53125q0.796875 0 1.5 0.296875q0.703125 0.28125 1.21875 0.796875q0.53125 0.515625 0.828125 1.203125q0.3125 0.671875 0.3125 1.453125q0 0.390625 -0.078125 0.84375q-0.078125 0.453125 -0.265625 1.03125q-0.171875 0.5625 -0.484375 1.296875q-0.296875 0.71875 -0.75 1.6875l-1.328125 2.78125l-1.703125 0zm0.578125 -5.484375q0.625 0 1.125 -0.28125q0.5 -0.28125 0.78125 -0.75q0.28125 -0.46875 0.28125 -1.0625q0 -0.625 -0.28125 -1.125q-0.265625 -0.515625 -0.765625 -0.796875q-0.484375 -0.296875 -1.109375 -0.296875q-0.5625 0 -1.015625 0.28125q-0.453125 0.28125 -0.71875 0.78125q-0.265625 0.484375 -0.265625 1.140625q0 0.546875 0.265625 1.03125q0.265625 0.484375 0.71875 0.78125q0.453125 0.296875 0.984375 0.296875zm9.44104 5.640625q-1.28125 0 -2.203125 -0.703125q-0.90625 -0.703125 -1.40625 -1.984375q-0.5 -1.296875 -0.5 -3.0625q0 -1.78125 0.5 -3.0625q0.5 -1.296875 1.40625 -2.0q0.921875 -0.703125 2.203125 -0.703125q1.28125 0 2.203125 0.703125q0.9375 0.703125 1.421875 2.0q0.5 1.28125 0.5 3.0625q0 1.765625 -0.5 3.0625q-0.484375 1.28125 -1.421875 1.984375q-0.921875 0.703125 -2.203125 0.703125zm0 -1.5625q1.171875 0 1.8125 -1.09375q0.640625 -1.09375 0.640625 -3.09375q0 -2.0 -0.640625 -3.09375q-0.640625 -1.109375 -1.8125 -1.109375q-1.15625 0 -1.796875 1.109375q-0.640625 1.09375 -0.640625 3.09375q0 2.0 0.640625 3.09375q0.640625 1.09375 1.796875 1.09375z" fill-rule="nonzero"/><path fill="#000000" fill-opacity="0.0" d="m748.4711 155.3307l40.440918 0l0 22.897644l-40.440918 0z" fill-rule="evenodd"/><path fill="#595959" d="m762.96423 172.53952l-0.0625 -0.15625l3.328125 -7.078125l0.046875 1.328125q-0.28125 0.484375 -0.625 0.859375q-0.34375 0.359375 -0.75 0.625q-0.40625 0.265625 -0.84375 0.40625q-0.4375 0.125 -0.875 0.125q-0.921875 0 -1.6875 -0.46875q-0.765625 -0.484375 -1.234375 -1.28125q-0.453125 -0.8125 -0.453125 -1.75q0 -1.140625 0.5 -2.046875q0.515625 -0.90625 1.40625 -1.421875q0.890625 -0.53125 2.0 -0.53125q0.796875 0 1.5 0.296875q0.703125 0.28125 1.21875 0.796875q0.53125 0.515625 0.828125 1.203125q0.3125 0.671875 0.3125 1.453125q0 0.390625 -0.078125 0.84375q-0.078125 0.453125 -0.265625 1.03125q-0.171875 0.5625 -0.484375 1.296875q-0.296875 0.71875 -0.75 1.6875l-1.328125 2.78125l-1.703125 0zm0.578125 -5.484375q0.625 0 1.125 -0.28125q0.5 -0.28125 0.78125 -0.75q0.28125 -0.46875 0.28125 -1.0625q0 -0.625 -0.28125 -1.125q-0.265625 -0.515625 -0.765625 -0.796875q-0.484375 -0.296875 -1.109375 -0.296875q-0.5625 0 -1.015625 0.28125q-0.453125 0.28125 -0.71875 0.78125q-0.265625 0.484375 -0.265625 1.140625q0 0.546875 0.265625 1.03125q0.265625 0.484375 0.71875 0.78125q0.453125 0.296875 0.984375 0.296875zm10.222229 5.484375l0 -9.03125l0.40625 0.109375l-3.671875 4.484375l-0.078125 -0.1875l6.96875 0l0 1.578125l-8.03125 0l-0.734375 -1.4375l5.484375 -6.71875l1.328125 0l0 11.203125l-1.671875 0z" fill-rule="nonzero"/><path fill="#000000" fill-opacity="0.0" d="m831.4147 155.53543l51.527588 0l0 22.897644l-51.527588 0z" fill-rule="evenodd"/><path fill="#595959" d="m846.9352 171.963l0 -9.09375l0.59375 0.453125l-2.203125 1.171875l-0.46875 -1.515625l3.0 -1.59375l0.828125 0l0 10.578125l-1.75 0zm-1.765625 0.78125l0 -1.65625l5.34375 0l0 1.65625l-5.34375 0zm11.140686 0.15625q-1.28125 0 -2.203125 -0.703125q-0.90625 -0.703125 -1.40625 -1.984375q-0.5 -1.296875 -0.5 -3.0625q0 -1.78125 0.5 -3.0625q0.5 -1.296875 1.40625 -2.0q0.921875 -0.703125 2.203125 -0.703125q1.28125 0 2.203125 0.703125q0.9375 0.703125 1.421875 2.0q0.5 1.28125 0.5 3.0625q0 1.765625 -0.5 3.0625q-0.484375 1.28125 -1.421875 1.984375q-0.921875 0.703125 -2.203125 0.703125zm0 -1.5625q1.171875 0 1.8125 -1.09375q0.640625 -1.09375 0.640625 -3.09375q0 -2.0 -0.640625 -3.09375q-0.640625 -1.109375 -1.8125 -1.109375q-1.15625 0 -1.796875 1.109375q-0.640625 1.09375 -0.640625 3.09375q0 2.0 0.640625 3.09375q0.640625 1.09375 1.796875 1.09375zm9.711975 1.5625q-1.28125 0 -2.203125 -0.703125q-0.90625 -0.703125 -1.40625 -1.984375q-0.5 -1.296875 -0.5 -3.0625q0 -1.78125 0.5 -3.0625q0.5 -1.296875 1.40625 -2.0q0.921875 -0.703125 2.203125 -0.703125q1.28125 0 2.203125 0.703125q0.9375 0.703125 1.421875 2.0q0.5 1.28125 0.5 3.0625q0 1.765625 -0.5 3.0625q-0.484375 1.28125 -1.421875 1.984375q-0.921875 0.703125 -2.203125 0.703125zm0 -1.5625q1.171875 0 1.8125 -1.09375q0.640625 -1.09375 0.640625 -3.09375q0 -2.0 -0.640625 -3.09375q-0.640625 -1.109375 -1.8125 -1.109375q-1.15625 0 -1.796875 1.109375q-0.640625 1.09375 -0.640625 3.09375q0 2.0 0.640625 3.09375q0.640625 1.09375 1.796875 1.09375z" fill-rule="nonzero"/><path fill="#000000" fill-opacity="0.0" d="m634.7021 147.94489l0 7.1811066" fill-rule="evenodd"/><path stroke="#595959" stroke-width="1.0" stroke-linejoin="round" stroke-linecap="butt" d="m634.7021 147.94489l0 7.1811066" fill-rule="evenodd"/><path fill="#000000" fill-opacity="0.0" d="m582.93304 155.31496l40.44098 0l0 22.897644l-40.44098 0z" fill-rule="evenodd"/><path fill="#595959" d="m596.55804 172.57065q-1.046875 0 -1.90625 -0.4375q-0.84375 -0.4375 -1.359375 -1.171875q-0.515625 -0.734375 -0.515625 -1.640625q0 -0.5 0.140625 -0.9375q0.140625 -0.4375 0.421875 -0.796875q0.28125 -0.375 0.671875 -0.671875q0.40625 -0.3125 0.9375 -0.546875l-0.109375 0.328125q-0.40625 -0.15625 -0.734375 -0.390625q-0.328125 -0.234375 -0.578125 -0.53125q-0.234375 -0.3125 -0.359375 -0.65625q-0.109375 -0.359375 -0.109375 -0.734375q0 -0.84375 0.46875 -1.53125q0.46875 -0.703125 1.25 -1.109375q0.796875 -0.421875 1.78125 -0.421875q0.96875 0 1.765625 0.421875q0.796875 0.40625 1.265625 1.109375q0.46875 0.6875 0.46875 1.53125q0 0.375 -0.125 0.734375q-0.109375 0.34375 -0.34375 0.640625q-0.21875 0.28125 -0.5625 0.53125q-0.34375 0.234375 -0.78125 0.40625l-0.046875 -0.265625q0.484375 0.1875 0.875 0.5q0.390625 0.296875 0.671875 0.6875q0.296875 0.375 0.453125 0.8125q0.15625 0.4375 0.15625 0.890625q0 0.921875 -0.515625 1.65625q-0.515625 0.734375 -1.375 1.171875q-0.84375 0.421875 -1.90625 0.421875zm0 -1.59375q0.59375 0 1.0625 -0.21875q0.46875 -0.234375 0.734375 -0.609375q0.28125 -0.390625 0.28125 -0.890625q0 -0.53125 -0.28125 -0.9375q-0.265625 -0.40625 -0.734375 -0.640625q-0.46875 -0.25 -1.0625 -0.25q-0.59375 0 -1.0625 0.25q-0.453125 0.234375 -0.734375 0.640625q-0.265625 0.40625 -0.265625 0.9375q0 0.484375 0.265625 0.875q0.28125 0.375 0.734375 0.609375q0.46875 0.234375 1.0625 0.234375zm0 -5.078125q0.515625 0 0.921875 -0.1875q0.40625 -0.203125 0.640625 -0.515625q0.234375 -0.328125 0.234375 -0.765625q0 -0.4375 -0.234375 -0.765625q-0.234375 -0.34375 -0.640625 -0.53125q-0.40625 -0.203125 -0.921875 -0.203125q-0.515625 0 -0.921875 0.203125q-0.40625 0.1875 -0.640625 0.53125q-0.234375 0.328125 -0.234375 0.765625q0 0.4375 0.234375 0.765625q0.234375 0.3125 0.640625 0.515625q0.40625 0.1875 0.921875 0.1875zm10.264038 6.625l0 -9.03125l0.40625 0.109375l-3.671875 4.484375l-0.078125 -0.1875l6.96875 0l0 1.578125l-8.03125 0l-0.734375 -1.4375l5.484375 -6.71875l1.328125 0l0 11.203125l-1.671875 0z" fill-rule="nonzero"/><path fill="#000000" fill-opacity="0.0" d="m649.5735 155.31496l40.44098 0l0 22.897644l-40.44098 0z" fill-rule="evenodd"/><path fill="#595959" d="m663.1985 172.57065q-1.046875 0 -1.90625 -0.4375q-0.84375 -0.4375 -1.359375 -1.171875q-0.515625 -0.734375 -0.515625 -1.640625q0 -0.5 0.140625 -0.9375q0.140625 -0.4375 0.421875 -0.796875q0.28125 -0.375 0.671875 -0.671875q0.40625 -0.3125 0.9375 -0.546875l-0.109375 0.328125q-0.40625 -0.15625 -0.734375 -0.390625q-0.328125 -0.234375 -0.578125 -0.53125q-0.234375 -0.3125 -0.359375 -0.65625q-0.109375 -0.359375 -0.109375 -0.734375q0 -0.84375 0.46875 -1.53125q0.46875 -0.703125 1.25 -1.109375q0.796875 -0.421875 1.78125 -0.421875q0.96875 0 1.765625 0.421875q0.796875 0.40625 1.265625 1.109375q0.46875 0.6875 0.46875 1.53125q0 0.375 -0.125 0.734375q-0.109375 0.34375 -0.34375 0.640625q-0.21875 0.28125 -0.5625 0.53125q-0.34375 0.234375 -0.78125 0.40625l-0.046875 -0.265625q0.484375 0.1875 0.875 0.5q0.390625 0.296875 0.671875 0.6875q0.296875 0.375 0.453125 0.8125q0.15625 0.4375 0.15625 0.890625q0 0.921875 -0.515625 1.65625q-0.515625 0.734375 -1.375 1.171875q-0.84375 0.421875 -1.90625 0.421875zm0 -1.59375q0.59375 0 1.0625 -0.21875q0.46875 -0.234375 0.734375 -0.609375q0.28125 -0.390625 0.28125 -0.890625q0 -0.53125 -0.28125 -0.9375q-0.265625 -0.40625 -0.734375 -0.640625q-0.46875 -0.25 -1.0625 -0.25q-0.59375 0 -1.0625 0.25q-0.453125 0.234375 -0.734375 0.640625q-0.265625 0.40625 -0.265625 0.9375q0 0.484375 0.265625 0.875q0.28125 0.375 0.734375 0.609375q0.46875 0.234375 1.0625 0.234375zm0 -5.078125q0.515625 0 0.921875 -0.1875q0.40625 -0.203125 0.640625 -0.515625q0.234375 -0.328125 0.234375 -0.765625q0 -0.4375 -0.234375 -0.765625q-0.234375 -0.34375 -0.640625 -0.53125q-0.40625 -0.203125 -0.921875 -0.203125q-0.515625 0 -0.921875 0.203125q-0.40625 0.1875 -0.640625 0.53125q-0.234375 0.328125 -0.234375 0.765625q0 0.4375 0.234375 0.765625q0.234375 0.3125 0.640625 0.515625q0.40625 0.1875 0.921875 0.1875zm9.264038 6.671875q-1.046875 0 -1.90625 -0.4375q-0.84375 -0.4375 -1.359375 -1.171875q-0.515625 -0.734375 -0.515625 -1.640625q0 -0.5 0.140625 -0.9375q0.140625 -0.4375 0.421875 -0.796875q0.28125 -0.375 0.671875 -0.671875q0.40625 -0.3125 0.9375 -0.546875l-0.109375 0.328125q-0.40625 -0.15625 -0.734375 -0.390625q-0.328125 -0.234375 -0.578125 -0.53125q-0.234375 -0.3125 -0.359375 -0.65625q-0.109375 -0.359375 -0.109375 -0.734375q0 -0.84375 0.46875 -1.53125q0.46875 -0.703125 1.25 -1.109375q0.796875 -0.421875 1.78125 -0.421875q0.96875 0 1.765625 0.421875q0.796875 0.40625 1.265625 1.109375q0.46875 0.6875 0.46875 1.53125q0 0.375 -0.125 0.734375q-0.109375 0.34375 -0.34375 0.640625q-0.21875 0.28125 -0.5625 0.53125q-0.34375 0.234375 -0.78125 0.40625l-0.046875 -0.265625q0.484375 0.1875 0.875 0.5q0.390625 0.296875 0.671875 0.6875q0.296875 0.375 0.453125 0.8125q0.15625 0.4375 0.15625 0.890625q0 0.921875 -0.515625 1.65625q-0.515625 0.734375 -1.375 1.171875q-0.84375 0.421875 -1.90625 0.421875zm0 -1.59375q0.59375 0 1.0625 -0.21875q0.46875 -0.234375 0.734375 -0.609375q0.28125 -0.390625 0.28125 -0.890625q0 -0.53125 -0.28125 -0.9375q-0.265625 -0.40625 -0.734375 -0.640625q-0.46875 -0.25 -1.0625 -0.25q-0.59375 0 -1.0625 0.25q-0.453125 0.234375 -0.734375 0.640625q-0.265625 0.40625 -0.265625 0.9375q0 0.484375 0.265625 0.875q0.28125 0.375 0.734375 0.609375q0.46875 0.234375 1.0625 0.234375zm0 -5.078125q0.515625 0 0.921875 -0.1875q0.40625 -0.203125 0.640625 -0.515625q0.234375 -0.328125 0.234375 -0.765625q0 -0.4375 -0.234375 -0.765625q-0.234375 -0.34375 -0.640625 -0.53125q-0.40625 -0.203125 -0.921875 -0.203125q-0.515625 0 -0.921875 0.203125q-0.40625 0.1875 -0.640625 0.53125q-0.234375 0.328125 -0.234375 0.765625q0 0.4375 0.234375 0.765625q0.234375 0.3125 0.640625 0.515625q0.40625 0.1875 0.921875 0.1875z" fill-rule="nonzero"/><path fill="#000000" fill-opacity="0.0" d="m736.43176 147.94489l0 7.1811066" fill-rule="evenodd"/><path stroke="#595959" stroke-width="1.0" stroke-linejoin="round" stroke-linecap="butt" d="m736.43176 147.94489l0 7.1811066" fill-rule="evenodd"/><path fill="#000000" fill-opacity="0.0" d="m716.2113 155.31496l40.440918 0l0 22.897644l-40.440918 0z" fill-rule="evenodd"/><path fill="#595959" d="m728.8519 172.52377l-0.0625 -0.15625l3.328125 -7.078125l0.046875 1.328125q-0.28125 0.484375 -0.625 0.859375q-0.34375 0.359375 -0.75 0.625q-0.40625 0.265625 -0.84375 0.40625q-0.4375 0.125 -0.875 0.125q-0.921875 0 -1.6875 -0.46875q-0.765625 -0.484375 -1.234375 -1.28125q-0.453125 -0.8125 -0.453125 -1.75q0 -1.140625 0.5 -2.046875q0.515625 -0.90625 1.40625 -1.421875q0.890625 -0.53125 2.0 -0.53125q0.796875 0 1.5 0.296875q0.703125 0.28125 1.21875 0.796875q0.53125 0.515625 0.828125 1.203125q0.3125 0.671875 0.3125 1.453125q0 0.390625 -0.078125 0.84375q-0.078125 0.453125 -0.265625 1.03125q-0.171875 0.5625 -0.484375 1.296875q-0.296875 0.71875 -0.75 1.6875l-1.328125 2.78125l-1.703125 0zm0.578125 -5.484375q0.625 0 1.125 -0.28125q0.5 -0.28125 0.78125 -0.75q0.28125 -0.46875 0.28125 -1.0625q0 -0.625 -0.28125 -1.125q-0.265625 -0.515625 -0.765625 -0.796875q-0.484375 -0.296875 -1.109375 -0.296875q-0.5625 0 -1.015625 0.28125q-0.453125 0.28125 -0.71875 0.78125q-0.265625 0.484375 -0.265625 1.140625q0 0.546875 0.265625 1.03125q0.265625 0.484375 0.71875 0.78125q0.453125 0.296875 0.984375 0.296875zm6.081604 5.484375l-0.53125 -1.3125l3.4375 -3.859375q0.265625 -0.28125 0.5625 -0.65625q0.296875 -0.375 0.5625 -0.78125q0.28125 -0.40625 0.4375 -0.796875q0.171875 -0.390625 0.171875 -0.734375q0 -0.515625 -0.203125 -0.875q-0.1875 -0.359375 -0.578125 -0.546875q-0.375 -0.203125 -0.890625 -0.203125q-0.46875 0 -0.921875 0.28125q-0.4375 0.265625 -0.8125 0.765625q-0.359375 0.5 -0.578125 1.15625l-1.328125 -0.84375q0.28125 -0.921875 0.828125 -1.578125q0.546875 -0.671875 1.328125 -1.015625q0.78125 -0.359375 1.6875 -0.359375q0.9375 0 1.671875 0.390625q0.75 0.390625 1.15625 1.09375q0.421875 0.6875 0.421875 1.609375q0 0.359375 -0.078125 0.75q-0.078125 0.375 -0.265625 0.796875q-0.171875 0.40625 -0.453125 0.84375q-0.265625 0.4375 -0.640625 0.921875q-0.375 0.46875 -0.859375 1.0l-2.53125 2.765625l-0.328125 -0.46875l5.5 0l0 1.65625l-6.765625 0z" fill-rule="nonzero"/><path fill="#000000" fill-opacity="0.0" d="m800.9488 147.94489l0 7.1811066" fill-rule="evenodd"/><path stroke="#595959" stroke-width="1.0" stroke-linejoin="round" stroke-linecap="butt" d="m800.9488 147.94489l0 7.1811066" fill-rule="evenodd"/><path fill="#000000" fill-opacity="0.0" d="m780.72833 155.3307l40.44098 0l0 22.897644l-40.44098 0z" fill-rule="evenodd"/><path fill="#595959" d="m795.7254 172.53952l-0.0625 -0.15625l3.328125 -7.078125l0.046875 1.328125q-0.28125 0.484375 -0.625 0.859375q-0.34375 0.359375 -0.75 0.625q-0.40625 0.265625 -0.84375 0.40625q-0.4375 0.125 -0.875 0.125q-0.921875 0 -1.6875 -0.46875q-0.765625 -0.484375 -1.234375 -1.28125q-0.453125 -0.8125 -0.453125 -1.75q0 -1.140625 0.5 -2.046875q0.515625 -0.90625 1.40625 -1.421875q0.890625 -0.53125 2.0 -0.53125q0.796875 0 1.5 0.296875q0.703125 0.28125 1.21875 0.796875q0.53125 0.515625 0.828125 1.203125q0.3125 0.671875 0.3125 1.453125q0 0.390625 -0.078125 0.84375q-0.078125 0.453125 -0.265625 1.03125q-0.171875 0.5625 -0.484375 1.296875q-0.296875 0.71875 -0.75 1.6875l-1.328125 2.78125l-1.703125 0zm0.578125 -5.484375q0.625 0 1.125 -0.28125q0.5 -0.28125 0.78125 -0.75q0.28125 -0.46875 0.28125 -1.0625q0 -0.625 -0.28125 -1.125q-0.265625 -0.515625 -0.765625 -0.796875q-0.484375 -0.296875 -1.109375 -0.296875q-0.5625 0 -1.015625 0.28125q-0.453125 0.28125 -0.71875 0.78125q-0.265625 0.484375 -0.265625 1.140625q0 0.546875 0.265625 1.03125q0.265625 0.484375 0.71875 0.78125q0.453125 0.296875 0.984375 0.296875zm9.12854 5.484375q-0.828125 0 -1.546875 -0.296875q-0.71875 -0.296875 -1.234375 -0.8125q-0.515625 -0.53125 -0.8125 -1.25q-0.296875 -0.734375 -0.296875 -1.59375q0 -0.4375 0.109375 -0.96875q0.125 -0.53125 0.375 -1.171875q0.25 -0.640625 0.59375 -1.34375q0.359375 -0.71875 0.828125 -1.484375l1.453125 -2.46875l1.6875 0l0.0625 0.15625l-1.765625 2.96875q-0.484375 0.8125 -0.859375 1.546875q-0.375 0.734375 -0.640625 1.390625q-0.25 0.640625 -0.375 1.171875l-0.375 -1.65625q0.296875 -0.484375 0.640625 -0.859375q0.359375 -0.390625 0.765625 -0.640625q0.40625 -0.25 0.859375 -0.375q0.453125 -0.140625 0.921875 -0.140625q0.9375 0 1.703125 0.515625q0.78125 0.5 1.25 1.328125q0.484375 0.828125 0.484375 1.828125q0 1.203125 -0.5 2.140625q-0.484375 0.921875 -1.359375 1.46875q-0.859375 0.546875 -1.96875 0.546875zm0 -1.59375q0.625 0 1.109375 -0.296875q0.484375 -0.296875 0.765625 -0.828125q0.28125 -0.546875 0.28125 -1.234375q0 -0.59375 -0.296875 -1.109375q-0.28125 -0.515625 -0.765625 -0.828125q-0.46875 -0.328125 -1.0625 -0.328125q-0.65625 0 -1.171875 0.3125q-0.515625 0.296875 -0.8125 0.8125q-0.28125 0.5 -0.28125 1.125q0 0.671875 0.28125 1.21875q0.296875 0.53125 0.796875 0.84375q0.5 0.3125 1.15625 0.3125z" fill-rule="nonzero"/><path fill="#000000" fill-opacity="0.0" d="m829.06433 147.94489l0 7.118103" fill-rule="evenodd"/><path stroke="#595959" stroke-width="1.0" stroke-linejoin="round" stroke-linecap="butt" d="m829.06433 147.94489l0 7.118103" fill-rule="evenodd"/><path fill="#000000" fill-opacity="0.0" d="m808.8438 155.28078l40.44098 0l0 22.740158l-40.44098 0z" fill-rule="evenodd"/><path fill="#595959" d="m823.6649 172.41086l-0.0625 -0.15625l3.328125 -7.078125l0.046875 1.328125q-0.28125 0.484375 -0.625 0.859375q-0.34375 0.359375 -0.75 0.625q-0.40625 0.265625 -0.84375 0.40625q-0.4375 0.125 -0.875 0.125q-0.921875 0 -1.6875 -0.46875q-0.765625 -0.484375 -1.234375 -1.28125q-0.453125 -0.8125 -0.453125 -1.75q0 -1.140625 0.5 -2.046875q0.515625 -0.90625 1.40625 -1.421875q0.890625 -0.53125 2.0 -0.53125q0.796875 0 1.5 0.296875q0.703125 0.28125 1.21875 0.796875q0.53125 0.515625 0.828125 1.203125q0.3125 0.671875 0.3125 1.453125q0 0.390625 -0.078125 0.84375q-0.078125 0.453125 -0.265625 1.03125q-0.171875 0.5625 -0.484375 1.296875q-0.296875 0.71875 -0.75 1.6875l-1.328125 2.78125l-1.703125 0zm0.578125 -5.484375q0.625 0 1.125 -0.28125q0.5 -0.28125 0.78125 -0.75q0.28125 -0.46875 0.28125 -1.0625q0 -0.625 -0.28125 -1.125q-0.265625 -0.515625 -0.765625 -0.796875q-0.484375 -0.296875 -1.109375 -0.296875q-0.5625 0 -1.015625 0.28125q-0.453125 0.28125 -0.71875 0.78125q-0.265625 0.484375 -0.265625 1.140625q0 0.546875 0.265625 1.03125q0.265625 0.484375 0.71875 0.78125q0.453125 0.296875 0.984375 0.296875zm9.22229 5.53125q-1.046875 0 -1.90625 -0.4375q-0.84375 -0.4375 -1.359375 -1.171875q-0.515625 -0.734375 -0.515625 -1.640625q0 -0.5 0.140625 -0.9375q0.140625 -0.4375 0.421875 -0.796875q0.28125 -0.375 0.671875 -0.671875q0.40625 -0.3125 0.9375 -0.546875l-0.109375 0.328125q-0.40625 -0.15625 -0.734375 -0.390625q-0.328125 -0.234375 -0.578125 -0.53125q-0.234375 -0.3125 -0.359375 -0.65625q-0.109375 -0.359375 -0.109375 -0.734375q0 -0.84375 0.46875 -1.53125q0.46875 -0.703125 1.25 -1.109375q0.796875 -0.421875 1.78125 -0.421875q0.96875 0 1.765625 0.421875q0.796875 0.40625 1.265625 1.109375q0.46875 0.6875 0.46875 1.53125q0 0.375 -0.125 0.734375q-0.109375 0.34375 -0.34375 0.640625q-0.21875 0.28125 -0.5625 0.53125q-0.34375 0.234375 -0.78125 0.40625l-0.046875 -0.265625q0.484375 0.1875 0.875 0.5q0.390625 0.296875 0.671875 0.6875q0.296875 0.375 0.453125 0.8125q0.15625 0.4375 0.15625 0.890625q0 0.921875 -0.515625 1.65625q-0.515625 0.734375 -1.375 1.171875q-0.84375 0.421875 -1.90625 0.421875zm0 -1.59375q0.59375 0 1.0625 -0.21875q0.46875 -0.234375 0.734375 -0.609375q0.28125 -0.390625 0.28125 -0.890625q0 -0.53125 -0.28125 -0.9375q-0.265625 -0.40625 -0.734375 -0.640625q-0.46875 -0.25 -1.0625 -0.25q-0.59375 0 -1.0625 0.25q-0.453125 0.234375 -0.734375 0.640625q-0.265625 0.40625 -0.265625 0.9375q0 0.484375 0.265625 0.875q0.28125 0.375 0.734375 0.609375q0.46875 0.234375 1.0625 0.234375zm0 -5.078125q0.515625 0 0.921875 -0.1875q0.40625 -0.203125 0.640625 -0.515625q0.234375 -0.328125 0.234375 -0.765625q0 -0.4375 -0.234375 -0.765625q-0.234375 -0.34375 -0.640625 -0.53125q-0.40625 -0.203125 -0.921875 -0.203125q-0.515625 0 -0.921875 0.203125q-0.40625 0.1875 -0.640625 0.53125q-0.234375 0.328125 -0.234375 0.765625q0 0.4375 0.234375 0.765625q0.234375 0.3125 0.640625 0.515625q0.40625 0.1875 0.921875 0.1875z" fill-rule="nonzero"/><path fill="#0097a7" d="m603.15485 124.48294l33.13385 0l0 23.275589l-33.13385 0z" fill-rule="evenodd"/><path fill="#0097a7" d="m636.28345 105.92913l33.13385 0l0 42.015755l-33.13385 0z" fill-rule="evenodd"/><path fill="#0097a7" d="m669.4173 78.76378l33.51184 0l0 69.16536l-33.51184 0z" fill-rule="evenodd"/><path fill="#0097a7" d="m702.2992 78.76378l33.51184 0l0 69.16536l-33.51184 0z" fill-rule="evenodd"/><path fill="#0097a7" d="m735.3727 105.92913l33.13391 0l0 42.015755l-33.13391 0z" fill-rule="evenodd"/><path fill="#0097a7" d="m766.1837 124.66929l34.834656 0l0 23.275597l-34.834656 0z" fill-rule="evenodd"/><path fill="#0097a7" d="m800.95276 124.66929l27.590576 0l0 23.275597l-27.590576 0z" fill-rule="evenodd"/><path fill="#0097a7" d="m828.54333 78.76378l28.629883 0l0 69.16536l-28.629883 0z" fill-rule="evenodd"/><path fill="#000000" fill-opacity="0.0" d="m48.446194 144.05511l0 -23.275589" fill-rule="evenodd"/><path stroke="#595959" stroke-width="1.0" stroke-linejoin="round" stroke-linecap="butt" d="m48.446194 144.05511l0 -23.275589" fill-rule="evenodd"/><path fill="#000000" fill-opacity="0.0" d="m48.446194 120.779526l-11.338581 0" fill-rule="evenodd"/><path stroke="#595959" stroke-width="1.0" stroke-linejoin="round" stroke-linecap="butt" d="m48.446194 120.779526l-11.338581 0" fill-rule="evenodd"/><path fill="#000000" fill-opacity="0.0" d="m48.446194 120.779526l0 -23.275589" fill-rule="evenodd"/><path stroke="#595959" stroke-width="1.0" stroke-linejoin="round" stroke-linecap="butt" d="m48.446194 120.779526l0 -23.275589" fill-rule="evenodd"/><path fill="#000000" fill-opacity="0.0" d="m48.446194 97.50394l-11.338581 0" fill-rule="evenodd"/><path stroke="#595959" stroke-width="1.0" stroke-linejoin="round" stroke-linecap="butt" d="m48.446194 97.50394l-11.338581 0" fill-rule="evenodd"/><path fill="#000000" fill-opacity="0.0" d="m48.446194 97.50394l0 -23.275589" fill-rule="evenodd"/><path stroke="#595959" stroke-width="1.0" stroke-linejoin="round" stroke-linecap="butt" d="m48.446194 97.50394l0 -23.275589" fill-rule="evenodd"/><path fill="#000000" fill-opacity="0.0" d="m48.446194 74.22835l-11.338581 0" fill-rule="evenodd"/><path stroke="#595959" stroke-width="1.0" stroke-linejoin="round" stroke-linecap="butt" d="m48.446194 74.22835l-11.338581 0" fill-rule="evenodd"/><path fill="#000000" fill-opacity="0.0" d="m48.446194 74.22835l0 -23.275593" fill-rule="evenodd"/><path stroke="#595959" stroke-width="1.0" stroke-linejoin="round" stroke-linecap="butt" d="m48.446194 74.22835l0 -23.275593" fill-rule="evenodd"/><path fill="#000000" fill-opacity="0.0" d="m48.446194 50.952755l-11.338581 0" fill-rule="evenodd"/><path stroke="#595959" stroke-width="1.0" stroke-linejoin="round" stroke-linecap="butt" d="m48.446194 50.952755l-11.338581 0" fill-rule="evenodd"/><path fill="#000000" fill-opacity="0.0" d="m48.446194 51.51837l0 -23.275589" fill-rule="evenodd"/><path stroke="#595959" stroke-width="1.0" stroke-linejoin="round" stroke-linecap="butt" d="m48.446194 51.51837l0 -23.275589" fill-rule="evenodd"/><path fill="#000000" fill-opacity="0.0" d="m48.446194 28.242783l-11.338581 0" fill-rule="evenodd"/><path stroke="#595959" stroke-width="1.0" stroke-linejoin="round" stroke-linecap="butt" d="m48.446194 28.242783l-11.338581 0" fill-rule="evenodd"/><path fill="#000000" fill-opacity="0.0" d="m48.446194 28.242783l0 -23.27559" fill-rule="evenodd"/><path stroke="#595959" stroke-width="1.0" stroke-linejoin="round" stroke-linecap="butt" d="m48.446194 28.242783l0 -23.27559" fill-rule="evenodd"/><path fill="#000000" fill-opacity="0.0" d="m0 98.149605l27.590551 0l0 42.015755l-27.590551 0z" fill-rule="evenodd"/><path fill="#595959" d="m13.046875 124.14773l0 -10.59375l0.6875 0.53125l-2.5625 1.359375l-0.546875 -1.75l3.484375 -1.875l0.96875 0l0 12.328125l-2.03125 0zm-2.0625 0.921875l0 -1.9375l6.21875 0l0 1.9375l-6.21875 0z" fill-rule="nonzero"/><path fill="#000000" fill-opacity="0.0" d="m0 74.874016l27.590551 0l0 42.015747l-27.590551 0z" fill-rule="evenodd"/><path fill="#595959" d="m10.734375 101.794014l-0.609375 -1.53125l3.984375 -4.5q0.3125 -0.328125 0.65625 -0.765625q0.359375 -0.4375 0.671875 -0.90625q0.3125 -0.46875 0.5 -0.921875q0.203125 -0.453125 0.203125 -0.875q0 -0.59375 -0.234375 -1.015625q-0.234375 -0.421875 -0.671875 -0.640625q-0.4375 -0.21875 -1.046875 -0.21875q-0.546875 0 -1.078125 0.3125q-0.515625 0.3125 -0.9375 0.890625q-0.421875 0.578125 -0.671875 1.34375l-1.546875 -0.96875q0.3125 -1.078125 0.953125 -1.84375q0.65625 -0.78125 1.546875 -1.1875q0.90625 -0.421875 1.96875 -0.421875q1.109375 0 1.96875 0.46875q0.859375 0.453125 1.34375 1.265625q0.484375 0.8125 0.484375 1.875q0 0.421875 -0.09375 0.875q-0.09375 0.4375 -0.296875 0.921875q-0.203125 0.46875 -0.53125 0.984375q-0.3125 0.515625 -0.75 1.078125q-0.4375 0.5625 -1.0 1.171875l-2.96875 3.234375l-0.375 -0.5625l6.421875 0l0 1.9375l-7.890625 0z" fill-rule="nonzero"/><path fill="#000000" fill-opacity="0.0" d="m0 51.598427l27.590551 0l0 42.015747l-27.590551 0z" fill-rule="evenodd"/><path fill="#595959" d="m13.6875 78.705925q-1.390625 0 -2.40625 -0.625q-1.015625 -0.640625 -1.90625 -2.140625l1.5625 -0.984375q0.46875 0.6875 0.921875 1.125q0.46875 0.4375 0.953125 0.65625q0.484375 0.203125 1.015625 0.203125q0.65625 0 1.21875 -0.328125q0.5625 -0.328125 0.890625 -0.90625q0.34375 -0.578125 0.34375 -1.3125q0 -0.71875 -0.265625 -1.234375q-0.265625 -0.515625 -0.765625 -0.78125q-0.5 -0.28125 -1.1875 -0.28125q-0.328125 0 -0.671875 0.078125q-0.34375 0.0625 -0.734375 0.1875q-0.390625 0.109375 -0.859375 0.296875l-0.5625 -1.46875l4.03125 -4.4375l0.390625 0.578125l-5.5625 0l0 -1.875l7.484375 0l0.375 0.75l-4.265625 4.734375l-0.46875 -0.484375q0.140625 -0.078125 0.484375 -0.140625q0.359375 -0.0625 0.578125 -0.0625q0.8125 0 1.53125 0.3125q0.71875 0.296875 1.25 0.859375q0.53125 0.546875 0.84375 1.28125q0.3125 0.734375 0.3125 1.578125q0 1.265625 -0.609375 2.265625q-0.609375 1.0 -1.640625 1.578125q-1.015625 0.578125 -2.28125 0.578125z" fill-rule="nonzero"/><path fill="#000000" fill-opacity="0.0" d="m0 28.322834l27.590551 0l0 42.01575l-27.590551 0z" fill-rule="evenodd"/><path fill="#595959" d="m15.5625 55.242832l0 -10.515625l0.46875 0.109375l-4.28125 5.234375l-0.078125 -0.21875l8.109375 0l0 1.84375l-9.359375 0l-0.859375 -1.671875l6.390625 -7.84375l1.546875 0l0 13.0625l-1.9375 0z" fill-rule="nonzero"/><path fill="#000000" fill-opacity="0.0" d="m0 6.3385825l27.590551 0l0 42.01575l-27.590551 0z" fill-rule="evenodd"/><path fill="#595959" d="m13.796875 33.38358q-1.296875 0 -2.34375 -0.578125q-1.03125 -0.59375 -1.71875 -1.6874981l1.109375 -1.25q0.875 0.96875 1.53125 1.328125q0.65625 0.34375 1.421875 0.34375q0.765625 0 1.375 -0.328125q0.625 -0.34375 0.984375 -0.921875q0.359375 -0.578125 0.359375 -1.28125q0 -0.75 -0.34375 -1.328125q-0.34375 -0.59375 -0.921875 -0.9375q-0.578125 -0.34375 -1.3125 -0.34375q-0.34375 0 -0.671875 0.046875q-0.3125 0.046875 -0.765625 0.21875q-0.4375 0.15625 -1.171875 0.515625l-1.0625 -1.4375l0.765625 -5.546875l7.046875 0l0 1.875l-5.78125 0l0.390625 -0.359375l-0.609375 4.140625l-0.46875 -0.546875q0.1875 -0.1875 0.625 -0.359375q0.453125 -0.171875 1.0 -0.296875q0.5625 -0.125 1.0625 -0.125q1.203125 0 2.140625 0.5625q0.9375 0.546875 1.484375 1.515625q0.5625 0.96875 0.5625 2.21875q0 1.28125 -0.625 2.328125q-0.609375 1.0312481 -1.671875 1.6406231q-1.0625 0.59375 -2.390625 0.59375z" fill-rule="nonzero"/><path fill="#0097a7" d="m72.4462 120.968506l85.32283 0l0 22.897629l-85.32283 0z" fill-rule="evenodd"/><path fill="#0097a7" d="m157.76903 28.322834l85.32283 0l0 115.52756l-85.32283 0z" fill-rule="evenodd"/><path fill="#0097a7" d="m243.09186 28.322834l85.322845 0l0 115.52756l-85.322845 0z" fill-rule="evenodd"/><path fill="#0097a7" d="m328.4147 28.322834l85.322815 0l0 115.52756l-85.322815 0z" fill-rule="evenodd"/><path fill="#000000" fill-opacity="0.0" d="m48.446194 144.05511l377.13385 0" fill-rule="evenodd"/><path stroke="#595959" stroke-width="1.0" stroke-linejoin="round" stroke-linecap="butt" d="m48.446194 144.05511l377.13385 0" fill-rule="evenodd"/><path fill="#000000" fill-opacity="0.0" d="m157.76903 142.50919l0 7.1811066" fill-rule="evenodd"/><path stroke="#595959" stroke-width="1.0" stroke-linejoin="round" stroke-linecap="butt" d="m157.76903 142.50919l0 7.1811066" fill-rule="evenodd"/><path fill="#000000" fill-opacity="0.0" d="m243.09186 142.50919l0 7.1811066" fill-rule="evenodd"/><path stroke="#595959" stroke-width="1.0" stroke-linejoin="round" stroke-linecap="butt" d="m243.09186 142.50919l0 7.1811066" fill-rule="evenodd"/><path fill="#000000" fill-opacity="0.0" d="m328.4147 144.25984l0 7.1811066" fill-rule="evenodd"/><path stroke="#595959" stroke-width="1.0" stroke-linejoin="round" stroke-linecap="butt" d="m328.4147 144.25984l0 7.1811066" fill-rule="evenodd"/><path fill="#000000" fill-opacity="0.0" d="m397.73752 144.25984l0 7.1811066" fill-rule="evenodd"/><path stroke="#595959" stroke-width="1.0" stroke-linejoin="round" stroke-linecap="butt" d="m397.73752 144.25984l0 7.1811066" fill-rule="evenodd"/><path fill="#000000" fill-opacity="0.0" d="m72.4462 144.2441l0 7.1811066" fill-rule="evenodd"/><path stroke="#595959" stroke-width="1.0" stroke-linejoin="round" stroke-linecap="butt" d="m72.4462 144.2441l0 7.1811066" fill-rule="evenodd"/><path fill="#000000" fill-opacity="0.0" d="m52.225723 151.61417l40.44094 0l0 22.897644l-40.44094 0z" fill-rule="evenodd"/><path fill="#595959" d="m67.583176 168.86987q-1.046875 0 -1.90625 -0.4375q-0.84375 -0.4375 -1.359375 -1.171875q-0.5156288 -0.734375 -0.5156288 -1.640625q0 -0.5 0.140625 -0.9375q0.14062881 -0.4375 0.4218788 -0.796875q0.28125 -0.375 0.671875 -0.671875q0.40625 -0.3125 0.9375 -0.546875l-0.109375 0.328125q-0.40625 -0.15625 -0.734375 -0.390625q-0.328125 -0.234375 -0.578125 -0.53125q-0.234375 -0.3125 -0.359375 -0.65625q-0.109375 -0.359375 -0.109375 -0.734375q0 -0.84375 0.46875 -1.53125q0.46875 -0.703125 1.25 -1.109375q0.796875 -0.421875 1.78125 -0.421875q0.96875 0 1.765625 0.421875q0.796875 0.40625 1.265625 1.109375q0.46875 0.6875 0.46875 1.53125q0 0.375 -0.125 0.734375q-0.109375 0.34375 -0.34375 0.640625q-0.21875 0.28125 -0.5625 0.53125q-0.34375 0.234375 -0.78125 0.40625l-0.046875 -0.265625q0.484375 0.1875 0.875 0.5q0.390625 0.296875 0.671875 0.6875q0.296875 0.375 0.453125 0.8125q0.15625 0.4375 0.15625 0.890625q0 0.921875 -0.515625 1.65625q-0.515625 0.734375 -1.375 1.171875q-0.84375 0.421875 -1.90625 0.421875zm0 -1.59375q0.59375 0 1.0625 -0.21875q0.46875 -0.234375 0.734375 -0.609375q0.28125 -0.390625 0.28125 -0.890625q0 -0.53125 -0.28125 -0.9375q-0.265625 -0.40625 -0.734375 -0.640625q-0.46875 -0.25 -1.0625 -0.25q-0.59375 0 -1.0625 0.25q-0.453125 0.234375 -0.734375 0.640625q-0.265625 0.40625 -0.265625 0.9375q0 0.484375 0.265625 0.875q0.28125 0.375 0.734375 0.609375q0.46875 0.234375 1.0625 0.234375zm0 -5.078125q0.515625 0 0.921875 -0.1875q0.40625 -0.203125 0.640625 -0.515625q0.234375 -0.328125 0.234375 -0.765625q0 -0.4375 -0.234375 -0.765625q-0.234375 -0.34375 -0.640625 -0.53125q-0.40625 -0.203125 -0.921875 -0.203125q-0.515625 0 -0.921875 0.203125q-0.40625 0.1875 -0.640625 0.53125q-0.234375 0.328125 -0.234375 0.765625q0 0.4375 0.234375 0.765625q0.234375 0.3125 0.640625 0.515625q0.40625 0.1875 0.921875 0.1875zm9.482773 6.78125q-1.28125 0 -2.203125 -0.703125q-0.90625 -0.703125 -1.40625 -1.984375q-0.5 -1.296875 -0.5 -3.0625q0 -1.78125 0.5 -3.0625q0.5 -1.296875 1.40625 -2.0q0.921875 -0.703125 2.203125 -0.703125q1.28125 0 2.203125 0.703125q0.9375 0.703125 1.421875 2.0q0.5 1.28125 0.5 3.0625q0 1.765625 -0.5 3.0625q-0.484375 1.28125 -1.421875 1.984375q-0.921875 0.703125 -2.203125 0.703125zm0 -1.5625q1.171875 0 1.8125 -1.09375q0.640625 -1.09375 0.640625 -3.09375q0 -2.0 -0.640625 -3.09375q-0.640625 -1.109375 -1.8125 -1.109375q-1.15625 0 -1.796875 1.109375q-0.640625 1.09375 -0.640625 3.09375q0 2.0 0.640625 3.09375q0.640625 1.09375 1.796875 1.09375z" fill-rule="nonzero"/><path fill="#000000" fill-opacity="0.0" d="m137.54855 151.61417l40.44095 0l0 22.897644l-40.44095 0z" fill-rule="evenodd"/><path fill="#595959" d="m153.21802 168.86987q-1.046875 0 -1.90625 -0.4375q-0.84375 -0.4375 -1.359375 -1.171875q-0.515625 -0.734375 -0.515625 -1.640625q0 -0.5 0.140625 -0.9375q0.140625 -0.4375 0.421875 -0.796875q0.28125 -0.375 0.671875 -0.671875q0.40625 -0.3125 0.9375 -0.546875l-0.109375 0.328125q-0.40625 -0.15625 -0.734375 -0.390625q-0.328125 -0.234375 -0.578125 -0.53125q-0.234375 -0.3125 -0.359375 -0.65625q-0.109375 -0.359375 -0.109375 -0.734375q0 -0.84375 0.46875 -1.53125q0.46875 -0.703125 1.25 -1.109375q0.796875 -0.421875 1.78125 -0.421875q0.96875 0 1.765625 0.421875q0.796875 0.40625 1.265625 1.109375q0.46875 0.6875 0.46875 1.53125q0 0.375 -0.125 0.734375q-0.109375 0.34375 -0.34375 0.640625q-0.21875 0.28125 -0.5625 0.53125q-0.34375 0.234375 -0.78125 0.40625l-0.046875 -0.265625q0.484375 0.1875 0.875 0.5q0.390625 0.296875 0.671875 0.6875q0.296875 0.375 0.453125 0.8125q0.15625 0.4375 0.15625 0.890625q0 0.921875 -0.515625 1.65625q-0.515625 0.734375 -1.375 1.171875q-0.84375 0.421875 -1.90625 0.421875zm0 -1.59375q0.59375 0 1.0625 -0.21875q0.46875 -0.234375 0.734375 -0.609375q0.28125 -0.390625 0.28125 -0.890625q0 -0.53125 -0.28125 -0.9375q-0.265625 -0.40625 -0.734375 -0.640625q-0.46875 -0.25 -1.0625 -0.25q-0.59375 0 -1.0625 0.25q-0.453125 0.234375 -0.734375 0.640625q-0.265625 0.40625 -0.265625 0.9375q0 0.484375 0.265625 0.875q0.28125 0.375 0.734375 0.609375q0.46875 0.234375 1.0625 0.234375zm0 -5.078125q0.515625 0 0.921875 -0.1875q0.40625 -0.203125 0.640625 -0.515625q0.234375 -0.328125 0.234375 -0.765625q0 -0.4375 -0.234375 -0.765625q-0.234375 -0.34375 -0.640625 -0.53125q-0.40625 -0.203125 -0.921875 -0.203125q-0.515625 0 -0.921875 0.203125q-0.40625 0.1875 -0.640625 0.53125q-0.234375 0.328125 -0.234375 0.765625q0 0.4375 0.234375 0.765625q0.234375 0.3125 0.640625 0.515625q0.40625 0.1875 0.921875 0.1875zm8.748398 6.734375q-1.09375 0 -2.0 -0.5q-0.890625 -0.5 -1.484375 -1.453125l0.953125 -1.0625q0.765625 0.828125 1.3125 1.140625q0.5625 0.296875 1.21875 0.296875q0.65625 0 1.1875 -0.28125q0.53125 -0.296875 0.84375 -0.796875q0.3125 -0.5 0.3125 -1.09375q0 -0.640625 -0.296875 -1.140625q-0.296875 -0.515625 -0.796875 -0.8125q-0.5 -0.296875 -1.125 -0.296875q-0.296875 0 -0.578125 0.046875q-0.265625 0.03125 -0.65625 0.1875q-0.375 0.140625 -1.0 0.4375l-0.90625 -1.234375l0.65625 -4.75l6.046875 0l0 1.609375l-4.96875 0l0.34375 -0.3125l-0.53125 3.546875l-0.40625 -0.453125q0.171875 -0.15625 0.546875 -0.3125q0.390625 -0.15625 0.859375 -0.25q0.46875 -0.109375 0.90625 -0.109375q1.015625 0 1.828125 0.46875q0.8125 0.46875 1.28125 1.3125q0.46875 0.828125 0.46875 1.890625q0 1.109375 -0.53125 2.0q-0.515625 0.890625 -1.4375 1.40625q-0.90625 0.515625 -2.046875 0.515625z" fill-rule="nonzero"/><path fill="#000000" fill-opacity="0.0" d="m222.87138 151.61417l40.440964 0l0 22.897644l-40.440964 0z" fill-rule="evenodd"/><path fill="#595959" d="m237.46846 168.823l-0.0625 -0.15625l3.328125 -7.078125l0.046875 1.328125q-0.28125 0.484375 -0.625 0.859375q-0.34375 0.359375 -0.75 0.625q-0.40625 0.265625 -0.84375 0.40625q-0.4375 0.125 -0.875 0.125q-0.921875 0 -1.6875 -0.46875q-0.765625 -0.484375 -1.234375 -1.28125q-0.453125 -0.8125 -0.453125 -1.75q0 -1.140625 0.5 -2.046875q0.515625 -0.90625 1.40625 -1.421875q0.890625 -0.53125 2.0 -0.53125q0.796875 0 1.5 0.296875q0.703125 0.28125 1.21875 0.796875q0.53125 0.515625 0.828125 1.203125q0.3125 0.671875 0.3125 1.453125q0 0.390625 -0.078125 0.84375q-0.078125 0.453125 -0.265625 1.03125q-0.171875 0.5625 -0.484375 1.296875q-0.296875 0.71875 -0.75 1.6875l-1.328125 2.78125l-1.703125 0zm0.578125 -5.484375q0.625 0 1.125 -0.28125q0.5 -0.28125 0.78125 -0.75q0.28125 -0.46875 0.28125 -1.0625q0 -0.625 -0.28125 -1.125q-0.265625 -0.515625 -0.765625 -0.796875q-0.484375 -0.296875 -1.109375 -0.296875q-0.5625 0 -1.015625 0.28125q-0.453125 0.28125 -0.71875 0.78125q-0.265625 0.484375 -0.265625 1.140625q0 0.546875 0.265625 1.03125q0.265625 0.484375 0.71875 0.78125q0.453125 0.296875 0.984375 0.296875zm9.441025 5.640625q-1.28125 0 -2.203125 -0.703125q-0.90625 -0.703125 -1.40625 -1.984375q-0.5 -1.296875 -0.5 -3.0625q0 -1.78125 0.5 -3.0625q0.5 -1.296875 1.40625 -2.0q0.921875 -0.703125 2.203125 -0.703125q1.28125 0 2.203125 0.703125q0.9375 0.703125 1.421875 2.0q0.5 1.28125 0.5 3.0625q0 1.765625 -0.5 3.0625q-0.484375 1.28125 -1.421875 1.984375q-0.921875 0.703125 -2.203125 0.703125zm0 -1.5625q1.171875 0 1.8125 -1.09375q0.640625 -1.09375 0.640625 -3.09375q0 -2.0 -0.640625 -3.09375q-0.640625 -1.109375 -1.8125 -1.109375q-1.15625 0 -1.796875 1.109375q-0.640625 1.09375 -0.640625 3.09375q0 2.0 0.640625 3.09375q0.640625 1.09375 1.796875 1.09375z" fill-rule="nonzero"/><path fill="#000000" fill-opacity="0.0" d="m308.1942 151.64568l40.44095 0l0 22.897629l-40.44095 0z" fill-rule="evenodd"/><path fill="#595959" d="m323.1033 168.85449l-0.0625 -0.15625l3.328125 -7.078125l0.046875 1.328125q-0.28125 0.484375 -0.625 0.859375q-0.34375 0.359375 -0.75 0.625q-0.40625 0.265625 -0.84375 0.40625q-0.4375 0.125 -0.875 0.125q-0.921875 0 -1.6875 -0.46875q-0.765625 -0.484375 -1.234375 -1.28125q-0.453125 -0.8125 -0.453125 -1.75q0 -1.140625 0.5 -2.046875q0.515625 -0.90625 1.40625 -1.421875q0.890625 -0.53125 2.0 -0.53125q0.796875 0 1.5 0.296875q0.703125 0.28125 1.21875 0.796875q0.53125 0.515625 0.828125 1.203125q0.3125 0.671875 0.3125 1.453125q0 0.390625 -0.078125 0.84375q-0.078125 0.453125 -0.265625 1.03125q-0.171875 0.5625 -0.484375 1.296875q-0.296875 0.71875 -0.75 1.6875l-1.328125 2.78125l-1.703125 0zm0.578125 -5.484375q0.625 0 1.125 -0.28125q0.5 -0.28125 0.78125 -0.75q0.28125 -0.46875 0.28125 -1.0625q0 -0.625 -0.28125 -1.125q-0.265625 -0.515625 -0.765625 -0.796875q-0.484375 -0.296875 -1.109375 -0.296875q-0.5625 0 -1.015625 0.28125q-0.453125 0.28125 -0.71875 0.78125q-0.265625 0.484375 -0.265625 1.140625q0 0.546875 0.265625 1.03125q0.265625 0.484375 0.71875 0.78125q0.453125 0.296875 0.984375 0.296875zm8.706665 5.59375q-1.09375 0 -2.0 -0.5q-0.890625 -0.5 -1.484375 -1.453125l0.953125 -1.0625q0.765625 0.828125 1.3125 1.140625q0.5625 0.296875 1.21875 0.296875q0.65625 0 1.1875 -0.28125q0.53125 -0.296875 0.84375 -0.796875q0.3125 -0.5 0.3125 -1.09375q0 -0.640625 -0.296875 -1.140625q-0.296875 -0.515625 -0.796875 -0.8125q-0.5 -0.296875 -1.125 -0.296875q-0.296875 0 -0.578125 0.046875q-0.265625 0.03125 -0.65625 0.1875q-0.375 0.140625 -1.0 0.4375l-0.90625 -1.234375l0.65625 -4.75l6.046875 0l0 1.609375l-4.96875 0l0.34375 -0.3125l-0.53125 3.546875l-0.40625 -0.453125q0.171875 -0.15625 0.546875 -0.3125q0.390625 -0.15625 0.859375 -0.25q0.46875 -0.109375 0.90625 -0.109375q1.015625 0 1.828125 0.46875q0.8125 0.46875 1.28125 1.3125q0.46875 0.828125 0.46875 1.890625q0 1.109375 -0.53125 2.0q-0.515625 0.890625 -1.4375 1.40625q-0.90625 0.515625 -2.046875 0.515625z" fill-rule="nonzero"/><path fill="#000000" fill-opacity="0.0" d="m371.97375 151.64568l51.527557 0l0 22.897629l-51.527557 0z" fill-rule="evenodd"/><path fill="#595959" d="m387.49426 168.07324l0 -9.09375l0.59375 0.453125l-2.203125 1.171875l-0.46875 -1.515625l3.0 -1.59375l0.828125 0l0 10.578125l-1.75 0zm-1.765625 0.78125l0 -1.65625l5.34375 0l0 1.65625l-5.34375 0zm11.140625 0.15625q-1.28125 0 -2.203125 -0.703125q-0.90625 -0.703125 -1.40625 -1.984375q-0.5 -1.296875 -0.5 -3.0625q0 -1.78125 0.5 -3.0625q0.5 -1.296875 1.40625 -2.0q0.921875 -0.703125 2.203125 -0.703125q1.28125 0 2.203125 0.703125q0.9375 0.703125 1.421875 2.0q0.5 1.28125 0.5 3.0625q0 1.765625 -0.5 3.0625q-0.484375 1.28125 -1.421875 1.984375q-0.921875 0.703125 -2.203125 0.703125zm0 -1.5625q1.171875 0 1.8125 -1.09375q0.640625 -1.09375 0.640625 -3.09375q0 -2.0 -0.640625 -3.09375q-0.640625 -1.109375 -1.8125 -1.109375q-1.15625 0 -1.796875 1.109375q-0.640625 1.09375 -0.640625 3.09375q0 2.0 0.640625 3.09375q0.640625 1.09375 1.796875 1.09375zm9.712036 1.5625q-1.28125 0 -2.203125 -0.703125q-0.90625 -0.703125 -1.40625 -1.984375q-0.5 -1.296875 -0.5 -3.0625q0 -1.78125 0.5 -3.0625q0.5 -1.296875 1.40625 -2.0q0.921875 -0.703125 2.203125 -0.703125q1.28125 0 2.203125 0.703125q0.9375 0.703125 1.421875 2.0q0.5 1.28125 0.5 3.0625q0 1.765625 -0.5 3.0625q-0.484375 1.28125 -1.421875 1.984375q-0.921875 0.703125 -2.203125 0.703125zm0 -1.5625q1.171875 0 1.8125 -1.09375q0.640625 -1.09375 0.640625 -3.09375q0 -2.0 -0.640625 -3.09375q-0.640625 -1.109375 -1.8125 -1.109375q-1.15625 0 -1.796875 1.109375q-0.640625 1.09375 -0.640625 3.09375q0 2.0 0.640625 3.09375q0.640625 1.09375 1.796875 1.09375z" fill-rule="nonzero"/></g></svg>