<svg version="1.1" viewBox="0.0 0.0 843.1312335958005 358.95538057742783" fill="none" stroke="none" stroke-linecap="square" stroke-miterlimit="10" xmlns:xlink="http://www.w3.org/1999/xlink" xmlns="http://www.w3.org/2000/svg"><clipPath id="p.0"><path d="m0 0l843.1312 0l0 358.95538l-843.1312 0l0 -358.95538z" clip-rule="nonzero"/></clipPath><g clip-path="url(#p.0)"><path fill="#000000" fill-opacity="0.0" d="m0 0l843.1312 0l0 358.95538l-843.1312 0z" fill-rule="evenodd"/><path fill="#000000" fill-opacity="0.0" d="m-8.343832 -12.217831l930.89764 0l0 90.11023l-930.89764 0z" fill-rule="evenodd"/><path fill="#595959" d="m9.828043 20.496544q-2.03125 0 -3.0 -0.625q-0.96875 -0.625 -0.96875 -2.3125q0 -0.765625 0.046875 -1.375q0.0625 -0.609375 0.109375 -1.203125q0.0625 -0.59375 0.0625 -1.296875q0 -0.390625 -0.265625 -0.75q-0.25 -0.359375 -0.90625 -0.609375q-0.640625 -0.25 -1.84375 -0.25l0 -1.484375q1.203125 0 1.84375 -0.25q0.65625 -0.25 0.90625 -0.609375q0.265625 -0.359375 0.265625 -0.75q0 -0.671875 -0.0625 -1.2812495q-0.046875 -0.609375 -0.109375 -1.21875q-0.046875 -0.625 -0.046875 -1.375q0 -1.6875 0.96875 -2.3125q0.96875 -0.625 3.0 -0.625l1.46875 0l0 1.34375l-0.984375 0q-0.96875 0 -1.5 0.15625q-0.515625 0.15625 -0.71875 0.53125q-0.1875 0.375 -0.1875 1.015625q0 0.875 0.046875 1.78125q0.0625 0.90625 0.0625 1.8906245q0 1.125 -0.453125 1.671875q-0.4375 0.546875 -1.578125 0.734375l0 0.078125q1.140625 0.203125 1.578125 0.75q0.453125 0.53125 0.453125 1.671875q0 1.015625 -0.0625 1.890625q-0.046875 0.859375 -0.046875 1.765625q0 0.640625 0.1875 1.015625q0.203125 0.375 0.71875 0.53125q0.53125 0.15625 1.5 0.15625l0.984375 0l0 1.34375l-1.46875 0z" fill-rule="nonzero"/><path fill="#990055" d="m55.07804 17.512169q-1.5625 0 -2.6875 -0.46875q-1.125 -0.484375 -1.75 -1.328125q-0.625 -0.84375 -0.625 -1.921875q0 -0.875 0.390625 -1.53125q0.40625 -0.65625 1.015625 -1.125q0.625 -0.484375 1.34375 -0.828125l0 -0.078125q-0.84375 -0.5625 -1.4375 -1.34375q-0.578125 -0.78125 -0.578125 -1.8437495q0 -1.078125 0.5625 -1.90625q0.5625 -0.828125 1.546875 -1.265625q1.0 -0.4375 2.28125 -0.4375q2.03125 0 3.1875 1.015625q1.15625 1.015625 1.15625 2.65625q0 0.9374995 -0.59375 1.7499995q-0.59375 0.796875 -1.421875 1.34375l0 0.09375q0.75 0.359375 1.328125 0.828125q0.59375 0.453125 0.9375 1.109375q0.359375 0.65625 0.359375 1.59375q0 1.046875 -0.59375 1.890625q-0.578125 0.828125 -1.703125 1.3125q-1.125 0.484375 -2.71875 0.484375zm1.0 -7.90625q1.34375 -1.09375 1.34375 -2.3437495q0 -0.59375 -0.265625 -1.0625q-0.265625 -0.46875 -0.796875 -0.734375q-0.515625 -0.28125 -1.265625 -0.28125q-0.9375 0 -1.5625 0.5q-0.609375 0.484375 -0.609375 1.359375q0 0.6875 0.40625 1.1562495q0.421875 0.453125 1.140625 0.78125q0.71875 0.328125 1.609375 0.625zm-0.953125 6.15625q1.234375 0 1.9375 -0.53125q0.703125 -0.53125 0.703125 -1.484375q0 -0.578125 -0.28125 -0.984375q-0.28125 -0.40625 -0.796875 -0.703125q-0.5 -0.296875 -1.1875 -0.546875q-0.6875 -0.25 -1.484375 -0.515625q-0.546875 0.296875 -0.953125 0.6875q-0.390625 0.375 -0.625 0.84375q-0.234375 0.453125 -0.234375 1.0q0 0.6875 0.359375 1.1875q0.359375 0.5 1.015625 0.78125q0.671875 0.265625 1.546875 0.265625zm11.890671 1.75q-1.34375 0 -2.359375 -0.453125q-1.0 -0.453125 -1.703125 -1.078125l1.3125 -1.484375q0.5 0.421875 1.171875 0.71875q0.671875 0.296875 1.390625 0.296875q1.0 0 1.8125 -0.5q0.828125 -0.515625 1.34375 -1.703125q0.53125 -1.203125 0.53125 -3.25q0 -1.671875 -0.390625 -2.7187495q-0.390625 -1.0625 -1.078125 -1.53125q-0.6875 -0.484375 -1.578125 -0.484375q-0.65625 0 -1.234375 0.296875q-0.5625 0.296875 -0.90625 0.859375q-0.328125 0.5625 -0.328125 1.390625q0 1.2187495 0.640625 1.8281245q0.65625 0.609375 1.8125 0.609375q0.71875 0 1.515625 -0.375q0.796875 -0.390625 1.546875 -1.3125l0.109375 1.734375q-0.796875 0.78125 -1.78125 1.25q-0.96875 0.46875 -1.890625 0.46875q-1.234375 0 -2.1875 -0.453125q-0.9375 -0.453125 -1.484375 -1.375q-0.546875 -0.9375 -0.546875 -2.3749995q0 -1.34375 0.640625 -2.34375q0.65625 -1.0 1.734375 -1.546875q1.078125 -0.546875 2.3125 -0.546875q1.09375 0 2.046875 0.40625q0.96875 0.390625 1.703125 1.203125q0.75 0.8125 1.171875 2.0625q0.4375 1.2343745 0.4375 2.9531245q0 1.984375 -0.484375 3.40625q-0.484375 1.40625 -1.296875 2.3125q-0.796875 0.890625 -1.84375 1.3125q-1.03125 0.421875 -2.140625 0.421875zm13.640671 0q-0.90625 0 -1.515625 -0.609375q-0.609375 -0.625 -0.609375 -1.53125q0 -0.953125 0.609375 -1.546875q0.609375 -0.609375 1.515625 -0.609375q0.90625 0 1.5 0.609375q0.609375 0.59375 0.609375 1.546875q0 0.90625 -0.609375 1.53125q-0.59375 0.609375 -1.5 0.609375zm8.265671 -0.25l0 -2.0l3.78125 0l0 -8.921875l-3.015625 0l0 -1.53125q0.859375 -0.125 1.5 -0.265625q0.640625 -0.15625 1.15625 -0.375q0.53125 -0.21875 1.015625 -0.46875l1.796875 0l0 11.5625l3.328125 0l0 2.0l-9.5625 0z" fill-rule="nonzero"/><path fill="#595959" d="m104.515724 21.840294l-0.640625 -1.46875q1.40625 -0.546875 2.078125 -1.390625q0.671875 -0.84375 0.65625 -2.015625l-0.265625 -2.265625l1.265625 1.921875q-0.28125 0.28125 -0.609375 0.390625q-0.328125 0.09375 -0.6875 0.09375q-0.546875 0 -1.0 -0.203125q-0.453125 -0.21875 -0.734375 -0.640625q-0.28125 -0.421875 -0.28125 -1.046875q0 -0.875 0.609375 -1.390625q0.609375 -0.515625 1.4375 -0.515625q1.15625 0 1.734375 0.859375q0.578125 0.859375 0.578125 2.34375q0 1.9375 -1.078125 3.296875q-1.078125 1.375 -3.0625 2.03125z" fill-rule="nonzero"/><path fill="#990055" d="m151.07805 17.512169q-1.5625 0 -2.6875 -0.46875q-1.125 -0.484375 -1.75 -1.328125q-0.625 -0.84375 -0.625 -1.921875q0 -0.875 0.390625 -1.53125q0.40625 -0.65625 1.015625 -1.125q0.625 -0.484375 1.34375 -0.828125l0 -0.078125q-0.84375 -0.5625 -1.4375 -1.34375q-0.578125 -0.78125 -0.578125 -1.8437495q0 -1.078125 0.5625 -1.90625q0.5625 -0.828125 1.546875 -1.265625q1.0 -0.4375 2.28125 -0.4375q2.03125 0 3.1875 1.015625q1.15625 1.015625 1.15625 2.65625q0 0.9374995 -0.59375 1.7499995q-0.59375 0.796875 -1.421875 1.34375l0 0.09375q0.75 0.359375 1.328125 0.828125q0.59375 0.453125 0.9375 1.109375q0.359375 0.65625 0.359375 1.59375q0 1.046875 -0.59375 1.890625q-0.578125 0.828125 -1.703125 1.3125q-1.125 0.484375 -2.71875 0.484375zm1.0 -7.90625q1.34375 -1.09375 1.34375 -2.3437495q0 -0.59375 -0.265625 -1.0625q-0.265625 -0.46875 -0.796875 -0.734375q-0.515625 -0.28125 -1.265625 -0.28125q-0.9375 0 -1.5625 0.5q-0.609375 0.484375 -0.609375 1.359375q0 0.6875 0.40625 1.1562495q0.421875 0.453125 1.140625 0.78125q0.71875 0.328125 1.609375 0.625zm-0.953125 6.15625q1.234375 0 1.9375 -0.53125q0.703125 -0.53125 0.703125 -1.484375q0 -0.578125 -0.28125 -0.984375q-0.28125 -0.40625 -0.796875 -0.703125q-0.5 -0.296875 -1.1875 -0.546875q-0.6875 -0.25 -1.484375 -0.515625q-0.546875 0.296875 -0.953125 0.6875q-0.390625 0.375 -0.625 0.84375q-0.234375 0.453125 -0.234375 1.0q0 0.6875 0.359375 1.1875q0.359375 0.5 1.015625 0.78125q0.671875 0.265625 1.546875 0.265625zm10.781296 1.5q0.09375 -1.8125 0.359375 -3.328125q0.265625 -1.515625 0.75 -2.84375q0.5 -1.328125 1.265625 -2.625q0.78125 -1.3124995 1.890625 -2.7031245l-7.3125 0l0 -2.0625l10.03125 0l0 1.484375q-1.328125 1.5 -2.15625 2.8437495q-0.828125 1.328125 -1.3125 2.703125q-0.484375 1.375 -0.703125 2.953125q-0.203125 1.578125 -0.3125 3.578125l-2.5 0zm14.750046 0.25q-0.90625 0 -1.515625 -0.609375q-0.609375 -0.625 -0.609375 -1.53125q0 -0.953125 0.609375 -1.546875q0.609375 -0.609375 1.515625 -0.609375q0.90625 0 1.5 0.609375q0.609375 0.59375 0.609375 1.546875q0 0.90625 -0.609375 1.53125q-0.59375 0.609375 -1.5 0.609375zm8.265671 -0.25l0 -2.0l3.78125 0l0 -8.921875l-3.015625 0l0 -1.53125q0.859375 -0.125 1.5 -0.265625q0.640625 -0.15625 1.15625 -0.375q0.53125 -0.21875 1.015625 -0.46875l1.796875 0l0 11.5625l3.328125 0l0 2.0l-9.5625 0z" fill-rule="nonzero"/><path fill="#595959" d="m200.51573 21.840294l-0.640625 -1.46875q1.40625 -0.546875 2.078125 -1.390625q0.671875 -0.84375 0.65625 -2.015625l-0.265625 -2.265625l1.265625 1.921875q-0.28125 0.28125 -0.609375 0.390625q-0.328125 0.09375 -0.6875 0.09375q-0.546875 0 -1.0 -0.203125q-0.453125 -0.21875 -0.734375 -0.640625q-0.28125 -0.421875 -0.28125 -1.046875q0 -0.875 0.609375 -1.390625q0.609375 -0.515625 1.4375 -0.515625q1.15625 0 1.734375 0.859375q0.578125 0.859375 0.578125 2.34375q0 1.9375 -1.078125 3.296875q-1.078125 1.375 -3.0625 2.03125z" fill-rule="nonzero"/><path fill="#669900" d="m246.21867 17.512169q-1.34375 0 -2.359375 -0.453125q-1.0 -0.453125 -1.703125 -1.078125l1.3125 -1.484375q0.5 0.421875 1.171875 0.71875q0.671875 0.296875 1.390625 0.296875q1.0 0 1.8125 -0.5q0.828125 -0.515625 1.34375 -1.703125q0.53125 -1.203125 0.53125 -3.25q0 -1.671875 -0.390625 -2.7187495q-0.390625 -1.0625 -1.078125 -1.53125q-0.6875 -0.484375 -1.578125 -0.484375q-0.65625 0 -1.234375 0.296875q-0.5625 0.296875 -0.90625 0.859375q-0.328125 0.5625 -0.328125 1.390625q0 1.2187495 0.640625 1.8281245q0.65625 0.609375 1.8125 0.609375q0.71875 0 1.515625 -0.375q0.796875 -0.390625 1.546875 -1.3125l0.109375 1.734375q-0.796875 0.78125 -1.78125 1.25q-0.96875 0.46875 -1.890625 0.46875q-1.234375 0 -2.1875 -0.453125q-0.9375 -0.453125 -1.484375 -1.375q-0.546875 -0.9375 -0.546875 -2.3749995q0 -1.34375 0.640625 -2.34375q0.65625 -1.0 1.734375 -1.546875q1.078125 -0.546875 2.3125 -0.546875q1.09375 0 2.046875 0.40625q0.96875 0.390625 1.703125 1.203125q0.75 0.8125 1.171875 2.0625q0.4375 1.2343745 0.4375 2.9531245q0 1.984375 -0.484375 3.40625q-0.484375 1.40625 -1.296875 2.3125q-0.796875 0.890625 -1.84375 1.3125q-1.03125 0.421875 -2.140625 0.421875zm13.640671 0q-1.546875 0 -2.671875 -0.828125q-1.125 -0.828125 -1.7499847 -2.40625q-0.625 -1.578125 -0.625 -3.859375q0 -3.4374995 1.3593597 -5.2031245q1.375 -1.78125 3.6875 -1.78125q2.3125 0 3.671875 1.78125q1.359375 1.765625 1.359375 5.2031245q0 2.28125 -0.609375 3.859375q-0.609375 1.578125 -1.75 2.40625q-1.125 0.828125 -2.671875 0.828125zm0 -1.90625q0.796875 0 1.4375 -0.515625q0.640625 -0.53125 1.0 -1.671875q0.375 -1.140625 0.375 -3.0q0 -1.859375 -0.375 -2.9687495q-0.359375 -1.109375 -1.0 -1.59375q-0.640625 -0.5 -1.4375 -0.5q-0.8125 0 -1.453125 0.5q-0.640625 0.484375 -1.015625 1.59375q-0.359375 1.1093745 -0.359375 2.9687495q0 1.859375 0.359375 3.0q0.375 1.140625 1.015625 1.671875q0.640625 0.515625 1.453125 0.515625zm0 -3.765625q-0.609375 0 -1.046875 -0.40625q-0.4375 -0.40625 -0.4375 -1.109375q0 -0.703125 0.4375 -1.109375q0.4375 -0.40625 1.046875 -0.40625q0.609375 0 1.03125 0.40625q0.4375 0.40625 0.4375 1.109375q0 0.703125 -0.4375 1.109375q-0.421875 0.40625 -1.03125 0.40625zm12.7969055 5.671875q-0.90625 0 -1.515625 -0.609375q-0.609375 -0.625 -0.609375 -1.53125q0 -0.953125 0.609375 -1.546875q0.609375 -0.609375 1.515625 -0.609375q0.90625 0 1.5 0.609375q0.609375 0.59375 0.609375 1.546875q0 0.90625 -0.609375 1.53125q-0.59375 0.609375 -1.5 0.609375zm8.2656555 -0.25l0 -2.0l3.78125 0l0 -8.921875l-3.015625 0l0 -1.53125q0.859375 -0.125 1.5 -0.265625q0.640625 -0.15625 1.15625 -0.375q0.53125 -0.21875 1.015625 -0.46875l1.796875 0l0 11.5625l3.328125 0l0 2.0l-9.5625 0z" fill-rule="nonzero"/><path fill="#595959" d="m296.51572 21.840294l-0.640625 -1.46875q1.40625 -0.546875 2.078125 -1.390625q0.671875 -0.84375 0.65625 -2.015625l-0.265625 -2.265625l1.265625 1.921875q-0.28125 0.28125 -0.609375 0.390625q-0.328125 0.09375 -0.6875 0.09375q-0.546875 0 -1.0 -0.203125q-0.453125 -0.21875 -0.734375 -0.640625q-0.28125 -0.421875 -0.28125 -1.046875q0 -0.875 0.609375 -1.390625q0.609375 -0.515625 1.4375 -0.515625q1.15625 0 1.734375 0.859375q0.578125 0.859375 0.578125 2.34375q0 1.9375 -1.078125 3.296875q-1.078125 1.375 -3.0625 2.03125z" fill-rule="nonzero"/><path fill="#ff00ff" d="m342.21866 17.512169q-1.34375 0 -2.359375 -0.453125q-1.0 -0.453125 -1.703125 -1.078125l1.3125 -1.484375q0.5 0.421875 1.171875 0.71875q0.671875 0.296875 1.390625 0.296875q1.0 0 1.8125 -0.5q0.828125 -0.515625 1.34375 -1.703125q0.53125 -1.203125 0.53125 -3.25q0 -1.671875 -0.390625 -2.7187495q-0.390625 -1.0625 -1.078125 -1.53125q-0.6875 -0.484375 -1.578125 -0.484375q-0.65625 0 -1.234375 0.296875q-0.5625 0.296875 -0.90625 0.859375q-0.328125 0.5625 -0.328125 1.390625q0 1.2187495 0.640625 1.8281245q0.65625 0.609375 1.8125 0.609375q0.71875 0 1.515625 -0.375q0.796875 -0.390625 1.546875 -1.3125l0.109375 1.734375q-0.796875 0.78125 -1.78125 1.25q-0.96875 0.46875 -1.890625 0.46875q-1.234375 0 -2.1875 -0.453125q-0.9375 -0.453125 -1.484375 -1.375q-0.546875 -0.9375 -0.546875 -2.3749995q0 -1.34375 0.640625 -2.34375q0.65625 -1.0 1.734375 -1.546875q1.078125 -0.546875 2.3125 -0.546875q1.09375 0 2.046875 0.40625q0.96875 0.390625 1.703125 1.203125q0.75 0.8125 1.171875 2.0625q0.4375 1.2343745 0.4375 2.9531245q0 1.984375 -0.484375 3.40625q-0.484375 1.40625 -1.296875 2.3125q-0.796875 0.890625 -1.84375 1.3125q-1.03125 0.421875 -2.140625 0.421875zm11.687561 -0.25q0.09375 -1.8125 0.359375 -3.328125q0.265625 -1.515625 0.75 -2.84375q0.5 -1.328125 1.265625 -2.625q0.78125 -1.3124995 1.890625 -2.7031245l-7.3125 0l0 -2.0625l10.03125 0l0 1.484375q-1.328125 1.5 -2.15625 2.8437495q-0.828125 1.328125 -1.3125 2.703125q-0.484375 1.375 -0.703125 2.953125q-0.203125 1.578125 -0.3125 3.578125l-2.5 0zm14.7500305 0.25q-0.90625 0 -1.515625 -0.609375q-0.609375 -0.625 -0.609375 -1.53125q0 -0.953125 0.609375 -1.546875q0.609375 -0.609375 1.515625 -0.609375q0.90625 0 1.5 0.609375q0.609375 0.59375 0.609375 1.546875q0 0.90625 -0.609375 1.53125q-0.59375 0.609375 -1.5 0.609375zm13.9375305 -0.25l0 -8.640625q0.03125 -0.59375 0.0625 -1.3437495q0.046875 -0.75 0.0625 -1.34375l-0.09375 0q-0.34375 0.53125 -0.71875 1.078125q-0.375 0.53125 -0.71875 1.0781245l-2.859375 3.78125l8.484375 0l0 1.890625l-10.96875 0l0 -1.65625l6.21875 -8.4375l2.84375 0l0 13.59375l-2.3125 0z" fill-rule="nonzero"/><path fill="#595959" d="m392.51572 21.840294l-0.640625 -1.46875q1.40625 -0.546875 2.078125 -1.390625q0.671875 -0.84375 0.65625 -2.015625l-0.265625 -2.265625l1.265625 1.921875q-0.28125 0.28125 -0.609375 0.390625q-0.328125 0.09375 -0.6875 0.09375q-0.546875 0 -1.0 -0.203125q-0.453125 -0.21875 -0.734375 -0.640625q-0.28125 -0.421875 -0.28125 -1.046875q0 -0.875 0.609375 -1.390625q0.609375 -0.515625 1.4375 -0.515625q1.15625 0 1.734375 0.859375q0.578125 0.859375 0.578125 2.34375q0 1.9375 -1.078125 3.296875q-1.078125 1.375 -3.0625 2.03125z" fill-rule="nonzero"/><path fill="#ff00ff" d="m438.21866 17.512169q-1.34375 0 -2.359375 -0.453125q-1.0 -0.453125 -1.703125 -1.078125l1.3125 -1.484375q0.5 0.421875 1.171875 0.71875q0.671875 0.296875 1.390625 0.296875q1.0 0 1.8125 -0.5q0.828125 -0.515625 1.34375 -1.703125q0.53125 -1.203125 0.53125 -3.25q0 -1.671875 -0.390625 -2.7187495q-0.390625 -1.0625 -1.078125 -1.53125q-0.6875 -0.484375 -1.578125 -0.484375q-0.65625 0 -1.234375 0.296875q-0.5625 0.296875 -0.90625 0.859375q-0.328125 0.5625 -0.328125 1.390625q0 1.2187495 0.640625 1.8281245q0.65625 0.609375 1.8125 0.609375q0.71875 0 1.515625 -0.375q0.796875 -0.390625 1.546875 -1.3125l0.109375 1.734375q-0.796875 0.78125 -1.78125 1.25q-0.96875 0.46875 -1.890625 0.46875q-1.234375 0 -2.1875 -0.453125q-0.9375 -0.453125 -1.484375 -1.375q-0.546875 -0.9375 -0.546875 -2.3749995q0 -1.34375 0.640625 -2.34375q0.65625 -1.0 1.734375 -1.546875q1.078125 -0.546875 2.3125 -0.546875q1.09375 0 2.046875 0.40625q0.96875 0.390625 1.703125 1.203125q0.75 0.8125 1.171875 2.0625q0.4375 1.2343745 0.4375 2.9531245q0 1.984375 -0.484375 3.40625q-0.484375 1.40625 -1.296875 2.3125q-0.796875 0.890625 -1.84375 1.3125q-1.03125 0.421875 -2.140625 0.421875zm12.796936 0q-1.34375 0 -2.359375 -0.453125q-1.0 -0.453125 -1.703125 -1.078125l1.3125 -1.484375q0.5 0.421875 1.171875 0.71875q0.671875 0.296875 1.390625 0.296875q1.0 0 1.8125 -0.5q0.828125 -0.515625 1.34375 -1.703125q0.53125 -1.203125 0.53125 -3.25q0 -1.671875 -0.390625 -2.7187495q-0.390625 -1.0625 -1.078125 -1.53125q-0.6875 -0.484375 -1.578125 -0.484375q-0.65625 0 -1.234375 0.296875q-0.5625 0.296875 -0.90625 0.859375q-0.328125 0.5625 -0.328125 1.390625q0 1.2187495 0.640625 1.8281245q0.65625 0.609375 1.8125 0.609375q0.71875 0 1.515625 -0.375q0.796875 -0.390625 1.546875 -1.3125l0.109375 1.734375q-0.796875 0.78125 -1.78125 1.25q-0.96875 0.46875 -1.890625 0.46875q-1.234375 0 -2.1875 -0.453125q-0.9375 -0.453125 -1.484375 -1.375q-0.546875 -0.9375 -0.546875 -2.3749995q0 -1.34375 0.640625 -2.34375q0.65625 -1.0 1.734375 -1.546875q1.078125 -0.546875 2.3125 -0.546875q1.09375 0 2.046875 0.40625q0.96875 0.390625 1.703125 1.203125q0.75 0.8125 1.171875 2.0625q0.4375 1.2343745 0.4375 2.9531245q0 1.984375 -0.484375 3.40625q-0.484375 1.40625 -1.296875 2.3125q-0.796875 0.890625 -1.84375 1.3125q-1.03125 0.421875 -2.140625 0.421875zm13.6406555 0q-0.90625 0 -1.515625 -0.609375q-0.609375 -0.625 -0.609375 -1.53125q0 -0.953125 0.609375 -1.546875q0.609375 -0.609375 1.515625 -0.609375q0.90625 0 1.5 0.609375q0.609375 0.59375 0.609375 1.546875q0 0.90625 -0.609375 1.53125q-0.59375 0.609375 -1.5 0.609375zm8.2656555 -0.25l0 -2.0l3.78125 0l0 -8.921875l-3.015625 0l0 -1.53125q0.859375 -0.125 1.5 -0.265625q0.640625 -0.15625 1.15625 -0.375q0.53125 -0.21875 1.015625 -0.46875l1.796875 0l0 11.5625l3.328125 0l0 2.0l-9.5625 0z" fill-rule="nonzero"/><path fill="#595959" d="m488.51572 21.840294l-0.640625 -1.46875q1.40625 -0.546875 2.078125 -1.390625q0.671875 -0.84375 0.65625 -2.015625l-0.265625 -2.265625l1.265625 1.921875q-0.28125 0.28125 -0.609375 0.390625q-0.328125 0.09375 -0.6875 0.09375q-0.546875 0 -1.0 -0.203125q-0.453125 -0.21875 -0.734375 -0.640625q-0.28125 -0.421875 -0.28125 -1.046875q0 -0.875 0.609375 -1.390625q0.609375 -0.515625 1.4375 -0.515625q1.15625 0 1.734375 0.859375q0.578125 0.859375 0.578125 2.34375q0 1.9375 -1.078125 3.296875q-1.078125 1.375 -3.0625 2.03125z" fill-rule="nonzero"/><path fill="#ff00ff" d="m530.5312 17.262169l0 -2.0l3.78125 0l0 -8.921875l-3.015625 0l0 -1.53125q0.859375 -0.125 1.5 -0.265625q0.640625 -0.15625 1.15625 -0.375q0.53125 -0.21875 1.015625 -0.46875l1.796875 0l0 11.5625l3.328125 0l0 2.0l-9.5625 0zm17.328186 0.25q-1.546875 0 -2.671875 -0.828125q-1.125 -0.828125 -1.75 -2.40625q-0.625 -1.578125 -0.625 -3.859375q0 -3.4374995 1.359375 -5.2031245q1.375 -1.78125 3.6875 -1.78125q2.3125 0 3.671875 1.78125q1.359375 1.765625 1.359375 5.2031245q0 2.28125 -0.609375 3.859375q-0.609375 1.578125 -1.75 2.40625q-1.125 0.828125 -2.671875 0.828125zm0 -1.90625q0.796875 0 1.4375 -0.515625q0.640625 -0.53125 1.0 -1.671875q0.375 -1.140625 0.375 -3.0q0 -1.859375 -0.375 -2.9687495q-0.359375 -1.109375 -1.0 -1.59375q-0.640625 -0.5 -1.4375 -0.5q-0.8125 0 -1.453125 0.5q-0.640625 0.484375 -1.015625 1.59375q-0.359375 1.1093745 -0.359375 2.9687495q0 1.859375 0.359375 3.0q0.375 1.140625 1.015625 1.671875q0.640625 0.515625 1.453125 0.515625zm0 -3.765625q-0.609375 0 -1.046875 -0.40625q-0.4375 -0.40625 -0.4375 -1.109375q0 -0.703125 0.4375 -1.109375q0.4375 -0.40625 1.046875 -0.40625q0.609375 0 1.03125 0.40625q0.4375 0.40625 0.4375 1.109375q0 0.703125 -0.4375 1.109375q-0.421875 0.40625 -1.03125 0.40625zm12.796936 5.671875q-1.546875 0 -2.671875 -0.828125q-1.125 -0.828125 -1.75 -2.40625q-0.625 -1.578125 -0.625 -3.859375q0 -3.4374995 1.359375 -5.2031245q1.375 -1.78125 3.6875 -1.78125q2.3125 0 3.671875 1.78125q1.359375 1.765625 1.359375 5.2031245q0 2.28125 -0.609375 3.859375q-0.609375 1.578125 -1.75 2.40625q-1.125 0.828125 -2.671875 0.828125zm0 -1.90625q0.796875 0 1.4375 -0.515625q0.640625 -0.53125 1.0 -1.671875q0.375 -1.140625 0.375 -3.0q0 -1.859375 -0.375 -2.9687495q-0.359375 -1.109375 -1.0 -1.59375q-0.640625 -0.5 -1.4375 -0.5q-0.8125 0 -1.453125 0.5q-0.640625 0.484375 -1.015625 1.59375q-0.359375 1.1093745 -0.359375 2.9687495q0 1.859375 0.359375 3.0q0.375 1.140625 1.015625 1.671875q0.640625 0.515625 1.453125 0.515625zm0 -3.765625q-0.609375 0 -1.046875 -0.40625q-0.4375 -0.40625 -0.4375 -1.109375q0 -0.703125 0.4375 -1.109375q0.4375 -0.40625 1.046875 -0.40625q0.609375 0 1.03125 0.40625q0.4375 0.40625 0.4375 1.109375q0 0.703125 -0.4375 1.109375q-0.421875 0.40625 -1.03125 0.40625zm12.796875 5.671875q-0.90625 0 -1.515625 -0.609375q-0.609375 -0.625 -0.609375 -1.53125q0 -0.953125 0.609375 -1.546875q0.609375 -0.609375 1.515625 -0.609375q0.90625 0 1.5 0.609375q0.609375 0.59375 0.609375 1.546875q0 0.90625 -0.609375 1.53125q-0.59375 0.609375 -1.5 0.609375zm12.796936 0q-1.546875 0 -2.671875 -0.828125q-1.125 -0.828125 -1.75 -2.40625q-0.625 -1.578125 -0.625 -3.859375q0 -3.4374995 1.359375 -5.2031245q1.375 -1.78125 3.6875 -1.78125q2.3125 0 3.671875 1.78125q1.359375 1.765625 1.359375 5.2031245q0 2.28125 -0.609375 3.859375q-0.609375 1.578125 -1.75 2.40625q-1.125 0.828125 -2.671875 0.828125zm0 -1.90625q0.796875 0 1.4375 -0.515625q0.640625 -0.53125 1.0 -1.671875q0.375 -1.140625 0.375 -3.0q0 -1.859375 -0.375 -2.9687495q-0.359375 -1.109375 -1.0 -1.59375q-0.640625 -0.5 -1.4375 -0.5q-0.8125 0 -1.453125 0.5q-0.640625 0.484375 -1.015625 1.59375q-0.359375 1.1093745 -0.359375 2.9687495q0 1.859375 0.359375 3.0q0.375 1.140625 1.015625 1.671875q0.640625 0.515625 1.453125 0.515625zm0 -3.765625q-0.609375 0 -1.046875 -0.40625q-0.4375 -0.40625 -0.4375 -1.109375q0 -0.703125 0.4375 -1.109375q0.4375 -0.40625 1.046875 -0.40625q0.609375 0 1.03125 0.40625q0.4375 0.40625 0.4375 1.109375q0 0.703125 -0.4375 1.109375q-0.421875 0.40625 -1.03125 0.40625z" fill-rule="nonzero"/><path fill="#595959" d="m597.3127 21.840294l-0.640625 -1.46875q1.40625 -0.546875 2.078125 -1.390625q0.671875 -0.84375 0.65625 -2.015625l-0.265625 -2.265625l1.265625 1.921875q-0.28125 0.28125 -0.609375 0.390625q-0.328125 0.09375 -0.6875 0.09375q-0.546875 0 -1.0 -0.203125q-0.453125 -0.21875 -0.734375 -0.640625q-0.28125 -0.421875 -0.28125 -1.046875q0 -0.875 0.609375 -1.390625q0.609375 -0.515625 1.4375 -0.515625q1.15625 0 1.734375 0.859375q0.578125 0.859375 0.578125 2.34375q0 1.9375 -1.078125 3.296875q-1.078125 1.375 -3.0625 2.03125z" fill-rule="nonzero"/><path fill="#ffab40" d="m631.07806 17.512169q-1.5625 0 -2.6875 -0.46875q-1.125 -0.484375 -1.75 -1.328125q-0.625 -0.84375 -0.625 -1.921875q0 -0.875 0.390625 -1.53125q0.40625 -0.65625 1.015625 -1.125q0.625 -0.484375 1.34375 -0.828125l0 -0.078125q-0.84375 -0.5625 -1.4375 -1.34375q-0.578125 -0.78125 -0.578125 -1.8437495q0 -1.078125 0.5625 -1.90625q0.5625 -0.828125 1.546875 -1.265625q1.0 -0.4375 2.28125 -0.4375q2.03125 0 3.1875 1.015625q1.15625 1.015625 1.15625 2.65625q0 0.9374995 -0.59375 1.7499995q-0.59375 0.796875 -1.421875 1.34375l0 0.09375q0.75 0.359375 1.328125 0.828125q0.59375 0.453125 0.9375 1.109375q0.359375 0.65625 0.359375 1.59375q0 1.046875 -0.59375 1.890625q-0.578125 0.828125 -1.703125 1.3125q-1.125 0.484375 -2.71875 0.484375zm1.0 -7.90625q1.34375 -1.09375 1.34375 -2.3437495q0 -0.59375 -0.265625 -1.0625q-0.265625 -0.46875 -0.796875 -0.734375q-0.515625 -0.28125 -1.265625 -0.28125q-0.9375 0 -1.5625 0.5q-0.609375 0.484375 -0.609375 1.359375q0 0.6875 0.40625 1.1562495q0.421875 0.453125 1.140625 0.78125q0.71875 0.328125 1.609375 0.625zm-0.953125 6.15625q1.234375 0 1.9375 -0.53125q0.703125 -0.53125 0.703125 -1.484375q0 -0.578125 -0.28125 -0.984375q-0.28125 -0.40625 -0.796875 -0.703125q-0.5 -0.296875 -1.1875 -0.546875q-0.6875 -0.25 -1.484375 -0.515625q-0.546875 0.296875 -0.953125 0.6875q-0.390625 0.375 -0.625 0.84375q-0.234375 0.453125 -0.234375 1.0q0 0.6875 0.359375 1.1875q0.359375 0.5 1.015625 0.78125q0.671875 0.265625 1.546875 0.265625zm13.875061 1.5l0 -8.640625q0.03125 -0.59375 0.0625 -1.3437495q0.046875 -0.75 0.0625 -1.34375l-0.09375 0q-0.34375 0.53125 -0.71875 1.078125q-0.375 0.53125 -0.71875 1.0781245l-2.859375 3.78125l8.484375 0l0 1.890625l-10.96875 0l0 -1.65625l6.21875 -8.4375l2.84375 0l0 13.59375l-2.3125 0zm11.656311 0.25q-0.90625 0 -1.515625 -0.609375q-0.609375 -0.625 -0.609375 -1.53125q0 -0.953125 0.609375 -1.546875q0.609375 -0.609375 1.515625 -0.609375q0.90625 0 1.5 0.609375q0.609375 0.59375 0.609375 1.546875q0 0.90625 -0.609375 1.53125q-0.59375 0.609375 -1.5 0.609375zm8.265625 -0.25l0 -2.0l3.78125 0l0 -8.921875l-3.015625 0l0 -1.53125q0.859375 -0.125 1.5 -0.265625q0.640625 -0.15625 1.15625 -0.375q0.53125 -0.21875 1.015625 -0.46875l1.796875 0l0 11.5625l3.328125 0l0 2.0l-9.5625 0z" fill-rule="nonzero"/><path fill="#595959" d="m680.51575 21.840294l-0.640625 -1.46875q1.40625 -0.546875 2.078125 -1.390625q0.671875 -0.84375 0.65625 -2.015625l-0.265625 -2.265625l1.265625 1.921875q-0.28125 0.28125 -0.609375 0.390625q-0.328125 0.09375 -0.6875 0.09375q-0.546875 0 -1.0 -0.203125q-0.453125 -0.21875 -0.734375 -0.640625q-0.28125 -0.421875 -0.28125 -1.046875q0 -0.875 0.609375 -1.390625q0.609375 -0.515625 1.4375 -0.515625q1.15625 0 1.734375 0.859375q0.578125 0.859375 0.578125 2.34375q0 1.9375 -1.078125 3.296875q-1.078125 1.375 -3.0625 2.03125z" fill-rule="nonzero"/><path fill="#990055" d="m727.07806 17.512169q-1.5625 0 -2.6875 -0.46875q-1.125 -0.484375 -1.75 -1.328125q-0.625 -0.84375 -0.625 -1.921875q0 -0.875 0.390625 -1.53125q0.40625 -0.65625 1.015625 -1.125q0.625 -0.484375 1.34375 -0.828125l0 -0.078125q-0.84375 -0.5625 -1.4375 -1.34375q-0.578125 -0.78125 -0.578125 -1.8437495q0 -1.078125 0.5625 -1.90625q0.5625 -0.828125 1.546875 -1.265625q1.0 -0.4375 2.28125 -0.4375q2.03125 0 3.1875 1.015625q1.15625 1.015625 1.15625 2.65625q0 0.9374995 -0.59375 1.7499995q-0.59375 0.796875 -1.421875 1.34375l0 0.09375q0.75 0.359375 1.328125 0.828125q0.59375 0.453125 0.9375 1.109375q0.359375 0.65625 0.359375 1.59375q0 1.046875 -0.59375 1.890625q-0.578125 0.828125 -1.703125 1.3125q-1.125 0.484375 -2.71875 0.484375zm1.0 -7.90625q1.34375 -1.09375 1.34375 -2.3437495q0 -0.59375 -0.265625 -1.0625q-0.265625 -0.46875 -0.796875 -0.734375q-0.515625 -0.28125 -1.265625 -0.28125q-0.9375 0 -1.5625 0.5q-0.609375 0.484375 -0.609375 1.359375q0 0.6875 0.40625 1.1562495q0.421875 0.453125 1.140625 0.78125q0.71875 0.328125 1.609375 0.625zm-0.953125 6.15625q1.234375 0 1.9375 -0.53125q0.703125 -0.53125 0.703125 -1.484375q0 -0.578125 -0.28125 -0.984375q-0.28125 -0.40625 -0.796875 -0.703125q-0.5 -0.296875 -1.1875 -0.546875q-0.6875 -0.25 -1.484375 -0.515625q-0.546875 0.296875 -0.953125 0.6875q-0.390625 0.375 -0.625 0.84375q-0.234375 0.453125 -0.234375 1.0q0 0.6875 0.359375 1.1875q0.359375 0.5 1.015625 0.78125q0.671875 0.265625 1.546875 0.265625zm11.890686 1.75q-1.34375 0 -2.359375 -0.453125q-1.0 -0.453125 -1.703125 -1.078125l1.3125 -1.484375q0.5 0.421875 1.171875 0.71875q0.671875 0.296875 1.390625 0.296875q1.0 0 1.8125 -0.5q0.828125 -0.515625 1.34375 -1.703125q0.53125 -1.203125 0.53125 -3.25q0 -1.671875 -0.390625 -2.7187495q-0.390625 -1.0625 -1.078125 -1.53125q-0.6875 -0.484375 -1.578125 -0.484375q-0.65625 0 -1.234375 0.296875q-0.5625 0.296875 -0.90625 0.859375q-0.328125 0.5625 -0.328125 1.390625q0 1.2187495 0.640625 1.8281245q0.65625 0.609375 1.8125 0.609375q0.71875 0 1.515625 -0.375q0.796875 -0.390625 1.546875 -1.3125l0.109375 1.734375q-0.796875 0.78125 -1.78125 1.25q-0.96875 0.46875 -1.890625 0.46875q-1.234375 0 -2.1875 -0.453125q-0.9375 -0.453125 -1.484375 -1.375q-0.546875 -0.9375 -0.546875 -2.3749995q0 -1.34375 0.640625 -2.34375q0.65625 -1.0 1.734375 -1.546875q1.078125 -0.546875 2.3125 -0.546875q1.09375 0 2.046875 0.40625q0.96875 0.390625 1.703125 1.203125q0.75 0.8125 1.171875 2.0625q0.4375 1.2343745 0.4375 2.9531245q0 1.984375 -0.484375 3.40625q-0.484375 1.40625 -1.296875 2.3125q-0.796875 0.890625 -1.84375 1.3125q-1.03125 0.421875 -2.140625 0.421875zm13.640686 0q-0.90625 0 -1.515625 -0.609375q-0.609375 -0.625 -0.609375 -1.53125q0 -0.953125 0.609375 -1.546875q0.609375 -0.609375 1.515625 -0.609375q0.90625 0 1.5 0.609375q0.609375 0.59375 0.609375 1.546875q0 0.90625 -0.609375 1.53125q-0.59375 0.609375 -1.5 0.609375zm13.9375 -0.25l0 -8.640625q0.03125 -0.59375 0.0625 -1.3437495q0.046875 -0.75 0.0625 -1.34375l-0.09375 0q-0.34375 0.53125 -0.71875 1.078125q-0.375 0.53125 -0.71875 1.0781245l-2.859375 3.78125l8.484375 0l0 1.890625l-10.96875 0l0 -1.65625l6.21875 -8.4375l2.84375 0l0 13.59375l-2.3125 0z" fill-rule="nonzero"/><path fill="#669900" d="m54.218666 55.912167q-1.34375 0 -2.359375 -0.453125q-1.0 -0.453125 -1.703125 -1.078125l1.3125 -1.484375q0.5 0.421875 1.171875 0.71875q0.671875 0.296875 1.390625 0.296875q1.0 0 1.8125 -0.5q0.828125 -0.515625 1.34375 -1.703125q0.53125 -1.203125 0.53125 -3.25q0 -1.671875 -0.390625 -2.71875q-0.390625 -1.0625 -1.078125 -1.53125q-0.6875 -0.484375 -1.578125 -0.484375q-0.65625 0 -1.234375 0.296875q-0.5625 0.296875 -0.90625 0.859375q-0.328125 0.5625 -0.328125 1.390625q0 1.21875 0.640625 1.828125q0.65625 0.609375 1.8125 0.609375q0.71875 0 1.515625 -0.375q0.796875 -0.390625 1.546875 -1.3125l0.109375 1.734375q-0.796875 0.78125 -1.78125 1.25q-0.96875 0.46875 -1.890625 0.46875q-1.234375 0 -2.1875 -0.453125q-0.9375 -0.453125 -1.484375 -1.375q-0.546875 -0.9375 -0.546875 -2.375q0 -1.34375 0.640625 -2.34375q0.65625 -1.0 1.734375 -1.546875q1.078125 -0.546875 2.3125 -0.546875q1.09375 0 2.046875 0.40625q0.96875 0.390625 1.703125 1.203125q0.75 0.8125 1.171875 2.0625q0.4375 1.234375 0.4375 2.953125q0 1.984375 -0.484375 3.40625q-0.484375 1.40625 -1.296875 2.3125q-0.796875 0.890625 -1.84375 1.3125q-1.03125 0.421875 -2.140625 0.421875zm8.625046 -0.25l0 -1.421875q2.125 -1.84375 3.640625 -3.265625q1.53125 -1.4375 2.359375 -2.609375q0.828125 -1.1875 0.828125 -2.234375q0 -1.09375 -0.671875 -1.71875q-0.65625 -0.625 -1.9375 -0.625q-0.875 0 -1.625 0.453125q-0.75 0.4375 -1.359375 1.0625l-1.34375 -1.375q0.984375 -1.0 2.0625 -1.546875q1.09375 -0.546875 2.578125 -0.546875q1.421875 0 2.453125 0.515625q1.03125 0.515625 1.609375 1.453125q0.578125 0.9375 0.578125 2.203125q0 1.1875 -0.75 2.4375q-0.75 1.25 -2.015625 2.546875q-1.265625 1.296875 -2.84375 2.734375q0.59375 -0.0625 1.25 -0.109375q0.671875 -0.046875 1.21875 -0.046875l3.84375 0l0 2.09375l-9.875 0zm17.812546 0.25q-0.90625 0 -1.515625 -0.609375q-0.609375 -0.625 -0.609375 -1.53125q0 -0.953125 0.609375 -1.546875q0.609375 -0.609375 1.515625 -0.609375q0.90625 0 1.5 0.609375q0.609375 0.59375 0.609375 1.546875q0 0.90625 -0.609375 1.53125q-0.59375 0.609375 -1.5 0.609375zm12.421921 0q-1.171875 0 -2.109375 -0.25q-0.921875 -0.25 -1.640625 -0.6875q-0.71875 -0.4375 -1.21875 -0.96875l1.15625 -1.578125q0.6875 0.609375 1.59375 1.046875q0.90625 0.4375 2.015625 0.4375q0.828125 0 1.484375 -0.234375q0.671875 -0.25 1.03125 -0.703125q0.375 -0.46875 0.375 -1.109375q0 -0.703125 -0.421875 -1.21875q-0.421875 -0.515625 -1.40625 -0.796875q-0.984375 -0.28125 -2.671875 -0.28125l0 -1.796875q1.46875 0 2.34375 -0.28125q0.875 -0.296875 1.28125 -0.765625q0.40625 -0.484375 0.40625 -1.125q0 -0.859375 -0.65625 -1.328125q-0.640625 -0.484375 -1.734375 -0.484375q-0.875 0 -1.640625 0.359375q-0.765625 0.34375 -1.453125 0.921875l-1.265625 -1.515625q0.9375 -0.765625 2.046875 -1.234375q1.125 -0.484375 2.421875 -0.484375q1.390625 0 2.46875 0.421875q1.078125 0.421875 1.6875 1.21875q0.609375 0.796875 0.609375 1.953125q0 1.125 -0.75 1.890625q-0.75 0.765625 -2.0 1.21875l0 0.09375q0.890625 0.203125 1.625 0.65625q0.734375 0.453125 1.15625 1.140625q0.4375 0.671875 0.4375 1.5625q0 1.234375 -0.71875 2.125q-0.71875 0.890625 -1.890625 1.34375q-1.15625 0.453125 -2.5625 0.453125z" fill-rule="nonzero"/><path fill="#595959" d="m104.515724 60.24029l-0.640625 -1.46875q1.40625 -0.546875 2.078125 -1.390625q0.671875 -0.84375 0.65625 -2.015625l-0.265625 -2.265625l1.265625 1.921875q-0.28125 0.28125 -0.609375 0.390625q-0.328125 0.09375 -0.6875 0.09375q-0.546875 0 -1.0 -0.203125q-0.453125 -0.21875 -0.734375 -0.640625q-0.28125 -0.421875 -0.28125 -1.046875q0 -0.875 0.609375 -1.390625q0.609375 -0.515625 1.4375 -0.515625q1.15625 0 1.734375 0.859375q0.578125 0.859375 0.578125 2.34375q0 1.9375 -1.078125 3.296875q-1.078125 1.375 -3.0625 2.03125z" fill-rule="nonzero"/><path fill="#ff00ff" d="m150.21867 55.912167q-1.34375 0 -2.359375 -0.453125q-1.0 -0.453125 -1.703125 -1.078125l1.3125 -1.484375q0.5 0.421875 1.171875 0.71875q0.671875 0.296875 1.390625 0.296875q1.0 0 1.8125 -0.5q0.828125 -0.515625 1.34375 -1.703125q0.53125 -1.203125 0.53125 -3.25q0 -1.671875 -0.390625 -2.71875q-0.390625 -1.0625 -1.078125 -1.53125q-0.6875 -0.484375 -1.578125 -0.484375q-0.65625 0 -1.234375 0.296875q-0.5625 0.296875 -0.90625 0.859375q-0.328125 0.5625 -0.328125 1.390625q0 1.21875 0.640625 1.828125q0.65625 0.609375 1.8125 0.609375q0.71875 0 1.515625 -0.375q0.796875 -0.390625 1.546875 -1.3125l0.109375 1.734375q-0.796875 0.78125 -1.78125 1.25q-0.96875 0.46875 -1.890625 0.46875q-1.234375 0 -2.1875 -0.453125q-0.9375 -0.453125 -1.484375 -1.375q-0.546875 -0.9375 -0.546875 -2.375q0 -1.34375 0.640625 -2.34375q0.65625 -1.0 1.734375 -1.546875q1.078125 -0.546875 2.3125 -0.546875q1.09375 0 2.046875 0.40625q0.96875 0.390625 1.703125 1.203125q0.75 0.8125 1.171875 2.0625q0.4375 1.234375 0.4375 2.953125q0 1.984375 -0.484375 3.40625q-0.484375 1.40625 -1.296875 2.3125q-0.796875 0.890625 -1.84375 1.3125q-1.03125 0.421875 -2.140625 0.421875zm12.796921 0q-1.34375 0 -2.359375 -0.453125q-1.0 -0.453125 -1.703125 -1.078125l1.3125 -1.484375q0.5 0.421875 1.171875 0.71875q0.671875 0.296875 1.390625 0.296875q1.0 0 1.8125 -0.5q0.828125 -0.515625 1.34375 -1.703125q0.53125 -1.203125 0.53125 -3.25q0 -1.671875 -0.390625 -2.71875q-0.390625 -1.0625 -1.078125 -1.53125q-0.6875 -0.484375 -1.578125 -0.484375q-0.65625 0 -1.234375 0.296875q-0.5625 0.296875 -0.90625 0.859375q-0.328125 0.5625 -0.328125 1.390625q0 1.21875 0.640625 1.828125q0.65625 0.609375 1.8125 0.609375q0.71875 0 1.515625 -0.375q0.796875 -0.390625 1.546875 -1.3125l0.109375 1.734375q-0.796875 0.78125 -1.78125 1.25q-0.96875 0.46875 -1.890625 0.46875q-1.234375 0 -2.1875 -0.453125q-0.9375 -0.453125 -1.484375 -1.375q-0.546875 -0.9375 -0.546875 -2.375q0 -1.34375 0.640625 -2.34375q0.65625 -1.0 1.734375 -1.546875q1.078125 -0.546875 2.3125 -0.546875q1.09375 0 2.046875 0.40625q0.96875 0.390625 1.703125 1.203125q0.75 0.8125 1.171875 2.0625q0.4375 1.234375 0.4375 2.953125q0 1.984375 -0.484375 3.40625q-0.484375 1.40625 -1.296875 2.3125q-0.796875 0.890625 -1.84375 1.3125q-1.03125 0.421875 -2.140625 0.421875zm13.640671 0q-0.90625 0 -1.515625 -0.609375q-0.609375 -0.625 -0.609375 -1.53125q0 -0.953125 0.609375 -1.546875q0.609375 -0.609375 1.515625 -0.609375q0.90625 0 1.5 0.609375q0.609375 0.59375 0.609375 1.546875q0 0.90625 -0.609375 1.53125q-0.59375 0.609375 -1.5 0.609375zm13.937546 -0.25l0 -8.640625q0.03125 -0.59375 0.0625 -1.34375q0.046875 -0.75 0.0625 -1.34375l-0.09375 0q-0.34375 0.53125 -0.71875 1.078125q-0.375 0.53125 -0.71875 1.078125l-2.859375 3.78125l8.484375 0l0 1.890625l-10.96875 0l0 -1.65625l6.21875 -8.4375l2.84375 0l0 13.59375l-2.3125 0z" fill-rule="nonzero"/><path fill="#595959" d="m200.51573 60.24029l-0.640625 -1.46875q1.40625 -0.546875 2.078125 -1.390625q0.671875 -0.84375 0.65625 -2.015625l-0.265625 -2.265625l1.265625 1.921875q-0.28125 0.28125 -0.609375 0.390625q-0.328125 0.09375 -0.6875 0.09375q-0.546875 0 -1.0 -0.203125q-0.453125 -0.21875 -0.734375 -0.640625q-0.28125 -0.421875 -0.28125 -1.046875q0 -0.875 0.609375 -1.390625q0.609375 -0.515625 1.4375 -0.515625q1.15625 0 1.734375 0.859375q0.578125 0.859375 0.578125 2.34375q0 1.9375 -1.078125 3.296875q-1.078125 1.375 -3.0625 2.03125z" fill-rule="nonzero"/><path fill="#ff00ff" d="m246.21867 55.912167q-1.34375 0 -2.359375 -0.453125q-1.0 -0.453125 -1.703125 -1.078125l1.3125 -1.484375q0.5 0.421875 1.171875 0.71875q0.671875 0.296875 1.390625 0.296875q1.0 0 1.8125 -0.5q0.828125 -0.515625 1.34375 -1.703125q0.53125 -1.203125 0.53125 -3.25q0 -1.671875 -0.390625 -2.71875q-0.390625 -1.0625 -1.078125 -1.53125q-0.6875 -0.484375 -1.578125 -0.484375q-0.65625 0 -1.234375 0.296875q-0.5625 0.296875 -0.90625 0.859375q-0.328125 0.5625 -0.328125 1.390625q0 1.21875 0.640625 1.828125q0.65625 0.609375 1.8125 0.609375q0.71875 0 1.515625 -0.375q0.796875 -0.390625 1.546875 -1.3125l0.109375 1.734375q-0.796875 0.78125 -1.78125 1.25q-0.96875 0.46875 -1.890625 0.46875q-1.234375 0 -2.1875 -0.453125q-0.9375 -0.453125 -1.484375 -1.375q-0.546875 -0.9375 -0.546875 -2.375q0 -1.34375 0.640625 -2.34375q0.65625 -1.0 1.734375 -1.546875q1.078125 -0.546875 2.3125 -0.546875q1.09375 0 2.046875 0.40625q0.96875 0.390625 1.703125 1.203125q0.75 0.8125 1.171875 2.0625q0.4375 1.234375 0.4375 2.953125q0 1.984375 -0.484375 3.40625q-0.484375 1.40625 -1.296875 2.3125q-0.796875 0.890625 -1.84375 1.3125q-1.03125 0.421875 -2.140625 0.421875zm13.296921 0q-1.171875 0 -2.109375 -0.25q-0.921875 -0.25 -1.6249847 -0.6875q-0.703125 -0.4375 -1.234375 -0.9375l1.125 -1.578125q0.46873474 0.390625 0.98435974 0.71875q0.515625 0.328125 1.140625 0.53125q0.625 0.203125 1.421875 0.203125q0.84375 0 1.53125 -0.3125q0.6875 -0.3125 1.078125 -0.890625q0.390625 -0.59375 0.390625 -1.390625q0 -1.21875 -0.796875 -1.875q-0.796875 -0.671875 -2.109375 -0.671875q-0.734375 0 -1.28125 0.1875q-0.53125 0.171875 -1.234375 0.578125l-1.1718597 -0.75l0.43748474 -6.6875l7.984375 0l0 2.0625l-5.859375 0l-0.296875 3.28125q0.53125 -0.203125 1.015625 -0.3125q0.5 -0.125 1.109375 -0.125q1.28125 0 2.34375 0.46875q1.078125 0.453125 1.703125 1.390625q0.625 0.9375 0.625 2.375q0 1.5 -0.71875 2.546875q-0.71875 1.046875 -1.90625 1.59375q-1.1875 0.53125 -2.546875 0.53125zm13.1406555 0q-0.90625 0 -1.515625 -0.609375q-0.609375 -0.625 -0.609375 -1.53125q0 -0.953125 0.609375 -1.546875q0.609375 -0.609375 1.515625 -0.609375q0.90625 0 1.5 0.609375q0.609375 0.59375 0.609375 1.546875q0 0.90625 -0.609375 1.53125q-0.59375 0.609375 -1.5 0.609375zm7.7812805 -0.25l0 -1.421875q2.125 -1.84375 3.640625 -3.265625q1.53125 -1.4375 2.359375 -2.609375q0.828125 -1.1875 0.828125 -2.234375q0 -1.09375 -0.671875 -1.71875q-0.65625 -0.625 -1.9375 -0.625q-0.875 0 -1.625 0.453125q-0.75 0.4375 -1.359375 1.0625l-1.34375 -1.375q0.984375 -1.0 2.0625 -1.546875q1.09375 -0.546875 2.578125 -0.546875q1.421875 0 2.453125 0.515625q1.03125 0.515625 1.609375 1.453125q0.578125 0.9375 0.578125 2.203125q0 1.1875 -0.75 2.4375q-0.75 1.25 -2.015625 2.546875q-1.265625 1.296875 -2.84375 2.734375q0.59375 -0.0625 1.25 -0.109375q0.671875 -0.046875 1.21875 -0.046875l3.84375 0l0 2.09375l-9.875 0z" fill-rule="nonzero"/><path fill="#595959" d="m296.51572 60.24029l-0.640625 -1.46875q1.40625 -0.546875 2.078125 -1.390625q0.671875 -0.84375 0.65625 -2.015625l-0.265625 -2.265625l1.265625 1.921875q-0.28125 0.28125 -0.609375 0.390625q-0.328125 0.09375 -0.6875 0.09375q-0.546875 0 -1.0 -0.203125q-0.453125 -0.21875 -0.734375 -0.640625q-0.28125 -0.421875 -0.28125 -1.046875q0 -0.875 0.609375 -1.390625q0.609375 -0.515625 1.4375 -0.515625q1.15625 0 1.734375 0.859375q0.578125 0.859375 0.578125 2.34375q0 1.9375 -1.078125 3.296875q-1.078125 1.375 -3.0625 2.03125z" fill-rule="nonzero"/><path fill="#669900" d="m342.21866 55.912167q-1.34375 0 -2.359375 -0.453125q-1.0 -0.453125 -1.703125 -1.078125l1.3125 -1.484375q0.5 0.421875 1.171875 0.71875q0.671875 0.296875 1.390625 0.296875q1.0 0 1.8125 -0.5q0.828125 -0.515625 1.34375 -1.703125q0.53125 -1.203125 0.53125 -3.25q0 -1.671875 -0.390625 -2.71875q-0.390625 -1.0625 -1.078125 -1.53125q-0.6875 -0.484375 -1.578125 -0.484375q-0.65625 0 -1.234375 0.296875q-0.5625 0.296875 -0.90625 0.859375q-0.328125 0.5625 -0.328125 1.390625q0 1.21875 0.640625 1.828125q0.65625 0.609375 1.8125 0.609375q0.71875 0 1.515625 -0.375q0.796875 -0.390625 1.546875 -1.3125l0.109375 1.734375q-0.796875 0.78125 -1.78125 1.25q-0.96875 0.46875 -1.890625 0.46875q-1.234375 0 -2.1875 -0.453125q-0.9375 -0.453125 -1.484375 -1.375q-0.546875 -0.9375 -0.546875 -2.375q0 -1.34375 0.640625 -2.34375q0.65625 -1.0 1.734375 -1.546875q1.078125 -0.546875 2.3125 -0.546875q1.09375 0 2.046875 0.40625q0.96875 0.390625 1.703125 1.203125q0.75 0.8125 1.171875 2.0625q0.4375 1.234375 0.4375 2.953125q0 1.984375 -0.484375 3.40625q-0.484375 1.40625 -1.296875 2.3125q-0.796875 0.890625 -1.84375 1.3125q-1.03125 0.421875 -2.140625 0.421875zm9.109436 -0.25l0 -2.0l3.78125 0l0 -8.921875l-3.015625 0l0 -1.53125q0.859375 -0.125 1.5 -0.265625q0.640625 -0.15625 1.15625 -0.375q0.53125 -0.21875 1.015625 -0.46875l1.796875 0l0 11.5625l3.328125 0l0 2.0l-9.5625 0zm17.328156 0.25q-0.90625 0 -1.515625 -0.609375q-0.609375 -0.625 -0.609375 -1.53125q0 -0.953125 0.609375 -1.546875q0.609375 -0.609375 1.515625 -0.609375q0.90625 0 1.5 0.609375q0.609375 0.59375 0.609375 1.546875q0 0.90625 -0.609375 1.53125q-0.59375 0.609375 -1.5 0.609375zm12.7969055 0q-1.546875 0 -2.671875 -0.828125q-1.125 -0.828125 -1.75 -2.40625q-0.625 -1.578125 -0.625 -3.859375q0 -3.4375 1.359375 -5.203125q1.375 -1.78125 3.6875 -1.78125q2.3125 0 3.671875 1.78125q1.359375 1.765625 1.359375 5.203125q0 2.28125 -0.609375 3.859375q-0.609375 1.578125 -1.75 2.40625q-1.125 0.828125 -2.671875 0.828125zm0 -1.90625q0.796875 0 1.4375 -0.515625q0.640625 -0.53125 1.0 -1.671875q0.375 -1.140625 0.375 -3.0q0 -1.859375 -0.375 -2.96875q-0.359375 -1.109375 -1.0 -1.59375q-0.640625 -0.5 -1.4375 -0.5q-0.8125 0 -1.453125 0.5q-0.640625 0.484375 -1.015625 1.59375q-0.359375 1.109375 -0.359375 2.96875q0 1.859375 0.359375 3.0q0.375 1.140625 1.015625 1.671875q0.640625 0.515625 1.453125 0.515625zm0 -3.765625q-0.609375 0 -1.046875 -0.40625q-0.4375 -0.40625 -0.4375 -1.109375q0 -0.703125 0.4375 -1.109375q0.4375 -0.40625 1.046875 -0.40625q0.609375 0 1.03125 0.40625q0.4375 0.40625 0.4375 1.109375q0 0.703125 -0.4375 1.109375q-0.421875 0.40625 -1.03125 0.40625z" fill-rule="nonzero"/><path fill="#595959" d="m392.51572 60.24029l-0.640625 -1.46875q1.40625 -0.546875 2.078125 -1.390625q0.671875 -0.84375 0.65625 -2.015625l-0.265625 -2.265625l1.265625 1.921875q-0.28125 0.28125 -0.609375 0.390625q-0.328125 0.09375 -0.6875 0.09375q-0.546875 0 -1.0 -0.203125q-0.453125 -0.21875 -0.734375 -0.640625q-0.28125 -0.421875 -0.28125 -1.046875q0 -0.875 0.609375 -1.390625q0.609375 -0.515625 1.4375 -0.515625q1.15625 0 1.734375 0.859375q0.578125 0.859375 0.578125 2.34375q0 1.9375 -1.078125 3.296875q-1.078125 1.375 -3.0625 2.03125z" fill-rule="nonzero"/><path fill="#669900" d="m438.21866 55.912167q-1.34375 0 -2.359375 -0.453125q-1.0 -0.453125 -1.703125 -1.078125l1.3125 -1.484375q0.5 0.421875 1.171875 0.71875q0.671875 0.296875 1.390625 0.296875q1.0 0 1.8125 -0.5q0.828125 -0.515625 1.34375 -1.703125q0.53125 -1.203125 0.53125 -3.25q0 -1.671875 -0.390625 -2.71875q-0.390625 -1.0625 -1.078125 -1.53125q-0.6875 -0.484375 -1.578125 -0.484375q-0.65625 0 -1.234375 0.296875q-0.5625 0.296875 -0.90625 0.859375q-0.328125 0.5625 -0.328125 1.390625q0 1.21875 0.640625 1.828125q0.65625 0.609375 1.8125 0.609375q0.71875 0 1.515625 -0.375q0.796875 -0.390625 1.546875 -1.3125l0.109375 1.734375q-0.796875 0.78125 -1.78125 1.25q-0.96875 0.46875 -1.890625 0.46875q-1.234375 0 -2.1875 -0.453125q-0.9375 -0.453125 -1.484375 -1.375q-0.546875 -0.9375 -0.546875 -2.375q0 -1.34375 0.640625 -2.34375q0.65625 -1.0 1.734375 -1.546875q1.078125 -0.546875 2.3125 -0.546875q1.09375 0 2.046875 0.40625q0.96875 0.390625 1.703125 1.203125q0.75 0.8125 1.171875 2.0625q0.4375 1.234375 0.4375 2.953125q0 1.984375 -0.484375 3.40625q-0.484375 1.40625 -1.296875 2.3125q-0.796875 0.890625 -1.84375 1.3125q-1.03125 0.421875 -2.140625 0.421875zm13.640686 0q-1.546875 0 -2.671875 -0.828125q-1.125 -0.828125 -1.75 -2.40625q-0.625 -1.578125 -0.625 -3.859375q0 -3.4375 1.359375 -5.203125q1.375 -1.78125 3.6875 -1.78125q2.3125 0 3.671875 1.78125q1.359375 1.765625 1.359375 5.203125q0 2.28125 -0.609375 3.859375q-0.609375 1.578125 -1.75 2.40625q-1.125 0.828125 -2.671875 0.828125zm0 -1.90625q0.796875 0 1.4375 -0.515625q0.640625 -0.53125 1.0 -1.671875q0.375 -1.140625 0.375 -3.0q0 -1.859375 -0.375 -2.96875q-0.359375 -1.109375 -1.0 -1.59375q-0.640625 -0.5 -1.4375 -0.5q-0.8125 0 -1.453125 0.5q-0.640625 0.484375 -1.015625 1.59375q-0.359375 1.109375 -0.359375 2.96875q0 1.859375 0.359375 3.0q0.375 1.140625 1.015625 1.671875q0.640625 0.515625 1.453125 0.515625zm0 -3.765625q-0.609375 0 -1.046875 -0.40625q-0.4375 -0.40625 -0.4375 -1.109375q0 -0.703125 0.4375 -1.109375q0.4375 -0.40625 1.046875 -0.40625q0.609375 0 1.03125 0.40625q0.4375 0.40625 0.4375 1.109375q0 0.703125 -0.4375 1.109375q-0.421875 0.40625 -1.03125 0.40625zm12.7969055 5.671875q-0.90625 0 -1.515625 -0.609375q-0.609375 -0.625 -0.609375 -1.53125q0 -0.953125 0.609375 -1.546875q0.609375 -0.609375 1.515625 -0.609375q0.90625 0 1.5 0.609375q0.609375 0.59375 0.609375 1.546875q0 0.90625 -0.609375 1.53125q-0.59375 0.609375 -1.5 0.609375zm12.7969055 0q-1.546875 0 -2.671875 -0.828125q-1.125 -0.828125 -1.75 -2.40625q-0.625 -1.578125 -0.625 -3.859375q0 -3.4375 1.359375 -5.203125q1.375 -1.78125 3.6875 -1.78125q2.3125 0 3.671875 1.78125q1.359375 1.765625 1.359375 5.203125q0 2.28125 -0.609375 3.859375q-0.609375 1.578125 -1.75 2.40625q-1.125 0.828125 -2.671875 0.828125zm0 -1.90625q0.796875 0 1.4375 -0.515625q0.640625 -0.53125 1.0 -1.671875q0.375 -1.140625 0.375 -3.0q0 -1.859375 -0.375 -2.96875q-0.359375 -1.109375 -1.0 -1.59375q-0.640625 -0.5 -1.4375 -0.5q-0.8125 0 -1.453125 0.5q-0.640625 0.484375 -1.015625 1.59375q-0.359375 1.109375 -0.359375 2.96875q0 1.859375 0.359375 3.0q0.375 1.140625 1.015625 1.671875q0.640625 0.515625 1.453125 0.515625zm0 -3.765625q-0.609375 0 -1.046875 -0.40625q-0.4375 -0.40625 -0.4375 -1.109375q0 -0.703125 0.4375 -1.109375q0.4375 -0.40625 1.046875 -0.40625q0.609375 0 1.03125 0.40625q0.4375 0.40625 0.4375 1.109375q0 0.703125 -0.4375 1.109375q-0.421875 0.40625 -1.03125 0.40625z" fill-rule="nonzero"/><path fill="#595959" d="m488.51572 60.24029l-0.640625 -1.46875q1.40625 -0.546875 2.078125 -1.390625q0.671875 -0.84375 0.65625 -2.015625l-0.265625 -2.265625l1.265625 1.921875q-0.28125 0.28125 -0.609375 0.390625q-0.328125 0.09375 -0.6875 0.09375q-0.546875 0 -1.0 -0.203125q-0.453125 -0.21875 -0.734375 -0.640625q-0.28125 -0.421875 -0.28125 -1.046875q0 -0.875 0.609375 -1.390625q0.609375 -0.515625 1.4375 -0.515625q1.15625 0 1.734375 0.859375q0.578125 0.859375 0.578125 2.34375q0 1.9375 -1.078125 3.296875q-1.078125 1.375 -3.0625 2.03125z" fill-rule="nonzero"/><path fill="#990055" d="m535.07806 55.912167q-1.5625 0 -2.6875 -0.46875q-1.125 -0.484375 -1.75 -1.328125q-0.625 -0.84375 -0.625 -1.921875q0 -0.875 0.390625 -1.53125q0.40625 -0.65625 1.015625 -1.125q0.625 -0.484375 1.34375 -0.828125l0 -0.078125q-0.84375 -0.5625 -1.4375 -1.34375q-0.578125 -0.78125 -0.578125 -1.84375q0 -1.078125 0.5625 -1.90625q0.5625 -0.828125 1.546875 -1.265625q1.0 -0.4375 2.28125 -0.4375q2.03125 0 3.1875 1.015625q1.15625 1.015625 1.15625 2.65625q0 0.9375 -0.59375 1.75q-0.59375 0.796875 -1.421875 1.34375l0 0.09375q0.75 0.359375 1.328125 0.828125q0.59375 0.453125 0.9375 1.109375q0.359375 0.65625 0.359375 1.59375q0 1.046875 -0.59375 1.890625q-0.578125 0.828125 -1.703125 1.3125q-1.125 0.484375 -2.71875 0.484375zm1.0 -7.90625q1.34375 -1.09375 1.34375 -2.34375q0 -0.59375 -0.265625 -1.0625q-0.265625 -0.46875 -0.796875 -0.734375q-0.515625 -0.28125 -1.265625 -0.28125q-0.9375 0 -1.5625 0.5q-0.609375 0.484375 -0.609375 1.359375q0 0.6875 0.40625 1.15625q0.421875 0.453125 1.140625 0.78125q0.71875 0.328125 1.609375 0.625zm-0.953125 6.15625q1.234375 0 1.9375 -0.53125q0.703125 -0.53125 0.703125 -1.484375q0 -0.578125 -0.28125 -0.984375q-0.28125 -0.40625 -0.796875 -0.703125q-0.5 -0.296875 -1.1875 -0.546875q-0.6875 -0.25 -1.484375 -0.515625q-0.546875 0.296875 -0.953125 0.6875q-0.390625 0.375 -0.625 0.84375q-0.234375 0.453125 -0.234375 1.0q0 0.6875 0.359375 1.1875q0.359375 0.5 1.015625 0.78125q0.671875 0.265625 1.546875 0.265625zm10.781311 1.5q0.09375 -1.8125 0.359375 -3.328125q0.265625 -1.515625 0.75 -2.84375q0.5 -1.328125 1.265625 -2.625q0.78125 -1.3125 1.890625 -2.703125l-7.3125 0l0 -2.0625l10.03125 0l0 1.484375q-1.328125 1.5 -2.15625 2.84375q-0.828125 1.328125 -1.3125 2.703125q-0.484375 1.375 -0.703125 2.953125q-0.203125 1.578125 -0.3125 3.578125l-2.5 0zm14.750061 0.25q-0.90625 0 -1.515625 -0.609375q-0.609375 -0.625 -0.609375 -1.53125q0 -0.953125 0.609375 -1.546875q0.609375 -0.609375 1.515625 -0.609375q0.90625 0 1.5 0.609375q0.609375 0.59375 0.609375 1.546875q0 0.90625 -0.609375 1.53125q-0.59375 0.609375 -1.5 0.609375zm13.9375 -0.25l0 -8.640625q0.03125 -0.59375 0.0625 -1.34375q0.046875 -0.75 0.0625 -1.34375l-0.09375 0q-0.34375 0.53125 -0.71875 1.078125q-0.375 0.53125 -0.71875 1.078125l-2.859375 3.78125l8.484375 0l0 1.890625l-10.96875 0l0 -1.65625l6.21875 -8.4375l2.84375 0l0 13.59375l-2.3125 0z" fill-rule="nonzero"/><path fill="#595959" d="m584.51575 60.24029l-0.640625 -1.46875q1.40625 -0.546875 2.078125 -1.390625q0.671875 -0.84375 0.65625 -2.015625l-0.265625 -2.265625l1.265625 1.921875q-0.28125 0.28125 -0.609375 0.390625q-0.328125 0.09375 -0.6875 0.09375q-0.546875 0 -1.0 -0.203125q-0.453125 -0.21875 -0.734375 -0.640625q-0.28125 -0.421875 -0.28125 -1.046875q0 -0.875 0.609375 -1.390625q0.609375 -0.515625 1.4375 -0.515625q1.15625 0 1.734375 0.859375q0.578125 0.859375 0.578125 2.34375q0 1.9375 -1.078125 3.296875q-1.078125 1.375 -3.0625 2.03125z" fill-rule="nonzero"/><path fill="#990055" d="m631.07806 55.912167q-1.5625 0 -2.6875 -0.46875q-1.125 -0.484375 -1.75 -1.328125q-0.625 -0.84375 -0.625 -1.921875q0 -0.875 0.390625 -1.53125q0.40625 -0.65625 1.015625 -1.125q0.625 -0.484375 1.34375 -0.828125l0 -0.078125q-0.84375 -0.5625 -1.4375 -1.34375q-0.578125 -0.78125 -0.578125 -1.84375q0 -1.078125 0.5625 -1.90625q0.5625 -0.828125 1.546875 -1.265625q1.0 -0.4375 2.28125 -0.4375q2.03125 0 3.1875 1.015625q1.15625 1.015625 1.15625 2.65625q0 0.9375 -0.59375 1.75q-0.59375 0.796875 -1.421875 1.34375l0 0.09375q0.75 0.359375 1.328125 0.828125q0.59375 0.453125 0.9375 1.109375q0.359375 0.65625 0.359375 1.59375q0 1.046875 -0.59375 1.890625q-0.578125 0.828125 -1.703125 1.3125q-1.125 0.484375 -2.71875 0.484375zm1.0 -7.90625q1.34375 -1.09375 1.34375 -2.34375q0 -0.59375 -0.265625 -1.0625q-0.265625 -0.46875 -0.796875 -0.734375q-0.515625 -0.28125 -1.265625 -0.28125q-0.9375 0 -1.5625 0.5q-0.609375 0.484375 -0.609375 1.359375q0 0.6875 0.40625 1.15625q0.421875 0.453125 1.140625 0.78125q0.71875 0.328125 1.609375 0.625zm-0.953125 6.15625q1.234375 0 1.9375 -0.53125q0.703125 -0.53125 0.703125 -1.484375q0 -0.578125 -0.28125 -0.984375q-0.28125 -0.40625 -0.796875 -0.703125q-0.5 -0.296875 -1.1875 -0.546875q-0.6875 -0.25 -1.484375 -0.515625q-0.546875 0.296875 -0.953125 0.6875q-0.390625 0.375 -0.625 0.84375q-0.234375 0.453125 -0.234375 1.0q0 0.6875 0.359375 1.1875q0.359375 0.5 1.015625 0.78125q0.671875 0.265625 1.546875 0.265625zm11.890686 1.75q-1.34375 0 -2.359375 -0.453125q-1.0 -0.453125 -1.703125 -1.078125l1.3125 -1.484375q0.5 0.421875 1.171875 0.71875q0.671875 0.296875 1.390625 0.296875q1.0 0 1.8125 -0.5q0.828125 -0.515625 1.34375 -1.703125q0.53125 -1.203125 0.53125 -3.25q0 -1.671875 -0.390625 -2.71875q-0.390625 -1.0625 -1.078125 -1.53125q-0.6875 -0.484375 -1.578125 -0.484375q-0.65625 0 -1.234375 0.296875q-0.5625 0.296875 -0.90625 0.859375q-0.328125 0.5625 -0.328125 1.390625q0 1.21875 0.640625 1.828125q0.65625 0.609375 1.8125 0.609375q0.71875 0 1.515625 -0.375q0.796875 -0.390625 1.546875 -1.3125l0.109375 1.734375q-0.796875 0.78125 -1.78125 1.25q-0.96875 0.46875 -1.890625 0.46875q-1.234375 0 -2.1875 -0.453125q-0.9375 -0.453125 -1.484375 -1.375q-0.546875 -0.9375 -0.546875 -2.375q0 -1.34375 0.640625 -2.34375q0.65625 -1.0 1.734375 -1.546875q1.078125 -0.546875 2.3125 -0.546875q1.09375 0 2.046875 0.40625q0.96875 0.390625 1.703125 1.203125q0.75 0.8125 1.171875 2.0625q0.4375 1.234375 0.4375 2.953125q0 1.984375 -0.484375 3.40625q-0.484375 1.40625 -1.296875 2.3125q-0.796875 0.890625 -1.84375 1.3125q-1.03125 0.421875 -2.140625 0.421875zm13.640686 0q-0.90625 0 -1.515625 -0.609375q-0.609375 -0.625 -0.609375 -1.53125q0 -0.953125 0.609375 -1.546875q0.609375 -0.609375 1.515625 -0.609375q0.90625 0 1.5 0.609375q0.609375 0.59375 0.609375 1.546875q0 0.90625 -0.609375 1.53125q-0.59375 0.609375 -1.5 0.609375zm12.796875 0q-1.546875 0 -2.671875 -0.828125q-1.125 -0.828125 -1.75 -2.40625q-0.625 -1.578125 -0.625 -3.859375q0 -3.4375 1.359375 -5.203125q1.375 -1.78125 3.6875 -1.78125q2.3125 0 3.671875 1.78125q1.359375 1.765625 1.359375 5.203125q0 2.28125 -0.609375 3.859375q-0.609375 1.578125 -1.75 2.40625q-1.125 0.828125 -2.671875 0.828125zm0 -1.90625q0.796875 0 1.4375 -0.515625q0.640625 -0.53125 1.0 -1.671875q0.375 -1.140625 0.375 -3.0q0 -1.859375 -0.375 -2.96875q-0.359375 -1.109375 -1.0 -1.59375q-0.640625 -0.5 -1.4375 -0.5q-0.8125 0 -1.453125 0.5q-0.640625 0.484375 -1.015625 1.59375q-0.359375 1.109375 -0.359375 2.96875q0 1.859375 0.359375 3.0q0.375 1.140625 1.015625 1.671875q0.640625 0.515625 1.453125 0.515625zm0 -3.765625q-0.609375 0 -1.046875 -0.40625q-0.4375 -0.40625 -0.4375 -1.109375q0 -0.703125 0.4375 -1.109375q0.4375 -0.40625 1.046875 -0.40625q0.609375 0 1.03125 0.40625q0.4375 0.40625 0.4375 1.109375q0 0.703125 -0.4375 1.109375q-0.421875 0.40625 -1.03125 0.40625z" fill-rule="nonzero"/><path fill="#595959" d="m680.51575 60.24029l-0.640625 -1.46875q1.40625 -0.546875 2.078125 -1.390625q0.671875 -0.84375 0.65625 -2.015625l-0.265625 -2.265625l1.265625 1.921875q-0.28125 0.28125 -0.609375 0.390625q-0.328125 0.09375 -0.6875 0.09375q-0.546875 0 -1.0 -0.203125q-0.453125 -0.21875 -0.734375 -0.640625q-0.28125 -0.421875 -0.28125 -1.046875q0 -0.875 0.609375 -1.390625q0.609375 -0.515625 1.4375 -0.515625q1.15625 0 1.734375 0.859375q0.578125 0.859375 0.578125 2.34375q0 1.9375 -1.078125 3.296875q-1.078125 1.375 -3.0625 2.03125z" fill-rule="nonzero"/><path fill="#669900" d="m726.2187 55.912167q-1.34375 0 -2.359375 -0.453125q-1.0 -0.453125 -1.703125 -1.078125l1.3125 -1.484375q0.5 0.421875 1.171875 0.71875q0.671875 0.296875 1.390625 0.296875q1.0 0 1.8125 -0.5q0.828125 -0.515625 1.34375 -1.703125q0.53125 -1.203125 0.53125 -3.25q0 -1.671875 -0.390625 -2.71875q-0.390625 -1.0625 -1.078125 -1.53125q-0.6875 -0.484375 -1.578125 -0.484375q-0.65625 0 -1.234375 0.296875q-0.5625 0.296875 -0.90625 0.859375q-0.328125 0.5625 -0.328125 1.390625q0 1.21875 0.640625 1.828125q0.65625 0.609375 1.8125 0.609375q0.71875 0 1.515625 -0.375q0.796875 -0.390625 1.546875 -1.3125l0.109375 1.734375q-0.796875 0.78125 -1.78125 1.25q-0.96875 0.46875 -1.890625 0.46875q-1.234375 0 -2.1875 -0.453125q-0.9375 -0.453125 -1.484375 -1.375q-0.546875 -0.9375 -0.546875 -2.375q0 -1.34375 0.640625 -2.34375q0.65625 -1.0 1.734375 -1.546875q1.078125 -0.546875 2.3125 -0.546875q1.09375 0 2.046875 0.40625q0.96875 0.390625 1.703125 1.203125q0.75 0.8125 1.171875 2.0625q0.4375 1.234375 0.4375 2.953125q0 1.984375 -0.484375 3.40625q-0.484375 1.40625 -1.296875 2.3125q-0.796875 0.890625 -1.84375 1.3125q-1.03125 0.421875 -2.140625 0.421875zm8.625061 -0.25l0 -1.421875q2.125 -1.84375 3.640625 -3.265625q1.53125 -1.4375 2.359375 -2.609375q0.828125 -1.1875 0.828125 -2.234375q0 -1.09375 -0.671875 -1.71875q-0.65625 -0.625 -1.9375 -0.625q-0.875 0 -1.625 0.453125q-0.75 0.4375 -1.359375 1.0625l-1.34375 -1.375q0.984375 -1.0 2.0625 -1.546875q1.09375 -0.546875 2.578125 -0.546875q1.421875 0 2.453125 0.515625q1.03125 0.515625 1.609375 1.453125q0.578125 0.9375 0.578125 2.203125q0 1.1875 -0.75 2.4375q-0.75 1.25 -2.015625 2.546875q-1.265625 1.296875 -2.84375 2.734375q0.59375 -0.0625 1.25 -0.109375q0.671875 -0.046875 1.21875 -0.046875l3.84375 0l0 2.09375l-9.875 0zm17.812561 0.25q-0.90625 0 -1.515625 -0.609375q-0.609375 -0.625 -0.609375 -1.53125q0 -0.953125 0.609375 -1.546875q0.609375 -0.609375 1.515625 -0.609375q0.90625 0 1.5 0.609375q0.609375 0.59375 0.609375 1.546875q0 0.90625 -0.609375 1.53125q-0.59375 0.609375 -1.5 0.609375zm13.9375 -0.25l0 -8.640625q0.03125 -0.59375 0.0625 -1.34375q0.046875 -0.75 0.0625 -1.34375l-0.09375 0q-0.34375 0.53125 -0.71875 1.078125q-0.375 0.53125 -0.71875 1.078125l-2.859375 3.78125l8.484375 0l0 1.890625l-10.96875 0l0 -1.65625l6.21875 -8.4375l2.84375 0l0 13.59375l-2.3125 0z" fill-rule="nonzero"/><path fill="#595959" d="m818.82806 58.89654l0 -1.34375l0.984375 0q0.984375 0 1.5 -0.15625q0.53125 -0.15625 0.71875 -0.53125q0.1875 -0.375 0.1875 -1.015625q0 -0.90625 -0.0625 -1.765625q-0.046875 -0.875 -0.046875 -1.890625q0 -1.140625 0.453125 -1.671875q0.453125 -0.546875 1.578125 -0.75l0 -0.078125q-1.125 -0.1875 -1.578125 -0.734375q-0.453125 -0.546875 -0.453125 -1.671875q0 -0.984375 0.046875 -1.890625q0.0625 -0.90625 0.0625 -1.78125q0 -0.640625 -0.1875 -1.015625q-0.1875 -0.375 -0.71875 -0.53125q-0.515625 -0.15625 -1.5 -0.15625l-0.984375 0l0 -1.34375l1.46875 0q2.03125 0 2.984375 0.625q0.96875 0.625 0.96875 2.3125q0 0.75 -0.046875 1.375q-0.046875 0.609375 -0.109375 1.21875q-0.0625 0.609375 -0.0625 1.28125q0 0.390625 0.25 0.75q0.265625 0.359375 0.90625 0.609375q0.65625 0.25 1.859375 0.25l0 1.484375q-1.203125 0 -1.859375 0.25q-0.640625 0.25 -0.90625 0.609375q-0.25 0.359375 -0.25 0.75q0 0.703125 0.0625 1.296875q0.0625 0.59375 0.109375 1.203125q0.046875 0.609375 0.046875 1.375q0 1.6875 -0.96875 2.3125q-0.953125 0.625 -2.984375 0.625l-1.46875 0z" fill-rule="nonzero"/><path stroke="#9e9e9e" stroke-width="1.0" stroke-linecap="butt" d="m77.10499 87.10236l0 84.18897" fill-rule="nonzero"/><path stroke="#9e9e9e" stroke-width="1.0" stroke-linecap="butt" d="m267.10498 87.10236l0 84.18897" fill-rule="nonzero"/><path stroke="#9e9e9e" stroke-width="1.0" stroke-linecap="butt" d="m457.10498 87.10236l0 84.18897" fill-rule="nonzero"/><path stroke="#9e9e9e" stroke-width="1.0" stroke-linecap="butt" d="m647.105 87.10236l0 84.18897" fill-rule="nonzero"/><path stroke="#9e9e9e" stroke-width="1.0" stroke-linecap="butt" d="m837.105 87.10236l0 84.18897" fill-rule="nonzero"/><path stroke="#9e9e9e" stroke-width="1.0" stroke-linecap="butt" d="m76.6063 87.60105l760.9974 0" fill-rule="nonzero"/><path stroke="#9e9e9e" stroke-width="1.0" stroke-linecap="butt" d="m76.6063 129.19685l760.9974 0" fill-rule="nonzero"/><path stroke="#9e9e9e" stroke-width="1.0" stroke-linecap="butt" d="m76.6063 170.79265l760.9974 0" fill-rule="nonzero"/><path fill="#ffab40" d="m137.35588 118.665825l0 -16.609375l5.53125 0l0 2.5625l-2.78125 0l0.109375 -0.15625l0 11.875l-0.1875 -0.234375l2.859375 0l0 2.5625l-5.53125 0zm11.913757 -3.484375q-1.34375 0 -2.4375 -0.515625q-1.09375 -0.515625 -1.75 -1.390625q-0.640625 -0.875 -0.640625 -1.984375q0 -0.71875 0.1875 -1.3125q0.1875 -0.59375 0.5625 -1.046875q0.390625 -0.453125 0.9375 -0.78125q0.546875 -0.328125 1.25 -0.53125l-0.21875 0.75q-0.515625 -0.203125 -0.953125 -0.5q-0.421875 -0.3125 -0.71875 -0.6875q-0.296875 -0.390625 -0.46875 -0.828125q-0.15625 -0.453125 -0.15625 -0.9375q0 -1.046875 0.578125 -1.84375q0.59375 -0.796875 1.59375 -1.25q1.0 -0.46875 2.234375 -0.46875q1.21875 0 2.203125 0.46875q1.0 0.453125 1.59375 1.25q0.609375 0.796875 0.609375 1.84375q0 0.484375 -0.15625 0.9375q-0.140625 0.4375 -0.453125 0.8125q-0.296875 0.359375 -0.71875 0.671875q-0.421875 0.296875 -0.984375 0.53125l-0.171875 -0.671875q0.640625 0.171875 1.171875 0.484375q0.546875 0.296875 0.9375 0.75q0.390625 0.453125 0.59375 1.046875q0.21875 0.59375 0.21875 1.3125q0 1.125 -0.65625 2.0q-0.640625 0.875 -1.75 1.390625q-1.09375 0.5 -2.4375 0.5zm0 -2.5q0.515625 0 0.921875 -0.203125q0.421875 -0.21875 0.65625 -0.5625q0.25 -0.359375 0.25 -0.828125q0 -0.484375 -0.234375 -0.84375q-0.234375 -0.375 -0.65625 -0.578125q-0.421875 -0.21875 -0.9375 -0.21875q-0.515625 0 -0.9375 0.21875q-0.40625 0.203125 -0.65625 0.578125q-0.234375 0.359375 -0.234375 0.84375q0 0.453125 0.234375 0.8125q0.25 0.34375 0.65625 0.5625q0.421875 0.21875 0.9375 0.21875zm0 -5.75q0.453125 0 0.8125 -0.171875q0.359375 -0.1875 0.5625 -0.484375q0.203125 -0.3125 0.203125 -0.734375q0 -0.40625 -0.203125 -0.71875q-0.203125 -0.3125 -0.5625 -0.5q-0.359375 -0.1875 -0.8125 -0.1875q-0.46875 0 -0.828125 0.1875q-0.359375 0.1875 -0.578125 0.5q-0.203125 0.3125 -0.203125 0.71875q0 0.421875 0.203125 0.734375q0.21875 0.296875 0.578125 0.484375q0.359375 0.171875 0.828125 0.171875zm11.87822 8.375q-1.75 0 -3.0 -0.796875q-1.234375 -0.8125 -1.890625 -2.3125q-0.640625 -1.5 -0.640625 -3.609375q0 -2.109375 0.640625 -3.609375q0.65625 -1.5 1.890625 -2.296875q1.25 -0.8125 3.0 -0.8125q1.765625 0 3.015625 0.8125q1.25 0.796875 1.890625 2.296875q0.65625 1.5 0.65625 3.609375q0 2.109375 -0.65625 3.609375q-0.640625 1.5 -1.890625 2.3125q-1.25 0.796875 -3.015625 0.796875zm0 -2.6875q1.21875 0 1.875 -1.046875q0.671875 -1.046875 0.671875 -2.984375q0 -2.0 -0.671875 -3.0625q-0.65625 -1.078125 -1.875 -1.078125q-1.203125 0 -1.875 1.078125q-0.65625 1.0625 -0.65625 3.0625q0 1.9375 0.65625 2.984375q0.671875 1.046875 1.875 1.046875zm7.889847 6.234375l-0.84375 -1.0625q0.734375 -0.34375 1.1875 -0.859375q0.453125 -0.5 0.453125 -0.875q0 -0.171875 -0.09375 -0.375q-0.078125 -0.1875 -0.421875 -0.4375q-0.421875 -0.3125 -0.578125 -0.609375q-0.140625 -0.3125 -0.140625 -0.6875q0 -0.578125 0.421875 -0.90625q0.421875 -0.34375 1.09375 -0.34375q0.53125 0 0.96875 0.296875q0.4375 0.296875 0.6875 0.828125q0.265625 0.515625 0.265625 1.203125q0 0.640625 -0.234375 1.21875q-0.21875 0.59375 -0.625 1.109375q-0.390625 0.515625 -0.953125 0.90625q-0.546875 0.390625 -1.1875 0.59375zm15.324341 -3.671875q-1.34375 0 -2.4375 -0.515625q-1.09375 -0.515625 -1.75 -1.390625q-0.640625 -0.875 -0.640625 -1.984375q0 -0.71875 0.1875 -1.3125q0.1875 -0.59375 0.5625 -1.046875q0.390625 -0.453125 0.9375 -0.78125q0.546875 -0.328125 1.25 -0.53125l-0.21875 0.75q-0.515625 -0.203125 -0.953125 -0.5q-0.421875 -0.3125 -0.71875 -0.6875q-0.296875 -0.390625 -0.46875 -0.828125q-0.15625 -0.453125 -0.15625 -0.9375q0 -1.046875 0.578125 -1.84375q0.59375 -0.796875 1.59375 -1.25q1.0 -0.46875 2.234375 -0.46875q1.21875 0 2.203125 0.46875q1.0 0.453125 1.59375 1.25q0.609375 0.796875 0.609375 1.84375q0 0.484375 -0.15625 0.9375q-0.140625 0.4375 -0.453125 0.8125q-0.296875 0.359375 -0.71875 0.671875q-0.421875 0.296875 -0.984375 0.53125l-0.171875 -0.671875q0.640625 0.171875 1.171875 0.484375q0.546875 0.296875 0.9375 0.75q0.390625 0.453125 0.59375 1.046875q0.21875 0.59375 0.21875 1.3125q0 1.125 -0.65625 2.0q-0.640625 0.875 -1.75 1.390625q-1.09375 0.5 -2.4375 0.5zm0 -2.5q0.515625 0 0.921875 -0.203125q0.421875 -0.21875 0.65625 -0.5625q0.25 -0.359375 0.25 -0.828125q0 -0.484375 -0.234375 -0.84375q-0.234375 -0.375 -0.65625 -0.578125q-0.421875 -0.21875 -0.9375 -0.21875q-0.515625 0 -0.9375 0.21875q-0.40625 0.203125 -0.65625 0.578125q-0.234375 0.359375 -0.234375 0.84375q0 0.453125 0.234375 0.8125q0.25 0.34375 0.65625 0.5625q0.421875 0.21875 0.9375 0.21875zm0 -5.75q0.453125 0 0.8125 -0.171875q0.359375 -0.1875 0.5625 -0.484375q0.203125 -0.3125 0.203125 -0.734375q0 -0.40625 -0.203125 -0.71875q-0.203125 -0.3125 -0.5625 -0.5q-0.359375 -0.1875 -0.8125 -0.1875q-0.46875 0 -0.828125 0.1875q-0.359375 0.1875 -0.578125 0.5q-0.203125 0.3125 -0.203125 0.71875q0 0.421875 0.203125 0.734375q0.21875 0.296875 0.578125 0.484375q0.359375 0.171875 0.828125 0.171875zm10.862595 8.3125q-1.484375 0 -2.6875 -0.59375q-1.203125 -0.59375 -1.984375 -1.71875l1.703125 -1.859375q0.765625 0.84375 1.40625 1.15625q0.65625 0.296875 1.46875 0.296875q0.59375 0 1.0625 -0.234375q0.46875 -0.25 0.734375 -0.6875q0.265625 -0.4375 0.265625 -0.984375q0 -0.5625 -0.265625 -1.0q-0.265625 -0.4375 -0.734375 -0.6875q-0.453125 -0.265625 -1.046875 -0.265625q-0.4375 0 -0.8125 0.078125q-0.359375 0.0625 -0.78125 0.25q-0.421875 0.171875 -1.0 0.515625l-1.34375 -1.796875l0.796875 -5.765625l7.5 0l0 2.671875l-5.984375 0l0.828125 -1.046875l-0.625 4.140625l-1.109375 -0.375q0.34375 -0.3125 0.859375 -0.546875q0.515625 -0.25 1.109375 -0.40625q0.59375 -0.171875 1.203125 -0.171875q1.21875 0 2.203125 0.578125q0.984375 0.5625 1.5625 1.578125q0.578125 1.0 0.578125 2.3125q0 1.28125 -0.65625 2.328125q-0.65625 1.03125 -1.765625 1.640625q-1.09375 0.59375 -2.484375 0.59375zm7.6972504 3.34375l-1.671875 -1.578125q1.71875 -1.203125 2.546875 -2.953125q0.84375 -1.75 0.84375 -3.75q0 -2.0 -0.84375 -3.75q-0.828125 -1.75 -2.546875 -2.953125l1.6875 -1.578125q2.28125 1.421875 3.46875 3.546875q1.203125 2.125 1.203125 4.734375q0 2.59375 -1.203125 4.734375q-1.203125 2.125 -3.484375 3.546875z" fill-rule="nonzero"/><path fill="#990055" d="m327.5611 118.665825l0 -16.609375l5.53125 0l0 2.5625l-2.78125 0l0.109375 -0.15625l0 11.875l-0.1875 -0.234375l2.859375 0l0 2.5625l-5.53125 0zm11.913757 -3.484375q-1.34375 0 -2.4375 -0.515625q-1.09375 -0.515625 -1.75 -1.390625q-0.640625 -0.875 -0.640625 -1.984375q0 -0.71875 0.1875 -1.3125q0.1875 -0.59375 0.5625 -1.046875q0.390625 -0.453125 0.9375 -0.78125q0.546875 -0.328125 1.25 -0.53125l-0.21875 0.75q-0.515625 -0.203125 -0.953125 -0.5q-0.421875 -0.3125 -0.71875 -0.6875q-0.296875 -0.390625 -0.46875 -0.828125q-0.15625 -0.453125 -0.15625 -0.9375q0 -1.046875 0.578125 -1.84375q0.59375 -0.796875 1.59375 -1.25q1.0 -0.46875 2.234375 -0.46875q1.21875 0 2.203125 0.46875q1.0 0.453125 1.59375 1.25q0.609375 0.796875 0.609375 1.84375q0 0.484375 -0.15625 0.9375q-0.140625 0.4375 -0.453125 0.8125q-0.296875 0.359375 -0.71875 0.671875q-0.421875 0.296875 -0.984375 0.53125l-0.171875 -0.671875q0.640625 0.171875 1.171875 0.484375q0.546875 0.296875 0.9375 0.75q0.390625 0.453125 0.59375 1.046875q0.21875 0.59375 0.21875 1.3125q0 1.125 -0.65625 2.0q-0.640625 0.875 -1.75 1.390625q-1.09375 0.5 -2.4375 0.5zm0 -2.5q0.515625 0 0.921875 -0.203125q0.421875 -0.21875 0.65625 -0.5625q0.25 -0.359375 0.25 -0.828125q0 -0.484375 -0.234375 -0.84375q-0.234375 -0.375 -0.65625 -0.578125q-0.421875 -0.21875 -0.9375 -0.21875q-0.515625 0 -0.9375 0.21875q-0.40625 0.203125 -0.65625 0.578125q-0.234375 0.359375 -0.234375 0.84375q0 0.453125 0.234375 0.8125q0.25 0.34375 0.65625 0.5625q0.421875 0.21875 0.9375 0.21875zm0 -5.75q0.453125 0 0.8125 -0.171875q0.359375 -0.1875 0.5625 -0.484375q0.203125 -0.3125 0.203125 -0.734375q0 -0.40625 -0.203125 -0.71875q-0.203125 -0.3125 -0.5625 -0.5q-0.359375 -0.1875 -0.8125 -0.1875q-0.46875 0 -0.828125 0.1875q-0.359375 0.1875 -0.578125 0.5q-0.203125 0.3125 -0.203125 0.71875q0 0.421875 0.203125 0.734375q0.21875 0.296875 0.578125 0.484375q0.359375 0.171875 0.828125 0.171875zm10.86261 8.3125q-1.484375 0 -2.6875 -0.59375q-1.203125 -0.59375 -1.984375 -1.71875l1.703125 -1.859375q0.765625 0.84375 1.40625 1.15625q0.65625 0.296875 1.46875 0.296875q0.59375 0 1.0625 -0.234375q0.46875 -0.25 0.734375 -0.6875q0.265625 -0.4375 0.265625 -0.984375q0 -0.5625 -0.265625 -1.0q-0.265625 -0.4375 -0.734375 -0.6875q-0.453125 -0.265625 -1.046875 -0.265625q-0.4375 0 -0.8125 0.078125q-0.359375 0.0625 -0.78125 0.25q-0.421875 0.171875 -1.0 0.515625l-1.34375 -1.796875l0.796875 -5.765625l7.5 0l0 2.671875l-5.984375 0l0.828125 -1.046875l-0.625 4.140625l-1.109375 -0.375q0.34375 -0.3125 0.859375 -0.546875q0.515625 -0.25 1.109375 -0.40625q0.59375 -0.171875 1.203125 -0.171875q1.21875 0 2.203125 0.578125q0.984375 0.5625 1.5625 1.578125q0.578125 1.0 0.578125 2.3125q0 1.28125 -0.65625 2.328125q-0.65625 1.03125 -1.765625 1.640625q-1.09375 0.59375 -2.484375 0.59375zm7.43161 3.609375l-0.84375 -1.0625q0.734375 -0.34375 1.1875 -0.859375q0.453125 -0.5 0.453125 -0.875q0 -0.171875 -0.09375 -0.375q-0.078125 -0.1875 -0.421875 -0.4375q-0.421875 -0.3125 -0.578125 -0.609375q-0.140625 -0.3125 -0.140625 -0.6875q0 -0.578125 0.421875 -0.90625q0.421875 -0.34375 1.09375 -0.34375q0.53125 0 0.96875 0.296875q0.4375 0.296875 0.6875 0.828125q0.265625 0.515625 0.265625 1.203125q0 0.640625 -0.234375 1.21875q-0.21875 0.59375 -0.625 1.109375q-0.390625 0.515625 -0.953125 0.90625q-0.546875 0.390625 -1.1875 0.59375zm13.621216 -3.734375l-0.0625 -0.1875l4.078125 -8.25l0.546875 1.125q-0.1875 0.671875 -0.609375 1.21875q-0.40625 0.53125 -0.984375 0.9375q-0.5625 0.40625 -1.171875 0.625q-0.609375 0.203125 -1.171875 0.203125q-1.0625 0 -1.96875 -0.578125q-0.890625 -0.578125 -1.4375 -1.546875q-0.53125 -0.96875 -0.53125 -2.109375q0 -1.34375 0.640625 -2.4375q0.640625 -1.09375 1.734375 -1.734375q1.109375 -0.640625 2.484375 -0.640625q1.015625 0 1.890625 0.359375q0.875 0.34375 1.53125 0.96875q0.671875 0.625 1.046875 1.453125q0.375 0.8125 0.375 1.734375q0 0.671875 -0.125 1.3125q-0.109375 0.640625 -0.359375 1.3125q-0.234375 0.671875 -0.5625 1.40625q-0.3125 0.71875 -0.75 1.578125l-1.640625 3.25l-2.953125 0zm1.390625 -6.828125q0.578125 0 1.015625 -0.25q0.453125 -0.265625 0.703125 -0.703125q0.25 -0.453125 0.25 -0.984375q0 -0.578125 -0.25 -1.03125q-0.25 -0.46875 -0.6875 -0.71875q-0.4375 -0.265625 -1.015625 -0.265625q-0.5625 0 -0.984375 0.25q-0.421875 0.25 -0.671875 0.71875q-0.25 0.453125 -0.25 1.046875q0 0.5 0.25 0.9375q0.25 0.4375 0.671875 0.71875q0.4375 0.28125 0.96875 0.28125zm11.780304 7.015625q-1.75 0 -3.0 -0.796875q-1.234375 -0.8125 -1.890625 -2.3125q-0.640625 -1.5 -0.640625 -3.609375q0 -2.109375 0.640625 -3.609375q0.65625 -1.5 1.890625 -2.296875q1.25 -0.8125 3.0 -0.8125q1.765625 0 3.015625 0.8125q1.25 0.796875 1.890625 2.296875q0.65625 1.5 0.65625 3.609375q0 2.109375 -0.65625 3.609375q-0.640625 1.5 -1.890625 2.3125q-1.25 0.796875 -3.015625 0.796875zm0 -2.6875q1.21875 0 1.875 -1.046875q0.671875 -1.046875 0.671875 -2.984375q0 -2.0 -0.671875 -3.0625q-0.65625 -1.078125 -1.875 -1.078125q-1.203125 0 -1.875 1.078125q-0.65625 1.0625 -0.65625 3.0625q0 1.9375 0.65625 2.984375q0.671875 1.046875 1.875 1.046875zm8.155457 5.96875l-1.671875 -1.578125q1.71875 -1.203125 2.546875 -2.953125q0.84375 -1.75 0.84375 -3.75q0 -2.0 -0.84375 -3.75q-0.828125 -1.75 -2.546875 -2.953125l1.6875 -1.578125q2.28125 1.421875 3.46875 3.546875q1.203125 2.125 1.203125 4.734375q0 2.59375 -1.203125 4.734375q-1.203125 2.125 -3.484375 3.546875z" fill-rule="nonzero"/><path fill="#669900" d="m517.7663 118.665825l0 -16.609375l5.53125 0l0 2.5625l-2.78125 0l0.109375 -0.15625l0 11.875l-0.1875 -0.234375l2.859375 0l0 2.5625l-5.53125 0zm10.210632 -3.546875l-0.0625 -0.1875l4.078125 -8.25l0.546875 1.125q-0.1875 0.671875 -0.609375 1.21875q-0.40625 0.53125 -0.984375 0.9375q-0.5625 0.40625 -1.171875 0.625q-0.609375 0.203125 -1.171875 0.203125q-1.0625 0 -1.96875 -0.578125q-0.890625 -0.578125 -1.4375 -1.546875q-0.53125 -0.96875 -0.53125 -2.109375q0 -1.34375 0.640625 -2.4375q0.640625 -1.09375 1.734375 -1.734375q1.109375 -0.640625 2.484375 -0.640625q1.015625 0 1.890625 0.359375q0.875 0.34375 1.53125 0.96875q0.671875 0.625 1.046875 1.453125q0.375 0.8125 0.375 1.734375q0 0.671875 -0.125 1.3125q-0.109375 0.640625 -0.359375 1.3125q-0.234375 0.671875 -0.5625 1.40625q-0.3125 0.71875 -0.75 1.578125l-1.640625 3.25l-2.953125 0zm1.390625 -6.828125q0.578125 0 1.015625 -0.25q0.453125 -0.265625 0.703125 -0.703125q0.25 -0.453125 0.25 -0.984375q0 -0.578125 -0.25 -1.03125q-0.25 -0.46875 -0.6875 -0.71875q-0.4375 -0.265625 -1.015625 -0.265625q-0.5625 0 -0.984375 0.25q-0.421875 0.25 -0.671875 0.71875q-0.25 0.453125 -0.25 1.046875q0 0.5 0.25 0.9375q0.25 0.4375 0.671875 0.71875q0.4375 0.28125 0.96875 0.28125zm11.780334 7.015625q-1.75 0 -3.0 -0.796875q-1.234375 -0.8125 -1.890625 -2.3125q-0.640625 -1.5 -0.640625 -3.609375q0 -2.109375 0.640625 -3.609375q0.65625 -1.5 1.890625 -2.296875q1.25 -0.8125 3.0 -0.8125q1.765625 0 3.015625 0.8125q1.25 0.796875 1.890625 2.296875q0.65625 1.5 0.65625 3.609375q0 2.109375 -0.65625 3.609375q-0.640625 1.5 -1.890625 2.3125q-1.25 0.796875 -3.015625 0.796875zm0 -2.6875q1.21875 0 1.875 -1.046875q0.671875 -1.046875 0.671875 -2.984375q0 -2.0 -0.671875 -3.0625q-0.65625 -1.078125 -1.875 -1.078125q-1.203125 0 -1.875 1.078125q-0.65625 1.0625 -0.65625 3.0625q0 1.9375 0.65625 2.984375q0.671875 1.046875 1.875 1.046875zm7.8898315 6.234375l-0.84375 -1.0625q0.734375 -0.34375 1.1875 -0.859375q0.453125 -0.5 0.453125 -0.875q0 -0.171875 -0.09375 -0.375q-0.078125 -0.1875 -0.421875 -0.4375q-0.421875 -0.3125 -0.578125 -0.609375q-0.140625 -0.3125 -0.140625 -0.6875q0 -0.578125 0.421875 -0.90625q0.421875 -0.34375 1.09375 -0.34375q0.53125 0 0.96875 0.296875q0.4375 0.296875 0.6875 0.828125q0.265625 0.515625 0.265625 1.203125q0 0.640625 -0.234375 1.21875q-0.21875 0.59375 -0.625 1.109375q-0.390625 0.515625 -0.953125 0.90625q-0.546875 0.390625 -1.1875 0.59375zm13.621216 -3.734375l-0.0625 -0.1875l4.078125 -8.25l0.546875 1.125q-0.1875 0.671875 -0.609375 1.21875q-0.40625 0.53125 -0.984375 0.9375q-0.5625 0.40625 -1.171875 0.625q-0.609375 0.203125 -1.171875 0.203125q-1.0625 0 -1.96875 -0.578125q-0.890625 -0.578125 -1.4375 -1.546875q-0.53125 -0.96875 -0.53125 -2.109375q0 -1.34375 0.640625 -2.4375q0.640625 -1.09375 1.734375 -1.734375q1.109375 -0.640625 2.484375 -0.640625q1.015625 0 1.890625 0.359375q0.875 0.34375 1.53125 0.96875q0.671875 0.625 1.046875 1.453125q0.375 0.8125 0.375 1.734375q0 0.671875 -0.125 1.3125q-0.109375 0.640625 -0.359375 1.3125q-0.234375 0.671875 -0.5625 1.40625q-0.3125 0.71875 -0.75 1.578125l-1.640625 3.25l-2.953125 0zm1.390625 -6.828125q0.578125 0 1.015625 -0.25q0.453125 -0.265625 0.703125 -0.703125q0.25 -0.453125 0.25 -0.984375q0 -0.578125 -0.25 -1.03125q-0.25 -0.46875 -0.6875 -0.71875q-0.4375 -0.265625 -1.015625 -0.265625q-0.5625 0 -0.984375 0.25q-0.421875 0.25 -0.671875 0.71875q-0.25 0.453125 -0.25 1.046875q0 0.5 0.25 0.9375q0.25 0.4375 0.671875 0.71875q0.4375 0.28125 0.96875 0.28125zm10.764648 6.953125q-1.484375 0 -2.6875 -0.59375q-1.203125 -0.59375 -1.984375 -1.71875l1.703125 -1.859375q0.765625 0.84375 1.40625 1.15625q0.65625 0.296875 1.46875 0.296875q0.59375 0 1.0625 -0.234375q0.46875 -0.25 0.734375 -0.6875q0.265625 -0.4375 0.265625 -0.984375q0 -0.5625 -0.265625 -1.0q-0.265625 -0.4375 -0.734375 -0.6875q-0.453125 -0.265625 -1.046875 -0.265625q-0.4375 0 -0.8125 0.078125q-0.359375 0.0625 -0.78125 0.25q-0.421875 0.171875 -1.0 0.515625l-1.34375 -1.796875l0.796875 -5.765625l7.5 0l0 2.671875l-5.984375 0l0.828125 -1.046875l-0.625 4.140625l-1.109375 -0.375q0.34375 -0.3125 0.859375 -0.546875q0.515625 -0.25 1.109375 -0.40625q0.59375 -0.171875 1.203125 -0.171875q1.21875 0 2.203125 0.578125q0.984375 0.5625 1.5625 1.578125q0.578125 1.0 0.578125 2.3125q0 1.28125 -0.65625 2.328125q-0.65625 1.03125 -1.765625 1.640625q-1.09375 0.59375 -2.484375 0.59375zm7.6972656 3.34375l-1.671875 -1.578125q1.71875 -1.203125 2.546875 -2.953125q0.84375 -1.75 0.84375 -3.75q0 -2.0 -0.84375 -3.75q-0.828125 -1.75 -2.546875 -2.953125l1.6875 -1.578125q2.28125 1.421875 3.46875 3.546875q1.203125 2.125 1.203125 4.734375q0 2.59375 -1.203125 4.734375q-1.203125 2.125 -3.484375 3.546875z" fill-rule="nonzero"/><path fill="#ff00ff" d="m701.33923 118.665825l0 -16.609375l5.53125 0l0 2.5625l-2.78125 0l0.109375 -0.15625l0 11.875l-0.1875 -0.234375l2.859375 0l0 2.5625l-5.53125 0zm10.210632 -3.546875l-0.0625 -0.1875l4.078125 -8.25l0.546875 1.125q-0.1875 0.671875 -0.609375 1.21875q-0.40625 0.53125 -0.984375 0.9375q-0.5625 0.40625 -1.171875 0.625q-0.609375 0.203125 -1.171875 0.203125q-1.0625 0 -1.96875 -0.578125q-0.890625 -0.578125 -1.4375 -1.546875q-0.53125 -0.96875 -0.53125 -2.109375q0 -1.34375 0.640625 -2.4375q0.640625 -1.09375 1.734375 -1.734375q1.109375 -0.640625 2.484375 -0.640625q1.015625 0 1.890625 0.359375q0.875 0.34375 1.53125 0.96875q0.671875 0.625 1.046875 1.453125q0.375 0.8125 0.375 1.734375q0 0.671875 -0.125 1.3125q-0.109375 0.640625 -0.359375 1.3125q-0.234375 0.671875 -0.5625 1.40625q-0.3125 0.71875 -0.75 1.578125l-1.640625 3.25l-2.953125 0zm1.390625 -6.828125q0.578125 0 1.015625 -0.25q0.453125 -0.265625 0.703125 -0.703125q0.25 -0.453125 0.25 -0.984375q0 -0.578125 -0.25 -1.03125q-0.25 -0.46875 -0.6875 -0.71875q-0.4375 -0.265625 -1.015625 -0.265625q-0.5625 0 -0.984375 0.25q-0.421875 0.25 -0.671875 0.71875q-0.25 0.453125 -0.25 1.046875q0 0.5 0.25 0.9375q0.25 0.4375 0.671875 0.71875q0.4375 0.28125 0.96875 0.28125zm10.764648 6.953125q-1.484375 0 -2.6875 -0.59375q-1.203125 -0.59375 -1.984375 -1.71875l1.703125 -1.859375q0.765625 0.84375 1.40625 1.15625q0.65625 0.296875 1.46875 0.296875q0.59375 0 1.0625 -0.234375q0.46875 -0.25 0.734375 -0.6875q0.265625 -0.4375 0.265625 -0.984375q0 -0.5625 -0.265625 -1.0q-0.265625 -0.4375 -0.734375 -0.6875q-0.453125 -0.265625 -1.046875 -0.265625q-0.4375 0 -0.8125 0.078125q-0.359375 0.0625 -0.78125 0.25q-0.421875 0.171875 -1.0 0.515625l-1.34375 -1.796875l0.796875 -5.765625l7.5 0l0 2.671875l-5.984375 0l0.828125 -1.046875l-0.625 4.140625l-1.109375 -0.375q0.34375 -0.3125 0.859375 -0.546875q0.515625 -0.25 1.109375 -0.40625q0.59375 -0.171875 1.203125 -0.171875q1.21875 0 2.203125 0.578125q0.984375 0.5625 1.5625 1.578125q0.578125 1.0 0.578125 2.3125q0 1.28125 -0.65625 2.328125q-0.65625 1.03125 -1.765625 1.640625q-1.09375 0.59375 -2.484375 0.59375zm7.4316406 3.609375l-0.84375 -1.0625q0.734375 -0.34375 1.1875 -0.859375q0.453125 -0.5 0.453125 -0.875q0 -0.171875 -0.09375 -0.375q-0.078125 -0.1875 -0.421875 -0.4375q-0.421875 -0.3125 -0.578125 -0.609375q-0.140625 -0.3125 -0.140625 -0.6875q0 -0.578125 0.421875 -0.90625q0.421875 -0.34375 1.09375 -0.34375q0.53125 0 0.96875 0.296875q0.4375 0.296875 0.6875 0.828125q0.265625 0.515625 0.265625 1.203125q0 0.640625 -0.234375 1.21875q-0.21875 0.59375 -0.625 1.109375q-0.390625 0.515625 -0.953125 0.90625q-0.546875 0.390625 -1.1875 0.59375zm13.683716 -4.65625l0 -10.59375l0.6875 1.59375l-2.796875 1.328125l-0.546875 -2.84375l3.71875 -1.8125l2.046875 0l0 12.328125l-3.109375 0zm-2.390625 0.921875l0 -2.796875l7.953125 0l0 2.796875l-7.953125 0zm15.200562 0.1875q-1.75 0 -3.0 -0.796875q-1.234375 -0.8125 -1.890625 -2.3125q-0.640625 -1.5 -0.640625 -3.609375q0 -2.109375 0.640625 -3.609375q0.65625 -1.5 1.890625 -2.296875q1.25 -0.8125 3.0 -0.8125q1.765625 0 3.015625 0.8125q1.25 0.796875 1.890625 2.296875q0.65625 1.5 0.65625 3.609375q0 2.109375 -0.65625 3.609375q-0.640625 1.5 -1.890625 2.3125q-1.25 0.796875 -3.015625 0.796875zm0 -2.6875q1.21875 0 1.875 -1.046875q0.671875 -1.046875 0.671875 -2.984375q0 -2.0 -0.671875 -3.0625q-0.65625 -1.078125 -1.875 -1.078125q-1.203125 0 -1.875 1.078125q-0.65625 1.0625 -0.65625 3.0625q0 1.9375 0.65625 2.984375q0.671875 1.046875 1.875 1.046875zm12.592957 2.6875q-1.75 0 -3.0 -0.796875q-1.234375 -0.8125 -1.890625 -2.3125q-0.640625 -1.5 -0.640625 -3.609375q0 -2.109375 0.640625 -3.609375q0.65625 -1.5 1.890625 -2.296875q1.25 -0.8125 3.0 -0.8125q1.765625 0 3.015625 0.8125q1.25 0.796875 1.890625 2.296875q0.65625 1.5 0.65625 3.609375q0 2.109375 -0.65625 3.609375q-0.640625 1.5 -1.890625 2.3125q-1.25 0.796875 -3.015625 0.796875zm0 -2.6875q1.21875 0 1.875 -1.046875q0.671875 -1.046875 0.671875 -2.984375q0 -2.0 -0.671875 -3.0625q-0.65625 -1.078125 -1.875 -1.078125q-1.203125 0 -1.875 1.078125q-0.65625 1.0625 -0.65625 3.0625q0 1.9375 0.65625 2.984375q0.671875 1.046875 1.875 1.046875zm7.0929565 6.046875l0 -2.5625l2.796875 0l-0.109375 0.15625l0 -11.875l0.1875 0.234375l-2.875 0l0 -2.5625l5.5625 0l0 16.609375l-5.5625 0z" fill-rule="nonzero"/><path fill="#000000" d="m171.4878 155.79288l0 -10.59375l0.6875 0.53125l-2.5625 1.359375l-0.546875 -1.75l3.484375 -1.875l0.96875 0l0 12.328125l-2.03125 0zm-2.0625 0.921875l0 -1.9375l6.21875 0l0 1.9375l-6.21875 0z" fill-rule="nonzero"/><path fill="#000000" d="m361.6035 156.83975q-1.296875 0 -2.34375 -0.578125q-1.03125 -0.59375 -1.71875 -1.6875l1.109375 -1.25q0.875 0.96875 1.53125 1.328125q0.65625 0.34375 1.421875 0.34375q0.765625 0 1.375 -0.328125q0.625 -0.34375 0.984375 -0.921875q0.359375 -0.578125 0.359375 -1.28125q0 -0.75 -0.34375 -1.328125q-0.34375 -0.59375 -0.921875 -0.9375q-0.578125 -0.34375 -1.3125 -0.34375q-0.34375 0 -0.671875 0.046875q-0.3125 0.046875 -0.765625 0.21875q-0.4375 0.15625 -1.171875 0.515625l-1.0625 -1.4375l0.765625 -5.546875l7.046875 0l0 1.875l-5.78125 0l0.390625 -0.359375l-0.609375 4.140625l-0.46875 -0.546875q0.1875 -0.1875 0.625 -0.359375q0.453125 -0.171875 1.0 -0.296875q0.5625 -0.125 1.0625 -0.125q1.203125 0 2.140625 0.5625q0.9375 0.546875 1.484375 1.515625q0.5625 0.96875 0.5625 2.21875q0 1.28125 -0.625 2.328125q-0.609375 1.03125 -1.671875 1.640625q-1.0625 0.59375 -2.390625 0.59375z" fill-rule="nonzero"/><path fill="#000000" d="m551.60345 156.83975q-1.296875 0 -2.34375 -0.578125q-1.03125 -0.59375 -1.71875 -1.6875l1.109375 -1.25q0.875 0.96875 1.53125 1.328125q0.65625 0.34375 1.421875 0.34375q0.765625 0 1.375 -0.328125q0.625 -0.34375 0.984375 -0.921875q0.359375 -0.578125 0.359375 -1.28125q0 -0.75 -0.34375 -1.328125q-0.34375 -0.59375 -0.921875 -0.9375q-0.578125 -0.34375 -1.3125 -0.34375q-0.34375 0 -0.671875 0.046875q-0.3125 0.046875 -0.765625 0.21875q-0.4375 0.15625 -1.171875 0.515625l-1.0625 -1.4375l0.765625 -5.546875l7.046875 0l0 1.875l-5.78125 0l0.390625 -0.359375l-0.609375 4.140625l-0.46875 -0.546875q0.1875 -0.1875 0.625 -0.359375q0.453125 -0.171875 1.0 -0.296875q0.5625 -0.125 1.0625 -0.125q1.203125 0 2.140625 0.5625q0.9375 0.546875 1.484375 1.515625q0.5625 0.96875 0.5625 2.21875q0 1.28125 -0.625 2.328125q-0.609375 1.03125 -1.671875 1.640625q-1.0625 0.59375 -2.390625 0.59375z" fill-rule="nonzero"/><path fill="#000000" d="m741.60345 156.83975q-1.296875 0 -2.34375 -0.578125q-1.03125 -0.59375 -1.71875 -1.6875l1.109375 -1.25q0.875 0.96875 1.53125 1.328125q0.65625 0.34375 1.421875 0.34375q0.765625 0 1.375 -0.328125q0.625 -0.34375 0.984375 -0.921875q0.359375 -0.578125 0.359375 -1.28125q0 -0.75 -0.34375 -1.328125q-0.34375 -0.59375 -0.921875 -0.9375q-0.578125 -0.34375 -1.3125 -0.34375q-0.34375 0 -0.671875 0.046875q-0.3125 0.046875 -0.765625 0.21875q-0.4375 0.15625 -1.171875 0.515625l-1.0625 -1.4375l0.765625 -5.546875l7.046875 0l0 1.875l-5.78125 0l0.390625 -0.359375l-0.609375 4.140625l-0.46875 -0.546875q0.1875 -0.1875 0.625 -0.359375q0.453125 -0.171875 1.0 -0.296875q0.5625 -0.125 1.0625 -0.125q1.203125 0 2.140625 0.5625q0.9375 0.546875 1.484375 1.515625q0.5625 0.96875 0.5625 2.21875q0 1.28125 -0.625 2.328125q-0.609375 1.03125 -1.671875 1.640625q-1.0625 0.59375 -2.390625 0.59375z" fill-rule="nonzero"/><path fill="#000000" fill-opacity="0.0" d="m285.80054 329.5118l0 -23.275604" fill-rule="evenodd"/><path stroke="#595959" stroke-width="1.0" stroke-linejoin="round" stroke-linecap="butt" d="m285.80054 329.5118l0 -23.275604" fill-rule="evenodd"/><path fill="#000000" fill-opacity="0.0" d="m285.80054 306.2362l-11.338593 0" fill-rule="evenodd"/><path stroke="#595959" stroke-width="1.0" stroke-linejoin="round" stroke-linecap="butt" d="m285.80054 306.2362l-11.338593 0" fill-rule="evenodd"/><path fill="#000000" fill-opacity="0.0" d="m285.80054 306.2362l0 -23.275574" fill-rule="evenodd"/><path stroke="#595959" stroke-width="1.0" stroke-linejoin="round" stroke-linecap="butt" d="m285.80054 306.2362l0 -23.275574" fill-rule="evenodd"/><path fill="#000000" fill-opacity="0.0" d="m285.80054 282.96063l-11.338593 0" fill-rule="evenodd"/><path stroke="#595959" stroke-width="1.0" stroke-linejoin="round" stroke-linecap="butt" d="m285.80054 282.96063l-11.338593 0" fill-rule="evenodd"/><path fill="#000000" fill-opacity="0.0" d="m285.80054 282.96063l0 -23.275604" fill-rule="evenodd"/><path stroke="#595959" stroke-width="1.0" stroke-linejoin="round" stroke-linecap="butt" d="m285.80054 282.96063l0 -23.275604" fill-rule="evenodd"/><path fill="#000000" fill-opacity="0.0" d="m285.80054 259.68503l-11.338593 0" fill-rule="evenodd"/><path stroke="#595959" stroke-width="1.0" stroke-linejoin="round" stroke-linecap="butt" d="m285.80054 259.68503l-11.338593 0" fill-rule="evenodd"/><path fill="#000000" fill-opacity="0.0" d="m285.80054 259.68503l0 -23.275574" fill-rule="evenodd"/><path stroke="#595959" stroke-width="1.0" stroke-linejoin="round" stroke-linecap="butt" d="m285.80054 259.68503l0 -23.275574" fill-rule="evenodd"/><path fill="#000000" fill-opacity="0.0" d="m285.80054 236.40945l-11.338593 0" fill-rule="evenodd"/><path stroke="#595959" stroke-width="1.0" stroke-linejoin="round" stroke-linecap="butt" d="m285.80054 236.40945l-11.338593 0" fill-rule="evenodd"/><path fill="#000000" fill-opacity="0.0" d="m285.80054 236.97507l0 -23.275589" fill-rule="evenodd"/><path stroke="#595959" stroke-width="1.0" stroke-linejoin="round" stroke-linecap="butt" d="m285.80054 236.97507l0 -23.275589" fill-rule="evenodd"/><path fill="#000000" fill-opacity="0.0" d="m285.80054 213.69948l-11.338593 0" fill-rule="evenodd"/><path stroke="#595959" stroke-width="1.0" stroke-linejoin="round" stroke-linecap="butt" d="m285.80054 213.69948l-11.338593 0" fill-rule="evenodd"/><path fill="#000000" fill-opacity="0.0" d="m285.80054 213.69948l0 -23.275589" fill-rule="evenodd"/><path stroke="#595959" stroke-width="1.0" stroke-linejoin="round" stroke-linecap="butt" d="m285.80054 213.69948l0 -23.275589" fill-rule="evenodd"/><path fill="#000000" fill-opacity="0.0" d="m237.35432 283.6063l27.59056 0l0 42.015747l-27.59056 0z" fill-rule="evenodd"/><path fill="#595959" d="m250.4012 309.60443l0 -10.59375l0.6875 0.53125l-2.5625 1.359375l-0.546875 -1.75l3.484375 -1.875l0.96875 0l0 12.328125l-2.03125 0zm-2.0625 0.921875l0 -1.9375l6.21875 0l0 1.9375l-6.21875 0z" fill-rule="nonzero"/><path fill="#000000" fill-opacity="0.0" d="m237.35432 260.33072l27.59056 0l0 42.015747l-27.59056 0z" fill-rule="evenodd"/><path fill="#595959" d="m248.0887 287.2507l-0.609375 -1.53125l3.984375 -4.5q0.3125 -0.328125 0.65625 -0.765625q0.359375 -0.4375 0.671875 -0.90625q0.3125 -0.46875 0.5 -0.921875q0.203125 -0.453125 0.203125 -0.875q0 -0.59375 -0.234375 -1.015625q-0.234375 -0.421875 -0.671875 -0.640625q-0.4375 -0.21875 -1.046875 -0.21875q-0.546875 0 -1.078125 0.3125q-0.515625 0.3125 -0.9375 0.890625q-0.421875 0.578125 -0.671875 1.34375l-1.546875 -0.96875q0.3125 -1.078125 0.953125 -1.84375q0.65625 -0.78125 1.546875 -1.1875q0.90625 -0.421875 1.96875 -0.421875q1.109375 0 1.96875 0.46875q0.859375 0.453125 1.34375 1.265625q0.484375 0.8125 0.484375 1.875q0 0.421875 -0.09375 0.875q-0.09375 0.4375 -0.296875 0.921875q-0.203125 0.46875 -0.53125 0.984375q-0.3125 0.515625 -0.75 1.078125q-0.4375 0.5625 -1.0 1.171875l-2.96875 3.234375l-0.375 -0.5625l6.421875 0l0 1.9375l-7.890625 0z" fill-rule="nonzero"/><path fill="#000000" fill-opacity="0.0" d="m237.35432 237.05511l27.59056 0l0 42.015747l-27.59056 0z" fill-rule="evenodd"/><path fill="#595959" d="m251.04182 264.16263q-1.390625 0 -2.40625 -0.625q-1.015625 -0.640625 -1.90625 -2.140625l1.5625 -0.984375q0.46875 0.6875 0.921875 1.125q0.46875 0.4375 0.953125 0.65625q0.484375 0.203125 1.015625 0.203125q0.65625 0 1.21875 -0.328125q0.5625 -0.328125 0.890625 -0.90625q0.34375 -0.578125 0.34375 -1.3125q0 -0.71875 -0.265625 -1.234375q-0.265625 -0.515625 -0.765625 -0.78125q-0.5 -0.28125 -1.1875 -0.28125q-0.328125 0 -0.671875 0.078125q-0.34375 0.0625 -0.734375 0.1875q-0.390625 0.109375 -0.859375 0.296875l-0.5625 -1.46875l4.03125 -4.4375153l0.390625 0.578125l-5.5625 0l0 -1.875l7.484375 0l0.375 0.75l-4.265625 4.7343903l-0.46875 -0.48439026q0.140625 -0.078125 0.484375 -0.140625q0.359375 -0.0625 0.578125 -0.0625q0.8125 0 1.53125 0.31251526q0.71875 0.296875 1.25 0.859375q0.53125 0.546875 0.84375 1.28125q0.3125 0.734375 0.3125 1.578125q0 1.265625 -0.609375 2.265625q-0.609375 1.0 -1.640625 1.578125q-1.015625 0.578125 -2.28125 0.578125z" fill-rule="nonzero"/><path fill="#000000" fill-opacity="0.0" d="m237.35432 213.77953l27.59056 0l0 42.015747l-27.59056 0z" fill-rule="evenodd"/><path fill="#595959" d="m252.91682 240.69952l0 -10.515625l0.46875 0.109375l-4.28125 5.234375l-0.078125 -0.21875l8.10939 0l0 1.84375l-9.35939 0l-0.859375 -1.671875l6.390625 -7.84375l1.546875 0l0 13.0625l-1.9375 0z" fill-rule="nonzero"/><path fill="#000000" fill-opacity="0.0" d="m237.35432 191.79527l27.59056 0l0 42.015747l-27.59056 0z" fill-rule="evenodd"/><path fill="#595959" d="m251.1512 218.84027q-1.296875 0 -2.34375 -0.578125q-1.03125 -0.59375 -1.71875 -1.6875l1.109375 -1.25q0.875 0.96875 1.53125 1.328125q0.65625 0.34375 1.421875 0.34375q0.765625 0 1.375 -0.328125q0.625 -0.34375 0.984375 -0.921875q0.359375 -0.578125 0.359375 -1.28125q0 -0.75 -0.34375 -1.328125q-0.34375 -0.59375 -0.921875 -0.9375q-0.578125 -0.34375 -1.3125 -0.34375q-0.34375 0 -0.671875 0.046875q-0.3125 0.046875 -0.765625 0.21875q-0.4375 0.15625 -1.171875 0.515625l-1.0625 -1.4375l0.765625 -5.546875l7.046875 0l0 1.875l-5.78125 0l0.390625 -0.359375l-0.609375 4.140625l-0.46875 -0.546875q0.1875 -0.1875 0.625 -0.359375q0.453125 -0.171875 1.0 -0.296875q0.5625 -0.125 1.0625 -0.125q1.203125 0 2.140625 0.5625q0.9375 0.546875 1.484375 1.515625q0.5625 0.96875 0.5625 2.21875q0 1.28125 -0.625 2.328125q-0.609375 1.03125 -1.671875 1.640625q-1.0625 0.59375 -2.390625 0.59375z" fill-rule="nonzero"/><path fill="#ffab40" d="m309.80054 306.4252l85.322815 0l0 22.897644l-85.322815 0z" fill-rule="evenodd"/><path fill="#990055" d="m395.12335 213.77953l85.322845 0l0 115.52757l-85.322845 0z" fill-rule="evenodd"/><path fill="#669900" d="m480.4462 213.77953l85.322845 0l0 115.52757l-85.322845 0z" fill-rule="evenodd"/><path fill="#ff00ff" d="m565.76904 213.77953l85.322815 0l0 115.52757l-85.322815 0z" fill-rule="evenodd"/><path fill="#000000" fill-opacity="0.0" d="m285.80054 329.5118l377.13385 0" fill-rule="evenodd"/><path stroke="#595959" stroke-width="1.0" stroke-linejoin="round" stroke-linecap="butt" d="m285.80054 329.5118l377.13385 0" fill-rule="evenodd"/><path fill="#000000" fill-opacity="0.0" d="m395.12335 327.96588l0 7.1810913" fill-rule="evenodd"/><path stroke="#595959" stroke-width="1.0" stroke-linejoin="round" stroke-linecap="butt" d="m395.12335 327.96588l0 7.1810913" fill-rule="evenodd"/><path fill="#000000" fill-opacity="0.0" d="m480.4462 327.96588l0 7.1810913" fill-rule="evenodd"/><path stroke="#595959" stroke-width="1.0" stroke-linejoin="round" stroke-linecap="butt" d="m480.4462 327.96588l0 7.1810913" fill-rule="evenodd"/><path fill="#000000" fill-opacity="0.0" d="m565.76904 329.71652l0 7.181122" fill-rule="evenodd"/><path stroke="#595959" stroke-width="1.0" stroke-linejoin="round" stroke-linecap="butt" d="m565.76904 329.71652l0 7.181122" fill-rule="evenodd"/><path fill="#000000" fill-opacity="0.0" d="m651.09186 329.71652l0 7.181122" fill-rule="evenodd"/><path stroke="#595959" stroke-width="1.0" stroke-linejoin="round" stroke-linecap="butt" d="m651.09186 329.71652l0 7.181122" fill-rule="evenodd"/><path fill="#000000" fill-opacity="0.0" d="m309.80054 329.70078l0 7.181122" fill-rule="evenodd"/><path stroke="#595959" stroke-width="1.0" stroke-linejoin="round" stroke-linecap="butt" d="m309.80054 329.70078l0 7.181122" fill-rule="evenodd"/><path fill="#000000" fill-opacity="0.0" d="m289.58005 337.07086l40.44095 0l0 22.897644l-40.44095 0z" fill-rule="evenodd"/><path fill="#595959" d="m304.9375 354.32657q-1.046875 0 -1.90625 -0.4375q-0.84375 -0.4375 -1.359375 -1.171875q-0.515625 -0.734375 -0.515625 -1.640625q0 -0.5 0.140625 -0.9375q0.140625 -0.4375 0.421875 -0.796875q0.28125 -0.375 0.671875 -0.671875q0.40625 -0.3125 0.9375 -0.546875l-0.109375 0.328125q-0.40625 -0.15625 -0.734375 -0.390625q-0.328125 -0.234375 -0.578125 -0.53125q-0.234375 -0.3125 -0.359375 -0.65625q-0.109375 -0.359375 -0.109375 -0.734375q0 -0.84375 0.46875 -1.53125q0.46875 -0.703125 1.25 -1.109375q0.796875 -0.421875 1.78125 -0.421875q0.96875 0 1.765625 0.421875q0.796875 0.40625 1.265625 1.109375q0.46875 0.6875 0.46875 1.53125q0 0.375 -0.125 0.734375q-0.109375 0.34375 -0.34375 0.640625q-0.21875 0.28125 -0.5625 0.53125q-0.34375 0.234375 -0.78125 0.40625l-0.046875 -0.265625q0.484375 0.1875 0.875 0.5q0.390625 0.296875 0.671875 0.6875q0.296875 0.375 0.453125 0.8125q0.15625 0.4375 0.15625 0.890625q0 0.921875 -0.515625 1.65625q-0.515625 0.734375 -1.375 1.171875q-0.84375 0.421875 -1.90625 0.421875zm0 -1.59375q0.59375 0 1.0625 -0.21875q0.46875 -0.234375 0.734375 -0.609375q0.28125 -0.390625 0.28125 -0.890625q0 -0.53125 -0.28125 -0.9375q-0.265625 -0.40625 -0.734375 -0.640625q-0.46875 -0.25 -1.0625 -0.25q-0.59375 0 -1.0625 0.25q-0.453125 0.234375 -0.734375 0.640625q-0.265625 0.40625 -0.265625 0.9375q0 0.484375 0.265625 0.875q0.28125 0.375 0.734375 0.609375q0.46875 0.234375 1.0625 0.234375zm0 -5.078125q0.515625 0 0.921875 -0.1875q0.40625 -0.203125 0.640625 -0.515625q0.234375 -0.328125 0.234375 -0.765625q0 -0.4375 -0.234375 -0.765625q-0.234375 -0.34375 -0.640625 -0.53125q-0.40625 -0.203125 -0.921875 -0.203125q-0.515625 0 -0.921875 0.203125q-0.40625 0.1875 -0.640625 0.53125q-0.234375 0.328125 -0.234375 0.765625q0 0.4375 0.234375 0.765625q0.234375 0.3125 0.640625 0.515625q0.40625 0.1875 0.921875 0.1875zm9.482788 6.78125q-1.28125 0 -2.203125 -0.703125q-0.90625 -0.703125 -1.40625 -1.984375q-0.5 -1.296875 -0.5 -3.0625q0 -1.78125 0.5 -3.0625q0.5 -1.296875 1.40625 -2.0q0.921875 -0.703125 2.203125 -0.703125q1.28125 0 2.203125 0.703125q0.9375 0.703125 1.421875 2.0q0.5 1.28125 0.5 3.0625q0 1.765625 -0.5 3.0625q-0.484375 1.28125 -1.421875 1.984375q-0.921875 0.703125 -2.203125 0.703125zm0 -1.5625q1.171875 0 1.8125 -1.09375q0.640625 -1.09375 0.640625 -3.09375q0 -2.0 -0.640625 -3.09375q-0.640625 -1.109375 -1.8125 -1.109375q-1.15625 0 -1.796875 1.109375q-0.640625 1.09375 -0.640625 3.09375q0 2.0 0.640625 3.09375q0.640625 1.09375 1.796875 1.09375z" fill-rule="nonzero"/><path fill="#000000" fill-opacity="0.0" d="m374.9029 337.07086l40.44095 0l0 22.897644l-40.44095 0z" fill-rule="evenodd"/><path fill="#595959" d="m390.57233 354.32657q-1.046875 0 -1.90625 -0.4375q-0.84375 -0.4375 -1.359375 -1.171875q-0.515625 -0.734375 -0.515625 -1.640625q0 -0.5 0.140625 -0.9375q0.140625 -0.4375 0.421875 -0.796875q0.28125 -0.375 0.671875 -0.671875q0.40625 -0.3125 0.9375 -0.546875l-0.109375 0.328125q-0.40625 -0.15625 -0.734375 -0.390625q-0.328125 -0.234375 -0.578125 -0.53125q-0.234375 -0.3125 -0.359375 -0.65625q-0.109375 -0.359375 -0.109375 -0.734375q0 -0.84375 0.46875 -1.53125q0.46875 -0.703125 1.25 -1.109375q0.796875 -0.421875 1.78125 -0.421875q0.96875 0 1.765625 0.421875q0.796875 0.40625 1.265625 1.109375q0.46875 0.6875 0.46875 1.53125q0 0.375 -0.125 0.734375q-0.109375 0.34375 -0.34375 0.640625q-0.21875 0.28125 -0.5625 0.53125q-0.34375 0.234375 -0.78125 0.40625l-0.046875 -0.265625q0.484375 0.1875 0.875 0.5q0.390625 0.296875 0.671875 0.6875q0.296875 0.375 0.453125 0.8125q0.15625 0.4375 0.15625 0.890625q0 0.921875 -0.515625 1.65625q-0.515625 0.734375 -1.375 1.171875q-0.84375 0.421875 -1.90625 0.421875zm0 -1.59375q0.59375 0 1.0625 -0.21875q0.46875 -0.234375 0.734375 -0.609375q0.28125 -0.390625 0.28125 -0.890625q0 -0.53125 -0.28125 -0.9375q-0.265625 -0.40625 -0.734375 -0.640625q-0.46875 -0.25 -1.0625 -0.25q-0.59375 0 -1.0625 0.25q-0.453125 0.234375 -0.734375 0.640625q-0.265625 0.40625 -0.265625 0.9375q0 0.484375 0.265625 0.875q0.28125 0.375 0.734375 0.609375q0.46875 0.234375 1.0625 0.234375zm0 -5.078125q0.515625 0 0.921875 -0.1875q0.40625 -0.203125 0.640625 -0.515625q0.234375 -0.328125 0.234375 -0.765625q0 -0.4375 -0.234375 -0.765625q-0.234375 -0.34375 -0.640625 -0.53125q-0.40625 -0.203125 -0.921875 -0.203125q-0.515625 0 -0.921875 0.203125q-0.40625 0.1875 -0.640625 0.53125q-0.234375 0.328125 -0.234375 0.765625q0 0.4375 0.234375 0.765625q0.234375 0.3125 0.640625 0.515625q0.40625 0.1875 0.921875 0.1875zm8.748413 6.734375q-1.09375 0 -2.0 -0.5q-0.890625 -0.5 -1.484375 -1.453125l0.953125 -1.0625q0.765625 0.828125 1.3125 1.140625q0.5625 0.296875 1.21875 0.296875q0.65625 0 1.1875 -0.28125q0.53125 -0.296875 0.84375 -0.796875q0.3125 -0.5 0.3125 -1.09375q0 -0.640625 -0.296875 -1.140625q-0.296875 -0.515625 -0.796875 -0.8125q-0.5 -0.296875 -1.125 -0.296875q-0.296875 0 -0.578125 0.046875q-0.265625 0.03125 -0.65625 0.1875q-0.375 0.140625 -1.0 0.4375l-0.90625 -1.234375l0.65625 -4.75l6.046875 0l0 1.609375l-4.96875 0l0.34375 -0.3125l-0.53125 3.546875l-0.40625 -0.453125q0.171875 -0.15625 0.546875 -0.3125q0.390625 -0.15625 0.859375 -0.25q0.46875 -0.109375 0.90625 -0.109375q1.015625 0 1.828125 0.46875q0.8125 0.46875 1.28125 1.3125q0.46875 0.828125 0.46875 1.890625q0 1.109375 -0.53125 2.0q-0.515625 0.890625 -1.4375 1.40625q-0.90625 0.515625 -2.046875 0.515625z" fill-rule="nonzero"/><path fill="#000000" fill-opacity="0.0" d="m460.2257 337.07086l40.44095 0l0 22.897644l-40.44095 0z" fill-rule="evenodd"/><path fill="#595959" d="m474.82278 354.2797l-0.0625 -0.15625l3.328125 -7.078125l0.046875 1.328125q-0.28125 0.484375 -0.625 0.859375q-0.34375 0.359375 -0.75 0.625q-0.40625 0.265625 -0.84375 0.40625q-0.4375 0.125 -0.875 0.125q-0.921875 0 -1.6875 -0.46875q-0.765625 -0.484375 -1.234375 -1.28125q-0.453125 -0.8125 -0.453125 -1.75q0 -1.140625 0.5 -2.046875q0.515625 -0.90625 1.40625 -1.421875q0.890625 -0.53125 2.0 -0.53125q0.796875 0 1.5 0.296875q0.703125 0.28125 1.21875 0.796875q0.53125 0.515625 0.828125 1.203125q0.3125 0.671875 0.3125 1.453125q0 0.390625 -0.078125 0.84375q-0.078125 0.453125 -0.265625 1.03125q-0.171875 0.5625 -0.484375 1.296875q-0.296875 0.71875 -0.75 1.6875l-1.328125 2.78125l-1.703125 0zm0.578125 -5.484375q0.625 0 1.125 -0.28125q0.5 -0.28125 0.78125 -0.75q0.28125 -0.46875 0.28125 -1.0625q0 -0.625 -0.28125 -1.125q-0.265625 -0.515625 -0.765625 -0.796875q-0.484375 -0.296875 -1.109375 -0.296875q-0.5625 0 -1.015625 0.28125q-0.453125 0.28125 -0.71875 0.78125q-0.265625 0.484375 -0.265625 1.140625q0 0.546875 0.265625 1.03125q0.265625 0.484375 0.71875 0.78125q0.453125 0.296875 0.984375 0.296875zm9.44104 5.640625q-1.28125 0 -2.203125 -0.703125q-0.90625 -0.703125 -1.40625 -1.984375q-0.5 -1.296875 -0.5 -3.0625q0 -1.78125 0.5 -3.0625q0.5 -1.296875 1.40625 -2.0q0.921875 -0.703125 2.203125 -0.703125q1.28125 0 2.203125 0.703125q0.9375 0.703125 1.421875 2.0q0.5 1.28125 0.5 3.0625q0 1.765625 -0.5 3.0625q-0.484375 1.28125 -1.421875 1.984375q-0.921875 0.703125 -2.203125 0.703125zm0 -1.5625q1.171875 0 1.8125 -1.09375q0.640625 -1.09375 0.640625 -3.09375q0 -2.0 -0.640625 -3.09375q-0.640625 -1.109375 -1.8125 -1.109375q-1.15625 0 -1.796875 1.109375q-0.640625 1.09375 -0.640625 3.09375q0 2.0 0.640625 3.09375q0.640625 1.09375 1.796875 1.09375z" fill-rule="nonzero"/><path fill="#000000" fill-opacity="0.0" d="m545.5486 337.10236l40.440918 0l0 22.897644l-40.440918 0z" fill-rule="evenodd"/><path fill="#595959" d="m560.45764 354.3112l-0.0625 -0.15625l3.328125 -7.078125l0.046875 1.328125q-0.28125 0.484375 -0.625 0.859375q-0.34375 0.359375 -0.75 0.625q-0.40625 0.265625 -0.84375 0.40625q-0.4375 0.125 -0.875 0.125q-0.921875 0 -1.6875 -0.46875q-0.765625 -0.484375 -1.234375 -1.28125q-0.453125 -0.8125 -0.453125 -1.75q0 -1.140625 0.5 -2.046875q0.515625 -0.90625 1.40625 -1.421875q0.890625 -0.53125 2.0 -0.53125q0.796875 0 1.5 0.296875q0.703125 0.28125 1.21875 0.796875q0.53125 0.515625 0.828125 1.203125q0.3125 0.671875 0.3125 1.453125q0 0.390625 -0.078125 0.84375q-0.078125 0.453125 -0.265625 1.03125q-0.171875 0.5625 -0.484375 1.296875q-0.296875 0.71875 -0.75 1.6875l-1.328125 2.78125l-1.703125 0zm0.578125 -5.484375q0.625 0 1.125 -0.28125q0.5 -0.28125 0.78125 -0.75q0.28125 -0.46875 0.28125 -1.0625q0 -0.625 -0.28125 -1.125q-0.265625 -0.515625 -0.765625 -0.796875q-0.484375 -0.296875 -1.109375 -0.296875q-0.5625 0 -1.015625 0.28125q-0.453125 0.28125 -0.71875 0.78125q-0.265625 0.484375 -0.265625 1.140625q0 0.546875 0.265625 1.03125q0.265625 0.484375 0.71875 0.78125q0.453125 0.296875 0.984375 0.296875zm8.706665 5.59375q-1.09375 0 -2.0 -0.5q-0.890625 -0.5 -1.484375 -1.453125l0.953125 -1.0625q0.765625 0.828125 1.3125 1.140625q0.5625 0.296875 1.21875 0.296875q0.65625 0 1.1875 -0.28125q0.53125 -0.296875 0.84375 -0.796875q0.3125 -0.5 0.3125 -1.09375q0 -0.640625 -0.296875 -1.140625q-0.296875 -0.515625 -0.796875 -0.8125q-0.5 -0.296875 -1.125 -0.296875q-0.296875 0 -0.578125 0.046875q-0.265625 0.03125 -0.65625 0.1875q-0.375 0.140625 -1.0 0.4375l-0.90625 -1.234375l0.65625 -4.75l6.046875 0l0 1.609375l-4.96875 0l0.34375 -0.3125l-0.53125 3.546875l-0.40625 -0.453125q0.171875 -0.15625 0.546875 -0.3125q0.390625 -0.15625 0.859375 -0.25q0.46875 -0.109375 0.90625 -0.109375q1.015625 0 1.828125 0.46875q0.8125 0.46875 1.28125 1.3125q0.46875 0.828125 0.46875 1.890625q0 1.109375 -0.53125 2.0q-0.515625 0.890625 -1.4375 1.40625q-0.90625 0.515625 -2.046875 0.515625z" fill-rule="nonzero"/><path fill="#000000" fill-opacity="0.0" d="m625.32806 337.10236l51.527588 0l0 22.897644l-51.527588 0z" fill-rule="evenodd"/><path fill="#595959" d="m640.8486 353.52994l0 -9.09375l0.59375 0.453125l-2.203125 1.171875l-0.46875 -1.515625l3.0 -1.59375l0.828125 0l0 10.578125l-1.75 0zm-1.765625 0.78125l0 -1.65625l5.34375 0l0 1.65625l-5.34375 0zm11.140625 0.15625q-1.28125 0 -2.203125 -0.703125q-0.90625 -0.703125 -1.40625 -1.984375q-0.5 -1.296875 -0.5 -3.0625q0 -1.78125 0.5 -3.0625q0.5 -1.296875 1.40625 -2.0q0.921875 -0.703125 2.203125 -0.703125q1.28125 0 2.203125 0.703125q0.9375 0.703125 1.421875 2.0q0.5 1.28125 0.5 3.0625q0 1.765625 -0.5 3.0625q-0.484375 1.28125 -1.421875 1.984375q-0.921875 0.703125 -2.203125 0.703125zm0 -1.5625q1.171875 0 1.8125 -1.09375q0.640625 -1.09375 0.640625 -3.09375q0 -2.0 -0.640625 -3.09375q-0.640625 -1.109375 -1.8125 -1.109375q-1.15625 0 -1.796875 1.109375q-0.640625 1.09375 -0.640625 3.09375q0 2.0 0.640625 3.09375q0.640625 1.09375 1.796875 1.09375zm9.712036 1.5625q-1.28125 0 -2.203125 -0.703125q-0.90625 -0.703125 -1.40625 -1.984375q-0.5 -1.296875 -0.5 -3.0625q0 -1.78125 0.5 -3.0625q0.5 -1.296875 1.40625 -2.0q0.921875 -0.703125 2.203125 -0.703125q1.28125 0 2.203125 0.703125q0.9375 0.703125 1.421875 2.0q0.5 1.28125 0.5 3.0625q0 1.765625 -0.5 3.0625q-0.484375 1.28125 -1.421875 1.984375q-0.921875 0.703125 -2.203125 0.703125zm0 -1.5625q1.171875 0 1.8125 -1.09375q0.640625 -1.09375 0.640625 -3.09375q0 -2.0 -0.640625 -3.09375q-0.640625 -1.109375 -1.8125 -1.109375q-1.15625 0 -1.796875 1.109375q-0.640625 1.09375 -0.640625 3.09375q0 2.0 0.640625 3.09375q0.640625 1.09375 1.796875 1.09375z" fill-rule="nonzero"/></g></svg>