<svg version="1.1" viewBox="0.0 0.0 667.8267716535433 198.82939632545933" fill="none" stroke="none" stroke-linecap="square" stroke-miterlimit="10" xmlns:xlink="http://www.w3.org/1999/xlink" xmlns="http://www.w3.org/2000/svg"><clipPath id="p.0"><path d="m0 0l667.8268 0l0 198.82939l-667.8268 0l0 -198.82939z" clip-rule="nonzero"/></clipPath><g clip-path="url(#p.0)"><path fill="#000000" fill-opacity="0.0" d="m0 0l667.8268 0l0 198.82939l-667.8268 0z" fill-rule="evenodd"/><path fill="#000000" fill-opacity="0.0" d="m21.061224 22.528694l0 163.24408" fill-rule="evenodd"/><path stroke="#595959" stroke-width="2.0" stroke-linejoin="round" stroke-linecap="butt" d="m21.061224 22.528694l0 163.24408" fill-rule="evenodd"/><path fill="#000000" fill-opacity="0.0" d="m20.616404 185.77092l192.44093 0" fill-rule="evenodd"/><path stroke="#595959" stroke-width="2.0" stroke-linejoin="round" stroke-linecap="butt" d="m20.616404 185.77092l192.44093 0" fill-rule="evenodd"/><path fill="#000000" fill-opacity="0.0" d="m213.09746 178.37335l24.881897 0l0 14.803146l-24.881897 0z" fill-rule="evenodd"/><path fill="#78909c" d="m229.95683 192.49492l-2.296875 -4.125l-0.203125 -0.359375l-3.0 -5.3125l2.421875 0l2.265625 4.0625l0.21875 0.421875l2.9375 5.3125l-2.34375 0zm-7.5625 0l4.921875 -5.03125l0.859375 1.359375l-3.5 3.671875l-2.28125 0zm6.953125 -4.734375l-0.765625 -1.34375l3.1875 -3.71875l2.28125 0l-4.703125 5.0625z" fill-rule="nonzero"/><path fill="#000000" fill-opacity="0.0" d="m-3.937008E-6 -6.377953E-5l42.110237 0l0 14.80315l-42.110237 0z" fill-rule="evenodd"/><path fill="#78909c" d="m17.7136 18.418386l2.953125 -4.578126l-0.3125 1.53125l-2.546875 -11.046875l2.234375 0l1.53125 7.203125q0.0625 0.1875 0.109375 0.578125q0.046875 0.375 0.0625 0.75l-0.5 0.109375q0.21875 -0.390625 0.4375 -0.78125q0.234375 -0.390625 0.4375 -0.78125l4.0625 -7.078125l2.28125 0l-6.109375 9.796875l-2.5625 4.296876l-2.078125 0z" fill-rule="nonzero"/><path fill="#4285f4" d="m32.752064 82.47754l0 0c0 -2.58313 2.094036 -4.67717 4.677166 -4.67717l0 0c1.2404594 0 2.4301147 0.49277496 3.3072548 1.3699112c0.87713623 0.87713623 1.3699112 2.0667953 1.3699112 3.3072586l0 0c0 2.5831223 -2.09404 4.677162 -4.677166 4.677162l0 0c-2.58313 0 -4.677166 -2.09404 -4.677166 -4.677162z" fill-rule="evenodd"/><path fill="#4285f4" d="m32.752987 104.1492l0 0c0 -2.58313 2.09404 -4.677162 4.677166 -4.677162l0 0c1.2404594 0 2.4301147 0.49276733 3.3072548 1.3699112c0.87714005 0.87713623 1.3699112 2.0667877 1.3699112 3.307251l0 0c0 2.58313 -2.09404 4.677162 -4.677166 4.677162l0 0c-2.583126 0 -4.677166 -2.0940323 -4.677166 -4.677162z" fill-rule="evenodd"/><path fill="#4285f4" d="m51.994637 91.19282l0 0c0 -2.58313 2.09404 -4.67717 4.677166 -4.67717l0 0c1.2404633 0 2.4301186 0.49277496 3.3072548 1.3699112c0.87714005 0.87714386 1.3699112 2.0667953 1.3699112 3.3072586l0 0c0 2.5831223 -2.09404 4.677162 -4.677166 4.677162l0 0c-2.583126 0 -4.677166 -2.09404 -4.677166 -4.677162z" fill-rule="evenodd"/><path fill="#4285f4" d="m78.16527 82.47845l0 0c0 -2.5831223 2.09404 -4.677162 4.67717 -4.677162l0 0c1.2404556 0 2.4301147 0.49277496 3.307251 1.3699112c0.87714386 0.87713623 1.3699112 2.0667953 1.3699112 3.307251l0 0c0 2.58313 -2.09404 4.67717 -4.677162 4.67717l0 0c-2.58313 0 -4.67717 -2.09404 -4.67717 -4.67717z" fill-rule="evenodd"/><path fill="#4285f4" d="m185.76445 112.68511l0 0c0 -2.58313 2.09404 -4.67717 4.67717 -4.67717l0 0c1.2404633 0 2.4301147 0.49277496 3.307251 1.3699112c0.87713623 0.87713623 1.3699188 2.0667953 1.3699188 3.3072586l0 0c0 2.5831223 -2.09404 4.677162 -4.67717 4.677162l0 0c-2.58313 0 -4.67717 -2.09404 -4.67717 -4.677162z" fill-rule="evenodd"/><path fill="#4285f4" d="m135.2307 112.68468l0 0c0 -2.58313 2.09404 -4.677162 4.6771545 -4.677162l0 0c1.2404633 0 2.43013 0.49276733 3.3072662 1.3699112c0.87713623 0.87713623 1.3699036 2.0667877 1.3699036 3.307251l0 0c0 2.58313 -2.09404 4.67717 -4.67717 4.67717l0 0c-2.5831146 0 -4.6771545 -2.09404 -4.6771545 -4.67717z" fill-rule="evenodd"/><path fill="#4285f4" d="m152.63127 89.391205l0 0c0 -2.5831223 2.09404 -4.677162 4.67717 -4.677162l0 0c1.2404633 0 2.4301147 0.49277496 3.307251 1.3699112c0.8771515 0.87713623 1.3699188 2.0667953 1.3699188 3.307251l0 0c0 2.58313 -2.09404 4.67717 -4.67717 4.67717l0 0c-2.58313 0 -4.67717 -2.09404 -4.67717 -4.67717z" fill-rule="evenodd"/><path fill="#4285f4" d="m116.512955 82.47796l0 0c0 -2.5831223 2.0940323 -4.677162 4.677162 -4.677162l0 0c1.2404633 0 2.4301147 0.49277496 3.307251 1.3699112c0.87714386 0.87713623 1.3699112 2.0667953 1.3699112 3.307251l0 0c0 2.58313 -2.0940323 4.67717 -4.677162 4.67717l0 0c-2.58313 0 -4.677162 -2.09404 -4.677162 -4.67717z" fill-rule="evenodd"/><path fill="#4285f4" d="m97.33908 82.47751l0 0c0 -2.58313 2.09404 -4.677162 4.677162 -4.677162l0 0c1.2404633 0 2.4301147 0.49276733 3.3072586 1.3699112c0.87713623 0.87713623 1.3699112 2.0667877 1.3699112 3.307251l0 0c0 2.58313 -2.09404 4.67717 -4.67717 4.67717l0 0c-2.5831223 0 -4.677162 -2.09404 -4.677162 -4.67717z" fill-rule="evenodd"/><path fill="#4285f4" d="m102.01653 112.68414l0 0c0 -2.58313 2.09404 -4.67717 4.67717 -4.67717l0 0c1.2404556 0 2.4301147 0.49277496 3.307251 1.3699112c0.87713623 0.87713623 1.3699112 2.0667953 1.3699112 3.3072586l0 0c0 2.5831223 -2.09404 4.677162 -4.677162 4.677162l0 0c-2.58313 0 -4.67717 -2.09404 -4.67717 -4.677162z" fill-rule="evenodd"/><path fill="#4285f4" d="m156.40125 112.169106l0 0c0 -2.58313 2.0940247 -4.677162 4.6771545 -4.677162l0 0c1.2404633 0 2.4301147 0.49276733 3.3072662 1.3699036c0.87713623 0.87714386 1.3699036 2.0667953 1.3699036 3.3072586l0 0c0 2.58313 -2.09404 4.677162 -4.67717 4.677162l0 0c-2.58313 0 -4.6771545 -2.0940323 -4.6771545 -4.677162z" fill-rule="evenodd"/><path fill="#4285f4" d="m122.59959 101.8423l0 0c0 -2.5831223 2.0940323 -4.677162 4.677162 -4.677162l0 0c1.2404633 0 2.4301147 0.49277496 3.307251 1.3699112c0.87713623 0.87713623 1.3699188 2.0667953 1.3699188 3.307251l0 0c0 2.58313 -2.09404 4.67717 -4.67717 4.67717l0 0c-2.58313 0 -4.677162 -2.09404 -4.677162 -4.67717z" fill-rule="evenodd"/><path fill="#4285f4" d="m68.80054 106.947876l0 0c0 -2.58313 2.0940323 -4.67717 4.677162 -4.67717l0 0c1.2404633 0 2.4301147 0.49277496 3.3072586 1.3699112c0.87713623 0.87713623 1.3699112 2.0667953 1.3699112 3.3072586l0 0c0 2.5831223 -2.09404 4.677162 -4.67717 4.677162l0 0c-2.58313 0 -4.677162 -2.09404 -4.677162 -4.677162z" fill-rule="evenodd"/><path fill="#4285f4" d="m174.90543 82.47803l0 0c0 -2.58313 2.09404 -4.67717 4.67717 -4.67717l0 0c1.2404633 0 2.4301147 0.49277496 3.307251 1.3699112c0.87713623 0.87713623 1.3699036 2.0667953 1.3699036 3.3072586l0 0c0 2.5831223 -2.0940247 4.677162 -4.6771545 4.677162l0 0c-2.58313 0 -4.67717 -2.09404 -4.67717 -4.677162z" fill-rule="evenodd"/><path fill="#4285f4" d="m134.19981 88.21719l0 0c0 -2.58313 2.09404 -4.677162 4.6771545 -4.677162l0 0c1.2404633 0 2.43013 0.49276733 3.3072662 1.3699036c0.87713623 0.87714386 1.3699036 2.0667953 1.3699036 3.3072586l0 0c0 2.58313 -2.09404 4.677162 -4.67717 4.677162l0 0c-2.5831146 0 -4.6771545 -2.0940323 -4.6771545 -4.677162z" fill-rule="evenodd"/><path fill="#4285f4" d="m176.39748 101.84148l0 0c0 -2.58313 2.09404 -4.677162 4.67717 -4.677162l0 0c1.2404633 0 2.4301147 0.49276733 3.307251 1.3699036c0.87713623 0.87714386 1.3699036 2.0667953 1.3699036 3.3072586l0 0c0 2.58313 -2.0940247 4.677162 -4.6771545 4.677162l0 0c-2.58313 0 -4.67717 -2.0940323 -4.67717 -4.677162z" fill-rule="evenodd"/><path fill="#4285f4" d="m92.650536 97.58086l0 0c0 -2.58313 2.0940323 -4.67717 4.677162 -4.67717l0 0c1.2404633 0 2.4301147 0.49277496 3.3072586 1.3699112c0.87713623 0.87713623 1.3699112 2.0667953 1.3699112 3.3072586l0 0c0 2.5831223 -2.09404 4.677162 -4.67717 4.677162l0 0c-2.58313 0 -4.677162 -2.09404 -4.677162 -4.677162z" fill-rule="evenodd"/><path fill="#4285f4" d="m197.17934 89.390686l0 0c0 -2.5831223 2.09404 -4.677162 4.6771545 -4.677162l0 0c1.2404633 0 2.43013 0.49276733 3.3072662 1.3699112c0.87713623 0.87713623 1.3699036 2.0667877 1.3699036 3.307251l0 0c0 2.58313 -2.09404 4.67717 -4.67717 4.67717l0 0c-2.5831146 0 -4.6771545 -2.09404 -4.6771545 -4.67717z" fill-rule="evenodd"/><path fill="#000000" fill-opacity="0.0" d="m260.15747 71.091866l455.71655 0l0 86.771645l-455.71655 0z" fill-rule="evenodd"/><path fill="#595959" d="m287.52966 88.73061q1.0 0 1.96875 0.53125q0.96875 0.515625 1.5 1.484375q0.53125 0.96875 0.53125 2.0q0 1.671875 -1.171875 2.84375q-1.171875 1.171875 -2.828125 1.171875q-1.671875 0 -2.84375 -1.171875q-1.171875 -1.171875 -1.171875 -2.84375q0 -1.046875 0.53125 -2.0q0.546875 -0.96875 1.5 -1.484375q0.96875 -0.53125 1.984375 -0.53125z" fill-rule="nonzero"/><path fill="#595959" d="m318.9856 98.01186l0 -13.0625l1.8125 0l7.984375 10.6875l-0.296875 0.171875q-0.078125 -0.46875 -0.140625 -1.015625q-0.046875 -0.546875 -0.09375 -1.171875q-0.046875 -0.625 -0.078125 -1.328125q-0.03125 -0.703125 -0.046875 -1.46875q-0.015625 -0.765625 -0.015625 -1.578125l0 -4.296875l2.015625 0l0 13.0625l-1.84375 0l-7.859375 -10.296875l0.203125 -0.265625q0.09375 1.140625 0.15625 1.9375q0.0625 0.796875 0.109375 1.34375q0.046875 0.546875 0.0625 0.890625q0.03125 0.34375 0.03125 0.578125q0.015625 0.21875 0.015625 0.390625l0 5.421875l-2.015625 0zm18.716278 0.1875q-1.4375 0 -2.578125 -0.65625q-1.125 -0.671875 -1.78125 -1.8125q-0.640625 -1.15625 -0.640625 -2.625q0 -1.46875 0.640625 -2.609375q0.65625 -1.15625 1.78125 -1.8125q1.140625 -0.671875 2.578125 -0.671875q1.40625 0 2.53125 0.671875q1.140625 0.65625 1.796875 1.8125q0.65625 1.140625 0.65625 2.609375q0 1.46875 -0.65625 2.625q-0.65625 1.140625 -1.796875 1.8125q-1.125 0.65625 -2.53125 0.65625zm0 -1.75q0.875 0 1.5625 -0.4375q0.6875 -0.4375 1.078125 -1.1875q0.390625 -0.765625 0.375 -1.71875q0.015625 -0.96875 -0.375 -1.71875q-0.390625 -0.765625 -1.078125 -1.1875q-0.6875 -0.4375 -1.5625 -0.4375q-0.875 0 -1.578125 0.4375q-0.703125 0.4375 -1.09375 1.203125q-0.390625 0.75 -0.375 1.703125q-0.015625 0.953125 0.375 1.71875q0.390625 0.75 1.09375 1.1875q0.703125 0.4375 1.578125 0.4375zm13.509857 1.5625l0 -12.296875l1.921875 0l0 12.296875l-1.921875 0zm-2.046875 -7.921875l0 -1.875l6.234375 0l0 1.875l-6.234375 0zm7.9921265 7.921875l0 -9.796875l1.9375 0l0 3.078125l-0.1875 -0.75q0.203125 -0.703125 0.703125 -1.28125q0.5 -0.578125 1.140625 -0.90625q0.640625 -0.34375 1.328125 -0.34375q0.3125 0 0.59375 0.0625q0.296875 0.046875 0.46875 0.125l-0.5 2.09375q-0.21875 -0.09375 -0.5 -0.15625q-0.265625 -0.078125 -0.53125 -0.078125q-0.5 0 -0.953125 0.203125q-0.453125 0.1875 -0.8125 0.546875q-0.34375 0.34375 -0.546875 0.796875q-0.203125 0.453125 -0.203125 1.0l0 5.40625l-1.9375 0zm11.670319 0.1875q-1.5 0 -2.671875 -0.640625q-1.15625 -0.640625 -1.828125 -1.765625q-0.65625 -1.125 -0.65625 -2.578125q0 -1.15625 0.375 -2.109375q0.375 -0.953125 1.03125 -1.640625q0.65625 -0.703125 1.578125 -1.078125q0.9375 -0.390625 2.015625 -0.390625q0.953125 0 1.765625 0.359375q0.828125 0.359375 1.421875 1.0q0.609375 0.640625 0.9375 1.515625q0.328125 0.859375 0.3125 1.875l-0.015625 0.828125l-8.0 0l-0.4375 -1.53125l6.765625 0l-0.265625 0.3125l0 -0.4375q-0.0625 -0.625 -0.421875 -1.109375q-0.34375 -0.484375 -0.890625 -0.765625q-0.546875 -0.28125 -1.171875 -0.28125q-1.015625 0 -1.703125 0.390625q-0.6875 0.375 -1.046875 1.125q-0.34375 0.734375 -0.34375 1.8125q0 1.015625 0.421875 1.78125q0.421875 0.75 1.203125 1.171875q0.796875 0.40625 1.8125 0.40625q0.734375 0 1.359375 -0.234375q0.625 -0.25 1.359375 -0.890625l0.96875 1.359375q-0.453125 0.453125 -1.09375 0.796875q-0.640625 0.328125 -1.359375 0.53125q-0.71875 0.1875 -1.421875 0.1875zm6.370056 -0.1875l0 -9.796875l1.921875 0l0 2.015625l-0.34375 0.21875q0.1875 -0.640625 0.734375 -1.1875q0.546875 -0.5625 1.28125 -0.90625q0.75 -0.34375 1.53125 -0.34375q1.125 0 1.859375 0.4375q0.75 0.4375 1.125 1.34375q0.375 0.890625 0.375 2.25l0 5.96875l-1.921875 0l0 -5.84375q0 -0.828125 -0.21875 -1.375q-0.21875 -0.5625 -0.6875 -0.8125q-0.46875 -0.25 -1.15625 -0.21875q-0.5625 0 -1.03125 0.1875q-0.46875 0.171875 -0.8125 0.5q-0.34375 0.3125 -0.546875 0.734375q-0.1875 0.40625 -0.1875 0.890625l0 5.9375l-0.953125 0q-0.234375 0 -0.484375 0q-0.25 0 -0.484375 0zm15.178589 0.1875q-1.34375 0 -2.390625 -0.65625q-1.046875 -0.671875 -1.671875 -1.8125q-0.609375 -1.15625 -0.609375 -2.625q0 -1.46875 0.59375 -2.609375q0.609375 -1.15625 1.65625 -1.8125q1.046875 -0.671875 2.375 -0.671875q0.71875 0 1.40625 0.234375q0.6875 0.234375 1.21875 0.640625q0.546875 0.390625 0.84375 0.875q0.3125 0.46875 0.3125 0.953125l-0.5625 0.046875l0 -6.5625l1.921875 0l0 13.8125l-1.921875 0l0 -2.328125l0.375 0q0 0.4375 -0.296875 0.890625q-0.296875 0.4375 -0.796875 0.8125q-0.484375 0.359375 -1.140625 0.59375q-0.640625 0.21875 -1.3125 0.21875zm0.265625 -1.65625q0.875 0 1.546875 -0.453125q0.671875 -0.453125 1.046875 -1.21875q0.390625 -0.78125 0.390625 -1.765625q0 -0.984375 -0.390625 -1.75q-0.375 -0.78125 -1.046875 -1.234375q-0.671875 -0.453125 -1.546875 -0.453125q-0.875 0 -1.546875 0.453125q-0.671875 0.453125 -1.0625 1.234375q-0.375 0.765625 -0.375 1.75q0 0.984375 0.375 1.765625q0.390625 0.765625 1.0625 1.21875q0.671875 0.453125 1.546875 0.453125zm8.265564 1.671875q-0.609375 0 -0.953125 -0.359375q-0.328125 -0.359375 -0.328125 -1.03125q0 -0.625 0.34375 -1.015625q0.359375 -0.390625 0.9375 -0.390625q0.625 0 0.953125 0.375q0.34375 0.359375 0.34375 1.03125q0 0.609375 -0.359375 1.0q-0.359375 0.390625 -0.9375 0.390625z" fill-rule="nonzero"/><path fill="#595959" d="m335.51404 111.13061q1.015625 0 1.984375 0.53125q0.96875 0.515625 1.5 1.484375q0.53125 0.96875 0.53125 2.0q0 1.671875 -1.171875 2.84375q-1.171875 1.171875 -2.828125 1.171875q-1.671875 0 -2.84375 -1.171875q-1.171875 -1.171875 -1.171875 -2.84375q0 -1.046875 0.53125 -2.0q0.546875 -0.96875 1.5 -1.484375q0.96875 -0.53125 1.96875 -0.53125zm0.015625 0.703125q-0.84375 0 -1.640625 0.4375q-0.796875 0.421875 -1.25 1.21875q-0.4375 0.796875 -0.4375 1.65625q0 1.375 0.96875 2.359375q0.984375 0.96875 2.359375 0.96875q1.375 0 2.34375 -0.96875q0.96875 -0.984375 0.96875 -2.359375q0 -0.859375 -0.453125 -1.65625q-0.4375 -0.796875 -1.234375 -1.21875q-0.78125 -0.4375 -1.625 -0.4375z" fill-rule="nonzero"/><path fill="#595959" d="m365.62622 120.41186l5.046875 -13.0625l2.0625 0l5.015625 13.0625l-2.140625 0l-2.984375 -7.875q-0.0625 -0.125 -0.21875 -0.625q-0.15625 -0.515625 -0.375 -1.125q-0.203125 -0.625 -0.375 -1.125q-0.15625 -0.515625 -0.21875 -0.671875l0.4375 -0.015625q-0.109375 0.3125 -0.28125 0.796875q-0.15625 0.484375 -0.328125 1.03125q-0.171875 0.546875 -0.34375 1.03125q-0.171875 0.46875 -0.28125 0.78125l-2.96875 7.796875l-2.046875 0zm2.234375 -3.25l0.75 -1.9375l5.9375 0l0.859375 1.9375l-7.546875 0zm14.965637 3.4375q-1.234375 0 -2.21875 -0.421875q-0.984375 -0.4375 -1.640625 -1.28125l1.296875 -1.109375q0.5625 0.640625 1.21875 0.9375q0.671875 0.28125 1.515625 0.28125q0.328125 0 0.609375 -0.078125q0.296875 -0.078125 0.515625 -0.25q0.21875 -0.171875 0.328125 -0.40625q0.109375 -0.234375 0.109375 -0.515625q0 -0.484375 -0.359375 -0.78125q-0.1875 -0.125 -0.59375 -0.28125q-0.390625 -0.15625 -1.03125 -0.328125q-1.078125 -0.28125 -1.765625 -0.625q-0.6875 -0.359375 -1.0625 -0.8125q-0.28125 -0.359375 -0.421875 -0.765625q-0.125 -0.421875 -0.125 -0.9375q0 -0.609375 0.265625 -1.125q0.28125 -0.515625 0.75 -0.890625q0.484375 -0.390625 1.125 -0.59375q0.640625 -0.203125 1.375 -0.203125q0.6875 0 1.359375 0.1875q0.6875 0.1875 1.265625 0.546875q0.578125 0.34375 0.96875 0.828125l-1.09375 1.21875q-0.359375 -0.359375 -0.78125 -0.625q-0.421875 -0.265625 -0.859375 -0.40625q-0.421875 -0.15625 -0.765625 -0.15625q-0.390625 0 -0.71875 0.078125q-0.3125 0.0625 -0.53125 0.21875q-0.203125 0.140625 -0.328125 0.375q-0.109375 0.21875 -0.109375 0.5q0.015625 0.234375 0.125 0.453125q0.109375 0.21875 0.296875 0.359375q0.203125 0.15625 0.609375 0.328125q0.40625 0.15625 1.046875 0.3125q0.921875 0.234375 1.53125 0.53125q0.609375 0.28125 0.96875 0.65625q0.375 0.359375 0.515625 0.828125q0.15625 0.46875 0.15625 1.046875q0 0.828125 -0.484375 1.5q-0.46875 0.65625 -1.28125 1.03125q-0.796875 0.375 -1.78125 0.375z" fill-rule="nonzero"/><path fill="#595959" d="m400.23633 120.41186l-2.296875 -4.125l-0.203125 -0.359375l-3.0 -5.3125l2.421875 0l2.265625 4.0625l0.21875 0.421875l2.9375 5.3125l-2.34375 0zm-7.5625 0l4.921875 -5.03125l0.859375 1.359375l-3.5 3.671875l-2.28125 0zm6.953125 -4.734375l-0.765625 -1.34375l3.1875 -3.71875l2.28125 0l-4.703125 5.0625z" fill-rule="nonzero"/><path fill="#595959" d="m409.74176 120.41186l0 -9.796875l1.921875 0l0 9.796875l-1.921875 0zm0.9375 -11.953125q-0.609375 0 -0.953125 -0.3125q-0.328125 -0.328125 -0.328125 -0.90625q0 -0.546875 0.34375 -0.875q0.34375 -0.34375 0.9375 -0.34375q0.609375 0 0.9375 0.328125q0.34375 0.3125 0.34375 0.890625q0 0.546875 -0.34375 0.890625q-0.34375 0.328125 -0.9375 0.328125zm3.936432 11.953125l0 -9.796875l1.921875 0l0 2.015625l-0.34375 0.21875q0.1875 -0.640625 0.734375 -1.1875q0.546875 -0.5625 1.28125 -0.90625q0.75 -0.34375 1.53125 -0.34375q1.125 0 1.859375 0.4375q0.75 0.4375 1.125 1.34375q0.375 0.890625 0.375 2.25l0 5.96875l-1.921875 0l0 -5.84375q0 -0.828125 -0.21875 -1.375q-0.21875 -0.5625 -0.6875 -0.8125q-0.46875 -0.25 -1.15625 -0.21875q-0.5625 0 -1.03125 0.1875q-0.46875 0.171875 -0.8125 0.5q-0.34375 0.3125 -0.546875 0.734375q-0.1875 0.40625 -0.1875 0.890625l0 5.9375l-0.953125 0q-0.234375 0 -0.484375 0q-0.25 0 -0.484375 0zm15.256714 0.1875q-1.359375 0 -2.4375 -0.671875q-1.0625 -0.671875 -1.6875 -1.828125q-0.625 -1.15625 -0.625 -2.59375q0 -1.4375 0.625 -2.59375q0.625 -1.15625 1.6875 -1.828125q1.078125 -0.671875 2.4375 -0.671875q1.3125 0 2.375 0.53125q1.078125 0.53125 1.640625 1.453125l-1.0625 1.296875q-0.296875 -0.421875 -0.765625 -0.78125q-0.46875 -0.359375 -1.0 -0.5625q-0.515625 -0.203125 -1.0 -0.203125q-0.890625 0 -1.59375 0.4375q-0.703125 0.4375 -1.109375 1.203125q-0.40625 0.765625 -0.40625 1.71875q0 0.953125 0.421875 1.71875q0.4375 0.75 1.140625 1.203125q0.703125 0.4375 1.5625 0.4375q0.515625 0 0.984375 -0.171875q0.46875 -0.171875 0.921875 -0.5q0.453125 -0.34375 0.84375 -0.828125l1.0625 1.3125q-0.59375 0.84375 -1.703125 1.390625q-1.109375 0.53125 -2.3125 0.53125zm5.8248596 -0.1875l0 -9.796875l1.9375 0l0 3.078125l-0.1875 -0.75q0.203125 -0.703125 0.703125 -1.28125q0.5 -0.578125 1.140625 -0.90625q0.640625 -0.34375 1.328125 -0.34375q0.3125 0 0.59375 0.0625q0.296875 0.046875 0.46875 0.125l-0.5 2.09375q-0.21875 -0.09375 -0.5 -0.15625q-0.265625 -0.078125 -0.53125 -0.078125q-0.5 0 -0.953125 0.203125q-0.453125 0.1875 -0.8125 0.546875q-0.34375 0.34375 -0.546875 0.796875q-0.203125 0.453125 -0.203125 1.0l0 5.40625l-1.9375 0zm11.670288 0.1875q-1.5 0 -2.671875 -0.640625q-1.15625 -0.640625 -1.828125 -1.765625q-0.65625 -1.125 -0.65625 -2.578125q0 -1.15625 0.375 -2.109375q0.375 -0.953125 1.03125 -1.640625q0.65625 -0.703125 1.578125 -1.078125q0.9375 -0.390625 2.015625 -0.390625q0.953125 0 1.765625 0.359375q0.828125 0.359375 1.421875 1.0q0.609375 0.640625 0.9375 1.515625q0.328125 0.859375 0.3125 1.875l-0.015625 0.828125l-8.0 0l-0.4375 -1.53125l6.765625 0l-0.265625 0.3125l0 -0.4375q-0.0625 -0.625 -0.421875 -1.109375q-0.34375 -0.484375 -0.890625 -0.765625q-0.546875 -0.28125 -1.171875 -0.28125q-1.015625 0 -1.703125 0.390625q-0.6875 0.375 -1.046875 1.125q-0.34375 0.734375 -0.34375 1.8125q0 1.015625 0.421875 1.78125q0.421875 0.75 1.203125 1.171875q0.796875 0.40625 1.8125 0.40625q0.734375 0 1.359375 -0.234375q0.625 -0.25 1.359375 -0.890625l0.96875 1.359375q-0.453125 0.453125 -1.09375 0.796875q-0.640625 0.328125 -1.359375 0.53125q-0.71875 0.1875 -1.421875 0.1875zm10.135712 0q-1.203125 0 -2.203125 -0.671875q-1.0 -0.671875 -1.609375 -1.828125q-0.59375 -1.15625 -0.59375 -2.609375q0 -1.484375 0.609375 -2.625q0.609375 -1.140625 1.640625 -1.796875q1.046875 -0.65625 2.328125 -0.65625q0.765625 0 1.390625 0.234375q0.640625 0.21875 1.109375 0.625q0.484375 0.390625 0.78125 0.921875q0.3125 0.515625 0.390625 1.109375l-0.421875 -0.140625l0 -2.546875l1.9375 0l0 9.796875l-1.9375 0l0 -2.328125l0.4375 -0.140625q-0.109375 0.515625 -0.453125 1.0q-0.34375 0.46875 -0.875 0.84375q-0.53125 0.359375 -1.171875 0.59375q-0.640625 0.21875 -1.359375 0.21875zm0.5 -1.765625q0.890625 0 1.546875 -0.421875q0.671875 -0.4375 1.046875 -1.1875q0.390625 -0.765625 0.390625 -1.734375q0 -0.953125 -0.390625 -1.703125q-0.375 -0.75 -1.046875 -1.171875q-0.65625 -0.4375 -1.546875 -0.4375q-0.859375 0 -1.515625 0.4375q-0.65625 0.421875 -1.046875 1.171875q-0.375 0.75 -0.375 1.703125q0 0.96875 0.375 1.734375q0.390625 0.75 1.046875 1.1875q0.65625 0.421875 1.515625 0.421875zm10.809387 1.765625q-1.234375 0 -2.21875 -0.421875q-0.984375 -0.4375 -1.640625 -1.28125l1.296875 -1.109375q0.5625 0.640625 1.21875 0.9375q0.671875 0.28125 1.515625 0.28125q0.328125 0 0.609375 -0.078125q0.296875 -0.078125 0.515625 -0.25q0.21875 -0.171875 0.328125 -0.40625q0.109375 -0.234375 0.109375 -0.515625q0 -0.484375 -0.359375 -0.78125q-0.1875 -0.125 -0.59375 -0.28125q-0.390625 -0.15625 -1.03125 -0.328125q-1.078125 -0.28125 -1.765625 -0.625q-0.6875 -0.359375 -1.0625 -0.8125q-0.28125 -0.359375 -0.421875 -0.765625q-0.125 -0.421875 -0.125 -0.9375q0 -0.609375 0.265625 -1.125q0.28125 -0.515625 0.75 -0.890625q0.484375 -0.390625 1.125 -0.59375q0.640625 -0.203125 1.375 -0.203125q0.6875 0 1.359375 0.1875q0.6875 0.1875 1.265625 0.546875q0.578125 0.34375 0.96875 0.828125l-1.09375 1.21875q-0.359375 -0.359375 -0.78125 -0.625q-0.421875 -0.265625 -0.859375 -0.40625q-0.421875 -0.15625 -0.765625 -0.15625q-0.390625 0 -0.71875 0.078125q-0.3125 0.0625 -0.53125 0.21875q-0.203125 0.140625 -0.328125 0.375q-0.109375 0.21875 -0.109375 0.5q0.015625 0.234375 0.125 0.453125q0.109375 0.21875 0.296875 0.359375q0.203125 0.15625 0.609375 0.328125q0.40625 0.15625 1.046875 0.3125q0.921875 0.234375 1.53125 0.53125q0.609375 0.28125 0.96875 0.65625q0.375 0.359375 0.515625 0.828125q0.15625 0.46875 0.15625 1.046875q0 0.828125 -0.484375 1.5q-0.46875 0.65625 -1.28125 1.03125q-0.796875 0.375 -1.78125 0.375zm10.233215 0q-1.5 0 -2.671875 -0.640625q-1.15625 -0.640625 -1.828125 -1.765625q-0.65625 -1.125 -0.65625 -2.578125q0 -1.15625 0.375 -2.109375q0.375 -0.953125 1.03125 -1.640625q0.65625 -0.703125 1.578125 -1.078125q0.9375 -0.390625 2.015625 -0.390625q0.953125 0 1.765625 0.359375q0.828125 0.359375 1.421875 1.0q0.609375 0.640625 0.9375 1.515625q0.328125 0.859375 0.3125 1.875l-0.015625 0.828125l-8.0 0l-0.4375 -1.53125l6.765625 0l-0.265625 0.3125l0 -0.4375q-0.0625 -0.625 -0.421875 -1.109375q-0.34375 -0.484375 -0.890625 -0.765625q-0.546875 -0.28125 -1.171875 -0.28125q-1.015625 0 -1.703125 0.390625q-0.6875 0.375 -1.046875 1.125q-0.34375 0.734375 -0.34375 1.8125q0 1.015625 0.421875 1.78125q0.421875 0.75 1.203125 1.171875q0.796875 0.40625 1.8125 0.40625q0.734375 0 1.359375 -0.234375q0.625 -0.25 1.359375 -0.890625l0.96875 1.359375q-0.453125 0.453125 -1.09375 0.796875q-0.640625 0.328125 -1.359375 0.53125q-0.71875 0.1875 -1.421875 0.1875zm9.635712 0q-1.234375 0 -2.21875 -0.421875q-0.984375 -0.4375 -1.640625 -1.28125l1.296875 -1.109375q0.5625 0.640625 1.21875 0.9375q0.671875 0.28125 1.515625 0.28125q0.328125 0 0.609375 -0.078125q0.296875 -0.078125 0.515625 -0.25q0.21875 -0.171875 0.328125 -0.40625q0.109375 -0.234375 0.109375 -0.515625q0 -0.484375 -0.359375 -0.78125q-0.1875 -0.125 -0.59375 -0.28125q-0.390625 -0.15625 -1.03125 -0.328125q-1.078125 -0.28125 -1.765625 -0.625q-0.6875 -0.359375 -1.0625 -0.8125q-0.28125 -0.359375 -0.421875 -0.765625q-0.125 -0.421875 -0.125 -0.9375q0 -0.609375 0.265625 -1.125q0.28125 -0.515625 0.75 -0.890625q0.484375 -0.390625 1.125 -0.59375q0.640625 -0.203125 1.375 -0.203125q0.6875 0 1.359375 0.1875q0.6875 0.1875 1.265625 0.546875q0.578125 0.34375 0.96875 0.828125l-1.09375 1.21875q-0.359375 -0.359375 -0.78125 -0.625q-0.421875 -0.265625 -0.859375 -0.40625q-0.421875 -0.15625 -0.765625 -0.15625q-0.390625 0 -0.71875 0.078125q-0.3125 0.0625 -0.53125 0.21875q-0.203125 0.140625 -0.328125 0.375q-0.109375 0.21875 -0.109375 0.5q0.015625 0.234375 0.125 0.453125q0.109375 0.21875 0.296875 0.359375q0.203125 0.15625 0.609375 0.328125q0.40625 0.15625 1.046875 0.3125q0.921875 0.234375 1.53125 0.53125q0.609375 0.28125 0.96875 0.65625q0.375 0.359375 0.515625 0.828125q0.15625 0.46875 0.15625 1.046875q0 0.828125 -0.484375 1.5q-0.46875 0.65625 -1.28125 1.03125q-0.796875 0.375 -1.78125 0.375zm5.9675903 3.15625l-0.703125 -0.859375q0.640625 -0.375 1.046875 -0.859375q0.421875 -0.484375 0.421875 -0.84375q0 -0.1875 -0.09375 -0.359375q-0.09375 -0.171875 -0.390625 -0.5q-0.375 -0.34375 -0.484375 -0.59375q-0.109375 -0.25 -0.109375 -0.515625q0 -0.453125 0.3125 -0.71875q0.3125 -0.28125 0.828125 -0.28125q0.453125 0 0.828125 0.28125q0.390625 0.265625 0.609375 0.75q0.21875 0.46875 0.21875 1.078125q0 0.5625 -0.1875 1.078125q-0.1875 0.53125 -0.53125 0.96875q-0.328125 0.453125 -0.78125 0.8125q-0.4375 0.359375 -0.984375 0.5625z" fill-rule="nonzero"/><path fill="#595959" d="m505.29163 124.70873l2.953125 -4.578125l-0.3125 1.53125l-2.546875 -11.046875l2.234375 0l1.53125 7.203125q0.0625 0.1875 0.109375 0.578125q0.046875 0.375 0.0625 0.75l-0.5 0.109375q0.21875 -0.390625 0.4375 -0.78125q0.234375 -0.390625 0.4375 -0.78125l4.0625 -7.078125l2.28125 0l-6.109375 9.796875l-2.5625 4.296875l-2.078125 0z" fill-rule="nonzero"/><path fill="#595959" d="m524.3859 120.59936q-1.203125 0 -2.203125 -0.671875q-1.0 -0.671875 -1.609375 -1.828125q-0.59375 -1.15625 -0.59375 -2.609375q0 -1.484375 0.609375 -2.625q0.609375 -1.140625 1.640625 -1.796875q1.046875 -0.65625 2.328125 -0.65625q0.765625 0 1.390625 0.234375q0.640625 0.21875 1.109375 0.625q0.484375 0.390625 0.78125 0.921875q0.3125 0.515625 0.390625 1.109375l-0.421875 -0.140625l0 -2.546875l1.9375 0l0 9.796875l-1.9375 0l0 -2.328125l0.4375 -0.140625q-0.109375 0.515625 -0.453125 1.0q-0.34375 0.46875 -0.875 0.84375q-0.53125 0.359375 -1.171875 0.59375q-0.640625 0.21875 -1.359375 0.21875zm0.5 -1.765625q0.890625 0 1.546875 -0.421875q0.671875 -0.4375 1.046875 -1.1875q0.390625 -0.765625 0.390625 -1.734375q0 -0.953125 -0.390625 -1.703125q-0.375 -0.75 -1.046875 -1.171875q-0.65625 -0.4375 -1.546875 -0.4375q-0.859375 0 -1.515625 0.4375q-0.65625 0.421875 -1.046875 1.171875q-0.375 0.75 -0.375 1.703125q0 0.96875 0.375 1.734375q0.390625 0.75 1.046875 1.1875q0.65625 0.421875 1.515625 0.421875zm7.543762 5.6875l0 -13.90625l1.9375 0l0 2.234375l-0.296875 -0.15625q0.109375 -0.5625 0.625 -1.078125q0.53125 -0.515625 1.28125 -0.84375q0.765625 -0.328125 1.5625 -0.328125q1.328125 0 2.34375 0.65625q1.03125 0.65625 1.625 1.796875q0.609375 1.140625 0.609375 2.609375q0 1.453125 -0.59375 2.609375q-0.59375 1.140625 -1.625 1.8125q-1.015625 0.65625 -2.296875 0.65625q-0.859375 0 -1.671875 -0.34375q-0.796875 -0.34375 -1.359375 -0.890625q-0.5625 -0.546875 -0.6875 -1.125l0.484375 -0.25l0 6.546875l-1.9375 0zm4.84375 -5.71875q0.859375 0 1.53125 -0.421875q0.671875 -0.4375 1.0625 -1.171875q0.390625 -0.75 0.390625 -1.703125q0 -0.953125 -0.390625 -1.6875q-0.375 -0.734375 -1.046875 -1.15625q-0.65625 -0.4375 -1.546875 -0.4375q-0.875 0 -1.546875 0.421875q-0.671875 0.421875 -1.0625 1.171875q-0.390625 0.734375 -0.390625 1.6875q0 0.953125 0.390625 1.703125q0.390625 0.734375 1.0625 1.171875q0.671875 0.421875 1.546875 0.421875zm6.9283447 5.71875l0 -13.90625l1.9375 0l0 2.234375l-0.296875 -0.15625q0.109375 -0.5625 0.625 -1.078125q0.53125 -0.515625 1.28125 -0.84375q0.765625 -0.328125 1.5625 -0.328125q1.328125 0 2.34375 0.65625q1.03125 0.65625 1.625 1.796875q0.609375 1.140625 0.609375 2.609375q0 1.453125 -0.59375 2.609375q-0.59375 1.140625 -1.625 1.8125q-1.015625 0.65625 -2.296875 0.65625q-0.859375 0 -1.671875 -0.34375q-0.796875 -0.34375 -1.359375 -0.890625q-0.5625 -0.546875 -0.6875 -1.125l0.484375 -0.25l0 6.546875l-1.9375 0zm4.84375 -5.71875q0.859375 0 1.53125 -0.421875q0.671875 -0.4375 1.0625 -1.171875q0.390625 -0.75 0.390625 -1.703125q0 -0.953125 -0.390625 -1.6875q-0.375 -0.734375 -1.046875 -1.15625q-0.65625 -0.4375 -1.546875 -0.4375q-0.875 0 -1.546875 0.421875q-0.671875 0.421875 -1.0625 1.171875q-0.390625 0.734375 -0.390625 1.6875q0 0.953125 0.390625 1.703125q0.390625 0.734375 1.0625 1.171875q0.671875 0.421875 1.546875 0.421875zm11.490845 1.796875q-1.5 0 -2.671875 -0.640625q-1.15625 -0.640625 -1.828125 -1.765625q-0.65625 -1.125 -0.65625 -2.578125q0 -1.15625 0.375 -2.109375q0.375 -0.953125 1.03125 -1.640625q0.65625 -0.703125 1.578125 -1.078125q0.9375 -0.390625 2.015625 -0.390625q0.953125 0 1.765625 0.359375q0.828125 0.359375 1.421875 1.0q0.609375 0.640625 0.9375 1.515625q0.328125 0.859375 0.3125 1.875l-0.015625 0.828125l-8.0 0l-0.4375 -1.53125l6.765625 0l-0.265625 0.3125l0 -0.4375q-0.0625 -0.625 -0.421875 -1.109375q-0.34375 -0.484375 -0.890625 -0.765625q-0.546875 -0.28125 -1.171875 -0.28125q-1.015625 0 -1.703125 0.390625q-0.6875 0.375 -1.046875 1.125q-0.34375 0.734375 -0.34375 1.8125q0 1.015625 0.421875 1.78125q0.421875 0.75 1.203125 1.171875q0.796875 0.40625 1.8125 0.40625q0.734375 0 1.359375 -0.234375q0.625 -0.25 1.359375 -0.890625l0.96875 1.359375q-0.453125 0.453125 -1.09375 0.796875q-0.640625 0.328125 -1.359375 0.53125q-0.71875 0.1875 -1.421875 0.1875zm10.135681 0q-1.203125 0 -2.203125 -0.671875q-1.0 -0.671875 -1.609375 -1.828125q-0.59375 -1.15625 -0.59375 -2.609375q0 -1.484375 0.609375 -2.625q0.609375 -1.140625 1.640625 -1.796875q1.046875 -0.65625 2.328125 -0.65625q0.765625 0 1.390625 0.234375q0.640625 0.21875 1.109375 0.625q0.484375 0.390625 0.78125 0.921875q0.3125 0.515625 0.390625 1.109375l-0.421875 -0.140625l0 -2.546875l1.9375 0l0 9.796875l-1.9375 0l0 -2.328125l0.4375 -0.140625q-0.109375 0.515625 -0.453125 1.0q-0.34375 0.46875 -0.875 0.84375q-0.53125 0.359375 -1.171875 0.59375q-0.640625 0.21875 -1.359375 0.21875zm0.5 -1.765625q0.890625 0 1.546875 -0.421875q0.671875 -0.4375 1.046875 -1.1875q0.390625 -0.765625 0.390625 -1.734375q0 -0.953125 -0.390625 -1.703125q-0.375 -0.75 -1.046875 -1.171875q-0.65625 -0.4375 -1.546875 -0.4375q-0.859375 0 -1.515625 0.4375q-0.65625 0.421875 -1.046875 1.171875q-0.375 0.75 -0.375 1.703125q0 0.96875 0.375 1.734375q0.390625 0.75 1.046875 1.1875q0.65625 0.421875 1.515625 0.421875zm7.5438232 1.578125l0 -9.796875l1.9375 0l0 3.078125l-0.1875 -0.75q0.203125 -0.703125 0.703125 -1.28125q0.5 -0.578125 1.140625 -0.90625q0.640625 -0.34375 1.328125 -0.34375q0.3125 0 0.59375 0.0625q0.296875 0.046875 0.46875 0.125l-0.5 2.09375q-0.21875 -0.09375 -0.5 -0.15625q-0.265625 -0.078125 -0.53125 -0.078125q-0.5 0 -0.953125 0.203125q-0.453125 0.1875 -0.8125 0.546875q-0.34375 0.34375 -0.546875 0.796875q-0.203125 0.453125 -0.203125 1.0l0 5.40625l-1.9375 0zm10.784058 0.1875q-1.234375 0 -2.21875 -0.421875q-0.984375 -0.4375 -1.640625 -1.28125l1.296875 -1.109375q0.5625 0.640625 1.21875 0.9375q0.671875 0.28125 1.515625 0.28125q0.328125 0 0.609375 -0.078125q0.296875 -0.078125 0.515625 -0.25q0.21875 -0.171875 0.328125 -0.40625q0.109375 -0.234375 0.109375 -0.515625q0 -0.484375 -0.359375 -0.78125q-0.1875 -0.125 -0.59375 -0.28125q-0.390625 -0.15625 -1.03125 -0.328125q-1.078125 -0.28125 -1.765625 -0.625q-0.6875 -0.359375 -1.0625 -0.8125q-0.28125 -0.359375 -0.421875 -0.765625q-0.125 -0.421875 -0.125 -0.9375q0 -0.609375 0.265625 -1.125q0.28125 -0.515625 0.75 -0.890625q0.484375 -0.390625 1.125 -0.59375q0.640625 -0.203125 1.375 -0.203125q0.6875 0 1.359375 0.1875q0.6875 0.1875 1.265625 0.546875q0.578125 0.34375 0.96875 0.828125l-1.09375 1.21875q-0.359375 -0.359375 -0.78125 -0.625q-0.421875 -0.265625 -0.859375 -0.40625q-0.421875 -0.15625 -0.765625 -0.15625q-0.390625 0 -0.71875 0.078125q-0.3125 0.0625 -0.53125 0.21875q-0.203125 0.140625 -0.328125 0.375q-0.109375 0.21875 -0.109375 0.5q0.015625 0.234375 0.125 0.453125q0.109375 0.21875 0.296875 0.359375q0.203125 0.15625 0.609375 0.328125q0.40625 0.15625 1.046875 0.3125q0.921875 0.234375 1.53125 0.53125q0.609375 0.28125 0.96875 0.65625q0.375 0.359375 0.515625 0.828125q0.15625 0.46875 0.15625 1.046875q0 0.828125 -0.484375 1.5q-0.46875 0.65625 -1.28125 1.03125q-0.796875 0.375 -1.78125 0.375zm12.11322 -0.1875l0 -12.296875l1.921875 0l0 12.296875l-1.921875 0zm-2.046875 -7.921875l0 -1.875l6.234375 0l0 1.875l-6.234375 0zm12.305054 8.109375q-1.4375 0 -2.578125 -0.65625q-1.125 -0.671875 -1.78125 -1.8125q-0.640625 -1.15625 -0.640625 -2.625q0 -1.46875 0.640625 -2.609375q0.65625 -1.15625 1.78125 -1.8125q1.140625 -0.671875 2.578125 -0.671875q1.40625 0 2.53125 0.671875q1.140625 0.65625 1.796875 1.8125q0.65625 1.140625 0.65625 2.609375q0 1.46875 -0.65625 2.625q-0.65625 1.140625 -1.796875 1.8125q-1.125 0.65625 -2.53125 0.65625zm0 -1.75q0.875 0 1.5625 -0.4375q0.6875 -0.4375 1.078125 -1.1875q0.390625 -0.765625 0.375 -1.71875q0.015625 -0.96875 -0.375 -1.71875q-0.390625 -0.765625 -1.078125 -1.1875q-0.6875 -0.4375 -1.5625 -0.4375q-0.875 0 -1.578125 0.4375q-0.703125 0.4375 -1.09375 1.203125q-0.390625 0.75 -0.375 1.703125q-0.015625 0.953125 0.375 1.71875q0.390625 0.75 1.09375 1.1875q0.703125 0.4375 1.578125 0.4375zm15.556702 1.75q-1.234375 0 -2.21875 -0.421875q-0.984375 -0.4375 -1.640625 -1.28125l1.296875 -1.109375q0.5625 0.640625 1.21875 0.9375q0.671875 0.28125 1.515625 0.28125q0.328125 0 0.609375 -0.078125q0.296875 -0.078125 0.515625 -0.25q0.21875 -0.171875 0.328125 -0.40625q0.109375 -0.234375 0.109375 -0.515625q0 -0.484375 -0.359375 -0.78125q-0.1875 -0.125 -0.59375 -0.28125q-0.390625 -0.15625 -1.03125 -0.328125q-1.078125 -0.28125 -1.765625 -0.625q-0.6875 -0.359375 -1.0625 -0.8125q-0.28125 -0.359375 -0.421875 -0.765625q-0.125 -0.421875 -0.125 -0.9375q0 -0.609375 0.265625 -1.125q0.28125 -0.515625 0.75 -0.890625q0.484375 -0.390625 1.125 -0.59375q0.640625 -0.203125 1.375 -0.203125q0.6875 0 1.359375 0.1875q0.6875 0.1875 1.265625 0.546875q0.578125 0.34375 0.96875 0.828125l-1.09375 1.21875q-0.359375 -0.359375 -0.78125 -0.625q-0.421875 -0.265625 -0.859375 -0.40625q-0.421875 -0.15625 -0.765625 -0.15625q-0.390625 0 -0.71875 0.078125q-0.3125 0.0625 -0.53125 0.21875q-0.203125 0.140625 -0.328125 0.375q-0.109375 0.21875 -0.109375 0.5q0.015625 0.234375 0.125 0.453125q0.109375 0.21875 0.296875 0.359375q0.203125 0.15625 0.609375 0.328125q0.40625 0.15625 1.046875 0.3125q0.921875 0.234375 1.53125 0.53125q0.609375 0.28125 0.96875 0.65625q0.375 0.359375 0.515625 0.828125q0.15625 0.46875 0.15625 1.046875q0 0.828125 -0.484375 1.5q-0.46875 0.65625 -1.28125 1.03125q-0.796875 0.375 -1.78125 0.375zm6.8894653 -0.1875l0 -12.296875l1.921875 0l0 12.296875l-1.921875 0zm-2.046875 -7.921875l0 -1.875l6.234375 0l0 1.875l-6.234375 0zm11.664429 8.109375q-1.203125 0 -2.203125 -0.671875q-1.0 -0.671875 -1.609375 -1.828125q-0.59375 -1.15625 -0.59375 -2.609375q0 -1.484375 0.609375 -2.625q0.609375 -1.140625 1.640625 -1.796875q1.046875 -0.65625 2.328125 -0.65625q0.765625 0 1.390625 0.234375q0.640625 0.21875 1.109375 0.625q0.484375 0.390625 0.78125 0.921875q0.3125 0.515625 0.390625 1.109375l-0.421875 -0.140625l0 -2.546875l1.9375 0l0 9.796875l-1.9375 0l0 -2.328125l0.4375 -0.140625q-0.109375 0.515625 -0.453125 1.0q-0.34375 0.46875 -0.875 0.84375q-0.53125 0.359375 -1.171875 0.59375q-0.640625 0.21875 -1.359375 0.21875zm0.5 -1.765625q0.890625 0 1.546875 -0.421875q0.671875 -0.4375 1.046875 -1.1875q0.390625 -0.765625 0.390625 -1.734375q0 -0.953125 -0.390625 -1.703125q-0.375 -0.75 -1.046875 -1.171875q-0.65625 -0.4375 -1.546875 -0.4375q-0.859375 0 -1.515625 0.4375q-0.65625 0.421875 -1.046875 1.171875q-0.375 0.75 -0.375 1.703125q0 0.96875 0.375 1.734375q0.390625 0.75 1.046875 1.1875q0.65625 0.421875 1.515625 0.421875zm8.960388 5.875l1.984375 -4.578125l0.015625 1.53125l-4.890625 -11.046875l2.234375 0l3.0625 7.203125q0.09375 0.1875 0.21875 0.578125q0.140625 0.375 0.234375 0.75l-0.484375 0.109375q0.140625 -0.390625 0.28125 -0.78125q0.140625 -0.390625 0.265625 -0.78125l2.5625 -7.078125l2.28125 0l-4.03125 9.796875l-1.65625 4.296875l-2.078125 0z" fill-rule="nonzero"/><path fill="#595959" d="m366.50122 142.81186l0 -9.796875l1.9375 0l0 3.078125l-0.1875 -0.75q0.203125 -0.703125 0.703125 -1.28125q0.5 -0.578125 1.140625 -0.90625q0.640625 -0.34375 1.328125 -0.34375q0.3125 0 0.59375 0.0625q0.296875 0.046875 0.46875 0.125l-0.5 2.09375q-0.21875 -0.09375 -0.5 -0.15625q-0.265625 -0.078125 -0.53125 -0.078125q-0.5 0 -0.953125 0.203125q-0.453125 0.1875 -0.8125 0.546875q-0.34375 0.34375 -0.546875 0.796875q-0.203125 0.453125 -0.203125 1.0l0 5.40625l-1.9375 0zm11.670319 0.1875q-1.5 0 -2.671875 -0.640625q-1.15625 -0.640625 -1.828125 -1.765625q-0.65625 -1.125 -0.65625 -2.578125q0 -1.15625 0.375 -2.109375q0.375 -0.953125 1.03125 -1.640625q0.65625 -0.703125 1.578125 -1.078125q0.9375 -0.390625 2.015625 -0.390625q0.953125 0 1.765625 0.359375q0.828125 0.359375 1.421875 1.0q0.609375 0.640625 0.9375 1.515625q0.328125 0.859375 0.3125 1.875l-0.015625 0.828125l-8.0 0l-0.4375 -1.53125l6.765625 0l-0.265625 0.3125l0 -0.4375q-0.0625 -0.625 -0.421875 -1.109375q-0.34375 -0.484375 -0.890625 -0.765625q-0.546875 -0.28125 -1.171875 -0.28125q-1.015625 0 -1.703125 0.390625q-0.6875 0.375 -1.046875 1.125q-0.34375 0.734375 -0.34375 1.8125q0 1.015625 0.421875 1.78125q0.421875 0.75 1.203125 1.171875q0.796875 0.40625 1.8125 0.40625q0.734375 0 1.359375 -0.234375q0.625 -0.25 1.359375 -0.890625l0.96875 1.359375q-0.453125 0.453125 -1.09375 0.796875q-0.640625 0.328125 -1.359375 0.53125q-0.71875 0.1875 -1.421875 0.1875zm6.401306 -0.1875l0 -13.8125l1.921875 0l0 13.8125l-1.921875 0zm8.230438 0.1875q-1.203125 0 -2.203125 -0.671875q-1.0 -0.671875 -1.609375 -1.828125q-0.59375 -1.15625 -0.59375 -2.609375q0 -1.484375 0.609375 -2.625q0.609375 -1.140625 1.640625 -1.796875q1.046875 -0.65625 2.328125 -0.65625q0.765625 0 1.390625 0.234375q0.640625 0.21875 1.109375 0.625q0.484375 0.390625 0.78125 0.921875q0.3125 0.515625 0.390625 1.109375l-0.421875 -0.140625l0 -2.546875l1.9375 0l0 9.796875l-1.9375 0l0 -2.328125l0.4375 -0.140625q-0.109375 0.515625 -0.453125 1.0q-0.34375 0.46875 -0.875 0.84375q-0.53125 0.359375 -1.171875 0.59375q-0.640625 0.21875 -1.359375 0.21875zm0.5 -1.765625q0.890625 0 1.546875 -0.421875q0.671875 -0.4375 1.046875 -1.1875q0.390625 -0.765625 0.390625 -1.734375q0 -0.953125 -0.390625 -1.703125q-0.375 -0.75 -1.046875 -1.171875q-0.65625 -0.4375 -1.546875 -0.4375q-0.859375 0 -1.515625 0.4375q-0.65625 0.421875 -1.046875 1.171875q-0.375 0.75 -0.375 1.703125q0 0.96875 0.375 1.734375q0.390625 0.75 1.046875 1.1875q0.65625 0.421875 1.515625 0.421875zm8.762543 1.578125l0 -12.296875l1.921875 0l0 12.296875l-1.921875 0zm-2.046875 -7.921875l0 -1.875l6.234375 0l0 1.875l-6.234375 0zm8.304626 7.921875l0 -9.796875l1.921875 0l0 9.796875l-1.921875 0zm0.9375 -11.953125q-0.609375 0 -0.953125 -0.3125q-0.328125 -0.328125 -0.328125 -0.90625q0 -0.546875 0.34375 -0.875q0.34375 -0.34375 0.9375 -0.34375q0.609375 0 0.9375 0.328125q0.34375 0.3125 0.34375 0.890625q0 0.546875 -0.34375 0.890625q-0.34375 0.328125 -0.9375 0.328125zm7.139557 11.953125l-4.140625 -9.796875l2.078125 0l2.984375 7.328125l-0.359375 0.171875l3.1875 -7.5l1.984375 0l-4.34375 9.796875l-1.390625 0zm11.769409 0.1875q-1.5 0 -2.671875 -0.640625q-1.15625 -0.640625 -1.828125 -1.765625q-0.65625 -1.125 -0.65625 -2.578125q0 -1.15625 0.375 -2.109375q0.375 -0.953125 1.03125 -1.640625q0.65625 -0.703125 1.578125 -1.078125q0.9375 -0.390625 2.015625 -0.390625q0.953125 0 1.765625 0.359375q0.828125 0.359375 1.421875 1.0q0.609375 0.640625 0.9375 1.515625q0.328125 0.859375 0.3125 1.875l-0.015625 0.828125l-8.0 0l-0.4375 -1.53125l6.765625 0l-0.265625 0.3125l0 -0.4375q-0.0625 -0.625 -0.421875 -1.109375q-0.34375 -0.484375 -0.890625 -0.765625q-0.546875 -0.28125 -1.171875 -0.28125q-1.015625 0 -1.703125 0.390625q-0.6875 0.375 -1.046875 1.125q-0.34375 0.734375 -0.34375 1.8125q0 1.015625 0.421875 1.78125q0.421875 0.75 1.203125 1.171875q0.796875 0.40625 1.8125 0.40625q0.734375 0 1.359375 -0.234375q0.625 -0.25 1.359375 -0.890625l0.96875 1.359375q-0.453125 0.453125 -1.09375 0.796875q-0.640625 0.328125 -1.359375 0.53125q-0.71875 0.1875 -1.421875 0.1875zm6.401306 -0.1875l0 -13.8125l1.921875 0l0 13.8125l-1.921875 0zm6.0121155 4.296875l1.984375 -4.578125l0.015625 1.53125l-4.890625 -11.046875l2.234375 0l3.0625 7.203125q0.09375 0.1875 0.21875 0.578125q0.140625 0.375 0.234375 0.75l-0.484375 0.109375q0.140625 -0.390625 0.28125 -0.78125q0.140625 -0.390625 0.265625 -0.78125l2.5625 -7.078125l2.28125 0l-4.03125 9.796875l-1.65625 4.296875l-2.078125 0zm18.578644 -4.109375q-1.359375 0 -2.4375 -0.671875q-1.0625 -0.671875 -1.6875 -1.828125q-0.625 -1.15625 -0.625 -2.59375q0 -1.4375 0.625 -2.59375q0.625 -1.15625 1.6875 -1.828125q1.078125 -0.671875 2.4375 -0.671875q1.3125 0 2.375 0.53125q1.078125 0.53125 1.640625 1.453125l-1.0625 1.296875q-0.296875 -0.421875 -0.765625 -0.78125q-0.46875 -0.359375 -1.0 -0.5625q-0.515625 -0.203125 -1.0 -0.203125q-0.890625 0 -1.59375 0.4375q-0.703125 0.4375 -1.109375 1.203125q-0.40625 0.765625 -0.40625 1.71875q0 0.953125 0.421875 1.71875q0.4375 0.75 1.140625 1.203125q0.703125 0.4375 1.5625 0.4375q0.515625 0 0.984375 -0.171875q0.46875 -0.171875 0.921875 -0.5q0.453125 -0.34375 0.84375 -0.828125l1.0625 1.3125q-0.59375 0.84375 -1.703125 1.390625q-1.109375 0.53125 -2.3125 0.53125zm10.23111 0q-1.4375 0 -2.578125 -0.65625q-1.125 -0.671875 -1.78125 -1.8125q-0.640625 -1.15625 -0.640625 -2.625q0 -1.46875 0.640625 -2.609375q0.65625 -1.15625 1.78125 -1.8125q1.140625 -0.671875 2.578125 -0.671875q1.40625 0 2.53125 0.671875q1.140625 0.65625 1.796875 1.8125q0.65625 1.140625 0.65625 2.609375q0 1.46875 -0.65625 2.625q-0.65625 1.140625 -1.796875 1.8125q-1.125 0.65625 -2.53125 0.65625zm0 -1.75q0.875 0 1.5625 -0.4375q0.6875 -0.4375 1.078125 -1.1875q0.390625 -0.765625 0.375 -1.71875q0.015625 -0.96875 -0.375 -1.71875q-0.390625 -0.765625 -1.078125 -1.1875q-0.6875 -0.4375 -1.5625 -0.4375q-0.875 0 -1.578125 0.4375q-0.703125 0.4375 -1.09375 1.203125q-0.390625 0.75 -0.375 1.703125q-0.015625 0.953125 0.375 1.71875q0.390625 0.75 1.09375 1.1875q0.703125 0.4375 1.578125 0.4375zm7.0673523 1.5625l0 -9.796875l1.921875 0l0 2.015625l-0.34375 0.21875q0.1875 -0.640625 0.734375 -1.1875q0.546875 -0.5625 1.28125 -0.90625q0.75 -0.34375 1.53125 -0.34375q1.125 0 1.859375 0.4375q0.75 0.4375 1.125 1.34375q0.375 0.890625 0.375 2.25l0 5.96875l-1.921875 0l0 -5.84375q0 -0.828125 -0.21875 -1.375q-0.21875 -0.5625 -0.6875 -0.8125q-0.46875 -0.25 -1.15625 -0.21875q-0.5625 0 -1.03125 0.1875q-0.46875 0.171875 -0.8125 0.5q-0.34375 0.3125 -0.546875 0.734375q-0.1875 0.40625 -0.1875 0.890625l0 5.9375l-0.953125 0q-0.234375 0 -0.484375 0q-0.25 0 -0.484375 0zm14.366089 0.1875q-1.234375 0 -2.21875 -0.421875q-0.984375 -0.4375 -1.640625 -1.28125l1.296875 -1.109375q0.5625 0.640625 1.21875 0.9375q0.671875 0.28125 1.515625 0.28125q0.328125 0 0.609375 -0.078125q0.296875 -0.078125 0.515625 -0.25q0.21875 -0.171875 0.328125 -0.40625q0.109375 -0.234375 0.109375 -0.515625q0 -0.484375 -0.359375 -0.78125q-0.1875 -0.125 -0.59375 -0.28125q-0.390625 -0.15625 -1.03125 -0.328125q-1.078125 -0.28125 -1.765625 -0.625q-0.6875 -0.359375 -1.0625 -0.8125q-0.28125 -0.359375 -0.421875 -0.765625q-0.125 -0.421875 -0.125 -0.9375q0 -0.609375 0.265625 -1.125q0.28125 -0.515625 0.75 -0.890625q0.484375 -0.390625 1.125 -0.59375q0.640625 -0.203125 1.375 -0.203125q0.6875 0 1.359375 0.1875q0.6875 0.1875 1.265625 0.546875q0.578125 0.34375 0.96875 0.828125l-1.09375 1.21875q-0.359375 -0.359375 -0.78125 -0.625q-0.421875 -0.265625 -0.859375 -0.40625q-0.421875 -0.15625 -0.765625 -0.15625q-0.390625 0 -0.71875 0.078125q-0.3125 0.0625 -0.53125 0.21875q-0.203125 0.140625 -0.328125 0.375q-0.109375 0.21875 -0.109375 0.5q0.015625 0.234375 0.125 0.453125q0.109375 0.21875 0.296875 0.359375q0.203125 0.15625 0.609375 0.328125q0.40625 0.15625 1.046875 0.3125q0.921875 0.234375 1.53125 0.53125q0.609375 0.28125 0.96875 0.65625q0.375 0.359375 0.515625 0.828125q0.15625 0.46875 0.15625 1.046875q0 0.828125 -0.484375 1.5q-0.46875 0.65625 -1.28125 1.03125q-0.796875 0.375 -1.78125 0.375zm6.8894653 -0.1875l0 -12.296875l1.921875 0l0 12.296875l-1.921875 0zm-2.046875 -7.921875l0 -1.875l6.234375 0l0 1.875l-6.234375 0zm11.664398 8.109375q-1.203125 0 -2.203125 -0.671875q-1.0 -0.671875 -1.609375 -1.828125q-0.59375 -1.15625 -0.59375 -2.609375q0 -1.484375 0.609375 -2.625q0.609375 -1.140625 1.640625 -1.796875q1.046875 -0.65625 2.328125 -0.65625q0.765625 0 1.390625 0.234375q0.640625 0.21875 1.109375 0.625q0.484375 0.390625 0.78125 0.921875q0.3125 0.515625 0.390625 1.109375l-0.421875 -0.140625l0 -2.546875l1.9375305 0l0 9.796875l-1.9375305 0l0 -2.328125l0.4375 -0.140625q-0.109375 0.515625 -0.453125 1.0q-0.34375 0.46875 -0.875 0.84375q-0.53125 0.359375 -1.171875 0.59375q-0.640625 0.21875 -1.359375 0.21875zm0.5 -1.765625q0.890625 0 1.546875 -0.421875q0.671875 -0.4375 1.046875 -1.1875q0.390625 -0.765625 0.390625 -1.734375q0 -0.953125 -0.390625 -1.703125q-0.375 -0.75 -1.046875 -1.171875q-0.65625 -0.4375 -1.546875 -0.4375q-0.859375 0 -1.515625 0.4375q-0.65625 0.421875 -1.046875 1.171875q-0.375 0.75 -0.375 1.703125q0 0.96875 0.375 1.734375q0.390625 0.75 1.046875 1.1875q0.65625 0.421875 1.515625 0.421875zm7.5437927 1.578125l0 -9.796875l1.921875 0l0 2.015625l-0.34375 0.21875q0.1875 -0.640625 0.734375 -1.1875q0.546875 -0.5625 1.28125 -0.90625q0.75 -0.34375 1.53125 -0.34375q1.125 0 1.859375 0.4375q0.75 0.4375 1.125 1.34375q0.375 0.890625 0.375 2.25l0 5.96875l-1.921875 0l0 -5.84375q0 -0.828125 -0.21875 -1.375q-0.21875 -0.5625 -0.6875 -0.8125q-0.46875 -0.25 -1.15625 -0.21875q-0.5625 0 -1.03125 0.1875q-0.46875 0.171875 -0.8125 0.5q-0.34375 0.3125 -0.546875 0.734375q-0.1875 0.40625 -0.1875 0.890625l0 5.9375l-0.953125 0q-0.234375 0 -0.484375 0q-0.25 0 -0.484375 0zm12.319214 0l0 -12.296875l1.921875 0l0 12.296875l-1.921875 0zm-2.046875 -7.921875l0 -1.875l6.234375 0l0 1.875l-6.234375 0zm8.773376 8.125q-0.609375 0 -0.953125 -0.359375q-0.328125 -0.359375 -0.328125 -1.03125q0 -0.625 0.34375 -1.015625q0.359375 -0.390625 0.9375 -0.390625q0.625 0 0.953125 0.375q0.34375 0.359375 0.34375 1.03125q0 0.609375 -0.359375 1.0q-0.359375 0.390625 -0.9375 0.390625z" fill-rule="nonzero"/></g></svg>