<svg version="1.1" viewBox="0.0 0.0 735.0813648293963 404.7979002624672" fill="none" stroke="none" stroke-linecap="square" stroke-miterlimit="10" xmlns:xlink="http://www.w3.org/1999/xlink" xmlns="http://www.w3.org/2000/svg"><clipPath id="p.0"><path d="m0 0l735.08136 0l0 404.7979l-735.08136 0l0 -404.7979z" clip-rule="nonzero"/></clipPath><g clip-path="url(#p.0)"><path fill="#000000" fill-opacity="0.0" d="m0 0l735.08136 0l0 404.7979l-735.08136 0z" fill-rule="evenodd"/><path fill="#000000" fill-opacity="0.0" d="m442.62204 4.0341206l0 349.22836" fill-rule="evenodd"/><path stroke="#595959" stroke-width="2.0" stroke-linejoin="round" stroke-linecap="butt" d="m442.62204 4.0341206l0 349.22836" fill-rule="evenodd"/><path fill="#000000" fill-opacity="0.0" d="m442.1391 353.26248l288.72443 -0.62994385" fill-rule="evenodd"/><path stroke="#595959" stroke-width="2.0" stroke-linejoin="round" stroke-linecap="butt" d="m442.1391 353.26248l288.72443 -0.62994385" fill-rule="evenodd"/><path shape-rendering="crispEdges" fill="#002b36" d="m17.797901 21.08924l124.90289 0l0 63.99475l-124.90289 0l0 -63.99475z" fill-rule="nonzero"/><path shape-rendering="crispEdges" fill="#002b36" d="m142.70079 21.08924l131.98424 0l0 63.99475l-131.98424 0l0 -63.99475z" fill-rule="nonzero"/><path shape-rendering="crispEdges" fill="#eeeeee" d="m17.797901 126.67979l124.90289 0l0 41.595802l-124.90289 0l0 -41.595802z" fill-rule="nonzero"/><path shape-rendering="crispEdges" fill="#eeeeee" d="m142.70079 126.67979l131.98424 0l0 41.595802l-131.98424 0l0 -41.595802z" fill-rule="nonzero"/><path shape-rendering="crispEdges" fill="#eeeeee" d="m17.797901 209.87138l124.90289 0l0 41.59581l-124.90289 0l0 -41.59581z" fill-rule="nonzero"/><path shape-rendering="crispEdges" fill="#eeeeee" d="m142.70079 209.87138l131.98424 0l0 41.59581l-131.98424 0l0 -41.59581z" fill-rule="nonzero"/><path stroke="#9e9e9e" stroke-width="1.0" stroke-linecap="butt" d="m17.797901 20.590551l0 272.97113" fill-rule="nonzero"/><path stroke="#9e9e9e" stroke-width="1.0" stroke-linecap="butt" d="m142.70079 20.590551l0 272.97113" fill-rule="nonzero"/><path stroke="#9e9e9e" stroke-width="1.0" stroke-linecap="butt" d="m274.68503 20.590551l0 272.97113" fill-rule="nonzero"/><path stroke="#9e9e9e" stroke-width="1.0" stroke-linecap="butt" d="m17.299213 21.08924l257.8845 0" fill-rule="nonzero"/><path stroke="#9e9e9e" stroke-width="3.0" stroke-linecap="butt" d="m17.299213 85.08399l257.8845 0" fill-rule="nonzero"/><path stroke="#9e9e9e" stroke-width="1.0" stroke-linecap="butt" d="m17.299213 126.67979l257.8845 0" fill-rule="nonzero"/><path stroke="#9e9e9e" stroke-width="1.0" stroke-linecap="butt" d="m17.299213 168.27559l257.8845 0" fill-rule="nonzero"/><path stroke="#9e9e9e" stroke-width="1.0" stroke-linecap="butt" d="m17.299213 209.87138l257.8845 0" fill-rule="nonzero"/><path stroke="#9e9e9e" stroke-width="1.0" stroke-linecap="butt" d="m17.299213 251.4672l257.8845 0" fill-rule="nonzero"/><path stroke="#9e9e9e" stroke-width="1.0" stroke-linecap="butt" d="m17.299213 293.063l257.8845 0" fill-rule="nonzero"/><path fill="#ffffff" d="m47.727448 48.227985q-1.140625 0 -2.171875 -0.390625q-1.015625 -0.390625 -1.8125 -1.15625q-0.78125 -0.78125 -1.25 -1.9375q-0.453125 -1.171875 -0.453125 -2.71875q0 -2.03125 0.796875 -3.453125q0.796875 -1.4375 2.109375 -2.1875q1.328125 -0.75 2.96875 -0.75q1.15625 0 2.109375 0.484375q0.953125 0.46875 1.5625 1.09375l-1.640625 1.828125q-0.40625 -0.390625 -0.90625 -0.609375q-0.484375 -0.21875 -1.125 -0.21875q-0.796875 0 -1.453125 0.4375q-0.640625 0.4375 -1.0 1.28125q-0.359375 0.828125 -0.359375 1.984375q0 1.1875 0.359375 2.03125q0.359375 0.828125 1.03125 1.28125q0.671875 0.4375 1.5625 0.4375q0.609375 0 1.125 -0.28125q0.53125 -0.296875 0.9375 -0.734375l1.640625 1.796875q-0.75 0.890625 -1.78125 1.34375q-1.015625 0.4375 -2.25 0.4375zm10.131256 0q-1.234375 0 -2.328125 -0.578125q-1.078125 -0.578125 -1.765625 -1.65625q-0.671875 -1.078125 -0.671875 -2.625q0 -1.546875 0.671875 -2.625q0.6875 -1.09375 1.765625 -1.671875q1.09375 -0.578125 2.328125 -0.578125q1.234375 0 2.328125 0.578125q1.09375 0.578125 1.765625 1.671875q0.6875 1.078125 0.6875 2.625q0 1.546875 -0.6875 2.625q-0.671875 1.078125 -1.765625 1.65625q-1.09375 0.578125 -2.328125 0.578125zm0 -2.390625q0.578125 0 0.953125 -0.296875q0.390625 -0.3125 0.578125 -0.859375q0.1875 -0.546875 0.1875 -1.3125q0 -0.75 -0.1875 -1.3125q-0.1875 -0.5625 -0.578125 -0.859375q-0.375 -0.3125 -0.953125 -0.3125q-0.578125 0 -0.96875 0.3125q-0.375 0.296875 -0.5625 0.859375q-0.1875 0.5625 -0.1875 1.3125q0 0.765625 0.1875 1.3125q0.1875 0.546875 0.5625 0.859375q0.390625 0.296875 0.96875 0.296875zm6.162506 2.171875l0 -9.296875l2.234375 0l0.203125 1.140625l0.078125 0q0.25 -0.5625 0.71875 -0.953125q0.46875 -0.40625 1.28125 -0.40625q0.578125 0 1.0 0.390625q0.421875 0.375 0.578125 1.125q0.234375 -0.625 0.734375 -1.0625q0.5 -0.453125 1.28125 -0.453125q1.015625 0 1.546875 0.8125q0.546875 0.8125 0.546875 2.203125l0 6.5l-2.8125 0l0 -6.28125q0 -0.703125 -0.421875 -0.703125q-0.21875 0 -0.390625 0.1875q-0.15625 0.1875 -0.328125 0.625l0 6.171875l-2.296875 0l0 -6.28125q0 -0.359375 -0.109375 -0.53125q-0.09375 -0.171875 -0.34375 -0.171875q-0.203125 0 -0.359375 0.1875q-0.15625 0.1875 -0.328125 0.625l0 6.171875l-2.8125 0zm11.193756 0l0 -9.296875l2.234375 0l0.203125 1.140625l0.078125 0q0.25 -0.5625 0.71875 -0.953125q0.46875 -0.40625 1.28125 -0.40625q0.578125 0 1.0 0.390625q0.421875 0.375 0.578125 1.125q0.234375 -0.625 0.734375 -1.0625q0.5 -0.453125 1.28125 -0.453125q1.015625 0 1.546875 0.8125q0.546875 0.8125 0.546875 2.203125l0 6.5l-2.8125 0l0 -6.28125q0 -0.703125 -0.421875 -0.703125q-0.21875 0 -0.390625 0.1875q-0.15625 0.1875 -0.328125 0.625l0 6.171875l-2.296875 0l0 -6.28125q0 -0.359375 -0.109375 -0.53125q-0.09375 -0.171875 -0.34375 -0.171875q-0.203125 0 -0.359375 0.1875q-0.15625 0.1875 -0.328125 0.625l0 6.171875l-2.8125 0zm14.693756 0.21875q-1.5625 0 -2.265625 -1.015625q-0.703125 -1.03125 -0.703125 -2.765625l0 -5.734375l2.96875 0l0 5.359375q0 0.84375 0.25 1.234375q0.265625 0.390625 0.96875 0.390625q0.46875 0 0.828125 -0.1875q0.359375 -0.1875 0.78125 -0.75l0 -6.046875l2.953125 0l0 9.296875l-2.421875 0l-0.203125 -1.28125l-0.078125 0q-0.59375 0.6875 -1.328125 1.09375q-0.734375 0.40625 -1.75 0.40625zm14.350006 0q-1.484375 0 -2.390625 -0.5q-0.890625 -0.515625 -1.296875 -1.453125q-0.390625 -0.9375 -0.390625 -2.171875l0 -3.046875l-2.28125 0l0 -2.21875l2.40625 -0.125l0.390625 -2.8125l2.46875 0l0 2.8125l3.78125 0l0 2.34375l-3.78125 0l0 3.015625q0 0.671875 0.203125 1.09375q0.203125 0.40625 0.609375 0.578125q0.40625 0.15625 1.046875 0.15625q0.5 0 0.9375 -0.078125q0.4375 -0.09375 0.828125 -0.234375l0.53125 2.15625q-0.625 0.171875 -1.375 0.328125q-0.75 0.15625 -1.6875 0.15625zm10.131256 0q-1.453125 0 -2.640625 -0.578125q-1.171875 -0.578125 -1.859375 -1.65625q-0.671875 -1.078125 -0.671875 -2.625q0 -1.53125 0.6875 -2.609375q0.703125 -1.09375 1.8125 -1.671875q1.109375 -0.59375 2.359375 -0.59375q1.4375 0 2.40625 0.59375q0.984375 0.59375 1.46875 1.625q0.5 1.015625 0.5 2.265625q0 0.390625 -0.03125 0.75q-0.03125 0.359375 -0.078125 0.53125l-6.90625 0l0 -1.953125l4.859375 0l-0.4375 0.53125q0 -1.015625 -0.4375 -1.546875q-0.421875 -0.53125 -1.25 -0.53125q-0.65625 0 -1.125 0.28125q-0.453125 0.265625 -0.703125 0.859375q-0.25 0.59375 -0.25 1.46875q0 0.90625 0.3125 1.484375q0.3125 0.578125 0.90625 0.859375q0.609375 0.265625 1.484375 0.265625q0.59375 0 1.140625 -0.140625q0.5625 -0.15625 1.171875 -0.453125l0.96875 1.765625q-0.796875 0.5 -1.78125 0.796875q-0.984375 0.28125 -1.90625 0.28125z" fill-rule="nonzero"/><path fill="#ffffff" d="m53.514954 70.40923l0 -12.140625l3.4375 0q1.75 0 3.0625 0.625q1.3125 0.625 2.0625 1.953125q0.75 1.3125 0.75 3.4375q0 2.109375 -0.75 3.484375q-0.734375 1.359375 -2.015625 2.0q-1.28125 0.640625 -2.953125 0.640625l-3.59375 0zm2.984375 -2.390625l0.28125 0q0.875 0 1.546875 -0.34375q0.671875 -0.34375 1.046875 -1.140625q0.390625 -0.8125 0.390625 -2.25q0 -1.4375 -0.390625 -2.21875q-0.375 -0.78125 -1.046875 -1.09375q-0.671875 -0.3125 -1.546875 -0.3125l-0.28125 0l0 7.359375zm12.021881 2.390625l0 -6.953125l-3.640625 0l0 -2.34375l6.625 0l0 9.296875l-2.984375 0zm1.375 -10.65625q-0.84375 0 -1.390625 -0.484375q-0.546875 -0.484375 -0.546875 -1.28125q0 -0.8125 0.546875 -1.296875q0.546875 -0.5 1.390625 -0.5q0.84375 0 1.390625 0.5q0.546875 0.484375 0.546875 1.296875q0 0.796875 -0.546875 1.28125q-0.546875 0.484375 -1.390625 0.484375zm10.225006 10.875q-1.21875 0 -2.4375 -0.40625q-1.21875 -0.421875 -2.09375 -1.0l1.25 -1.859375q0.859375 0.53125 1.796875 0.8125q0.9375 0.28125 1.890625 0.28125q0.6875 0 1.0 -0.1875q0.3125 -0.203125 0.3125 -0.515625q0 -0.15625 -0.109375 -0.28125q-0.09375 -0.140625 -0.328125 -0.234375q-0.234375 -0.109375 -0.65625 -0.203125q-0.421875 -0.09375 -1.0625 -0.25q-1.890625 -0.40625 -2.703125 -1.125q-0.8125 -0.734375 -0.8125 -1.796875q0 -1.34375 1.15625 -2.15625q1.171875 -0.8125 3.1875 -0.8125q1.28125 0 2.3125 0.421875q1.03125 0.40625 1.765625 0.859375l-1.3125 1.78125q-0.734375 -0.4375 -1.515625 -0.65625q-0.78125 -0.21875 -1.53125 -0.21875q-0.359375 0 -0.609375 0.078125q-0.25 0.0625 -0.390625 0.21875q-0.125 0.140625 -0.125 0.328125q0 0.34375 0.453125 0.484375q0.46875 0.140625 1.59375 0.421875q1.40625 0.3125 2.203125 0.71875q0.796875 0.390625 1.109375 0.953125q0.3125 0.546875 0.3125 1.3125q0 0.859375 -0.53125 1.546875q-0.53125 0.6875 -1.5625 1.09375q-1.03125 0.390625 -2.5625 0.390625zm12.943756 0q-1.484375 0 -2.390625 -0.5q-0.890625 -0.515625 -1.296875 -1.453125q-0.390625 -0.9375 -0.390625 -2.171875l0 -3.046875l-2.28125 0l0 -2.21875l2.40625 -0.125l0.390625 -2.8125l2.46875 0l0 2.8125l3.78125 0l0 2.34375l-3.78125 0l0 3.015625q0 0.671875 0.203125 1.09375q0.203125 0.40625 0.609375 0.578125q0.40625 0.15625 1.046875 0.15625q0.5 0 0.9375 -0.078125q0.4375 -0.09375 0.828125 -0.234375l0.53125 2.15625q-0.625 0.171875 -1.375 0.328125q-0.75 0.15625 -1.6875 0.15625zm9.568756 0q-1.015625 0 -1.65625 -0.671875q-0.640625 -0.671875 -0.640625 -1.640625q0 -0.953125 0.640625 -1.625q0.640625 -0.671875 1.65625 -0.671875q1.046875 0 1.671875 0.671875q0.625 0.671875 0.625 1.625q0 0.96875 -0.625 1.640625q-0.625 0.671875 -1.671875 0.671875z" fill-rule="nonzero"/><path fill="#ffffff" d="m176.17102 48.227985q-1.140625 0 -2.171875 -0.390625q-1.015625 -0.390625 -1.8125 -1.15625q-0.78125 -0.78125 -1.25 -1.9375q-0.453125 -1.171875 -0.453125 -2.71875q0 -2.03125 0.796875 -3.453125q0.796875 -1.4375 2.109375 -2.1875q1.328125 -0.75 2.96875 -0.75q1.15625 0 2.109375 0.484375q0.953125 0.46875 1.5625 1.09375l-1.640625 1.828125q-0.40625 -0.390625 -0.90625 -0.609375q-0.484375 -0.21875 -1.125 -0.21875q-0.796875 0 -1.453125 0.4375q-0.640625 0.4375 -1.0 1.28125q-0.359375 0.828125 -0.359375 1.984375q0 1.1875 0.359375 2.03125q0.359375 0.828125 1.03125 1.28125q0.671875 0.4375 1.5625 0.4375q0.609375 0 1.125 -0.28125q0.53125 -0.296875 0.9375 -0.734375l1.640625 1.796875q-0.75 0.890625 -1.78125 1.34375q-1.015625 0.4375 -2.25 0.4375zm10.131256 0q-1.234375 0 -2.328125 -0.578125q-1.078125 -0.578125 -1.765625 -1.65625q-0.671875 -1.078125 -0.671875 -2.625q0 -1.546875 0.671875 -2.625q0.6875 -1.09375 1.765625 -1.671875q1.09375 -0.578125 2.328125 -0.578125q1.234375 0 2.328125 0.578125q1.09375 0.578125 1.765625 1.671875q0.6875 1.078125 0.6875 2.625q0 1.546875 -0.6875 2.625q-0.671875 1.078125 -1.765625 1.65625q-1.09375 0.578125 -2.328125 0.578125zm0 -2.390625q0.578125 0 0.953125 -0.296875q0.390625 -0.3125 0.578125 -0.859375q0.1875 -0.546875 0.1875 -1.3125q0 -0.75 -0.1875 -1.3125q-0.1875 -0.5625 -0.578125 -0.859375q-0.375 -0.3125 -0.953125 -0.3125q-0.578125 0 -0.96875 0.3125q-0.375 0.296875 -0.5625 0.859375q-0.1875 0.5625 -0.1875 1.3125q0 0.765625 0.1875 1.3125q0.1875 0.546875 0.5625 0.859375q0.390625 0.296875 0.96875 0.296875zm6.162506 2.171875l0 -9.296875l2.234375 0l0.203125 1.140625l0.078125 0q0.25 -0.5625 0.71875 -0.953125q0.46875 -0.40625 1.28125 -0.40625q0.578125 0 1.0 0.390625q0.421875 0.375 0.578125 1.125q0.234375 -0.625 0.734375 -1.0625q0.5 -0.453125 1.28125 -0.453125q1.015625 0 1.546875 0.8125q0.546875 0.8125 0.546875 2.203125l0 6.5l-2.8125 0l0 -6.28125q0 -0.703125 -0.421875 -0.703125q-0.21875 0 -0.390625 0.1875q-0.15625 0.1875 -0.328125 0.625l0 6.171875l-2.296875 0l0 -6.28125q0 -0.359375 -0.109375 -0.53125q-0.09375 -0.171875 -0.34375 -0.171875q-0.203125 0 -0.359375 0.1875q-0.15625 0.1875 -0.328125 0.625l0 6.171875l-2.8125 0zm11.193756 0l0 -9.296875l2.234375 0l0.203125 1.140625l0.078125 0q0.25 -0.5625 0.71875 -0.953125q0.46875 -0.40625 1.28125 -0.40625q0.578125 0 1.0 0.390625q0.421875 0.375 0.578125 1.125q0.234375 -0.625 0.734375 -1.0625q0.5 -0.453125 1.28125 -0.453125q1.015625 0 1.546875 0.8125q0.546875 0.8125 0.546875 2.203125l0 6.5l-2.8125 0l0 -6.28125q0 -0.703125 -0.421875 -0.703125q-0.21875 0 -0.390625 0.1875q-0.15625 0.1875 -0.328125 0.625l0 6.171875l-2.296875 0l0 -6.28125q0 -0.359375 -0.109375 -0.53125q-0.09375 -0.171875 -0.34375 -0.171875q-0.203125 0 -0.359375 0.1875q-0.15625 0.1875 -0.328125 0.625l0 6.171875l-2.8125 0zm14.693756 0.21875q-1.5625 0 -2.265625 -1.015625q-0.703125 -1.03125 -0.703125 -2.765625l0 -5.734375l2.96875 0l0 5.359375q0 0.84375 0.25 1.234375q0.265625 0.390625 0.96875 0.390625q0.46875 0 0.828125 -0.1875q0.359375 -0.1875 0.78125 -0.75l0 -6.046875l2.953125 0l0 9.296875l-2.421875 0l-0.203125 -1.28125l-0.078125 0q-0.59375 0.6875 -1.328125 1.09375q-0.734375 0.40625 -1.75 0.40625zm14.350006 0q-1.484375 0 -2.390625 -0.5q-0.890625 -0.515625 -1.296875 -1.453125q-0.390625 -0.9375 -0.390625 -2.171875l0 -3.046875l-2.28125 0l0 -2.21875l2.40625 -0.125l0.390625 -2.8125l2.46875 0l0 2.8125l3.78125 0l0 2.34375l-3.78125 0l0 3.015625q0 0.671875 0.203125 1.09375q0.203125 0.40625 0.609375 0.578125q0.40625 0.15625 1.046875 0.15625q0.5 0 0.9375 -0.078125q0.4375 -0.09375 0.828125 -0.234375l0.53125 2.15625q-0.625 0.171875 -1.375 0.328125q-0.75 0.15625 -1.6875 0.15625zm10.131256 0q-1.453125 0 -2.640625 -0.578125q-1.171875 -0.578125 -1.859375 -1.65625q-0.671875 -1.078125 -0.671875 -2.625q0 -1.53125 0.6875 -2.609375q0.703125 -1.09375 1.8125 -1.671875q1.109375 -0.59375 2.359375 -0.59375q1.4375 0 2.40625 0.59375q0.984375 0.59375 1.46875 1.625q0.5 1.015625 0.5 2.265625q0 0.390625 -0.03125 0.75q-0.03125 0.359375 -0.078125 0.53125l-6.90625 0l0 -1.953125l4.859375 0l-0.4375 0.53125q0 -1.015625 -0.4375 -1.546875q-0.421875 -0.53125 -1.25 -0.53125q-0.65625 0 -1.125 0.28125q-0.453125 0.265625 -0.703125 0.859375q-0.25 0.59375 -0.25 1.46875q0 0.90625 0.3125 1.484375q0.3125 0.578125 0.90625 0.859375q0.609375 0.265625 1.484375 0.265625q0.59375 0 1.140625 -0.140625q0.5625 -0.15625 1.171875 -0.453125l0.96875 1.765625q-0.796875 0.5 -1.78125 0.796875q-0.984375 0.28125 -1.90625 0.28125z" fill-rule="nonzero"/><path fill="#ffffff" d="m190.41478 70.40923l0 -9.640625l-3.5625 0l0 -2.5l10.109375 0l0 2.5l-3.5625 0l0 9.640625l-2.984375 0zm12.146881 0l0 -6.953125l-3.640625 0l0 -2.34375l6.625 0l0 9.296875l-2.984375 0zm1.375 -10.65625q-0.84375 0 -1.390625 -0.484375q-0.546875 -0.484375 -0.546875 -1.28125q0 -0.8125 0.546875 -1.296875q0.546875 -0.5 1.390625 -0.5q0.84375 0 1.390625 0.5q0.546875 0.484375 0.546875 1.296875q0 0.796875 -0.546875 1.28125q-0.546875 0.484375 -1.390625 0.484375zm5.318756 10.65625l0 -9.296875l2.234375 0l0.203125 1.140625l0.078125 0q0.25 -0.5625 0.71875 -0.953125q0.46875 -0.40625 1.28125 -0.40625q0.578125 0 1.0 0.390625q0.421875 0.375 0.578125 1.125q0.234375 -0.625 0.734375 -1.0625q0.5 -0.453125 1.28125 -0.453125q1.015625 0 1.546875 0.8125q0.546875 0.8125 0.546875 2.203125l0 6.5l-2.8125 0l0 -6.28125q0 -0.703125 -0.421875 -0.703125q-0.21875 0 -0.390625 0.1875q-0.15625 0.1875 -0.328125 0.625l0 6.171875l-2.296875 0l0 -6.28125q0 -0.359375 -0.109375 -0.53125q-0.09375 -0.171875 -0.34375 -0.171875q-0.203125 0 -0.359375 0.1875q-0.15625 0.1875 -0.328125 0.625l0 6.171875l-2.8125 0zm16.787506 0.21875q-1.453125 0 -2.640625 -0.578125q-1.171875 -0.578125 -1.859375 -1.65625q-0.671875 -1.078125 -0.671875 -2.625q0 -1.53125 0.6875 -2.609375q0.703125 -1.09375 1.8125 -1.671875q1.109375 -0.59375 2.359375 -0.59375q1.4375 0 2.40625 0.59375q0.984375 0.59375 1.46875 1.625q0.5 1.015625 0.5 2.265625q0 0.390625 -0.03125 0.75q-0.03125 0.359375 -0.078125 0.53125l-6.90625 0l0 -1.953125l4.859375 0l-0.4375 0.53125q0 -1.015625 -0.4375 -1.546875q-0.421875 -0.53125 -1.25 -0.53125q-0.65625 0 -1.125 0.28125q-0.453125 0.265625 -0.703125 0.859375q-0.25 0.59375 -0.25 1.46875q0 0.90625 0.3125 1.484375q0.3125 0.578125 0.90625 0.859375q0.609375 0.265625 1.484375 0.265625q0.59375 0 1.140625 -0.140625q0.5625 -0.15625 1.171875 -0.453125l0.96875 1.765625q-0.796875 0.5 -1.78125 0.796875q-0.984375 0.28125 -1.90625 0.28125z" fill-rule="nonzero"/><path fill="#000000" d="m72.81846 112.19149q-1.53125 0 -2.609375 -0.796875q-1.0625 -0.8125 -1.640625 -2.3125q-0.5625 -1.5 -0.5625 -3.609375q0 -2.109375 0.5625 -3.609375q0.578125 -1.5 1.640625 -2.296875q1.078125 -0.8125 2.609375 -0.8125q1.515625 0 2.59375 0.8125q1.09375 0.796875 1.65625 2.296875q0.5625 1.5 0.5625 3.609375q0 2.109375 -0.5625 3.609375q-0.5625 1.5 -1.65625 2.3125q-1.078125 0.796875 -2.59375 0.796875zm0 -1.359375q1.609375 0 2.46875 -1.390625q0.875 -1.40625 0.875 -3.96875q0 -2.546875 -0.875 -3.953125q-0.859375 -1.40625 -2.46875 -1.40625q-1.625 0 -2.5 1.40625q-0.859375 1.40625 -0.859375 3.953125q0 2.5625 0.859375 3.96875q0.875 1.390625 2.5 1.390625zm7.839508 1.359375q-0.5 0 -0.78125 -0.296875q-0.265625 -0.296875 -0.265625 -0.859375q0 -0.5 0.28125 -0.828125q0.296875 -0.328125 0.765625 -0.328125q0.5 0 0.765625 0.3125q0.28125 0.296875 0.28125 0.84375q0 0.515625 -0.296875 0.84375q-0.28125 0.3125 -0.75 0.3125zm6.925499 -0.0625q-1.296875 0 -2.34375 -0.578125q-1.03125 -0.59375 -1.71875 -1.6875l0.875 -0.953125q0.78125 1.046875 1.5625 1.453125q0.796875 0.390625 1.640625 0.390625q0.890625 0 1.625 -0.421875q0.75 -0.421875 1.171875 -1.125q0.4375 -0.703125 0.4375 -1.5625q0 -0.84375 -0.40625 -1.515625q-0.390625 -0.6875 -1.0625 -1.09375q-0.671875 -0.40625 -1.546875 -0.40625q-0.453125 0 -0.921875 0.109375q-0.46875 0.109375 -0.96875 0.328125q-0.484375 0.203125 -1.046875 0.515625l-0.828125 -1.09375l0.765625 -5.546875l7.046875 0l0 1.359375l-6.28125 0l0.46875 -0.328125l-0.6875 4.5625l-0.4375 -0.296875q0.296875 -0.234375 0.796875 -0.453125q0.515625 -0.234375 1.125 -0.375q0.609375 -0.140625 1.1875 -0.140625q1.203125 0 2.15625 0.5625q0.953125 0.546875 1.515625 1.515625q0.5625 0.953125 0.5625 2.203125q0 1.296875 -0.625 2.34375q-0.609375 1.03125 -1.671875 1.640625q-1.0625 0.59375 -2.390625 0.59375z" fill-rule="nonzero"/><path fill="#000000" d="m208.53958 112.19149q-1.390625 0 -2.453125 -0.625q-1.046875 -0.625 -1.953125 -2.140625l1.1875 -0.75q0.515625 0.8125 1.046875 1.296875q0.53125 0.46875 1.078125 0.671875q0.5625 0.203125 1.203125 0.203125q0.78125 0 1.4375 -0.375q0.65625 -0.390625 1.046875 -1.046875q0.390625 -0.671875 0.390625 -1.484375q0 -0.84375 -0.359375 -1.46875q-0.359375 -0.640625 -0.984375 -1.0q-0.625 -0.359375 -1.4375 -0.359375q-0.296875 0 -0.640625 0.078125q-0.34375 0.0625 -0.75 0.234375q-0.40625 0.171875 -0.875 0.515625l-0.421875 -1.15625l4.609375 -5.015625l0.3125 0.53125l-5.9375 0l0 -1.359375l7.0625 0l0.375 0.75l-4.484375 4.78125l-0.375 -0.375q0.25 -0.15625 0.578125 -0.25q0.34375 -0.109375 0.671875 -0.109375q0.859375 0 1.609375 0.328125q0.75 0.3125 1.296875 0.875q0.546875 0.5625 0.859375 1.3125q0.328125 0.75 0.328125 1.625q0 1.21875 -0.578125 2.203125q-0.578125 0.96875 -1.59375 1.546875q-1.0 0.5625 -2.25 0.5625z" fill-rule="nonzero"/><path fill="#000000" d="m79.83643 152.95917l0 -11.265625l0.546875 0.40625l-2.421875 1.46875l-0.4375 -1.3125l3.234375 -1.90625l0.546875 0l0 12.609375l-1.46875 0zm-1.921875 0.640625l0 -1.421875l5.3593674 0l0 1.421875l-5.3593674 0z" fill-rule="nonzero"/><path fill="#000000" d="m205.31548 153.5998l-0.453125 -1.078125l4.40625 -4.953125q0.3125 -0.34375 0.65625 -0.796875q0.359375 -0.453125 0.65625 -0.9375q0.3125 -0.5 0.5 -0.984375q0.1875 -0.484375 0.1875 -0.953125q0 -0.6875 -0.296875 -1.15625q-0.296875 -0.484375 -0.859375 -0.734375q-0.546875 -0.265625 -1.265625 -0.265625q-0.640625 0 -1.265625 0.296875q-0.609375 0.296875 -1.109375 0.921875q-0.5 0.609375 -0.78125 1.5625l-1.15625 -0.703125q0.328125 -1.125 0.984375 -1.90625q0.65625 -0.78125 1.546875 -1.171875q0.90625 -0.390625 1.921875 -0.390625q1.09375 0 1.9375 0.4375q0.859375 0.4375 1.359375 1.234375q0.515625 0.796875 0.515625 1.828125q0 0.4375 -0.109375 0.890625q-0.09375 0.453125 -0.3125 0.90625q-0.203125 0.4375 -0.5 0.90625q-0.28125 0.46875 -0.671875 0.953125q-0.375 0.484375 -0.828125 1.0l-3.75 4.171875l-0.234375 -0.484375l6.8125 0l0 1.40625l-7.890625 0z" fill-rule="nonzero"/><path fill="#000000" d="m72.41124 194.55496l0 -11.265625l0.546875 0.40625l-2.421875 1.46875l-0.4375 -1.3125l3.234375 -1.90625l0.546875 0l0 12.609375l-1.46875 0zm-1.921875 0.640625l0 -1.421875l5.359375 0l0 1.421875l-5.359375 0zm8.732071 0.1875q-0.5 0 -0.78125 -0.296875q-0.265625 -0.296875 -0.265625 -0.859375q0 -0.5 0.28125 -0.828125q0.296875 -0.328125 0.765625 -0.328125q0.5 0 0.765625 0.3125q0.28125 0.296875 0.28125 0.84375q0 0.515625 -0.296875 0.84375q-0.28125 0.3125 -0.75 0.3125zm6.9255066 -0.0625q-1.296875 0 -2.34375 -0.578125q-1.03125 -0.59375 -1.71875 -1.6875l0.875 -0.953125q0.78125 1.046875 1.5625 1.453125q0.796875 0.390625 1.640625 0.390625q0.890625 0 1.625 -0.421875q0.75 -0.421875 1.171875 -1.125q0.4375 -0.703125 0.4375 -1.5625q0 -0.84375 -0.40625 -1.515625q-0.390625 -0.6875 -1.0625 -1.09375q-0.671875 -0.40625 -1.546875 -0.40625q-0.453125 0 -0.921875 0.109375q-0.46875 0.109375 -0.96875 0.328125q-0.484375 0.203125 -1.046875 0.515625l-0.828125 -1.09375l0.765625 -5.546875l7.046875 0l0 1.359375l-6.28125 0l0.46875 -0.328125l-0.6875 4.5625l-0.4375 -0.296875q0.296875 -0.234375 0.796875 -0.453125q0.515625 -0.234375 1.125 -0.375q0.609375 -0.140625 1.1875 -0.140625q1.203125 0 2.15625 0.5625q0.953125 0.546875 1.515625 1.515625q0.5625 0.953125 0.5625 2.203125q0 1.296875 -0.625 2.34375q-0.609375 1.03125 -1.671875 1.640625q-1.0625 0.59375 -2.390625 0.59375z" fill-rule="nonzero"/><path fill="#000000" d="m210.00322 195.19559l0 -11.328125l0.40625 0.140625l-5.40625 6.59375l-0.15625 -0.328125l8.84375 0l0 1.375l-9.375 0l-0.703125 -1.375l6.671875 -8.140625l1.125 0l0 13.0625l-1.40625 0z" fill-rule="nonzero"/><path fill="#000000" d="m76.8719 236.79138l-0.453125 -1.078125l4.40625 -4.953125q0.3125 -0.34375 0.65625 -0.796875q0.359375 -0.453125 0.65625 -0.9375q0.3125 -0.5 0.5 -0.984375q0.1875 -0.484375 0.1875 -0.953125q0 -0.6875 -0.296875 -1.15625q-0.296875 -0.484375 -0.859375 -0.734375q-0.546875 -0.265625 -1.265625 -0.265625q-0.640625 0 -1.265625 0.296875q-0.609375 0.296875 -1.109375 0.921875q-0.5 0.609375 -0.78125 1.5625l-1.15625 -0.703125q0.328125 -1.125 0.984375 -1.90625q0.65625 -0.78125 1.546875 -1.171875q0.90625 -0.390625 1.921875 -0.390625q1.09375 0 1.9375 0.4375q0.859375 0.4375 1.359375 1.234375q0.515625 0.796875 0.515625 1.828125q0 0.4375 -0.109375 0.890625q-0.09375 0.453125 -0.3125 0.90625q-0.203125 0.4375 -0.5 0.90625q-0.28125 0.46875 -0.671875 0.953125q-0.375 0.484375 -0.828125 1.0l-3.75 4.171875l-0.234375 -0.484375l6.8125 0l0 1.40625l-7.890625 0z" fill-rule="nonzero"/><path fill="#000000" d="m208.79169 236.88513q-0.96875 0 -1.8125 -0.328125q-0.828125 -0.34375 -1.4375 -0.96875q-0.59375 -0.625 -0.9375 -1.46875q-0.328125 -0.859375 -0.328125 -1.859375q0 -0.484375 0.125 -1.0625q0.125 -0.59375 0.390625 -1.296875q0.265625 -0.703125 0.640625 -1.46875q0.375 -0.765625 0.859375 -1.578125l1.890625 -3.234375l1.421875 0l0.078125 0.1875l-2.109375 3.546875q-0.453125 0.75 -0.8125 1.484375q-0.359375 0.71875 -0.6875 1.453125q-0.3125 0.734375 -0.609375 1.5l-0.265625 -1.34375q0.359375 -0.59375 0.78125 -1.03125q0.421875 -0.453125 0.90625 -0.78125q0.484375 -0.328125 1.03125 -0.484375q0.546875 -0.171875 1.125 -0.171875q1.140625 0 2.0625 0.59375q0.921875 0.59375 1.484375 1.5625q0.5625 0.96875 0.5625 2.15625q0 1.3125 -0.578125 2.359375q-0.578125 1.046875 -1.578125 1.640625q-1.0 0.59375 -2.203125 0.59375zm-0.0625 -1.359375q0.84375 0 1.515625 -0.40625q0.671875 -0.421875 1.0625 -1.109375q0.390625 -0.703125 0.390625 -1.578125q0 -0.828125 -0.390625 -1.515625q-0.390625 -0.703125 -1.0625 -1.125q-0.671875 -0.421875 -1.5 -0.421875q-0.875 0 -1.5625 0.40625q-0.671875 0.40625 -1.0625 1.109375q-0.390625 0.6875 -0.390625 1.515625q0 0.890625 0.390625 1.59375q0.390625 0.6875 1.0625 1.109375q0.6875 0.421875 1.546875 0.421875z" fill-rule="nonzero"/><path fill="#000000" d="m69.44671 278.38718l-0.453125 -1.078125l4.40625 -4.953125q0.3125 -0.34375 0.65625 -0.796875q0.359375 -0.453125 0.65625 -0.9375q0.3125 -0.5 0.5 -0.984375q0.1875 -0.484375 0.1875 -0.953125q0 -0.6875 -0.296875 -1.15625q-0.296875 -0.484375 -0.859375 -0.734375q-0.546875 -0.265625 -1.265625 -0.265625q-0.640625 0 -1.265625 0.296875q-0.609375 0.296875 -1.109375 0.921875q-0.5 0.609375 -0.78125 1.5625l-1.15625 -0.703125q0.328125 -1.125 0.984375 -1.90625q0.65625 -0.78125 1.546875 -1.171875q0.90625 -0.390625 1.921875 -0.390625q1.09375 0 1.9375 0.4375q0.859375 0.4375 1.359375 1.234375q0.515625 0.796875 0.515625 1.828125q0 0.4375 -0.109375 0.890625q-0.09375 0.453125 -0.3125 0.90625q-0.203125 0.4375 -0.5 0.90625q-0.28125 0.46875 -0.671875 0.953125q-0.375 0.484375 -0.828125 1.0l-3.75 4.171875l-0.234375 -0.484375l6.8125 0l0 1.40625l-7.890625 0zm10.614258 0.1875q-0.5 0 -0.78125 -0.296875q-0.265625 -0.296875 -0.265625 -0.859375q0 -0.5 0.28125 -0.828125q0.296875 -0.328125 0.765625 -0.328125q0.5 0 0.765625 0.3125q0.28125 0.296875 0.28125 0.84375q0 0.515625 -0.296875 0.84375q-0.28125 0.3125 -0.75 0.3125zm6.925499 -0.0625q-1.296875 0 -2.34375 -0.578125q-1.03125 -0.59375 -1.71875 -1.6875l0.875 -0.953125q0.78125 1.046875 1.5625 1.453125q0.796875 0.390625 1.640625 0.390625q0.890625 0 1.625 -0.421875q0.75 -0.421875 1.171875 -1.125q0.4375 -0.703125 0.4375 -1.5625q0 -0.84375 -0.40625 -1.515625q-0.390625 -0.6875 -1.0625 -1.09375q-0.671875 -0.40625 -1.546875 -0.40625q-0.453125 0 -0.921875 0.109375q-0.46875 0.109375 -0.96875 0.328125q-0.484375 0.203125 -1.046875 0.515625l-0.828125 -1.09375l0.765625 -5.546875l7.046875 0l0 1.359375l-6.28125 0l0.46875 -0.328125l-0.6875 4.5625l-0.4375 -0.296875q0.296875 -0.234375 0.796875 -0.453125q0.515625 -0.234375 1.125 -0.375q0.609375 -0.140625 1.1875 -0.140625q1.203125 0 2.15625 0.5625q0.953125 0.546875 1.515625 1.515625q0.5625 0.953125 0.5625 2.203125q0 1.296875 -0.625 2.34375q-0.609375 1.03125 -1.671875 1.640625q-1.0625 0.59375 -2.390625 0.59375z" fill-rule="nonzero"/><path fill="#000000" d="m208.68884 278.44968q-1.203125 0 -2.203125 -0.515625q-1.0 -0.515625 -1.609375 -1.375q-0.59375 -0.875 -0.59375 -1.921875q0 -0.578125 0.171875 -1.09375q0.1875 -0.515625 0.53125 -0.953125q0.34375 -0.4375 0.84375 -0.796875q0.515625 -0.359375 1.171875 -0.625l-0.125 0.390625q-0.5 -0.15625 -0.90625 -0.421875q-0.40625 -0.28125 -0.6875 -0.640625q-0.28125 -0.375 -0.4375 -0.8125q-0.140625 -0.4375 -0.140625 -0.90625q0 -0.953125 0.53125 -1.734375q0.53125 -0.78125 1.4375 -1.25q0.90625 -0.46875 2.015625 -0.46875q1.109375 0 2.015625 0.46875q0.90625 0.46875 1.4375 1.25q0.53125 0.78125 0.53125 1.734375q0 0.46875 -0.140625 0.90625q-0.140625 0.421875 -0.421875 0.78125q-0.28125 0.359375 -0.703125 0.640625q-0.421875 0.28125 -0.9375 0.453125l-0.0625 -0.3125q0.59375 0.203125 1.09375 0.5625q0.5 0.359375 0.84375 0.8125q0.359375 0.453125 0.546875 0.96875q0.203125 0.5 0.203125 1.046875q0 1.0625 -0.59375 1.9375q-0.578125 0.859375 -1.578125 1.375q-1.0 0.5 -2.234375 0.5zm0 -1.390625q0.84375 0 1.5 -0.328125q0.671875 -0.328125 1.046875 -0.875q0.390625 -0.5625 0.390625 -1.25q0 -0.71875 -0.390625 -1.265625q-0.375 -0.546875 -1.046875 -0.875q-0.65625 -0.328125 -1.5 -0.328125q-0.828125 0 -1.5 0.328125q-0.65625 0.328125 -1.046875 0.875q-0.375 0.546875 -0.375 1.265625q0 0.6875 0.375 1.234375q0.390625 0.546875 1.046875 0.890625q0.671875 0.328125 1.5 0.328125zm0 -6.171875q0.71875 0 1.28125 -0.25q0.5625 -0.265625 0.890625 -0.734375q0.328125 -0.46875 0.328125 -1.09375q0 -0.59375 -0.328125 -1.0625q-0.328125 -0.484375 -0.890625 -0.75q-0.5625 -0.28125 -1.28125 -0.28125q-0.71875 0 -1.296875 0.28125q-0.5625 0.265625 -0.890625 0.75q-0.328125 0.46875 -0.328125 1.0625q0 0.609375 0.328125 1.09375q0.328125 0.46875 0.890625 0.734375q0.578125 0.25 1.296875 0.25z" fill-rule="nonzero"/><path fill="#000000" fill-opacity="0.0" d="m4.6981626 94.67465l0 0c0 -3.139824 2.54533 -5.68515 5.6851535 -5.68515l271.7163 0c1.5078125 0 2.9538574 0.5989685 4.0200195 1.6651459c1.0661926 1.0661697 1.6651611 2.512207 1.6651611 4.0200043l0 22.73993c0 3.139824 -2.5453491 5.685158 -5.6851807 5.685158l-271.7163 0c-3.1398234 0 -5.6851535 -2.5453339 -5.6851535 -5.685158z" fill-rule="evenodd"/><path stroke="#e49e0d" stroke-width="3.0" stroke-linejoin="round" stroke-linecap="butt" d="m4.6981626 94.67465l0 0c0 -3.139824 2.54533 -5.68515 5.6851535 -5.68515l271.7163 0c1.5078125 0 2.9538574 0.5989685 4.0200195 1.6651459c1.0661926 1.0661697 1.6651611 2.512207 1.6651611 4.0200043l0 22.73993c0 3.139824 -2.5453491 5.685158 -5.6851807 5.685158l-271.7163 0c-3.1398234 0 -5.6851535 -2.5453339 -5.6851535 -5.685158z" fill-rule="evenodd"/><path fill="#000000" fill-opacity="0.0" d="m4.6981626 135.92924l0 0c0 -3.1398163 2.54533 -5.68515 5.6851535 -5.68515l271.7163 0c1.5078125 0 2.9538574 0.5989685 4.0200195 1.6651459c1.0661926 1.0661621 1.6651611 2.512207 1.6651611 4.0200043l0 22.73993c0 3.1398315 -2.5453491 5.68515 -5.6851807 5.68515l-271.7163 0c-3.1398234 0 -5.6851535 -2.5453186 -5.6851535 -5.68515z" fill-rule="evenodd"/><path stroke="#669900" stroke-width="3.0" stroke-linejoin="round" stroke-linecap="butt" d="m4.6981626 135.92924l0 0c0 -3.1398163 2.54533 -5.68515 5.6851535 -5.68515l271.7163 0c1.5078125 0 2.9538574 0.5989685 4.0200195 1.6651459c1.0661926 1.0661621 1.6651611 2.512207 1.6651611 4.0200043l0 22.73993c0 3.1398315 -2.5453491 5.68515 -5.6851807 5.68515l-271.7163 0c-3.1398234 0 -5.6851535 -2.5453186 -5.6851535 -5.68515z" fill-rule="evenodd"/><path fill="#000000" fill-opacity="0.0" d="m4.6981626 177.18384l0 0c0 -3.1398163 2.54533 -5.68515 5.6851535 -5.68515l271.7163 0c1.5078125 0 2.9538574 0.5989685 4.0200195 1.6651459c1.0661926 1.0661774 1.6651611 2.512207 1.6651611 4.0200043l0 22.73993c0 3.1398315 -2.5453491 5.68515 -5.6851807 5.68515l-271.7163 0c-3.1398234 0 -5.6851535 -2.5453186 -5.6851535 -5.68515z" fill-rule="evenodd"/><path stroke="#0395ba" stroke-width="3.0" stroke-linejoin="round" stroke-linecap="butt" d="m4.6981626 177.18384l0 0c0 -3.1398163 2.54533 -5.68515 5.6851535 -5.68515l271.7163 0c1.5078125 0 2.9538574 0.5989685 4.0200195 1.6651459c1.0661926 1.0661774 1.6651611 2.512207 1.6651611 4.0200043l0 22.73993c0 3.1398315 -2.5453491 5.68515 -5.6851807 5.68515l-271.7163 0c-3.1398234 0 -5.6851535 -2.5453186 -5.6851535 -5.68515z" fill-rule="evenodd"/><path fill="#000000" fill-opacity="0.0" d="m4.6981626 218.43843l0 0c0 -3.1398163 2.54533 -5.68515 5.6851535 -5.68515l271.7163 0c1.5078125 0 2.9538574 0.5989685 4.0200195 1.6651459c1.0661926 1.0661774 1.6651611 2.512207 1.6651611 4.0200043l0 22.73993c0 3.1398315 -2.5453491 5.68515 -5.6851807 5.68515l-271.7163 0c-3.1398234 0 -5.6851535 -2.5453186 -5.6851535 -5.68515z" fill-rule="evenodd"/><path stroke="#990055" stroke-width="3.0" stroke-linejoin="round" stroke-linecap="butt" d="m4.6981626 218.43843l0 0c0 -3.1398163 2.54533 -5.68515 5.6851535 -5.68515l271.7163 0c1.5078125 0 2.9538574 0.5989685 4.0200195 1.6651459c1.0661926 1.0661774 1.6651611 2.512207 1.6651611 4.0200043l0 22.73993c0 3.1398315 -2.5453491 5.68515 -5.6851807 5.68515l-271.7163 0c-3.1398234 0 -5.6851535 -2.5453186 -5.6851535 -5.68515z" fill-rule="evenodd"/><path fill="#000000" fill-opacity="0.0" d="m4.6981626 259.69302l0 0c0 -3.1398315 2.54533 -5.68515 5.6851535 -5.68515l271.7163 0c1.5078125 0 2.9538574 0.5989685 4.0200195 1.6651459c1.0661926 1.0661774 1.6651611 2.5122223 1.6651611 4.0200043l0 22.73993c0 3.1398315 -2.5453491 5.68515 -5.6851807 5.68515l-271.7163 0c-3.1398234 0 -5.6851535 -2.5453186 -5.6851535 -5.68515z" fill-rule="evenodd"/><path stroke="#ff00ff" stroke-width="3.0" stroke-linejoin="round" stroke-linecap="butt" d="m4.6981626 259.69302l0 0c0 -3.1398315 2.54533 -5.68515 5.6851535 -5.68515l271.7163 0c1.5078125 0 2.9538574 0.5989685 4.0200195 1.6651459c1.0661926 1.0661774 1.6651611 2.5122223 1.6651611 4.0200043l0 22.73993c0 3.1398315 -2.5453491 5.68515 -5.6851807 5.68515l-271.7163 0c-3.1398234 0 -5.6851535 -2.5453186 -5.6851535 -5.68515z" fill-rule="evenodd"/><path fill="#000000" fill-opacity="0.0" d="m523.8635 353.93964l0 -350.58267" fill-rule="evenodd"/><path stroke="#595959" stroke-width="1.0" stroke-linejoin="round" stroke-linecap="butt" stroke-dasharray="1.0,3.0" d="m523.8635 353.93964l0 -350.58267" fill-rule="evenodd"/><path fill="#000000" fill-opacity="0.0" d="m610.94226 353.93964l0 -350.58267" fill-rule="evenodd"/><path stroke="#595959" stroke-width="1.0" stroke-linejoin="round" stroke-linecap="butt" stroke-dasharray="1.0,3.0" d="m610.94226 353.93964l0 -350.58267" fill-rule="evenodd"/><path fill="#000000" fill-opacity="0.0" d="m696.0945 353.93964l0 -350.58267" fill-rule="evenodd"/><path stroke="#595959" stroke-width="1.0" stroke-linejoin="round" stroke-linecap="butt" stroke-dasharray="1.0,3.0" d="m696.0945 353.93964l0 -350.58267" fill-rule="evenodd"/><path fill="#000000" fill-opacity="0.0" d="m695.22833 271.063l-252.59842 0" fill-rule="evenodd"/><path stroke="#595959" stroke-width="1.0" stroke-linejoin="round" stroke-linecap="butt" stroke-dasharray="1.0,3.0" d="m695.22833 271.063l-252.59842 0" fill-rule="evenodd"/><path fill="#000000" fill-opacity="0.0" d="m695.22833 188.86351l-252.59842 0" fill-rule="evenodd"/><path stroke="#595959" stroke-width="1.0" stroke-linejoin="round" stroke-linecap="butt" stroke-dasharray="1.0,3.0" d="m695.22833 188.86351l-252.59842 0" fill-rule="evenodd"/><path fill="#000000" fill-opacity="0.0" d="m694.73755 106.66404l-252.59845 0" fill-rule="evenodd"/><path stroke="#595959" stroke-width="1.0" stroke-linejoin="round" stroke-linecap="butt" stroke-dasharray="1.0,3.0" d="m694.73755 106.66404l-252.59845 0" fill-rule="evenodd"/><path fill="#000000" fill-opacity="0.0" d="m694.73755 24.464567l-252.59845 0" fill-rule="evenodd"/><path stroke="#595959" stroke-width="1.0" stroke-linejoin="round" stroke-linecap="butt" stroke-dasharray="1.0,3.0" d="m694.73755 24.464567l-252.59845 0" fill-rule="evenodd"/><path fill="#000000" fill-opacity="0.0" d="m507.64304 352.63254l32.44095 0l0 28.37796l-32.44095 0z" fill-rule="evenodd"/><path fill="#595959" d="m521.26807 373.45465l0 -12.109375l0.796875 0.59375l-2.953125 1.5625l-0.609375 -2.015625l3.984375 -2.125l1.109375 0l0 14.09375l-2.328125 0zm-2.359375 1.046875l0 -2.21875l7.125 0l0 2.21875l-7.125 0z" fill-rule="nonzero"/><path fill="#000000" fill-opacity="0.0" d="m593.75854 353.26248l32.440918 0l0 28.37793l-32.440918 0z" fill-rule="evenodd"/><path fill="#595959" d="m604.7429 375.13144l-0.703125 -1.75l4.5625 -5.140625q0.359375 -0.375 0.75 -0.875q0.40625 -0.515625 0.765625 -1.046875q0.359375 -0.53125 0.578125 -1.046875q0.234375 -0.53125 0.234375 -1.0q0 -0.671875 -0.265625 -1.15625q-0.265625 -0.484375 -0.765625 -0.734375q-0.5 -0.265625 -1.21875 -0.265625q-0.609375 0 -1.21875 0.375q-0.59375 0.359375 -1.078125 1.015625q-0.484375 0.65625 -0.765625 1.53125l-1.765625 -1.109375q0.359375 -1.234375 1.09375 -2.109375q0.734375 -0.890625 1.765625 -1.359375q1.03125 -0.46875 2.25 -0.46875q1.265625 0 2.234375 0.53125q0.984375 0.515625 1.53125 1.4375q0.5625 0.921875 0.5625 2.140625q0 0.5 -0.109375 1.015625q-0.09375 0.5 -0.328125 1.046875q-0.234375 0.546875 -0.609375 1.140625q-0.359375 0.578125 -0.859375 1.21875q-0.5 0.640625 -1.140625 1.34375l-3.390625 3.6875l-0.421875 -0.640625l7.328125 0l0 2.21875l-9.015625 0z" fill-rule="nonzero"/><path fill="#000000" fill-opacity="0.0" d="m679.874 352.63254l32.440918 0l0 28.37796l-32.440918 0z" fill-rule="evenodd"/><path fill="#595959" d="m694.2334 374.72028q-1.578125 0 -2.75 -0.71875q-1.15625 -0.734375 -2.1875 -2.4375l1.796875 -1.140625q0.53125 0.796875 1.046875 1.296875q0.53125 0.5 1.078125 0.734375q0.5625 0.234375 1.1875 0.234375q0.734375 0 1.375 -0.375q0.640625 -0.375 1.015625 -1.03125q0.390625 -0.65625 0.390625 -1.5q0 -0.828125 -0.296875 -1.40625q-0.296875 -0.59375 -0.875 -0.90625q-0.578125 -0.3125 -1.359375 -0.3125q-0.359375 0 -0.765625 0.078125q-0.390625 0.078125 -0.84375 0.21875q-0.4375 0.140625 -0.96875 0.34375l-0.640625 -1.671875l4.609375 -5.078125l0.4375 0.65625l-6.34375 0l0 -2.140625l8.546875 0l0.421875 0.859375l-4.875 5.421875l-0.546875 -0.5625q0.171875 -0.078125 0.5625 -0.15625q0.40625 -0.078125 0.65625 -0.078125q0.9375 0 1.75 0.359375q0.828125 0.34375 1.4375 0.984375q0.609375 0.625 0.953125 1.46875q0.359375 0.84375 0.359375 1.796875q0 1.453125 -0.6875 2.59375q-0.6875 1.140625 -1.875 1.8125q-1.171875 0.65625 -2.609375 0.65625z" fill-rule="nonzero"/><path fill="#000000" fill-opacity="0.0" d="m410.18896 256.55905l32.44095 0l0 28.37796l-32.44095 0z" fill-rule="evenodd"/><path fill="#595959" d="m421.17334 278.42804l-0.703125 -1.75l4.5625 -5.140625q0.359375 -0.375 0.75 -0.875q0.40625 -0.515625 0.765625 -1.046875q0.359375 -0.53125 0.578125 -1.046875q0.234375 -0.53125 0.234375 -1.0q0 -0.671875 -0.265625 -1.15625q-0.265625 -0.484375 -0.765625 -0.734375q-0.5 -0.265625 -1.21875 -0.265625q-0.609375 0 -1.21875 0.375q-0.59375 0.359375 -1.078125 1.015625q-0.484375 0.65625 -0.765625 1.53125l-1.765625 -1.109375q0.359375 -1.234375 1.09375 -2.109375q0.734375 -0.890625 1.765625 -1.359375q1.03125 -0.46875 2.25 -0.46875q1.265625 0 2.234375 0.53125q0.984375 0.515625 1.53125 1.4375q0.5625 0.921875 0.5625 2.140625q0 0.5 -0.109375 1.015625q-0.09375 0.5 -0.328125 1.046875q-0.234375 0.546875 -0.609375 1.140625q-0.359375 0.578125 -0.859375 1.21875q-0.5 0.640625 -1.140625 1.34375l-3.390625 3.6875l-0.421875 -0.640625l7.328125 0l0 2.21875l-9.015625 0z" fill-rule="nonzero"/><path fill="#000000" fill-opacity="0.0" d="m410.18896 174.67455l32.44095 0l0 28.377945l-32.44095 0z" fill-rule="evenodd"/><path fill="#595959" d="m426.68896 196.54352l0 -12.03125l0.546875 0.125l-4.90625 6.0l-0.09375 -0.25l9.28125 0l0 2.109375l-10.703125 0l-0.984375 -1.921875l7.3125 -8.96875l1.765625 0l0 14.9375l-2.21875 0z" fill-rule="nonzero"/><path fill="#000000" fill-opacity="0.0" d="m408.34122 92.79002l32.44095 0l0 28.377953l-32.44095 0z" fill-rule="evenodd"/><path fill="#595959" d="m423.37247 114.659004q-1.109375 0 -2.0625 -0.390625q-0.9375 -0.40625 -1.640625 -1.109375q-0.6875 -0.703125 -1.078125 -1.65625q-0.390625 -0.953125 -0.390625 -2.109375q0 -0.578125 0.15625 -1.28125q0.15625 -0.71875 0.484375 -1.578125q0.328125 -0.859375 0.796875 -1.796875q0.46875 -0.953125 1.09375 -1.984375l1.9375 -3.28125l2.25 0l0.078125 0.21875l-2.34375 3.9375q-0.640625 1.09375 -1.140625 2.078125q-0.5 0.96875 -0.84375 1.84375q-0.34375 0.859375 -0.515625 1.5625l-0.515625 -2.1875q0.40625 -0.671875 0.875 -1.171875q0.46875 -0.5 1.015625 -0.84375q0.546875 -0.34375 1.140625 -0.5q0.59375 -0.171875 1.234375 -0.171875q1.25 0 2.28125 0.671875q1.03125 0.671875 1.65625 1.78125q0.640625 1.09375 0.640625 2.421875q0 1.59375 -0.65625 2.84375q-0.65625 1.25 -1.8125 1.984375q-1.140625 0.71875 -2.640625 0.71875zm0 -2.140625q0.84375 0 1.484375 -0.390625q0.65625 -0.390625 1.03125 -1.09375q0.375 -0.71875 0.375 -1.640625q0 -0.796875 -0.390625 -1.484375q-0.390625 -0.6875 -1.03125 -1.109375q-0.625 -0.4375 -1.421875 -0.4375q-0.875 0 -1.5625 0.40625q-0.671875 0.40625 -1.0625 1.09375q-0.375 0.671875 -0.375 1.5q0 0.90625 0.375 1.625q0.390625 0.703125 1.046875 1.125q0.65625 0.40625 1.53125 0.40625z" fill-rule="nonzero"/><path fill="#000000" fill-opacity="0.0" d="m410.18896 10.905512l32.44095 0l0 28.377954l-32.44095 0z" fill-rule="evenodd"/><path fill="#595959" d="m425.3452 32.836987q-1.375 0 -2.515625 -0.578125q-1.140625 -0.5937481 -1.828125 -1.5781231q-0.6875 -0.984375 -0.6875 -2.171875q0 -0.65625 0.1875 -1.234375q0.1875 -0.59375 0.546875 -1.078125q0.375 -0.5 0.90625 -0.90625q0.546875 -0.40625 1.25 -0.734375l-0.140625 0.453125q-0.546875 -0.21875 -0.984375 -0.515625q-0.4375 -0.3125 -0.765625 -0.71875q-0.3125 -0.40625 -0.46875 -0.875q-0.15625 -0.46875 -0.15625 -0.984375q0 -1.125 0.625 -2.046875q0.625 -0.921875 1.671875 -1.46875q1.0625 -0.5625 2.359375 -0.5625q1.3125 0 2.359375 0.5625q1.0625 0.546875 1.6875 1.46875q0.625 0.921875 0.625 2.046875q0 0.515625 -0.15625 0.984375q-0.15625 0.46875 -0.453125 0.859375q-0.296875 0.375 -0.765625 0.703125q-0.453125 0.3125 -1.03125 0.546875l-0.0625 -0.359375q0.640625 0.25 1.15625 0.65625q0.53125 0.40625 0.90625 0.921875q0.390625 0.515625 0.59375 1.09375q0.203125 0.5625 0.203125 1.1875q0 1.21875 -0.6875 2.203125q-0.671875 0.96875 -1.8125 1.5468731q-1.140625 0.578125 -2.5625 0.578125zm0 -2.124998q0.796875 0 1.421875 -0.296875q0.640625 -0.3125 1.0 -0.8125q0.359375 -0.515625 0.359375 -1.171875q0 -0.71875 -0.359375 -1.25q-0.359375 -0.546875 -1.0 -0.859375q-0.625 -0.328125 -1.421875 -0.328125q-0.78125 0 -1.40625 0.328125q-0.609375 0.3125 -0.984375 0.859375q-0.359375 0.53125 -0.359375 1.25q0 0.625 0.359375 1.140625q0.375 0.515625 0.984375 0.828125q0.625 0.3125 1.40625 0.3125zm0 -6.765625q0.6875 0 1.234375 -0.25q0.546875 -0.265625 0.84375 -0.703125q0.3125 -0.4375 0.3125 -1.015625q0 -0.578125 -0.3125 -1.015625q-0.296875 -0.453125 -0.84375 -0.71875q-0.546875 -0.265625 -1.234375 -0.265625q-0.671875 0 -1.21875 0.265625q-0.546875 0.265625 -0.859375 0.71875q-0.296875 0.4375 -0.296875 1.015625q0 0.578125 0.296875 1.015625q0.3125 0.4375 0.859375 0.703125q0.546875 0.25 1.21875 0.25z" fill-rule="nonzero"/><path fill="#000000" fill-opacity="0.0" d="m694.73755 311.38583l-252.59845 0" fill-rule="evenodd"/><path stroke="#595959" stroke-width="1.0" stroke-linejoin="round" stroke-linecap="butt" stroke-dasharray="1.0,3.0" d="m694.73755 311.38583l-252.59845 0" fill-rule="evenodd"/><path fill="#000000" fill-opacity="0.0" d="m694.73755 230.08923l-252.59845 0" fill-rule="evenodd"/><path stroke="#595959" stroke-width="1.0" stroke-linejoin="round" stroke-linecap="butt" stroke-dasharray="1.0,3.0" d="m694.73755 230.08923l-252.59845 0" fill-rule="evenodd"/><path fill="#000000" fill-opacity="0.0" d="m695.2192 148.79265l-252.59845 0" fill-rule="evenodd"/><path stroke="#595959" stroke-width="1.0" stroke-linejoin="round" stroke-linecap="butt" stroke-dasharray="1.0,3.0" d="m695.2192 148.79265l-252.59845 0" fill-rule="evenodd"/><path fill="#000000" fill-opacity="0.0" d="m695.2192 63.440945l-252.59845 0" fill-rule="evenodd"/><path stroke="#595959" stroke-width="1.0" stroke-linejoin="round" stroke-linecap="butt" stroke-dasharray="1.0,3.0" d="m695.2192 63.440945l-252.59845 0" fill-rule="evenodd"/><path fill="#ffab40" d="m474.89633 229.96326l0 0c0 -4.609619 3.7368164 -8.346466 8.346436 -8.346466l0 0c2.213623 0 4.3365784 0.879364 5.9018555 2.4446259c1.5652466 1.5652618 2.4446106 3.6882172 2.4446106 5.90184l0 0c0 4.609619 -3.7368164 8.346451 -8.346466 8.346451l0 0c-4.609619 0 -8.346436 -3.7368317 -8.346436 -8.346451z" fill-rule="evenodd"/><path fill="#669900" d="m515.51575 270.73752l0 0c0 -4.609619 3.7368164 -8.346436 8.346436 -8.346436l0 0c2.213623 0 4.336609 0.879364 5.9018555 2.4446106c1.5652466 1.5652771 2.444641 3.6882324 2.444641 5.901825l0 0c0 4.6096497 -3.7368774 8.346466 -8.346497 8.346466l0 0c-4.609619 0 -8.346436 -3.7368164 -8.346436 -8.346466z" fill-rule="evenodd"/><path fill="#4285f4" d="m561.01447 189.44095l0 0c0 -4.609619 3.7368164 -8.346466 8.346436 -8.346466l0 0c2.213623 0 4.336548 0.879364 5.9018555 2.4446259c1.5652466 1.5652618 2.44458 3.6882172 2.44458 5.90184l0 0c0 4.609619 -3.7368164 8.346451 -8.346436 8.346451l0 0c-4.609619 0 -8.346436 -3.7368317 -8.346436 -8.346451z" fill-rule="evenodd"/><path fill="#990055" d="m601.6312 106.1168l0 0c0 -4.609619 3.7368164 -8.346458 8.346436 -8.346458l0 0c2.213623 0 4.336609 0.8793564 5.9018555 2.4446182c1.5652466 1.5652695 2.444641 3.6882248 2.444641 5.90184l0 0c0 4.609619 -3.7368164 8.346458 -8.346497 8.346458l0 0c-4.609619 0 -8.346436 -3.7368393 -8.346436 -8.346458z" fill-rule="evenodd"/><path fill="#ff00ff" d="m645.1706 24.464567l0 0c0 -4.609621 3.7368164 -8.346457 8.346497 -8.346457l0 0c2.213562 0 4.336548 0.8793564 5.9017944 2.4446201c1.5652466 1.5652637 2.444641 3.688219 2.444641 5.9018364l0 0c0 4.609621 -3.7368164 8.346457 -8.346436 8.346457l0 0c-4.60968 0 -8.346497 -3.7368355 -8.346497 -8.346457z" fill-rule="evenodd"/><path fill="#000000" fill-opacity="0.0" d="m475.6168 388.73227l225.9213 0l0 16.063019l-225.9213 0z" fill-rule="evenodd"/><path fill="#000000" fill-opacity="0.0" d="m471.66403 384.46194l225.9213 0l0 16.062988l-225.9213 0z" fill-rule="evenodd"/><path fill="#78909c" d="m504.86752 399.40094q-1.359375 0 -2.5 -0.484375q-1.140625 -0.484375 -1.984375 -1.390625q-0.828125 -0.90625 -1.296875 -2.140625q-0.453125 -1.234375 -0.453125 -2.703125q0 -1.390625 0.5 -2.59375q0.5 -1.203125 1.375 -2.109375q0.875 -0.921875 2.03125 -1.421875q1.15625 -0.515625 2.5 -0.515625q0.953125 0 1.859375 0.296875q0.90625 0.28125 1.640625 0.796875q0.734375 0.515625 1.203125 1.171875l-1.34375 1.390625q-0.546875 -0.546875 -1.09375 -0.90625q-0.546875 -0.359375 -1.125 -0.546875q-0.5625 -0.1875 -1.140625 -0.1875q-0.921875 0 -1.71875 0.34375q-0.78125 0.34375 -1.375 0.96875q-0.578125 0.609375 -0.921875 1.46875q-0.328125 0.84375 -0.328125 1.84375q0 1.0625 0.3125 1.9375q0.328125 0.859375 0.921875 1.484375q0.609375 0.609375 1.4375 0.9375q0.828125 0.328125 1.84375 0.328125q0.609375 0 1.203125 -0.171875q0.59375 -0.171875 1.109375 -0.484375q0.53125 -0.3125 0.96875 -0.75l1.0 1.640625q-0.421875 0.515625 -1.171875 0.921875q-0.734375 0.40625 -1.640625 0.640625q-0.890625 0.234375 -1.8125 0.234375zm11.292633 0q-1.4375 0 -2.578125 -0.65625q-1.125 -0.671875 -1.7812805 -1.8125q-0.640625 -1.15625 -0.640625 -2.625q0 -1.46875 0.640625 -2.609375q0.6562805 -1.15625 1.7812805 -1.8125q1.140625 -0.671875 2.578125 -0.671875q1.40625 0 2.53125 0.671875q1.140625 0.65625 1.796875 1.8125q0.65625 1.140625 0.65625 2.609375q0 1.46875 -0.65625 2.625q-0.65625 1.140625 -1.796875 1.8125q-1.125 0.65625 -2.53125 0.65625zm0 -1.75q0.875 0 1.5625 -0.4375q0.6875 -0.4375 1.078125 -1.1875q0.390625 -0.765625 0.375 -1.71875q0.015625 -0.96875 -0.375 -1.71875q-0.390625 -0.765625 -1.078125 -1.1875q-0.6875 -0.4375 -1.5625 -0.4375q-0.875 0 -1.578125 0.4375q-0.703125 0.4375 -1.09375 1.203125q-0.390625 0.75 -0.375 1.703125q-0.015625 0.953125 0.375 1.71875q0.390625 0.75 1.09375 1.1875q0.703125 0.4375 1.578125 0.4375zm7.036072 1.5625l0 -9.796875l1.9375 0l0 2.09375l-0.359375 0.21875q0.15625 -0.484375 0.46875 -0.921875q0.328125 -0.453125 0.796875 -0.796875q0.484375 -0.34375 1.03125 -0.546875q0.5625 -0.21875 1.140625 -0.21875q0.828125 0 1.46875 0.28125q0.640625 0.28125 1.046875 0.84375q0.40625 0.5625 0.59375 1.40625l-0.296875 -0.078125l0.125 -0.3125q0.21875 -0.4375 0.578125 -0.8125q0.359375 -0.390625 0.828125 -0.6875q0.46875 -0.296875 0.984375 -0.46875q0.53125 -0.171875 1.03125 -0.171875q1.09375 0 1.8125 0.453125q0.71875 0.453125 1.078125 1.375q0.375 0.90625 0.375 2.265625l0 5.875l-1.9375 0l0 -5.765625q0 -0.84375 -0.21875 -1.375q-0.21875 -0.53125 -0.65625 -0.78125q-0.421875 -0.265625 -1.09375 -0.265625q-0.515625 0 -0.984375 0.1875q-0.453125 0.171875 -0.796875 0.484375q-0.328125 0.3125 -0.515625 0.734375q-0.171875 0.421875 -0.171875 0.921875l0 5.859375l-1.953125 0l0 -5.796875q0 -0.765625 -0.21875 -1.296875q-0.21875 -0.53125 -0.65625 -0.8125q-0.421875 -0.28125 -1.046875 -0.28125q-0.515625 0 -0.96875 0.1875q-0.4375 0.171875 -0.78125 0.484375q-0.328125 0.296875 -0.515625 0.71875q-0.1875 0.421875 -0.1875 0.90625l0 5.890625l-1.9375 0zm17.182434 0l0 -9.796875l1.9375 0l0 2.09375l-0.359375 0.21875q0.15625 -0.484375 0.46875 -0.921875q0.328125 -0.453125 0.796875 -0.796875q0.484375 -0.34375 1.03125 -0.546875q0.5625 -0.21875 1.140625 -0.21875q0.828125 0 1.46875 0.28125q0.640625 0.28125 1.046875 0.84375q0.40625 0.5625 0.59375 1.40625l-0.296875 -0.078125l0.125 -0.3125q0.21875 -0.4375 0.578125 -0.8125q0.359375 -0.390625 0.828125 -0.6875q0.46875 -0.296875 0.984375 -0.46875q0.53125 -0.171875 1.03125 -0.171875q1.09375 0 1.8125 0.453125q0.71875 0.453125 1.078125 1.375q0.375 0.90625 0.375 2.265625l0 5.875l-1.9375 0l0 -5.765625q0 -0.84375 -0.21875 -1.375q-0.21875 -0.53125 -0.65625 -0.78125q-0.421875 -0.265625 -1.09375 -0.265625q-0.515625 0 -0.984375 0.1875q-0.453125 0.171875 -0.796875 0.484375q-0.328125 0.3125 -0.515625 0.734375q-0.171875 0.421875 -0.171875 0.921875l0 5.859375l-1.953125 0l0 -5.796875q0 -0.765625 -0.21875 -1.296875q-0.21875 -0.53125 -0.65625 -0.8125q-0.421875 -0.28125 -1.046875 -0.28125q-0.515625 0 -0.96875 0.1875q-0.4375 0.171875 -0.78125 0.484375q-0.328125 0.296875 -0.515625 0.71875q-0.1875 0.421875 -0.1875 0.90625l0 5.890625l-1.9375 0zm20.651123 0.1875q-1.046875 0 -1.828125 -0.484375q-0.765625 -0.484375 -1.1875 -1.359375q-0.421875 -0.875 -0.421875 -2.09375l0 -6.046875l1.921875 0l0 5.53125q0 0.84375 0.265625 1.46875q0.28125 0.625 0.78125 0.96875q0.515625 0.328125 1.25 0.328125q0.53125 0 0.984375 -0.171875q0.453125 -0.171875 0.78125 -0.484375q0.328125 -0.328125 0.5 -0.765625q0.1875 -0.453125 0.1875 -0.984375l0 -5.890625l1.921875 0l0 9.796875l-1.921875 0l0 -2.046875l0.34375 -0.234375q-0.21875 0.703125 -0.75 1.265625q-0.53125 0.546875 -1.265625 0.875q-0.734375 0.328125 -1.5625 0.328125zm9.068298 -0.1875l0 -12.296875l1.921875 0l0 12.296875l-1.921875 0zm-2.046875 -7.921875l0 -1.875l6.234375 0l0 1.875l-6.234375 0zm12.461304 8.109375q-1.5 0 -2.671875 -0.640625q-1.15625 -0.640625 -1.828125 -1.765625q-0.65625 -1.125 -0.65625 -2.578125q0 -1.15625 0.375 -2.109375q0.375 -0.953125 1.03125 -1.640625q0.65625 -0.703125 1.578125 -1.078125q0.9375 -0.390625 2.015625 -0.390625q0.953125 0 1.765625 0.359375q0.828125 0.359375 1.421875 1.0q0.609375 0.640625 0.9375 1.515625q0.328125 0.859375 0.3125 1.875l-0.015625 0.828125l-8.0 0l-0.4375 -1.53125l6.765625 0l-0.265625 0.3125l0 -0.4375q-0.0625 -0.625 -0.421875 -1.109375q-0.34375 -0.484375 -0.890625 -0.765625q-0.546875 -0.28125 -1.171875 -0.28125q-1.015625 0 -1.703125 0.390625q-0.6875 0.375 -1.046875 1.125q-0.34375 0.734375 -0.34375 1.8125q0 1.015625 0.421875 1.78125q0.421875 0.75 1.203125 1.171875q0.796875 0.40625 1.8125 0.40625q0.734375 0 1.359375 -0.234375q0.625 -0.25 1.359375 -0.890625l0.96875 1.359375q-0.453125 0.453125 -1.09375 0.796875q-0.640625 0.328125 -1.359375 0.53125q-0.71875 0.1875 -1.421875 0.1875zm12.078186 -0.1875l0 -13.0625l5.109375 0q1.40625 0 2.53125 0.46875q1.125 0.46875 1.921875 1.34375q0.8125 0.875 1.234375 2.078125q0.4375 1.1875 0.4375 2.640625q0 1.453125 -0.4375 2.65625q-0.421875 1.203125 -1.21875 2.078125q-0.796875 0.859375 -1.9375 1.328125q-1.125 0.46875 -2.53125 0.46875l-5.109375 0zm2.015625 -1.734375l-0.0625 -0.203125l3.0625 0q0.984375 0 1.765625 -0.3125q0.78125 -0.328125 1.3125 -0.90625q0.53125 -0.59375 0.796875 -1.453125q0.28125 -0.859375 0.28125 -1.921875q0 -1.0625 -0.28125 -1.90625q-0.265625 -0.859375 -0.8125 -1.453125q-0.546875 -0.59375 -1.3125 -0.90625q-0.765625 -0.328125 -1.75 -0.328125l-3.109375 0l0.109375 -0.15625l0 9.546875zm11.767395 1.734375l0 -9.796875l1.921875 0l0 9.796875l-1.921875 0zm0.9375 -11.953125q-0.609375 0 -0.953125 -0.3125q-0.328125 -0.328125 -0.328125 -0.90625q0 -0.546875 0.34375 -0.875q0.34375 -0.34375 0.9375 -0.34375q0.609375 0 0.9375 0.328125q0.34375 0.3125 0.34375 0.890625q0 0.546875 -0.34375 0.890625q-0.34375 0.328125 -0.9375 0.328125zm7.2020264 12.140625q-1.234375 0 -2.21875 -0.421875q-0.984375 -0.4375 -1.640625 -1.28125l1.296875 -1.109375q0.5625 0.640625 1.21875 0.9375q0.671875 0.28125 1.515625 0.28125q0.328125 0 0.609375 -0.078125q0.296875 -0.078125 0.515625 -0.25q0.21875 -0.171875 0.328125 -0.40625q0.109375 -0.234375 0.109375 -0.515625q0 -0.484375 -0.359375 -0.78125q-0.1875 -0.125 -0.59375 -0.28125q-0.390625 -0.15625 -1.03125 -0.328125q-1.078125 -0.28125 -1.765625 -0.625q-0.6875 -0.359375 -1.0625 -0.8125q-0.28125 -0.359375 -0.421875 -0.765625q-0.125 -0.421875 -0.125 -0.9375q0 -0.609375 0.265625 -1.125q0.28125 -0.515625 0.75 -0.890625q0.484375 -0.390625 1.125 -0.59375q0.640625 -0.203125 1.375 -0.203125q0.6875 0 1.359375 0.1875q0.6875 0.1875 1.265625 0.546875q0.578125 0.34375 0.96875 0.828125l-1.09375 1.21875q-0.359375 -0.359375 -0.78125 -0.625q-0.421875 -0.265625 -0.859375 -0.40625q-0.421875 -0.15625 -0.765625 -0.15625q-0.390625 0 -0.71875 0.078125q-0.3125 0.0625 -0.53125 0.21875q-0.203125 0.140625 -0.328125 0.375q-0.109375 0.21875 -0.109375 0.5q0.015625 0.234375 0.125 0.453125q0.109375 0.21875 0.296875 0.359375q0.203125 0.15625 0.609375 0.328125q0.40625 0.15625 1.046875 0.3125q0.921875 0.234375 1.53125 0.53125q0.609375 0.28125 0.96875 0.65625q0.375 0.359375 0.515625 0.828125q0.15625 0.46875 0.15625 1.046875q0 0.828125 -0.484375 1.5q-0.46875 0.65625 -1.28125 1.03125q-0.796875 0.375 -1.78125 0.375zm6.8894653 -0.1875l0 -12.296875l1.921875 0l0 12.296875l-1.921875 0zm-2.046875 -7.921875l0 -1.875l6.234375 0l0 1.875l-6.234375 0zm8.773376 8.125q-0.609375 0 -0.953125 -0.359375q-0.328125 -0.359375 -0.328125 -1.03125q0 -0.625 0.34375 -1.015625q0.359375 -0.390625 0.9375 -0.390625q0.625 0 0.953125 0.375q0.34375 0.359375 0.34375 1.03125q0 0.609375 -0.359375 1.0q-0.359375 0.390625 -0.9375 0.390625zm12.758667 3.265625q-2.265625 -1.421875 -3.46875 -3.546875q-1.1875 -2.125 -1.1875 -4.734375q0 -2.59375 1.203125 -4.71875q1.203125 -2.140625 3.46875 -3.5625l1.03125 1.15625q-1.90625 1.328125 -2.90625 3.171875q-0.984375 1.828125 -0.984375 3.953125q0 2.125 0.984375 3.96875q1.0 1.828125 2.90625 3.15625l-1.046875 1.15625zm2.734436 -3.46875l0 -9.796875l1.9375 0l0 2.09375l-0.359375 0.21875q0.15625 -0.484375 0.46875 -0.921875q0.328125 -0.453125 0.796875 -0.796875q0.484375 -0.34375 1.03125 -0.546875q0.5625 -0.21875 1.140625 -0.21875q0.828125 0 1.46875 0.28125q0.640625 0.28125 1.046875 0.84375q0.40625 0.5625 0.59375 1.40625l-0.296875 -0.078125l0.125 -0.3125q0.21875 -0.4375 0.578125 -0.8125q0.359375 -0.390625 0.828125 -0.6875q0.46875 -0.296875 0.984375 -0.46875q0.53125 -0.171875 1.03125 -0.171875q1.09375 0 1.8125 0.453125q0.71875 0.453125 1.078125 1.375q0.375 0.90625 0.375 2.265625l0 5.875l-1.9375 0l0 -5.765625q0 -0.84375 -0.21875 -1.375q-0.21875 -0.53125 -0.65625 -0.78125q-0.421875 -0.265625 -1.09375 -0.265625q-0.515625 0 -0.984375 0.1875q-0.453125 0.171875 -0.796875 0.484375q-0.328125 0.3125 -0.515625 0.734375q-0.171875 0.421875 -0.171875 0.921875l0 5.859375l-1.953125 0l0 -5.796875q0 -0.765625 -0.21875 -1.296875q-0.21875 -0.53125 -0.65625 -0.8125q-0.421875 -0.28125 -1.046875 -0.28125q-0.515625 0 -0.96875 0.1875q-0.4375 0.171875 -0.78125 0.484375q-0.328125 0.296875 -0.515625 0.71875q-0.1875 0.421875 -0.1875 0.90625l0 5.890625l-1.9375 0zm17.526123 0l0 -9.796875l1.921875 0l0 9.796875l-1.921875 0zm0.9375 -11.953125q-0.609375 0 -0.953125 -0.3125q-0.328125 -0.328125 -0.328125 -0.90625q0 -0.546875 0.34375 -0.875q0.34375 -0.34375 0.9375 -0.34375q0.609375 0 0.9375 0.328125q0.34375 0.3125 0.34375 0.890625q0 0.546875 -0.34375 0.890625q-0.34375 0.328125 -0.9375 0.328125zm3.9989624 15.421875l-1.03125 -1.15625q1.90625 -1.328125 2.890625 -3.15625q1.0 -1.84375 1.0 -3.96875q0 -2.125 -1.0 -3.953125q-0.984375 -1.84375 -2.890625 -3.171875l1.046875 -1.15625q2.265625 1.421875 3.453125 3.546875q1.203125 2.125 1.203125 4.734375q0 2.59375 -1.203125 4.734375q-1.203125 2.125 -3.46875 3.546875z" fill-rule="nonzero"/><path fill="#000000" fill-opacity="0.0" d="m393.61942 291.60892l0 -225.92125l16.062988 0l0 225.92125z" fill-rule="evenodd"/><path fill="#78909c" d="m408.5584 268.35855q0 1.359375 -0.484375 2.5q-0.484375 1.140625 -1.390625 1.984375q-0.90625 0.828125 -2.140625 1.296875q-1.234375 0.453125 -2.703125 0.453125q-1.390625 0 -2.59375 -0.5q-1.203125 -0.5 -2.109375 -1.375q-0.921875 -0.875 -1.421875 -2.03125q-0.515625 -1.15625 -0.515625 -2.5q0 -0.953125 0.296875 -1.859375q0.28125 -0.90625 0.796875 -1.640625q0.515625 -0.734375 1.171875 -1.203125l1.390625 1.34375q-0.546875 0.546875 -0.90625 1.09375q-0.359375 0.546875 -0.546875 1.125q-0.1875 0.5625 -0.1875 1.140625q0 0.921875 0.34375 1.71875q0.34375 0.78125 0.96875 1.375q0.609375 0.578125 1.46875 0.921875q0.84375 0.328125 1.84375 0.328125q1.0625 0 1.9375 -0.3125q0.859375 -0.328125 1.484375 -0.921875q0.609375 -0.609375 0.9375 -1.4375q0.328125 -0.828125 0.328125 -1.84375q0 -0.609375 -0.171875 -1.203125q-0.171875 -0.59375 -0.484375 -1.109375q-0.3125 -0.53125 -0.75 -0.96875l1.640625 -1.0q0.515625 0.421875 0.921875 1.171875q0.40625 0.734375 0.640625 1.640625q0.234375 0.890625 0.234375 1.8125zm0 -11.292603q0 1.4375 -0.65625 2.578125q-0.671875 1.125 -1.8125 1.78125q-1.15625 0.640625 -2.625 0.640625q-1.46875 0 -2.609375 -0.640625q-1.15625 -0.65625 -1.8125 -1.78125q-0.671875 -1.140625 -0.671875 -2.578125q0 -1.4062653 0.671875 -2.5312653q0.65625 -1.140625 1.8125 -1.796875q1.140625 -0.65625 2.609375 -0.65625q1.46875 0 2.625 0.65625q1.140625 0.65625 1.8125 1.796875q0.65625 1.125 0.65625 2.5312653zm-1.75 0q0 -0.875 -0.4375 -1.5625153q-0.4375 -0.6875 -1.1875 -1.078125q-0.765625 -0.390625 -1.71875 -0.375q-0.96875 -0.015625 -1.71875 0.375q-0.765625 0.390625 -1.1875 1.078125q-0.4375 0.68751526 -0.4375 1.5625153q0 0.875 0.4375 1.578125q0.4375 0.703125 1.203125 1.09375q0.75 0.390625 1.703125 0.375q0.953125 0.015625 1.71875 -0.375q0.75 -0.390625 1.1875 -1.09375q0.4375 -0.703125 0.4375 -1.578125zm1.5625 -7.0361176l-9.796875 0l0 -1.9375l2.09375 0l0.21875 0.359375q-0.484375 -0.15625 -0.921875 -0.46875q-0.453125 -0.328125 -0.796875 -0.796875q-0.34375 -0.484375 -0.546875 -1.03125q-0.21875 -0.5625 -0.21875 -1.140625q0 -0.828125 0.28125 -1.46875q0.28125 -0.640625 0.84375 -1.046875q0.5625 -0.40625 1.40625 -0.59375l-0.078125 0.296875l-0.3125 -0.125q-0.4375 -0.21875 -0.8125 -0.578125q-0.390625 -0.359375 -0.6875 -0.828125q-0.296875 -0.46875 -0.46875 -0.984375q-0.171875 -0.53125 -0.171875 -1.03125q0 -1.09375 0.453125 -1.8125q0.453125 -0.71875 1.375 -1.078125q0.90625 -0.375 2.265625 -0.375l5.875 0l0 1.9375l-5.765625 0q-0.84375 0 -1.375 0.21875q-0.53125 0.21875 -0.78125 0.65625q-0.265625 0.421875 -0.265625 1.09375q0 0.515625 0.1875 0.984375q0.171875 0.453125 0.484375 0.796875q0.3125 0.328125 0.734375 0.515625q0.421875 0.171875 0.921875 0.171875l5.859375 0l0 1.953125l-5.796875 0q-0.765625 0 -1.296875 0.21875q-0.53125 0.21875 -0.8125 0.65625q-0.28125 0.421875 -0.28125 1.046875q0 0.515625 0.1875 0.96875q0.171875 0.4375 0.484375 0.78125q0.296875 0.328125 0.71875 0.515625q0.421875 0.1875 0.90625 0.1875l5.890625 0l0 1.9375zm0 -17.182404l-9.796875 0l0 -1.9375l2.09375 0l0.21875 0.359375q-0.484375 -0.15625 -0.921875 -0.46875q-0.453125 -0.328125 -0.796875 -0.796875q-0.34375 -0.484375 -0.546875 -1.03125q-0.21875 -0.5625 -0.21875 -1.140625q0 -0.828125 0.28125 -1.46875q0.28125 -0.640625 0.84375 -1.046875q0.5625 -0.40625 1.40625 -0.59375l-0.078125 0.296875l-0.3125 -0.125q-0.4375 -0.21875 -0.8125 -0.578125q-0.390625 -0.359375 -0.6875 -0.828125q-0.296875 -0.46875 -0.46875 -0.984375q-0.171875 -0.53125 -0.171875 -1.03125q0 -1.09375 0.453125 -1.8125q0.453125 -0.71875 1.375 -1.078125q0.90625 -0.375 2.265625 -0.375l5.875 0l0 1.9375l-5.765625 0q-0.84375 0 -1.375 0.21875q-0.53125 0.21875 -0.78125 0.65625q-0.265625 0.421875 -0.265625 1.09375q0 0.515625 0.1875 0.984375q0.171875 0.453125 0.484375 0.796875q0.3125 0.328125 0.734375 0.515625q0.421875 0.171875 0.921875 0.171875l5.859375 0l0 1.953125l-5.796875 0q-0.765625 0 -1.296875 0.21875q-0.53125 0.21875 -0.8125 0.65625q-0.28125 0.421875 -0.28125 1.046875q0 0.515625 0.1875 0.96875q0.171875 0.4375 0.484375 0.78125q0.296875 0.328125 0.71875 0.515625q0.421875 0.1875 0.90625 0.1875l5.890625 0l0 1.9375zm0.1875 -20.651154q0 1.046875 -0.484375 1.828125q-0.484375 0.765625 -1.359375 1.1875q-0.875 0.421875 -2.09375 0.421875l-6.046875 0l0 -1.921875l5.53125 0q0.84375 0 1.46875 -0.265625q0.625 -0.28125 0.96875 -0.78125q0.328125 -0.515625 0.328125 -1.25q0 -0.53125 -0.171875 -0.984375q-0.171875 -0.453125 -0.484375 -0.78125q-0.328125 -0.328125 -0.765625 -0.5q-0.453125 -0.1875 -0.984375 -0.1875l-5.890625 0l0 -1.921875l9.796875 0l0 1.921875l-2.046875 0l-0.234375 -0.34375q0.703125 0.21875 1.265625 0.75q0.546875 0.53125 0.875 1.265625q0.328125 0.734375 0.328125 1.5625zm-0.1875 -9.068283l-12.296875 0l0 -1.921875l12.296875 0l0 1.921875zm-7.921875 2.046875l-1.875 0l0 -6.234375l1.875 0l0 6.234375zm8.109375 -12.461288q0 1.5 -0.640625 2.671875q-0.640625 1.15625 -1.765625 1.828125q-1.125 0.65625 -2.578125 0.65625q-1.15625 0 -2.109375 -0.375q-0.953125 -0.375 -1.640625 -1.03125q-0.703125 -0.65625 -1.078125 -1.578125q-0.390625 -0.9375 -0.390625 -2.015625q0 -0.953125 0.359375 -1.765625q0.359375 -0.828125 1.0 -1.421875q0.640625 -0.609375 1.515625 -0.9375q0.859375 -0.328125 1.875 -0.3125l0.828125 0.015625l0 8.0l-1.53125 0.4375l0 -6.765625l0.3125 0.265625l-0.4375 0q-0.625 0.0625 -1.109375 0.421875q-0.484375 0.34375 -0.765625 0.890625q-0.28125 0.546875 -0.28125 1.171875q0 1.015625 0.390625 1.703125q0.375 0.6875 1.125 1.046875q0.734375 0.34375 1.8125 0.34375q1.015625 0 1.78125 -0.421875q0.75 -0.421875 1.171875 -1.203125q0.40625 -0.796875 0.40625 -1.8125q0 -0.734375 -0.234375 -1.359375q-0.25 -0.625 -0.890625 -1.359375l1.359375 -0.96875q0.453125 0.453125 0.796875 1.09375q0.328125 0.640625 0.53125 1.359375q0.1875 0.71875 0.1875 1.421875zm-0.1875 -14.562576l-11.125 0l0 3.65625l-1.9375 0l0 -9.4375l1.9375 0l0 3.765625l11.125 0l0 2.015625zm0 -8.089752l-9.796875 0l0 -1.921875l9.796875 0l0 1.921875zm-11.953125 -0.9375q0 0.609375 -0.3125 0.953125q-0.328125 0.328125 -0.90625 0.328125q-0.546875 0 -0.875 -0.34375q-0.34375 -0.34375 -0.34375 -0.9375q0 -0.609375 0.328125 -0.9375q0.3125 -0.34375 0.890625 -0.34375q0.546875 0 0.890625 0.34375q0.328125 0.34375 0.328125 0.9375zm11.953125 -3.905182l-9.796875 0l0 -1.9375l2.09375 0l0.21875 0.359375q-0.484375 -0.15625 -0.921875 -0.46875q-0.453125 -0.328125 -0.796875 -0.796875q-0.34375 -0.484375 -0.546875 -1.03125q-0.21875 -0.5625 -0.21875 -1.140625q0 -0.828125 0.28125 -1.46875q0.28125 -0.640625 0.84375 -1.046875q0.5625 -0.40625 1.40625 -0.59375l-0.078125 0.296875l-0.3125 -0.125q-0.4375 -0.21875 -0.8125 -0.578125q-0.390625 -0.359375 -0.6875 -0.828125q-0.296875 -0.46875 -0.46875 -0.984375q-0.171875 -0.53125 -0.171875 -1.03125q0 -1.09375 0.453125 -1.8125q0.453125 -0.71875 1.375 -1.078125q0.90625 -0.375 2.265625 -0.375l5.875 0l0 1.9375l-5.765625 0q-0.84375 0 -1.375 0.21875q-0.53125 0.21875 -0.78125 0.65625q-0.265625 0.421875 -0.265625 1.09375q0 0.515625 0.1875 0.984375q0.171875 0.453125 0.484375 0.796875q0.3125 0.328125 0.734375 0.515625q0.421875 0.171875 0.921875 0.171875l5.859375 0l0 1.953125l-5.796875 0q-0.765625 0 -1.296875 0.21875q-0.53125 0.21875 -0.8125 0.65625q-0.28125 0.421875 -0.28125 1.046875q0 0.515625 0.1875 0.96875q0.171875 0.4375 0.484375 0.78125q0.296875 0.328125 0.71875 0.515625q0.421875 0.1875 0.90625 0.1875l5.890625 0l0 1.9375zm0.1875 -21.776154q0 1.5 -0.640625 2.671875q-0.640625 1.15625 -1.765625 1.828125q-1.125 0.65625 -2.578125 0.65625q-1.15625 0 -2.109375 -0.375q-0.953125 -0.375 -1.640625 -1.03125q-0.703125 -0.65625 -1.078125 -1.578125q-0.390625 -0.9375 -0.390625 -2.015625q0 -0.953125 0.359375 -1.765625q0.359375 -0.828125 1.0 -1.421875q0.640625 -0.609375 1.515625 -0.9375q0.859375 -0.328125 1.875 -0.3125l0.828125 0.015625l0 8.0l-1.53125 0.4375l0 -6.765625l0.3125 0.265625l-0.4375 0q-0.625 0.0625 -1.109375 0.421875q-0.484375 0.34375 -0.765625 0.890625q-0.28125 0.546875 -0.28125 1.171875q0 1.015625 0.390625 1.703125q0.375 0.6875 1.125 1.046875q0.734375 0.34375 1.8125 0.34375q1.015625 0 1.78125 -0.421875q0.75 -0.421875 1.171875 -1.203125q0.40625 -0.796875 0.40625 -1.8125q0 -0.734375 -0.234375 -1.359375q-0.25 -0.625 -0.890625 -1.359375l1.359375 -0.96875q0.453125 0.453125 0.796875 1.09375q0.328125 0.640625 0.53125 1.359375q0.1875 0.71875 0.1875 1.421875zm3.28125 -15.656319q-1.421875 2.2656174 -3.546875 3.4687424q-2.125 1.1875 -4.734375 1.1875q-2.59375 0 -4.71875 -1.203125q-2.140625 -1.203125 -3.5625 -3.4687424l1.15625 -1.03125q1.328125 1.9062424 3.171875 2.9062424q1.828125 0.984375 3.953125 0.984375q2.125 0 3.96875 -0.984375q1.828125 -1.0 3.15625 -2.9062424l1.15625 1.046875zm-3.46875 -2.734436l-9.796875 0l0 -1.9375l2.09375 0l0.21875 0.359375q-0.484375 -0.15625 -0.921875 -0.46875q-0.453125 -0.328125 -0.796875 -0.796875q-0.34375 -0.484375 -0.546875 -1.03125q-0.21875 -0.5625 -0.21875 -1.140625q0 -0.828125 0.28125 -1.46875q0.28125 -0.640625 0.84375 -1.046875q0.5625 -0.40625 1.40625 -0.59375l-0.078125 0.296875l-0.3125 -0.125q-0.4375 -0.21875 -0.8125 -0.578125q-0.390625 -0.359375 -0.6875 -0.828125q-0.296875 -0.46875 -0.46875 -0.984375q-0.171875 -0.53125 -0.171875 -1.03125q0 -1.09375 0.453125 -1.8125q0.453125 -0.71875 1.375 -1.078125q0.90625 -0.375 2.265625 -0.375l5.875 0l0 1.9375l-5.765625 0q-0.84375 0 -1.375 0.21875q-0.53125 0.21875 -0.78125 0.65625q-0.265625 0.421875 -0.265625 1.09375q0 0.515625 0.1875 0.984375q0.171875 0.453125 0.484375 0.796875q0.3125 0.328125 0.734375 0.515625q0.421875 0.171875 0.921875 0.171875l5.859375 0l0 1.953125l-5.796875 0q-0.765625 0 -1.296875 0.21875q-0.53125 0.21875 -0.8125 0.65625q-0.28125 0.421875 -0.28125 1.046875q0 0.515625 0.1875 0.96875q0.171875 0.4375 0.484375 0.78125q0.296875 0.328125 0.71875 0.515625q0.421875 0.1875 0.90625 0.1875l5.890625 0l0 1.9375zm0 -17.526154l-9.796875 0l0 -1.921875l9.796875 0l0 1.921875zm-11.953125 -0.9375q0 0.609375 -0.3125 0.953125q-0.328125 0.328125 -0.90625 0.328125q-0.546875 0 -0.875 -0.34375q-0.34375 -0.34375 -0.34375 -0.9375q0 -0.609375 0.328125 -0.9375q0.3125 -0.34375 0.890625 -0.34375q0.546875 0 0.890625 0.34375q0.328125 0.34375 0.328125 0.9375zm11.953125 -3.936432l-9.796875 0l0 -1.921875l2.015625 0l0.21875 0.34375q-0.640625 -0.1875 -1.1875 -0.734375q-0.5625 -0.546875 -0.90625 -1.28125q-0.34375 -0.75 -0.34375 -1.53125q0 -1.125 0.4375 -1.859375q0.4375 -0.75 1.34375 -1.125q0.890625 -0.375 2.25 -0.375l5.96875 0l0 1.921875l-5.84375 0q-0.828125 0 -1.375 0.21875q-0.5625 0.21875 -0.8125 0.6875q-0.25 0.46875 -0.21875 1.15625q0 0.5625 0.1875 1.03125q0.171875 0.46875 0.5 0.8125q0.3125 0.34375 0.734375 0.546875q0.40625 0.1875 0.890625 0.1875l5.9375 0l0 0.953125q0 0.234375 0 0.484375q0 0.25 0 0.484375zm0.203125 -11.881714q0 0.609375 -0.359375 0.953125q-0.359375 0.328125 -1.03125 0.328125q-0.625 0 -1.015625 -0.34375q-0.390625 -0.359375 -0.390625 -0.9375q0 -0.625 0.375 -0.953125q0.359375 -0.34375 1.03125 -0.34375q0.609375 0 1.0 0.359375q0.390625 0.359375 0.390625 0.9375zm3.265625 -3.5348816l-1.15625 1.03125q-1.328125 -1.90625 -3.15625 -2.890625q-1.84375 -1.0 -3.96875 -1.0q-2.125 0 -3.953125 1.0q-1.84375 0.984375 -3.171875 2.890625l-1.15625 -1.046875q1.421875 -2.265625 3.546875 -3.453125q2.125 -1.203125 4.734375 -1.203125q2.59375 0 4.734375 1.203125q2.125 1.203125 3.546875 3.46875z" fill-rule="nonzero"/></g></svg>