<svg version="1.1" viewBox="0.0 0.0 395.6036745406824 212.08661417322836" fill="none" stroke="none" stroke-linecap="square" stroke-miterlimit="10" xmlns:xlink="http://www.w3.org/1999/xlink" xmlns="http://www.w3.org/2000/svg"><clipPath id="p.0"><path d="m0 0l395.60367 0l0 212.08661l-395.60367 0l0 -212.08661z" clip-rule="nonzero"/></clipPath><g clip-path="url(#p.0)"><path fill="#000000" fill-opacity="0.0" d="m0 0l395.60367 0l0 212.08661l-395.60367 0z" fill-rule="evenodd"/><path fill="#d9d9d9" d="m8.703412 153.20735l66.97375 -42.015747l267.89502 0l-66.973755 42.015747z" fill-rule="evenodd"/><path stroke="#595959" stroke-width="1.0" stroke-linejoin="round" stroke-linecap="butt" d="m8.703412 153.20735l66.97375 -42.015747l267.89502 0l-66.973755 42.015747z" fill-rule="evenodd"/><path fill="#000000" fill-opacity="0.0" d="m63.72966 144.65617l137.51181 -92.75591" fill-rule="evenodd"/><path stroke="#e49e0d" stroke-width="4.0" stroke-linejoin="round" stroke-linecap="butt" d="m63.72966 144.65617l126.14719 -85.09013" fill-rule="evenodd"/><path fill="#e49e0d" stroke="#e49e0d" stroke-width="4.0" stroke-linecap="butt" d="m189.87685 59.566044l-1.2137451 6.2447395l7.73053 -10.640507l-12.76152 3.1820107z" fill-rule="evenodd"/><path fill="#000000" fill-opacity="0.0" d="m65.703415 145.97113l135.52756 -13.1653595" fill-rule="evenodd"/><path stroke="#0097a7" stroke-width="4.0" stroke-linejoin="round" stroke-linecap="butt" d="m65.703415 145.97113l121.88344 -11.839951" fill-rule="evenodd"/><path fill="#0097a7" stroke="#0097a7" stroke-width="4.0" stroke-linecap="butt" d="m187.58685 134.13118l-4.042328 4.9121857l11.866226 -5.6722107l-12.736084 -3.2823029z" fill-rule="evenodd"/><path fill="#000000" fill-opacity="0.0" d="m200.57217 53.866142l0 76.97637" fill-rule="evenodd"/><path stroke="#0097a7" stroke-width="2.0" stroke-linejoin="round" stroke-linecap="butt" stroke-dasharray="2.0,6.0" d="m200.57217 53.866142l0 76.97637" fill-rule="evenodd"/><path fill="#000000" fill-opacity="0.0" d="m259.2126 153.20735l146.70868 0l0 42.015747l-146.70868 0z" fill-rule="evenodd"/><path fill="#000000" d="m286.36884 171.20047l-1.359375 1.046875q-1.125 -1.46875 -2.703125 -2.21875q-1.578125 -0.75 -3.46875 -0.75q-2.0625 0 -3.828125 0.984375q-1.75 0.984375 -2.71875 2.65625q-0.953125 1.671875 -0.953125 3.765625q0 3.140625 2.15625 5.25q2.15625 2.109375 5.453125 2.109375q3.625 0 6.0625 -2.828125l1.359375 1.03125q-1.296875 1.640625 -3.21875 2.546875q-1.921875 0.890625 -4.3125 0.890625q-4.515625 0 -7.125 -3.015625q-2.203125 -2.546875 -2.203125 -6.140625q0 -3.78125 2.65625 -6.359375q2.65625 -2.59375 6.65625 -2.59375q2.40625 0 4.34375 0.953125q1.953125 0.953125 3.203125 2.671875zm9.214844 0.96875q2.953125 0 4.875 2.125q1.765625 1.953125 1.765625 4.609375q0 2.671875 -1.859375 4.671875q-1.859375 2.0 -4.78125 2.0q-2.921875 0 -4.78125 -2.0q-1.859375 -2.0 -1.859375 -4.671875q0 -2.640625 1.765625 -4.59375q1.921875 -2.140625 4.875 -2.140625zm0 1.609375q-2.03125 0 -3.5 1.515625q-1.46875 1.5 -1.46875 3.640625q0 1.390625 0.671875 2.59375q0.671875 1.1875 1.796875 1.84375q1.140625 0.640625 2.5 0.640625q1.359375 0 2.5 -0.640625q1.140625 -0.65625 1.796875 -1.84375q0.671875 -1.203125 0.671875 -2.59375q0 -2.140625 -1.46875 -3.640625q-1.46875 -1.515625 -3.5 -1.515625zm9.433594 -6.203125l1.640625 0l0 17.671875l-1.640625 0l0 -17.671875zm3.5390625 14.453125l1.46875 -0.875q1.546875 2.84375 3.578125 2.84375q0.859375 0 1.625 -0.390625q0.765625 -0.40625 1.15625 -1.078125q0.40625 -0.6875 0.40625 -1.453125q0 -0.875 -0.59375 -1.703125q-0.796875 -1.140625 -2.953125 -2.765625q-2.15625 -1.625 -2.671875 -2.359375q-0.921875 -1.21875 -0.921875 -2.625q0 -1.125 0.53125 -2.046875q0.546875 -0.9375 1.515625 -1.46875q0.984375 -0.53125 2.140625 -0.53125q1.21875 0 2.28125 0.609375q1.0625 0.59375 2.234375 2.21875l-1.40625 1.0625q-0.96875 -1.296875 -1.65625 -1.703125q-0.6875 -0.40625 -1.484375 -0.40625q-1.046875 0 -1.71875 0.640625q-0.65625 0.625 -0.65625 1.546875q0 0.5625 0.234375 1.09375q0.234375 0.53125 0.859375 1.140625q0.34375 0.328125 2.21875 1.734375q2.25 1.640625 3.078125 2.9375q0.828125 1.28125 0.828125 2.59375q0 1.875 -1.421875 3.265625q-1.421875 1.375 -3.46875 1.375q-1.5625 0 -2.84375 -0.84375q-1.28125 -0.84375 -2.359375 -2.8125zm13.5 -9.53125l1.625 0l0 2.34375q0.96875 -1.34375 2.234375 -2.0q1.265625 -0.671875 2.828125 -0.671875q2.71875 0 4.640625 1.953125q1.9375 1.953125 1.9375 4.71875q0 2.8125 -1.921875 4.78125q-1.90625 1.953125 -4.609375 1.953125q-1.53125 0 -2.8125 -0.625q-1.265625 -0.640625 -2.296875 -1.890625l0 6.859375l-1.625 0l0 -17.421875zm6.5625 1.25q-2.140625 0 -3.609375 1.5q-1.453125 1.484375 -1.453125 3.6875q0 1.453125 0.65625 2.625q0.65625 1.15625 1.859375 1.84375q1.21875 0.671875 2.5625 0.671875q1.328125 0 2.484375 -0.6875q1.171875 -0.6875 1.859375 -1.90625q0.703125 -1.234375 0.703125 -2.59375q0 -1.359375 -0.6875 -2.578125q-0.6875 -1.21875 -1.859375 -1.890625q-1.15625 -0.671875 -2.515625 -0.671875zm13.464844 -6.5l1.890625 0q-1.140625 2.359375 -1.84375 5.5q-0.6875 3.140625 -0.6875 6.46875q0 3.09375 0.515625 5.96875q0.53125 2.875 1.4375 5.0625l-1.796875 0q-0.875 -2.09375 -1.390625 -4.921875q-0.515625 -2.828125 -0.515625 -5.875q0 -3.296875 0.609375 -6.421875q0.609375 -3.125 1.78125 -5.78125z" fill-rule="nonzero"/><path fill="#000000" d="m355.07977 168.01297l3.328125 0l2.421875 5.328125l3.765625 -5.328125l3.75 0l-6.078125 8.53125l3.96875 8.703125l-3.359375 0l-2.625 -5.84375l-4.140625 5.84375l-3.78125 0l6.46875 -9.046875l-3.71875 -8.1875z" fill-rule="nonzero"/><path fill="#000000" d="m378.5407 190.24734l-1.90625 0q1.15625 -2.359375 1.84375 -5.5q0.6875 -3.140625 0.6875 -6.484375q0 -3.09375 -0.53125 -5.96875q-0.515625 -2.875 -1.421875 -5.046875l1.796875 0q0.890625 2.078125 1.390625 4.921875q0.515625 2.828125 0.515625 5.875q0 3.28125 -0.609375 6.40625q-0.609375 3.125 -1.765625 5.796875z" fill-rule="nonzero"/><path fill="#000000" fill-opacity="0.0" d="m185.42258 9.887139l30.29921 0l0 42.015747l-30.29921 0z" fill-rule="evenodd"/><path fill="#e49e0d" d="m194.95383 29.17714l3.0625 0l2.484375 7.5625l4.359375 -7.5625l3.375 0l-10.015625 17.421875l-3.296875 0l3.609375 -6.40625l-3.578125 -11.015625z" fill-rule="nonzero"/><path fill="#000000" fill-opacity="0.0" d="m195.03674 24.524935l14.86615 0" fill-rule="evenodd"/><path stroke="#e49e0d" stroke-width="1.0" stroke-linejoin="round" stroke-linecap="butt" d="m195.03674 24.524935l8.86615 0" fill-rule="evenodd"/><path fill="#e49e0d" stroke="#e49e0d" stroke-width="1.0" stroke-linecap="butt" d="m203.9029 26.176666l4.538086 -1.6517315l-4.538086 -1.6517334z" fill-rule="evenodd"/><path fill="#000000" fill-opacity="0.0" d="m175.14961 160.18373l30.29921 0l0 42.015747l-30.29921 0z" fill-rule="evenodd"/><path fill="#0097a7" d="m184.68086 179.47372l3.0625 0l2.484375 7.5625l4.359375 -7.5625l3.375 0l-10.015625 17.421875l-3.296875 0l3.609375 -6.40625l-3.578125 -11.015625z" fill-rule="nonzero"/><path fill="#000000" fill-opacity="0.0" d="m184.77034 175.24147l7.9370117 -4.6299286" fill-rule="evenodd"/><path stroke="#0097a7" stroke-width="2.0" stroke-linejoin="round" stroke-linecap="butt" d="m184.77034 175.24147l7.9370117 -4.6299286" fill-rule="evenodd"/><path fill="#000000" fill-opacity="0.0" d="m192.6954 170.91992l6.929138 4.0" fill-rule="evenodd"/><path stroke="#0097a7" stroke-width="2.0" stroke-linejoin="round" stroke-linecap="butt" d="m192.6954 170.91992l6.929138 4.0" fill-rule="evenodd"/></g></svg>