<svg version="1.1" viewBox="0.0 0.0 779.3963254593176 475.82152230971127" fill="none" stroke="none" stroke-linecap="square" stroke-miterlimit="10" xmlns:xlink="http://www.w3.org/1999/xlink" xmlns="http://www.w3.org/2000/svg"><clipPath id="p.0"><path d="m0 0l779.3963 0l0 475.82153l-779.3963 0l0 -475.82153z" clip-rule="nonzero"/></clipPath><g clip-path="url(#p.0)"><path fill="#000000" fill-opacity="0.0" d="m0 0l779.3963 0l0 475.82153l-779.3963 0z" fill-rule="evenodd"/><path fill="#000000" fill-opacity="0.0" d="m12.423977 7.92126l0 181.29134" fill-rule="evenodd"/><path stroke="#595959" stroke-width="1.0" stroke-linejoin="round" stroke-linecap="butt" d="m12.423977 7.92126l0 181.29134" fill-rule="evenodd"/><path fill="#000000" fill-opacity="0.0" d="m55.410797 18.577414l0 170.61418" fill-rule="evenodd"/><path stroke="#595959" stroke-width="1.0" stroke-linejoin="round" stroke-linecap="butt" stroke-dasharray="1.0,3.0" d="m55.410797 18.577414l0 170.61418" fill-rule="evenodd"/><path fill="#000000" fill-opacity="0.0" d="m102.024666 18.577414l0 170.61418" fill-rule="evenodd"/><path stroke="#595959" stroke-width="1.0" stroke-linejoin="round" stroke-linecap="butt" stroke-dasharray="1.0,3.0" d="m102.024666 18.577414l0 170.61418" fill-rule="evenodd"/><path fill="#000000" fill-opacity="0.0" d="m148.63853 18.577414l0 170.61418" fill-rule="evenodd"/><path stroke="#595959" stroke-width="1.0" stroke-linejoin="round" stroke-linecap="butt" stroke-dasharray="1.0,3.0" d="m148.63853 18.577414l0 170.61418" fill-rule="evenodd"/><path fill="#000000" fill-opacity="0.0" d="m186.54047 54.40887l-173.51181 0" fill-rule="evenodd"/><path stroke="#595959" stroke-width="1.0" stroke-linejoin="round" stroke-linecap="butt" stroke-dasharray="1.0,3.0" d="m186.54047 54.40887l-173.51181 0" fill-rule="evenodd"/><path fill="#000000" fill-opacity="0.0" d="m186.54047 101.02269l-173.51181 0" fill-rule="evenodd"/><path stroke="#595959" stroke-width="1.0" stroke-linejoin="round" stroke-linecap="butt" stroke-dasharray="1.0,3.0" d="m186.54047 101.02269l-173.51181 0" fill-rule="evenodd"/><path fill="#000000" fill-opacity="0.0" d="m186.54047 147.6365l-173.51181 0" fill-rule="evenodd"/><path stroke="#595959" stroke-width="1.0" stroke-linejoin="round" stroke-linecap="butt" stroke-dasharray="1.0,3.0" d="m186.54047 147.6365l-173.51181 0" fill-rule="evenodd"/><path fill="#000000" fill-opacity="0.0" d="m192.67342 189.21855l-181.29134 0" fill-rule="evenodd"/><path stroke="#595959" stroke-width="1.0" stroke-linejoin="round" stroke-linecap="butt" d="m192.67342 189.21855l-181.29134 0" fill-rule="evenodd"/><path fill="#eeeeee" d="m23.687548 79.21012l11.228346 -19.401573l11.228348 19.401573z" fill-rule="evenodd"/><path stroke="#4285f4" stroke-width="2.0" stroke-linejoin="round" stroke-linecap="butt" d="m23.687548 79.21012l11.228346 -19.401573l11.228348 19.401573z" fill-rule="evenodd"/><path fill="#eeeeee" d="m52.39957 119.77741l11.228348 -19.401573l11.228344 19.401573z" fill-rule="evenodd"/><path stroke="#4285f4" stroke-width="2.0" stroke-linejoin="round" stroke-linecap="butt" d="m52.39957 119.77741l11.228348 -19.401573l11.228344 19.401573z" fill-rule="evenodd"/><path fill="#eeeeee" d="m94.52997 138.68915l0 0c0 -4.192154 3.398407 -7.590561 7.5905533 -7.590561l0 0c2.0131378 0 3.9438248 0.7997284 5.3673325 2.2232208c1.4235001 1.4235077 2.2232208 3.3542023 2.2232208 5.36734l0 0c0 4.1921387 -3.398407 7.5905457 -7.5905533 7.5905457l0 0c-4.1921463 0 -7.5905533 -3.398407 -7.5905533 -7.5905457z" fill-rule="evenodd"/><path stroke="#4285f4" stroke-width="2.0" stroke-linejoin="round" stroke-linecap="butt" d="m94.52997 138.68915l0 0c0 -4.192154 3.398407 -7.590561 7.5905533 -7.590561l0 0c2.0131378 0 3.9438248 0.7997284 5.3673325 2.2232208c1.4235001 1.4235077 2.2232208 3.3542023 2.2232208 5.36734l0 0c0 4.1921387 -3.398407 7.5905457 -7.5905533 7.5905457l0 0c-4.1921463 0 -7.5905533 -3.398407 -7.5905533 -7.5905457z" fill-rule="evenodd"/><path fill="#eeeeee" d="m102.12076 92.39712l0 0c0 -4.1921463 3.398407 -7.5905533 7.5905533 -7.5905533l0 0c2.0131378 0 3.9438248 0.79972076 5.3673325 2.2232208c1.4235001 1.4235077 2.2232208 3.3541946 2.2232208 5.3673325l0 0c0 4.1921463 -3.398407 7.5905533 -7.5905533 7.5905533l0 0c-4.1921463 0 -7.5905533 -3.398407 -7.5905533 -7.5905533z" fill-rule="evenodd"/><path stroke="#4285f4" stroke-width="2.0" stroke-linejoin="round" stroke-linecap="butt" d="m102.12076 92.39712l0 0c0 -4.1921463 3.398407 -7.5905533 7.5905533 -7.5905533l0 0c2.0131378 0 3.9438248 0.79972076 5.3673325 2.2232208c1.4235001 1.4235077 2.2232208 3.3541946 2.2232208 5.3673325l0 0c0 4.1921463 -3.398407 7.5905533 -7.5905533 7.5905533l0 0c-4.1921463 0 -7.5905533 -3.398407 -7.5905533 -7.5905533z" fill-rule="evenodd"/><path fill="#eeeeee" d="m130.22014 130.77094l0 0c0 -4.192154 3.398407 -7.590561 7.5905457 -7.590561l0 0c2.0131378 0 3.9438324 0.79972076 5.36734 2.2232208c1.4234924 1.4235077 2.2232208 3.354187 2.2232208 5.36734l0 0c0 4.1921387 -3.398407 7.5905457 -7.590561 7.5905457l0 0c-4.1921387 0 -7.5905457 -3.398407 -7.5905457 -7.5905457z" fill-rule="evenodd"/><path stroke="#4285f4" stroke-width="2.0" stroke-linejoin="round" stroke-linecap="butt" d="m130.22014 130.77094l0 0c0 -4.192154 3.398407 -7.590561 7.5905457 -7.590561l0 0c2.0131378 0 3.9438324 0.79972076 5.36734 2.2232208c1.4234924 1.4235077 2.2232208 3.354187 2.2232208 5.36734l0 0c0 4.1921387 -3.398407 7.5905457 -7.590561 7.5905457l0 0c-4.1921387 0 -7.5905457 -3.398407 -7.5905457 -7.5905457z" fill-rule="evenodd"/><path fill="#000000" fill-opacity="0.0" d="m138.79518 25.980377l13.826767 13.826771" fill-rule="evenodd"/><path stroke="#4285f4" stroke-width="2.0" stroke-linejoin="round" stroke-linecap="butt" d="m138.79518 25.980377l13.826767 13.826771" fill-rule="evenodd"/><path fill="#000000" fill-opacity="0.0" d="m152.77155 25.847805l-14.456696 14.456692" fill-rule="evenodd"/><path stroke="#4285f4" stroke-width="2.0" stroke-linejoin="round" stroke-linecap="butt" d="m152.77155 25.847805l-14.456696 14.456692" fill-rule="evenodd"/><path fill="#000000" fill-opacity="0.0" d="m142.68799 74.64465l13.826782 13.826775" fill-rule="evenodd"/><path stroke="#4285f4" stroke-width="2.0" stroke-linejoin="round" stroke-linecap="butt" d="m142.68799 74.64465l13.826782 13.826775" fill-rule="evenodd"/><path fill="#000000" fill-opacity="0.0" d="m156.66437 74.512085l-14.456696 14.456688" fill-rule="evenodd"/><path stroke="#4285f4" stroke-width="2.0" stroke-linejoin="round" stroke-linecap="butt" d="m156.66437 74.512085l-14.456696 14.456688" fill-rule="evenodd"/><path fill="#000000" fill-opacity="0.0" d="m166.15736 48.52981l13.826782 13.826775" fill-rule="evenodd"/><path stroke="#4285f4" stroke-width="2.0" stroke-linejoin="round" stroke-linecap="butt" d="m166.15736 48.52981l13.826782 13.826775" fill-rule="evenodd"/><path fill="#000000" fill-opacity="0.0" d="m180.13374 48.39724l-14.456696 14.456696" fill-rule="evenodd"/><path stroke="#4285f4" stroke-width="2.0" stroke-linejoin="round" stroke-linecap="butt" d="m180.13374 48.39724l-14.456696 14.456696" fill-rule="evenodd"/><path fill="#eeeeee" d="m23.689556 161.4093l11.228348 -19.401566l11.228344 19.401566z" fill-rule="evenodd"/><path stroke="#4285f4" stroke-width="2.0" stroke-linejoin="round" stroke-linecap="butt" d="m23.689556 161.4093l11.228348 -19.401566l11.228344 19.401566z" fill-rule="evenodd"/><path fill="#000000" fill-opacity="0.0" d="m-30.35433 203.04265l245.4488 0l0 39.181107l-245.4488 0z" fill-rule="evenodd"/><path fill="#595959" d="m24.040041 229.54071q-1.28125 0 -2.328125 -0.296875q-1.03125 -0.3125 -1.84375 -0.90625q-0.796875 -0.59375 -1.421875 -1.390625l1.921875 -2.1875q0.9375 1.25 1.875 1.6875q0.9375 0.421875 1.953125 0.421875q0.5 0 0.90625 -0.125q0.40625 -0.140625 0.625 -0.390625q0.234375 -0.25 0.234375 -0.625q0 -0.28125 -0.140625 -0.5q-0.140625 -0.21875 -0.390625 -0.390625q-0.234375 -0.171875 -0.578125 -0.3125q-0.328125 -0.140625 -0.703125 -0.234375q-0.375 -0.109375 -0.765625 -0.1875q-1.078125 -0.234375 -1.890625 -0.578125q-0.796875 -0.359375 -1.328125 -0.875q-0.53125 -0.515625 -0.796875 -1.171875q-0.25 -0.671875 -0.25 -1.484375q0 -0.890625 0.390625 -1.625q0.40625 -0.734375 1.078125 -1.265625q0.6875 -0.53125 1.578125 -0.8125q0.90625 -0.296875 1.875 -0.296875q1.28125 0 2.203125 0.28125q0.9375 0.265625 1.59375 0.765625q0.65625 0.5 1.125 1.21875l-1.953125 1.875q-0.390625 -0.484375 -0.859375 -0.796875q-0.453125 -0.3125 -0.96875 -0.484375q-0.5 -0.171875 -1.046875 -0.171875q-0.5625 0 -0.96875 0.140625q-0.390625 0.140625 -0.625 0.390625q-0.21875 0.25 -0.21875 0.609375q0 0.3125 0.1875 0.546875q0.1875 0.21875 0.5 0.40625q0.328125 0.171875 0.734375 0.296875q0.40625 0.109375 0.859375 0.1875q1.03125 0.203125 1.859375 0.546875q0.828125 0.328125 1.421875 0.8125q0.609375 0.484375 0.9375 1.15625q0.328125 0.65625 0.328125 1.53125q0 1.359375 -0.671875 2.3125q-0.65625 0.9375 -1.796875 1.4375q-1.140625 0.484375 -2.640625 0.484375zm7.187439 -0.1875l0 -13.8125l2.921873 0l0 5.921875l-0.59375 0.21875q0.203125 -0.671875 0.734375 -1.21875q0.53125 -0.546875 1.28125 -0.875q0.75 -0.34375 1.5625 -0.34375q1.125 0 1.890625 0.453125q0.765625 0.453125 1.15625 1.359375q0.390625 0.90625 0.390625 2.21875l0 6.078125l-3.0 0l0 -5.84375q0 -0.59375 -0.171875 -0.984375q-0.171875 -0.390625 -0.515625 -0.578125q-0.34375 -0.203125 -0.84375 -0.1875q-0.390625 0 -0.734375 0.125q-0.328125 0.125 -0.578125 0.359375q-0.234375 0.21875 -0.375 0.53125q-0.140625 0.296875 -0.140625 0.640625l0 5.9375l-1.484375 0q-0.515625 0 -0.8906231 0q-0.375 0 -0.609375 0zm15.502974 0.171875q-1.25 0 -2.234375 -0.65625q-0.984375 -0.671875 -1.5625 -1.828125q-0.578125 -1.171875 -0.578125 -2.65625q0 -1.5 0.578125 -2.65625q0.578125 -1.15625 1.578125 -1.8125q1.015625 -0.671875 2.3125 -0.671875q0.703125 0 1.28125 0.203125q0.59375 0.203125 1.046875 0.578125q0.453125 0.359375 0.765625 0.84375q0.3125 0.46875 0.46875 1.0l-0.625 -0.078125l0 -2.34375l2.96875 0l0 9.90625l-3.015625 0l0 -2.390625l0.671875 -0.015625q-0.15625 0.515625 -0.5 0.984375q-0.328125 0.46875 -0.8125 0.828125q-0.484375 0.34375 -1.078125 0.5625q-0.59375 0.203125 -1.265625 0.203125zm0.8125 -2.515625q0.703125 0 1.203125 -0.3125q0.5 -0.328125 0.78125 -0.90625q0.28125 -0.59375 0.28125 -1.40625q0 -0.796875 -0.28125 -1.375q-0.28125 -0.59375 -0.78125 -0.921875q-0.5 -0.328125 -1.203125 -0.328125q-0.671875 0 -1.171875 0.328125q-0.484375 0.328125 -0.765625 0.921875q-0.28125 0.578125 -0.28125 1.375q0 0.8125 0.28125 1.40625q0.28125 0.578125 0.765625 0.90625q0.5 0.3125 1.171875 0.3125zm7.825714 6.453125l0 -14.015625l2.828125 0l0.109375 2.21875l-0.546875 -0.171875q0.125 -0.609375 0.625 -1.109375q0.5 -0.515625 1.28125 -0.8125q0.78125 -0.3125 1.625 -0.3125q1.28125 0 2.265625 0.671875q0.984375 0.65625 1.546875 1.8125q0.578125 1.140625 0.578125 2.640625q0 1.5 -0.578125 2.65625q-0.5625 1.15625 -1.5625 1.828125q-1.0 0.65625 -2.28125 0.65625q-0.84375 0 -1.609375 -0.3125q-0.765625 -0.328125 -1.28125 -0.859375q-0.515625 -0.546875 -0.6875 -1.1875l0.6875 -0.25l0 6.546875l-3.0 0zm5.171875 -6.453125q0.65625 0 1.15625 -0.328125q0.515625 -0.328125 0.796875 -0.90625q0.28125 -0.578125 0.28125 -1.390625q0 -0.78125 -0.28125 -1.359375q-0.28125 -0.59375 -0.78125 -0.921875q-0.484375 -0.328125 -1.171875 -0.328125q-0.703125 0 -1.203125 0.328125q-0.5 0.3125 -0.78125 0.90625q-0.28125 0.59375 -0.28125 1.375q0 0.8125 0.28125 1.390625q0.28125 0.578125 0.78125 0.90625q0.5 0.328125 1.203125 0.328125zm11.841339 2.53125q-1.640625 0 -2.859375 -0.65625q-1.203125 -0.671875 -1.875 -1.8125q-0.671875 -1.15625 -0.671875 -2.625q0 -1.140625 0.359375 -2.09375q0.375 -0.953125 1.046875 -1.640625q0.671875 -0.703125 1.59375 -1.078125q0.9375 -0.390625 2.03125 -0.390625q1.046875 0 1.90625 0.375q0.875 0.375 1.5 1.046875q0.640625 0.671875 0.96875 1.59375q0.34375 0.90625 0.3125 1.984375l-0.03125 0.796875l-7.890625 0l-0.421875 -1.671875l5.890625 0l-0.3125 0.34375l0 -0.359375q-0.03125 -0.46875 -0.296875 -0.828125q-0.25 -0.375 -0.65625 -0.578125q-0.40625 -0.203125 -0.9375 -0.203125q-0.71875 0 -1.234375 0.296875q-0.515625 0.28125 -0.78125 0.828125q-0.25 0.546875 -0.25 1.359375q0 0.8125 0.34375 1.421875q0.34375 0.609375 1.0 0.953125q0.671875 0.328125 1.578125 0.328125q0.640625 0 1.125 -0.1875q0.5 -0.1875 1.078125 -0.640625l1.40625 1.984375q-0.578125 0.5 -1.234375 0.828125q-0.65625 0.3125 -1.34375 0.46875q-0.671875 0.15625 -1.34375 0.15625zm9.557571 0q-1.46875 0 -2.578125 -0.46875q-1.109375 -0.46875 -1.765625 -1.25l1.8125 -1.5625q0.578125 0.578125 1.296875 0.84375q0.734375 0.265625 1.390625 0.265625q0.265625 0 0.46875 -0.046875q0.203125 -0.0625 0.34375 -0.15625q0.140625 -0.109375 0.21875 -0.25q0.078125 -0.140625 0.078125 -0.328125q0 -0.375 -0.34375 -0.578125q-0.171875 -0.09375 -0.5625 -0.21875q-0.390625 -0.125 -1.0 -0.296875q-0.875 -0.21875 -1.53125 -0.53125q-0.640625 -0.3125 -1.046875 -0.71875q-0.375 -0.390625 -0.578125 -0.859375q-0.203125 -0.484375 -0.203125 -1.078125q0 -0.703125 0.328125 -1.25q0.328125 -0.5625 0.875 -0.96875q0.546875 -0.421875 1.265625 -0.625q0.71875 -0.21875 1.484375 -0.21875q0.828125 0 1.5625 0.1875q0.75 0.1875 1.390625 0.53125q0.65625 0.328125 1.15625 0.796875l-1.578125 1.75q-0.328125 -0.3125 -0.75 -0.5625q-0.421875 -0.265625 -0.875 -0.40625q-0.4375 -0.15625 -0.8125 -0.15625q-0.28125 0 -0.5 0.046875q-0.203125 0.046875 -0.359375 0.15625q-0.140625 0.09375 -0.21875 0.234375q-0.078125 0.140625 -0.078125 0.328125q0 0.1875 0.09375 0.359375q0.109375 0.171875 0.296875 0.28125q0.1875 0.109375 0.59375 0.25q0.421875 0.140625 1.125 0.34375q0.875 0.234375 1.5 0.546875q0.640625 0.296875 1.015625 0.703125q0.296875 0.3125 0.4375 0.734375q0.15625 0.421875 0.15625 0.90625q0 0.953125 -0.53125 1.6875q-0.53125 0.734375 -1.46875 1.15625q-0.921875 0.421875 -2.109375 0.421875zm15.939217 3.28125q-2.2656174 -1.421875 -3.4687424 -3.546875q-1.1875 -2.125 -1.1875 -4.734375q0 -2.59375 1.203125 -4.71875q1.203125 -2.140625 3.4687424 -3.5625l1.6875 1.578125q-1.71875 1.203125 -2.5781174 2.953125q-0.84375 1.75 -0.84375 3.75q0 2.0 0.84375 3.75q0.8593674 1.75 2.5781174 2.953125l-1.703125 1.578125zm3.7578125 0.640625l0 -14.015625l2.828125 0l0.109375 2.21875l-0.546875 -0.171875q0.125 -0.609375 0.625 -1.109375q0.5 -0.515625 1.28125 -0.8125q0.78125 -0.3125 1.625 -0.3125q1.28125 0 2.265625 0.671875q0.984375 0.65625 1.546875 1.8125q0.578125 1.140625 0.578125 2.640625q0 1.5 -0.578125 2.65625q-0.5625 1.15625 -1.5625 1.828125q-1.0 0.65625 -2.28125 0.65625q-0.84375 0 -1.609375 -0.3125q-0.765625 -0.328125 -1.28125 -0.859375q-0.515625 -0.546875 -0.6875 -1.1875l0.6875 -0.25l0 6.546875l-3.0 0zm5.171875 -6.453125q0.65625 0 1.15625 -0.328125q0.515625 -0.328125 0.796875 -0.90625q0.28125 -0.578125 0.28125 -1.390625q0 -0.78125 -0.28125 -1.359375q-0.28125 -0.59375 -0.78125 -0.921875q-0.484375 -0.328125 -1.171875 -0.328125q-0.703125 0 -1.203125 0.328125q-0.5 0.3125 -0.78125 0.90625q-0.28125 0.59375 -0.28125 1.375q0 0.8125 0.28125 1.390625q0.28125 0.578125 0.78125 0.90625q0.5 0.328125 1.203125 0.328125zm11.778839 2.53125q-1.546875 0 -2.75 -0.671875q-1.203125 -0.671875 -1.90625 -1.828125q-0.6875 -1.15625 -0.6875 -2.65625q0 -1.484375 0.6875 -2.640625q0.703125 -1.15625 1.90625 -1.828125q1.203125 -0.671875 2.75 -0.671875q1.546875 0 2.75 0.671875q1.203125 0.671875 1.890625 1.828125q0.703125 1.15625 0.703125 2.640625q0 1.5 -0.703125 2.65625q-0.6875 1.15625 -1.890625 1.828125q-1.203125 0.671875 -2.75 0.671875zm0 -2.578125q0.671875 0 1.1875 -0.328125q0.53125 -0.34375 0.828125 -0.921875q0.296875 -0.578125 0.28125 -1.328125q0.015625 -0.734375 -0.28125 -1.328125q-0.296875 -0.59375 -0.828125 -0.921875q-0.515625 -0.34375 -1.1875 -0.34375q-0.671875 0 -1.203125 0.34375q-0.53125 0.328125 -0.828125 0.921875q-0.296875 0.59375 -0.28125 1.328125q-0.015625 0.75 0.28125 1.328125q0.296875 0.578125 0.828125 0.921875q0.53125 0.328125 1.203125 0.328125zm7.474304 2.390625l0 -9.90625l2.9843826 0l0 9.90625l-2.9843826 0zm1.484375 -11.859375q-0.84375 0 -1.328125 -0.40625q-0.46875 -0.40625 -0.46875 -1.140625q0 -0.671875 0.484375 -1.09375q0.5 -0.4375 1.3125 -0.4375q0.8437576 0 1.2968826 0.40625q0.46875 0.390625 0.46875 1.125q0 0.6875 -0.46875 1.125q-0.46875 0.421875 -1.2968826 0.421875zm4.295082 11.859375l0 -9.90625l2.828125 0l0.09375 2.015625l-0.59375 0.21875q0.203125 -0.671875 0.734375 -1.21875q0.53125 -0.546875 1.28125 -0.875q0.75 -0.34375 1.5625 -0.34375q1.125 0 1.890625 0.453125q0.765625 0.453125 1.15625 1.359375q0.390625 0.90625 0.390625 2.21875l0 6.078125l-3.0 0l0 -5.84375q0 -0.59375 -0.171875 -0.984375q-0.171875 -0.390625 -0.515625 -0.578125q-0.34375 -0.203125 -0.84375 -0.1875q-0.390625 0 -0.734375 0.125q-0.328125 0.125 -0.578125 0.359375q-0.234375 0.21875 -0.375 0.53125q-0.140625 0.296875 -0.140625 0.640625l0 5.9375l-1.484375 0q-0.515625 0 -0.890625 0q-0.375 0 -0.609375 0zm12.659241 0l0 -12.40625l2.984375 0l0 12.40625l-2.984375 0zm-1.75 -7.296875l0 -2.609375l6.65625 0l0 2.609375l-6.65625 0zm12.079773 7.484375q-1.46875 0 -2.578125 -0.46875q-1.109375 -0.46875 -1.765625 -1.25l1.8125 -1.5625q0.578125 0.578125 1.296875 0.84375q0.734375 0.265625 1.390625 0.265625q0.265625 0 0.46875 -0.046875q0.203125 -0.0625 0.34375 -0.15625q0.140625 -0.109375 0.21875 -0.25q0.078125 -0.140625 0.078125 -0.328125q0 -0.375 -0.34375 -0.578125q-0.171875 -0.09375 -0.5625 -0.21875q-0.390625 -0.125 -1.0 -0.296875q-0.875 -0.21875 -1.53125 -0.53125q-0.640625 -0.3125 -1.046875 -0.71875q-0.375 -0.390625 -0.578125 -0.859375q-0.203125 -0.484375 -0.203125 -1.078125q0 -0.703125 0.328125 -1.25q0.328125 -0.5625 0.875 -0.96875q0.546875 -0.421875 1.265625 -0.625q0.71875 -0.21875 1.484375 -0.21875q0.828125 0 1.5625 0.1875q0.75 0.1875 1.390625 0.53125q0.65625 0.328125 1.15625 0.796875l-1.578125 1.75q-0.328125 -0.3125 -0.75 -0.5625q-0.421875 -0.265625 -0.875 -0.40625q-0.4375 -0.15625 -0.8125 -0.15625q-0.28125 0 -0.5 0.046875q-0.203125 0.046875 -0.359375 0.15625q-0.140625 0.09375 -0.21875 0.234375q-0.078125 0.140625 -0.078125 0.328125q0 0.1875 0.09375 0.359375q0.109375 0.171875 0.296875 0.28125q0.1875 0.109375 0.59375 0.25q0.421875 0.140625 1.125 0.34375q0.875 0.234375 1.5 0.546875q0.640625 0.296875 1.015625 0.703125q0.296875 0.3125 0.4375 0.734375q0.15625 0.421875 0.15625 0.90625q0 0.953125 -0.53125 1.6875q-0.53125 0.734375 -1.46875 1.15625q-0.921875 0.421875 -2.109375 0.421875zm6.406708 3.28125l-1.671875 -1.578125q1.71875 -1.203125 2.546875 -2.953125q0.84375 -1.75 0.84375 -3.75q0 -2.0 -0.84375 -3.75q-0.828125 -1.75 -2.546875 -2.953125l1.6875 -1.578125q2.28125 1.421875 3.46875 3.546875q1.203125 2.125 1.203125 4.734375q0 2.59375 -1.203125 4.734375q-1.203125 2.125 -3.484375 3.546875z" fill-rule="nonzero"/><path fill="#000000" fill-opacity="0.0" d="m284.5762 7.92126l0 181.29134" fill-rule="evenodd"/><path stroke="#595959" stroke-width="1.0" stroke-linejoin="round" stroke-linecap="butt" d="m284.5762 7.92126l0 181.29134" fill-rule="evenodd"/><path fill="#000000" fill-opacity="0.0" d="m327.56302 18.577414l0 170.61418" fill-rule="evenodd"/><path stroke="#595959" stroke-width="1.0" stroke-linejoin="round" stroke-linecap="butt" stroke-dasharray="1.0,3.0" d="m327.56302 18.577414l0 170.61418" fill-rule="evenodd"/><path fill="#000000" fill-opacity="0.0" d="m374.1769 18.577414l0 170.61418" fill-rule="evenodd"/><path stroke="#595959" stroke-width="1.0" stroke-linejoin="round" stroke-linecap="butt" stroke-dasharray="1.0,3.0" d="m374.1769 18.577414l0 170.61418" fill-rule="evenodd"/><path fill="#000000" fill-opacity="0.0" d="m420.79077 18.577414l0 170.61418" fill-rule="evenodd"/><path stroke="#595959" stroke-width="1.0" stroke-linejoin="round" stroke-linecap="butt" stroke-dasharray="1.0,3.0" d="m420.79077 18.577414l0 170.61418" fill-rule="evenodd"/><path fill="#000000" fill-opacity="0.0" d="m458.6927 54.40887l-173.51181 0" fill-rule="evenodd"/><path stroke="#595959" stroke-width="1.0" stroke-linejoin="round" stroke-linecap="butt" stroke-dasharray="1.0,3.0" d="m458.6927 54.40887l-173.51181 0" fill-rule="evenodd"/><path fill="#000000" fill-opacity="0.0" d="m458.6927 101.02269l-173.51181 0" fill-rule="evenodd"/><path stroke="#595959" stroke-width="1.0" stroke-linejoin="round" stroke-linecap="butt" stroke-dasharray="1.0,3.0" d="m458.6927 101.02269l-173.51181 0" fill-rule="evenodd"/><path fill="#000000" fill-opacity="0.0" d="m458.6927 147.6365l-173.51181 0" fill-rule="evenodd"/><path stroke="#595959" stroke-width="1.0" stroke-linejoin="round" stroke-linecap="butt" stroke-dasharray="1.0,3.0" d="m458.6927 147.6365l-173.51181 0" fill-rule="evenodd"/><path fill="#000000" fill-opacity="0.0" d="m464.82565 189.21855l-181.29135 0" fill-rule="evenodd"/><path stroke="#595959" stroke-width="1.0" stroke-linejoin="round" stroke-linecap="butt" d="m464.82565 189.21855l-181.29135 0" fill-rule="evenodd"/><path fill="#4285f4" d="m366.5864 145.11958l0 0c0 -4.1921387 3.398407 -7.5905457 7.5905457 -7.5905457l0 0c2.013153 0 3.9438477 0.79971313 5.36734 2.2232208c1.4234924 1.4235077 2.223236 3.354187 2.223236 5.367325l0 0c0 4.192154 -3.398407 7.590561 -7.590576 7.590561l0 0c-4.1921387 0 -7.5905457 -3.398407 -7.5905457 -7.590561z" fill-rule="evenodd"/><path stroke="#4285f4" stroke-width="2.0" stroke-linejoin="round" stroke-linecap="butt" d="m366.5864 145.11958l0 0c0 -4.1921387 3.398407 -7.5905457 7.5905457 -7.5905457l0 0c2.013153 0 3.9438477 0.79971313 5.36734 2.2232208c1.4234924 1.4235077 2.223236 3.354187 2.223236 5.367325l0 0c0 4.192154 -3.398407 7.590561 -7.590576 7.590561l0 0c-4.1921387 0 -7.5905457 -3.398407 -7.5905457 -7.590561z" fill-rule="evenodd"/><path fill="#4285f4" d="m350.88586 101.024414l0 0c0 -4.1921463 3.398407 -7.5905533 7.5905457 -7.5905533l0 0c2.0131226 0 3.9438171 0.79972076 5.3673096 2.2232208c1.423523 1.4235077 2.223236 3.3541946 2.223236 5.3673325l0 0c0 4.1921463 -3.398407 7.5905533 -7.5905457 7.5905533l0 0c-4.1921387 0 -7.5905457 -3.398407 -7.5905457 -7.5905533z" fill-rule="evenodd"/><path stroke="#4285f4" stroke-width="2.0" stroke-linejoin="round" stroke-linecap="butt" d="m350.88586 101.024414l0 0c0 -4.1921463 3.398407 -7.5905533 7.5905457 -7.5905533l0 0c2.0131226 0 3.9438171 0.79972076 5.3673096 2.2232208c1.423523 1.4235077 2.223236 3.3541946 2.223236 5.3673325l0 0c0 4.1921463 -3.398407 7.5905533 -7.5905457 7.5905533l0 0c-4.1921387 0 -7.5905457 -3.398407 -7.5905457 -7.5905533z" fill-rule="evenodd"/><path fill="#4285f4" d="m335.7057 134.12395l0 0c0 -4.1921387 3.398407 -7.5905533 7.590576 -7.5905533l0 0c2.0131226 0 3.9438171 0.79972076 5.3673096 2.2232285c1.423523 1.4234924 2.223236 3.354187 2.223236 5.367325l0 0c0 4.1921387 -3.398407 7.5905457 -7.5905457 7.5905457l0 0c-4.192169 0 -7.590576 -3.398407 -7.590576 -7.5905457z" fill-rule="evenodd"/><path stroke="#4285f4" stroke-width="2.0" stroke-linejoin="round" stroke-linecap="butt" d="m335.7057 134.12395l0 0c0 -4.1921387 3.398407 -7.5905533 7.590576 -7.5905533l0 0c2.0131226 0 3.9438171 0.79972076 5.3673096 2.2232285c1.423523 1.4234924 2.223236 3.354187 2.223236 5.367325l0 0c0 4.1921387 -3.398407 7.5905457 -7.5905457 7.5905457l0 0c-4.192169 0 -7.590576 -3.398407 -7.590576 -7.5905457z" fill-rule="evenodd"/><path fill="#000000" fill-opacity="0.0" d="m241.7979 203.04265l245.4488 0l0 39.181107l-245.4488 0z" fill-rule="evenodd"/><path fill="#595959" d="m346.68134 229.54071q-1.484375 0 -2.71875 -0.484375q-1.234375 -0.5 -2.15625 -1.40625q-0.90625 -0.90625 -1.40625 -2.140625q-0.5 -1.25 -0.5 -2.734375q0 -1.46875 0.515625 -2.6875q0.53125 -1.234375 1.453125 -2.140625q0.921875 -0.90625 2.1875 -1.40625q1.265625 -0.515625 2.75 -0.515625q0.9375 0 1.828125 0.25q0.890625 0.25 1.671875 0.71875q0.78125 0.46875 1.328125 1.125l-1.9375 2.21875q-0.390625 -0.40625 -0.828125 -0.703125q-0.4375 -0.3125 -0.96875 -0.484375q-0.515625 -0.171875 -1.109375 -0.171875q-0.75 0 -1.421875 0.28125q-0.65625 0.265625 -1.15625 0.765625q-0.484375 0.484375 -0.765625 1.203125q-0.28125 0.703125 -0.28125 1.578125q0 0.859375 0.28125 1.5625q0.28125 0.6875 0.78125 1.203125q0.515625 0.5 1.234375 0.765625q0.71875 0.25 1.59375 0.25q0.59375 0 1.125 -0.15625q0.546875 -0.171875 1.0 -0.453125q0.46875 -0.296875 0.8125 -0.671875l1.53125 2.421875q-0.46875 0.53125 -1.25 0.9375q-0.765625 0.40625 -1.703125 0.640625q-0.9375 0.234375 -1.890625 0.234375zm11.353668 0q-1.546875 0 -2.75 -0.671875q-1.203125 -0.671875 -1.90625 -1.828125q-0.6875 -1.15625 -0.6875 -2.65625q0 -1.484375 0.6875 -2.640625q0.703125 -1.15625 1.90625 -1.828125q1.203125 -0.671875 2.75 -0.671875q1.546875 0 2.75 0.671875q1.203125 0.671875 1.890625 1.828125q0.703125 1.15625 0.703125 2.640625q0 1.5 -0.703125 2.65625q-0.6875 1.15625 -1.890625 1.828125q-1.203125 0.671875 -2.75 0.671875zm0 -2.578125q0.671875 0 1.1875 -0.328125q0.53125 -0.34375 0.828125 -0.921875q0.296875 -0.578125 0.28125 -1.328125q0.015625 -0.734375 -0.28125 -1.328125q-0.296875 -0.59375 -0.828125 -0.921875q-0.515625 -0.34375 -1.1875 -0.34375q-0.671875 0 -1.203125 0.34375q-0.53125 0.328125 -0.828125 0.921875q-0.296875 0.59375 -0.28125 1.328125q-0.015625 0.75 0.28125 1.328125q0.296875 0.578125 0.828125 0.921875q0.53125 0.328125 1.203125 0.328125zm7.318054 2.390625l0 -13.8125l2.984375 0l0 13.8125l-2.984375 0zm10.125488 0.1875q-1.546875 0 -2.75 -0.671875q-1.203125 -0.671875 -1.90625 -1.828125q-0.6875 -1.15625 -0.6875 -2.65625q0 -1.484375 0.6875 -2.640625q0.703125 -1.15625 1.90625 -1.828125q1.203125 -0.671875 2.75 -0.671875q1.546875 0 2.75 0.671875q1.203125 0.671875 1.890625 1.828125q0.703125 1.15625 0.703125 2.640625q0 1.5 -0.703125 2.65625q-0.6875 1.15625 -1.890625 1.828125q-1.203125 0.671875 -2.75 0.671875zm0 -2.578125q0.671875 0 1.1875 -0.328125q0.53125 -0.34375 0.828125 -0.921875q0.296875 -0.578125 0.28125 -1.328125q0.015625 -0.734375 -0.28125 -1.328125q-0.296875 -0.59375 -0.828125 -0.921875q-0.515625 -0.34375 -1.1875 -0.34375q-0.671875 0 -1.203125 0.34375q-0.53125 0.328125 -0.828125 0.921875q-0.296875 0.59375 -0.28125 1.328125q-0.015625 0.75 0.28125 1.328125q0.296875 0.578125 0.828125 0.921875q0.53125 0.328125 1.203125 0.328125zm7.3023987 2.390625l0 -9.90625l2.828125 0l0.140625 3.234375l-0.5625 -0.625q0.21875 -0.796875 0.734375 -1.421875q0.515625 -0.640625 1.203125 -1.015625q0.6875 -0.375 1.46875 -0.375q0.34375 0 0.625 0.0625q0.296875 0.046875 0.53125 0.125l-0.8125 3.296875q-0.203125 -0.125 -0.5625 -0.203125q-0.34375 -0.09375 -0.703125 -0.09375q-0.421875 0 -0.78125 0.140625q-0.34375 0.140625 -0.59375 0.40625q-0.234375 0.25 -0.375 0.609375q-0.140625 0.359375 -0.140625 0.796875l0 4.96875l-3.0 0z" fill-rule="nonzero"/><path fill="#ffab40" d="m292.7964 69.50804l0 0c0 -4.1921463 3.398407 -7.5905533 7.5905457 -7.5905533l0 0c2.0131226 0 3.9438171 0.79971695 5.3673096 2.2232208c1.423523 1.4235077 2.223236 3.3541946 2.223236 5.3673325l0 0c0 4.1921463 -3.398407 7.5905533 -7.5905457 7.5905533l0 0c-4.1921387 0 -7.5905457 -3.398407 -7.5905457 -7.5905533z" fill-rule="evenodd"/><path stroke="#ffab40" stroke-width="2.0" stroke-linejoin="round" stroke-linecap="butt" d="m292.7964 69.50804l0 0c0 -4.1921463 3.398407 -7.5905533 7.5905457 -7.5905533l0 0c2.0131226 0 3.9438171 0.79971695 5.3673096 2.2232208c1.423523 1.4235077 2.223236 3.3541946 2.223236 5.3673325l0 0c0 4.1921463 -3.398407 7.5905533 -7.5905457 7.5905533l0 0c-4.1921387 0 -7.5905457 -3.398407 -7.5905457 -7.5905533z" fill-rule="evenodd"/><path fill="#ffab40" d="m307.97748 101.02248l0 0c0 -4.1921463 3.398407 -7.5905533 7.5905457 -7.5905533l0 0c2.013153 0 3.9438171 0.79972076 5.36734 2.2232208c1.4234924 1.4235077 2.2232056 3.3541946 2.2232056 5.3673325l0 0c0 4.1921463 -3.398407 7.5905533 -7.5905457 7.5905533l0 0c-4.1921387 0 -7.5905457 -3.398407 -7.5905457 -7.5905533z" fill-rule="evenodd"/><path stroke="#ffab40" stroke-width="2.0" stroke-linejoin="round" stroke-linecap="butt" d="m307.97748 101.02248l0 0c0 -4.1921463 3.398407 -7.5905533 7.5905457 -7.5905533l0 0c2.013153 0 3.9438171 0.79972076 5.36734 2.2232208c1.4234924 1.4235077 2.2232056 3.3541946 2.2232056 5.3673325l0 0c0 4.1921463 -3.398407 7.5905533 -7.5905457 7.5905533l0 0c-4.1921387 0 -7.5905457 -3.398407 -7.5905457 -7.5905533z" fill-rule="evenodd"/><path fill="#ffab40" d="m327.5654 57.616966l0 0c0 -4.1921463 3.398407 -7.5905533 7.5905457 -7.5905533l0 0c2.013153 0 3.9438477 0.79971695 5.36734 2.2232208c1.4234924 1.4235039 2.223236 3.3541908 2.223236 5.3673325l0 0c0 4.1921425 -3.398407 7.5905533 -7.590576 7.5905533l0 0c-4.1921387 0 -7.5905457 -3.3984108 -7.5905457 -7.5905533z" fill-rule="evenodd"/><path stroke="#ffab40" stroke-width="2.0" stroke-linejoin="round" stroke-linecap="butt" d="m327.5654 57.616966l0 0c0 -4.1921463 3.398407 -7.5905533 7.5905457 -7.5905533l0 0c2.013153 0 3.9438477 0.79971695 5.36734 2.2232208c1.4234924 1.4235039 2.223236 3.3541908 2.223236 5.3673325l0 0c0 4.1921425 -3.398407 7.5905533 -7.590576 7.5905533l0 0c-4.1921387 0 -7.5905457 -3.3984108 -7.5905457 -7.5905533z" fill-rule="evenodd"/><path fill="#0097a7" d="m389.8935 124.32957l0 0c0 -4.1921463 3.398407 -7.5905533 7.5905457 -7.5905533l0 0c2.013153 0 3.9438171 0.79971313 5.36734 2.2232208c1.4234924 1.4235001 2.2232056 3.354187 2.2232056 5.3673325l0 0c0 4.1921463 -3.398407 7.5905533 -7.5905457 7.5905533l0 0c-4.1921387 0 -7.5905457 -3.398407 -7.5905457 -7.5905533z" fill-rule="evenodd"/><path stroke="#0097a7" stroke-width="2.0" stroke-linejoin="round" stroke-linecap="butt" d="m389.8935 124.32957l0 0c0 -4.1921463 3.398407 -7.5905533 7.5905457 -7.5905533l0 0c2.013153 0 3.9438171 0.79971313 5.36734 2.2232208c1.4234924 1.4235001 2.2232056 3.354187 2.2232056 5.3673325l0 0c0 4.1921463 -3.398407 7.5905533 -7.5905457 7.5905533l0 0c-4.1921387 0 -7.5905457 -3.398407 -7.5905457 -7.5905533z" fill-rule="evenodd"/><path fill="#0097a7" d="m423.7544 116.20358l0 0c0 -4.1921463 3.3983765 -7.5905533 7.5905457 -7.5905533l0 0c2.0131226 0 3.9438171 0.79971313 5.3673096 2.2232208c1.423523 1.4235001 2.223236 3.354187 2.223236 5.3673325l0 0c0 4.1921387 -3.398407 7.5905457 -7.5905457 7.5905457l0 0c-4.192169 0 -7.5905457 -3.398407 -7.5905457 -7.5905457z" fill-rule="evenodd"/><path stroke="#0097a7" stroke-width="2.0" stroke-linejoin="round" stroke-linecap="butt" d="m423.7544 116.20358l0 0c0 -4.1921463 3.3983765 -7.5905533 7.5905457 -7.5905533l0 0c2.0131226 0 3.9438171 0.79971313 5.3673096 2.2232208c1.423523 1.4235001 2.223236 3.354187 2.223236 5.3673325l0 0c0 4.1921387 -3.398407 7.5905457 -7.5905457 7.5905457l0 0c-4.192169 0 -7.5905457 -3.398407 -7.5905457 -7.5905457z" fill-rule="evenodd"/><path fill="#0097a7" d="m405.0746 77.71539l0 0c0 -4.1921463 3.398407 -7.5905533 7.5905457 -7.5905533l0 0c2.013153 0 3.9438477 0.79971313 5.36734 2.2232208c1.4234924 1.4235001 2.223236 3.354187 2.223236 5.3673325l0 0c0 4.1921463 -3.398407 7.5905457 -7.590576 7.5905457l0 0c-4.1921387 0 -7.5905457 -3.3983994 -7.5905457 -7.5905457z" fill-rule="evenodd"/><path stroke="#0097a7" stroke-width="2.0" stroke-linejoin="round" stroke-linecap="butt" d="m405.0746 77.71539l0 0c0 -4.1921463 3.398407 -7.5905533 7.5905457 -7.5905533l0 0c2.013153 0 3.9438477 0.79971313 5.36734 2.2232208c1.4234924 1.4235001 2.223236 3.354187 2.223236 5.3673325l0 0c0 4.1921463 -3.398407 7.5905457 -7.590576 7.5905457l0 0c-4.1921387 0 -7.5905457 -3.3983994 -7.5905457 -7.5905457z" fill-rule="evenodd"/><path fill="#000000" fill-opacity="0.0" d="m573.193 7.92126l0 181.29134" fill-rule="evenodd"/><path stroke="#595959" stroke-width="1.0" stroke-linejoin="round" stroke-linecap="butt" d="m573.193 7.92126l0 181.29134" fill-rule="evenodd"/><path fill="#000000" fill-opacity="0.0" d="m616.1798 18.577414l0 170.61418" fill-rule="evenodd"/><path stroke="#595959" stroke-width="1.0" stroke-linejoin="round" stroke-linecap="butt" stroke-dasharray="1.0,3.0" d="m616.1798 18.577414l0 170.61418" fill-rule="evenodd"/><path fill="#000000" fill-opacity="0.0" d="m662.7937 18.577414l0 170.61418" fill-rule="evenodd"/><path stroke="#595959" stroke-width="1.0" stroke-linejoin="round" stroke-linecap="butt" stroke-dasharray="1.0,3.0" d="m662.7937 18.577414l0 170.61418" fill-rule="evenodd"/><path fill="#000000" fill-opacity="0.0" d="m709.4076 18.577414l0 170.61418" fill-rule="evenodd"/><path stroke="#595959" stroke-width="1.0" stroke-linejoin="round" stroke-linecap="butt" stroke-dasharray="1.0,3.0" d="m709.4076 18.577414l0 170.61418" fill-rule="evenodd"/><path fill="#000000" fill-opacity="0.0" d="m747.3095 54.40887l-173.51184 0" fill-rule="evenodd"/><path stroke="#595959" stroke-width="1.0" stroke-linejoin="round" stroke-linecap="butt" stroke-dasharray="1.0,3.0" d="m747.3095 54.40887l-173.51184 0" fill-rule="evenodd"/><path fill="#000000" fill-opacity="0.0" d="m747.3095 101.02269l-173.51184 0" fill-rule="evenodd"/><path stroke="#595959" stroke-width="1.0" stroke-linejoin="round" stroke-linecap="butt" stroke-dasharray="1.0,3.0" d="m747.3095 101.02269l-173.51184 0" fill-rule="evenodd"/><path fill="#000000" fill-opacity="0.0" d="m747.3095 147.6365l-173.51184 0" fill-rule="evenodd"/><path stroke="#595959" stroke-width="1.0" stroke-linejoin="round" stroke-linecap="butt" stroke-dasharray="1.0,3.0" d="m747.3095 147.6365l-173.51184 0" fill-rule="evenodd"/><path fill="#000000" fill-opacity="0.0" d="m753.44244 189.21855l-181.29132 0" fill-rule="evenodd"/><path stroke="#595959" stroke-width="1.0" stroke-linejoin="round" stroke-linecap="butt" d="m753.44244 189.21855l-181.29132 0" fill-rule="evenodd"/><path fill="#eeeeee" d="m587.0969 168.42668l0 0c0 -4.192154 3.3983765 -7.590561 7.590515 -7.590561l0 0c2.0131226 0 3.9438477 0.7997284 5.3673706 2.2232208c1.4234619 1.4235077 2.2232056 3.3542023 2.2232056 5.36734l0 0c0 4.1921387 -3.3984375 7.5905457 -7.590576 7.5905457l0 0c-4.1921387 0 -7.590515 -3.398407 -7.590515 -7.5905457z" fill-rule="evenodd"/><path stroke="#4285f4" stroke-width="2.0" stroke-linejoin="round" stroke-linecap="butt" d="m587.0969 168.42668l0 0c0 -4.192154 3.3983765 -7.590561 7.590515 -7.590561l0 0c2.0131226 0 3.9438477 0.7997284 5.3673706 2.2232208c1.4234619 1.4235077 2.2232056 3.3542023 2.2232056 5.36734l0 0c0 4.1921387 -3.3984375 7.5905457 -7.590576 7.5905457l0 0c-4.1921387 0 -7.590515 -3.398407 -7.590515 -7.5905457z" fill-rule="evenodd"/><path fill="#eeeeee" d="m599.71356 130.92972l0 0c0 -4.1921387 3.3984375 -7.5905457 7.590576 -7.5905457l0 0c2.0131226 0 3.9437866 0.79971313 5.3673096 2.2232208c1.423523 1.4235001 2.2232056 3.354187 2.2232056 5.367325l0 0c0 4.192154 -3.3983765 7.590561 -7.590515 7.590561l0 0c-4.1921387 0 -7.590576 -3.398407 -7.590576 -7.590561z" fill-rule="evenodd"/><path stroke="#4285f4" stroke-width="2.0" stroke-linejoin="round" stroke-linecap="butt" d="m599.71356 130.92972l0 0c0 -4.1921387 3.3984375 -7.5905457 7.590576 -7.5905457l0 0c2.0131226 0 3.9437866 0.79971313 5.3673096 2.2232208c1.423523 1.4235001 2.2232056 3.354187 2.2232056 5.367325l0 0c0 4.192154 -3.3983765 7.590561 -7.590515 7.590561l0 0c-4.1921387 0 -7.590576 -3.398407 -7.590576 -7.590561z" fill-rule="evenodd"/><path fill="#000000" fill-opacity="0.0" d="m530.4147 203.04265l245.44885 0l0 39.181107l-245.44885 0z" fill-rule="evenodd"/><path fill="#595959" d="m639.7147 229.54071q-1.28125 0 -2.328125 -0.296875q-1.03125 -0.3125 -1.84375 -0.90625q-0.796875 -0.59375 -1.421875 -1.390625l1.921875 -2.1875q0.9375 1.25 1.875 1.6875q0.9375 0.421875 1.953125 0.421875q0.5 0 0.90625 -0.125q0.40625 -0.140625 0.625 -0.390625q0.234375 -0.25 0.234375 -0.625q0 -0.28125 -0.140625 -0.5q-0.140625 -0.21875 -0.390625 -0.390625q-0.234375 -0.171875 -0.578125 -0.3125q-0.328125 -0.140625 -0.703125 -0.234375q-0.375 -0.109375 -0.765625 -0.1875q-1.078125 -0.234375 -1.890625 -0.578125q-0.796875 -0.359375 -1.328125 -0.875q-0.53125 -0.515625 -0.796875 -1.171875q-0.25 -0.671875 -0.25 -1.484375q0 -0.890625 0.390625 -1.625q0.40625 -0.734375 1.078125 -1.265625q0.6875 -0.53125 1.578125 -0.8125q0.90625 -0.296875 1.875 -0.296875q1.28125 0 2.203125 0.28125q0.9375 0.265625 1.59375 0.765625q0.65625 0.5 1.125 1.21875l-1.953125 1.875q-0.390625 -0.484375 -0.859375 -0.796875q-0.453125 -0.3125 -0.96875 -0.484375q-0.5 -0.171875 -1.046875 -0.171875q-0.5625 0 -0.96875 0.140625q-0.390625 0.140625 -0.625 0.390625q-0.21875 0.25 -0.21875 0.609375q0 0.3125 0.1875 0.546875q0.1875 0.21875 0.5 0.40625q0.328125 0.171875 0.734375 0.296875q0.40625 0.109375 0.859375 0.1875q1.03125 0.203125 1.859375 0.546875q0.828125 0.328125 1.421875 0.8125q0.609375 0.484375 0.9375 1.15625q0.328125 0.65625 0.328125 1.53125q0 1.359375 -0.671875 2.3125q-0.65625 0.9375 -1.796875 1.4375q-1.140625 0.484375 -2.640625 0.484375zm7.359314 -0.1875l0 -9.90625l2.984375 0l0 9.90625l-2.984375 0zm1.484375 -11.859375q-0.84375 0 -1.328125 -0.40625q-0.46875 -0.40625 -0.46875 -1.140625q0 -0.671875 0.484375 -1.09375q0.5 -0.4375 1.3125 -0.4375q0.84375 0 1.296875 0.40625q0.46875 0.390625 0.46875 1.125q0 0.6875 -0.46875 1.125q-0.46875 0.421875 -1.296875 0.421875zm3.90448 11.859375l0 -1.71875l5.25 -6.75l0 0.984375l-5.25 0l0 -2.421875l8.203125 0l0 1.796875l-4.984375 6.546875l-0.078125 -0.859375l5.234375 0l0 2.421875l-8.375 0zm15.183655 0.1875q-1.640625 0 -2.859375 -0.65625q-1.203125 -0.671875 -1.875 -1.8125q-0.671875 -1.15625 -0.671875 -2.625q0 -1.140625 0.359375 -2.09375q0.375 -0.953125 1.046875 -1.640625q0.671875 -0.703125 1.59375 -1.078125q0.9375 -0.390625 2.03125 -0.390625q1.046875 0 1.90625 0.375q0.875 0.375 1.5 1.046875q0.640625 0.671875 0.96875 1.59375q0.34375 0.90625 0.3125 1.984375l-0.03125 0.796875l-7.890625 0l-0.421875 -1.671875l5.890625 0l-0.3125 0.34375l0 -0.359375q-0.03125 -0.46875 -0.296875 -0.828125q-0.25 -0.375 -0.65625 -0.578125q-0.40625 -0.203125 -0.9375 -0.203125q-0.71875 0 -1.234375 0.296875q-0.515625 0.28125 -0.78125 0.828125q-0.25 0.546875 -0.25 1.359375q0 0.8125 0.34375 1.421875q0.34375 0.609375 1.0 0.953125q0.671875 0.328125 1.578125 0.328125q0.640625 0 1.125 -0.1875q0.5 -0.1875 1.078125 -0.640625l1.40625 1.984375q-0.578125 0.5 -1.234375 0.828125q-0.65625 0.3125 -1.34375 0.46875q-0.671875 0.15625 -1.34375 0.15625z" fill-rule="nonzero"/><path fill="#eeeeee" d="m631.8943 138.03104l0 0c0 -8.11467 6.578186 -14.692909 14.692871 -14.692909l0 0c3.8967896 0 7.634033 1.5480042 10.389465 4.303459c2.7554932 2.7554474 4.303467 6.4926605 4.303467 10.38945l0 0c0 8.114685 -6.578247 14.692917 -14.692932 14.692917l0 0c-8.114685 0 -14.692871 -6.578232 -14.692871 -14.692917z" fill-rule="evenodd"/><path stroke="#4285f4" stroke-width="2.0" stroke-linejoin="round" stroke-linecap="butt" d="m631.8943 138.03104l0 0c0 -8.11467 6.578186 -14.692909 14.692871 -14.692909l0 0c3.8967896 0 7.634033 1.5480042 10.389465 4.303459c2.7554932 2.7554474 4.303467 6.4926605 4.303467 10.38945l0 0c0 8.114685 -6.578247 14.692917 -14.692932 14.692917l0 0c-8.114685 0 -14.692871 -6.578232 -14.692871 -14.692917z" fill-rule="evenodd"/><path fill="#eeeeee" d="m641.8496 88.873566l0 0c0 -8.114677 6.578247 -14.692917 14.692932 -14.692917l0 0c3.8967896 0 7.634033 1.5479965 10.389465 4.3034515c2.7554321 2.7554626 4.303467 6.4926605 4.303467 10.389465l0 0c0 8.11467 -6.578247 14.692909 -14.692932 14.692909l0 0c-8.114685 0 -14.692932 -6.5782394 -14.692932 -14.692909z" fill-rule="evenodd"/><path stroke="#4285f4" stroke-width="2.0" stroke-linejoin="round" stroke-linecap="butt" d="m641.8496 88.873566l0 0c0 -8.114677 6.578247 -14.692917 14.692932 -14.692917l0 0c3.8967896 0 7.634033 1.5479965 10.389465 4.3034515c2.7554321 2.7554626 4.303467 6.4926605 4.303467 10.389465l0 0c0 8.11467 -6.578247 14.692909 -14.692932 14.692909l0 0c-8.114685 0 -14.692932 -6.5782394 -14.692932 -14.692909z" fill-rule="evenodd"/><path fill="#eeeeee" d="m687.6962 138.6907l0 0c0 -15.481369 12.55011 -28.031502 28.031494 -28.031502l0 0c7.434387 0 14.564331 2.953308 19.821228 8.210236c5.256958 5.2569275 8.210266 12.386848 8.210266 19.821266l0 0c0 15.481369 -12.55011 28.031494 -28.031494 28.031494l0 0c-15.481384 0 -28.031494 -12.550125 -28.031494 -28.031494z" fill-rule="evenodd"/><path stroke="#4285f4" stroke-width="2.0" stroke-linejoin="round" stroke-linecap="butt" d="m687.6962 138.6907l0 0c0 -15.481369 12.55011 -28.031502 28.031494 -28.031502l0 0c7.434387 0 14.564331 2.953308 19.821228 8.210236c5.256958 5.2569275 8.210266 12.386848 8.210266 19.821266l0 0c0 15.481369 -12.55011 28.031494 -28.031494 28.031494l0 0c-15.481384 0 -28.031494 -12.550125 -28.031494 -28.031494z" fill-rule="evenodd"/><path fill="#eeeeee" d="m687.6962 57.618523l0 0c0 -15.481369 12.55011 -28.031496 28.031494 -28.031496l0 0c7.434387 0 14.564331 2.95331 19.821228 8.210234c5.256958 5.2569275 8.210266 12.386848 8.210266 19.821262l0 0c0 15.481369 -12.55011 28.031494 -28.031494 28.031494l0 0c-15.481384 0 -28.031494 -12.550125 -28.031494 -28.031494z" fill-rule="evenodd"/><path stroke="#4285f4" stroke-width="2.0" stroke-linejoin="round" stroke-linecap="butt" d="m687.6962 57.618523l0 0c0 -15.481369 12.55011 -28.031496 28.031494 -28.031496l0 0c7.434387 0 14.564331 2.95331 19.821228 8.210234c5.256958 5.2569275 8.210266 12.386848 8.210266 19.821262l0 0c0 15.481369 -12.55011 28.031494 -28.031494 28.031494l0 0c-15.481384 0 -28.031494 -12.550125 -28.031494 -28.031494z" fill-rule="evenodd"/><path fill="#000000" fill-opacity="0.0" d="m163.9148 246.51443l0 181.29135" fill-rule="evenodd"/><path stroke="#595959" stroke-width="1.0" stroke-linejoin="round" stroke-linecap="butt" d="m163.9148 246.51443l0 181.29135" fill-rule="evenodd"/><path fill="#000000" fill-opacity="0.0" d="m206.90161 257.1706l0 170.61417" fill-rule="evenodd"/><path stroke="#595959" stroke-width="1.0" stroke-linejoin="round" stroke-linecap="butt" stroke-dasharray="1.0,3.0" d="m206.90161 257.1706l0 170.61417" fill-rule="evenodd"/><path fill="#000000" fill-opacity="0.0" d="m253.51549 257.1706l0 170.61417" fill-rule="evenodd"/><path stroke="#595959" stroke-width="1.0" stroke-linejoin="round" stroke-linecap="butt" stroke-dasharray="1.0,3.0" d="m253.51549 257.1706l0 170.61417" fill-rule="evenodd"/><path fill="#000000" fill-opacity="0.0" d="m300.12936 257.1706l0 170.61417" fill-rule="evenodd"/><path stroke="#595959" stroke-width="1.0" stroke-linejoin="round" stroke-linecap="butt" stroke-dasharray="1.0,3.0" d="m300.12936 257.1706l0 170.61417" fill-rule="evenodd"/><path fill="#000000" fill-opacity="0.0" d="m338.03128 293.00204l-173.51181 0" fill-rule="evenodd"/><path stroke="#595959" stroke-width="1.0" stroke-linejoin="round" stroke-linecap="butt" stroke-dasharray="1.0,3.0" d="m338.03128 293.00204l-173.51181 0" fill-rule="evenodd"/><path fill="#000000" fill-opacity="0.0" d="m338.03128 339.61588l-173.51181 0" fill-rule="evenodd"/><path stroke="#595959" stroke-width="1.0" stroke-linejoin="round" stroke-linecap="butt" stroke-dasharray="1.0,3.0" d="m338.03128 339.61588l-173.51181 0" fill-rule="evenodd"/><path fill="#000000" fill-opacity="0.0" d="m338.03128 386.22968l-173.51181 0" fill-rule="evenodd"/><path stroke="#595959" stroke-width="1.0" stroke-linejoin="round" stroke-linecap="butt" stroke-dasharray="1.0,3.0" d="m338.03128 386.22968l-173.51181 0" fill-rule="evenodd"/><path fill="#000000" fill-opacity="0.0" d="m344.1642 427.81174l-181.29132 0" fill-rule="evenodd"/><path stroke="#595959" stroke-width="1.0" stroke-linejoin="round" stroke-linecap="butt" d="m344.1642 427.81174l-181.29132 0" fill-rule="evenodd"/><path fill="#4285f4" fill-opacity="0.25" d="m177.81868 407.01987l0 0c0 -4.192169 3.398407 -7.590576 7.590561 -7.590576l0 0c2.0131378 0 3.9438171 0.79971313 5.367325 2.223236c1.4235077 1.4234924 2.2232208 3.354187 2.2232208 5.36734l0 0c0 4.1921387 -3.398407 7.5905457 -7.5905457 7.5905457l0 0c-4.192154 0 -7.590561 -3.398407 -7.590561 -7.5905457z" fill-rule="evenodd"/><path fill="#000000" fill-opacity="0.0" d="m121.13648 441.63583l245.44882 0l0 39.18109l-245.44882 0z" fill-rule="evenodd"/><path fill="#595959" d="m214.03021 468.13388q-1.5 0 -2.734375 -0.5q-1.21875 -0.515625 -2.140625 -1.421875q-0.90625 -0.921875 -1.421875 -2.140625q-0.5 -1.234375 -0.5 -2.703125q0 -1.484375 0.5 -2.703125q0.515625 -1.234375 1.421875 -2.140625q0.921875 -0.921875 2.140625 -1.421875q1.234375 -0.515625 2.71875 -0.515625q1.46875 0 2.703125 0.515625q1.234375 0.5 2.140625 1.421875q0.921875 0.90625 1.40625 2.140625q0.5 1.21875 0.5 2.703125q0 1.453125 -0.5 2.6875q-0.484375 1.234375 -1.40625 2.15625q-0.90625 0.90625 -2.140625 1.421875q-1.234375 0.5 -2.6875 0.5zm-0.015625 -2.984375q0.765625 0 1.40625 -0.28125q0.640625 -0.28125 1.109375 -0.796875q0.484375 -0.515625 0.734375 -1.203125q0.265625 -0.6875 0.265625 -1.5q0 -0.828125 -0.265625 -1.515625q-0.25 -0.6875 -0.734375 -1.203125q-0.46875 -0.515625 -1.109375 -0.796875q-0.640625 -0.28125 -1.40625 -0.28125q-0.765625 0 -1.421875 0.28125q-0.640625 0.28125 -1.125 0.796875q-0.484375 0.515625 -0.734375 1.203125q-0.25 0.6875 -0.25 1.515625q0 0.8125 0.25 1.515625q0.25 0.703125 0.734375 1.203125q0.484375 0.5 1.125 0.78125q0.65625 0.28125 1.421875 0.28125zm8.89888 6.90625l0 -14.015625l2.828125 0l0.109375 2.21875l-0.546875 -0.171875q0.125 -0.609375 0.625 -1.109375q0.5 -0.515625 1.28125 -0.8125q0.78125 -0.3125 1.625 -0.3125q1.28125 0 2.265625 0.671875q0.984375 0.65625 1.546875 1.8125q0.578125 1.140625 0.578125 2.640625q0 1.5 -0.578125 2.65625q-0.5625 1.15625 -1.5625 1.828125q-1.0 0.65625 -2.28125 0.65625q-0.84375 0 -1.609375 -0.3125q-0.765625 -0.328125 -1.28125 -0.859375q-0.515625 -0.546875 -0.6875 -1.1875l0.6875 -0.25l0 6.546875l-3.0 0zm5.171875 -6.453125q0.65625 0 1.15625 -0.328125q0.515625 -0.328125 0.796875 -0.90625q0.28125 -0.578125 0.28125 -1.390625q0 -0.78125 -0.28125 -1.359375q-0.28125 -0.59375 -0.78125 -0.921875q-0.484375 -0.328125 -1.171875 -0.328125q-0.703125 0 -1.203125 0.328125q-0.5 0.3125 -0.78125 0.90625q-0.28125 0.59375 -0.28125 1.375q0 0.8125 0.28125 1.390625q0.28125 0.578125 0.78125 0.90625q0.5 0.328125 1.203125 0.328125zm10.778839 2.515625q-1.25 0 -2.234375 -0.65625q-0.984375 -0.671875 -1.5625 -1.828125q-0.578125 -1.171875 -0.578125 -2.65625q0 -1.5 0.578125 -2.65625q0.578125 -1.15625 1.578125 -1.8125q1.015625 -0.671875 2.3125 -0.671875q0.703125 0 1.28125 0.203125q0.59375 0.203125 1.046875 0.578125q0.453125 0.359375 0.765625 0.84375q0.3125 0.46875 0.46875 1.0l-0.625 -0.078125l0 -2.34375l2.96875 0l0 9.90625l-3.015625 0l0 -2.390625l0.671875 -0.015625q-0.15625 0.515625 -0.5 0.984375q-0.328125 0.46875 -0.8125 0.828125q-0.484375 0.34375 -1.078125 0.5625q-0.59375 0.203125 -1.265625 0.203125zm0.8125 -2.515625q0.703125 0 1.203125 -0.3125q0.5 -0.328125 0.78125 -0.90625q0.28125 -0.59375 0.28125 -1.40625q0 -0.796875 -0.28125 -1.375q-0.28125 -0.59375 -0.78125 -0.921875q-0.5 -0.328125 -1.203125 -0.328125q-0.671875 0 -1.171875 0.328125q-0.484375 0.328125 -0.765625 0.921875q-0.28125 0.578125 -0.28125 1.375q0 0.8125 0.28125 1.40625q0.28125 0.578125 0.765625 0.90625q0.5 0.3125 1.171875 0.3125zm12.169464 2.53125q-1.4375 0 -2.578125 -0.671875q-1.140625 -0.671875 -1.796875 -1.828125q-0.65625 -1.171875 -0.65625 -2.65625q0 -1.46875 0.65625 -2.625q0.65625 -1.171875 1.796875 -1.84375q1.140625 -0.671875 2.578125 -0.671875q1.328125 0 2.4375 0.46875q1.109375 0.46875 1.7656097 1.296875l-1.6249847 1.9375q-0.265625 -0.296875 -0.625 -0.546875q-0.34375 -0.265625 -0.78125 -0.40625q-0.421875 -0.15625 -0.890625 -0.15625q-0.703125 0 -1.25 0.328125q-0.546875 0.328125 -0.84375 0.90625q-0.296875 0.578125 -0.296875 1.3125q0 0.71875 0.296875 1.296875q0.3125 0.578125 0.859375 0.921875q0.546875 0.328125 1.234375 0.328125q0.484375 0 0.890625 -0.125q0.40625 -0.125 0.75 -0.359375q0.359375 -0.25 0.65625 -0.59375l1.5937347 1.953125q-0.62498474 0.796875 -1.7656097 1.265625q-1.125 0.46875 -2.40625 0.46875zm5.9957733 -0.1875l0 -9.90625l2.984375 0l0 9.90625l-2.984375 0zm1.484375 -11.859375q-0.84375 0 -1.328125 -0.40625q-0.46875 -0.40625 -0.46875 -1.140625q0 -0.671875 0.484375 -1.09375q0.5 -0.4375 1.3125 -0.4375q0.84375 0 1.296875 0.40625q0.46875 0.390625 0.46875 1.125q0 0.6875 -0.46875 1.125q-0.46875 0.421875 -1.296875 0.421875zm5.107605 11.859375l0 -12.40625l2.984375 0l0 12.40625l-2.984375 0zm-1.75 -7.296875l0 -2.609375l6.65625 0l0 2.609375l-6.65625 0zm9.612671 11.59375l2.25 -5.328125l0.046875 1.53125l-4.78125 -10.40625l3.375 0l2.09375 4.984375q0.171875 0.375 0.3125 0.8125q0.15625 0.421875 0.21875 0.8125l-0.40625 0.234375q0.109375 -0.28125 0.25 -0.6875q0.140625 -0.421875 0.3125 -0.921875l1.828125 -5.234375l3.390625 0l-4.21875 9.90625l-1.703125 4.296875l-2.96875 0z" fill-rule="nonzero"/><path fill="#4285f4" fill-opacity="0.25" d="m201.12447 362.92273l0 0c0 -4.1921387 3.3983917 -7.5905457 7.5905457 -7.5905457l0 0c2.0131378 0 3.9438171 0.79971313 5.367325 2.223236c1.4235077 1.4234924 2.2232208 3.354187 2.2232208 5.3673096l0 0c0 4.192169 -3.398407 7.5905457 -7.5905457 7.5905457l0 0c-4.192154 0 -7.5905457 -3.3983765 -7.5905457 -7.5905457z" fill-rule="evenodd"/><path fill="#4285f4" fill-opacity="0.5" d="m226.61133 393.82037l0 0c0 -4.1921387 3.398407 -7.5905457 7.590561 -7.5905457l0 0c2.0131378 0 3.9438171 0.79971313 5.367325 2.2232056c1.4235077 1.423523 2.2232208 3.3542175 2.2232208 5.36734l0 0c0 4.1921387 -3.398407 7.5905457 -7.5905457 7.5905457l0 0c-4.192154 0 -7.590561 -3.398407 -7.590561 -7.5905457z" fill-rule="evenodd"/><path fill="#4285f4" fill-opacity="0.5" d="m243.68483 347.2062l0 0c0 -4.1921387 3.398407 -7.5905457 7.5905457 -7.5905457l0 0c2.0131378 0 3.9438324 0.79971313 5.367325 2.2232056c1.423523 1.423523 2.223236 3.354187 2.223236 5.36734l0 0c0 4.1921387 -3.398407 7.5905457 -7.590561 7.5905457l0 0c-4.1921387 0 -7.5905457 -3.398407 -7.5905457 -7.5905457z" fill-rule="evenodd"/><path fill="#4285f4" fill-opacity="0.75" d="m269.23074 316.30856l0 0c0 -4.1921387 3.398407 -7.5905457 7.590576 -7.5905457l0 0c2.0131226 0 3.9438171 0.79971313 5.3673096 2.2232056c1.423523 1.423523 2.223236 3.3542175 2.223236 5.36734l0 0c0 4.1921387 -3.398407 7.5905457 -7.5905457 7.5905457l0 0c-4.192169 0 -7.590576 -3.398407 -7.590576 -7.5905457z" fill-rule="evenodd"/><path fill="#4285f4" fill-opacity="0.75" d="m282.87906 362.92273l0 0c0 -4.1921387 3.398407 -7.5905457 7.5905457 -7.5905457l0 0c2.013153 0 3.9438171 0.79971313 5.36734 2.223236c1.4234924 1.4234924 2.2232056 3.354187 2.2232056 5.3673096l0 0c0 4.192169 -3.398407 7.5905457 -7.5905457 7.5905457l0 0c-4.1921387 0 -7.5905457 -3.3983765 -7.5905457 -7.5905457z" fill-rule="evenodd"/><path fill="#4285f4" d="m315.84494 305.2167l0 0c0 -4.1921387 3.398407 -7.5905457 7.5905457 -7.5905457l0 0c2.0131226 0 3.9438171 0.79971313 5.36734 2.2232056c1.4234924 1.423523 2.2232056 3.354187 2.2232056 5.36734l0 0c0 4.1921387 -3.398407 7.5905457 -7.5905457 7.5905457l0 0c-4.1921387 0 -7.5905457 -3.398407 -7.5905457 -7.5905457z" fill-rule="evenodd"/><path fill="#000000" fill-opacity="0.0" d="m466.5316 246.51443l0 181.29135" fill-rule="evenodd"/><path stroke="#595959" stroke-width="1.0" stroke-linejoin="round" stroke-linecap="butt" d="m466.5316 246.51443l0 181.29135" fill-rule="evenodd"/><path fill="#000000" fill-opacity="0.0" d="m509.5184 257.1706l0 170.61417" fill-rule="evenodd"/><path stroke="#595959" stroke-width="1.0" stroke-linejoin="round" stroke-linecap="butt" stroke-dasharray="1.0,3.0" d="m509.5184 257.1706l0 170.61417" fill-rule="evenodd"/><path fill="#000000" fill-opacity="0.0" d="m556.13226 257.1706l0 170.61417" fill-rule="evenodd"/><path stroke="#595959" stroke-width="1.0" stroke-linejoin="round" stroke-linecap="butt" stroke-dasharray="1.0,3.0" d="m556.13226 257.1706l0 170.61417" fill-rule="evenodd"/><path fill="#000000" fill-opacity="0.0" d="m602.74615 257.1706l0 170.61417" fill-rule="evenodd"/><path stroke="#595959" stroke-width="1.0" stroke-linejoin="round" stroke-linecap="butt" stroke-dasharray="1.0,3.0" d="m602.74615 257.1706l0 170.61417" fill-rule="evenodd"/><path fill="#000000" fill-opacity="0.0" d="m640.6481 293.00204l-173.51181 0" fill-rule="evenodd"/><path stroke="#595959" stroke-width="1.0" stroke-linejoin="round" stroke-linecap="butt" stroke-dasharray="1.0,3.0" d="m640.6481 293.00204l-173.51181 0" fill-rule="evenodd"/><path fill="#000000" fill-opacity="0.0" d="m640.6481 339.61588l-173.51181 0" fill-rule="evenodd"/><path stroke="#595959" stroke-width="1.0" stroke-linejoin="round" stroke-linecap="butt" stroke-dasharray="1.0,3.0" d="m640.6481 339.61588l-173.51181 0" fill-rule="evenodd"/><path fill="#000000" fill-opacity="0.0" d="m640.6481 386.22968l-173.51181 0" fill-rule="evenodd"/><path stroke="#595959" stroke-width="1.0" stroke-linejoin="round" stroke-linecap="butt" stroke-dasharray="1.0,3.0" d="m640.6481 386.22968l-173.51181 0" fill-rule="evenodd"/><path fill="#000000" fill-opacity="0.0" d="m646.781 427.81174l-181.29132 0" fill-rule="evenodd"/><path stroke="#595959" stroke-width="1.0" stroke-linejoin="round" stroke-linecap="butt" d="m646.781 427.81174l-181.29132 0" fill-rule="evenodd"/><path fill="#000000" fill-opacity="0.0" d="m423.7533 441.63583l245.44879 0l0 39.18109l-245.44879 0z" fill-rule="evenodd"/><path fill="#595959" d="m524.627 467.94638l0 -13.0625l3.171875 0l0 13.0625l-3.171875 0zm-8.09375 0l0 -13.0625l3.171875 0l0 13.0625l-3.171875 0zm1.234375 -5.09375l0.015625 -2.828125l8.53125 0l0 2.828125l-8.546875 0zm17.70514 5.28125q-1.640625 0 -2.859375 -0.65625q-1.203125 -0.671875 -1.875 -1.8125q-0.671875 -1.15625 -0.671875 -2.625q0 -1.140625 0.359375 -2.09375q0.375 -0.953125 1.046875 -1.640625q0.671875 -0.703125 1.59375 -1.078125q0.9375 -0.390625 2.03125 -0.390625q1.046875 0 1.90625 0.375q0.875 0.375 1.5 1.046875q0.640625 0.671875 0.96875 1.59375q0.34375 0.90625 0.3125 1.984375l-0.03125 0.796875l-7.890625 0l-0.421875 -1.671875l5.890625 0l-0.3125 0.34375l0 -0.359375q-0.03125 -0.46875 -0.296875 -0.828125q-0.25 -0.375 -0.65625 -0.578125q-0.40625 -0.203125 -0.9375 -0.203125q-0.71875 0 -1.234375 0.296875q-0.515625 0.28125 -0.78125 0.828125q-0.25 0.546875 -0.25 1.359375q0 0.8125 0.34375 1.421875q0.34375 0.609375 1.0 0.953125q0.671875 0.328125 1.578125 0.328125q0.640625 0 1.125 -0.1875q0.5 -0.1875 1.078125 -0.640625l1.40625 1.984375q-0.578125 0.5 -1.234375 0.828125q-0.65625 0.3125 -1.34375 0.46875q-0.671875 0.15625 -1.34375 0.15625zm6.385681 -0.1875l0 -9.90625l2.984375 0l0 9.90625l-2.984375 0zm1.484375 -11.859375q-0.84375 0 -1.328125 -0.40625q-0.46875 -0.40625 -0.46875 -1.140625q0 -0.671875 0.484375 -1.09375q0.5 -0.4375 1.3125 -0.4375q0.84375 0 1.296875 0.40625q0.46875 0.390625 0.46875 1.125q0 0.6875 -0.46875 1.125q-0.46875 0.421875 -1.296875 0.421875zm8.826355 16.15625q-1.21875 0 -2.421875 -0.359375q-1.203125 -0.359375 -1.9375 -0.921875l1.03125 -2.078125q0.390625 0.25 0.859375 0.4375q0.484375 0.203125 1.0 0.3125q0.53125 0.125 1.078125 0.125q0.953125 0 1.546875 -0.28125q0.59375 -0.28125 0.890625 -0.859375q0.296875 -0.5625 0.296875 -1.421875l0 -1.65625l0.578125 0.09375q-0.125 0.609375 -0.640625 1.125q-0.515625 0.5 -1.265625 0.8125q-0.734375 0.296875 -1.578125 0.296875q-1.34375 0 -2.40625 -0.625q-1.046875 -0.625 -1.65625 -1.734375q-0.59375 -1.109375 -0.59375 -2.5625q0 -1.5 0.59375 -2.640625q0.59375 -1.140625 1.640625 -1.796875q1.046875 -0.671875 2.34375 -0.671875q0.5625 0 1.078125 0.140625q0.515625 0.125 0.953125 0.34375q0.4375 0.203125 0.78125 0.5q0.34375 0.28125 0.5625 0.625q0.21875 0.328125 0.28125 0.6875l-0.609375 0.140625l0.109375 -2.234375l2.84375 0l0 9.109375q0 1.203125 -0.375 2.140625q-0.359375 0.953125 -1.0625 1.609375q-0.703125 0.671875 -1.6875 1.0q-0.984375 0.34375 -2.234375 0.34375zm0.078125 -6.6875q0.71875 0 1.25 -0.328125q0.53125 -0.328125 0.8125 -0.90625q0.296875 -0.578125 0.296875 -1.359375q0 -0.78125 -0.296875 -1.359375q-0.28125 -0.59375 -0.8125 -0.921875q-0.53125 -0.328125 -1.25 -0.328125q-0.71875 0 -1.25 0.328125q-0.515625 0.328125 -0.8125 0.921875q-0.28125 0.578125 -0.28125 1.359375q0 0.78125 0.28125 1.359375q0.296875 0.578125 0.8125 0.90625q0.53125 0.328125 1.25 0.328125zm7.871643 2.390625l0 -13.8125l2.921875 0l0 5.921875l-0.59375 0.21875q0.203125 -0.671875 0.734375 -1.21875q0.53125 -0.546875 1.28125 -0.875q0.75 -0.34375 1.5625 -0.34375q1.125 0 1.890625 0.453125q0.765625 0.453125 1.15625 1.359375q0.390625 0.90625 0.390625 2.21875l0 6.078125l-3.0 0l0 -5.84375q0 -0.59375 -0.171875 -0.984375q-0.171875 -0.390625 -0.515625 -0.578125q-0.34375 -0.203125 -0.84375 -0.1875q-0.390625 0 -0.734375 0.125q-0.328125 0.125 -0.578125 0.359375q-0.234375 0.21875 -0.375 0.53125q-0.140625 0.296875 -0.140625 0.640625l0 5.9375l-1.484375 0q-0.515625 0 -0.890625 0q-0.375 0 -0.609375 0zm12.659241 0l0 -12.40625l2.984375 0l0 12.40625l-2.984375 0zm-1.75 -7.296875l0 -2.609375l6.65625 0l0 2.609375l-6.65625 0z" fill-rule="nonzero"/><path fill="#4285f4" d="m487.2467 340.31497l29.385864 0l0 87.49606l-29.385864 0z" fill-rule="evenodd"/><path fill="#4285f4" d="m544.9974 371.74802l29.385803 0l0 56.06302l-29.385803 0z" fill-rule="evenodd"/><path fill="#4285f4" d="m602.74805 285.60104l29.385803 0l0 142.20474l-29.385803 0z" fill-rule="evenodd"/></g></svg>