<svg version="1.1" viewBox="0.0 0.0 295.8582677165354 139.83989501312337" fill="none" stroke="none" stroke-linecap="square" stroke-miterlimit="10" xmlns:xlink="http://www.w3.org/1999/xlink" xmlns="http://www.w3.org/2000/svg"><clipPath id="p.0"><path d="m0 0l295.85828 0l0 139.83989l-295.85828 0l0 -139.83989z" clip-rule="nonzero"/></clipPath><g clip-path="url(#p.0)"><path fill="#000000" fill-opacity="0.0" d="m0 0l295.85828 0l0 139.83989l-295.85828 0z" fill-rule="evenodd"/><path fill="#000000" fill-opacity="0.0" d="m78.456696 4.632546l143.1496 0l0 38.299213l-143.1496 0z" fill-rule="evenodd"/><path fill="#595959" d="m96.28482 32.422153l2.890625 -16.796877l3.375 0l-2.875 16.796877l-3.390625 0zm-7.671875 -3.593752l0 -3.109375l14.4375 0l0 3.109375l-14.4375 0zm1.390625 3.593752l2.875 -16.796877l3.390625 0l-2.890625 16.796877l-3.375 0zm-0.484375 -10.312502l0 -3.109375l14.421875 0l0 3.109375l-14.421875 0zm27.522202 10.312502l-5.203125 -7.531252l-6.671875 -9.265625l4.96875 0l5.09375 7.4375l6.78125 9.359377l-4.96875 0zm-12.0 0l6.421875 -9.140627l3.28125 1.890625l-4.96875 7.250002l-4.734375 0zm10.5625 -7.796877l-3.265625 -1.828125l4.703125 -7.171875l4.734375 0l-6.171875 9.0zm18.357452 7.796877l-5.203125 -7.531252l-6.671875 -9.265625l4.96875 0l5.09375 7.4375l6.78125 9.359377l-4.96875 0zm-12.0 0l6.421875 -9.140627l3.28125 1.890625l-4.96875 7.250002l-4.734375 0zm10.5625 -7.796877l-3.265625 -1.828125l4.703125 -7.171875l4.734375 0l-6.171875 9.0zm18.357452 7.796877l-5.203125 -7.531252l-6.671875 -9.265625l4.96875 0l5.09375 7.4375l6.78125 9.359377l-4.96875 0zm-12.0 0l6.421875 -9.140627l3.28125 1.890625l-4.96875 7.250002l-4.734375 0zm10.5625 -7.796877l-3.265625 -1.828125l4.703125 -7.171875l4.734375 0l-6.171875 9.0zm18.357452 7.796877l-5.203125 -7.531252l-6.671875 -9.265625l4.96875 0l5.09375 7.4375l6.78125 9.359377l-4.96875 0zm-12.0 0l6.421875 -9.140627l3.28125 1.890625l-4.96875 7.250002l-4.734375 0zm10.5625 -7.796877l-3.265625 -1.828125l4.703125 -7.171875l4.734375 0l-6.171875 9.0zm18.357452 7.796877l-5.203125 -7.531252l-6.671875 -9.265625l4.96875 0l5.09375 7.4375l6.78125 9.359377l-4.96875 0zm-12.0 0l6.421875 -9.140627l3.28125 1.890625l-4.96875 7.250002l-4.734375 0zm10.5625 -7.796877l-3.265625 -1.828125l4.703125 -7.171875l4.734375 0l-6.171875 9.0zm18.357452 7.796877l-5.203125 -7.531252l-6.671875 -9.265625l4.96875 0l5.09375 7.4375l6.78125 9.359377l-4.96875 0zm-12.0 0l6.421875 -9.140627l3.28125 1.890625l-4.96875 7.250002l-4.734375 0zm10.5625 -7.796877l-3.265625 -1.828125l4.703125 -7.171875l4.734375 0l-6.171875 9.0z" fill-rule="nonzero"/><path fill="#000000" fill-opacity="0.0" d="m105.91076 8.672024l0 0c0 -2.9774685 2.4137192 -5.391184 5.3911896 -5.391184l21.56408 0l0 0c1.4298401 0 2.8011017 0.5679982 3.812149 1.579041c1.0110474 1.0110431 1.5790405 2.3823118 1.5790405 3.8121428l0 27.516846c0 2.9774666 -2.4137115 5.391182 -5.3911896 5.391182l-21.56408 0c-2.9774704 0 -5.3911896 -2.4137154 -5.3911896 -5.391182z" fill-rule="evenodd"/><path stroke="#0000ff" stroke-width="3.0" stroke-linejoin="round" stroke-linecap="butt" d="m105.91076 8.672024l0 0c0 -2.9774685 2.4137192 -5.391184 5.3911896 -5.391184l21.56408 0l0 0c1.4298401 0 2.8011017 0.5679982 3.812149 1.579041c1.0110474 1.0110431 1.5790405 2.3823118 1.5790405 3.8121428l0 27.516846c0 2.9774666 -2.4137115 5.391182 -5.3911896 5.391182l-21.56408 0c-2.9774704 0 -5.3911896 -2.4137154 -5.3911896 -5.391182z" fill-rule="evenodd"/><path fill="#000000" fill-opacity="0.0" d="m138.25722 8.672024l0 0c0 -2.9774685 2.4137115 -5.391184 5.3911896 -5.391184l21.564087 0l0 0c1.4298248 0 2.8011017 0.5679982 3.8121338 1.579041c1.0110474 1.0110431 1.5790405 2.3823118 1.5790405 3.8121428l0 27.516846c0 2.9774666 -2.4137115 5.391182 -5.3911743 5.391182l-21.564087 0c-2.977478 0 -5.3911896 -2.4137154 -5.3911896 -5.391182z" fill-rule="evenodd"/><path stroke="#0000ff" stroke-width="3.0" stroke-linejoin="round" stroke-linecap="butt" d="m138.25722 8.672024l0 0c0 -2.9774685 2.4137115 -5.391184 5.3911896 -5.391184l21.564087 0l0 0c1.4298248 0 2.8011017 0.5679982 3.8121338 1.579041c1.0110474 1.0110431 1.5790405 2.3823118 1.5790405 3.8121428l0 27.516846c0 2.9774666 -2.4137115 5.391182 -5.3911743 5.391182l-21.564087 0c-2.977478 0 -5.3911896 -2.4137154 -5.3911896 -5.391182z" fill-rule="evenodd"/><path fill="#000000" fill-opacity="0.0" d="m170.60367 8.672024l0 0c0 -2.9774685 2.4137268 -5.391184 5.3911896 -5.391184l21.564087 0l0 0c1.4298401 0 2.8011017 0.5679982 3.812149 1.579041c1.0110321 1.0110431 1.5790405 2.3823118 1.5790405 3.8121428l0 27.516846c0 2.9774666 -2.4137115 5.391182 -5.3911896 5.391182l-21.564087 0c-2.9774628 0 -5.3911896 -2.4137154 -5.3911896 -5.391182z" fill-rule="evenodd"/><path stroke="#0000ff" stroke-width="3.0" stroke-linejoin="round" stroke-linecap="butt" d="m170.60367 8.672024l0 0c0 -2.9774685 2.4137268 -5.391184 5.3911896 -5.391184l21.564087 0l0 0c1.4298401 0 2.8011017 0.5679982 3.812149 1.579041c1.0110321 1.0110431 1.5790405 2.3823118 1.5790405 3.8121428l0 27.516846c0 2.9774666 -2.4137115 5.391182 -5.3911896 5.391182l-21.564087 0c-2.9774628 0 -5.3911896 -2.4137154 -5.3911896 -5.391182z" fill-rule="evenodd"/><path fill="#000000" fill-opacity="0.0" d="m0 72.71129l78.456696 0l0 28.818893l-78.456696 0z" fill-rule="evenodd"/><path fill="#595959" d="m18.847784 95.760735l0 -16.796875l7.140625 0q1.4375 0 2.65625 0.703125q1.21875 0.703125 1.9375 1.921875q0.71875 1.21875 0.71875 2.71875q0 1.375 -0.71875 2.546875q-0.71875 1.171875 -1.921875 1.890625q-1.203125 0.703125 -2.671875 0.703125l-4.5625 0l0 6.3125l-2.578125 0zm9.984375 0l-4.28125 -7.578125l2.671875 -0.609375l4.75 8.21875l-3.140625 -0.03125zm-7.40625 -8.8125l4.8125 0q0.6875 0 1.234375 -0.34375q0.5625 -0.34375 0.875 -0.953125q0.3125 -0.625 0.3125 -1.359375q0 -0.84375 -0.40625 -1.46875q-0.390625 -0.640625 -1.109375 -1.0q-0.703125 -0.359375 -1.578125 -0.359375l-4.140625 0l0 5.484375zm18.871828 9.046875q-1.953125 0 -3.453125 -0.828125q-1.5 -0.828125 -2.359375 -2.265625q-0.84375 -1.4375 -0.84375 -3.3125q0 -1.484375 0.484375 -2.703125q0.484375 -1.234375 1.328125 -2.125q0.859375 -0.90625 2.046875 -1.390625q1.1875 -0.5 2.578125 -0.5q1.21875 0 2.28125 0.46875q1.0625 0.46875 1.828125 1.296875q0.78125 0.8125 1.203125 1.921875q0.421875 1.109375 0.40625 2.4375l-0.03125 1.046875l-10.296875 0l-0.546875 -1.96875l8.703125 0l-0.359375 0.421875l0 -0.578125q-0.0625 -0.796875 -0.53125 -1.421875q-0.453125 -0.625 -1.15625 -0.984375q-0.6875 -0.359375 -1.5 -0.359375q-1.296875 0 -2.1875 0.5q-0.890625 0.484375 -1.34375 1.4375q-0.453125 0.9375 -0.453125 2.328125q0 1.328125 0.546875 2.296875q0.5625 0.96875 1.5625 1.5q1.015625 0.53125 2.328125 0.53125q0.9375 0 1.734375 -0.3125q0.8125 -0.3125 1.75 -1.125l1.25 1.75q-0.578125 0.578125 -1.40625 1.015625q-0.828125 0.421875 -1.75 0.671875q-0.921875 0.25 -1.8125 0.25zm13.438965 0q-1.734375 0 -3.09375 -0.84375q-1.34375 -0.859375 -2.140625 -2.328125q-0.796875 -1.484375 -0.796875 -3.375q0 -1.890625 0.78125 -3.359375q0.78125 -1.484375 2.125 -2.328125q1.34375 -0.859375 3.046875 -0.859375q0.9375 0 1.8125 0.296875q0.875 0.296875 1.5625 0.8125q0.703125 0.515625 1.09375 1.125q0.40625 0.609375 0.40625 1.234375l-0.71875 0.046875l0 -8.421875l2.46875 0l0 17.765625l-2.46875 0l0 -3.0l0.484375 0q0 0.578125 -0.390625 1.140625q-0.375 0.5625 -1.015625 1.046875q-0.640625 0.46875 -1.46875 0.765625q-0.828125 0.28125 -1.6875 0.28125zm0.328125 -2.125q1.140625 0 2.0 -0.578125q0.859375 -0.578125 1.34375 -1.578125q0.5 -1.0 0.5 -2.265625q0 -1.265625 -0.5 -2.265625q-0.484375 -1.0 -1.34375 -1.578125q-0.859375 -0.578125 -2.0 -0.578125q-1.125 0 -1.984375 0.578125q-0.859375 0.578125 -1.359375 1.578125q-0.484375 1.0 -0.484375 2.265625q0 1.265625 0.484375 2.265625q0.5 1.0 1.359375 1.578125q0.859375 0.578125 1.984375 0.578125z" fill-rule="nonzero"/><path fill="#000000" fill-opacity="0.0" d="m107.091866 109.67191l94.67716 0l0 28.818901l-94.67716 0z" fill-rule="evenodd"/><path fill="#595959" d="m129.32193 132.95573q-1.8125076 0 -3.4062576 -0.65625q-1.578125 -0.65625 -2.78125 -1.828125q-1.203125 -1.1875 -1.859375 -2.7499924q-0.65625 -1.578125 -0.65625 -3.40625q0 -1.796875 0.65625 -3.34375q0.65625 -1.5625 1.84375 -2.71875q1.1875 -1.171875 2.765625 -1.8125q1.59375 -0.65625 3.4218826 -0.65625q1.265625 0 2.46875 0.359375q1.21875 0.359375 2.203125 1.015625q0.984375 0.640625 1.609375 1.46875l-1.671875 1.75q-0.71875 -0.6875 -1.484375 -1.140625q-0.75 -0.453125 -1.546875 -0.6875q-0.796875 -0.25 -1.578125 -0.25q-1.296875 0 -2.3906326 0.453125q-1.09375 0.453125 -1.921875 1.28125q-0.828125 0.8125 -1.28125 1.90625q-0.453125 1.078125 -0.453125 2.375q0 1.25 0.46875 2.375q0.484375 1.109375 1.328125 1.9531174q0.859375 0.84375 1.96875 1.328125q1.1250076 0.46875 2.3750076 0.46875q0.9375 0 1.765625 -0.265625q0.84375 -0.28125 1.484375 -0.78125q0.65625 -0.515625 1.015625 -1.171875q0.359375 -0.6562424 0.359375 -1.4062424l0 -0.484375l0.359375 0.34375l-5.125 0l0 -2.5625l7.4375 0q0.046875 0.25 0.0625 0.515625q0.03125 0.25 0.046875 0.484375q0.015625 0.21875 0.015625 0.4375q0 1.65625 -0.578125 3.0156174q-0.578125 1.34375 -1.609375 2.328125q-1.015625 0.984375 -2.375 1.53125q-1.34375 0.53125 -2.9375 0.53125zm10.258942 -0.234375l0 -12.593742l2.484375 0l0 3.953125l-0.234375 -0.953125q0.265625 -0.921875 0.890625 -1.65625q0.640625 -0.75 1.46875 -1.171875q0.828125 -0.4375 1.71875 -0.4375q0.40625 0 0.78125 0.078125q0.375 0.0625 0.59375 0.15625l-0.65625 2.6875q-0.28125 -0.125 -0.640625 -0.203125q-0.34375 -0.078125 -0.671875 -0.078125q-0.65625 0 -1.25 0.25q-0.578125 0.25 -1.03125 0.703125q-0.4375 0.4375 -0.703125 1.03125q-0.265625 0.578125 -0.265625 1.28125l0 6.9531174l-2.484375 0zm15.018967 0.234375q-1.953125 0 -3.453125 -0.828125q-1.5 -0.828125 -2.359375 -2.265625q-0.84375 -1.4375 -0.84375 -3.3124924q0 -1.484375 0.484375 -2.703125q0.484375 -1.234375 1.328125 -2.125q0.859375 -0.90625 2.046875 -1.390625q1.1875 -0.5 2.578125 -0.5q1.21875 0 2.28125 0.46875q1.0625 0.46875 1.828125 1.296875q0.78125 0.8125 1.203125 1.921875q0.421875 1.109375 0.40625 2.4375l-0.03125 1.046875l-10.296875 0l-0.546875 -1.96875l8.703125 0l-0.359375 0.421875l0 -0.578125q-0.0625 -0.796875 -0.53125 -1.421875q-0.453125 -0.625 -1.15625 -0.984375q-0.6875 -0.359375 -1.5 -0.359375q-1.296875 0 -2.1875 0.5q-0.890625 0.484375 -1.34375 1.4375q-0.453125 0.9375 -0.453125 2.328125q0 1.328125 0.546875 2.2968674q0.5625 0.96875 1.5625 1.5q1.015625 0.53125 2.328125 0.53125q0.9375 0 1.734375 -0.3125q0.8125 -0.3125 1.75 -1.125l1.25 1.75q-0.578125 0.578125 -1.40625 1.015625q-0.828125 0.421875 -1.75 0.671875q-0.921875 0.25 -1.8125 0.25zm14.063965 0q-1.953125 0 -3.453125 -0.828125q-1.5 -0.828125 -2.359375 -2.265625q-0.84375 -1.4375 -0.84375 -3.3124924q0 -1.484375 0.484375 -2.703125q0.484375 -1.234375 1.328125 -2.125q0.859375 -0.90625 2.046875 -1.390625q1.1875 -0.5 2.578125 -0.5q1.21875 0 2.28125 0.46875q1.0624847 0.46875 1.8281097 1.296875q0.78125 0.8125 1.203125 1.921875q0.421875 1.109375 0.40625 2.4375l-0.03125 1.046875l-10.29686 0l-0.546875 -1.96875l8.70311 0l-0.359375 0.421875l0 -0.578125q-0.0625 -0.796875 -0.53125 -1.421875q-0.45310974 -0.625 -1.1562347 -0.984375q-0.6875 -0.359375 -1.5 -0.359375q-1.296875 0 -2.1875 0.5q-0.890625 0.484375 -1.34375 1.4375q-0.453125 0.9375 -0.453125 2.328125q0 1.328125 0.546875 2.2968674q0.5625 0.96875 1.5625 1.5q1.015625 0.53125 2.328125 0.53125q0.9375 0 1.734375 -0.3125q0.81248474 -0.3125 1.7499847 -1.125l1.25 1.75q-0.578125 0.578125 -1.40625 1.015625q-0.828125 0.421875 -1.7499847 0.671875q-0.921875 0.25 -1.8125 0.25zm8.18895 -0.234375l0 -12.593742l2.46875 0l0 2.578125l-0.4375 0.296875q0.25 -0.84375 0.9375 -1.546875q0.703125 -0.703125 1.65625 -1.140625q0.953125 -0.453125 1.96875 -0.453125q1.4375 0 2.390625 0.5625q0.96875 0.5625 1.4375 1.71875q0.484375 1.140625 0.484375 2.890625l0 7.6874924l-2.46875 0l0 -7.5156174q0 -1.078125 -0.296875 -1.78125q-0.28125 -0.71875 -0.875 -1.03125q-0.59375 -0.328125 -1.484375 -0.28125q-0.71875 0 -1.328125 0.234375q-0.59375 0.21875 -1.046875 0.625q-0.4375 0.40625 -0.6875 0.953125q-0.25 0.546875 -0.25 1.171875l0 7.6249924l-1.234375 0q-0.3125 0 -0.625 0q-0.296875 0 -0.609375 0z" fill-rule="nonzero"/><path fill="#000000" fill-opacity="0.0" d="m221.6063 72.71129l78.456696 0l0 28.818893l-78.456696 0z" fill-rule="evenodd"/><path fill="#595959" d="m237.81409 95.760735l0 -16.796875l7.0 0q1.609375 0 2.703125 0.484375q1.109375 0.46875 1.671875 1.421875q0.5625 0.953125 0.5625 2.3125q0 1.375 -0.75 2.34375q-0.75 0.953125 -2.09375 1.3125l0 -0.484375q1.125 0.234375 1.953125 0.859375q0.84375 0.609375 1.3125 1.515625q0.46875 0.90625 0.46875 2.09375q0 1.1875 -0.375 2.125q-0.359375 0.921875 -1.09375 1.546875q-0.734375 0.625 -1.765625 0.953125q-1.03125 0.3125 -2.359375 0.3125l-7.234375 0zm2.578125 -2.5l4.515625 0q0.984375 0 1.671875 -0.28125q0.6875 -0.296875 1.046875 -0.859375q0.375 -0.5625 0.375 -1.34375q0 -0.75 -0.390625 -1.28125q-0.390625 -0.53125 -1.125 -0.796875q-0.71875 -0.28125 -1.6875 -0.28125l-4.40625 0l0 4.84375zm0 -7.34375l4.28125 0q0.71875 0 1.28125 -0.28125q0.5625 -0.296875 0.890625 -0.796875q0.328125 -0.5 0.328125 -1.15625q0 -1.078125 -0.734375 -1.640625q-0.71875 -0.578125 -2.0625 -0.578125l-3.984375 0l0 4.453125zm13.115692 9.84375l0 -17.765625l2.46875 0l0 17.765625l-2.46875 0zm10.263367 0.234375q-1.34375 0 -2.34375 -0.625q-0.984375 -0.625 -1.53125 -1.75q-0.53125 -1.125 -0.53125 -2.6875l0 -7.765625l2.46875 0l0 7.09375q0 1.109375 0.34375 1.921875q0.34375 0.796875 1.0 1.234375q0.671875 0.421875 1.609375 0.421875q0.6875 0 1.265625 -0.21875q0.578125 -0.234375 1.0 -0.640625q0.421875 -0.40625 0.65625 -0.984375q0.234375 -0.578125 0.234375 -1.25l0 -7.578125l2.484375 0l0 12.59375l-2.484375 0l0 -2.640625l0.4375 -0.28125q-0.28125 0.875 -0.96875 1.609375q-0.6875 0.71875 -1.625 1.140625q-0.9375 0.40625 -2.015625 0.40625zm15.9887085 0q-1.953125 0 -3.453125 -0.828125q-1.5 -0.828125 -2.359375 -2.265625q-0.84375 -1.4375 -0.84375 -3.3125q0 -1.484375 0.484375 -2.703125q0.484375 -1.234375 1.328125 -2.125q0.859375 -0.90625 2.046875 -1.390625q1.1875 -0.5 2.578125 -0.5q1.21875 0 2.28125 0.46875q1.0625 0.46875 1.828125 1.296875q0.78125 0.8125 1.203125 1.921875q0.421875 1.109375 0.40625 2.4375l-0.03125 1.046875l-10.296875 0l-0.546875 -1.96875l8.703125 0l-0.359375 0.421875l0 -0.578125q-0.0625 -0.796875 -0.53125 -1.421875q-0.453125 -0.625 -1.15625 -0.984375q-0.6875 -0.359375 -1.5 -0.359375q-1.296875 0 -2.1875 0.5q-0.890625 0.484375 -1.34375 1.4375q-0.453125 0.9375 -0.453125 2.328125q0 1.328125 0.546875 2.296875q0.5625 0.96875 1.5625 1.5q1.015625 0.53125 2.328125 0.53125q0.9375 0 1.734375 -0.3125q0.8125 -0.3125 1.75 -1.125l1.25 1.75q-0.578125 0.578125 -1.40625 1.015625q-0.828125 0.421875 -1.75 0.671875q-0.921875 0.25 -1.8125 0.25z" fill-rule="nonzero"/><path fill="#000000" fill-opacity="0.0" d="m39.228348 72.71129l82.86614 -31.118114" fill-rule="evenodd"/><path stroke="#595959" stroke-width="2.0" stroke-linejoin="round" stroke-linecap="butt" d="m39.228348 72.71129l71.632126 -26.899487" fill-rule="evenodd"/><path fill="#595959" stroke="#595959" stroke-width="2.0" stroke-linecap="butt" d="m112.02181 48.904404l7.3355026 -6.2833557l-9.658188 0.098155975z" fill-rule="evenodd"/><path fill="#000000" fill-opacity="0.0" d="m154.43045 109.67191l0 -68.09448" fill-rule="evenodd"/><path stroke="#595959" stroke-width="2.0" stroke-linejoin="round" stroke-linecap="butt" d="m154.43045 109.67191l0 -56.094486" fill-rule="evenodd"/><path fill="#595959" stroke="#595959" stroke-width="2.0" stroke-linecap="butt" d="m157.73392 53.577427l-3.3034668 -9.076195l-3.3034668 9.076195z" fill-rule="evenodd"/><path fill="#000000" fill-opacity="0.0" d="m260.83466 72.71129l-74.04726 -31.118114" fill-rule="evenodd"/><path stroke="#595959" stroke-width="2.0" stroke-linejoin="round" stroke-linecap="butt" d="m260.83466 72.71129l-62.98445 -26.469002" fill-rule="evenodd"/><path fill="#595959" stroke="#595959" stroke-width="2.0" stroke-linecap="butt" d="m199.13007 43.19682l-9.647202 -0.47088623l7.087494 6.561821z" fill-rule="evenodd"/></g></svg>