<svg version="1.1" viewBox="0.0 0.0 269.3070866141732 202.9711286089239" fill="none" stroke="none" stroke-linecap="square" stroke-miterlimit="10" xmlns:xlink="http://www.w3.org/1999/xlink" xmlns="http://www.w3.org/2000/svg"><clipPath id="p.0"><path d="m0 0l269.3071 0l0 202.97113l-269.3071 0l0 -202.97113z" clip-rule="nonzero"/></clipPath><g clip-path="url(#p.0)"><path fill="#000000" fill-opacity="0.0" d="m0 0l269.3071 0l0 202.97113l-269.3071 0z" fill-rule="evenodd"/><path fill="#b7b7b7" d="m4.1706038 7.3623195l0 0c0 -3.1630173 2.5641317 -5.727149 5.727149 -5.727149l22.907907 0l0 0c1.5189323 0 2.9756546 0.6033944 4.0497055 1.6774431c1.0740471 1.0740488 1.6774445 2.5307715 1.6774445 4.0497055l0 31.159874c0 3.1630173 -2.5641327 5.72715 -5.72715 5.72715l-22.907907 0c-3.1630173 0 -5.727149 -2.5641327 -5.727149 -5.72715z" fill-rule="evenodd"/><path fill="#ff0000" d="m49.491276 7.3623195l0 0c0 -3.1630173 2.5641327 -5.727149 5.72715 -5.727149l22.90791 0l0 0c1.5189285 0 2.9756546 0.6033944 4.0497055 1.6774431c1.0740433 1.0740488 1.6774368 2.5307715 1.6774368 4.0497055l0 31.159874c0 3.1630173 -2.564125 5.72715 -5.7271423 5.72715l-22.90791 0c-3.1630173 0 -5.72715 -2.5641327 -5.72715 -5.72715z" fill-rule="evenodd"/><path fill="#b7b7b7" d="m94.81195 7.3623195l0 0c0 -3.1630173 2.5641327 -5.727149 5.7271423 -5.727149l22.907913 0l0 0c1.5189285 0 2.9756546 0.6033944 4.0497055 1.6774431c1.0740433 1.0740488 1.6774368 2.5307715 1.6774368 4.0497055l0 31.159874c0 3.1630173 -2.564125 5.72715 -5.7271423 5.72715l-22.907913 0c-3.1630096 0 -5.7271423 -2.5641327 -5.7271423 -5.72715z" fill-rule="evenodd"/><path fill="#b7b7b7" d="m140.13261 7.3623195l0 0c0 -3.1630173 2.5641327 -5.727149 5.7271576 -5.727149l22.907898 0l0 0c1.5189362 0 2.9756622 0.6033944 4.049713 1.6774431c1.0740509 1.0740488 1.6774445 2.5307715 1.6774445 4.0497055l0 31.159874c0 3.1630173 -2.5641327 5.72715 -5.7271576 5.72715l-22.907898 0c-3.163025 0 -5.7271576 -2.5641327 -5.7271576 -5.72715z" fill-rule="evenodd"/><path fill="#b7b7b7" d="m4.1706038 59.724808l0 0c0 -3.1630135 2.5641317 -5.727146 5.727149 -5.727146l22.907907 0l0 0c1.5189323 0 2.9756546 0.60339355 4.0497055 1.6774406c1.0740471 1.0740509 1.6774445 2.5307732 1.6774445 4.0497055l0 31.159874c0 3.1630173 -2.5641327 5.72715 -5.72715 5.72715l-22.907907 0c-3.1630173 0 -5.727149 -2.5641327 -5.727149 -5.72715z" fill-rule="evenodd"/><path fill="#b7b7b7" d="m49.491276 59.724808l0 0c0 -3.1630135 2.5641327 -5.727146 5.72715 -5.727146l22.90791 0l0 0c1.5189285 0 2.9756546 0.60339355 4.0497055 1.6774406c1.0740433 1.0740509 1.6774368 2.5307732 1.6774368 4.0497055l0 31.159874c0 3.1630173 -2.564125 5.72715 -5.7271423 5.72715l-22.90791 0c-3.1630173 0 -5.72715 -2.5641327 -5.72715 -5.72715z" fill-rule="evenodd"/><path fill="#b7b7b7" d="m94.81195 59.724808l0 0c0 -3.1630135 2.5641327 -5.727146 5.7271423 -5.727146l22.907913 0l0 0c1.5189285 0 2.9756546 0.60339355 4.0497055 1.6774406c1.0740433 1.0740509 1.6774368 2.5307732 1.6774368 4.0497055l0 31.159874c0 3.1630173 -2.564125 5.72715 -5.7271423 5.72715l-22.907913 0c-3.1630096 0 -5.7271423 -2.5641327 -5.7271423 -5.72715z" fill-rule="evenodd"/><path fill="#b7b7b7" d="m140.13261 59.724808l0 0c0 -3.1630135 2.5641327 -5.727146 5.7271576 -5.727146l22.907898 0l0 0c1.5189362 0 2.9756622 0.60339355 4.049713 1.6774406c1.0740509 1.0740509 1.6774445 2.5307732 1.6774445 4.0497055l0 31.159874c0 3.1630173 -2.5641327 5.72715 -5.7271576 5.72715l-22.907898 0c-3.163025 0 -5.7271576 -2.5641327 -5.7271576 -5.72715z" fill-rule="evenodd"/><path fill="#b7b7b7" d="m4.1706038 112.087296l0 0c0 -3.1630096 2.5641317 -5.7271423 5.727149 -5.7271423l22.907907 0l0 0c1.5189323 0 2.9756546 0.60339355 4.0497055 1.6774368c1.0740471 1.0740509 1.6774445 2.530777 1.6774445 4.0497055l0 31.159882c0 3.1630096 -2.5641327 5.7271423 -5.72715 5.7271423l-22.907907 0c-3.1630173 0 -5.727149 -2.5641327 -5.727149 -5.7271423z" fill-rule="evenodd"/><path fill="#b7b7b7" d="m49.491276 112.087296l0 0c0 -3.1630096 2.5641327 -5.7271423 5.72715 -5.7271423l22.90791 0l0 0c1.5189285 0 2.9756546 0.60339355 4.0497055 1.6774368c1.0740433 1.0740509 1.6774368 2.530777 1.6774368 4.0497055l0 31.159882c0 3.1630096 -2.564125 5.7271423 -5.7271423 5.7271423l-22.90791 0c-3.1630173 0 -5.72715 -2.5641327 -5.72715 -5.7271423z" fill-rule="evenodd"/><path fill="#b7b7b7" d="m94.81195 112.087296l0 0c0 -3.1630096 2.5641327 -5.7271423 5.7271423 -5.7271423l22.907913 0l0 0c1.5189285 0 2.9756546 0.60339355 4.0497055 1.6774368c1.0740433 1.0740509 1.6774368 2.530777 1.6774368 4.0497055l0 31.159882c0 3.1630096 -2.564125 5.7271423 -5.7271423 5.7271423l-22.907913 0c-3.1630096 0 -5.7271423 -2.5641327 -5.7271423 -5.7271423z" fill-rule="evenodd"/><path fill="#b7b7b7" d="m140.13261 112.087296l0 0c0 -3.1630096 2.5641327 -5.7271423 5.7271576 -5.7271423l22.907898 0l0 0c1.5189362 0 2.9756622 0.60339355 4.049713 1.6774368c1.0740509 1.0740509 1.6774445 2.530777 1.6774445 4.0497055l0 31.159882c0 3.1630096 -2.5641327 5.7271423 -5.7271576 5.7271423l-22.907898 0c-3.163025 0 -5.7271576 -2.5641327 -5.7271576 -5.7271423z" fill-rule="evenodd"/><path fill="#b7b7b7" d="m4.1706038 164.44978l0 0c0 -3.1630096 2.5641317 -5.7271423 5.727149 -5.7271423l22.907907 0l0 0c1.5189323 0 2.9756546 0.60339355 4.0497055 1.6774445c1.0740471 1.0740509 1.6774445 2.530777 1.6774445 4.049698l0 31.159882c0 3.163025 -2.5641327 5.7271423 -5.72715 5.7271423l-22.907907 0c-3.1630173 0 -5.727149 -2.5641174 -5.727149 -5.7271423z" fill-rule="evenodd"/><path fill="#b7b7b7" d="m49.491276 164.44978l0 0c0 -3.1630096 2.5641327 -5.7271423 5.72715 -5.7271423l22.90791 0l0 0c1.5189285 0 2.9756546 0.60339355 4.0497055 1.6774445c1.0740433 1.0740509 1.6774368 2.530777 1.6774368 4.049698l0 31.159882c0 3.163025 -2.564125 5.7271423 -5.7271423 5.7271423l-22.90791 0c-3.1630173 0 -5.72715 -2.5641174 -5.72715 -5.7271423z" fill-rule="evenodd"/><path fill="#b7b7b7" d="m94.81195 164.44978l0 0c0 -3.1630096 2.5641327 -5.7271423 5.7271423 -5.7271423l22.907913 0l0 0c1.5189285 0 2.9756546 0.60339355 4.0497055 1.6774445c1.0740433 1.0740509 1.6774368 2.530777 1.6774368 4.049698l0 31.159882c0 3.163025 -2.564125 5.7271423 -5.7271423 5.7271423l-22.907913 0c-3.1630096 0 -5.7271423 -2.5641174 -5.7271423 -5.7271423z" fill-rule="evenodd"/><path fill="#b7b7b7" d="m140.13261 164.44978l0 0c0 -3.1630096 2.5641327 -5.7271423 5.7271576 -5.7271423l22.907898 0l0 0c1.5189362 0 2.9756622 0.60339355 4.049713 1.6774445c1.0740509 1.0740509 1.6774445 2.530777 1.6774445 4.049698l0 31.159882c0 3.163025 -2.5641327 5.7271423 -5.7271576 5.7271423l-22.907898 0c-3.163025 0 -5.7271576 -2.5641174 -5.7271576 -5.7271423z" fill-rule="evenodd"/><path fill="#b7b7b7" d="m185.4533 7.3623195l0 0c0 -3.1630173 2.5641327 -5.727149 5.7271423 -5.727149l22.907913 0l0 0c1.5189362 0 2.9756622 0.6033944 4.049713 1.6774431c1.0740356 1.0740488 1.6774292 2.5307715 1.6774292 4.0497055l0 31.159874c0 3.1630173 -2.5641327 5.72715 -5.7271423 5.72715l-22.907913 0c-3.1630096 0 -5.7271423 -2.5641327 -5.7271423 -5.72715z" fill-rule="evenodd"/><path fill="#b7b7b7" d="m185.4533 59.724808l0 0c0 -3.1630135 2.5641327 -5.727146 5.7271423 -5.727146l22.907913 0l0 0c1.5189362 0 2.9756622 0.60339355 4.049713 1.6774406c1.0740356 1.0740509 1.6774292 2.5307732 1.6774292 4.0497055l0 31.159874c0 3.1630173 -2.5641327 5.72715 -5.7271423 5.72715l-22.907913 0c-3.1630096 0 -5.7271423 -2.5641327 -5.7271423 -5.72715z" fill-rule="evenodd"/><path fill="#b7b7b7" d="m185.4533 112.087296l0 0c0 -3.1630096 2.5641327 -5.7271423 5.7271423 -5.7271423l22.907913 0l0 0c1.5189362 0 2.9756622 0.60339355 4.049713 1.6774368c1.0740356 1.0740509 1.6774292 2.530777 1.6774292 4.0497055l0 31.159882c0 3.1630096 -2.5641327 5.7271423 -5.7271423 5.7271423l-22.907913 0c-3.1630096 0 -5.7271423 -2.5641327 -5.7271423 -5.7271423z" fill-rule="evenodd"/><path fill="#b7b7b7" d="m185.4533 164.44978l0 0c0 -3.1630096 2.5641327 -5.7271423 5.7271423 -5.7271423l22.907913 0l0 0c1.5189362 0 2.9756622 0.60339355 4.049713 1.6774445c1.0740356 1.0740509 1.6774292 2.530777 1.6774292 4.049698l0 31.159882c0 3.163025 -2.5641327 5.7271423 -5.7271423 5.7271423l-22.907913 0c-3.1630096 0 -5.7271423 -2.5641174 -5.7271423 -5.7271423z" fill-rule="evenodd"/><path fill="#b7b7b7" d="m230.77397 7.3623195l0 0c0 -3.1630173 2.5641174 -5.727149 5.7271423 -5.727149l22.907913 0l0 0c1.5189209 0 2.975647 0.6033944 4.049713 1.6774431c1.0740356 1.0740488 1.6774292 2.5307715 1.6774292 4.0497055l0 31.159874c0 3.1630173 -2.5641174 5.72715 -5.7271423 5.72715l-22.907913 0c-3.163025 0 -5.7271423 -2.5641327 -5.7271423 -5.72715z" fill-rule="evenodd"/><path fill="#b7b7b7" d="m230.77397 59.724808l0 0c0 -3.1630135 2.5641174 -5.727146 5.7271423 -5.727146l22.907913 0l0 0c1.5189209 0 2.975647 0.60339355 4.049713 1.6774406c1.0740356 1.0740509 1.6774292 2.5307732 1.6774292 4.0497055l0 31.159874c0 3.1630173 -2.5641174 5.72715 -5.7271423 5.72715l-22.907913 0c-3.163025 0 -5.7271423 -2.5641327 -5.7271423 -5.72715z" fill-rule="evenodd"/><path fill="#b7b7b7" d="m230.77397 112.087296l0 0c0 -3.1630096 2.5641174 -5.7271423 5.7271423 -5.7271423l22.907913 0l0 0c1.5189209 0 2.975647 0.60339355 4.049713 1.6774368c1.0740356 1.0740509 1.6774292 2.530777 1.6774292 4.0497055l0 31.159882c0 3.1630096 -2.5641174 5.7271423 -5.7271423 5.7271423l-22.907913 0c-3.163025 0 -5.7271423 -2.5641327 -5.7271423 -5.7271423z" fill-rule="evenodd"/><path fill="#ff0000" d="m230.77397 164.44978l0 0c0 -3.1630096 2.5641174 -5.7271423 5.7271423 -5.7271423l22.907913 0l0 0c1.5189209 0 2.975647 0.60339355 4.049713 1.6774445c1.0740356 1.0740509 1.6774292 2.530777 1.6774292 4.049698l0 31.159882c0 3.163025 -2.5641174 5.7271423 -5.7271423 5.7271423l-22.907913 0c-3.163025 0 -5.7271423 -2.5641174 -5.7271423 -5.7271423z" fill-rule="evenodd"/></g></svg>