<svg version="1.1" viewBox="0.0 0.0 410.86876640419945 338.40682414698165" fill="none" stroke="none" stroke-linecap="square" stroke-miterlimit="10" xmlns:xlink="http://www.w3.org/1999/xlink" xmlns="http://www.w3.org/2000/svg"><clipPath id="p.0"><path d="m0 0l410.86877 0l0 338.40683l-410.86877 0l0 -338.40683z" clip-rule="nonzero"/></clipPath><g clip-path="url(#p.0)"><path fill="#000000" fill-opacity="0.0" d="m0 0l410.86877 0l0 338.40683l-410.86877 0z" fill-rule="evenodd"/><path fill="#eeeeee" d="m64.72877 46.709694l0 0c-2.778637 -10.599613 6.3441772 -21.092587 23.497284 -27.026365c17.153114 -5.9337797 39.328247 -6.267709 57.11567 -0.86008835l0 0c6.3008423 -6.1630535 17.833237 -10.418218 31.10884 -11.478387c13.275604 -1.0601692 26.735168 1.1991777 36.307404 6.094632l0 0c5.367523 -5.5878215 15.906723 -9.342123 27.877762 -9.930684c11.971039 -0.58856106 23.679703 2.0719144 30.971176 7.0373516l0 0c9.697205 -5.923076 25.125671 -8.416938 39.609436 -6.4024763c14.483795 2.0144615 25.421448 8.17543 28.0802 15.81702l0 0c11.880707 1.6821804 21.77707 5.958502 27.132233 11.7241c5.355133 5.7656 5.6437073 12.4548855 0.7911682 18.33956l0 0c11.699036 7.903759 14.43573 18.435421 7.1888123 27.66476c-7.2469177 9.22934 -23.388702 15.7697525 -42.40149 17.180473c-0.1340332 8.662064 -9.285797 16.610268 -23.927826 20.781029c-14.642059 4.170761 -32.487946 3.9128036 -46.65915 -0.67445374l0 0c-6.0361633 10.374321 -23.02597 18.007645 -43.62918 19.602097c-20.60321 1.5944519 -41.126312 -3.1358032 -52.702545 -12.147125l0 0c-14.190048 4.4417114 -31.216919 5.721222 -47.2397 3.5499191c-16.022781 -2.1713104 -29.691795 -7.61055 -37.923584 -15.090729l0 0c-14.5004425 0.88080597 -28.520367 -3.0189285 -35.101734 -9.763786c-6.5813675 -6.7448654 -4.323162 -14.899025 5.6538773 -20.415611l0 0c-12.9347725 -3.9518127 -19.534874 -11.793533 -16.358608 -19.436005c3.176262 -7.6424675 15.409142 -13.353878 30.319664 -14.155952z" fill-rule="evenodd"/><path fill="#000000" fill-opacity="0.0" d="m50.48108 80.710175l0 0c6.103958 1.8648758 13.15546 2.7108307 20.207733 2.4242706m9.236954 27.755798c3.0327377 -0.18421936 6.005394 -0.57432556 8.841309 -1.1602631m76.31773 12.7006c-2.1330261 -1.6604233 -3.9189148 -3.434723 -5.3272095 -5.292679m101.66263 -2.162613l0 0c1.1004944 -1.8913879 1.8135071 -3.8380432 2.1271667 -5.80748m68.45712 -14.29837c0.14266968 -9.222099 -9.94809 -17.665955 -25.937958 -21.704674m61.15033 -23.139584c-2.5895386 3.1403008 -6.542694 5.9260178 -11.549591 8.138733m-16.37143 -38.203217l0 0c0.44122314 1.2681236 0.64541626 2.5553074 0.6097717 3.84371m-68.29825 -13.257872l0 0c-2.4189453 1.4775133 -4.411865 3.1286154 -5.9166565 4.9018955m-52.932816 -2.0092077l0 0c-1.2891083 1.3420143 -2.2517242 2.7620955 -2.8656769 4.2275305m-64.551575 1.1563358l0 0c3.7638092 1.144249 7.2458496 2.5214748 10.369614 4.101425m-90.981514 23.785177l0 0c0.3829651 1.4608994 0.98807526 2.9037895 1.8096619 4.3151665" fill-rule="evenodd"/><path fill="#000000" d="m143.63882 61.57664l0 -13.0625l5.640625 0q1.21875 0 2.171875 0.5625q0.96875 0.5625 1.53125 1.53125q0.578125 0.96875 0.578125 2.1875q0 1.265625 -0.578125 2.265625q-0.5625 1.0 -1.53125 1.578125q-0.953125 0.578125 -2.171875 0.578125l-2.46875 0l0 4.359375l-3.171875 0zm3.109375 -7.140625l2.078125 0q0.40625 0 0.734375 -0.203125q0.34375 -0.21875 0.546875 -0.5625q0.21875 -0.359375 0.21875 -0.828125q0 -0.484375 -0.21875 -0.8125q-0.203125 -0.34375 -0.546875 -0.53125q-0.328125 -0.1875 -0.734375 -0.1875l-2.078125 0l0 3.125zm13.398148 7.328125q-1.546875 0 -2.75 -0.671875q-1.203125 -0.671875 -1.90625 -1.828125q-0.6875 -1.15625 -0.6875 -2.65625q0 -1.484375 0.6875 -2.640625q0.703125 -1.15625 1.90625 -1.828125q1.203125 -0.671875 2.75 -0.671875q1.546875 0 2.75 0.671875q1.203125 0.671875 1.890625 1.828125q0.703125 1.15625 0.703125 2.640625q0 1.5 -0.703125 2.65625q-0.6875 1.15625 -1.890625 1.828125q-1.203125 0.671875 -2.75 0.671875zm0 -2.578125q0.671875 0 1.1875 -0.328125q0.53125 -0.34375 0.828125 -0.921875q0.296875 -0.578125 0.28125 -1.328125q0.015625 -0.734375 -0.28125 -1.328125q-0.296875 -0.59375 -0.828125 -0.921875q-0.515625 -0.34375 -1.1875 -0.34375q-0.671875 0 -1.203125 0.34375q-0.53125 0.328125 -0.828125 0.921875q-0.296875 0.59375 -0.28125 1.328125q-0.015625 0.75 0.28125 1.328125q0.296875 0.578125 0.828125 0.921875q0.53125 0.328125 1.203125 0.328125zm7.302414 6.500004l0 -14.015629l2.828125 0l0.109375 2.21875l-0.546875 -0.171875q0.125 -0.609375 0.625 -1.109375q0.5 -0.515625 1.28125 -0.8125q0.78125 -0.3125 1.625 -0.3125q1.28125 0 2.265625 0.671875q0.984375 0.65625 1.546875 1.8125q0.578125 1.140625 0.578125 2.640625q0 1.5 -0.578125 2.65625q-0.5625 1.15625 -1.5625 1.828125q-1.0 0.65625 -2.28125 0.65625q-0.84375 0 -1.609375 -0.3125q-0.765625 -0.328125 -1.28125 -0.859375q-0.515625 -0.546875 -0.6875 -1.1875l0.6875 -0.25l0 6.546879l-3.0 0zm5.171875 -6.453129q0.65625 0 1.15625 -0.328125q0.515625 -0.328125 0.796875 -0.90625q0.28125 -0.578125 0.28125 -1.390625q0 -0.78125 -0.28125 -1.359375q-0.28125 -0.59375 -0.78125 -0.921875q-0.484375 -0.328125 -1.171875 -0.328125q-0.703125 0 -1.203125 0.328125q-0.5 0.3125 -0.78125 0.90625q-0.28125 0.59375 -0.28125 1.375q0 0.8125 0.28125 1.390625q0.28125 0.578125 0.78125 0.90625q0.5 0.328125 1.203125 0.328125zm10.497589 2.546875q-1.109375 0 -1.890625 -0.46875q-0.765625 -0.484375 -1.1875 -1.375q-0.40625 -0.890625 -0.40625 -2.140625l0 -6.125l3.0 0l0 5.703125q0 0.609375 0.1875 1.03125q0.1875 0.421875 0.546875 0.65625q0.375 0.234375 0.90625 0.234375q0.390625 0 0.71875 -0.125q0.328125 -0.125 0.5625 -0.359375q0.234375 -0.234375 0.359375 -0.546875q0.125 -0.3125 0.125 -0.6875l0 -5.90625l3.015625 0l0 9.90625l-2.828125 0l-0.125 -2.03125l0.5625 -0.21875q-0.234375 0.703125 -0.75 1.25q-0.515625 0.546875 -1.25 0.875q-0.734375 0.328125 -1.546875 0.328125zm8.617935 -0.203125l0 -13.8125l2.984375 0l0 13.8125l-2.984375 0zm9.125473 0.171875q-1.25 0 -2.234375 -0.65625q-0.984375 -0.671875 -1.5625 -1.828125q-0.578125 -1.171875 -0.578125 -2.65625q0 -1.5 0.578125 -2.65625q0.578125 -1.15625 1.578125 -1.8125q1.015625 -0.671875 2.3125 -0.671875q0.703125 0 1.28125 0.203125q0.59375 0.203125 1.046875 0.578125q0.453125 0.359375 0.765625 0.84375q0.3125 0.46875 0.46875 1.0l-0.625 -0.078125l0 -2.34375l2.96875 0l0 9.90625l-3.015625 0l0 -2.390625l0.671875 -0.015625q-0.15625 0.515625 -0.5 0.984375q-0.328125 0.46875 -0.8125 0.828125q-0.484375 0.34375 -1.078125 0.5625q-0.59375 0.203125 -1.265625 0.203125zm0.8125 -2.515625q0.703125 0 1.203125 -0.3125q0.5 -0.328125 0.78125 -0.90625q0.28125 -0.59375 0.28125 -1.40625q0 -0.796875 -0.28125 -1.375q-0.28125 -0.59375 -0.78125 -0.921875q-0.5 -0.328125 -1.203125 -0.328125q-0.671875 0 -1.171875 0.328125q-0.484375 0.328125 -0.765625 0.921875q-0.28125 0.578125 -0.28125 1.375q0 0.8125 0.28125 1.40625q0.28125 0.578125 0.765625 0.90625q0.5 0.3125 1.171875 0.3125zm8.638214 2.34375l0 -12.40625l2.984375 0l0 12.40625l-2.984375 0zm-1.75 -7.296875l0 -2.609375l6.65625 0l0 2.609375l-6.65625 0zm8.534561 7.296875l0 -9.90625l2.984375 0l0 9.90625l-2.984375 0zm1.484375 -11.859375q-0.84375 0 -1.328125 -0.40625q-0.46875 -0.40625 -0.46875 -1.140625q0 -0.671875 0.484375 -1.09375q0.5 -0.4375 1.3125 -0.4375q0.84375 0 1.296875 0.40625q0.46875 0.390625 0.46875 1.125q0 0.6875 -0.46875 1.125q-0.46875 0.421875 -1.296875 0.421875zm8.95134 12.046875q-1.546875 0 -2.75 -0.671875q-1.203125 -0.671875 -1.90625 -1.828125q-0.6875 -1.15625 -0.6875 -2.65625q0 -1.484375 0.6875 -2.640625q0.703125 -1.15625 1.90625 -1.828125q1.203125 -0.671875 2.75 -0.671875q1.546875 0 2.75 0.671875q1.203125 0.671875 1.890625 1.828125q0.703125 1.15625 0.703125 2.640625q0 1.5 -0.703125 2.65625q-0.6875 1.15625 -1.890625 1.828125q-1.203125 0.671875 -2.75 0.671875zm0 -2.578125q0.671875 0 1.1875 -0.328125q0.53125 -0.34375 0.828125 -0.921875q0.296875 -0.578125 0.28125 -1.328125q0.015625 -0.734375 -0.28125 -1.328125q-0.296875 -0.59375 -0.828125 -0.921875q-0.515625 -0.34375 -1.1875 -0.34375q-0.671875 0 -1.203125 0.34375q-0.53125 0.328125 -0.828125 0.921875q-0.296875 0.59375 -0.28125 1.328125q-0.015625 0.75 0.28125 1.328125q0.296875 0.578125 0.828125 0.921875q0.53125 0.328125 1.203125 0.328125zm7.302414 2.390625l0 -9.90625l2.828125 0l0.09375 2.015625l-0.59375 0.21875q0.203125 -0.671875 0.734375 -1.21875q0.53125 -0.546875 1.28125 -0.875q0.75 -0.34375 1.5625 -0.34375q1.125 0 1.890625 0.453125q0.765625 0.453125 1.15625 1.359375q0.390625 0.90625 0.390625 2.21875l0 6.078125l-3.0 0l0 -5.84375q0 -0.59375 -0.171875 -0.984375q-0.171875 -0.390625 -0.515625 -0.578125q-0.34375 -0.203125 -0.84375 -0.1875q-0.390625 0 -0.734375 0.125q-0.328125 0.125 -0.578125 0.359375q-0.234375 0.21875 -0.375 0.53125q-0.140625 0.296875 -0.140625 0.640625l0 5.9375l-1.484375 0q-0.515625 0 -0.890625 0q-0.375 0 -0.609375 0z" fill-rule="nonzero"/><path fill="#000000" d="m141.14494 87.04539q-2.265625 -1.4218674 -3.46875 -3.5468674q-1.1875 -2.125 -1.1875 -4.734375q0 -2.59375 1.203125 -4.71875q1.203125 -2.140625 3.46875 -3.5625l1.03125 1.15625q-1.90625 1.328125 -2.90625 3.171875q-0.984375 1.828125 -0.984375 3.953125q0 2.125 0.984375 3.96875q1.0 1.828125 2.90625 3.15625l-1.046875 1.1562424z" fill-rule="nonzero"/><path fill="#000000" d="m143.44188 86.49852l2.703125 -12.71875l1.796875 0l-1.203125 5.65625q-0.1875 0.875 -0.09375 1.46875q0.109375 0.578125 0.484375 0.875q0.390625 0.296875 1.046875 0.296875q0.546875 0 1.046875 -0.203125q0.5 -0.203125 0.90625 -0.5625q0.421875 -0.359375 0.71875 -0.828125q0.296875 -0.484375 0.40625 -1.046875l1.203125 -5.65625l1.8125 0l-2.078125 9.796875l-1.8125 0l0.453125 -2.125l0.078125 0.265625q-0.375 0.671875 -0.921875 1.125q-0.53125 0.453125 -1.171875 0.6875q-0.640625 0.234375 -1.28125 0.234375q-0.390625 0 -0.75 -0.140625q-0.34375 -0.140625 -0.578125 -0.390625q-0.234375 -0.25 -0.265625 -0.578125l0.171875 -0.234375l-0.875 4.078125l-1.796875 0z" fill-rule="nonzero"/><path fill="#000000" d="m155.14008 86.92039l-0.703125 -0.8593674q0.640625 -0.375 1.046875 -0.859375q0.421875 -0.484375 0.421875 -0.84375q0 -0.1875 -0.09375 -0.359375q-0.09375 -0.171875 -0.390625 -0.5q-0.375 -0.34375 -0.484375 -0.59375q-0.109375 -0.25 -0.109375 -0.515625q0 -0.453125 0.3125 -0.71875q0.3125 -0.28125 0.828125 -0.28125q0.453125 0 0.828125 0.28125q0.390625 0.265625 0.609375 0.75q0.21875 0.46875 0.21875 1.078125q0 0.5625 -0.1875 1.078125q-0.1875 0.53125 -0.53125 0.96875q-0.328125 0.453125 -0.78125 0.8125q-0.4375 0.359375 -0.984375 0.5624924z" fill-rule="nonzero"/><path fill="#000000" d="m175.73567 73.90477l-0.296875 1.375l-2.40625 0q0.703125 1.015625 0.703125 2.53125q0 2.375 -1.390625 4.1875q-1.375 1.796875 -3.796875 1.796875q-1.828125 0 -2.890625 -1.078125q-1.046875 -1.078125 -1.046875 -2.828125q0 -2.59375 1.4375 -4.390625q1.4375 -1.8125 3.75 -1.8125q0.734375 0 1.34375 0.21875l4.59375 0zm-9.484375 5.953125q0 1.171875 0.625 1.921875q0.625 0.734375 1.6875 0.734375q1.640625 0 2.578125 -1.5625q0.953125 -1.578125 0.953125 -3.21875q0 -1.328125 -0.609375 -2.046875q-0.609375 -0.734375 -1.640625 -0.734375q-1.625 0 -2.609375 1.5q-0.984375 1.5 -0.984375 3.40625z" fill-rule="nonzero"/><path fill="#000000" d="m176.59528 86.92039l-0.703125 -0.8593674q0.640625 -0.375 1.046875 -0.859375q0.421875 -0.484375 0.421875 -0.84375q0 -0.1875 -0.09375 -0.359375q-0.09375 -0.171875 -0.390625 -0.5q-0.375 -0.34375 -0.484375 -0.59375q-0.109375 -0.25 -0.109375 -0.515625q0 -0.453125 0.3125 -0.71875q0.3125 -0.28125 0.828125 -0.28125q0.453125 0 0.828125 0.28125q0.390625 0.265625 0.609375 0.75q0.21875 0.46875 0.21875 1.078125q0 0.5625 -0.1875 1.078125q-0.1875 0.53125 -0.53125 0.96875q-0.328125 0.453125 -0.78125 0.8125q-0.4375 0.359375 -0.984375 0.5624924z" fill-rule="nonzero"/><path fill="#000000" d="m186.47212 83.576645l2.078125 -9.796875l1.9375 0l-0.4375 2.09375l-0.40625 0.21875q0.25 -0.484375 0.671875 -0.921875q0.421875 -0.453125 0.96875 -0.796875q0.546875 -0.34375 1.140625 -0.546875q0.609375 -0.21875 1.1875 -0.21875q0.828125 0 1.40625 0.28125q0.578125 0.28125 0.859375 0.84375q0.296875 0.5625 0.296875 1.40625l-0.28125 -0.078125l0.1875 -0.3125q0.3125 -0.4375 0.75 -0.8125q0.453125 -0.390625 0.984375 -0.6875q0.53125 -0.296875 1.09375 -0.46875q0.5625 -0.171875 1.0625 -0.171875q1.09375 0 1.703125 0.453125q0.625 0.453125 0.796875 1.375q0.171875 0.90625 -0.109375 2.265625l-1.25 5.875l-1.9375 0l1.21875 -5.765625q0.1875 -0.84375 0.078125 -1.375q-0.109375 -0.53125 -0.484375 -0.78125q-0.375 -0.265625 -1.046875 -0.265625q-0.515625 0 -1.015625 0.1875q-0.5 0.171875 -0.90625 0.484375q-0.390625 0.3125 -0.65625 0.734375q-0.265625 0.421875 -0.375 0.921875l-1.25 5.859375l-1.953125 0l1.234375 -5.796875q0.15625 -0.765625 0.046875 -1.296875q-0.09375 -0.53125 -0.46875 -0.8125q-0.375 -0.28125 -1.0 -0.28125q-0.515625 0 -1.0 0.1875q-0.484375 0.171875 -0.890625 0.484375q-0.390625 0.296875 -0.671875 0.71875q-0.265625 0.421875 -0.375 0.90625l-1.25 5.890625l-1.9375 0z" fill-rule="nonzero"/><path fill="#000000" d="m203.98265 86.92039l-0.703125 -0.8593674q0.640625 -0.375 1.046875 -0.859375q0.421875 -0.484375 0.421875 -0.84375q0 -0.1875 -0.09375 -0.359375q-0.09375 -0.171875 -0.390625 -0.5q-0.375 -0.34375 -0.484375 -0.59375q-0.109375 -0.25 -0.109375 -0.515625q0 -0.453125 0.3125 -0.71875q0.3125 -0.28125 0.828125 -0.28125q0.453125 0 0.828125 0.28125q0.390625 0.265625 0.609375 0.75q0.21875 0.46875 0.21875 1.078125q0 0.5625 -0.1875 1.078125q-0.1875 0.53125 -0.53125 0.96875q-0.328125 0.453125 -0.78125 0.8125q-0.4375 0.359375 -0.984375 0.5624924zm14.470596 -3.1562424q-1.5 0 -2.671875 -0.640625q-1.15625 -0.640625 -1.828125 -1.765625q-0.65625 -1.125 -0.65625 -2.578125q0 -1.15625 0.375 -2.109375q0.375 -0.953125 1.03125 -1.640625q0.65625 -0.703125 1.578125 -1.078125q0.9375 -0.390625 2.015625 -0.390625q0.953125 0 1.765625 0.359375q0.828125 0.359375 1.421875 1.0q0.609375 0.640625 0.9375 1.515625q0.328125 0.859375 0.3125 1.875l-0.015625 0.828125l-8.0 0l-0.4375 -1.53125l6.765625 0l-0.265625 0.3125l0 -0.4375q-0.0625 -0.625 -0.421875 -1.109375q-0.34375 -0.484375 -0.890625 -0.765625q-0.546875 -0.28125 -1.171875 -0.28125q-1.015625 0 -1.703125 0.390625q-0.6875 0.375 -1.046875 1.125q-0.34375 0.734375 -0.34375 1.8125q0 1.015625 0.421875 1.78125q0.421875 0.75 1.203125 1.171875q0.796875 0.40625 1.8125 0.40625q0.734375 0 1.359375 -0.234375q0.625 -0.25 1.359375 -0.890625l0.96875 1.359375q-0.453125 0.453125 -1.09375 0.796875q-0.640625 0.328125 -1.359375 0.53125q-0.71875 0.1875 -1.421875 0.1875zm7.5888214 -0.1875l0 -12.296875l1.921875 0l0 12.296875l-1.921875 0zm-2.046875 -7.921875l0 -1.875l6.234375 0l0 1.875l-6.234375 0zm12.055038 8.109375q-1.359375 0 -2.4375 -0.671875q-1.0625 -0.671875 -1.6875 -1.828125q-0.625 -1.15625 -0.625 -2.59375q0 -1.4375 0.625 -2.59375q0.625 -1.15625 1.6875 -1.828125q1.078125 -0.671875 2.4375 -0.671875q1.3125 0 2.375 0.53125q1.078125 0.53125 1.640625 1.453125l-1.0625 1.296875q-0.296875 -0.421875 -0.765625 -0.78125q-0.46875 -0.359375 -1.0 -0.5625q-0.515625 -0.203125 -1.0 -0.203125q-0.890625 0 -1.59375 0.4375q-0.703125 0.4375 -1.109375 1.203125q-0.40625 0.765625 -0.40625 1.71875q0 0.953125 0.421875 1.71875q0.4375 0.75 1.140625 1.203125q0.703125 0.4375 1.5625 0.4375q0.515625 0 0.984375 -0.171875q0.46875 -0.171875 0.921875 -0.5q0.453125 -0.34375 0.84375 -0.828125l1.0625 1.3125q-0.59375 0.84375 -1.703125 1.390625q-1.109375 0.53125 -2.3125 0.53125zm6.6060944 0.015625q-0.609375 0 -0.953125 -0.359375q-0.328125 -0.359375 -0.328125 -1.03125q0 -0.625 0.34375 -1.015625q0.359375 -0.390625 0.9375 -0.390625q0.625 0 0.953125 0.375q0.34375 0.359375 0.34375 1.03125q0 0.609375 -0.359375 1.0q-0.359375 0.390625 -0.9375 0.390625zm3.5348816 3.2656174l-1.03125 -1.1562424q1.90625 -1.328125 2.890625 -3.15625q1.0 -1.84375 1.0 -3.96875q0 -2.125 -1.0 -3.953125q-0.984375 -1.84375 -2.890625 -3.171875l1.046875 -1.15625q2.265625 1.421875 3.453125 3.546875q1.203125 2.125 1.203125 4.734375q0 2.59375 -1.203125 4.734375q-1.203125 2.125 -3.46875 3.5468674z" fill-rule="nonzero"/><path fill="#4285f4" d="m81.34646 207.42015l0 0c0 -5.647629 4.5783005 -10.225922 10.225922 -10.225922l228.7135 0c2.7120667 0 5.31308 1.0773621 7.2308044 2.995102c1.9177551 1.9177399 2.9951172 4.518738 2.9951172 7.2308197l0 40.90248c0 5.647629 -4.578308 10.225922 -10.225922 10.225922l-228.7135 0c-5.647621 0 -10.225922 -4.578293 -10.225922 -10.225922z" fill-rule="evenodd"/><path fill="#ffffff" d="m176.50702 223.9789q-1.28125 0 -2.328125 -0.296875q-1.03125 -0.3125 -1.84375 -0.90625q-0.796875 -0.59375 -1.421875 -1.390625l1.921875 -2.1875q0.9375 1.25 1.875 1.6875q0.9375 0.421875 1.953125 0.421875q0.5 0 0.90625 -0.125q0.40625 -0.140625 0.625 -0.390625q0.234375 -0.25 0.234375 -0.625q0 -0.28125 -0.140625 -0.5q-0.140625 -0.21875 -0.390625 -0.390625q-0.234375 -0.171875 -0.578125 -0.3125q-0.328125 -0.140625 -0.703125 -0.234375q-0.375 -0.109375 -0.765625 -0.1875q-1.078125 -0.234375 -1.890625 -0.578125q-0.796875 -0.359375 -1.328125 -0.875q-0.53125 -0.515625 -0.796875 -1.171875q-0.25 -0.671875 -0.25 -1.484375q0 -0.890625 0.390625 -1.625q0.40625 -0.734375 1.078125 -1.265625q0.6875 -0.53125 1.578125 -0.8125q0.90625 -0.296875 1.875 -0.296875q1.28125 0 2.203125 0.28125q0.9375 0.265625 1.59375 0.765625q0.65625 0.5 1.125 1.21875l-1.953125 1.875q-0.390625 -0.484375 -0.859375 -0.796875q-0.453125 -0.3125 -0.96875 -0.484375q-0.5 -0.171875 -1.046875 -0.171875q-0.5625 0 -0.96875 0.140625q-0.390625 0.140625 -0.625 0.390625q-0.21875 0.25 -0.21875 0.609375q0 0.3125 0.1875 0.546875q0.1875 0.21875 0.5 0.40625q0.328125 0.171875 0.734375 0.296875q0.40625 0.109375 0.859375 0.1875q1.03125 0.203125 1.859375 0.546875q0.828125 0.328125 1.421875 0.8125q0.609375 0.484375 0.9375 1.15625q0.328125 0.65625 0.328125 1.53125q0 1.359375 -0.671875 2.3125q-0.65625 0.9375 -1.796875 1.4375q-1.140625 0.484375 -2.640625 0.484375zm10.843689 -0.015625q-1.25 0 -2.234375 -0.65625q-0.984375 -0.671875 -1.5625 -1.828125q-0.578125 -1.171875 -0.578125 -2.65625q0 -1.5 0.578125 -2.65625q0.578125 -1.15625 1.578125 -1.8125q1.015625 -0.671875 2.3125 -0.671875q0.703125 0 1.28125 0.203125q0.59375 0.203125 1.046875 0.578125q0.453125 0.359375 0.765625 0.84375q0.3125 0.46875 0.46875 1.0l-0.625 -0.078125l0 -2.34375l2.96875 0l0 9.90625l-3.015625 0l0 -2.390625l0.671875 -0.015625q-0.15625 0.515625 -0.5 0.984375q-0.328125 0.46875 -0.8125 0.828125q-0.484375 0.34375 -1.078125 0.5625q-0.59375 0.203125 -1.265625 0.203125zm0.8125 -2.515625q0.703125 0 1.203125 -0.3125q0.5 -0.328125 0.78125 -0.90625q0.28125 -0.59375 0.28125 -1.40625q0 -0.796875 -0.28125 -1.375q-0.28125 -0.59375 -0.78125 -0.921875q-0.5 -0.328125 -1.203125 -0.328125q-0.671875 0 -1.171875 0.328125q-0.484375 0.328125 -0.765625 0.921875q-0.28125 0.578125 -0.28125 1.375q0 0.8125 0.28125 1.40625q0.28125 0.578125 0.765625 0.90625q0.5 0.3125 1.171875 0.3125zm7.810089 2.34375l0 -9.90625l2.828125 0l0.09375 1.796875l-0.390625 0.015625q0.21875 -0.484375 0.5625 -0.859375q0.34375 -0.375 0.78125 -0.625q0.453125 -0.25 0.921875 -0.375q0.46875 -0.140625 0.96875 -0.140625q0.71875 0 1.3125 0.234375q0.609375 0.21875 1.046875 0.71875q0.453125 0.484375 0.71875 1.328125l-0.46875 -0.046875l0.140625 -0.296875q0.25 -0.4375 0.625 -0.796875q0.390625 -0.375 0.84375 -0.625q0.46875 -0.25 0.96875 -0.375q0.515625 -0.140625 0.984375 -0.140625q1.171875 0 1.953125 0.46875q0.78125 0.453125 1.1875 1.375q0.40625 0.90625 0.40625 2.203125l0 6.046875l-3.015625 0l0 -5.796875q0 -0.609375 -0.171875 -1.0q-0.15625 -0.390625 -0.484375 -0.578125q-0.328125 -0.203125 -0.8125 -0.203125q-0.390625 0 -0.71875 0.140625q-0.328125 0.125 -0.5625 0.359375q-0.234375 0.21875 -0.359375 0.515625q-0.125 0.296875 -0.125 0.671875l0 5.890625l-3.015625 0l0 -5.828125q0 -0.546875 -0.171875 -0.9375q-0.15625 -0.390625 -0.5 -0.59375q-0.328125 -0.21875 -0.78125 -0.21875q-0.390625 0 -0.71875 0.140625q-0.328125 0.125 -0.5625 0.359375q-0.21875 0.21875 -0.359375 0.515625q-0.125 0.296875 -0.125 0.65625l0 5.90625l-3.0 0zm17.962936 4.109375l0 -14.015625l2.828125 0l0.109375 2.21875l-0.546875 -0.171875q0.125 -0.609375 0.625 -1.109375q0.5 -0.515625 1.28125 -0.8125q0.78125 -0.3125 1.625 -0.3125q1.28125 0 2.265625 0.671875q0.984375 0.65625 1.546875 1.8125q0.578125 1.140625 0.578125 2.640625q0 1.5 -0.578125 2.65625q-0.5625 1.15625 -1.5625 1.828125q-1.0 0.65625 -2.28125 0.65625q-0.84375 0 -1.609375 -0.3125q-0.765625 -0.328125 -1.28125 -0.859375q-0.515625 -0.546875 -0.6875 -1.1875l0.6875 -0.25l0 6.546875l-3.0 0zm5.171875 -6.453125q0.65625 0 1.15625 -0.328125q0.515625 -0.328125 0.796875 -0.90625q0.28125 -0.578125 0.28125 -1.390625q0 -0.78125 -0.28125 -1.359375q-0.28125 -0.59375 -0.78125 -0.921875q-0.484375 -0.328125 -1.171875 -0.328125q-0.703125 0 -1.203125 0.328125q-0.5 0.3125 -0.78125 0.90625q-0.28125 0.59375 -0.28125 1.375q0 0.8125 0.28125 1.390625q0.28125 0.578125 0.78125 0.90625q0.5 0.328125 1.203125 0.328125zm7.138214 2.34375l0 -13.8125l2.984375 0l0 13.8125l-2.984375 0zm10.187973 0.1875q-1.640625 0 -2.859375 -0.65625q-1.203125 -0.671875 -1.875 -1.8125q-0.671875 -1.15625 -0.671875 -2.625q0 -1.140625 0.359375 -2.09375q0.375 -0.953125 1.046875 -1.640625q0.671875 -0.703125 1.59375 -1.078125q0.9375 -0.390625 2.03125 -0.390625q1.046875 0 1.90625 0.375q0.875 0.375 1.5 1.046875q0.640625 0.671875 0.96875 1.59375q0.34375 0.90625 0.3125 1.984375l-0.03125 0.796875l-7.890625 0l-0.421875 -1.671875l5.890625 0l-0.3125 0.34375l0 -0.359375q-0.03125 -0.46875 -0.296875 -0.828125q-0.25 -0.375 -0.65625 -0.578125q-0.40625 -0.203125 -0.9375 -0.203125q-0.71875 0 -1.234375 0.296875q-0.515625 0.28125 -0.78125 0.828125q-0.25 0.546875 -0.25 1.359375q0 0.8125 0.34375 1.421875q0.34375 0.609375 1.0 0.953125q0.671875 0.328125 1.578125 0.328125q0.640625 0 1.125 -0.1875q0.5 -0.1875 1.078125 -0.640625l1.40625 1.984375q-0.578125 0.5 -1.234375 0.828125q-0.65625 0.3125 -1.34375 0.46875q-0.671875 0.15625 -1.34375 0.15625z" fill-rule="nonzero"/><path fill="#ffffff" d="m154.86906 249.26015q-2.265625 -1.421875 -3.46875 -3.546875q-1.1875 -2.125 -1.1875 -4.734375q0 -2.59375 1.203125 -4.71875q1.203125 -2.140625 3.46875 -3.5625l1.03125 1.15625q-1.90625 1.328125 -2.90625 3.171875q-0.984375 1.828125 -0.984375 3.953125q0 2.125 0.984375 3.96875q1.0 1.828125 2.90625 3.15625l-1.046875 1.15625z" fill-rule="nonzero"/><path fill="#ffffff" d="m161.61913 245.7914l1.390625 -6.515625l-0.0625 0.921875l-3.6875 -7.46875l2.421875 0l2.796875 5.78125l-0.453125 -0.046875l4.859375 -5.734375l2.3125 0l-6.6875 7.671875l0.546875 -1.265625l-1.421875 6.65625l-2.015625 0z" fill-rule="nonzero"/><path fill="#ffffff" d="m171.30725 252.18202l0 -7.0625l0.453125 0.34375l-1.71875 0.90625l-0.359375 -1.171875l2.328125 -1.234375l0.640625 0l0 8.21875l-1.34375 0zm-1.390625 0.609375l0 -1.296875l4.15625 0l0 1.296875l-4.15625 0z" fill-rule="nonzero"/><path fill="#ffffff" d="m176.46355 249.13515l-0.703125 -0.859375q0.640625 -0.375 1.046875 -0.859375q0.421875 -0.484375 0.421875 -0.84375q0 -0.1875 -0.09375 -0.359375q-0.09375 -0.171875 -0.390625 -0.5q-0.375 -0.34375 -0.484375 -0.59375q-0.109375 -0.25 -0.109375 -0.515625q0 -0.453125 0.3125 -0.71875q0.3125 -0.28125 0.828125 -0.28125q0.453125 0 0.828125 0.28125q0.390625 0.265625 0.609375 0.75q0.21875 0.46875 0.21875 1.078125q0 0.5625 -0.1875 1.078125q-0.1875 0.53125 -0.53125 0.96875q-0.328125 0.453125 -0.78125 0.8125q-0.4375 0.359375 -0.984375 0.5625z" fill-rule="nonzero"/><path fill="#ffffff" d="m190.35602 245.7914l1.390625 -6.515625l-0.0625 0.921875l-3.6875 -7.46875l2.421875 0l2.796875 5.78125l-0.453125 -0.046875l4.859375 -5.734375l2.3125 0l-6.6875 7.671875l0.546875 -1.265625l-1.421875 6.65625l-2.015625 0z" fill-rule="nonzero"/><path fill="#ffffff" d="m198.49727 252.7914l-0.40625 -1.015625l2.65625 -3.0q0.21875 -0.21875 0.4375 -0.515625q0.234375 -0.296875 0.4375 -0.609375q0.21875 -0.3125 0.34375 -0.609375q0.140625 -0.3125 0.140625 -0.578125q0 -0.40625 -0.15625 -0.671875q-0.15625 -0.28125 -0.453125 -0.4375q-0.28125 -0.15625 -0.703125 -0.15625q-0.359375 0 -0.703125 0.21875q-0.34375 0.21875 -0.640625 0.609375q-0.28125 0.375 -0.4375 0.875l-1.03125 -0.640625q0.203125 -0.71875 0.625 -1.234375q0.4375 -0.515625 1.03125 -0.78125q0.609375 -0.28125 1.328125 -0.28125q0.734375 0 1.296875 0.3125q0.578125 0.296875 0.890625 0.84375q0.328125 0.53125 0.328125 1.234375q0 0.296875 -0.0625 0.59375q-0.0625 0.296875 -0.203125 0.625q-0.125 0.3125 -0.34375 0.65625q-0.203125 0.328125 -0.5 0.703125q-0.296875 0.375 -0.671875 0.78125l-1.96875 2.15625l-0.25 -0.375l4.28125 0l0 1.296875l-5.265625 0z" fill-rule="nonzero"/><path fill="#ffffff" d="m205.79744 249.13515l-0.703125 -0.859375q0.640625 -0.375 1.046875 -0.859375q0.421875 -0.484375 0.421875 -0.84375q0 -0.1875 -0.09375 -0.359375q-0.09375 -0.171875 -0.390625 -0.5q-0.375 -0.34375 -0.484375 -0.59375q-0.109375 -0.25 -0.109375 -0.515625q0 -0.453125 0.3125 -0.71875q0.3125 -0.28125 0.828125 -0.28125q0.453125 0 0.828125 0.28125q0.390625 0.265625 0.609375 0.75q0.21875 0.46875 0.21875 1.078125q0 0.5625 -0.1875 1.078125q-0.1875 0.53125 -0.53125 0.96875q-0.328125 0.453125 -0.78125 0.8125q-0.4375 0.359375 -0.984375 0.5625zm10.689346 -3.140625q-0.609375 0 -0.953125 -0.359375q-0.328125 -0.359375 -0.328125 -1.03125q0 -0.625 0.34375 -1.015625q0.359375 -0.390625 0.9375 -0.390625q0.625 0 0.953125 0.375q0.34375 0.359375 0.34375 1.03125q0 0.609375 -0.359375 1.0q-0.359375 0.390625 -0.9375 0.390625zm3.5 0q-0.609375 0 -0.953125 -0.359375q-0.328125 -0.359375 -0.328125 -1.03125q0 -0.625 0.34375 -1.015625q0.359375 -0.390625 0.9375 -0.390625q0.625 0 0.953125 0.375q0.34375 0.359375 0.34375 1.03125q0 0.609375 -0.359375 1.0q-0.359375 0.390625 -0.9375 0.390625zm3.53125 0q-0.609375 0 -0.953125 -0.359375q-0.328125 -0.359375 -0.328125 -1.03125q0 -0.625 0.34375 -1.015625q0.359375 -0.390625 0.9375 -0.390625q0.625 0 0.953125 0.375q0.34375 0.359375 0.34375 1.03125q0 0.609375 -0.359375 1.0q-0.359375 0.390625 -0.9375 0.390625zm3.7713928 3.140625l-0.703125 -0.859375q0.640625 -0.375 1.046875 -0.859375q0.421875 -0.484375 0.421875 -0.84375q0 -0.1875 -0.09375 -0.359375q-0.09375 -0.171875 -0.390625 -0.5q-0.375 -0.34375 -0.484375 -0.59375q-0.109375 -0.25 -0.109375 -0.515625q0 -0.453125 0.3125 -0.71875q0.3125 -0.28125 0.828125 -0.28125q0.453125 0 0.828125 0.28125q0.390625 0.265625 0.609375 0.75q0.21875 0.46875 0.21875 1.078125q0 0.5625 -0.1875 1.078125q-0.1875 0.53125 -0.53125 0.96875q-0.328125 0.453125 -0.78125 0.8125q-0.4375 0.359375 -0.984375 0.5625z" fill-rule="nonzero"/><path fill="#ffffff" d="m241.18192 245.7914l1.390625 -6.515625l-0.0625 0.921875l-3.6875 -7.46875l2.421875 0l2.796875 5.78125l-0.453125 -0.046875l4.859375 -5.734375l2.3125 0l-6.6875 7.671875l0.546875 -1.265625l-1.421875 6.65625l-2.015625 0z" fill-rule="nonzero"/><path fill="#ffffff" d="m249.05753 252.7914l1.390625 -6.53125l1.28125 0l-0.28125 1.34375l-0.265625 0.15625q0.21875 -0.4375 0.65625 -0.796875q0.4375 -0.375 0.984375 -0.609375q0.5625 -0.234375 1.078125 -0.234375q0.75 0 1.1875 0.296875q0.4375 0.296875 0.546875 0.890625q0.125 0.59375 -0.078125 1.5l-0.84375 3.984375l-1.265625 0l0.828125 -3.890625q0.125 -0.5625 0.046875 -0.921875q-0.078125 -0.375 -0.359375 -0.53125q-0.265625 -0.171875 -0.734375 -0.15625q-0.375 0 -0.71875 0.125q-0.328125 0.109375 -0.609375 0.328125q-0.265625 0.203125 -0.46875 0.484375q-0.1875 0.28125 -0.25 0.609375l-0.84375 3.953125l-0.625 0q-0.171875 0 -0.328125 0q-0.15625 0 -0.328125 0z" fill-rule="nonzero"/><path fill="#ffffff" d="m256.9735 249.26015l-1.03125 -1.15625q1.90625 -1.328125 2.890625 -3.15625q1.0 -1.84375 1.0 -3.96875q0 -2.125 -1.0 -3.953125q-0.984375 -1.84375 -2.890625 -3.171875l1.046875 -1.15625q2.265625 1.421875 3.453125 3.546875q1.203125 2.125 1.203125 4.734375q0 2.59375 -1.203125 4.734375q-1.203125 2.125 -3.46875 3.546875z" fill-rule="nonzero"/><path fill="#4285f4" d="m81.34646 273.73248l0 0c0 -5.6476135 4.5783005 -10.225922 10.225922 -10.225922l228.7135 0c2.7120667 0 5.31308 1.0773621 7.2308044 2.9951172c1.9177551 1.9177246 2.9951172 4.518738 2.9951172 7.2308044l0 40.902496c0 5.6476135 -4.578308 10.225922 -10.225922 10.225922l-228.7135 0c-5.647621 0 -10.225922 -4.578308 -10.225922 -10.225922z" fill-rule="evenodd"/><path fill="#ffffff" d="m118.33851 290.29123q-1.5 0 -2.734375 -0.5q-1.21875 -0.515625 -2.140625 -1.421875q-0.90625 -0.921875 -1.421875 -2.140625q-0.5 -1.234375 -0.5 -2.703125q0 -1.484375 0.5 -2.703125q0.515625 -1.234375 1.421875 -2.140625q0.921875 -0.921875 2.140625 -1.421875q1.234375 -0.515625 2.71875 -0.515625q1.46875 0 2.703125 0.515625q1.234375 0.5 2.140625 1.421875q0.921875 0.90625 1.40625 2.140625q0.5 1.21875 0.5 2.703125q0 1.453125 -0.5 2.6875q-0.484375 1.234375 -1.40625 2.15625q-0.90625 0.90625 -2.140625 1.421875q-1.234375 0.5 -2.6875 0.5zm-0.015625 -2.984375q0.765625 0 1.40625 -0.28125q0.640625 -0.28125 1.109375 -0.796875q0.484375 -0.515625 0.734375 -1.203125q0.265625 -0.6875 0.265625 -1.5q0 -0.828125 -0.265625 -1.515625q-0.25 -0.6875 -0.734375 -1.203125q-0.46875 -0.515625 -1.109375 -0.796875q-0.640625 -0.28125 -1.40625 -0.28125q-0.765625 0 -1.421875 0.28125q-0.640625 0.28125 -1.125 0.796875q-0.484375 0.515625 -0.734375 1.203125q-0.25 0.6875 -0.25 1.515625q0 0.8125 0.25 1.515625q0.25 0.703125 0.734375 1.203125q0.484375 0.5 1.125 0.78125q0.65625 0.28125 1.421875 0.28125zm14.851997 3.0q-0.671875 0 -1.296875 -0.1875q-0.609375 -0.1875 -1.109375 -0.5q-0.484375 -0.3125 -0.8125 -0.734375q-0.328125 -0.421875 -0.4375 -0.875l0.640625 -0.21875l-0.15625 2.296875l-2.7812424 0l0 -13.796875l2.9999924 0l0 6.28125l-0.609375 -0.234375q0.109375 -0.484375 0.421875 -0.890625q0.3125 -0.421875 0.796875 -0.75q0.484375 -0.328125 1.0625 -0.515625q0.578125 -0.1875 1.203125 -0.1875q1.28125 0 2.28125 0.671875q1.0 0.65625 1.578125 1.828125q0.578125 1.15625 0.578125 2.640625q0 1.515625 -0.578125 2.6875q-0.5625 1.15625 -1.546875 1.828125q-0.984375 0.65625 -2.234375 0.65625zm-0.78125 -2.515625q0.65625 0 1.15625 -0.328125q0.515625 -0.34375 0.78125 -0.921875q0.28125 -0.59375 0.28125 -1.40625q0 -0.78125 -0.28125 -1.375q-0.265625 -0.59375 -0.78125 -0.90625q-0.5 -0.328125 -1.15625 -0.328125q-0.703125 0 -1.203125 0.328125q-0.5 0.3125 -0.78125 0.90625q-0.28125 0.59375 -0.28125 1.375q0 0.8125 0.28125 1.40625q0.28125 0.578125 0.78125 0.921875q0.5 0.328125 1.203125 0.328125zm10.447693 2.5q-1.46875 0 -2.578125 -0.46875q-1.109375 -0.46875 -1.765625 -1.25l1.8125 -1.5625q0.578125 0.578125 1.296875 0.84375q0.734375 0.265625 1.390625 0.265625q0.265625 0 0.46875 -0.046875q0.203125 -0.0625 0.34375 -0.15625q0.140625 -0.109375 0.21875 -0.25q0.078125 -0.140625 0.078125 -0.328125q0 -0.375 -0.34375 -0.578125q-0.171875 -0.09375 -0.5625 -0.21875q-0.390625 -0.125 -1.0 -0.296875q-0.875 -0.21875 -1.53125 -0.53125q-0.640625 -0.3125 -1.046875 -0.71875q-0.375 -0.390625 -0.578125 -0.859375q-0.203125 -0.484375 -0.203125 -1.078125q0 -0.703125 0.328125 -1.25q0.328125 -0.5625 0.875 -0.96875q0.546875 -0.421875 1.265625 -0.625q0.71875 -0.21875 1.484375 -0.21875q0.828125 0 1.5625 0.1875q0.75 0.1875 1.390625 0.53125q0.65625 0.328125 1.15625 0.796875l-1.578125 1.75q-0.328125 -0.3125 -0.75 -0.5625q-0.421875 -0.265625 -0.875 -0.40625q-0.4375 -0.15625 -0.8125 -0.15625q-0.28125 0 -0.5 0.046875q-0.203125 0.046875 -0.359375 0.15625q-0.140625 0.09375 -0.21875 0.234375q-0.078125 0.140625 -0.078125 0.328125q0 0.1875 0.09375 0.359375q0.109375 0.171875 0.296875 0.28125q0.1875 0.109375 0.59375 0.25q0.421875 0.140625 1.125 0.34375q0.875 0.234375 1.5 0.546875q0.640625 0.296875 1.015625 0.703125q0.296875 0.3125 0.4375 0.734375q0.15625 0.421875 0.15625 0.90625q0 0.953125 -0.53125 1.6875q-0.53125 0.734375 -1.46875 1.15625q-0.921875 0.421875 -2.109375 0.421875zm10.609848 0q-1.640625 0 -2.859375 -0.65625q-1.203125 -0.671875 -1.875 -1.8125q-0.671875 -1.15625 -0.671875 -2.625q0 -1.140625 0.359375 -2.09375q0.375 -0.953125 1.046875 -1.640625q0.671875 -0.703125 1.59375 -1.078125q0.9375 -0.390625 2.03125 -0.390625q1.046875 0 1.90625 0.375q0.875 0.375 1.5 1.046875q0.640625 0.671875 0.96875 1.59375q0.34375 0.90625 0.3125 1.984375l-0.03125 0.796875l-7.890625 0l-0.421875 -1.671875l5.890625 0l-0.3125 0.34375l0 -0.359375q-0.03125 -0.46875 -0.296875 -0.828125q-0.25 -0.375 -0.65625 -0.578125q-0.40625 -0.203125 -0.9375 -0.203125q-0.71875 0 -1.234375 0.296875q-0.515625 0.28125 -0.78125 0.828125q-0.25 0.546875 -0.25 1.359375q0 0.8125 0.34375 1.421875q0.34375 0.609375 1.0 0.953125q0.671875 0.328125 1.578125 0.328125q0.640625 0 1.125 -0.1875q0.5 -0.1875 1.078125 -0.640625l1.40625 1.984375q-0.578125 0.5 -1.234375 0.828125q-0.65625 0.3125 -1.34375 0.46875q-0.671875 0.15625 -1.34375 0.15625zm6.2138214 -0.1875l0 -9.90625l2.828125 0l0.140625 3.234375l-0.5625 -0.625q0.21875 -0.796875 0.734375 -1.421875q0.515625 -0.640625 1.203125 -1.015625q0.6875 -0.375 1.46875 -0.375q0.34375 0 0.625 0.0625q0.296875 0.046875 0.53125 0.125l-0.8125 3.296875q-0.203125 -0.125 -0.5625 -0.203125q-0.34375 -0.09375 -0.703125 -0.09375q-0.421875 0 -0.78125 0.140625q-0.34375 0.140625 -0.59375 0.40625q-0.234375 0.25 -0.375 0.609375q-0.140625 0.359375 -0.140625 0.796875l0 4.96875l-3.0 0zm12.453186 0l-4.140625 -9.90625l3.3125 0l2.453125 7.40625l-0.71875 0.078125l2.53125 -7.484375l3.265625 0l-4.34375 9.90625l-2.359375 0zm12.694534 0.1875q-1.640625 0 -2.859375 -0.65625q-1.203125 -0.671875 -1.875 -1.8125q-0.671875 -1.15625 -0.671875 -2.625q0 -1.140625 0.359375 -2.09375q0.375 -0.953125 1.046875 -1.640625q0.671875 -0.703125 1.59375 -1.078125q0.9375 -0.390625 2.03125 -0.390625q1.046875 0 1.90625 0.375q0.875 0.375 1.5 1.046875q0.640625 0.671875 0.96875 1.59375q0.34375 0.90625 0.3125 1.984375l-0.03125 0.796875l-7.890625 0l-0.421875 -1.671875l5.890625 0l-0.3125 0.34375l0 -0.359375q-0.03125 -0.46875 -0.296875 -0.828125q-0.25 -0.375 -0.65625 -0.578125q-0.40625 -0.203125 -0.9375 -0.203125q-0.71875 0 -1.234375 0.296875q-0.515625 0.28125 -0.78125 0.828125q-0.25 0.546875 -0.25 1.359375q0 0.8125 0.34375 1.421875q0.34375 0.609375 1.0 0.953125q0.671875 0.328125 1.578125 0.328125q0.640625 0 1.125 -0.1875q0.5 -0.1875 1.078125 -0.640625l1.40625 1.984375q-0.578125 0.5 -1.234375 0.828125q-0.65625 0.3125 -1.34375 0.46875q-0.671875 0.15625 -1.34375 0.15625zm9.963821 0.015625q-1.296875 0 -2.296875 -0.65625q-0.984375 -0.671875 -1.5625 -1.828125q-0.578125 -1.171875 -0.578125 -2.65625q0 -1.5 0.578125 -2.65625q0.578125 -1.171875 1.578125 -1.84375q1.015625 -0.671875 2.3125 -0.671875q0.671875 0 1.28125 0.203125q0.625 0.203125 1.125 0.5625q0.5 0.34375 0.8125 0.8125q0.328125 0.453125 0.390625 0.9375l-0.71875 0.171875l0 -6.390625l3.0 0l0 13.8125l-2.765625 0l-0.171875 -2.25l0.59375 0.078125q-0.0625 0.46875 -0.375 0.90625q-0.296875 0.421875 -0.78125 0.75q-0.484375 0.328125 -1.109375 0.515625q-0.625 0.203125 -1.3125 0.203125zm0.765625 -2.484375q0.6875 0 1.1875 -0.328125q0.5 -0.34375 0.765625 -0.9375q0.28125 -0.59375 0.28125 -1.390625q0 -0.828125 -0.28125 -1.421875q-0.265625 -0.59375 -0.765625 -0.921875q-0.5 -0.34375 -1.1875 -0.34375q-0.6875 0 -1.1875 0.34375q-0.5 0.328125 -0.78125 0.921875q-0.28125 0.59375 -0.28125 1.421875q0 0.796875 0.28125 1.390625q0.28125 0.59375 0.78125 0.9375q0.5 0.328125 1.1875 0.328125zm13.702438 2.28125l0 -2.671875l2.203125 0l0 -7.71875l-2.203125 0l0 -2.671875l7.59375 0l0 2.671875l-2.21875 0l0 7.71875l2.21875 0l0 2.671875l-7.59375 0zm10.307343 0l0 -9.90625l2.828125 0l0.09375 2.015625l-0.59375 0.21875q0.203125 -0.671875 0.734375 -1.21875q0.53125 -0.546875 1.28125 -0.875q0.75 -0.34375 1.5625 -0.34375q1.125 0 1.890625 0.453125q0.765625 0.453125 1.15625 1.359375q0.390625 0.90625 0.390625 2.21875l0 6.078125l-3.0 0l0 -5.84375q0 -0.59375 -0.171875 -0.984375q-0.171875 -0.390625 -0.515625 -0.578125q-0.34375 -0.203125 -0.84375 -0.1875q-0.390625 0 -0.734375 0.125q-0.328125 0.125 -0.578125 0.359375q-0.234375 0.21875 -0.375 0.53125q-0.140625 0.296875 -0.140625 0.640625l0 5.9375l-1.484375 0q-0.515625 0 -0.890625 0q-0.375 0 -0.609375 0zm15.190475 0.1875q-1.46875 0 -2.578125 -0.46875q-1.109375 -0.46875 -1.765625 -1.25l1.8125 -1.5625q0.578125 0.578125 1.296875 0.84375q0.734375 0.265625 1.390625 0.265625q0.265625 0 0.46875 -0.046875q0.203125 -0.0625 0.34375 -0.15625q0.140625 -0.109375 0.21875 -0.25q0.078125 -0.140625 0.078125 -0.328125q0 -0.375 -0.34375 -0.578125q-0.171875 -0.09375 -0.5625 -0.21875q-0.390625 -0.125 -1.0 -0.296875q-0.875 -0.21875 -1.53125 -0.53125q-0.640625 -0.3125 -1.046875 -0.71875q-0.375 -0.390625 -0.578125 -0.859375q-0.203125 -0.484375 -0.203125 -1.078125q0 -0.703125 0.328125 -1.25q0.328125 -0.5625 0.875 -0.96875q0.546875 -0.421875 1.265625 -0.625q0.71875 -0.21875 1.484375 -0.21875q0.828125 0 1.5625 0.1875q0.75 0.1875 1.390625 0.53125q0.65625 0.328125 1.15625 0.796875l-1.578125 1.75q-0.328125 -0.3125 -0.75 -0.5625q-0.421875 -0.265625 -0.875 -0.40625q-0.4375 -0.15625 -0.8125 -0.15625q-0.28125 0 -0.5 0.046875q-0.203125 0.046875 -0.359375 0.15625q-0.140625 0.09375 -0.21875 0.234375q-0.078125 0.140625 -0.078125 0.328125q0 0.1875 0.09375 0.359375q0.109375 0.171875 0.296875 0.28125q0.1875 0.109375 0.59375 0.25q0.421875 0.140625 1.125 0.34375q0.875 0.234375 1.5 0.546875q0.640625 0.296875 1.015625 0.703125q0.296875 0.3125 0.4375 0.734375q0.15625 0.421875 0.15625 0.90625q0 0.953125 -0.53125 1.6875q-0.53125 0.734375 -1.46875 1.15625q-0.921875 0.421875 -2.109375 0.421875zm6.703598 -0.1875l0 -12.40625l2.984375 0l0 12.40625l-2.984375 0zm-1.75 -7.296875l0 -2.609375l6.65625 0l0 2.609375l-6.65625 0zm11.925598 7.46875q-1.25 0 -2.234375 -0.65625q-0.984375 -0.671875 -1.5625 -1.828125q-0.578125 -1.171875 -0.578125 -2.65625q0 -1.5 0.578125 -2.65625q0.578125 -1.15625 1.578125 -1.8125q1.015625 -0.671875 2.3125 -0.671875q0.703125 0 1.28125 0.203125q0.59375 0.203125 1.046875 0.578125q0.453125 0.359375 0.765625 0.84375q0.3125 0.46875 0.46875 1.0l-0.625 -0.078125l0 -2.34375l2.96875 0l0 9.90625l-3.015625 0l0 -2.390625l0.671875 -0.015625q-0.15625 0.515625 -0.5 0.984375q-0.328125 0.46875 -0.8125 0.828125q-0.484375 0.34375 -1.078125 0.5625q-0.59375 0.203125 -1.265625 0.203125zm0.8125 -2.515625q0.703125 0 1.203125 -0.3125q0.5 -0.328125 0.78125 -0.90625q0.28125 -0.59375 0.28125 -1.40625q0 -0.796875 -0.28125 -1.375q-0.28125 -0.59375 -0.78125 -0.921875q-0.5 -0.328125 -1.203125 -0.328125q-0.671875 0 -1.171875 0.328125q-0.484375 0.328125 -0.765625 0.921875q-0.28125 0.578125 -0.28125 1.375q0 0.8125 0.28125 1.40625q0.28125 0.578125 0.765625 0.90625q0.5 0.3125 1.171875 0.3125zm7.825714 2.34375l0 -9.90625l2.828125 0l0.09375 2.015625l-0.59375 0.21875q0.203125 -0.671875 0.734375 -1.21875q0.53125 -0.546875 1.28125 -0.875q0.75 -0.34375 1.5625 -0.34375q1.125 0 1.890625 0.453125q0.765625 0.453125 1.15625 1.359375q0.390625 0.90625 0.390625 2.21875l0 6.078125l-3.0 0l0 -5.84375q0 -0.59375 -0.171875 -0.984375q-0.171875 -0.390625 -0.515625 -0.578125q-0.34375 -0.203125 -0.84375 -0.1875q-0.390625 0 -0.734375 0.125q-0.328125 0.125 -0.578125 0.359375q-0.234375 0.21875 -0.375 0.53125q-0.140625 0.296875 -0.140625 0.640625l0 5.9375l-1.484375 0q-0.515625 0 -0.890625 0q-0.375 0 -0.609375 0zm16.19049 0.1875q-1.4375 0 -2.578125 -0.671875q-1.140625 -0.671875 -1.796875 -1.828125q-0.65625 -1.171875 -0.65625 -2.65625q0 -1.46875 0.65625 -2.625q0.65625 -1.171875 1.796875 -1.84375q1.140625 -0.671875 2.578125 -0.671875q1.328125 0 2.4375 0.46875q1.109375 0.46875 1.765625 1.296875l-1.625 1.9375q-0.265625 -0.296875 -0.625 -0.546875q-0.34375 -0.265625 -0.78125 -0.40625q-0.421875 -0.15625 -0.890625 -0.15625q-0.703125 0 -1.25 0.328125q-0.546875 0.328125 -0.84375 0.90625q-0.296875 0.578125 -0.296875 1.3125q0 0.71875 0.296875 1.296875q0.3125 0.578125 0.859375 0.921875q0.546875 0.328125 1.234375 0.328125q0.484375 0 0.890625 -0.125q0.40625 -0.125 0.75 -0.359375q0.359375 -0.25 0.65625 -0.59375l1.59375 1.953125q-0.625 0.796875 -1.765625 1.265625q-1.125 0.46875 -2.40625 0.46875zm10.542664 0q-1.640625 0 -2.859375 -0.65625q-1.203125 -0.671875 -1.875 -1.8125q-0.671875 -1.15625 -0.671875 -2.625q0 -1.140625 0.359375 -2.09375q0.375 -0.953125 1.046875 -1.640625q0.671875 -0.703125 1.59375 -1.078125q0.9375 -0.390625 2.03125 -0.390625q1.046875 0 1.90625 0.375q0.875 0.375 1.5 1.046875q0.640625 0.671875 0.96875 1.59375q0.34375 0.90625 0.3125 1.984375l-0.03125 0.796875l-7.890625 0l-0.421875 -1.671875l5.890625 0l-0.3125 0.34375l0 -0.359375q-0.03125 -0.46875 -0.296875 -0.828125q-0.25 -0.375 -0.65625 -0.578125q-0.40625 -0.203125 -0.9375 -0.203125q-0.71875 0 -1.234375 0.296875q-0.515625 0.28125 -0.78125 0.828125q-0.25 0.546875 -0.25 1.359375q0 0.8125 0.34375 1.421875q0.34375 0.609375 1.0 0.953125q0.671875 0.328125 1.578125 0.328125q0.640625 0 1.125 -0.1875q0.5 -0.1875 1.078125 -0.640625l1.40625 1.984375q-0.578125 0.5 -1.234375 0.828125q-0.65625 0.3125 -1.34375 0.46875q-0.671875 0.15625 -1.34375 0.15625zm9.557556 0q-1.46875 0 -2.578125 -0.46875q-1.109375 -0.46875 -1.765625 -1.25l1.8125 -1.5625q0.578125 0.578125 1.296875 0.84375q0.734375 0.265625 1.390625 0.265625q0.265625 0 0.46875 -0.046875q0.203125 -0.0625 0.34375 -0.15625q0.140625 -0.109375 0.21875 -0.25q0.078125 -0.140625 0.078125 -0.328125q0 -0.375 -0.34375 -0.578125q-0.171875 -0.09375 -0.5625 -0.21875q-0.390625 -0.125 -1.0 -0.296875q-0.875 -0.21875 -1.53125 -0.53125q-0.640625 -0.3125 -1.046875 -0.71875q-0.375 -0.390625 -0.578125 -0.859375q-0.203125 -0.484375 -0.203125 -1.078125q0 -0.703125 0.328125 -1.25q0.328125 -0.5625 0.875 -0.96875q0.546875 -0.421875 1.265625 -0.625q0.71875 -0.21875 1.484375 -0.21875q0.828125 0 1.5625 0.1875q0.75 0.1875 1.390625 0.53125q0.65625 0.328125 1.15625 0.796875l-1.578125 1.75q-0.328125 -0.3125 -0.75 -0.5625q-0.421875 -0.265625 -0.875 -0.40625q-0.4375 -0.15625 -0.8125 -0.15625q-0.28125 0 -0.5 0.046875q-0.203125 0.046875 -0.359375 0.15625q-0.140625 0.09375 -0.21875 0.234375q-0.078125 0.140625 -0.078125 0.328125q0 0.1875 0.09375 0.359375q0.109375 0.171875 0.296875 0.28125q0.1875 0.109375 0.59375 0.25q0.421875 0.140625 1.125 0.34375q0.875 0.234375 1.5 0.546875q0.640625 0.296875 1.015625 0.703125q0.296875 0.3125 0.4375 0.734375q0.15625 0.421875 0.15625 0.90625q0 0.953125 -0.53125 1.6875q-0.53125 0.734375 -1.46875 1.15625q-0.921875 0.421875 -2.109375 0.421875z" fill-rule="nonzero"/><path fill="#ffffff" d="m157.07983 315.57248q-2.265625 -1.421875 -3.46875 -3.546875q-1.1875 -2.125 -1.1875 -4.734375q0 -2.59375 1.203125 -4.71875q1.203125 -2.140625 3.46875 -3.5625l1.03125 1.15625q-1.90625 1.328125 -2.90625 3.171875q-0.984375 1.828125 -0.984375 3.953125q0 2.125 0.984375 3.96875q1.0 1.828125 2.90625 3.15625l-1.046875 1.15625z" fill-rule="nonzero"/><path fill="#ffffff" d="m160.5799 316.4006l2.953125 -4.578125l-0.3125 1.53125l-2.546875 -11.046875l2.234375 0l1.53125 7.203125q0.0625 0.1875 0.109375 0.578125q0.046875 0.375 0.0625 0.75l-0.5 0.109375q0.21875 -0.390625 0.4375 -0.78125q0.234375 -0.390625 0.4375 -0.78125l4.0625 -7.078125l2.28125 0l-6.109375 9.796875l-2.5625 4.296875l-2.078125 0z" fill-rule="nonzero"/><path fill="#ffffff" d="m172.04417 318.49435l0 -7.0625l0.453125 0.34375l-1.71875 0.90625l-0.359375 -1.171875l2.328125 -1.234375l0.640625 0l0 8.21875l-1.34375 0zm-1.390625 0.609375l0 -1.296875l4.15625 0l0 1.296875l-4.15625 0z" fill-rule="nonzero"/><path fill="#ffffff" d="m177.20047 315.44748l-0.703125 -0.859375q0.640625 -0.375 1.046875 -0.859375q0.421875 -0.484375 0.421875 -0.84375q0 -0.1875 -0.09375 -0.359375q-0.09375 -0.171875 -0.390625 -0.5q-0.375 -0.34375 -0.484375 -0.59375q-0.109375 -0.25 -0.109375 -0.515625q0 -0.453125 0.3125 -0.71875q0.3125 -0.28125 0.828125 -0.28125q0.453125 0 0.828125 0.28125q0.390625 0.265625 0.609375 0.75q0.21875 0.46875 0.21875 1.078125q0 0.5625 -0.1875 1.078125q-0.1875 0.53125 -0.53125 0.96875q-0.328125 0.453125 -0.78125 0.8125q-0.4375 0.359375 -0.984375 0.5625z" fill-rule="nonzero"/><path fill="#ffffff" d="m187.84294 316.4006l2.953125 -4.578125l-0.3125 1.53125l-2.546875 -11.046875l2.234375 0l1.53125 7.203125q0.0625 0.1875 0.109375 0.578125q0.046875 0.375 0.0625 0.75l-0.5 0.109375q0.21875 -0.390625 0.4375 -0.78125q0.234375 -0.390625 0.4375 -0.78125l4.0625 -7.078125l2.28125 0l-6.109375 9.796875l-2.5625 4.296875l-2.078125 0z" fill-rule="nonzero"/><path fill="#ffffff" d="m197.76035 319.10373l-0.40625 -1.015625l2.65625 -3.0q0.21875 -0.21875 0.4375 -0.515625q0.234375 -0.296875 0.4375 -0.609375q0.21875 -0.3125 0.34375 -0.609375q0.140625 -0.3125 0.140625 -0.578125q0 -0.40625 -0.15625 -0.671875q-0.15625 -0.28125 -0.453125 -0.4375q-0.28125 -0.15625 -0.703125 -0.15625q-0.359375 0 -0.703125 0.21875q-0.34375 0.21875 -0.640625 0.609375q-0.28125 0.375 -0.4375 0.875l-1.03125 -0.640625q0.203125 -0.71875 0.625 -1.234375q0.4375 -0.515625 1.03125 -0.78125q0.609375 -0.28125 1.328125 -0.28125q0.734375 0 1.296875 0.3125q0.578125 0.296875 0.890625 0.84375q0.328125 0.53125 0.328125 1.234375q0 0.296875 -0.0625 0.59375q-0.0625 0.296875 -0.203125 0.625q-0.125 0.3125 -0.34375 0.65625q-0.203125 0.328125 -0.5 0.703125q-0.296875 0.375 -0.671875 0.78125l-1.96875 2.15625l-0.25 -0.375l4.28125 0l0 1.296875l-5.265625 0z" fill-rule="nonzero"/><path fill="#ffffff" d="m205.06052 315.44748l-0.703125 -0.859375q0.640625 -0.375 1.046875 -0.859375q0.421875 -0.484375 0.421875 -0.84375q0 -0.1875 -0.09375 -0.359375q-0.09375 -0.171875 -0.390625 -0.5q-0.375 -0.34375 -0.484375 -0.59375q-0.109375 -0.25 -0.109375 -0.515625q0 -0.453125 0.3125 -0.71875q0.3125 -0.28125 0.828125 -0.28125q0.453125 0 0.828125 0.28125q0.390625 0.265625 0.609375 0.75q0.21875 0.46875 0.21875 1.078125q0 0.5625 -0.1875 1.078125q-0.1875 0.53125 -0.53125 0.96875q-0.328125 0.453125 -0.78125 0.8125q-0.4375 0.359375 -0.984375 0.5625zm10.689331 -3.140625q-0.609375 0 -0.953125 -0.359375q-0.328125 -0.359375 -0.328125 -1.03125q0 -0.625 0.34375 -1.015625q0.359375 -0.390625 0.9375 -0.390625q0.625 0 0.953125 0.375q0.34375 0.359375 0.34375 1.03125q0 0.609375 -0.359375 1.0q-0.359375 0.390625 -0.9375 0.390625zm3.5 0q-0.609375 0 -0.953125 -0.359375q-0.328125 -0.359375 -0.328125 -1.03125q0 -0.625 0.34375 -1.015625q0.359375 -0.390625 0.9375 -0.390625q0.625 0 0.953125 0.375q0.34375 0.359375 0.34375 1.03125q0 0.609375 -0.359375 1.0q-0.359375 0.390625 -0.9375 0.390625zm3.53125 0q-0.609375 0 -0.953125 -0.359375q-0.328125 -0.359375 -0.328125 -1.03125q0 -0.625 0.34375 -1.015625q0.359375 -0.390625 0.9375 -0.390625q0.625 0 0.953125 0.375q0.34375 0.359375 0.34375 1.03125q0 0.609375 -0.359375 1.0q-0.359375 0.390625 -0.9375 0.390625zm3.7714233 3.140625l-0.703125 -0.859375q0.640625 -0.375 1.046875 -0.859375q0.421875 -0.484375 0.421875 -0.84375q0 -0.1875 -0.09375 -0.359375q-0.09375 -0.171875 -0.390625 -0.5q-0.375 -0.34375 -0.484375 -0.59375q-0.109375 -0.25 -0.109375 -0.515625q0 -0.453125 0.3125 -0.71875q0.3125 -0.28125 0.828125 -0.28125q0.453125 0 0.828125 0.28125q0.390625 0.265625 0.609375 0.75q0.21875 0.46875 0.21875 1.078125q0 0.5625 -0.1875 1.078125q-0.1875 0.53125 -0.53125 0.96875q-0.328125 0.453125 -0.78125 0.8125q-0.4375 0.359375 -0.984375 0.5625z" fill-rule="nonzero"/><path fill="#ffffff" d="m237.19498 316.4006l2.953125 -4.578125l-0.3125 1.53125l-2.546875 -11.046875l2.234375 0l1.53125 7.203125q0.0625 0.1875 0.109375 0.578125q0.046875 0.375 0.0625 0.75l-0.5 0.109375q0.21875 -0.390625 0.4375 -0.78125q0.234375 -0.390625 0.4375 -0.78125l4.0625 -7.078125l2.28125 0l-6.109375 9.796875l-2.5625 4.296875l-2.078125 0z" fill-rule="nonzero"/><path fill="#ffffff" d="m246.84677 319.10373l1.390625 -6.53125l1.28125 0l-0.28125 1.34375l-0.265625 0.15625q0.21875 -0.4375 0.65625 -0.796875q0.4375 -0.375 0.984375 -0.609375q0.5625 -0.234375 1.078125 -0.234375q0.75 0 1.1875 0.296875q0.4375 0.296875 0.546875 0.890625q0.125 0.59375 -0.078125 1.5l-0.84375 3.984375l-1.265625 0l0.828125 -3.890625q0.125 -0.5625 0.046875 -0.921875q-0.078125 -0.375 -0.359375 -0.53125q-0.265625 -0.171875 -0.734375 -0.15625q-0.375 0 -0.71875 0.125q-0.328125 0.109375 -0.609375 0.328125q-0.265625 0.203125 -0.46875 0.484375q-0.1875 0.28125 -0.25 0.609375l-0.84375 3.953125l-0.625 0q-0.171875 0 -0.328125 0q-0.15625 0 -0.328125 0z" fill-rule="nonzero"/><path fill="#ffffff" d="m254.76276 315.57248l-1.03125 -1.15625q1.90625 -1.328125 2.890625 -3.15625q1.0 -1.84375 1.0 -3.96875q0 -2.125 -1.0 -3.953125q-0.984375 -1.84375 -2.890625 -3.171875l1.046875 -1.15625q2.265625 1.421875 3.453125 3.546875q1.203125 2.125 1.203125 4.734375q0 2.59375 -1.203125 4.734375q-1.203125 2.125 -3.46875 3.546875z" fill-rule="nonzero"/><path fill="#000000" fill-opacity="0.0" d="m72.968506 189.24934l265.92126 0l0 146.26772l-265.92126 0z" fill-rule="evenodd"/><path stroke="#000000" stroke-width="2.0" stroke-linejoin="round" stroke-linecap="butt" stroke-dasharray="2.0,6.0" d="m72.968506 189.24934l265.92126 0l0 146.26772l-265.92126 0z" fill-rule="evenodd"/><path fill="#000000" fill-opacity="0.0" d="m57.15484 113.58997c-20.379726 38.73812 -22.214806 92.542946 -1.8752289 131.30215" fill-rule="evenodd"/><path stroke="#595959" stroke-width="4.0" stroke-linejoin="round" stroke-linecap="butt" d="m57.15484 113.58997c-10.189861 19.369057 -15.743565 42.5048 -16.207352 65.643166c-0.23189545 11.569183 0.8086891 23.139038 3.1784706 34.23903c1.1848869 5.5500183 2.7020798 10.982559 4.558655 16.238815c0.23207474 0.6570282 0.4694481 1.3113098 0.71214294 1.9627228l0.26890182 0.7123413" fill-rule="evenodd"/><path fill="#595959" stroke="#595959" stroke-width="4.0" stroke-linecap="butt" d="m49.665657 232.38605l-5.9460144 -2.261612l9.165207 9.432953l-0.9575691 -13.117355z" fill-rule="evenodd"/><path fill="#000000" fill-opacity="0.0" d="m354.76636 238.12999c16.244385 -40.645386 12.47934 -94.34903 -11.776886 -130.78477" fill-rule="evenodd"/><path stroke="#595959" stroke-width="4.0" stroke-linejoin="round" stroke-linecap="butt" d="m354.76636 238.13c8.122162 -20.322708 11.242004 -43.909958 9.299286 -66.97102c-0.9713745 -11.530518 -3.2084045 -22.929504 -6.718567 -33.72307c-1.7550964 -5.3967896 -3.8284912 -10.642227 -6.2211 -15.677086c-0.29907227 -0.6293564 -0.60317993 -1.2554321 -0.91223145 -1.8780823l-0.34136963 -0.68039703" fill-rule="evenodd"/><path fill="#595959" stroke="#595959" stroke-width="4.0" stroke-linecap="butt" d="m349.87238 119.20034l6.148834 1.631607l-10.095673 -8.429657l2.3152466 12.946861z" fill-rule="evenodd"/><path fill="#000000" fill-opacity="0.0" d="m-1.6745406 216.30446l0 -94.20472l35.338585 0l0 94.20472z" fill-rule="evenodd"/><path fill="#595959" d="m23.674751 200.60966l-14.937499 0l0 -6.25q0 -1.640625 0.546875 -3.0q0.546875 -1.375 1.546875 -2.359375q1.0 -1.0 2.375 -1.53125q1.359375 -0.53125 2.999999 -0.53125q1.640625 0 3.015625 0.53125q1.375 0.53125 2.375 1.53125q0.984375 0.984375 1.53125 2.359375q0.546875 1.359375 0.546875 3.0l0 6.25zm-2.46875 -3.625l-0.734375 0.484375l0 -3.0q0 -0.90625 -0.296875 -1.609375q-0.3125 -0.703125 -0.859375 -1.203125q-0.5625 -0.5 -1.34375 -0.765625q-0.796875 -0.28125 -1.765625 -0.28125q-0.95312405 0 -1.734374 0.28125q-0.796875 0.265625 -1.34375 0.765625q-0.5625 0.5 -0.875 1.203125q-0.3125 0.703125 -0.3125 1.609375l0 3.0625l-0.671875 -0.546875l9.937499 0zm2.46875 -12.840378l-14.937499 0l0 -6.71875q0 -1.4375 0.625 -2.59375q0.625 -1.15625 1.703125 -1.8125q1.078125 -0.671875 2.4375 -0.671875q1.40625 0 2.531249 0.671875q1.109375 0.65625 1.75 1.8125q0.640625 1.140625 0.640625 2.59375l0 3.265625l5.25 0l0 3.453125zm0 -8.28125l-6.734375 3.796875l-0.53125 -3.703125l7.265625 -4.234375l0 4.140625zm-8.015624 4.828125l0 -2.953125q0 -0.546875 -0.25 -0.953125q-0.25 -0.421875 -0.6875 -0.640625q-0.453125 -0.234375 -1.03125 -0.234375q-0.578125 0 -1.015625 0.265625q-0.4375 0.25 -0.671875 0.734375q-0.234375 0.46875 -0.234375 1.15625l0 2.625l3.890625 0zm8.015624 -9.628647l-14.937499 -5.90625l0 -3.0625l14.937499 -5.875l0 3.671875l-7.578125 2.8125q-0.43749905 0.171875 -0.95312405 0.34375q-0.515625 0.171875 -1.046875 0.34375q-0.546875 0.171875 -1.0625 0.328125q-0.53125 0.15625 -0.984375 0.265625l-0.015625 -0.640625q0.53125 0.125 1.046875 0.296875q0.5 0.15625 1.015625 0.3125q0.5 0.15625 1.0 0.359375q0.5 0.1875 1.031249 0.359375l7.546875 2.8125l0 3.578125zm-2.859375 -2.8125l-2.734375 -1.125l0 -6.875l2.734375 -1.109375l0 9.109375zm2.859375 -15.714066l-14.937499 4.484375l0 -3.703125l7.859374 -2.234375q0.53125 -0.140625 1.078125 -0.265625q0.546875 -0.125 1.03125 -0.1875q0.484375 -0.078125 0.90625 -0.125q0.421875 -0.046875 0.6875 -0.078125l0 0.46875q-0.78125 -0.125 -1.390625 -0.21875q-0.625 -0.109375 -1.171875 -0.234375q-0.546875 -0.125 -1.140625 -0.3125l-5.906249 -2.21875l0 -2.90625l5.906249 -2.171875q0.703125 -0.265625 1.328125 -0.421875q0.609375 -0.171875 1.171875 -0.265625q0.5625 -0.109375 1.125 -0.171875l0.0625 0.4375q-0.390625 -0.046875 -0.71875 -0.0625q-0.328125 -0.03125 -0.640625 -0.0625q-0.3125 -0.03125 -0.640625 -0.078125q-0.34375 -0.046875 -0.75 -0.125q-0.421875 -0.078125 -0.96875 -0.234375l-7.828124 -2.21875l0 -3.609375l14.937499 4.484375l0 2.765625l-8.593749 3.546875l0.046875 -0.40625l8.546874 3.265625l0 2.859375z" fill-rule="nonzero"/><path fill="#000000" fill-opacity="0.0" d="m412.54068 131.62204l0 94.20473l-35.338593 0l0 -94.20473z" fill-rule="evenodd"/><path fill="#595959" d="m387.19138 144.82306l3.046875 0l0 2.515625l8.828125 0l0 -2.515625l3.0625 0l0 8.6875l-3.0625 0l0 -2.546875l-8.828125 0l0 2.546875l-3.046875 0l0 -8.6875zm0 12.134033l14.9375 0l0 3.25l-10.671875 7.828125l0.109375 -0.703125q0.703125 -0.109375 1.34375 -0.1875q0.640625 -0.0625 1.25 -0.109375q0.625 -0.046875 1.265625 -0.078125q0.640625 -0.03125 1.375 -0.046875q0.75 -0.015625 1.625 -0.015625l3.703125 0l0 3.515625l-14.9375 0l0 -3.28125l11.0 -8.171875l-0.140625 1.09375q-1.03125 0.109375 -1.75 0.171875q-0.703125 0.078125 -1.265625 0.125q-0.546875 0.0625 -1.0 0.078125q-0.4375 0.03125 -0.875 0.03125q-0.4375 0.015625 -0.984375 0.015625l-4.984375 0l0 -3.515625zm0 17.211868l14.9375 0l0 3.625l-14.9375 0l0 -3.625zm5.71875 1.6875l3.03125 0l0 7.71875l-3.03125 0l0 -7.71875zm6.015625 0l3.203125 0l0 8.59375l-3.203125 0l0 -8.59375zm-11.734375 11.493332l14.9375 0l0 10.40625l-3.09375 0l0 -6.890625l-8.75 0l0 7.109375l-3.09375 0l0 -10.625zm6.125 1.703125l2.9375 0l0 7.75l-2.9375 0l0 -7.75zm-6.125 12.053574l14.9375 0l0 6.71875q0 1.4375 -0.625 2.59375q-0.625 1.15625 -1.703125 1.8125q-1.078125 0.671875 -2.4375 0.671875q-1.40625 0 -2.53125 -0.671875q-1.109375 -0.65625 -1.75 -1.8125q-0.640625 -1.140625 -0.640625 -2.59375l0 -3.265625l-5.25 0l0 -3.453125zm0 8.28125l6.734375 -3.796875l0.53125 3.703125l-7.265625 4.234375l0 -4.140625zm8.015625 -4.828125l0 2.953125q0 0.546875 0.25 0.953125q0.25 0.421875 0.6875 0.640625q0.453125 0.234375 1.03125 0.234375q0.578125 0 1.015625 -0.265625q0.4375 -0.25 0.671875 -0.734375q0.234375 -0.46875 0.234375 -1.15625l0 -2.625l-3.890625 0z" fill-rule="nonzero"/></g></svg>