<svg version="1.1" viewBox="0.0 0.0 1273.976377952756 408.9160104986877" fill="none" stroke="none" stroke-linecap="square" stroke-miterlimit="10" xmlns:xlink="http://www.w3.org/1999/xlink" xmlns="http://www.w3.org/2000/svg"><clipPath id="p.0"><path d="m0 0l1273.9763 0l0 408.91602l-1273.9763 0l0 -408.91602z" clip-rule="nonzero"/></clipPath><g clip-path="url(#p.0)"><path fill="#000000" fill-opacity="0.0" d="m0 0l1273.9763 0l0 408.91602l-1273.9763 0z" fill-rule="evenodd"/><path fill="#000000" fill-opacity="0.0" d="m954.09973 183.97113l0 -132.40945" fill-rule="evenodd"/><path stroke="#000000" stroke-width="1.0" stroke-linejoin="round" stroke-linecap="butt" d="m954.09973 183.97113l0 -128.98236" fill-rule="evenodd"/><path fill="#000000" stroke="#000000" stroke-width="1.0" stroke-linecap="butt" d="m954.09973 54.988766l1.1245728 1.1245842l-1.1245728 -3.0897675l-1.1245728 3.0897675z" fill-rule="evenodd"/><path fill="#000000" fill-opacity="0.0" d="m954.09973 183.97113l238.45667 0" fill-rule="evenodd"/><path stroke="#000000" stroke-width="1.0" stroke-linejoin="round" stroke-linecap="butt" d="m954.09973 183.97113l235.02966 0" fill-rule="evenodd"/><path fill="#000000" stroke="#000000" stroke-width="1.0" stroke-linecap="butt" d="m1189.1294 183.97113l-1.1246338 1.124588l3.0897217 -1.124588l-3.0897217 -1.124588z" fill-rule="evenodd"/><path fill="#cfe2f3" d="m980.2782 103.30971l29.669312 0l0 80.66142l-29.669312 0z" fill-rule="evenodd"/><path stroke="#000000" stroke-width="1.0" stroke-linejoin="round" stroke-linecap="butt" d="m980.2782 103.30971l29.669312 0l0 80.66142l-29.669312 0z" fill-rule="evenodd"/><path fill="#cfe2f3" d="m1024.1497 143.32545l29.66919 0l0 40.62993l-29.66919 0z" fill-rule="evenodd"/><path stroke="#000000" stroke-width="1.0" stroke-linejoin="round" stroke-linecap="butt" d="m1024.1497 143.32545l29.66919 0l0 40.62993l-29.66919 0z" fill-rule="evenodd"/><path fill="#cfe2f3" d="m1068.021 123.32546l29.669312 0l0 60.62992l-29.669312 0z" fill-rule="evenodd"/><path stroke="#000000" stroke-width="1.0" stroke-linejoin="round" stroke-linecap="butt" d="m1068.021 123.32546l29.669312 0l0 60.62992l-29.669312 0z" fill-rule="evenodd"/><path fill="#cfe2f3" d="m1111.8923 73.64829l29.669312 0l0 110.29922l-29.669312 0z" fill-rule="evenodd"/><path stroke="#000000" stroke-width="1.0" stroke-linejoin="round" stroke-linecap="butt" d="m1111.8923 73.64829l29.669312 0l0 110.29922l-29.669312 0z" fill-rule="evenodd"/><path fill="#000000" fill-opacity="0.0" d="m995.11285 183.97113l0 10.48819" fill-rule="evenodd"/><path stroke="#000000" stroke-width="1.0" stroke-linejoin="round" stroke-linecap="butt" d="m995.11285 183.97113l0 10.48819" fill-rule="evenodd"/><path fill="#000000" fill-opacity="0.0" d="m1038.9843 183.97113l0 10.48819" fill-rule="evenodd"/><path stroke="#000000" stroke-width="1.0" stroke-linejoin="round" stroke-linecap="butt" d="m1038.9843 183.97113l0 10.48819" fill-rule="evenodd"/><path fill="#000000" fill-opacity="0.0" d="m1082.8556 183.97113l0 10.48819" fill-rule="evenodd"/><path stroke="#000000" stroke-width="1.0" stroke-linejoin="round" stroke-linecap="butt" d="m1082.8556 183.97113l0 10.48819" fill-rule="evenodd"/><path fill="#000000" fill-opacity="0.0" d="m1126.727 183.97113l0 10.48819" fill-rule="evenodd"/><path stroke="#000000" stroke-width="1.0" stroke-linejoin="round" stroke-linecap="butt" d="m1126.727 183.97113l0 10.48819" fill-rule="evenodd"/><path fill="#000000" fill-opacity="0.0" d="m988.32544 255.27821l0 -60.818893l13.574829 0l0 60.818893z" fill-rule="evenodd"/><path fill="#000000" d="m992.0222 231.67883l1.21875 1.28125q-1.375 1.296875 -1.375 2.921875q0 1.375 0.9375 2.3125q0.9375 0.9375 2.3125 0.9375q0.953125 0 1.703125 -0.40625q0.734375 -0.421875 1.15625 -1.1875q0.421875 -0.765625 0.421875 -1.6875q0 -0.796875 -0.296875 -1.453125q-0.296875 -0.65625 -1.078125 -1.4375l1.296875 -1.25q1.03125 1.0625 1.4375 2.015625q0.390625 0.9375 0.390625 2.15625q0 2.21875 -1.40625 3.640625q-1.421875 1.421875 -3.625 1.421875q-1.4375 0 -2.546875 -0.640625q-1.109375 -0.640625 -1.78125 -1.84375q-0.6875 -1.21875 -0.6875 -2.609375q0 -1.1875 0.5 -2.28125q0.5 -1.09375 1.421875 -1.890625zm0.8125 -6.6274567l0 -1.78125l7.078125 0l0 1.78125l-0.75 0q0.5 0.515625 0.71875 1.046875q0.21875 0.515625 0.21875 1.125q0 1.375 -1.0625 2.375q-1.078125 1.0 -2.65625 1.0q-1.640625 0 -2.6875 -0.96875q-1.046875 -0.96875 -1.046875 -2.34375q0 -0.640625 0.25 -1.203125q0.234375 -0.5625 0.71875 -1.03125l-0.78125 0zm1.453125 1.859375q0 0.828125 0.59375 1.375q0.578125 0.546875 1.484375 0.546875q0.921875 0 1.515625 -0.546875q0.59375 -0.5625 0.59375 -1.375q0 -0.84375 -0.578125 -1.390625q-0.59375 -0.5625 -1.53125 -0.5625q-0.9375 0 -1.5 0.5625q-0.578125 0.546875 -0.578125 1.390625zm-4.0625 -5.642395l0 -1.78125l2.609375 0l0 -1.046875l1.53125 0l0 1.046875l5.546875 0l0 1.78125l-5.546875 0l0 0.90625l-1.53125 0l0 -0.90625l-2.609375 0zm7.828125 -4.7614594q0 -0.421875 0.296875 -0.71875q0.296875 -0.296875 0.71875 -0.296875q0.421875 0 0.734375 0.296875q0.296875 0.296875 0.296875 0.71875q0 0.4375 -0.296875 0.734375q-0.3125 0.296875 -0.734375 0.296875q-0.421875 0 -0.71875 -0.296875q-0.296875 -0.296875 -0.296875 -0.734375zm-7.71875 -7.7705383l0 -2.734375l9.578125 0l0 1.8125l-7.859375 0l0 1.96875l-1.71875 -1.046875z" fill-rule="nonzero"/><path fill="#000000" fill-opacity="0.0" d="m1032.1969 255.27821l0 -60.818893l13.574707 0l0 60.818893z" fill-rule="evenodd"/><path fill="#000000" d="m1035.8937 231.67883l1.21875 1.28125q-1.375 1.296875 -1.375 2.921875q0 1.375 0.9375 2.3125q0.9375 0.9375 2.3125 0.9375q0.953125 0 1.703125 -0.40625q0.734375 -0.421875 1.15625 -1.1875q0.421875 -0.765625 0.421875 -1.6875q0 -0.796875 -0.296875 -1.453125q-0.296875 -0.65625 -1.078125 -1.4375l1.296875 -1.25q1.03125 1.0625 1.4375 2.015625q0.390625 0.9375 0.390625 2.15625q0 2.21875 -1.40625 3.640625q-1.421875 1.421875 -3.625 1.421875q-1.4375 0 -2.546875 -0.640625q-1.109375 -0.640625 -1.78125 -1.84375q-0.6875 -1.21875 -0.6875 -2.609375q0 -1.1875 0.5 -2.28125q0.5 -1.09375 1.421875 -1.890625zm0.8125 -6.6274567l0 -1.78125l7.078125 0l0 1.78125l-0.75 0q0.5 0.515625 0.71875 1.046875q0.21875 0.515625 0.21875 1.125q0 1.375 -1.0625 2.375q-1.078125 1.0 -2.65625 1.0q-1.640625 0 -2.6875 -0.96875q-1.046875 -0.96875 -1.046875 -2.34375q0 -0.640625 0.25 -1.203125q0.234375 -0.5625 0.71875 -1.03125l-0.78125 0zm1.453125 1.859375q0 0.828125 0.59375 1.375q0.578125 0.546875 1.484375 0.546875q0.921875 0 1.515625 -0.546875q0.59375 -0.5625 0.59375 -1.375q0 -0.84375 -0.578125 -1.390625q-0.59375 -0.5625 -1.53125 -0.5625q-0.9375 0 -1.5 0.5625q-0.578125 0.546875 -0.578125 1.390625zm-4.0625 -5.642395l0 -1.78125l2.609375 0l0 -1.046875l1.53125 0l0 1.046875l5.546875 0l0 1.78125l-5.546875 0l0 0.90625l-1.53125 0l0 -0.90625l-2.609375 0zm7.828125 -4.7614594q0 -0.421875 0.296875 -0.71875q0.296875 -0.296875 0.71875 -0.296875q0.421875 0 0.734375 0.296875q0.296875 0.296875 0.296875 0.71875q0 0.4375 -0.296875 0.734375q-0.3125 0.296875 -0.734375 0.296875q-0.421875 0 -0.71875 -0.296875q-0.296875 -0.296875 -0.296875 -0.734375zm-4.625 -7.9111633l0 1.78125q-1.546875 -0.078125 -2.4375 -0.96875q-0.890625 -0.90625 -0.890625 -2.3125q0 -0.875 0.375 -1.546875q0.359375 -0.671875 1.0625 -1.0625q0.6875 -0.40625 1.40625 -0.40625q0.84375 0 1.828125 0.484375q0.984375 0.484375 2.328125 1.78125l1.125 1.078125l0 -3.421875l1.6875 0l0 6.640625l-0.875 0l-3.015625 -2.96875q-1.09375 -1.078125 -1.75 -1.421875q-0.65625 -0.359375 -1.1875 -0.359375q-0.5625 0 -0.921875 0.375q-0.359375 0.359375 -0.359375 0.9375q0 0.59375 0.4375 0.984375q0.4375 0.390625 1.1875 0.40625z" fill-rule="nonzero"/><path fill="#000000" fill-opacity="0.0" d="m1076.0682 255.27821l0 -60.818893l13.574829 0l0 60.818893z" fill-rule="evenodd"/><path fill="#000000" d="m1079.765 231.67883l1.21875 1.28125q-1.375 1.296875 -1.375 2.921875q0 1.375 0.9375 2.3125q0.9375 0.9375 2.3125 0.9375q0.953125 0 1.703125 -0.40625q0.734375 -0.421875 1.15625 -1.1875q0.421875 -0.765625 0.421875 -1.6875q0 -0.796875 -0.296875 -1.453125q-0.296875 -0.65625 -1.078125 -1.4375l1.296875 -1.25q1.03125 1.0625 1.4375 2.015625q0.390625 0.9375 0.390625 2.15625q0 2.21875 -1.40625 3.640625q-1.421875 1.421875 -3.625 1.421875q-1.4375 0 -2.546875 -0.640625q-1.109375 -0.640625 -1.78125 -1.84375q-0.6875 -1.21875 -0.6875 -2.609375q0 -1.1875 0.5 -2.28125q0.5 -1.09375 1.421875 -1.890625zm0.8125 -6.6274567l0 -1.78125l7.078125 0l0 1.78125l-0.75 0q0.5 0.515625 0.71875 1.046875q0.21875 0.515625 0.21875 1.125q0 1.375 -1.0625 2.375q-1.078125 1.0 -2.65625 1.0q-1.640625 0 -2.6875 -0.96875q-1.046875 -0.96875 -1.046875 -2.34375q0 -0.640625 0.25 -1.203125q0.234375 -0.5625 0.71875 -1.03125l-0.78125 0zm1.453125 1.859375q0 0.828125 0.59375 1.375q0.578125 0.546875 1.484375 0.546875q0.921875 0 1.515625 -0.546875q0.59375 -0.5625 0.59375 -1.375q0 -0.84375 -0.578125 -1.390625q-0.59375 -0.5625 -1.53125 -0.5625q-0.9375 0 -1.5 0.5625q-0.578125 0.546875 -0.578125 1.390625zm-4.0625 -5.642395l0 -1.78125l2.609375 0l0 -1.046875l1.53125 0l0 1.046875l5.546875 0l0 1.78125l-5.546875 0l0 0.90625l-1.53125 0l0 -0.90625l-2.609375 0zm7.828125 -4.7614594q0 -0.421875 0.296875 -0.71875q0.296875 -0.296875 0.71875 -0.296875q0.421875 0 0.734375 0.296875q0.296875 0.296875 0.296875 0.71875q0 0.4375 -0.296875 0.734375q-0.3125 0.296875 -0.734375 0.296875q-0.421875 0 -0.71875 -0.296875q-0.296875 -0.296875 -0.296875 -0.734375zm-5.34375 -8.114288l0 1.75q-1.0625 -0.140625 -1.71875 -0.765625q-0.890625 -0.875 -0.890625 -2.1875q0 -1.171875 0.75 -1.96875q0.75 -0.8125 1.78125 -0.8125q0.625 0 1.15625 0.359375q0.53125 0.34375 0.859375 1.015625q0.25 -0.875 0.90625 -1.359375q0.640625 -0.5 1.515625 -0.5q1.296875 0 2.1875 0.953125q0.890625 0.9375 0.890625 2.421875q0 1.390625 -0.828125 2.265625q-0.84375 0.875 -2.296875 0.96875l0 -1.8125q0.734375 -0.109375 1.09375 -0.515625q0.359375 -0.40625 0.359375 -1.015625q0 -0.625 -0.40625 -1.046875q-0.40625 -0.421875 -1.0 -0.421875q-0.65625 0 -1.09375 0.5625q-0.453125 0.5625 -0.46875 1.640625l-1.5625 0q-0.046875 -0.65625 -0.203125 -0.984375q-0.15625 -0.328125 -0.421875 -0.5q-0.265625 -0.1875 -0.5625 -0.1875q-0.390625 0 -0.640625 0.28125q-0.265625 0.265625 -0.265625 0.71875q0 0.390625 0.234375 0.703125q0.234375 0.3125 0.625 0.4375z" fill-rule="nonzero"/><path fill="#000000" fill-opacity="0.0" d="m1119.9396 255.27821l0 -60.818893l13.574829 0l0 60.818893z" fill-rule="evenodd"/><path fill="#000000" d="m1123.6364 231.67883l1.21875 1.28125q-1.375 1.296875 -1.375 2.921875q0 1.375 0.9375 2.3125q0.9375 0.9375 2.3125 0.9375q0.953125 0 1.703125 -0.40625q0.734375 -0.421875 1.15625 -1.1875q0.421875 -0.765625 0.421875 -1.6875q0 -0.796875 -0.296875 -1.453125q-0.296875 -0.65625 -1.078125 -1.4375l1.296875 -1.25q1.03125 1.0625 1.4375 2.015625q0.390625 0.9375 0.390625 2.15625q0 2.21875 -1.40625 3.640625q-1.421875 1.421875 -3.625 1.421875q-1.4375 0 -2.546875 -0.640625q-1.109375 -0.640625 -1.78125 -1.84375q-0.6875 -1.21875 -0.6875 -2.609375q0 -1.1875 0.5 -2.28125q0.5 -1.09375 1.421875 -1.890625zm0.8125 -6.6274567l0 -1.78125l7.078125 0l0 1.78125l-0.75 0q0.5 0.515625 0.71875 1.046875q0.21875 0.515625 0.21875 1.125q0 1.375 -1.0625 2.375q-1.078125 1.0 -2.65625 1.0q-1.640625 0 -2.6875 -0.96875q-1.046875 -0.96875 -1.046875 -2.34375q0 -0.640625 0.25 -1.203125q0.234375 -0.5625 0.71875 -1.03125l-0.78125 0zm1.453125 1.859375q0 0.828125 0.59375 1.375q0.578125 0.546875 1.484375 0.546875q0.921875 0 1.515625 -0.546875q0.59375 -0.5625 0.59375 -1.375q0 -0.84375 -0.578125 -1.390625q-0.59375 -0.5625 -1.53125 -0.5625q-0.9375 0 -1.5 0.5625q-0.578125 0.546875 -0.578125 1.390625zm-4.0625 -5.642395l0 -1.78125l2.609375 0l0 -1.046875l1.53125 0l0 1.046875l5.546875 0l0 1.78125l-5.546875 0l0 0.90625l-1.53125 0l0 -0.90625l-2.609375 0zm7.828125 -4.7614594q0 -0.421875 0.296875 -0.71875q0.296875 -0.296875 0.71875 -0.296875q0.421875 0 0.734375 0.296875q0.296875 0.296875 0.296875 0.71875q0 0.4375 -0.296875 0.734375q-0.3125 0.296875 -0.734375 0.296875q-0.421875 0 -0.71875 -0.296875q-0.296875 -0.296875 -0.296875 -0.734375zm-7.953125 -9.989288l0 -1.828125l6.15625 0l0 -0.859375l1.6875 0l0 0.859375l1.96875 0l0 1.78125l-1.96875 0l0 4.1875l-1.6875 0l-6.15625 -4.140625zm6.15625 -0.046875l-3.203125 0l3.203125 2.1875l0 -2.1875z" fill-rule="nonzero"/><path fill="#000000" fill-opacity="0.0" d="m954.09973 103.30971l-10.519653 0" fill-rule="evenodd"/><path stroke="#000000" stroke-width="1.0" stroke-linejoin="round" stroke-linecap="butt" d="m954.09973 103.30971l-10.519653 0" fill-rule="evenodd"/><path fill="#000000" fill-opacity="0.0" d="m954.09973 123.32546l-10.519653 0" fill-rule="evenodd"/><path stroke="#000000" stroke-width="1.0" stroke-linejoin="round" stroke-linecap="butt" d="m954.09973 123.32546l-10.519653 0" fill-rule="evenodd"/><path fill="#000000" fill-opacity="0.0" d="m954.09973 143.32545l-10.519653 0" fill-rule="evenodd"/><path stroke="#000000" stroke-width="1.0" stroke-linejoin="round" stroke-linecap="butt" d="m954.09973 143.32545l-10.519653 0" fill-rule="evenodd"/><path fill="#000000" fill-opacity="0.0" d="m954.09973 73.64829l-10.519653 0" fill-rule="evenodd"/><path stroke="#000000" stroke-width="1.0" stroke-linejoin="round" stroke-linecap="butt" d="m954.09973 73.64829l-10.519653 0" fill-rule="evenodd"/><path fill="#000000" fill-opacity="0.0" d="m875.8635 96.52231l67.71655 0l0 13.574806l-67.71655 0z" fill-rule="evenodd"/><path fill="#000000" d="m892.7921 98.531586l4.75 0l0 1.78125l-2.953125 0l0 1.734375l2.953125 0l0 1.75l-2.953125 0l0 4.3125l-1.796875 0l0 -9.578125zm5.756592 2.5l1.515625 0l0 0.890625q0.25 -0.53125 0.65625 -0.796875q0.421875 -0.28125 0.90625 -0.28125q0.34375 0 0.71875 0.1875l-0.546875 1.53125q-0.3125 -0.15625 -0.515625 -0.15625q-0.40625 0 -0.703125 0.515625q-0.28125 0.5 -0.28125 1.984375l0.015625 0.34375l0 2.859375l-1.765625 0l0 -7.078125zm11.762695 4.046875l-5.703125 0q0.125 0.765625 0.65625 1.21875q0.546875 0.4375 1.375 0.4375q1.0 0 1.71875 -0.703125l1.484375 0.703125q-0.546875 0.796875 -1.328125 1.1875q-0.78125 0.375 -1.859375 0.375q-1.671875 0 -2.71875 -1.046875q-1.046875 -1.0625 -1.046875 -2.640625q0 -1.625 1.046875 -2.6875q1.046875 -1.078125 2.625 -1.078125q1.671875 0 2.71875 1.078125q1.046875 1.0625 1.046875 2.828125l-0.015625 0.328125zm-1.78125 -1.390625q-0.171875 -0.59375 -0.6875 -0.96875q-0.515625 -0.375 -1.203125 -0.375q-0.734375 0 -1.296875 0.421875q-0.359375 0.265625 -0.65625 0.921875l3.84375 0zm8.453674 -2.65625l1.78125 0l0 9.671875l-1.78125 0l0 -3.34375q-0.515625 0.5 -1.046875 0.71875q-0.515625 0.21875 -1.125 0.21875q-1.375 0 -2.375 -1.0625q-1.0 -1.078125 -1.0 -2.65625q0 -1.640625 0.96875 -2.6875q0.96875 -1.046875 2.34375 -1.046875q0.640625 0 1.203125 0.25q0.5625 0.234375 1.03125 0.71875l0 -0.78125zm-1.859375 1.453125q-0.828125 0 -1.375 0.59375q-0.546875 0.578125 -0.546875 1.484375q0 0.921875 0.546875 1.515625q0.5625 0.59375 1.375 0.59375q0.84375 0 1.390625 -0.578125q0.5625 -0.59375 0.5625 -1.53125q0 -0.9375 -0.5625 -1.5q-0.546875 -0.578125 -1.390625 -0.578125zm6.40802 3.765625q0.421875 0 0.71875 0.296875q0.296875 0.296875 0.296875 0.71875q0 0.421875 -0.296875 0.734375q-0.296875 0.296875 -0.71875 0.296875q-0.4375 0 -0.734375 -0.296875q-0.296875 -0.3125 -0.296875 -0.734375q0 -0.421875 0.296875 -0.71875q0.296875 -0.296875 0.734375 -0.296875zm7.770569 -7.71875l2.734375 0l0 9.578125l-1.8125 0l0 -7.859375l-1.96875 0l1.046875 -1.71875z" fill-rule="nonzero"/><path fill="#000000" fill-opacity="0.0" d="m875.8635 136.5538l67.71655 0l0 13.574814l-67.71655 0z" fill-rule="evenodd"/><path fill="#000000" d="m892.7921 138.56308l4.75 0l0 1.78125l-2.953125 0l0 1.734375l2.953125 0l0 1.75l-2.953125 0l0 4.3125l-1.796875 0l0 -9.578125zm5.756592 2.5l1.515625 0l0 0.890625q0.25 -0.53125 0.65625 -0.796875q0.421875 -0.28125 0.90625 -0.28125q0.34375 0 0.71875 0.1875l-0.546875 1.53125q-0.3125 -0.15625 -0.515625 -0.15625q-0.40625 0 -0.703125 0.515625q-0.28125 0.5 -0.28125 1.984375l0.015625 0.34375l0 2.859375l-1.765625 0l0 -7.078125zm11.762695 4.046875l-5.703125 0q0.125 0.765625 0.65625 1.21875q0.546875 0.4375 1.375 0.4375q1.0 0 1.71875 -0.703125l1.484375 0.703125q-0.546875 0.796875 -1.328125 1.1875q-0.78125 0.375 -1.859375 0.375q-1.671875 0 -2.71875 -1.046875q-1.046875 -1.0625 -1.046875 -2.640625q0 -1.625 1.046875 -2.6875q1.046875 -1.078125 2.625 -1.078125q1.671875 0 2.71875 1.078125q1.046875 1.0625 1.046875 2.828125l-0.015625 0.328125zm-1.78125 -1.390625q-0.171875 -0.59375 -0.6875 -0.96875q-0.515625 -0.375 -1.203125 -0.375q-0.734375 0 -1.296875 0.421875q-0.359375 0.265625 -0.65625 0.921875l3.84375 0zm8.453674 -2.65625l1.78125 0l0 9.671875l-1.78125 0l0 -3.34375q-0.515625 0.5 -1.046875 0.71875q-0.515625 0.21875 -1.125 0.21875q-1.375 0 -2.375 -1.0625q-1.0 -1.078125 -1.0 -2.65625q0 -1.640625 0.96875 -2.6875q0.96875 -1.046875 2.34375 -1.046875q0.640625 0 1.203125 0.25q0.5625 0.234375 1.03125 0.71875l0 -0.78125zm-1.859375 1.453125q-0.828125 0 -1.375 0.59375q-0.546875 0.578125 -0.546875 1.484375q0 0.921875 0.546875 1.515625q0.5625 0.59375 1.375 0.59375q0.84375 0 1.390625 -0.578125q0.5625 -0.59375 0.5625 -1.53125q0 -0.9375 -0.5625 -1.5q-0.546875 -0.578125 -1.390625 -0.578125zm6.40802 3.765625q0.421875 0 0.71875 0.296875q0.296875 0.296875 0.296875 0.71875q0 0.421875 -0.296875 0.734375q-0.296875 0.296875 -0.71875 0.296875q-0.4375 0 -0.734375 -0.296875q-0.296875 -0.3125 -0.296875 -0.734375q0 -0.421875 0.296875 -0.71875q0.296875 -0.296875 0.734375 -0.296875zm7.911194 -4.625l-1.78125 0q0.078125 -1.546875 0.96875 -2.4375q0.90625 -0.890625 2.3125 -0.890625q0.875 0 1.546875 0.375q0.671875 0.359375 1.0625 1.0625q0.40625 0.6875 0.40625 1.40625q0 0.84375 -0.484375 1.828125q-0.484375 0.984375 -1.78125 2.328125l-1.078125 1.125l3.421875 0l0 1.6875l-6.640625 0l0 -0.875l2.96875 -3.015625q1.078125 -1.09375 1.421875 -1.75q0.359375 -0.65625 0.359375 -1.1875q0 -0.5625 -0.375 -0.921875q-0.359375 -0.359375 -0.9375 -0.359375q-0.59375 0 -0.984375 0.4375q-0.390625 0.4375 -0.40625 1.1875z" fill-rule="nonzero"/><path fill="#000000" fill-opacity="0.0" d="m875.8635 116.538055l67.71655 0l0 13.574799l-67.71655 0z" fill-rule="evenodd"/><path fill="#000000" d="m892.7921 118.54733l4.75 0l0 1.78125l-2.953125 0l0 1.734375l2.953125 0l0 1.75l-2.953125 0l0 4.3125l-1.796875 0l0 -9.578125zm5.756592 2.5l1.515625 0l0 0.890625q0.25 -0.53125 0.65625 -0.796875q0.421875 -0.28125 0.90625 -0.28125q0.34375 0 0.71875 0.1875l-0.546875 1.53125q-0.3125 -0.15625 -0.515625 -0.15625q-0.40625 0 -0.703125 0.515625q-0.28125 0.5 -0.28125 1.984375l0.015625 0.34375l0 2.859375l-1.765625 0l0 -7.078125zm11.762695 4.046875l-5.703125 0q0.125 0.765625 0.65625 1.21875q0.546875 0.4375 1.375 0.4375q1.0 0 1.71875 -0.703125l1.484375 0.703125q-0.546875 0.796875 -1.328125 1.1875q-0.78125 0.375 -1.859375 0.375q-1.671875 0 -2.71875 -1.046875q-1.046875 -1.0625 -1.046875 -2.640625q0 -1.625 1.046875 -2.6875q1.046875 -1.078125 2.625 -1.078125q1.671875 0 2.71875 1.078125q1.046875 1.0625 1.046875 2.828125l-0.015625 0.328125zm-1.78125 -1.390625q-0.171875 -0.59375 -0.6875 -0.96875q-0.515625 -0.375 -1.203125 -0.375q-0.734375 0 -1.296875 0.421875q-0.359375 0.265625 -0.65625 0.921875l3.84375 0zm8.453674 -2.65625l1.78125 0l0 9.671875l-1.78125 0l0 -3.34375q-0.515625 0.5 -1.046875 0.71875q-0.515625 0.21875 -1.125 0.21875q-1.375 0 -2.375 -1.0625q-1.0 -1.078125 -1.0 -2.65625q0 -1.640625 0.96875 -2.6875q0.96875 -1.046875 2.34375 -1.046875q0.640625 0 1.203125 0.25q0.5625 0.234375 1.03125 0.71875l0 -0.78125zm-1.859375 1.453125q-0.828125 0 -1.375 0.59375q-0.546875 0.578125 -0.546875 1.484375q0 0.921875 0.546875 1.515625q0.5625 0.59375 1.375 0.59375q0.84375 0 1.390625 -0.578125q0.5625 -0.59375 0.5625 -1.53125q0 -0.9375 -0.5625 -1.5q-0.546875 -0.578125 -1.390625 -0.578125zm6.40802 3.765625q0.421875 0 0.71875 0.296875q0.296875 0.296875 0.296875 0.71875q0 0.421875 -0.296875 0.734375q-0.296875 0.296875 -0.71875 0.296875q-0.4375 0 -0.734375 -0.296875q-0.296875 -0.3125 -0.296875 -0.734375q0 -0.421875 0.296875 -0.71875q0.296875 -0.296875 0.734375 -0.296875zm8.114319 -5.34375l-1.75 0q0.140625 -1.0625 0.765625 -1.71875q0.875 -0.890625 2.1875 -0.890625q1.171875 0 1.96875 0.75q0.8125 0.75 0.8125 1.78125q0 0.625 -0.359375 1.15625q-0.34375 0.53125 -1.015625 0.859375q0.875 0.25 1.359375 0.90625q0.5 0.640625 0.5 1.515625q0 1.296875 -0.953125 2.1875q-0.9375 0.890625 -2.421875 0.890625q-1.390625 0 -2.265625 -0.828125q-0.875 -0.84375 -0.96875 -2.296875l1.8125 0q0.109375 0.734375 0.515625 1.09375q0.40625 0.359375 1.015625 0.359375q0.625 0 1.046875 -0.40625q0.421875 -0.40625 0.421875 -1.0q0 -0.65625 -0.5625 -1.09375q-0.5625 -0.453125 -1.640625 -0.46875l0 -1.5625q0.65625 -0.046875 0.984375 -0.203125q0.328125 -0.15625 0.5 -0.421875q0.1875 -0.265625 0.1875 -0.5625q0 -0.390625 -0.28125 -0.640625q-0.265625 -0.265625 -0.71875 -0.265625q-0.390625 0 -0.703125 0.234375q-0.3125 0.234375 -0.4375 0.625z" fill-rule="nonzero"/><path fill="#000000" fill-opacity="0.0" d="m875.8635 66.86089l67.71655 0l0 13.574799l-67.71655 0z" fill-rule="evenodd"/><path fill="#000000" d="m892.7921 68.87017l4.75 0l0 1.78125l-2.953125 0l0 1.734375l2.953125 0l0 1.75l-2.953125 0l0 4.3125l-1.796875 0l0 -9.578125zm5.756592 2.5l1.515625 0l0 0.890625q0.25 -0.53125 0.65625 -0.796875q0.421875 -0.28125 0.90625 -0.28125q0.34375 0 0.71875 0.1875l-0.546875 1.53125q-0.3125 -0.15625 -0.515625 -0.15625q-0.40625 0 -0.703125 0.515625q-0.28125 0.5 -0.28125 1.984375l0.015625 0.34375l0 2.859375l-1.765625 0l0 -7.078125zm11.762695 4.046875l-5.703125 0q0.125 0.765625 0.65625 1.21875q0.546875 0.4375 1.375 0.4375q1.0 0 1.71875 -0.703125l1.484375 0.703125q-0.546875 0.796875 -1.328125 1.1875q-0.78125 0.375 -1.859375 0.375q-1.671875 0 -2.71875 -1.046875q-1.046875 -1.0625 -1.046875 -2.640625q0 -1.625 1.046875 -2.6875q1.046875 -1.078125 2.625 -1.078125q1.671875 0 2.71875 1.078125q1.046875 1.0625 1.046875 2.828125l-0.015625 0.328125zm-1.78125 -1.390625q-0.171875 -0.59375 -0.6875 -0.96875q-0.515625 -0.375 -1.203125 -0.375q-0.734375 0 -1.296875 0.421875q-0.359375 0.265625 -0.65625 0.921875l3.84375 0zm8.453674 -2.65625l1.78125 0l0 9.671875l-1.78125 0l0 -3.34375q-0.515625 0.5 -1.046875 0.71875q-0.515625 0.21875 -1.125 0.21875q-1.375 0 -2.375 -1.0625q-1.0 -1.078125 -1.0 -2.65625q0 -1.640625 0.96875 -2.6875q0.96875 -1.046875 2.34375 -1.046875q0.640625 0 1.203125 0.25q0.5625 0.234375 1.03125 0.71875l0 -0.78125zm-1.859375 1.453125q-0.828125 0 -1.375 0.59375q-0.546875 0.578125 -0.546875 1.484375q0 0.921875 0.546875 1.515625q0.5625 0.59375 1.375 0.59375q0.84375 0 1.390625 -0.578125q0.5625 -0.59375 0.5625 -1.53125q0 -0.9375 -0.5625 -1.5q-0.546875 -0.578125 -1.390625 -0.578125zm6.40802 3.765625q0.421875 0 0.71875 0.296875q0.296875 0.296875 0.296875 0.71875q0 0.421875 -0.296875 0.734375q-0.296875 0.296875 -0.71875 0.296875q-0.4375 0 -0.734375 -0.296875q-0.296875 -0.3125 -0.296875 -0.734375q0 -0.421875 0.296875 -0.71875q0.296875 -0.296875 0.734375 -0.296875zm9.989319 -7.953125l1.828125 0l0 6.15625l0.859375 0l0 1.6875l-0.859375 0l0 1.96875l-1.78125 0l0 -1.96875l-4.1875 0l0 -1.6875l4.140625 -6.15625zm0.046875 6.15625l0 -3.203125l-2.1875 3.203125l2.1875 0z" fill-rule="nonzero"/><path fill="#000000" fill-opacity="0.0" d="m960.40155 116.538055l0 -111.11811l13.574829 0l0 111.11811z" fill-rule="evenodd"/><path fill="#666666" d="m962.4108 102.633545l0 -4.75l1.78125 0l0 2.953125l1.734375 0l0 -2.953125l1.75 0l0 2.953125l4.3125 0l0 1.796875l-9.578125 0zm0 -6.4909973l0 -1.9375q0 -1.578125 0.296875 -2.25q0.28125 -0.671875 0.9375 -1.078125q0.65625 -0.421875 1.546875 -0.421875q0.953125 0 1.59375 0.453125q0.625 0.453125 0.953125 1.359375l4.25 -2.265625l0 2.0l-4.046875 2.15625l0 0.15625l4.046875 0l0 1.828125l-9.578125 0zm3.75 -1.828125l0 -0.5625q0 -0.875 -0.21875 -1.203125q-0.234375 -0.328125 -0.765625 -0.328125q-0.3125 0 -0.546875 0.171875q-0.234375 0.15625 -0.328125 0.4375q-0.109375 0.265625 -0.109375 0.984375l0 0.5l1.96875 0zm-3.75 -5.7782288l0 -5.234375l1.78125 0l0 3.421875l1.734375 0l0 -3.421875l1.75 0l0 3.421875l2.515625 0l0 -3.421875l1.796875 0l0 5.234375l-9.578125 0zm8.171875 -15.149643l2.15625 -1.65625l0 2.15625l-1.078125 0.84375q0.5625 1.046875 0.5625 2.34375q0 2.15625 -1.484375 3.578125q-1.484375 1.421875 -3.546875 1.421875q-1.359375 0 -2.5 -0.65625q-1.15625 -0.671875 -1.828125 -1.828125q-0.6875 -1.171875 -0.6875 -2.5q0 -2.03125 1.46875 -3.484375q1.46875 -1.46875 3.59375 -1.46875q1.9375 0 3.34375 1.25zm-1.46875 1.140625q-0.859375 -0.578125 -1.890625 -0.578125q-1.359375 0 -2.3125 0.921875q-0.953125 0.921875 -0.953125 2.21875q0 1.34375 0.921875 2.25q0.921875 0.90625 2.359375 0.90625q1.578125 0 2.5 -1.140625q0.734375 -0.890625 0.734375 -2.03125q0 -0.65625 -0.265625 -1.21875l-2.203125 1.703125l0 -2.171875l1.109375 -0.859375zm-6.703125 -4.0529175l0 -1.828125l6.203125 0q0.796875 0 1.140625 -0.140625q0.328125 -0.140625 0.53125 -0.453125q0.1875 -0.328125 0.1875 -0.78125q0 -0.484375 -0.21875 -0.828125q-0.21875 -0.359375 -0.5625 -0.484375q-0.34375 -0.140625 -1.3125 -0.140625l-5.96875 0l0 -1.828125l5.71875 0q1.4375 0 2.0 0.171875q0.5625 0.15625 1.078125 0.625q0.515625 0.453125 0.765625 1.0625q0.25 0.59375 0.25 1.375q0 1.046875 -0.46875 1.828125q-0.484375 0.765625 -1.203125 1.09375q-0.71875 0.328125 -2.421875 0.328125l-5.71875 0zm0 -8.59433l0 -5.234375l1.78125 0l0 3.421875l1.734375 0l0 -3.421875l1.75 0l0 3.421875l2.515625 0l0 -3.421875l1.796875 0l0 5.234375l-9.578125 0zm0 -6.930893l0 -1.75l6.296875 -4.109371l-6.296875 0l0 -1.8125l9.578125 0l0 1.75l-6.28125 4.093746l6.28125 0l0 1.828125l-9.578125 0zm1.6875 -18.656307l1.21875 1.28125q-1.375 1.296875 -1.375 2.921875q0 1.375 0.9375 2.3125q0.9375 0.9375 2.3125 0.9375q0.953125 0 1.703125 -0.40625q0.734375 -0.421875 1.15625 -1.1875q0.421875 -0.765625 0.421875 -1.6875q0 -0.796875 -0.296875 -1.453125q-0.296875 -0.65625 -1.078125 -1.4375l1.296875 -1.25q1.03125 1.0625 1.4375 2.015625q0.390625 0.9375 0.390625 2.15625q0 2.21875 -1.40625 3.640625q-1.421875 1.421875 -3.625 1.421875q-1.4375 0 -2.546875 -0.640625q-1.109375 -0.640625 -1.78125 -1.84375q-0.6875 -1.21875 -0.6875 -2.609375q0 -1.1875 0.5 -2.28125q0.5 -1.09375 1.421875 -1.890625zm-1.6875 -1.4712067l0 -1.796875l9.578125 0l0 1.796875l-9.578125 0zm0 -3.854021l0 -5.234375l1.78125 0l0 3.421875l1.734375 0l0 -3.421875l1.75 0l0 3.421875l2.515625 0l0 -3.421875l1.796875 0l0 5.234375l-9.578125 0zm1.3125 -11.946518l1.1875 1.34375q-0.984375 0.71875 -0.984375 1.453125q0 0.34375 0.1875 0.578125q0.1875 0.234375 0.4375 0.234375q0.234375 0 0.453125 -0.171875q0.28125 -0.21875 1.21875 -1.328125q0.875 -1.046875 1.109375 -1.265625q0.5625 -0.546875 1.078125 -0.78125q0.5 -0.234375 1.109375 -0.234375q1.171875 0 1.9375 0.8125q0.765625 0.8125 0.765625 2.125q0 1.015625 -0.5 1.78125q-0.5 0.75 -1.5625 1.296875l-0.9375 -1.53125q1.28125 -0.6875 1.28125 -1.59375q0 -0.46875 -0.265625 -0.78125q-0.28125 -0.3125 -0.640625 -0.3125q-0.328125 0 -0.65625 0.234375q-0.328125 0.234375 -1.0 1.0625q-1.265625 1.5625 -1.953125 2.015625q-0.703125 0.453125 -1.390625 0.453125q-1.0 0 -1.703125 -0.75q-0.71875 -0.765625 -0.71875 -1.875q0 -0.71875 0.328125 -1.359375q0.328125 -0.65625 1.21875 -1.40625z" fill-rule="nonzero"/><path fill="#000000" fill-opacity="0.0" d="m1155.7638 162.56168l111.11804 0l0 13.574814l-111.11804 0z" fill-rule="evenodd"/><path fill="#666666" d="m1180.9688 166.25845l-1.28125 1.21875q-1.296875 -1.375 -2.921875 -1.375q-1.375 0 -2.3125 0.9375q-0.9375 0.9375 -0.9375 2.3125q0 0.953125 0.40625 1.703125q0.421875 0.734375 1.1875 1.15625q0.765625 0.421875 1.6875 0.421875q0.796875 0 1.453125 -0.296875q0.65625 -0.296875 1.4375 -1.078125l1.25 1.296875q-1.0625 1.03125 -2.015625 1.4375q-0.9375 0.390625 -2.15625 0.390625q-2.21875 0 -3.640625 -1.40625q-1.421875 -1.421875 -1.421875 -3.625q0 -1.4375 0.640625 -2.546875q0.640625 -1.109375 1.84375 -1.78125q1.21875 -0.6875 2.609375 -0.6875q1.1875 0 2.28125 0.5q1.09375 0.5 1.890625 1.421875zm4.5180664 -1.6875l1.84375 0l3.6875 9.578125l-1.90625 0l-0.75 -1.96875l-3.890625 0l-0.78125 1.96875l-1.90625 0l3.703125 -9.578125zm0.9375 2.546875l-1.28125 3.28125l2.546875 0l-1.265625 -3.28125zm5.062622 -2.546875l5.28125 0l0 1.796875l-1.734375 0l0 7.78125l-1.859375 0l0 -7.78125l-1.6875 0l0 -1.796875zm6.5341797 0l5.234375 0l0 1.78125l-3.421875 0l0 1.734375l3.421875 0l0 1.75l-3.421875 0l0 2.515625l3.421875 0l0 1.796875l-5.234375 0l0 -9.578125zm15.774658 1.5625l-1.28125 1.28125q-1.21875 -1.296875 -2.84375 -1.296875q-1.40625 0 -2.359375 0.9375q-0.953125 0.9375 -0.953125 2.28125q0 1.390625 0.984375 2.359375q0.984375 0.953125 2.4375 0.953125q0.9375 0 1.578125 -0.390625q0.65625 -0.40625 1.0625 -1.25l-2.78125 0l0 -1.71875l4.8125 0l0.015625 0.40625q0 1.25 -0.65625 2.390625q-0.640625 1.125 -1.671875 1.71875q-1.03125 0.578125 -2.4375 0.578125q-1.484375 0 -2.65625 -0.640625q-1.15625 -0.640625 -1.84375 -1.84375q-0.6875 -1.203125 -0.6875 -2.578125q0 -1.90625 1.265625 -3.3125q1.484375 -1.671875 3.875 -1.671875q1.25 0 2.34375 0.453125q0.90625 0.390625 1.796875 1.34375zm6.8654785 -1.796875q2.03125 0 3.484375 1.46875q1.46875 1.46875 1.46875 3.59375q0 2.09375 -1.4375 3.546875q-1.4375 1.4375 -3.5 1.4375q-2.15625 0 -3.578125 -1.484375q-1.421875 -1.484375 -1.421875 -3.546875q0 -1.359375 0.65625 -2.515625q0.671875 -1.15625 1.828125 -1.828125q1.171875 -0.671875 2.5 -0.671875zm-0.015625 1.78125q-1.328125 0 -2.234375 0.921875q-0.90625 0.921875 -0.90625 2.359375q0 1.578125 1.140625 2.5q0.890625 0.734375 2.03125 0.734375q1.296875 0 2.203125 -0.9375q0.921875 -0.9375 0.921875 -2.3125q0 -1.375 -0.921875 -2.3125q-0.921875 -0.953125 -2.234375 -0.953125zm6.8184814 -1.546875l1.9375 0q1.578125 0 2.25 0.296875q0.671875 0.28125 1.078125 0.9375q0.421875 0.65625 0.421875 1.546875q0 0.953125 -0.453125 1.59375q-0.453125 0.625 -1.359375 0.953125l2.265625 4.25l-2.0 0l-2.15625 -4.046875l-0.15625 0l0 4.046875l-1.828125 0l0 -9.578125zm1.828125 3.75l0.5625 0q0.875 0 1.203125 -0.21875q0.328125 -0.234375 0.328125 -0.765625q0 -0.3125 -0.171875 -0.546875q-0.15625 -0.234375 -0.4375 -0.328125q-0.265625 -0.109375 -0.984375 -0.109375l-0.5 0l0 1.96875zm5.6533203 -3.75l1.796875 0l0 9.578125l-1.796875 0l0 -9.578125zm3.854004 0l5.234375 0l0 1.78125l-3.421875 0l0 1.734375l3.421875 0l0 1.75l-3.421875 0l0 2.515625l3.421875 0l0 1.796875l-5.234375 0l0 -9.578125zm11.946533 1.3125l-1.34375 1.1875q-0.71875 -0.984375 -1.453125 -0.984375q-0.34375 0 -0.578125 0.1875q-0.234375 0.1875 -0.234375 0.4375q0 0.234375 0.171875 0.453125q0.21875 0.28125 1.328125 1.21875q1.046875 0.875 1.265625 1.109375q0.546875 0.5625 0.78125 1.078125q0.234375 0.5 0.234375 1.109375q0 1.171875 -0.8125 1.9375q-0.8125 0.765625 -2.125 0.765625q-1.015625 0 -1.78125 -0.5q-0.75 -0.5 -1.296875 -1.5625l1.53125 -0.9375q0.6875 1.28125 1.59375 1.28125q0.46875 0 0.78125 -0.265625q0.3125 -0.28125 0.3125 -0.640625q0 -0.328125 -0.234375 -0.65625q-0.234375 -0.328125 -1.0625 -1.0q-1.5625 -1.265625 -2.015625 -1.953125q-0.453125 -0.703125 -0.453125 -1.390625q0 -1.0 0.75 -1.703125q0.765625 -0.71875 1.875 -0.71875q0.71875 0 1.359375 0.328125q0.65625 0.328125 1.40625 1.21875z" fill-rule="nonzero"/><path fill="#000000" fill-opacity="0.0" d="m490.09973 183.97113l0 -132.40945" fill-rule="evenodd"/><path stroke="#000000" stroke-width="1.0" stroke-linejoin="round" stroke-linecap="butt" d="m490.09973 183.97113l0 -128.98236" fill-rule="evenodd"/><path fill="#000000" stroke="#000000" stroke-width="1.0" stroke-linecap="butt" d="m490.09973 54.988766l1.1246033 1.1245842l-1.1246033 -3.0897675l-1.1245728 3.0897675z" fill-rule="evenodd"/><path fill="#000000" fill-opacity="0.0" d="m490.09973 183.97113l238.45673 0" fill-rule="evenodd"/><path stroke="#000000" stroke-width="1.0" stroke-linejoin="round" stroke-linecap="butt" d="m490.09973 183.97113l235.0296 0" fill-rule="evenodd"/><path fill="#000000" stroke="#000000" stroke-width="1.0" stroke-linecap="butt" d="m725.12933 183.97113l-1.1245728 1.124588l3.0897827 -1.124588l-3.0897827 -1.124588z" fill-rule="evenodd"/><path fill="#cfe2f3" d="m526.7979 91.715225l29.66925 0l0 52.094482l-29.66925 0z" fill-rule="evenodd"/><path stroke="#000000" stroke-width="1.0" stroke-linejoin="round" stroke-linecap="butt" d="m526.7979 91.715225l29.66925 0l0 52.094482l-29.66925 0z" fill-rule="evenodd"/><path fill="#cfe2f3" d="m570.6693 91.715225l29.66925 0l0 52.094482l-29.66925 0z" fill-rule="evenodd"/><path stroke="#000000" stroke-width="1.0" stroke-linejoin="round" stroke-linecap="butt" d="m570.6693 91.715225l29.66925 0l0 52.094482l-29.66925 0z" fill-rule="evenodd"/><path fill="#cfe2f3" d="m614.5407 91.715225l29.66925 0l0 52.094482l-29.66925 0z" fill-rule="evenodd"/><path stroke="#000000" stroke-width="1.0" stroke-linejoin="round" stroke-linecap="butt" d="m614.5407 91.715225l29.66925 0l0 52.094482l-29.66925 0z" fill-rule="evenodd"/><path fill="#cfe2f3" d="m658.41205 91.7231l29.669312 0l0 52.094482l-29.669312 0z" fill-rule="evenodd"/><path stroke="#000000" stroke-width="1.0" stroke-linejoin="round" stroke-linecap="butt" d="m658.41205 91.7231l29.669312 0l0 52.094482l-29.669312 0z" fill-rule="evenodd"/><path fill="#000000" fill-opacity="0.0" d="m496.40158 116.538055l0 -111.11811l13.574799 0l0 111.11811z" fill-rule="evenodd"/><path fill="#666666" d="m498.41086 102.633545l0 -4.75l1.78125 0l0 2.953125l1.734375 0l0 -2.953125l1.75 0l0 2.953125l4.3125 0l0 1.796875l-9.578125 0zm0 -6.4909973l0 -1.9375q0 -1.578125 0.296875 -2.25q0.28125 -0.671875 0.9375 -1.078125q0.65625 -0.421875 1.546875 -0.421875q0.953125 0 1.59375 0.453125q0.625 0.453125 0.953125 1.359375l4.25 -2.265625l0 2.0l-4.046875 2.15625l0 0.15625l4.046875 0l0 1.828125l-9.578125 0zm3.75 -1.828125l0 -0.5625q0 -0.875 -0.21875 -1.203125q-0.234375 -0.328125 -0.765625 -0.328125q-0.3125 0 -0.546875 0.171875q-0.234375 0.15625 -0.328125 0.4375q-0.109375 0.265625 -0.109375 0.984375l0 0.5l1.96875 0zm-3.75 -5.7782288l0 -5.234375l1.78125 0l0 3.421875l1.734375 0l0 -3.421875l1.75 0l0 3.421875l2.515625 0l0 -3.421875l1.796875 0l0 5.234375l-9.578125 0zm8.171875 -15.149643l2.15625 -1.65625l0 2.15625l-1.078125 0.84375q0.5625 1.046875 0.5625 2.34375q0 2.15625 -1.484375 3.578125q-1.484375 1.421875 -3.546875 1.421875q-1.359375 0 -2.5 -0.65625q-1.15625 -0.671875 -1.828125 -1.828125q-0.6875 -1.171875 -0.6875 -2.5q0 -2.03125 1.46875 -3.484375q1.46875 -1.46875 3.59375 -1.46875q1.9375 0 3.34375 1.25zm-1.46875 1.140625q-0.859375 -0.578125 -1.890625 -0.578125q-1.359375 0 -2.3125 0.921875q-0.953125 0.921875 -0.953125 2.21875q0 1.34375 0.921875 2.25q0.921875 0.90625 2.359375 0.90625q1.578125 0 2.5 -1.140625q0.734375 -0.890625 0.734375 -2.03125q0 -0.65625 -0.265625 -1.21875l-2.203125 1.703125l0 -2.171875l1.109375 -0.859375zm-6.703125 -4.0529175l0 -1.828125l6.203125 0q0.796875 0 1.140625 -0.140625q0.328125 -0.140625 0.53125 -0.453125q0.1875 -0.328125 0.1875 -0.78125q0 -0.484375 -0.21875 -0.828125q-0.21875 -0.359375 -0.5625 -0.484375q-0.34375 -0.140625 -1.3125 -0.140625l-5.96875 0l0 -1.828125l5.71875 0q1.4375 0 2.0 0.171875q0.5625 0.15625 1.078125 0.625q0.515625 0.453125 0.765625 1.0625q0.25 0.59375 0.25 1.375q0 1.046875 -0.46875 1.828125q-0.484375 0.765625 -1.203125 1.09375q-0.71875 0.328125 -2.421875 0.328125l-5.71875 0zm0 -8.59433l0 -5.234375l1.78125 0l0 3.421875l1.734375 0l0 -3.421875l1.75 0l0 3.421875l2.515625 0l0 -3.421875l1.796875 0l0 5.234375l-9.578125 0zm0 -6.930893l0 -1.75l6.296875 -4.109371l-6.296875 0l0 -1.8125l9.578125 0l0 1.75l-6.28125 4.093746l6.28125 0l0 1.828125l-9.578125 0zm1.6875 -18.656307l1.21875 1.28125q-1.375 1.296875 -1.375 2.921875q0 1.375 0.9375 2.3125q0.9375 0.9375 2.3125 0.9375q0.953125 0 1.703125 -0.40625q0.734375 -0.421875 1.15625 -1.1875q0.421875 -0.765625 0.421875 -1.6875q0 -0.796875 -0.296875 -1.453125q-0.296875 -0.65625 -1.078125 -1.4375l1.296875 -1.25q1.03125 1.0625 1.4375 2.015625q0.390625 0.9375 0.390625 2.15625q0 2.21875 -1.40625 3.640625q-1.421875 1.421875 -3.625 1.421875q-1.4375 0 -2.546875 -0.640625q-1.109375 -0.640625 -1.78125 -1.84375q-0.6875 -1.21875 -0.6875 -2.609375q0 -1.1875 0.5 -2.28125q0.5 -1.09375 1.421875 -1.890625zm-1.6875 -1.4712067l0 -1.796875l9.578125 0l0 1.796875l-9.578125 0zm0 -3.854021l0 -5.234375l1.78125 0l0 3.421875l1.734375 0l0 -3.421875l1.75 0l0 3.421875l2.515625 0l0 -3.421875l1.796875 0l0 5.234375l-9.578125 0zm1.3125 -11.946518l1.1875 1.34375q-0.984375 0.71875 -0.984375 1.453125q0 0.34375 0.1875 0.578125q0.1875 0.234375 0.4375 0.234375q0.234375 0 0.453125 -0.171875q0.28125 -0.21875 1.21875 -1.328125q0.875 -1.046875 1.109375 -1.265625q0.5625 -0.546875 1.078125 -0.78125q0.5 -0.234375 1.109375 -0.234375q1.171875 0 1.9375 0.8125q0.765625 0.8125 0.765625 2.125q0 1.015625 -0.5 1.78125q-0.5 0.75 -1.5625 1.296875l-0.9375 -1.53125q1.28125 -0.6875 1.28125 -1.59375q0 -0.46875 -0.265625 -0.78125q-0.28125 -0.3125 -0.640625 -0.3125q-0.328125 0 -0.65625 0.234375q-0.328125 0.234375 -1.0 1.0625q-1.265625 1.5625 -1.953125 2.015625q-0.703125 0.453125 -1.390625 0.453125q-1.0 0 -1.703125 -0.75q-0.71875 -0.765625 -0.71875 -1.875q0 -0.71875 0.328125 -1.359375q0.328125 -0.65625 1.21875 -1.40625z" fill-rule="nonzero"/><path fill="#000000" fill-opacity="0.0" d="m691.7638 162.56168l111.1181 0l0 13.574814l-111.1181 0z" fill-rule="evenodd"/><path fill="#666666" d="m716.96875 166.25845l-1.28125 1.21875q-1.296875 -1.375 -2.921875 -1.375q-1.375 0 -2.3125 0.9375q-0.9375 0.9375 -0.9375 2.3125q0 0.953125 0.40625 1.703125q0.421875 0.734375 1.1875 1.15625q0.765625 0.421875 1.6875 0.421875q0.796875 0 1.453125 -0.296875q0.65625 -0.296875 1.4375 -1.078125l1.25 1.296875q-1.0625 1.03125 -2.015625 1.4375q-0.9375 0.390625 -2.15625 0.390625q-2.21875 0 -3.640625 -1.40625q-1.421875 -1.421875 -1.421875 -3.625q0 -1.4375 0.640625 -2.546875q0.640625 -1.109375 1.84375 -1.78125q1.21875 -0.6875 2.609375 -0.6875q1.1875 0 2.28125 0.5q1.09375 0.5 1.890625 1.421875zm4.5180664 -1.6875l1.84375 0l3.6875 9.578125l-1.90625 0l-0.75 -1.96875l-3.890625 0l-0.78125 1.96875l-1.90625 0l3.703125 -9.578125zm0.9375 2.546875l-1.28125 3.28125l2.546875 0l-1.265625 -3.28125zm5.062561 -2.546875l5.28125 0l0 1.796875l-1.734375 0l0 7.78125l-1.859375 0l0 -7.78125l-1.6875 0l0 -1.796875zm6.5343018 0l5.234375 0l0 1.78125l-3.421875 0l0 1.734375l3.421875 0l0 1.75l-3.421875 0l0 2.515625l3.421875 0l0 1.796875l-5.234375 0l0 -9.578125zm15.774597 1.5625l-1.28125 1.28125q-1.21875 -1.296875 -2.84375 -1.296875q-1.40625 0 -2.359375 0.9375q-0.953125 0.9375 -0.953125 2.28125q0 1.390625 0.984375 2.359375q0.984375 0.953125 2.4375 0.953125q0.9375 0 1.578125 -0.390625q0.65625 -0.40625 1.0625 -1.25l-2.78125 0l0 -1.71875l4.8125 0l0.015625 0.40625q0 1.25 -0.65625 2.390625q-0.640625 1.125 -1.671875 1.71875q-1.03125 0.578125 -2.4375 0.578125q-1.484375 0 -2.65625 -0.640625q-1.15625 -0.640625 -1.84375 -1.84375q-0.6875 -1.203125 -0.6875 -2.578125q0 -1.90625 1.265625 -3.3125q1.484375 -1.671875 3.875 -1.671875q1.25 0 2.34375 0.453125q0.90625 0.390625 1.796875 1.34375zm6.8654785 -1.796875q2.03125 0 3.484375 1.46875q1.46875 1.46875 1.46875 3.59375q0 2.09375 -1.4375 3.546875q-1.4375 1.4375 -3.5 1.4375q-2.156311 0 -3.578186 -1.484375q-1.421875 -1.484375 -1.421875 -3.546875q0 -1.359375 0.65625 -2.515625q0.671875 -1.15625 1.828125 -1.828125q1.171875 -0.671875 2.500061 -0.671875zm-0.015625 1.78125q-1.328186 0 -2.234436 0.921875q-0.90625 0.921875 -0.90625 2.359375q0 1.578125 1.140625 2.5q0.890625 0.734375 2.031311 0.734375q1.296875 0 2.203125 -0.9375q0.921875 -0.9375 0.921875 -2.3125q0 -1.375 -0.921875 -2.3125q-0.921875 -0.953125 -2.234375 -0.953125zm6.8185425 -1.546875l1.9375 0q1.578125 0 2.25 0.296875q0.671875 0.28125 1.078125 0.9375q0.421875 0.65625 0.421875 1.546875q0 0.953125 -0.453125 1.59375q-0.453125 0.625 -1.359375 0.953125l2.265625 4.25l-2.0 0l-2.15625 -4.046875l-0.15625 0l0 4.046875l-1.828125 0l0 -9.578125zm1.828125 3.75l0.5625 0q0.875 0 1.203125 -0.21875q0.328125 -0.234375 0.328125 -0.765625q0 -0.3125 -0.171875 -0.546875q-0.15625 -0.234375 -0.4375 -0.328125q-0.265625 -0.109375 -0.984375 -0.109375l-0.5 0l0 1.96875zm5.6531982 -3.75l1.796875 0l0 9.578125l-1.796875 0l0 -9.578125zm3.854004 0l5.234375 0l0 1.78125l-3.421875 0l0 1.734375l3.421875 0l0 1.75l-3.421875 0l0 2.515625l3.421875 0l0 1.796875l-5.234375 0l0 -9.578125zm11.946533 1.3125l-1.34375 1.1875q-0.71875 -0.984375 -1.453125 -0.984375q-0.34375 0 -0.578125 0.1875q-0.234375 0.1875 -0.234375 0.4375q0 0.234375 0.171875 0.453125q0.21875 0.28125 1.328125 1.21875q1.046875 0.875 1.265625 1.109375q0.546875 0.5625 0.78125 1.078125q0.234375 0.5 0.234375 1.109375q0 1.171875 -0.8125 1.9375q-0.8125 0.765625 -2.125 0.765625q-1.015625 0 -1.78125 -0.5q-0.75 -0.5 -1.296875 -1.5625l1.53125 -0.9375q0.6875 1.28125 1.59375 1.28125q0.46875 0 0.78125 -0.265625q0.3125 -0.28125 0.3125 -0.640625q0 -0.328125 -0.234375 -0.65625q-0.234375 -0.328125 -1.0625 -1.0q-1.5625 -1.265625 -2.015625 -1.953125q-0.453125 -0.703125 -0.453125 -1.390625q0 -1.0 0.75 -1.703125q0.765625 -0.71875 1.875 -0.71875q0.71875 0 1.359375 0.328125q0.65625 0.328125 1.40625 1.21875z" fill-rule="nonzero"/><path fill="#000000" fill-opacity="0.0" d="m26.099737 183.97113l0 -132.40945" fill-rule="evenodd"/><path stroke="#000000" stroke-width="1.0" stroke-linejoin="round" stroke-linecap="butt" d="m26.099737 183.97113l0 -128.98236" fill-rule="evenodd"/><path fill="#000000" stroke="#000000" stroke-width="1.0" stroke-linecap="butt" d="m26.099737 54.988766l1.1245842 1.1245842l-1.1245842 -3.0897675l-1.1245823 3.0897675z" fill-rule="evenodd"/><path fill="#000000" fill-opacity="0.0" d="m26.099737 183.97113l238.4567 0" fill-rule="evenodd"/><path stroke="#000000" stroke-width="1.0" stroke-linejoin="round" stroke-linecap="butt" d="m26.099737 183.97113l235.0296 0" fill-rule="evenodd"/><path fill="#000000" stroke="#000000" stroke-width="1.0" stroke-linecap="butt" d="m261.12933 183.97113l-1.1245728 1.124588l3.0897827 -1.124588l-3.0897827 -1.124588z" fill-rule="evenodd"/><path fill="#000000" fill-opacity="0.0" d="m32.401573 116.538055l0 -111.11811l13.574806 0l0 111.11811z" fill-rule="evenodd"/><path fill="#666666" d="m34.41085 102.633545l0 -4.75l1.78125 0l0 2.953125l1.734375 0l0 -2.953125l1.75 0l0 2.953125l4.3125 0l0 1.796875l-9.578125 0zm0 -6.4909973l0 -1.9375q0 -1.578125 0.296875 -2.25q0.28125 -0.671875 0.9375 -1.078125q0.65625 -0.421875 1.546875 -0.421875q0.953125 0 1.59375 0.453125q0.625 0.453125 0.953125 1.359375l4.25 -2.265625l0 2.0l-4.046875 2.15625l0 0.15625l4.046875 0l0 1.828125l-9.578125 0zm3.75 -1.828125l0 -0.5625q0 -0.875 -0.21875 -1.203125q-0.234375 -0.328125 -0.765625 -0.328125q-0.3125 0 -0.546875 0.171875q-0.234375 0.15625 -0.328125 0.4375q-0.109375 0.265625 -0.109375 0.984375l0 0.5l1.96875 0zm-3.75 -5.7782288l0 -5.234375l1.78125 0l0 3.421875l1.734375 0l0 -3.421875l1.75 0l0 3.421875l2.515625 0l0 -3.421875l1.796875 0l0 5.234375l-9.578125 0zm8.171875 -15.149643l2.15625 -1.65625l0 2.15625l-1.078125 0.84375q0.5625 1.046875 0.5625 2.34375q0 2.15625 -1.484375 3.578125q-1.484375 1.421875 -3.546875 1.421875q-1.359375 0 -2.5 -0.65625q-1.15625 -0.671875 -1.828125 -1.828125q-0.6875 -1.171875 -0.6875 -2.5q0 -2.03125 1.46875 -3.484375q1.46875 -1.46875 3.59375 -1.46875q1.9375 0 3.34375 1.25zm-1.46875 1.140625q-0.859375 -0.578125 -1.890625 -0.578125q-1.359375 0 -2.3125 0.921875q-0.953125 0.921875 -0.953125 2.21875q0 1.34375 0.921875 2.25q0.921875 0.90625 2.359375 0.90625q1.578125 0 2.5 -1.140625q0.734375 -0.890625 0.734375 -2.03125q0 -0.65625 -0.265625 -1.21875l-2.203125 1.703125l0 -2.171875l1.109375 -0.859375zm-6.703125 -4.0529175l0 -1.828125l6.203125 0q0.796875 0 1.140625 -0.140625q0.328125 -0.140625 0.53125 -0.453125q0.1875 -0.328125 0.1875 -0.78125q0 -0.484375 -0.21875 -0.828125q-0.21875 -0.359375 -0.5625 -0.484375q-0.34375 -0.140625 -1.3125 -0.140625l-5.96875 0l0 -1.828125l5.71875 0q1.4375 0 2.0 0.171875q0.5625 0.15625 1.078125 0.625q0.515625 0.453125 0.765625 1.0625q0.25 0.59375 0.25 1.375q0 1.046875 -0.46875 1.828125q-0.484375 0.765625 -1.203125 1.09375q-0.71875 0.328125 -2.421875 0.328125l-5.71875 0zm0 -8.59433l0 -5.234375l1.78125 0l0 3.421875l1.734375 0l0 -3.421875l1.75 0l0 3.421875l2.515625 0l0 -3.421875l1.796875 0l0 5.234375l-9.578125 0zm0 -6.930893l0 -1.75l6.296875 -4.109371l-6.296875 0l0 -1.8125l9.578125 0l0 1.75l-6.28125 4.093746l6.28125 0l0 1.828125l-9.578125 0zm1.6875 -18.656307l1.21875 1.28125q-1.375 1.296875 -1.375 2.921875q0 1.375 0.9375 2.3125q0.9375 0.9375 2.3125 0.9375q0.953125 0 1.703125 -0.40625q0.734375 -0.421875 1.15625 -1.1875q0.421875 -0.765625 0.421875 -1.6875q0 -0.796875 -0.296875 -1.453125q-0.296875 -0.65625 -1.078125 -1.4375l1.296875 -1.25q1.03125 1.0625 1.4375 2.015625q0.390625 0.9375 0.390625 2.15625q0 2.21875 -1.40625 3.640625q-1.421875 1.421875 -3.625 1.421875q-1.4375 0 -2.546875 -0.640625q-1.109375 -0.640625 -1.78125 -1.84375q-0.6875 -1.21875 -0.6875 -2.609375q0 -1.1875 0.5 -2.28125q0.5 -1.09375 1.421875 -1.890625zm-1.6875 -1.4712067l0 -1.796875l9.578125 0l0 1.796875l-9.578125 0zm0 -3.854021l0 -5.234375l1.78125 0l0 3.421875l1.734375 0l0 -3.421875l1.75 0l0 3.421875l2.515625 0l0 -3.421875l1.796875 0l0 5.234375l-9.578125 0zm1.3125 -11.946518l1.1875 1.34375q-0.984375 0.71875 -0.984375 1.453125q0 0.34375 0.1875 0.578125q0.1875 0.234375 0.4375 0.234375q0.234375 0 0.453125 -0.171875q0.28125 -0.21875 1.21875 -1.328125q0.875 -1.046875 1.109375 -1.265625q0.5625 -0.546875 1.078125 -0.78125q0.5 -0.234375 1.109375 -0.234375q1.171875 0 1.9375 0.8125q0.765625 0.8125 0.765625 2.125q0 1.015625 -0.5 1.78125q-0.5 0.75 -1.5625 1.296875l-0.9375 -1.53125q1.28125 -0.6875 1.28125 -1.59375q0 -0.46875 -0.265625 -0.78125q-0.28125 -0.3125 -0.640625 -0.3125q-0.328125 0 -0.65625 0.234375q-0.328125 0.234375 -1.0 1.0625q-1.265625 1.5625 -1.953125 2.015625q-0.703125 0.453125 -1.390625 0.453125q-1.0 0 -1.703125 -0.75q-0.71875 -0.765625 -0.71875 -1.875q0 -0.71875 0.328125 -1.359375q0.328125 -0.65625 1.21875 -1.40625z" fill-rule="nonzero"/><path fill="#000000" fill-opacity="0.0" d="m227.76378 162.56168l111.11812 0l0 13.574814l-111.11812 0z" fill-rule="evenodd"/><path fill="#666666" d="m252.96875 166.25845l-1.28125 1.21875q-1.296875 -1.375 -2.921875 -1.375q-1.375 0 -2.3125 0.9375q-0.9375 0.9375 -0.9375 2.3125q0 0.953125 0.40625 1.703125q0.421875 0.734375 1.1875 1.15625q0.765625 0.421875 1.6875 0.421875q0.796875 0 1.453125 -0.296875q0.65625 -0.296875 1.4375 -1.078125l1.25 1.296875q-1.0625 1.03125 -2.015625 1.4375q-0.9375 0.390625 -2.15625 0.390625q-2.21875 0 -3.640625 -1.40625q-1.421875 -1.421875 -1.421875 -3.625q0 -1.4375 0.640625 -2.546875q0.640625 -1.109375 1.84375 -1.78125q1.21875 -0.6875 2.609375 -0.6875q1.1875 0 2.28125 0.5q1.09375 0.5 1.890625 1.421875zm4.5180664 -1.6875l1.84375 0l3.6875 9.578125l-1.90625 0l-0.75 -1.96875l-3.890625 0l-0.78123474 1.96875l-1.90625 0l3.7031097 -9.578125zm0.9375 2.546875l-1.28125 3.28125l2.546875 0l-1.265625 -3.28125zm5.062561 -2.546875l5.28125 0l0 1.796875l-1.734375 0l0 7.78125l-1.859375 0l0 -7.78125l-1.6875 0l0 -1.796875zm6.5342712 0l5.234375 0l0 1.78125l-3.421875 0l0 1.734375l3.421875 0l0 1.75l-3.421875 0l0 2.515625l3.421875 0l0 1.796875l-5.234375 0l0 -9.578125zm15.774658 1.5625l-1.28125 1.28125q-1.21875 -1.296875 -2.84375 -1.296875q-1.40625 0 -2.359375 0.9375q-0.953125 0.9375 -0.953125 2.28125q0 1.390625 0.984375 2.359375q0.984375 0.953125 2.4375 0.953125q0.9375 0 1.578125 -0.390625q0.65625 -0.40625 1.0625 -1.25l-2.78125 0l0 -1.71875l4.8125 0l0.015625 0.40625q0 1.25 -0.65625 2.390625q-0.640625 1.125 -1.671875 1.71875q-1.03125 0.578125 -2.4375 0.578125q-1.484375 0 -2.65625 -0.640625q-1.15625 -0.640625 -1.84375 -1.84375q-0.6875 -1.203125 -0.6875 -2.578125q0 -1.90625 1.265625 -3.3125q1.484375 -1.671875 3.875 -1.671875q1.25 0 2.34375 0.453125q0.90625 0.390625 1.796875 1.34375zm6.8654175 -1.796875q2.03125 0 3.484375 1.46875q1.46875 1.46875 1.46875 3.59375q0 2.09375 -1.4375 3.546875q-1.4375 1.4375 -3.5 1.4375q-2.15625 0 -3.578125 -1.484375q-1.421875 -1.484375 -1.421875 -3.546875q0 -1.359375 0.65625 -2.515625q0.671875 -1.15625 1.828125 -1.828125q1.171875 -0.671875 2.5 -0.671875zm-0.015625 1.78125q-1.328125 0 -2.234375 0.921875q-0.90625 0.921875 -0.90625 2.359375q0 1.578125 1.140625 2.5q0.890625 0.734375 2.03125 0.734375q1.296875 0 2.203125 -0.9375q0.921875 -0.9375 0.921875 -2.3125q0 -1.375 -0.921875 -2.3125q-0.921875 -0.953125 -2.234375 -0.953125zm6.8185425 -1.546875l1.9375 0q1.578125 0 2.25 0.296875q0.671875 0.28125 1.078125 0.9375q0.421875 0.65625 0.421875 1.546875q0 0.953125 -0.453125 1.59375q-0.453125 0.625 -1.359375 0.953125l2.265625 4.25l-2.0 0l-2.15625 -4.046875l-0.15625 0l0 4.046875l-1.828125 0l0 -9.578125zm1.828125 3.75l0.5625 0q0.875 0 1.203125 -0.21875q0.328125 -0.234375 0.328125 -0.765625q0 -0.3125 -0.171875 -0.546875q-0.15625 -0.234375 -0.4375 -0.328125q-0.265625 -0.109375 -0.984375 -0.109375l-0.5 0l0 1.96875zm5.6532288 -3.75l1.796875 0l0 9.578125l-1.796875 0l0 -9.578125zm3.8540344 0l5.234375 0l0 1.78125l-3.421875 0l0 1.734375l3.421875 0l0 1.75l-3.421875 0l0 2.515625l3.421875 0l0 1.796875l-5.234375 0l0 -9.578125zm11.946503 1.3125l-1.34375 1.1875q-0.71875 -0.984375 -1.453125 -0.984375q-0.34375 0 -0.578125 0.1875q-0.234375 0.1875 -0.234375 0.4375q0 0.234375 0.171875 0.453125q0.21875 0.28125 1.328125 1.21875q1.046875 0.875 1.265625 1.109375q0.546875 0.5625 0.78125 1.078125q0.234375 0.5 0.234375 1.109375q0 1.171875 -0.8125 1.9375q-0.8125 0.765625 -2.125 0.765625q-1.015625 0 -1.78125 -0.5q-0.75 -0.5 -1.296875 -1.5625l1.53125 -0.9375q0.6875 1.28125 1.59375 1.28125q0.46875 0 0.78125 -0.265625q0.3125 -0.28125 0.3125 -0.640625q0 -0.328125 -0.234375 -0.65625q-0.234375 -0.328125 -1.0625 -1.0q-1.5625 -1.265625 -2.015625 -1.953125q-0.453125 -0.703125 -0.453125 -1.390625q0 -1.0 0.75 -1.703125q0.765625 -0.71875 1.875 -0.71875q0.71875 0 1.359375 0.328125q0.65625 0.328125 1.40625 1.21875z" fill-rule="nonzero"/><path fill="#000000" fill-opacity="0.0" d="m-9.254593 274.22046l336.18896 0l0 24.75592l-336.18896 0z" fill-rule="evenodd"/><path fill="#000000" d="m91.84575 280.3478l-2.421875 2.140625q-1.28125 -1.78125 -2.59375 -1.78125q-0.65625 0 -1.0625 0.34375q-0.40625 0.34375 -0.40625 0.78125q0 0.4375 0.296875 0.8125q0.390625 0.515625 2.390625 2.21875q1.875 1.578125 2.28125 1.984375q1.0 1.0 1.40625 1.921875q0.421875 0.921875 0.421875 2.015625q0 2.125 -1.46875 3.515625q-1.46875 1.375 -3.8125 1.375q-1.84375 0 -3.21875 -0.90625q-1.359375 -0.90625 -2.328125 -2.84375l2.75 -1.65625q1.25 2.28125 2.859375 2.28125q0.84375 0 1.421875 -0.484375q0.578125 -0.5 0.578125 -1.140625q0 -0.59375 -0.4375 -1.171875q-0.4375 -0.59375 -1.90625 -1.796875q-2.8125 -2.296875 -3.640625 -3.546875q-0.8125 -1.25 -0.8125 -2.484375q0 -1.796875 1.359375 -3.078125q1.359375 -1.28125 3.375 -1.28125q1.28125 0 2.4375 0.59375q1.171875 0.59375 2.53125 2.1875zm3.4335938 -2.34375l3.484375 0q2.828125 0 4.078125 0.515625q1.25 0.515625 1.96875 1.6875q0.71875 1.171875 0.71875 2.796875q0 1.796875 -0.953125 3.0q-0.9375 1.1875 -2.546875 1.65625q-0.953125 0.28125 -3.46875 0.28125l0 7.296875l-3.28125 0l0 -17.234375zm3.28125 6.734375l1.046875 0q1.234375 0 1.703125 -0.171875q0.484375 -0.1875 0.765625 -0.578125q0.28125 -0.40625 0.28125 -0.984375q0 -1.0 -0.78125 -1.453125q-0.5625 -0.34375 -2.078125 -0.34375l-0.9375 0l0 3.53125zm10.191406 -6.734375l9.40625 0l0 3.203125l-6.15625 0l0 3.125l6.15625 0l0 3.140625l-6.15625 0l0 4.546875l6.15625 0l0 3.21875l-9.40625 0l0 -17.234375zm28.308594 3.03125l-2.296875 2.1875q-2.34375 -2.46875 -5.265625 -2.46875q-2.484375 0 -4.171875 1.6875q-1.6875 1.6875 -1.6875 4.15625q0 1.71875 0.75 3.0625q0.75 1.328125 2.109375 2.09375q1.375 0.765625 3.046875 0.765625q1.4375 0 2.609375 -0.53125q1.1875 -0.53125 2.609375 -1.9375l2.234375 2.3125q-1.921875 1.859375 -3.625 2.59375q-1.6875 0.71875 -3.875 0.71875q-4.015625 0 -6.578125 -2.546875q-2.5625 -2.5625 -2.5625 -6.546875q0 -2.578125 1.171875 -4.578125q1.171875 -2.0 3.34375 -3.21875q2.171875 -1.21875 4.671875 -1.21875q2.140625 0 4.109375 0.90625q1.984375 0.890625 3.40625 2.5625zm2.6367188 -3.03125l3.265625 0l0 17.234375l-3.265625 0l0 -17.234375zm6.9960938 0l8.5625 0l0 3.1875l-5.3125 0l0 3.140625l5.3125 0l0 3.140625l-5.3125 0l0 7.765625l-3.25 0l0 -17.234375zm10.238281 0l3.53125 0l3.21875 6.1875l3.1875 -6.1875l3.46875 0l-5.03125 9.765625l0 7.46875l-3.3125 0l0 -7.46875l-5.0625 -9.765625zm28.082031 0l3.328125 0l6.640625 17.234375l-3.421875 0l-1.34375 -3.546875l-7.03125 0l-1.40625 3.546875l-3.40625 0l6.640625 -17.234375zm1.6875 4.5625l-2.296875 5.921875l4.578125 0l-2.28125 -5.921875zm9.691406 -4.5625l3.6875 0l3.609375 5.515625l3.65625 -5.515625l3.6875 0l-5.484375 8.34375l5.828125 8.890625l-3.703125 0l-3.984375 -6.0625l-3.9375 6.0625l-3.71875 0l5.828125 -8.890625l-5.46875 -8.34375zm17.464844 0l9.40625 0l0 3.203125l-6.15625 0l0 3.125l6.15625 0l0 3.140625l-6.15625 0l0 4.546875l6.15625 0l0 3.21875l-9.40625 0l0 -17.234375zm21.496094 2.34375l-2.421875 2.140625q-1.28125 -1.78125 -2.59375 -1.78125q-0.65625 0 -1.0625 0.34375q-0.40625 0.34375 -0.40625 0.78125q0 0.4375 0.296875 0.8125q0.390625 0.515625 2.390625 2.21875q1.875 1.578125 2.28125 1.984375q1.0 1.0 1.40625 1.921875q0.421875 0.921875 0.421875 2.015625q0 2.125 -1.46875 3.515625q-1.46875 1.375 -3.8125 1.375q-1.84375 0 -3.21875 -0.90625q-1.359375 -0.90625 -2.328125 -2.84375l2.75 -1.65625q1.25 2.28125 2.859375 2.28125q0.84375 0 1.421875 -0.484375q0.578125 -0.5 0.578125 -1.140625q0 -0.59375 -0.4375 -1.171875q-0.4375 -0.59375 -1.90625 -1.796875q-2.8125 -2.296875 -3.640625 -3.546875q-0.8125 -1.25 -0.8125 -2.484375q0 -1.796875 1.359375 -3.078125q1.359375 -1.28125 3.375 -1.28125q1.28125 0 2.4375 0.59375q1.171875 0.59375 2.53125 2.1875z" fill-rule="nonzero"/><path fill="#000000" fill-opacity="0.0" d="m461.28085 274.22046l336.18893 0l0 24.75592l-336.18893 0z" fill-rule="evenodd"/><path fill="#000000" d="m489.96323 278.00406l3.328125 0l6.640625 17.234375l-3.421875 0l-1.34375 -3.546875l-7.03125 0l-1.40625 3.546875l-3.40625 0l6.640625 -17.234375zm1.6875 4.5625l-2.296875 5.921875l4.578125 0l-2.28125 -5.921875zm10.832031 -4.5625l3.890625 0q3.765625 0 5.59375 0.9375q1.8280945 0.921875 2.9999695 3.015625q1.1875 2.09375 1.1875 4.90625q0 1.984375 -0.671875 3.65625q-0.65625 1.671875 -1.828125 2.78125q-1.15625 1.09375 -2.5155945 1.515625q-1.359375 0.421875 -4.703125 0.421875l-3.953125 0l0 -17.234375zm3.265625 3.15625l0 10.859375l1.53125 0q2.25 0 3.25 -0.515625q1.015625 -0.515625 1.6562195 -1.734375q0.65625 -1.21875 0.65625 -3.0q0 -2.734375 -1.5312195 -4.25q-1.390625 -1.359375 -4.453125 -1.359375l-1.109375 0zm13.539032 -3.15625l3.890625 0q3.765625 0 5.59375 0.9375q1.828125 0.921875 3.0 3.015625q1.1875 2.09375 1.1875 4.90625q0 1.984375 -0.671875 3.65625q-0.65625 1.671875 -1.828125 2.78125q-1.15625 1.09375 -2.515625 1.515625q-1.359375 0.421875 -4.703125 0.421875l-3.953125 0l0 -17.234375zm3.265625 3.15625l0 10.859375l1.53125 0q2.25 0 3.25 -0.515625q1.015625 -0.515625 1.65625 -1.734375q0.65625 -1.21875 0.65625 -3.0q0 -2.734375 -1.53125 -4.25q-1.390625 -1.359375 -4.453125 -1.359375l-1.109375 0zm36.160156 -0.34375l-2.3125 2.28125q-2.1875 -2.328125 -5.109375 -2.328125q-2.546875 0 -4.265625 1.6875q-1.71875 1.6875 -1.71875 4.109375q0 2.5 1.78125 4.234375q1.78125 1.734375 4.40625 1.734375q1.6875 0 2.859375 -0.71875q1.171875 -0.71875 1.875 -2.234375l-4.984375 0l0 -3.09375l8.671875 0l0.015625 0.734375q0 2.265625 -1.171875 4.296875q-1.171875 2.015625 -3.03125 3.09375q-1.859375 1.0625 -4.375 1.0625q-2.671875 0 -4.78125 -1.171875q-2.109375 -1.171875 -3.328125 -3.328125q-1.21875 -2.15625 -1.21875 -4.640625q0 -3.421875 2.25 -5.953125q2.6875 -3.015625 6.984375 -3.015625q2.25 0 4.21875 0.828125q1.640625 0.703125 3.234375 2.421875zm4.25 -2.8125l9.40625 0l0 3.203125l-6.15625 0l0 3.125l6.15625 0l0 3.140625l-6.15625 0l0 4.546875l6.15625 0l0 3.21875l-9.40625 0l0 -17.234375zm20.605469 -0.4375q3.65625 0 6.28125 2.65625q2.640625 2.640625 2.640625 6.453125q0 3.765625 -2.59375 6.390625q-2.59375 2.609375 -6.296875 2.609375q-3.875 0 -6.453125 -2.6875q-2.5625 -2.6875 -2.5625 -6.375q0 -2.46875 1.1875 -4.546875q1.203125 -2.078125 3.296875 -3.28125q2.09375 -1.21875 4.5 -1.21875zm-0.03125 3.203125q-2.390625 0 -4.015625 1.671875q-1.625 1.65625 -1.625 4.234375q0 2.859375 2.046875 4.515625q1.59375 1.296875 3.65625 1.296875q2.328125 0 3.96875 -1.6875q1.640625 -1.6875 1.640625 -4.15625q0 -2.453125 -1.65625 -4.15625q-1.640625 -1.71875 -4.015625 -1.71875zm13.71875 -2.765625l3.203125 0l3.984375 12.015625l4.046875 -12.015625l3.15625 0l2.90625 17.234375l-3.15625 0l-1.859375 -10.890625l-3.65625 10.890625l-2.90625 0l-3.609375 -10.890625l-1.890625 10.890625l-3.203125 0l2.984375 -17.234375zm28.957031 2.34375l-2.421875 2.140625q-1.28125 -1.78125 -2.59375 -1.78125q-0.65625 0 -1.0625 0.34375q-0.40625 0.34375 -0.40625 0.78125q0 0.4375 0.296875 0.8125q0.390625 0.515625 2.390625 2.21875q1.875 1.578125 2.28125 1.984375q1.0 1.0 1.40625 1.921875q0.421875 0.921875 0.421875 2.015625q0 2.125 -1.46875 3.515625q-1.46875 1.375 -3.8125 1.375q-1.84375 0 -3.21875 -0.90625q-1.359375 -0.90625 -2.328125 -2.84375l2.75 -1.65625q1.25 2.28125 2.859375 2.28125q0.84375 0 1.421875 -0.484375q0.578125 -0.5 0.578125 -1.140625q0 -0.59375 -0.4375 -1.171875q-0.4375 -0.59375 -1.90625 -1.796875q-2.8125 -2.296875 -3.640625 -3.546875q-0.8125 -1.25 -0.8125 -2.484375q0 -1.796875 1.359375 -3.078125q1.359375 -1.28125 3.375 -1.28125q1.28125 0 2.4375 0.59375q1.171875 0.59375 2.53125 2.1875zm12.6484375 -3.109375l4.0625 0q-2.09375 2.359375 -3.125 5.109375q-1.015625 2.75 -1.015625 6.296875q0 3.828125 1.140625 6.734375q0.890625 2.234375 3.0 4.859375l-4.0625 0q-1.875 -2.984375 -2.625 -5.578125q-0.734375 -2.59375 -0.734375 -6.109375q0 -3.453125 0.78125 -6.03125q0.78125 -2.59375 2.578125 -5.28125zm5.5390625 5.25l2.734375 0l0 1.609375q0.453125 -0.953125 1.1875 -1.4375q0.734375 -0.5 1.609375 -0.5q0.625 0 1.3125 0.328125l-1.0 2.75q-0.5625 -0.28125 -0.921875 -0.28125q-0.75 0 -1.265625 0.921875q-0.5 0.90625 -0.5 3.578125l0.015625 0.625l0 5.15625l-3.171875 0l0 -12.75zm21.191406 7.296875l-10.28125 0q0.234375 1.359375 1.1875 2.171875q0.96875 0.796875 2.46875 0.796875q1.796875 0 3.09375 -1.25l2.6875 1.265625q-1.0 1.421875 -2.40625 2.109375q-1.40625 0.6875 -3.34375 0.6875q-3.0 0 -4.890625 -1.890625q-1.890625 -1.890625 -1.890625 -4.75q0 -2.90625 1.875 -4.828125q1.890625 -1.9375 4.734375 -1.9375q3.0 0 4.890625 1.9375q1.890625 1.921875 1.890625 5.078125l-0.015625 0.609375zm-3.203125 -2.515625q-0.328125 -1.0625 -1.265625 -1.734375q-0.921875 -0.671875 -2.15625 -0.671875q-1.328125 0 -2.34375 0.75q-0.625 0.46875 -1.171875 1.65625l6.9375 0zm18.269531 -2.203125l-2.65625 1.46875q-0.75 -0.796875 -1.484375 -1.09375q-0.734375 -0.3125 -1.71875 -0.3125q-1.78125 0 -2.890625 1.078125q-1.109375 1.078125 -1.109375 2.75q0 1.625 1.0625 2.65625q1.0625 1.03125 2.796875 1.03125q2.15625 0 3.34375 -1.46875l2.515625 1.734375q-2.046875 2.65625 -5.78125 2.65625q-3.359375 0 -5.265625 -1.984375q-1.90625 -2.0 -1.90625 -4.671875q0 -1.859375 0.921875 -3.40625q0.921875 -1.5625 2.578125 -2.453125q1.671875 -0.890625 3.71875 -0.890625q1.890625 0 3.40625 0.765625q1.515625 0.75 2.46875 2.140625zm3.2695312 -7.28125l3.1875 0l0 4.703125l1.90625 0l0 2.75l-1.90625 0l0 10.0l-3.1875 0l0 -10.0l-1.640625 0l0 -2.75l1.640625 0l0 -4.703125zm16.242188 4.703125l3.1875 0l0 12.75l-3.1875 0l0 -1.34375q-0.9375 0.890625 -1.890625 1.28125q-0.9375 0.390625 -2.046875 0.390625q-2.46875 0 -4.28125 -1.90625q-1.796875 -1.921875 -1.796875 -4.78125q0 -2.953125 1.75 -4.828125q1.75 -1.890625 4.234375 -1.890625q1.15625 0 2.15625 0.4375q1.015625 0.421875 1.875 1.296875l0 -1.40625zm-3.375 2.625q-1.484375 0 -2.46875 1.046875q-0.984375 1.046875 -0.984375 2.6875q0 1.65625 1.0 2.71875q1.0 1.0625 2.46875 1.0625q1.515625 0 2.5 -1.046875q1.0 -1.046875 1.0 -2.75q0 -1.65625 -1.0 -2.6875q-0.984375 -1.03125 -2.515625 -1.03125zm9.796875 -2.625l3.1875 0l0 1.296875q1.078125 -0.90625 1.96875 -1.265625q0.890625 -0.359375 1.8125 -0.359375q1.890625 0 3.21875 1.328125q1.109375 1.125 1.109375 3.328125l0 8.421875l-3.15625 0l0 -5.59375q0 -2.28125 -0.203125 -3.03125q-0.203125 -0.75 -0.71875 -1.140625q-0.515625 -0.390625 -1.265625 -0.390625q-0.96875 0 -1.671875 0.65625q-0.6875 0.640625 -0.953125 1.78125q-0.140625 0.609375 -0.140625 2.59375l0 5.125l-3.1875 0l0 -12.75zm23.824219 0l3.1875 0l0 10.921875q0 3.234375 -1.3125 4.765625q-1.734375 2.0625 -5.25 2.0625q-1.875 0 -3.15625 -0.46875q-1.28125 -0.46875 -2.15625 -1.390625q-0.875 -0.90625 -1.296875 -2.203125l3.515625 0q0.46875 0.546875 1.203125 0.8125q0.75 0.28125 1.75 0.28125q1.296875 0 2.078125 -0.40625q0.78125 -0.390625 1.109375 -1.03125q0.328125 -0.625 0.328125 -2.171875q-0.84375 0.84375 -1.78125 1.21875q-0.921875 0.359375 -2.09375 0.359375q-2.5625 0 -4.34375 -1.84375q-1.765625 -1.859375 -1.765625 -4.703125q0 -3.03125 1.875 -4.875q1.703125 -1.65625 4.0625 -1.65625q1.09375 0 2.078125 0.40625q0.984375 0.40625 1.96875 1.328125l0 -1.40625zm-3.328125 2.65625q-1.5 0 -2.484375 1.015625q-0.984375 1.015625 -0.984375 2.546875q0 1.59375 1.0 2.625q1.015625 1.015625 2.53125 1.015625q1.484375 0 2.453125 -1.0q0.96875 -1.0 0.96875 -2.609375q0 -1.59375 -0.96875 -2.59375q-0.96875 -1.0 -2.515625 -1.0zm9.40625 -7.578125l3.203125 0l0 17.671875l-3.203125 0l0 -17.671875zm18.863281 12.21875l-10.28125 0q0.234375 1.359375 1.1875 2.171875q0.96875 0.796875 2.46875 0.796875q1.796875 0 3.09375 -1.25l2.6875 1.265625q-1.0 1.421875 -2.40625 2.109375q-1.40625 0.6875 -3.34375 0.6875q-3.0 0 -4.890625 -1.890625q-1.890625 -1.890625 -1.890625 -4.75q0 -2.90625 1.875 -4.828125q1.890625 -1.9375 4.734375 -1.9375q3.0 0 4.890625 1.9375q1.890625 1.921875 1.890625 5.078125l-0.015625 0.609375zm-3.203125 -2.515625q-0.328125 -1.0625 -1.265625 -1.734375q-0.921875 -0.671875 -2.15625 -0.671875q-1.328125 0 -2.34375 0.75q-0.625 0.46875 -1.171875 1.65625l6.9375 0zm13.597656 -3.0l-1.984375 1.984375q-1.203125 -1.203125 -2.1875 -1.203125q-0.53125 0 -0.84375 0.234375q-0.296875 0.21875 -0.296875 0.5625q0 0.265625 0.1875 0.484375q0.1875 0.203125 0.953125 0.578125l1.171875 0.59375q1.859375 0.90625 2.546875 1.859375q0.6875 0.953125 0.6875 2.234375q0 1.6875 -1.25 2.828125q-1.25 1.140625 -3.34375 1.140625q-2.78125 0 -4.453125 -2.1875l1.96875 -2.140625q0.5625 0.65625 1.3125 1.0625q0.765625 0.40625 1.34375 0.40625q0.640625 0 1.015625 -0.296875q0.390625 -0.3125 0.390625 -0.71875q0 -0.734375 -1.390625 -1.4375l-1.078125 -0.53125q-3.09375 -1.5625 -3.09375 -3.90625q0 -1.515625 1.15625 -2.578125q1.171875 -1.078125 3.0 -1.078125q1.234375 0 2.328125 0.546875q1.09375 0.546875 1.859375 1.5625zm5.8085938 15.96875l-4.046875 0q2.078125 -2.359375 3.109375 -5.109375q1.03125 -2.75 1.03125 -6.296875q0 -3.84375 -1.140625 -6.734375q-0.890625 -2.234375 -3.0 -4.859375l4.046875 0q1.875 2.96875 2.625 5.578125q0.75 2.59375 0.75 6.109375q0 3.4375 -0.796875 6.03125q-0.78125 2.59375 -2.578125 5.28125z" fill-rule="nonzero"/><path fill="#000000" fill-opacity="0.0" d="m889.1391 274.22046l368.378 0l0 24.75592l-368.378 0z" fill-rule="evenodd"/><path fill="#000000" d="m912.2734 280.3478l-2.421875 2.140625q-1.28125 -1.78125 -2.59375 -1.78125q-0.65625 0 -1.0625 0.34375q-0.40625 0.34375 -0.40625 0.78125q0 0.4375 0.296875 0.8125q0.390625 0.515625 2.390625 2.21875q1.875 1.578125 2.28125 1.984375q1.0 1.0 1.40625 1.921875q0.421875 0.921875 0.421875 2.015625q0 2.125 -1.46875 3.515625q-1.46875 1.375 -3.8125 1.375q-1.84375 0 -3.21875 -0.90625q-1.359375 -0.90625 -2.328125 -2.84375l2.75 -1.65625q1.25 2.28125 2.859375 2.28125q0.84375 0 1.421875 -0.484375q0.578125 -0.5 0.578125 -1.140625q0 -0.59375 -0.4375 -1.171875q-0.4375 -0.59375 -1.90625 -1.796875q-2.8125 -2.296875 -3.640625 -3.546875q-0.8125 -1.25 -0.8125 -2.484375q0 -1.796875 1.359375 -3.078125q1.359375 -1.28125 3.375 -1.28125q1.28125 0 2.4375 0.59375q1.171875 0.59375 2.53125 2.1875zm3.4335938 -2.34375l3.484375 0q2.828125 0 4.078125 0.515625q1.25 0.515625 1.96875 1.6875q0.71875 1.171875 0.71875 2.796875q0 1.796875 -0.953125 3.0q-0.9375 1.1875 -2.546875 1.65625q-0.953125 0.28125 -3.46875 0.28125l0 7.296875l-3.28125 0l0 -17.234375zm3.28125 6.734375l1.046875 0q1.234375 0 1.703125 -0.171875q0.484375 -0.1875 0.765625 -0.578125q0.28125 -0.40625 0.28125 -0.984375q0 -1.0 -0.78125 -1.453125q-0.5625 -0.34375 -2.078125 -0.34375l-0.9375 0l0 3.53125zm10.191406 -6.734375l9.40625 0l0 3.203125l-6.15625 0l0 3.125l6.15625 0l0 3.140625l-6.15625 0l0 4.546875l6.15625 0l0 3.21875l-9.40625 0l0 -17.234375zm28.308594 3.03125l-2.296875 2.1875q-2.34375 -2.46875 -5.265625 -2.46875q-2.484375 0 -4.171875 1.6875q-1.6875 1.6875 -1.6875 4.15625q0 1.71875 0.75 3.0625q0.75 1.328125 2.109375 2.09375q1.375 0.765625 3.046875 0.765625q1.4375 0 2.609375 -0.53125q1.1875 -0.53125 2.609375 -1.9375l2.234375 2.3125q-1.921875 1.859375 -3.625 2.59375q-1.6875 0.71875 -3.875 0.71875q-4.015625 0 -6.578125 -2.546875q-2.5625 -2.5625 -2.5625 -6.546875q0 -2.578125 1.171875 -4.578125q1.171875 -2.0 3.34375 -3.21875q2.171875 -1.21875 4.671875 -1.21875q2.140625 0 4.109375 0.90625q1.984375 0.890625 3.40625 2.5625zm2.6367188 -3.03125l3.265625 0l0 17.234375l-3.265625 0l0 -17.234375zm6.9960938 0l8.5625 0l0 3.1875l-5.3125 0l0 3.140625l5.3125 0l0 3.140625l-5.3125 0l0 7.765625l-3.25 0l0 -17.234375zm10.238281 0l3.53125 0l3.21875 6.1875l3.1875 -6.1875l3.46875 0l-5.03125 9.765625l0 7.46875l-3.3125 0l0 -7.46875l-5.0625 -9.765625zm28.082031 0l3.328125 0l6.640625 17.234375l-3.421875 0l-1.34375 -3.546875l-7.03125 0l-1.40625 3.546875l-3.40625 0l6.640625 -17.234375zm1.6875 4.5625l-2.296875 5.921875l4.578125 0l-2.28125 -5.921875zm10.832031 -4.5625l9.406311 0l0 3.203125l-6.156311 0l0 3.125l6.156311 0l0 3.140625l-6.156311 0l0 4.546875l6.156311 0l0 3.21875l-9.406311 0l0 -17.234375zm21.496155 2.34375l-2.421875 2.140625q-1.28125 -1.78125 -2.59375 -1.78125q-0.65625 0 -1.0625 0.34375q-0.40625 0.34375 -0.40625 0.78125q0 0.4375 0.296875 0.8125q0.390625 0.515625 2.390625 2.21875q1.875 1.578125 2.28125 1.984375q1.0 1.0 1.40625 1.921875q0.421875 0.921875 0.421875 2.015625q0 2.125 -1.46875 3.515625q-1.46875 1.375 -3.8125 1.375q-1.84375 0 -3.21875 -0.90625q-1.359375 -0.90625 -2.328125 -2.84375l2.75 -1.65625q1.25 2.28125 2.859375 2.28125q0.84375 0 1.421875 -0.484375q0.578125 -0.5 0.578125 -1.140625q0 -0.59375 -0.4375 -1.171875q-0.4375 -0.59375 -1.90625 -1.796875q-2.8125 -2.296875 -3.640625 -3.546875q-0.8125 -1.25 -0.8125 -2.484375q0 -1.796875 1.359375 -3.078125q1.359375 -1.28125 3.375 -1.28125q1.28125 0 2.4375 0.59375q1.171875 0.59375 2.53125 2.1875zm1.7460938 -2.34375l9.53125 0l0 3.234375l-3.140625 0l0 14.0l-3.328125 0l0 -14.0l-3.0625 0l0 -3.234375zm11.765625 0l3.328125 0l0 6.5l5.765625 0l0 -6.5l3.328125 0l0 17.234375l-3.328125 0l0 -7.5625l-5.765625 0l0 7.5625l-3.328125 0l0 -17.234375zm16.355469 0l9.40625 0l0 3.203125l-6.15625 0l0 3.125l6.15625 0l0 3.140625l-6.15625 0l0 4.546875l6.15625 0l0 3.21875l-9.40625 0l0 -17.234375zm10.761719 0l9.53125 0l0 3.234375l-3.140625 0l0 14.0l-3.328125 0l0 -14.0l-3.0625 0l0 -3.234375zm11.546875 0l3.265625 0l0 17.234375l-3.265625 0l0 -17.234375zm22.792969 3.03125l-2.296875 2.1875q-2.34375 -2.46875 -5.265625 -2.46875q-2.484375 0 -4.171875 1.6875q-1.6875 1.6875 -1.6875 4.15625q0 1.71875 0.75 3.0625q0.75 1.328125 2.109375 2.09375q1.375 0.765625 3.046875 0.765625q1.4375 0 2.609375 -0.53125q1.1875 -0.53125 2.609375 -1.9375l2.234375 2.3125q-1.921875 1.859375 -3.625 2.59375q-1.6875 0.71875 -3.875 0.71875q-4.015625 0 -6.578125 -2.546875q-2.5625 -2.5625 -2.5625 -6.546875q0 -2.578125 1.171875 -4.578125q1.171875 -2.0 3.34375 -3.21875q2.171875 -1.21875 4.671875 -1.21875q2.140625 0 4.109375 0.90625q1.984375 0.890625 3.40625 2.5625zm11.2578125 -3.03125l3.203125 0l3.984375 12.015625l4.046875 -12.015625l3.15625 0l2.90625 17.234375l-3.15625 0l-1.859375 -10.890625l-3.65625 10.890625l-2.90625 0l-3.609375 -10.890625l-1.890625 10.890625l-3.203125 0l2.984375 -17.234375zm25.175781 0l3.328125 0l6.640625 17.234375l-3.421875 0l-1.34375 -3.546875l-7.03125 0l-1.40625 3.546875l-3.40625 0l6.640625 -17.234375zm1.6875 4.5625l-2.296875 5.921875l4.578125 0l-2.28125 -5.921875zm10.800781 -4.5625l3.484375 0q2.828125 0 4.078125 0.515625q1.25 0.515625 1.96875 1.6875q0.71875 1.171875 0.71875 2.796875q0 1.796875 -0.953125 3.0q-0.9375 1.1875 -2.546875 1.65625q-0.953125 0.28125 -3.46875 0.28125l0 7.296875l-3.28125 0l0 -17.234375zm3.28125 6.734375l1.046875 0q1.234375 0 1.703125 -0.171875q0.484375 -0.1875 0.765625 -0.578125q0.28125 -0.40625 0.28125 -0.984375q0 -1.0 -0.78125 -1.453125q-0.5625 -0.34375 -2.078125 -0.34375l-0.9375 0l0 3.53125zm10.160156 -6.734375l3.484375 0q2.828125 0 4.078125 0.515625q1.25 0.515625 1.96875 1.6875q0.71875 1.171875 0.71875 2.796875q0 1.796875 -0.953125 3.0q-0.9375 1.1875 -2.546875 1.65625q-0.953125 0.28125 -3.46875 0.28125l0 7.296875l-3.28125 0l0 -17.234375zm3.28125 6.734375l1.046875 0q1.234375 0 1.703125 -0.171875q0.484375 -0.1875 0.765625 -0.578125q0.28125 -0.40625 0.28125 -0.984375q0 -1.0 -0.78125 -1.453125q-0.5625 -0.34375 -2.078125 -0.34375l-0.9375 0l0 3.53125zm9.941406 -6.734375l3.265625 0l0 17.234375l-3.265625 0l0 -17.234375zm6.9648438 0l3.140625 0l7.390625 11.34375l0 -11.34375l3.28125 0l0 17.234375l-3.15625 0l-7.375 -11.3125l0 11.3125l-3.28125 0l0 -17.234375zm33.660156 2.8125l-2.3125 2.28125q-2.1875 -2.328125 -5.109375 -2.328125q-2.546875 0 -4.265625 1.6875q-1.71875 1.6875 -1.71875 4.109375q0 2.5 1.78125 4.234375q1.78125 1.734375 4.40625 1.734375q1.6875 0 2.859375 -0.71875q1.171875 -0.71875 1.875 -2.234375l-4.984375 0l0 -3.09375l8.671875 0l0.015625 0.734375q0 2.265625 -1.171875 4.296875q-1.171875 2.015625 -3.03125 3.09375q-1.859375 1.0625 -4.375 1.0625q-2.671875 0 -4.78125 -1.171875q-2.109375 -1.171875 -3.328125 -3.328125q-1.21875 -2.15625 -1.21875 -4.640625q0 -3.421875 2.25 -5.953125q2.6875 -3.015625 6.984375 -3.015625q2.25 0 4.21875 0.828125q1.640625 0.703125 3.234375 2.421875zm13.265625 -0.46875l-2.421875 2.140625q-1.28125 -1.78125 -2.59375 -1.78125q-0.65625 0 -1.0625 0.34375q-0.40625 0.34375 -0.40625 0.78125q0 0.4375 0.296875 0.8125q0.390625 0.515625 2.390625 2.21875q1.875 1.578125 2.28125 1.984375q1.0 1.0 1.40625 1.921875q0.421875 0.921875 0.421875 2.015625q0 2.125 -1.46875 3.515625q-1.46875 1.375 -3.8125 1.375q-1.84375 0 -3.21875 -0.90625q-1.359375 -0.90625 -2.328125 -2.84375l2.75 -1.65625q1.25 2.28125 2.859375 2.28125q0.84375 0 1.421875 -0.484375q0.578125 -0.5 0.578125 -1.140625q0 -0.59375 -0.4375 -1.171875q-0.4375 -0.59375 -1.90625 -1.796875q-2.8125 -2.296875 -3.640625 -3.546875q-0.8125 -1.25 -0.8125 -2.484375q0 -1.796875 1.359375 -3.078125q1.359375 -1.28125 3.375 -1.28125q1.28125 0 2.4375 0.59375q1.171875 0.59375 2.53125 2.1875z" fill-rule="nonzero"/><path fill="#000000" fill-opacity="0.0" d="m914.853 306.18372l368.37793 0l0 69.51181l-368.37793 0z" fill-rule="evenodd"/><path fill="#000000" d="m941.4239 325.05435q1.140625 0 2.234375 0.59375q1.109375 0.59375 1.71875 1.703125q0.625 1.109375 0.625 2.296875q0 1.90625 -1.34375 3.25q-1.34375 1.34375 -3.234375 1.34375q-1.90625 0 -3.25 -1.34375q-1.34375 -1.34375 -1.34375 -3.25q0 -1.203125 0.609375 -2.296875q0.609375 -1.109375 1.71875 -1.703125q1.109375 -0.59375 2.265625 -0.59375z" fill-rule="nonzero"/><path fill="#000000" d="m972.478 324.3356l3.0625 0l1.984375 3.21875l2.34375 -3.21875l3.234375 0l-4.109375 5.625l3.5 5.703125l-3.0625 0l-2.109375 -3.421875l-2.546875 3.421875l-3.234375 0l4.3125 -5.828125l-3.375 -5.5z" fill-rule="nonzero"/><path fill="#000000" d="m985.62616 328.69498l5.296875 0l0 2.640625l-5.296875 0l0 -2.640625zm19.65924 -2.078125l-2.359375 1.3125q-0.671875 -0.703125 -1.328125 -0.96875q-0.640625 -0.28125 -1.515625 -0.28125q-1.59375 0 -2.578125 0.953125q-0.984375 0.953125 -0.984375 2.453125q0 1.4375 0.9375 2.359375q0.953125 0.921875 2.5 0.921875q1.90625 0 2.96875 -1.3125l2.234375 1.53125q-1.828125 2.375 -5.140625 2.375q-3.0 0 -4.6875 -1.765625q-1.6875 -1.78125 -1.6875 -4.15625q0 -1.640625 0.8125 -3.03125q0.828125 -1.390625 2.296875 -2.171875q1.484375 -0.796875 3.296875 -0.796875q1.6875 0 3.03125 0.671875q1.34375 0.671875 2.203125 1.90625zm7.887329 -2.578125q1.59375 0 3.0 0.8125q1.421875 0.796875 2.203125 2.171875q0.796875 1.375 0.796875 2.96875q0 1.59375 -0.796875 3.0q-0.796875 1.390625 -2.171875 2.1875q-1.375 0.78125 -3.03125 0.78125q-2.4375 0 -4.15625 -1.734375q-1.71875 -1.734375 -1.71875 -4.21875q0 -2.65625 1.9375 -4.421875q1.71875 -1.546875 3.9375 -1.546875zm0.03125 2.671875q-1.3125 0 -2.203125 0.921875q-0.875 0.921875 -0.875 2.359375q0 1.484375 0.859375 2.40625q0.875 0.90625 2.21875 0.90625q1.328125 0 2.203125 -0.921875q0.890625 -0.921875 0.890625 -2.390625q0 -1.453125 -0.875 -2.359375q-0.859375 -0.921875 -2.21875 -0.921875zm13.621704 -2.671875q1.59375 0 3.0 0.8125q1.421875 0.796875 2.203125 2.171875q0.796875 1.375 0.796875 2.96875q0 1.59375 -0.796875 3.0q-0.796875 1.390625 -2.171875 2.1875q-1.375 0.78125 -3.03125 0.78125q-2.4375 0 -4.156311 -1.734375q-1.71875 -1.734375 -1.71875 -4.21875q0 -2.65625 1.9375 -4.421875q1.718811 -1.546875 3.937561 -1.546875zm0.03125 2.671875q-1.3125 0 -2.203125 0.921875q-0.87506104 0.921875 -0.87506104 2.359375q0 1.484375 0.85943604 2.40625q0.875 0.90625 2.21875 0.90625q1.328125 0 2.203125 -0.921875q0.890625 -0.921875 0.890625 -2.390625q0 -1.453125 -0.875 -2.359375q-0.859375 -0.921875 -2.21875 -0.921875zm7.621582 -2.375l2.4375 0l0 1.421875q0.40625 -0.84375 1.0625 -1.28125q0.65625 -0.4375 1.4375 -0.4375q0.546875 0 1.15625 0.296875l-0.890625 2.4375q-0.5 -0.25 -0.828125 -0.25q-0.65625 0 -1.109375 0.8125q-0.453125 0.8125 -0.453125 3.1875l0.015625 0.5625l0 4.578125l-2.828125 0l0 -11.328125zm15.868164 -4.375l2.828125 0l0 15.703125l-2.828125 0l0 -1.203125q-0.828125 0.796875 -1.671875 1.15625q-0.84375 0.34375 -1.8125 0.34375q-2.203125 0 -3.8125 -1.703125q-1.59375 -1.703125 -1.59375 -4.234375q0 -2.625 1.546875 -4.296875q1.546875 -1.6875 3.765625 -1.6875q1.03125 0 1.921875 0.390625q0.890625 0.390625 1.65625 1.15625l0 -5.625zm-2.984375 6.703125q-1.328125 0 -2.203125 0.9375q-0.875 0.921875 -0.875 2.390625q0 1.46875 0.890625 2.421875q0.890625 0.9375 2.1875 0.9375q1.34375 0 2.234375 -0.921875q0.890625 -0.9375 0.890625 -2.453125q0 -1.484375 -0.890625 -2.390625q-0.890625 -0.921875 -2.234375 -0.921875z" fill-rule="nonzero"/><path fill="#000000" d="m1068.4312 331.22623l0 -6.96875l1.390625 0l0 2.796875l8.28125 0l-1.65625 -2.171875l0.71875 -0.71875l5.046875 3.375l0 0.421875l-5.046875 3.359375l-0.71875 -0.71875l1.65625 -2.15625l-8.28125 0l0 2.78125l-1.390625 0z" fill-rule="nonzero"/><path fill="#000000" d="m1100.9531 326.61685l-2.359375 1.3125q-0.671875 -0.703125 -1.328125 -0.96875q-0.640625 -0.28125 -1.515625 -0.28125q-1.59375 0 -2.578125 0.953125q-0.984375 0.953125 -0.984375 2.453125q0 1.4375 0.9375 2.359375q0.953125 0.921875 2.5 0.921875q1.90625 0 2.96875 -1.3125l2.234375 1.53125q-1.828125 2.375 -5.140625 2.375q-3.0 0 -4.6875 -1.765625q-1.6875 -1.78125 -1.6875 -4.15625q0 -1.640625 0.8125 -3.03125q0.828125 -1.390625 2.296875 -2.171875q1.484375 -0.796875 3.296875 -0.796875q1.6875 0 3.03125 0.671875q1.34375 0.671875 2.203125 1.90625zm10.934204 -2.28125l2.828125 0l0 11.328125l-2.828125 0l0 -1.203125q-0.828125 0.796875 -1.671875 1.15625q-0.84375 0.34375 -1.8125 0.34375q-2.203125 0 -3.8125 -1.703125q-1.59375 -1.703125 -1.59375 -4.234375q0 -2.625 1.546875 -4.296875q1.546875 -1.6875 3.765625 -1.6875q1.03125 0 1.921875 0.390625q0.890625 0.390625 1.65625 1.15625l0 -1.25zm-2.984375 2.328125q-1.328125 0 -2.203125 0.9375q-0.875 0.921875 -0.875 2.390625q0 1.46875 0.890625 2.421875q0.890625 0.9375 2.1875 0.9375q1.34375 0 2.234375 -0.921875q0.890625 -0.9375 0.890625 -2.453125q0 -1.484375 -0.890625 -2.390625q-0.890625 -0.921875 -2.234375 -0.921875zm9.032959 -6.5l2.828125 0l0 4.171875l1.6875 0l0 2.4375l-1.6875 0l0 8.890625l-2.828125 0l0 -8.890625l-1.453125 0l0 -2.4375l1.453125 0l0 -4.171875zm17.394287 10.65625l-9.125 0q0.203125 1.203125 1.0625 1.921875q0.859375 0.71875 2.1875 0.71875q1.59375 0 2.734375 -1.125l2.390625 1.125q-0.890625 1.28125 -2.140625 1.890625q-1.25 0.609375 -2.96875 0.609375q-2.65625 0 -4.34375 -1.6875q-1.671875 -1.6875 -1.671875 -4.21875q0 -2.59375 1.671875 -4.296875q1.671875 -1.71875 4.1875 -1.71875q2.6875 0 4.359375 1.71875q1.671875 1.703125 1.671875 4.515625l-0.015625 0.546875zm-2.84375 -2.234375q-0.28125 -0.953125 -1.109375 -1.546875q-0.828125 -0.59375 -1.921875 -0.59375q-1.1875 0 -2.078125 0.671875q-0.5625 0.40625 -1.046875 1.46875l6.15625 0zm13.527954 -4.25l2.828125 0l0 9.703125q0 2.875 -1.15625 4.234375q-1.546875 1.828125 -4.671875 1.828125q-1.671875 0 -2.8125 -0.421875q-1.125 -0.40625 -1.90625 -1.21875q-0.78125 -0.8125 -1.15625 -1.96875l3.140625 0q0.40625 0.484375 1.0625 0.71875q0.65625 0.25 1.5625 0.25q1.140625 0 1.828125 -0.359375q0.703125 -0.34375 0.984375 -0.90625q0.296875 -0.5625 0.296875 -1.9375q-0.75 0.75 -1.578125 1.078125q-0.8125 0.328125 -1.859375 0.328125q-2.28125 0 -3.859375 -1.640625q-1.5625 -1.65625 -1.5625 -4.171875q0 -2.703125 1.65625 -4.328125q1.515625 -1.484375 3.609375 -1.484375q0.984375 0 1.84375 0.359375q0.875 0.359375 1.75 1.1875l0 -1.25zm-2.953125 2.359375q-1.34375 0 -2.21875 0.90625q-0.875 0.890625 -0.875 2.265625q0 1.40625 0.890625 2.3125q0.90625 0.90625 2.265625 0.90625q1.3125 0 2.171875 -0.875q0.859375 -0.890625 0.859375 -2.328125q0 -1.421875 -0.859375 -2.296875q-0.859375 -0.890625 -2.234375 -0.890625zm13.986084 -2.65625q1.59375 0 3.0 0.8125q1.421875 0.796875 2.203125 2.171875q0.796875 1.375 0.796875 2.96875q0 1.59375 -0.796875 3.0q-0.796875 1.390625 -2.171875 2.1875q-1.375 0.78125 -3.03125 0.78125q-2.4375 0 -4.15625 -1.734375q-1.71875 -1.734375 -1.71875 -4.21875q0 -2.65625 1.9375 -4.421875q1.71875 -1.546875 3.9375 -1.546875zm0.03125 2.671875q-1.3125 0 -2.203125 0.921875q-0.875 0.921875 -0.875 2.359375q0 1.484375 0.859375 2.40625q0.875 0.90625 2.21875 0.90625q1.328125 0 2.203125 -0.921875q0.890625 -0.921875 0.890625 -2.390625q0 -1.453125 -0.875 -2.359375q-0.859375 -0.921875 -2.21875 -0.921875zm7.621704 -2.375l2.4375 0l0 1.421875q0.40625 -0.84375 1.0625 -1.28125q0.65625 -0.4375 1.4375 -0.4375q0.546875 0 1.15625 0.296875l-0.890625 2.4375q-0.5 -0.25 -0.828125 -0.25q-0.65625 0 -1.109375 0.8125q-0.453125 0.8125 -0.453125 3.1875l0.015625 0.5625l0 4.578125l-2.828125 0l0 -11.328125zm8.602539 -4.671875q0.75 0 1.28125 0.546875q0.546875 0.546875 0.546875 1.3125q0 0.765625 -0.53125 1.296875q-0.53125 0.53125 -1.265625 0.53125q-0.765625 0 -1.3125 -0.546875q-0.53125 -0.546875 -0.53125 -1.328125q0 -0.75 0.53125 -1.28125q0.53125 -0.53125 1.28125 -0.53125zm-1.421875 4.671875l2.859375 0l0 11.328125l-2.859375 0l0 -11.328125zm16.769531 6.484375l-9.125 0q0.203125 1.203125 1.0625 1.921875q0.859375 0.71875 2.1875 0.71875q1.59375 0 2.734375 -1.125l2.390625 1.125q-0.890625 1.28125 -2.140625 1.890625q-1.25 0.609375 -2.96875 0.609375q-2.65625 0 -4.34375 -1.6875q-1.671875 -1.6875 -1.671875 -4.21875q0 -2.59375 1.671875 -4.296875q1.671875 -1.71875 4.1875 -1.71875q2.6875 0 4.359375 1.71875q1.671875 1.703125 1.671875 4.515625l-0.015625 0.546875zm-2.84375 -2.234375q-0.28125 -0.953125 -1.109375 -1.546875q-0.828125 -0.59375 -1.921875 -0.59375q-1.1875 0 -2.078125 0.671875q-0.5625 0.40625 -1.046875 1.46875l6.15625 0zm12.090454 -2.671875l-1.765625 1.765625q-1.0625 -1.0625 -1.9375 -1.0625q-0.484375 0 -0.765625 0.203125q-0.265625 0.203125 -0.265625 0.5q0 0.234375 0.171875 0.421875q0.171875 0.1875 0.859375 0.53125l1.03125 0.515625q1.65625 0.8125 2.265625 1.65625q0.609375 0.84375 0.609375 1.984375q0 1.5 -1.109375 2.515625q-1.109375 1.015625 -2.96875 1.015625q-2.484375 0 -3.953125 -1.9375l1.75 -1.90625q0.5 0.578125 1.171875 0.9375q0.671875 0.359375 1.1875 0.359375q0.5625 0 0.90625 -0.265625q0.34375 -0.28125 0.34375 -0.625q0 -0.65625 -1.234375 -1.28125l-0.96875 -0.484375q-2.75 -1.390625 -2.75 -3.46875q0 -1.34375 1.03125 -2.296875q1.046875 -0.953125 2.65625 -0.953125q1.109375 0 2.078125 0.484375q0.984375 0.484375 1.65625 1.390625z" fill-rule="nonzero"/><path fill="#000000" d="m941.4239 350.65436q1.140625 0 2.234375 0.59375q1.109375 0.59375 1.71875 1.703125q0.625 1.109375 0.625 2.296875q0 1.90625 -1.34375 3.25q-1.34375 1.34375 -3.234375 1.34375q-1.90625 0 -3.25 -1.34375q-1.34375 -1.34375 -1.34375 -3.25q0 -1.203125 0.609375 -2.296875q0.609375 -1.109375 1.71875 -1.703125q1.109375 -0.59375 2.265625 -0.59375z" fill-rule="nonzero"/><path fill="#000000" d="m973.30615 345.5606l2.8125 0l0 5.515625q0.84375 -0.71875 1.6875 -1.078125q0.84375 -0.359375 1.703125 -0.359375q1.6875 0 2.84375 1.171875q0.984375 1.0 0.984375 2.96875l0 7.484375l-2.796875 0l0 -4.96875q0 -1.96875 -0.1875 -2.65625q-0.1875 -0.703125 -0.640625 -1.046875q-0.453125 -0.34375 -1.125 -0.34375q-0.859375 0 -1.484375 0.578125q-0.609375 0.5625 -0.859375 1.546875q-0.125 0.515625 -0.125 2.34375l0 4.546875l-2.8125 0l0 -15.703125zm24.127075 10.859375l-9.125 0q0.203125 1.203125 1.0625 1.921875q0.859375 0.71875 2.1875 0.71875q1.59375 0 2.734375 -1.125l2.390625 1.125q-0.890625 1.28125 -2.140625 1.890625q-1.25 0.609375 -2.96875 0.609375q-2.65625 0 -4.34375 -1.6875q-1.671875 -1.6875 -1.671875 -4.21875q0 -2.59375 1.671875 -4.296875q1.671875 -1.71875 4.1875 -1.71875q2.6875 0 4.359375 1.71875q1.671875 1.703125 1.671875 4.515625l-0.015625 0.546875zm-2.84375 -2.234375q-0.28125 -0.953125 -1.109375 -1.546875q-0.828125 -0.59375 -1.921875 -0.59375q-1.1875 0 -2.078125 0.671875q-0.5625 0.40625 -1.046875 1.46875l6.15625 0zm6.262329 -8.921875q0.75 0 1.28125 0.546875q0.546875 0.546875 0.546875 1.3125q0 0.765625 -0.53125 1.296875q-0.53125 0.53125 -1.265625 0.53125q-0.765625 0 -1.3125 -0.546875q-0.53125 -0.546875 -0.53125 -1.328125q0 -0.75 0.53125 -1.28125q0.53125 -0.53125 1.28125 -0.53125zm-1.421875 4.671875l2.859375 0l0 11.328125l-2.859375 0l0 -11.328125zm13.800842 0l2.828125 0l0 9.703125q0 2.875 -1.15625 4.234375q-1.546875 1.828125 -4.671875 1.828125q-1.671875 0 -2.8125 -0.421875q-1.125 -0.40625 -1.90625 -1.21875q-0.78125 -0.8125 -1.15625 -1.96875l3.140625 0q0.40625 0.484375 1.0625 0.71875q0.65625 0.25 1.5625 0.25q1.140625 0 1.828125 -0.359375q0.703125 -0.34375 0.984375 -0.90625q0.296875 -0.5625 0.296875 -1.9375q-0.75 0.75 -1.578125 1.078125q-0.8125 0.328125 -1.859375 0.328125q-2.28125 0 -3.859375 -1.640625q-1.5625 -1.65625 -1.5625 -4.171875q0 -2.703125 1.65625 -4.328125q1.515625 -1.484375 3.609375 -1.484375q0.984375 0 1.84375 0.359375q0.875 0.359375 1.75 1.1875l0 -1.25zm-2.953125 2.359375q-1.34375 0 -2.21875 0.90625q-0.875 0.890625 -0.875 2.265625q0 1.40625 0.890625 2.3125q0.90625 0.90625 2.265625 0.90625q1.3125 0 2.171875 -0.875q0.859375 -0.890625 0.859375 -2.328125q0 -1.421875 -0.859375 -2.296875q-0.859375 -0.890625 -2.234375 -0.890625zm8.673645 -6.734375l2.8125 0l0 5.515625q0.84375 -0.71875 1.6875 -1.078125q0.84375 -0.359375 1.703125 -0.359375q1.6875 0 2.84375 1.171875q0.984375 1.0 0.984375 2.96875l0 7.484375l-2.796875 0l0 -4.96875q0 -1.96875 -0.1875 -2.65625q-0.1875 -0.703125 -0.640625 -1.046875q-0.453125 -0.34375 -1.125 -0.34375q-0.859375 0 -1.484375 0.578125q-0.609375 0.5625 -0.859375 1.546875q-0.125 0.515625 -0.125 2.34375l0 4.546875l-2.8125 0l0 -15.703125zm13.127075 0.203125l2.828125 0l0 4.171875l1.6875 0l0 2.4375l-1.6875 0l0 8.890625l-2.828125 0l0 -8.890625l-1.453125 0l0 -2.4375l1.453125 0l0 -4.171875z" fill-rule="nonzero"/><path fill="#000000" d="m1068.4312 356.82623l0 -6.96875l1.390625 0l0 2.796875l8.28125 0l-1.65625 -2.171875l0.71875 -0.71875l5.046875 3.375l0 0.421875l-5.046875 3.359375l-0.71875 -0.71875l1.65625 -2.15625l-8.28125 0l0 2.78125l-1.390625 0z" fill-rule="nonzero"/><path fill="#000000" d="m1088.5 349.9356l1.015625 0q0.015625 -2.234375 0.078125 -2.640625q0.109375 -0.9375 0.78125 -1.484375q0.671875 -0.546875 1.90625 -0.546875q0.875 0 2.0 0.40625l0 2.171875q-0.625 -0.171875 -1.015625 -0.171875q-0.5 0 -0.734375 0.203125q-0.15625 0.15625 -0.15625 0.640625l-0.015625 1.421875l1.796875 0l0 2.40625l-1.796875 0l0 8.921875l-2.84375 0l0 -8.921875l-1.015625 0l0 -2.40625zm6.654785 0l2.4375 0l0 1.421875q0.40625 -0.84375 1.0625 -1.28125q0.65625 -0.4375 1.4375 -0.4375q0.546875 0 1.15625 0.296875l-0.890625 2.4375q-0.5 -0.25 -0.828125 -0.25q-0.65625 0 -1.109375 0.8125q-0.453125 0.8125 -0.453125 3.1875l0.015625 0.5625l0 4.578125l-2.828125 0l0 -11.328125zm18.836914 6.484375l-9.125 0q0.203125 1.203125 1.0625 1.921875q0.859375 0.71875 2.1875 0.71875q1.59375 0 2.734375 -1.125l2.390625 1.125q-0.890625 1.28125 -2.140625 1.890625q-1.25 0.609375 -2.96875 0.609375q-2.65625 0 -4.34375 -1.6875q-1.671875 -1.6875 -1.671875 -4.21875q0 -2.59375 1.671875 -4.296875q1.671875 -1.71875 4.1875 -1.71875q2.6875 0 4.359375 1.71875q1.671875 1.703125 1.671875 4.515625l-0.015625 0.546875zm-2.84375 -2.234375q-0.28125 -0.953125 -1.109375 -1.546875q-0.828125 -0.59375 -1.921875 -0.59375q-1.1875 0 -2.078125 0.671875q-0.5625 0.40625 -1.046875 1.46875l6.15625 0zm13.527954 -4.25l2.828125 0l0 15.46875l-2.828125 0l0 -5.34375q-0.828125 0.796875 -1.671875 1.15625q-0.84375 0.34375 -1.8125 0.34375q-2.203125 0 -3.8125 -1.703125q-1.59375 -1.703125 -1.59375 -4.234375q0 -2.625 1.546875 -4.296875q1.546875 -1.6875 3.765625 -1.6875q1.03125 0 1.921875 0.390625q0.890625 0.390625 1.65625 1.15625l0 -1.25zm-2.984375 2.328125q-1.328125 0 -2.203125 0.9375q-0.875 0.921875 -0.875 2.390625q0 1.46875 0.890625 2.421875q0.890625 0.9375 2.1875 0.9375q1.34375 0 2.234375 -0.921875q0.890625 -0.9375 0.890625 -2.453125q0 -1.484375 -0.890625 -2.390625q-0.890625 -0.921875 -2.234375 -0.921875zm8.673584 -2.328125l2.875 0l0 5.453125q0 1.59375 0.21875 2.21875q0.21875 0.609375 0.703125 0.953125q0.484375 0.34375 1.203125 0.34375q0.703125 0 1.1875 -0.328125q0.5 -0.34375 0.75 -1.0q0.171875 -0.484375 0.171875 -2.09375l0 -5.546875l2.84375 0l0 4.796875q0 2.96875 -0.46875 4.0625q-0.5625 1.328125 -1.6875 2.046875q-1.109375 0.71875 -2.828125 0.71875q-1.859375 0 -3.015625 -0.828125q-1.140625 -0.84375 -1.609375 -2.328125q-0.34375 -1.03125 -0.34375 -3.75l0 -4.71875zm24.158325 6.484375l-9.125 0q0.203125 1.203125 1.0625 1.921875q0.859375 0.71875 2.1875 0.71875q1.59375 0 2.734375 -1.125l2.390625 1.125q-0.890625 1.28125 -2.140625 1.890625q-1.25 0.609375 -2.96875 0.609375q-2.65625 0 -4.34375 -1.6875q-1.671875 -1.6875 -1.671875 -4.21875q0 -2.59375 1.671875 -4.296875q1.671875 -1.71875 4.1875 -1.71875q2.6875 0 4.359375 1.71875q1.671875 1.703125 1.671875 4.515625l-0.015625 0.546875zm-2.84375 -2.234375q-0.28125 -0.953125 -1.109375 -1.546875q-0.828125 -0.59375 -1.921875 -0.59375q-1.1875 0 -2.078125 0.671875q-0.5625 0.40625 -1.046875 1.46875l6.15625 0zm5.152954 -4.25l2.828125 0l0 1.15625q0.96875 -0.8125 1.75 -1.125q0.796875 -0.328125 1.625 -0.328125q1.6875 0 2.859375 1.171875q0.984375 1.0 0.984375 2.96875l0 7.484375l-2.8125 0l0 -4.96875q0 -2.03125 -0.1875 -2.6875q-0.171875 -0.671875 -0.625 -1.015625q-0.453125 -0.359375 -1.125 -0.359375q-0.859375 0 -1.484375 0.578125q-0.609375 0.578125 -0.859375 1.59375q-0.125 0.53125 -0.125 2.3125l0 4.546875l-2.828125 0l0 -11.328125zm23.8927 2.28125l-2.359375 1.3125q-0.671875 -0.703125 -1.328125 -0.96875q-0.640625 -0.28125 -1.515625 -0.28125q-1.59375 0 -2.578125 0.953125q-0.984375 0.953125 -0.984375 2.453125q0 1.4375 0.9375 2.359375q0.953125 0.921875 2.5 0.921875q1.90625 0 2.96875 -1.3125l2.234375 1.53125q-1.828125 2.375 -5.140625 2.375q-3.0 0 -4.6875 -1.765625q-1.6875 -1.78125 -1.6875 -4.15625q0 -1.640625 0.8125 -3.03125q0.828125 -1.390625 2.296875 -2.171875q1.484375 -0.796875 3.296875 -0.796875q1.6875 0 3.03125 0.671875q1.34375 0.671875 2.203125 1.90625zm1.2935791 -2.28125l2.90625 0l2.953125 7.109375l3.25 -7.109375l2.90625 0l-7.09375 15.46875l-2.9375 0l2.328125 -4.984375l-4.3125 -10.484375z" fill-rule="nonzero"/><path fill="#000000" fill-opacity="0.0" d="m964.07874 323.3729l0 0c0 -5.5809326 4.524231 -10.105164 10.105164 -10.105164l77.89984 0c2.6800537 0 5.250366 1.0646362 7.145508 2.9597168c1.8950195 1.8951111 2.9597168 4.465393 2.9597168 7.145447l0 40.419556c0 5.5809326 -4.524292 10.105194 -10.105225 10.105194l-77.89984 0c-5.5809326 0 -10.105164 -4.5242615 -10.105164 -10.105194z" fill-rule="evenodd"/><path stroke="#ffab40" stroke-width="3.0" stroke-linejoin="round" stroke-linecap="butt" d="m964.07874 323.3729l0 0c0 -5.5809326 4.524231 -10.105164 10.105164 -10.105164l77.89984 0c2.6800537 0 5.250366 1.0646362 7.145508 2.9597168c1.8950195 1.8951111 2.9597168 4.465393 2.9597168 7.145447l0 40.419556c0 5.5809326 -4.524292 10.105194 -10.105225 10.105194l-77.89984 0c-5.5809326 0 -10.105164 -4.5242615 -10.105164 -10.105194z" fill-rule="evenodd"/><path fill="#000000" fill-opacity="0.0" d="m1082.8556 323.3729l0 0c0 -5.5809326 4.524292 -10.105164 10.105225 -10.105164l100.07312 0c2.6800537 0 5.250366 1.0646362 7.1453857 2.9597168c1.8951416 1.8951111 2.9598389 4.465393 2.9598389 7.145447l0 40.419556c0 5.5809326 -4.524292 10.105194 -10.105225 10.105194l-100.07312 0c-5.5809326 0 -10.105225 -4.5242615 -10.105225 -10.105194z" fill-rule="evenodd"/><path stroke="#669900" stroke-width="3.0" stroke-linejoin="round" stroke-linecap="butt" d="m1082.8556 323.3729l0 0c0 -5.5809326 4.524292 -10.105164 10.105225 -10.105164l100.07312 0c2.6800537 0 5.250366 1.0646362 7.1453857 2.9597168c1.8951416 1.8951111 2.9598389 4.465393 2.9598389 7.145447l0 40.419556c0 5.5809326 -4.524292 10.105194 -10.105225 10.105194l-100.07312 0c-5.5809326 0 -10.105225 -4.5242615 -10.105225 -10.105194z" fill-rule="evenodd"/><path fill="#000000" fill-opacity="0.0" d="m949.7323 378.73752l126.8031 0l0 24.75592l-126.8031 0z" fill-rule="evenodd"/><path fill="#ffab40" d="m972.2939 384.42923l2.59375 0l5.15625 13.40625l-2.65625 0l-1.046875 -2.765625l-5.46875 0l-1.09375 2.765625l-2.640625 0l5.15625 -13.40625zm1.3125 3.5625l-1.78125 4.59375l3.5625 0l-1.78125 -4.59375zm18.066528 5.609375l-7.984375 0q0.171875 1.0625 0.921875 1.6875q0.75 0.609375 1.921875 0.609375q1.390625 0 2.390625 -0.96875l2.09375 0.984375q-0.78125 1.109375 -1.875 1.640625q-1.09375 0.53125 -2.59375 0.53125q-2.34375 0 -3.8125 -1.46875q-1.453125 -1.46875 -1.453125 -3.6875q0 -2.265625 1.453125 -3.765625q1.46875 -1.5 3.671875 -1.5q2.34375 0 3.8125 1.5q1.46875 1.5 1.46875 3.96875l-0.015625 0.46875zm-2.5 -1.953125q-0.25 -0.828125 -0.96875 -1.34375q-0.71875 -0.53125 -1.671875 -0.53125q-1.046875 0 -1.828125 0.578125q-0.5 0.375 -0.90625 1.296875l5.375 0zm10.583191 -2.34375l-1.546875 1.546875q-0.9375 -0.9375 -1.703125 -0.9375q-0.421875 0 -0.65625 0.1875q-0.234375 0.171875 -0.234375 0.4375q0 0.203125 0.140625 0.375q0.15625 0.15625 0.75 0.453125l0.90625 0.453125q1.453125 0.71875 1.984375 1.453125q0.53125 0.734375 0.53125 1.734375q0 1.3125 -0.96875 2.203125q-0.96875 0.875 -2.59375 0.875q-2.171875 0 -3.46875 -1.6875l1.53125 -1.671875q0.4375 0.515625 1.015625 0.828125q0.59375 0.3125 1.0625 0.3125q0.484375 0 0.78125 -0.234375q0.3125 -0.234375 0.3125 -0.546875q0 -0.578125 -1.09375 -1.125l-0.828125 -0.421875q-2.40625 -1.203125 -2.40625 -3.03125q0 -1.171875 0.90625 -2.0q0.90625 -0.84375 2.3125 -0.84375q0.96875 0 1.8125 0.4375q0.859375 0.421875 1.453125 1.203125zm2.4420166 -5.03125l2.46875 0l0 3.65625l1.484375 0l0 2.140625l-1.484375 0l0 7.765625l-2.46875 0l0 -7.765625l-1.28125 0l0 -2.140625l1.28125 0l0 -3.65625zm5.2963867 -0.171875l2.46875 0l0 4.828125q0.734375 -0.625 1.46875 -0.9375q0.734375 -0.328125 1.5 -0.328125q1.46875 0 2.484375 1.03125q0.859375 0.875 0.859375 2.59375l0 6.546875l-2.453125 0l0 -4.34375q0 -1.71875 -0.171875 -2.328125q-0.15625 -0.609375 -0.546875 -0.90625q-0.390625 -0.3125 -0.984375 -0.3125q-0.75 0 -1.296875 0.5q-0.546875 0.5 -0.75 1.375q-0.109375 0.4375 -0.109375 2.03125l0 3.984375l-2.46875 0l0 -13.734375zm21.117432 9.5l-7.984375 0q0.171875 1.0625 0.921875 1.6875q0.75 0.609375 1.921875 0.609375q1.390625 0 2.390625 -0.96875l2.09375 0.984375q-0.78125 1.109375 -1.875 1.640625q-1.09375 0.53125 -2.59375 0.53125q-2.34375 0 -3.8125 -1.46875q-1.453125 -1.46875 -1.453125 -3.6875q0 -2.265625 1.453125 -3.765625q1.46875 -1.5 3.671875 -1.5q2.34375 0 3.8125 1.5q1.46875 1.5 1.46875 3.96875l-0.015625 0.46875zm-2.5 -1.953125q-0.25 -0.828125 -0.96875 -1.34375q-0.71875 -0.53125 -1.671875 -0.53125q-1.046875 0 -1.828125 0.578125q-0.5 0.375 -0.90625 1.296875l5.375 0zm4.817505 -7.375l2.46875 0l0 3.65625l1.484375 0l0 2.140625l-1.484375 0l0 7.765625l-2.46875 0l0 -7.765625l-1.28125 0l0 -2.140625l1.28125 0l0 -3.65625zm6.2651367 -0.4375q0.65625 0 1.125 0.484375q0.46875 0.46875 0.46875 1.140625q0 0.671875 -0.46875 1.140625q-0.46875 0.46875 -1.109375 0.46875q-0.671875 0 -1.140625 -0.46875q-0.46875 -0.484375 -0.46875 -1.171875q0 -0.65625 0.46875 -1.125q0.46875 -0.46875 1.125 -0.46875zm-1.25 4.09375l2.5 0l0 9.90625l-2.5 0l0 -9.90625zm14.441528 2.0l-2.0625 1.140625q-0.578125 -0.609375 -1.15625 -0.84375q-0.5625 -0.25 -1.328125 -0.25q-1.390625 0 -2.265625 0.84375q-0.859375 0.828125 -0.859375 2.140625q0 1.265625 0.828125 2.0625q0.84375 0.796875 2.1875 0.796875q1.671875 0 2.59375 -1.140625l1.953125 1.34375q-1.59375 2.0625 -4.5 2.0625q-2.609375 0 -4.09375 -1.546875q-1.46875 -1.546875 -1.46875 -3.625q0 -1.4375 0.71875 -2.640625q0.71875 -1.21875 2.0 -1.90625q1.296875 -0.703125 2.890625 -0.703125q1.46875 0 2.640625 0.59375q1.1875 0.59375 1.921875 1.671875zm8.317505 -0.625l-1.546875 1.546875q-0.9375 -0.9375 -1.703125 -0.9375q-0.421875 0 -0.65625 0.1875q-0.234375 0.171875 -0.234375 0.4375q0 0.203125 0.140625 0.375q0.15625 0.15625 0.75 0.453125l0.90625 0.453125q1.453125 0.71875 1.984375 1.453125q0.53125 0.734375 0.53125 1.734375q0 1.3125 -0.96875 2.203125q-0.96875 0.875 -2.59375 0.875q-2.171875 0 -3.46875 -1.6875l1.53125 -1.671875q0.4375 0.515625 1.015625 0.828125q0.59375 0.3125 1.0625 0.3125q0.484375 0 0.78125 -0.234375q0.3125 -0.234375 0.3125 -0.546875q0 -0.578125 -1.09375 -1.125l-0.828125 -0.421875q-2.40625 -1.203125 -2.40625 -3.03125q0 -1.171875 0.90625 -2.0q0.90625 -0.84375 2.3125 -0.84375q0.96875 0 1.8125 0.4375q0.859375 0.421875 1.453125 1.203125z" fill-rule="nonzero"/><path fill="#000000" fill-opacity="0.0" d="m1079.5958 378.73752l126.8031 0l0 24.75592l-126.8031 0z" fill-rule="evenodd"/><path fill="#669900" d="m1098.106 384.42923l6.65625 0l0 2.5l-4.125 0l0 2.421875l4.125 0l0 2.453125l-4.125 0l0 6.03125l-2.53125 0l0 -13.40625zm8.064087 3.5l2.140625 0l0 1.25q0.34375 -0.75 0.90625 -1.125q0.578125 -0.390625 1.265625 -0.390625q0.484375 0 1.015625 0.265625l-0.78125 2.140625q-0.4375 -0.21875 -0.71875 -0.21875q-0.578125 0 -0.96875 0.71875q-0.390625 0.703125 -0.390625 2.78125l0 0.46875l0 4.015625l-2.46875 0l0 -9.90625zm11.20105 -0.265625q1.40625 0 2.640625 0.703125q1.234375 0.703125 1.921875 1.90625q0.703125 1.203125 0.703125 2.59375q0 1.40625 -0.703125 2.625q-0.6875 1.21875 -1.890625 1.90625q-1.203125 0.6875 -2.65625 0.6875q-2.125 0 -3.640625 -1.515625q-1.5 -1.515625 -1.5 -3.6875q0 -2.3125 1.703125 -3.859375q1.484375 -1.359375 3.421875 -1.359375zm0.046875 2.34375q-1.15625 0 -1.9375 0.8125q-0.765625 0.796875 -0.765625 2.0625q0 1.296875 0.75 2.09375q0.765625 0.796875 1.9375 0.796875q1.171875 0 1.9375 -0.8125q0.78125 -0.8125 0.78125 -2.078125q0 -1.28125 -0.765625 -2.078125q-0.765625 -0.796875 -1.9375 -0.796875zm7.223755 -2.078125l2.5 0l0 1.140625q0.640625 -0.703125 1.421875 -1.046875q0.78125 -0.359375 1.6875 -0.359375q0.9375 0 1.6875 0.46875q0.75 0.453125 1.203125 1.328125q0.59375 -0.875 1.453125 -1.328125q0.859375 -0.46875 1.875 -0.46875q1.0625 0 1.859375 0.5q0.796875 0.484375 1.140625 1.28125q0.359375 0.796875 0.359375 2.578125l0 5.8125l-2.5 0l0 -5.03125q0 -1.6875 -0.421875 -2.28125q-0.421875 -0.59375 -1.25 -0.59375q-0.640625 0 -1.15625 0.375q-0.5 0.359375 -0.75 1.0q-0.234375 0.640625 -0.234375 2.0625l0 4.46875l-2.515625 0l0 -4.796875q0 -1.328125 -0.203125 -1.921875q-0.1875 -0.609375 -0.578125 -0.890625q-0.390625 -0.296875 -0.953125 -0.296875q-0.609375 0 -1.125 0.375q-0.5 0.359375 -0.75 1.03125q-0.25 0.65625 -0.25 2.09375l0 4.40625l-2.5 0l0 -9.90625zm23.068115 -3.5l3.015625 0q2.921875 0 4.34375 0.734375q1.421875 0.71875 2.34375 2.359375q0.921875 1.625 0.921875 3.796875q0 1.546875 -0.515625 2.84375q-0.515625 1.296875 -1.421875 2.15625q-0.90625 0.859375 -1.96875 1.1875q-1.046875 0.328125 -3.65625 0.328125l-3.0625 0l0 -13.40625zm2.53125 2.46875l0 8.4375l1.1875 0q1.75 0 2.53125 -0.390625q0.796875 -0.40625 1.296875 -1.34375q0.5 -0.953125 0.5 -2.34375q0 -2.125 -1.1875 -3.3125q-1.078125 -1.046875 -3.453125 -1.046875l-0.875 0zm17.562988 1.03125l2.484375 0l0 9.90625l-2.484375 0l0 -1.046875q-0.71875 0.6875 -1.453125 1.0q-0.734375 0.296875 -1.59375 0.296875q-1.921875 0 -3.328125 -1.484375q-1.40625 -1.484375 -1.40625 -3.703125q0 -2.296875 1.359375 -3.765625q1.359375 -1.46875 3.296875 -1.46875q0.890625 0 1.671875 0.34375q0.796875 0.34375 1.453125 1.015625l0 -1.09375zm-2.609375 2.03125q-1.15625 0 -1.921875 0.828125q-0.765625 0.8125 -0.765625 2.078125q0 1.28125 0.78125 2.125q0.78125 0.828125 1.90625 0.828125q1.1875 0 1.953125 -0.8125q0.78125 -0.828125 0.78125 -2.140625q0 -1.296875 -0.78125 -2.09375q-0.765625 -0.8125 -1.953125 -0.8125zm7.90979 -5.6875l2.46875 0l0 3.65625l1.484375 0l0 2.140625l-1.484375 0l0 7.765625l-2.46875 0l0 -7.765625l-1.28125 0l0 -2.140625l1.28125 0l0 -3.65625zm12.608887 3.65625l2.484375 0l0 9.90625l-2.484375 0l0 -1.046875q-0.71875 0.6875 -1.453125 1.0q-0.734375 0.296875 -1.59375 0.296875q-1.921875 0 -3.328125 -1.484375q-1.40625 -1.484375 -1.40625 -3.703125q0 -2.296875 1.359375 -3.765625q1.359375 -1.46875 3.296875 -1.46875q0.890625 0 1.671875 0.34375q0.796875 0.34375 1.453125 1.015625l0 -1.09375zm-2.609375 2.03125q-1.15625 0 -1.921875 0.828125q-0.765625 0.8125 -0.765625 2.078125q0 1.28125 0.78125 2.125q0.78125 0.828125 1.90625 0.828125q1.1875 0 1.953125 -0.8125q0.78125 -0.828125 0.78125 -2.140625q0 -1.296875 -0.78125 -2.09375q-0.765625 -0.8125 -1.953125 -0.8125z" fill-rule="nonzero"/></g></svg>