<svg version="1.1" viewBox="0.0 0.0 656.9763779527559 168.60367454068242" fill="none" stroke="none" stroke-linecap="square" stroke-miterlimit="10" xmlns:xlink="http://www.w3.org/1999/xlink" xmlns="http://www.w3.org/2000/svg"><clipPath id="p.0"><path d="m0 0l656.9764 0l0 168.60367l-656.9764 0l0 -168.60367z" clip-rule="nonzero"/></clipPath><g clip-path="url(#p.0)"><path fill="#000000" fill-opacity="0.0" d="m0 0l656.9764 0l0 168.60367l-656.9764 0z" fill-rule="evenodd"/><path fill="#000000" fill-opacity="0.0" d="m5.3228345 100.429436l646.33075 0" fill-rule="evenodd"/><path stroke="#000000" stroke-width="3.0" stroke-linejoin="round" stroke-linecap="butt" d="m5.3228345 100.429436l646.33075 0" fill-rule="evenodd"/><path fill="#cfe2f3" d="m39.043358 85.44901l0 0c0 -8.2799225 6.712204 -14.992119 14.992126 -14.992119l0 0c3.9761581 0 7.789463 1.5795212 10.601036 4.3910904c2.8115692 2.8115692 4.3910904 6.6248703 4.3910904 10.601028l0 0c0 8.27993 -6.712204 14.992126 -14.992126 14.992126l0 0c-8.2799225 0 -14.992126 -6.7121964 -14.992126 -14.992126z" fill-rule="evenodd"/><path stroke="#000000" stroke-width="2.0" stroke-linejoin="round" stroke-linecap="butt" d="m39.043358 85.44901l0 0c0 -8.2799225 6.712204 -14.992119 14.992126 -14.992119l0 0c3.9761581 0 7.789463 1.5795212 10.601036 4.3910904c2.8115692 2.8115692 4.3910904 6.6248703 4.3910904 10.601028l0 0c0 8.27993 -6.712204 14.992126 -14.992126 14.992126l0 0c-8.2799225 0 -14.992126 -6.7121964 -14.992126 -14.992126z" fill-rule="evenodd"/><path fill="#cfe2f3" d="m123.85292 85.44901l0 0c0 -8.2799225 6.712204 -14.992119 14.992126 -14.992119l0 0c3.9761505 0 7.789459 1.5795212 10.601028 4.3910904c2.8115692 2.8115692 4.391098 6.6248703 4.391098 10.601028l0 0c0 8.27993 -6.712204 14.992126 -14.992126 14.992126l0 0c-8.2799225 0 -14.992126 -6.7121964 -14.992126 -14.992126z" fill-rule="evenodd"/><path stroke="#000000" stroke-width="2.0" stroke-linejoin="round" stroke-linecap="butt" d="m123.85292 85.44901l0 0c0 -8.2799225 6.712204 -14.992119 14.992126 -14.992119l0 0c3.9761505 0 7.789459 1.5795212 10.601028 4.3910904c2.8115692 2.8115692 4.391098 6.6248703 4.391098 10.601028l0 0c0 8.27993 -6.712204 14.992126 -14.992126 14.992126l0 0c-8.2799225 0 -14.992126 -6.7121964 -14.992126 -14.992126z" fill-rule="evenodd"/><path fill="#cfe2f3" d="m123.85292 55.809814l0 0c0 -8.2799225 6.712204 -14.992126 14.992126 -14.992126l0 0c3.9761505 0 7.789459 1.579525 10.601028 4.3910904c2.8115692 2.8115692 4.391098 6.624878 4.391098 10.601036l0 0c0 8.2799225 -6.712204 14.992126 -14.992126 14.992126l0 0c-8.2799225 0 -14.992126 -6.712204 -14.992126 -14.992126z" fill-rule="evenodd"/><path stroke="#000000" stroke-width="2.0" stroke-linejoin="round" stroke-linecap="butt" d="m123.85292 55.809814l0 0c0 -8.2799225 6.712204 -14.992126 14.992126 -14.992126l0 0c3.9761505 0 7.789459 1.579525 10.601028 4.3910904c2.8115692 2.8115692 4.391098 6.624878 4.391098 10.601036l0 0c0 8.2799225 -6.712204 14.992126 -14.992126 14.992126l0 0c-8.2799225 0 -14.992126 -6.712204 -14.992126 -14.992126z" fill-rule="evenodd"/><path fill="#cfe2f3" d="m209.31976 85.44901l0 0c0 -8.2799225 6.712204 -14.992119 14.992126 -14.992119l0 0c3.9761658 0 7.7894745 1.5795212 10.601044 4.3910904c2.8115692 2.8115692 4.391083 6.6248703 4.391083 10.601028l0 0c0 8.27993 -6.712204 14.992126 -14.992126 14.992126l0 0c-8.2799225 0 -14.992126 -6.7121964 -14.992126 -14.992126z" fill-rule="evenodd"/><path stroke="#000000" stroke-width="2.0" stroke-linejoin="round" stroke-linecap="butt" d="m209.31976 85.44901l0 0c0 -8.2799225 6.712204 -14.992119 14.992126 -14.992119l0 0c3.9761658 0 7.7894745 1.5795212 10.601044 4.3910904c2.8115692 2.8115692 4.391083 6.6248703 4.391083 10.601028l0 0c0 8.27993 -6.712204 14.992126 -14.992126 14.992126l0 0c-8.2799225 0 -14.992126 -6.7121964 -14.992126 -14.992126z" fill-rule="evenodd"/><path fill="#cfe2f3" d="m379.5962 85.44901l0 0c0 -8.2799225 6.7121887 -14.992119 14.992126 -14.992119l0 0c3.9761353 0 7.789459 1.5795212 10.601013 4.3910904c2.8115845 2.8115692 4.3911133 6.6248703 4.3911133 10.601028l0 0c0 8.27993 -6.712219 14.992126 -14.992126 14.992126l0 0c-8.279938 0 -14.992126 -6.7121964 -14.992126 -14.992126z" fill-rule="evenodd"/><path stroke="#000000" stroke-width="2.0" stroke-linejoin="round" stroke-linecap="butt" d="m379.5962 85.44901l0 0c0 -8.2799225 6.7121887 -14.992119 14.992126 -14.992119l0 0c3.9761353 0 7.789459 1.5795212 10.601013 4.3910904c2.8115845 2.8115692 4.3911133 6.6248703 4.3911133 10.601028l0 0c0 8.27993 -6.712219 14.992126 -14.992126 14.992126l0 0c-8.279938 0 -14.992126 -6.7121964 -14.992126 -14.992126z" fill-rule="evenodd"/><path fill="#cfe2f3" d="m379.5962 55.809814l0 0c0 -8.2799225 6.7121887 -14.992126 14.992126 -14.992126l0 0c3.9761353 0 7.789459 1.579525 10.601013 4.3910904c2.8115845 2.8115692 4.3911133 6.624878 4.3911133 10.601036l0 0c0 8.2799225 -6.712219 14.992126 -14.992126 14.992126l0 0c-8.279938 0 -14.992126 -6.712204 -14.992126 -14.992126z" fill-rule="evenodd"/><path stroke="#000000" stroke-width="2.0" stroke-linejoin="round" stroke-linecap="butt" d="m379.5962 55.809814l0 0c0 -8.2799225 6.7121887 -14.992126 14.992126 -14.992126l0 0c3.9761353 0 7.789459 1.579525 10.601013 4.3910904c2.8115845 2.8115692 4.3911133 6.624878 4.3911133 10.601036l0 0c0 8.2799225 -6.712219 14.992126 -14.992126 14.992126l0 0c-8.279938 0 -14.992126 -6.712204 -14.992126 -14.992126z" fill-rule="evenodd"/><path fill="#cfe2f3" d="m379.5962 25.83727l0 0c0 -8.2799225 6.7121887 -14.992126 14.992126 -14.992126l0 0c3.9761353 0 7.789459 1.5795231 10.601013 4.3910923c2.8115845 2.8115692 4.3911133 6.624874 4.3911133 10.601034l0 0c0 8.279921 -6.712219 14.992125 -14.992126 14.992125l0 0c-8.279938 0 -14.992126 -6.712204 -14.992126 -14.992125z" fill-rule="evenodd"/><path stroke="#000000" stroke-width="2.0" stroke-linejoin="round" stroke-linecap="butt" d="m379.5962 25.83727l0 0c0 -8.2799225 6.7121887 -14.992126 14.992126 -14.992126l0 0c3.9761353 0 7.789459 1.5795231 10.601013 4.3910923c2.8115845 2.8115692 4.3911133 6.624874 4.3911133 10.601034l0 0c0 8.279921 -6.712219 14.992125 -14.992126 14.992125l0 0c-8.279938 0 -14.992126 -6.712204 -14.992126 -14.992125z" fill-rule="evenodd"/><path fill="#cfe2f3" d="m549.8726 85.44901l0 0c0 -8.2799225 6.712158 -14.992119 14.992065 -14.992119l0 0c3.9761963 0 7.7894897 1.5795212 10.601074 4.3910904c2.8115845 2.8115692 4.3910522 6.6248703 4.3910522 10.601028l0 0c0 8.27993 -6.712158 14.992126 -14.992126 14.992126l0 0c-8.279907 0 -14.992065 -6.7121964 -14.992065 -14.992126z" fill-rule="evenodd"/><path stroke="#000000" stroke-width="2.0" stroke-linejoin="round" stroke-linecap="butt" d="m549.8726 85.44901l0 0c0 -8.2799225 6.712158 -14.992119 14.992065 -14.992119l0 0c3.9761963 0 7.7894897 1.5795212 10.601074 4.3910904c2.8115845 2.8115692 4.3910522 6.6248703 4.3910522 10.601028l0 0c0 8.27993 -6.712158 14.992126 -14.992126 14.992126l0 0c-8.279907 0 -14.992065 -6.7121964 -14.992065 -14.992126z" fill-rule="evenodd"/><path fill="#000000" fill-opacity="0.0" d="m32.761154 64.37533l42.551178 0l0 34.740158l-42.551178 0z" fill-rule="evenodd"/><path fill="#000000" d="m48.10706 80.72416l2.71875 -0.46875q0.75 1.171875 1.046875 2.5625q0.765625 -1.125 1.15625 -1.578125q0.53125 -0.609375 0.859375 -0.796875q0.34375 -0.1875 0.734375 -0.1875q0.421875 0 0.65625 0.234375q0.234375 0.234375 0.234375 0.640625q0 0.375 -0.234375 0.609375q-0.234375 0.234375 -0.578125 0.234375q-0.25 0 -0.578125 -0.078125q-0.3125 -0.09375 -0.4375 -0.09375q-0.328125 0 -0.625 0.234375q-0.40625 0.3125 -1.0 1.359375q0.65625 2.34375 1.0625 2.859375q0.234375 0.3125 0.46875 0.3125q0.203125 0 0.359375 -0.109375q0.21875 -0.15625 0.6875 -0.8125l0.28125 0.15625q-0.6875 1.109375 -1.34375 1.5625q-0.5 0.359375 -0.984375 0.359375q-0.5 0 -0.828125 -0.21875q-0.328125 -0.234375 -0.59375 -0.734375q-0.25 -0.5 -0.609375 -1.609375q-0.90625 1.15625 -1.4375 1.703125q-0.515625 0.53125 -0.859375 0.6875q-0.34375 0.171875 -0.734375 0.171875q-0.40625 0 -0.640625 -0.234375q-0.25 -0.234375 -0.25 -0.609375q0 -0.40625 0.265625 -0.65625q0.25 -0.265625 0.65625 -0.265625q0.21875 0 0.484375 0.125q0.390625 0.1875 0.5625 0.1875q0.21875 0 0.40625 -0.09375q0.234375 -0.109375 0.59375 -0.5q0.21875 -0.25 0.796875 -1.03125q-0.75 -2.78125 -1.171875 -3.328125q-0.265625 -0.359375 -0.671875 -0.359375q-0.203125 0 -0.515625 0.0625l0.0625 -0.296875z" fill-rule="nonzero"/><path fill="#000000" d="m58.841434 86.302284l0 5.765625q0 0.65625 0.046875 0.84375q0.0625 0.171875 0.25 0.296875q0.1875 0.109375 0.578125 0.109375l0.171875 0l0 0.1875l-3.71875 0l0 -0.1875l0.1875 0q0.453125 0 0.640625 -0.109375q0.203125 -0.109375 0.265625 -0.28125q0.0625 -0.1875 0.0625 -0.859375l0 -3.65625q0 -0.484375 -0.046875 -0.609375q-0.046875 -0.125 -0.171875 -0.203125q-0.125 -0.09375 -0.296875 -0.09375q-0.265625 0 -0.640625 0.171875l-0.09375 -0.1875l2.59375 -1.1875l0.171875 0z" fill-rule="nonzero"/><path fill="#000000" fill-opacity="0.0" d="m203.03674 64.37533l42.551178 0l0 34.740158l-42.551178 0z" fill-rule="evenodd"/><path fill="#000000" d="m218.38264 80.72416l2.71875 -0.46875q0.75 1.171875 1.046875 2.5625q0.765625 -1.125 1.15625 -1.578125q0.53125 -0.609375 0.859375 -0.796875q0.34375 -0.1875 0.734375 -0.1875q0.421875 0 0.65625 0.234375q0.234375 0.234375 0.234375 0.640625q0 0.375 -0.234375 0.609375q-0.234375 0.234375 -0.578125 0.234375q-0.25 0 -0.578125 -0.078125q-0.3125 -0.09375 -0.4375 -0.09375q-0.328125 0 -0.625 0.234375q-0.40625 0.3125 -1.0 1.359375q0.65625 2.34375 1.0625 2.859375q0.234375 0.3125 0.46875 0.3125q0.203125 0 0.359375 -0.109375q0.21875 -0.15625 0.6875 -0.8125l0.28125 0.15625q-0.6875 1.109375 -1.34375 1.5625q-0.5 0.359375 -0.984375 0.359375q-0.5 0 -0.828125 -0.21875q-0.328125 -0.234375 -0.59375 -0.734375q-0.25 -0.5 -0.609375 -1.609375q-0.90625 1.15625 -1.4375 1.703125q-0.515625 0.53125 -0.859375 0.6875q-0.34375 0.171875 -0.734375 0.171875q-0.40625 0 -0.640625 -0.234375q-0.25 -0.234375 -0.25 -0.609375q0 -0.40625 0.265625 -0.65625q0.25 -0.265625 0.65625 -0.265625q0.21875 0 0.484375 0.125q0.390625 0.1875 0.5625 0.1875q0.21875 0 0.40625 -0.09375q0.234375 -0.109375 0.59375 -0.5q0.21875 -0.25 0.796875 -1.03125q-0.75 -2.78125 -1.171875 -3.328125q-0.265625 -0.359375 -0.671875 -0.359375q-0.203125 0 -0.515625 0.0625l0.0625 -0.296875z" fill-rule="nonzero"/><path fill="#000000" d="m230.05452 93.50541l-4.140625 0l0 -0.109375q1.90625 -2.28125 2.3125 -3.0625q0.40625 -0.78125 0.40625 -1.53125q0 -0.546875 -0.34375 -0.90625q-0.328125 -0.375 -0.8125 -0.375q-0.8125 0 -1.25 0.8125l-0.1875 -0.078125q0.28125 -1.0 0.84375 -1.46875q0.578125 -0.484375 1.328125 -0.484375q0.53125 0 0.96875 0.25q0.453125 0.25 0.703125 0.6875q0.25 0.4375 0.25 0.8125q0 0.6875 -0.390625 1.40625q-0.53125 0.96875 -2.296875 2.6875l1.53125 0q0.5625 0 0.71875 -0.046875q0.171875 -0.046875 0.28125 -0.15625q0.109375 -0.125 0.296875 -0.484375l0.1875 0l-0.40625 2.046875z" fill-rule="nonzero"/><path fill="#000000" fill-opacity="0.0" d="m117.89764 65.69029l42.551186 0l0 34.74015l-42.551186 0z" fill-rule="evenodd"/><path fill="#000000" d="m133.24355 82.039116l2.71875 -0.46875q0.75 1.171875 1.046875 2.5625q0.765625 -1.125 1.15625 -1.578125q0.53125 -0.609375 0.859375 -0.796875q0.34375 -0.1875 0.734375 -0.1875q0.421875 0 0.65625 0.234375q0.234375 0.234375 0.234375 0.640625q0 0.375 -0.234375 0.609375q-0.234375 0.234375 -0.578125 0.234375q-0.25 0 -0.578125 -0.078125q-0.3125 -0.09375 -0.4375 -0.09375q-0.328125 0 -0.625 0.234375q-0.40625 0.3125 -1.0 1.359375q0.65625 2.34375 1.0625 2.859375q0.234375 0.3125 0.46875 0.3125q0.203125 0 0.359375 -0.109375q0.21875 -0.15625 0.6875 -0.8125l0.28125 0.15625q-0.6875 1.109375 -1.34375 1.5625q-0.5 0.359375 -0.984375 0.359375q-0.5 0 -0.828125 -0.21875q-0.328125 -0.234375 -0.59375 -0.734375q-0.25 -0.5 -0.609375 -1.609375q-0.90625 1.15625 -1.4375 1.703125q-0.515625 0.53125 -0.859375 0.6875q-0.34375 0.171875 -0.734375 0.171875q-0.40625 0 -0.640625 -0.234375q-0.25 -0.234375 -0.25 -0.609375q0 -0.40625 0.265625 -0.65625q0.25 -0.265625 0.65625 -0.265625q0.21875 0 0.484375 0.125q0.390625 0.1875 0.5625 0.1875q0.21875 0 0.40625 -0.09375q0.234375 -0.109375 0.59375 -0.5q0.21875 -0.25 0.796875 -1.03125q-0.75 -2.78125 -1.171875 -3.328125q-0.265625 -0.359375 -0.671875 -0.359375q-0.203125 0 -0.515625 0.0625l0.0625 -0.296875z" fill-rule="nonzero"/><path fill="#000000" d="m142.0873 91.289116l0 -0.1875q0.59375 -0.171875 0.8125 -0.3125q0.234375 -0.15625 0.390625 -0.453125q0.171875 -0.3125 0.171875 -0.625q0 -0.4375 -0.3125 -0.734375q-0.3125 -0.3125 -0.78125 -0.3125q-0.71875 0 -1.234375 0.765625l-0.1875 -0.0625q0.375 -0.875 0.953125 -1.3125q0.59375 -0.4375 1.296875 -0.4375q0.734375 0 1.203125 0.453125q0.484375 0.4375 0.484375 1.046875q0 0.390625 -0.21875 0.75q-0.21875 0.359375 -0.6875 0.640625q0.609375 0.296875 0.921875 0.734375q0.328125 0.421875 0.328125 1.078125q0 1.109375 -0.8125 1.890625q-0.796875 0.765625 -2.125 0.765625q-0.90625 0 -1.3125 -0.296875q-0.296875 -0.21875 -0.296875 -0.546875q0 -0.234375 0.171875 -0.40625q0.171875 -0.171875 0.390625 -0.171875q0.171875 0 0.328125 0.078125q0.078125 0.046875 0.578125 0.46875q0.515625 0.40625 0.96875 0.40625q0.375 0 0.640625 -0.296875q0.28125 -0.3125 0.28125 -0.78125q0 -0.71875 -0.5 -1.3125q-0.484375 -0.609375 -1.453125 -0.828125z" fill-rule="nonzero"/><path fill="#000000" fill-opacity="0.0" d="m373.31235 65.69029l42.551178 0l0 34.74015l-42.551178 0z" fill-rule="evenodd"/><path fill="#000000" d="m388.65823 82.039116l2.71875 -0.46875q0.75 1.171875 1.046875 2.5625q0.765625 -1.125 1.15625 -1.578125q0.53125 -0.609375 0.859375 -0.796875q0.34375 -0.1875 0.734375 -0.1875q0.421875 0 0.65625 0.234375q0.234375 0.234375 0.234375 0.640625q0 0.375 -0.234375 0.609375q-0.234375 0.234375 -0.578125 0.234375q-0.25 0 -0.578125 -0.078125q-0.3125 -0.09375 -0.4375 -0.09375q-0.328125 0 -0.625 0.234375q-0.40625 0.3125 -1.0 1.359375q0.65625 2.34375 1.0625 2.859375q0.234375 0.3125 0.46875 0.3125q0.203125 0 0.359375 -0.109375q0.21875 -0.15625 0.6875 -0.8125l0.28125 0.15625q-0.6875 1.109375 -1.34375 1.5625q-0.5 0.359375 -0.984375 0.359375q-0.5 0 -0.828125 -0.21875q-0.328125 -0.234375 -0.59375 -0.734375q-0.25 -0.5 -0.609375 -1.609375q-0.90625 1.15625 -1.4375 1.703125q-0.515625 0.53125 -0.859375 0.6875q-0.34375 0.171875 -0.734375 0.171875q-0.40625 0 -0.640625 -0.234375q-0.25 -0.234375 -0.25 -0.609375q0 -0.40625 0.265625 -0.65625q0.25 -0.265625 0.65625 -0.265625q0.21875 0 0.484375 0.125q0.390625 0.1875 0.5625 0.1875q0.21875 0 0.40625 -0.09375q0.234375 -0.109375 0.59375 -0.5q0.21875 -0.25 0.796875 -1.03125q-0.75 -2.78125 -1.171875 -3.328125q-0.265625 -0.359375 -0.671875 -0.359375q-0.203125 0 -0.515625 0.0625l0.0625 -0.296875z" fill-rule="nonzero"/><path fill="#000000" d="m396.18948 92.164116l3.34375 -4.546875l0.640625 0l0 4.546875l0.640625 0l0 1.078125l-0.640625 0l0 1.578125l-1.4375 0l0 -1.578125l-2.546875 0l0 -1.078125zm0.5 0l2.046875 0l0 -2.78125l-2.046875 2.78125z" fill-rule="nonzero"/><path fill="#000000" fill-opacity="0.0" d="m117.89764 35.716534l42.551186 0l0 34.74016l-42.551186 0z" fill-rule="evenodd"/><path fill="#000000" d="m133.24355 52.065365l2.71875 -0.46875q0.75 1.171875 1.046875 2.5625q0.765625 -1.125 1.15625 -1.578125q0.53125 -0.609375 0.859375 -0.796875q0.34375 -0.1875 0.734375 -0.1875q0.421875 0 0.65625 0.234375q0.234375 0.234375 0.234375 0.640625q0 0.375 -0.234375 0.609375q-0.234375 0.234375 -0.578125 0.234375q-0.25 0 -0.578125 -0.078125q-0.3125 -0.09375 -0.4375 -0.09375q-0.328125 0 -0.625 0.234375q-0.40625 0.3125 -1.0 1.359375q0.65625 2.34375 1.0625 2.859375q0.234375 0.3125 0.46875 0.3125q0.203125 0 0.359375 -0.109375q0.21875 -0.15625 0.6875 -0.8125l0.28125 0.15625q-0.6875 1.109375 -1.34375 1.5625q-0.5 0.359375 -0.984375 0.359375q-0.5 0 -0.828125 -0.21875q-0.328125 -0.234375 -0.59375 -0.734375q-0.25 -0.5 -0.609375 -1.609375q-0.90625 1.15625 -1.4375 1.703125q-0.515625 0.53125 -0.859375 0.6875q-0.34375 0.171875 -0.734375 0.171875q-0.40625 0 -0.640625 -0.234375q-0.25 -0.234375 -0.25 -0.609375q0 -0.40625 0.265625 -0.65625q0.25 -0.265625 0.65625 -0.265625q0.21875 0 0.484375 0.125q0.390625 0.1875 0.5625 0.1875q0.21875 0 0.40625 -0.09375q0.234375 -0.109375 0.59375 -0.5q0.21875 -0.25 0.796875 -1.03125q-0.75 -2.78125 -1.171875 -3.328125q-0.265625 -0.359375 -0.671875 -0.359375q-0.203125 0 -0.515625 0.0625l0.0625 -0.296875z" fill-rule="nonzero"/><path fill="#000000" d="m142.13417 57.784115l3.296875 0l-0.515625 1.34375l-2.78125 0l-0.265625 0.703125q1.796875 0.078125 2.765625 0.90625q0.796875 0.671875 0.796875 1.6875q0 0.65625 -0.375 1.28125q-0.375 0.6093712 -1.046875 0.9531212q-0.671875 0.328125 -1.46875 0.328125q-0.859375 0 -1.328125 -0.3125q-0.3125 -0.234375 -0.3125 -0.53125q0 -0.21874619 0.15625 -0.3906212q0.171875 -0.171875 0.40625 -0.171875q0.203125 0 0.40625 0.09375q0.203125 0.078125 0.71875 0.4218712q0.3125 0.21875 0.546875 0.3125q0.15625 0.0625 0.359375 0.0625q0.421875 0 0.71875 -0.3125q0.296875 -0.3124962 0.296875 -0.7499962q0 -0.921875 -0.921875 -1.484375q-0.90625 -0.578125 -2.296875 -0.578125q-0.140625 0 -0.421875 0l1.265625 -3.5625z" fill-rule="nonzero"/><path fill="#000000" fill-opacity="0.0" d="m373.31235 36.062992l42.551178 0l0 34.740154l-42.551178 0z" fill-rule="evenodd"/><path fill="#000000" d="m388.65823 52.411823l2.71875 -0.46875q0.75 1.171875 1.046875 2.5625q0.765625 -1.125 1.15625 -1.578125q0.53125 -0.609375 0.859375 -0.796875q0.34375 -0.1875 0.734375 -0.1875q0.421875 0 0.65625 0.234375q0.234375 0.234375 0.234375 0.640625q0 0.375 -0.234375 0.609375q-0.234375 0.234375 -0.578125 0.234375q-0.25 0 -0.578125 -0.078125q-0.3125 -0.09375 -0.4375 -0.09375q-0.328125 0 -0.625 0.234375q-0.40625 0.3125 -1.0 1.359375q0.65625 2.34375 1.0625 2.859375q0.234375 0.3125 0.46875 0.3125q0.203125 0 0.359375 -0.109375q0.21875 -0.15625 0.6875 -0.8125l0.28125 0.15625q-0.6875 1.109375 -1.34375 1.5625q-0.5 0.359375 -0.984375 0.359375q-0.5 0 -0.828125 -0.21875q-0.328125 -0.234375 -0.59375 -0.734375q-0.25 -0.5 -0.609375 -1.609375q-0.90625 1.15625 -1.4375 1.703125q-0.515625 0.53125 -0.859375 0.6875q-0.34375 0.171875 -0.734375 0.171875q-0.40625 0 -0.640625 -0.234375q-0.25 -0.234375 -0.25 -0.609375q0 -0.40625 0.265625 -0.65625q0.25 -0.265625 0.65625 -0.265625q0.21875 0 0.484375 0.125q0.390625 0.1875 0.5625 0.1875q0.21875 0 0.40625 -0.09375q0.234375 -0.109375 0.59375 -0.5q0.21875 -0.25 0.796875 -1.03125q-0.75 -2.78125 -1.171875 -3.328125q-0.265625 -0.359375 -0.671875 -0.359375q-0.203125 0 -0.515625 0.0625l0.0625 -0.296875z" fill-rule="nonzero"/><path fill="#000000" d="m400.92386 57.98995l0 0.140625q-0.9375 0.25 -1.515625 0.625q-0.5625 0.375 -0.890625 0.921875q-0.328125 0.53125 -0.515625 1.328125q0.234375 -0.15625 0.390625 -0.203125q0.328125 -0.109375 0.671875 -0.109375q0.796875 0 1.3125 0.578125q0.53125 0.578125 0.53125 1.5625q0 0.703125 -0.28125 1.2968712q-0.28125 0.578125 -0.8125 0.890625q-0.53125 0.3125 -1.125 0.3125q-0.640625 0 -1.203125 -0.34375q-0.546875 -0.359375 -0.859375 -1.0468712q-0.3125 -0.6875 -0.3125 -1.5q0 -1.1875 0.5625 -2.203125q0.578125 -1.03125 1.625 -1.625q1.046875 -0.609375 2.421875 -0.625zm-2.984375 3.4375q-0.046875 0.71875 -0.046875 1.046875q0 0.71875 0.140625 1.390625q0.140625 0.6718712 0.375 0.9374962q0.171875 0.203125 0.40625 0.203125q0.234375 0 0.421875 -0.28125q0.1875 -0.28125 0.1875 -1.1406212q0 -1.421875 -0.34375 -1.96875q-0.21875 -0.359375 -0.59375 -0.359375q-0.21875 0 -0.546875 0.171875z" fill-rule="nonzero"/><path fill="#000000" fill-opacity="0.0" d="m543.58795 64.37533l42.551147 0l0 34.740158l-42.551147 0z" fill-rule="evenodd"/><path fill="#000000" d="m558.93384 80.72416l2.71875 -0.46875q0.75 1.171875 1.046875 2.5625q0.765625 -1.125 1.15625 -1.578125q0.53125 -0.609375 0.859375 -0.796875q0.34375 -0.1875 0.734375 -0.1875q0.421875 0 0.65625 0.234375q0.234375 0.234375 0.234375 0.640625q0 0.375 -0.234375 0.609375q-0.234375 0.234375 -0.578125 0.234375q-0.25 0 -0.578125 -0.078125q-0.3125 -0.09375 -0.4375 -0.09375q-0.328125 0 -0.625 0.234375q-0.40625 0.3125 -1.0 1.359375q0.65625 2.34375 1.0625 2.859375q0.234375 0.3125 0.46875 0.3125q0.203125 0 0.359375 -0.109375q0.21875 -0.15625 0.6875 -0.8125l0.28125 0.15625q-0.6875 1.109375 -1.34375 1.5625q-0.5 0.359375 -0.984375 0.359375q-0.5 0 -0.828125 -0.21875q-0.328125 -0.234375 -0.59375 -0.734375q-0.25 -0.5 -0.609375 -1.609375q-0.90625 1.15625 -1.4375 1.703125q-0.515625 0.53125 -0.859375 0.6875q-0.34375 0.171875 -0.734375 0.171875q-0.40625 0 -0.640625 -0.234375q-0.25 -0.234375 -0.25 -0.609375q0 -0.40625 0.265625 -0.65625q0.25 -0.265625 0.65625 -0.265625q0.21875 0 0.484375 0.125q0.390625 0.1875 0.5625 0.1875q0.21875 0 0.40625 -0.09375q0.234375 -0.109375 0.59375 -0.5q0.21875 -0.25 0.796875 -1.03125q-0.75 -2.78125 -1.171875 -3.328125q-0.265625 -0.359375 -0.671875 -0.359375q-0.203125 0 -0.515625 0.0625l0.0625 -0.296875z" fill-rule="nonzero"/><path fill="#000000" d="m568.0901 93.646034l1.921875 -5.8125l-1.46875 0q-0.859375 0 -1.28125 0.21875q-0.3125 0.15625 -0.5 0.59375l-0.203125 0l0.515625 -2.203125l4.203125 0l-2.375 7.203125l-0.8125 0z" fill-rule="nonzero"/><path fill="#000000" fill-opacity="0.0" d="m373.31235 6.0997376l42.551178 0l0 34.740154l-42.551178 0z" fill-rule="evenodd"/><path fill="#000000" d="m388.65823 22.448566l2.71875 -0.46875q0.75 1.171875 1.046875 2.5625q0.765625 -1.125 1.15625 -1.578125q0.53125 -0.609375 0.859375 -0.796875q0.34375 -0.1875 0.734375 -0.1875q0.421875 0 0.65625 0.234375q0.234375 0.234375 0.234375 0.640625q0 0.375 -0.234375 0.609375q-0.234375 0.234375 -0.578125 0.234375q-0.25 0 -0.578125 -0.078125q-0.3125 -0.09375 -0.4375 -0.09375q-0.328125 0 -0.625 0.234375q-0.40625 0.3125 -1.0 1.359375q0.65625 2.34375 1.0625 2.859375q0.234375 0.3125 0.46875 0.3125q0.203125 0 0.359375 -0.109375q0.21875 -0.15625 0.6875 -0.8125l0.28125 0.15625q-0.6875 1.109375 -1.34375 1.5625q-0.5 0.359375 -0.984375 0.359375q-0.5 0 -0.828125 -0.21875q-0.328125 -0.234375 -0.59375 -0.734375q-0.25 -0.5 -0.609375 -1.609375q-0.90625 1.15625 -1.4375 1.703125q-0.515625 0.53125 -0.859375 0.6875q-0.34375 0.171875 -0.734375 0.171875q-0.40625 0 -0.640625 -0.234375q-0.25 -0.234375 -0.25 -0.609375q0 -0.40625 0.265625 -0.65625q0.25 -0.265625 0.65625 -0.265625q0.21875 0 0.484375 0.125q0.390625 0.1875 0.5625 0.1875q0.21875 0 0.40625 -0.09375q0.234375 -0.109375 0.59375 -0.5q0.21875 -0.25 0.796875 -1.03125q-0.75 -2.78125 -1.171875 -3.328125q-0.265625 -0.359375 -0.671875 -0.359375q-0.203125 0 -0.515625 0.0625l0.0625 -0.296875z" fill-rule="nonzero"/><path fill="#000000" d="m399.54886 31.245441q0.75 0.546875 1.03125 1.015625q0.296875 0.46875 0.296875 1.078125q0 0.859375 -0.640625 1.453125q-0.640625 0.578125 -1.75 0.578125q-1.046875 0 -1.625 -0.515625q-0.5625 -0.515625 -0.5625 -1.25q0 -0.578125 0.328125 -1.0q0.328125 -0.421875 1.109375 -0.78125q-0.84375 -0.640625 -1.078125 -1.046875q-0.234375 -0.40625 -0.234375 -0.9375q0 -0.703125 0.59375 -1.234375q0.609375 -0.546875 1.640625 -0.546875q1.015625 0 1.5625 0.484375q0.546875 0.46875 0.546875 1.125q0 0.5 -0.296875 0.890625q-0.296875 0.375 -0.921875 0.6875zm-0.390625 -0.265625q0.1875 -0.265625 0.28125 -0.578125q0.09375 -0.328125 0.09375 -0.71875q0 -0.671875 -0.28125 -1.03125q-0.21875 -0.28125 -0.609375 -0.28125q-0.34375 0 -0.59375 0.265625q-0.234375 0.25 -0.234375 0.625q0 0.375 0.265625 0.78125q0.28125 0.40625 1.078125 0.9375zm-1.03125 1.09375q-0.171875 0.15625 -0.234375 0.265625q-0.109375 0.1875 -0.1875 0.53125q-0.078125 0.34375 -0.078125 0.734375q0 0.484375 0.125 0.8125q0.125 0.328125 0.34375 0.484375q0.234375 0.140625 0.484375 0.140625q0.375 0 0.625 -0.28125q0.265625 -0.28125 0.265625 -0.765625q0 -1.0 -1.34375 -1.921875z" fill-rule="nonzero"/><path fill="#9900ff" d="m274.8294 125.48294l11.196838 -22.771652l11.196838 22.771652z" fill-rule="evenodd"/><path fill="#000000" fill-opacity="0.0" d="m264.75067 127.76378l42.551178 0l0 34.740158l-42.551178 0z" fill-rule="evenodd"/><path fill="#000000" d="m277.70908 143.78261l3.640625 -0.625q0.984375 1.546875 1.390625 3.421875q1.015625 -1.515625 1.546875 -2.125q0.6875 -0.8125 1.140625 -1.046875q0.453125 -0.25 0.96875 -0.25q0.578125 0 0.875 0.3125q0.3125 0.3125 0.3125 0.84375q0 0.5 -0.3125 0.828125q-0.296875 0.3125 -0.765625 0.3125q-0.328125 0 -0.765625 -0.125q-0.421875 -0.125 -0.59375 -0.125q-0.4375 0 -0.828125 0.3125q-0.546875 0.4375 -1.34375 1.828125q0.890625 3.125 1.421875 3.8125q0.3125 0.40625 0.640625 0.40625q0.265625 0 0.46875 -0.140625q0.296875 -0.21875 0.921875 -1.09375l0.375 0.21875q-0.921875 1.484375 -1.796875 2.09375q-0.65625 0.46875 -1.3125 0.46875q-0.65625 0 -1.109375 -0.296875q-0.4375 -0.296875 -0.78125 -0.96875q-0.34375 -0.671875 -0.8125 -2.15625q-1.21875 1.546875 -1.921875 2.265625q-0.6875 0.71875 -1.140625 0.9375q-0.453125 0.21875 -0.984375 0.21875q-0.53125 0 -0.84375 -0.3125q-0.328125 -0.3125 -0.328125 -0.8125q0 -0.53125 0.34375 -0.875q0.34375 -0.34375 0.875 -0.34375q0.28125 0 0.640625 0.15625q0.515625 0.25 0.75 0.25q0.296875 0 0.53125 -0.125q0.3125 -0.15625 0.796875 -0.671875q0.296875 -0.328125 1.078125 -1.375q-1.0 -3.703125 -1.5625 -4.4375q-0.359375 -0.46875 -0.90625 -0.46875q-0.28125 0 -0.6875 0.078125l0.078125 -0.390625z" fill-rule="nonzero"/><path fill="#000000" d="m291.20126 154.37636l-0.859375 2.984375q0.859375 -1.3125 1.296875 -1.78125q0.625 -0.703125 1.078125 -0.953125q0.46875 -0.25 0.875 -0.25q0.359375 0 0.609375 0.265625q0.265625 0.265625 0.265625 0.703125q0 0.390625 -0.171875 0.9375l-0.890625 2.96875q-0.109375 0.390625 -0.109375 0.5q0 0.078125 0.046875 0.140625q0.0625 0.046875 0.109375 0.046875q0.078125 0 0.15625 -0.0625q0.234375 -0.1875 0.484375 -0.5625q0.0625 -0.09375 0.203125 -0.296875l0.265625 0.171875q-1.015625 1.703125 -2.140625 1.703125q-0.4375 0 -0.6875 -0.21875q-0.234375 -0.21875 -0.234375 -0.546875q0 -0.296875 0.171875 -0.875l0.859375 -2.96875q0.09375 -0.28125 0.09375 -0.421875q0 -0.078125 -0.0625 -0.140625q-0.0625 -0.0625 -0.140625 -0.0625q-0.265625 0 -0.640625 0.359375q-0.953125 0.921875 -1.859375 2.734375l-0.5625 2.0625l-1.765625 0l1.296875 -4.453125q0.1875 -0.65625 0.1875 -0.9375q0 -0.125 -0.0625 -0.203125q-0.046875 -0.078125 -0.171875 -0.125q-0.125 -0.046875 -0.484375 -0.046875l0.078125 -0.265625l2.34375 -0.40625l0.421875 0z" fill-rule="nonzero"/><path fill="#000000" fill-opacity="0.0" d="m276.25723 138.08923l12.976349 0" fill-rule="evenodd"/><path stroke="#000000" stroke-width="2.0" stroke-linejoin="round" stroke-linecap="butt" d="m276.25723 138.08923l12.976349 0" fill-rule="evenodd"/></g></svg>