<svg version="1.1" viewBox="0.0 0.0 867.1679790026246 170.26509186351706" fill="none" stroke="none" stroke-linecap="square" stroke-miterlimit="10" xmlns:xlink="http://www.w3.org/1999/xlink" xmlns="http://www.w3.org/2000/svg"><clipPath id="p.0"><path d="m0 0l867.16797 0l0 170.26509l-867.16797 0l0 -170.26509z" clip-rule="nonzero"/></clipPath><g clip-path="url(#p.0)"><path fill="#000000" fill-opacity="0.0" d="m0 0l867.16797 0l0 170.26509l-867.16797 0z" fill-rule="evenodd"/><path fill="#000000" fill-opacity="0.0" d="m13.039371 35.67372l0 0c0 -13.658085 11.072066 -24.730152 24.730152 -24.730152l242.76016 0c6.558838 0 12.84906 2.6054916 17.486847 7.243294c4.6378174 4.637804 7.2433167 10.928015 7.2433167 17.486858l0 98.91765c0 13.658081 -11.0720825 24.730148 -24.730164 24.730148l-242.76016 0c-13.658087 0 -24.730152 -11.072067 -24.730152 -24.730148z" fill-rule="evenodd"/><path stroke="#fa8b2f" stroke-width="4.0" stroke-linejoin="round" stroke-linecap="butt" d="m13.039371 35.67372l0 0c0 -13.658085 11.072066 -24.730152 24.730152 -24.730152l242.76016 0c6.558838 0 12.84906 2.6054916 17.486847 7.243294c4.6378174 4.637804 7.2433167 10.928015 7.2433167 17.486858l0 98.91765c0 13.658081 -11.0720825 24.730148 -24.730164 24.730148l-242.76016 0c-13.658087 0 -24.730152 -11.072067 -24.730152 -24.730148z" fill-rule="evenodd"/><path fill="#000000" fill-opacity="0.0" d="m348.59055 65.98294l171.05515 0l0 38.29921l-171.05515 0z" fill-rule="evenodd"/><path fill="#6aa84f" d="m380.6394 77.765045q-1.828125 0 -3.28125 -0.46875q-1.4375 -0.484375 -2.5 -1.453125q-1.0625 -0.984375 -1.75 -2.421875l2.953125 -2.71875q1.078125 2.234375 2.34375 3.109375q1.265625 0.859375 3.25 0.859375q1.203125 0 2.265625 -0.375q1.078125 -0.390625 1.796875 -1.0625q0.734375 -0.671875 0.90625 -1.546875q0.125 -0.578125 0.046875 -1.078125q-0.078125 -0.515625 -0.40625 -0.921875q-0.3125 -0.421875 -0.859375 -0.765625q-0.546875 -0.359375 -1.328125 -0.625q-0.765625 -0.28125 -1.8125 -0.46875q-1.640625 -0.359375 -2.796875 -0.9375q-1.15625 -0.578125 -1.84375 -1.4375q-0.6875 -0.859375 -0.875 -1.9687462q-0.171875 -1.109375 0.125 -2.484375q0.28125 -1.34375 1.109375 -2.484375q0.84375 -1.15625 2.0625 -2.0q1.234375 -0.859375 2.734375 -1.3125q1.5 -0.46875 3.140625 -0.46875q1.71875 0 3.0625 0.453125q1.359375 0.4375 2.28125 1.328125q0.9375 0.875 1.390625 2.15625l-2.9375 2.390625q-0.421875 -1.046875 -1.0625 -1.765625q-0.640625 -0.71875 -1.53125 -1.078125q-0.875 -0.375 -1.953125 -0.375q-1.25 0 -2.265625 0.390625q-1.015625 0.375 -1.6875 1.0625q-0.671875 0.6875 -0.875 1.609375q-0.140625 0.671875 0 1.234375q0.140625 0.5625 0.578125 1.0q0.4375 0.421875 1.25 0.765625q0.828125 0.3281212 2.015625 0.5937462q1.6875 0.375 2.9375 0.96875q1.25 0.59375 2.03125 1.390625q0.796875 0.796875 1.078125 1.796875q0.28125 0.984375 0.046875 2.140625q-0.46875 2.140625 -1.796875 3.71875q-1.3125 1.5625 -3.3125 2.40625q-2.0 0.84375 -4.53125 0.84375z" fill-rule="nonzero"/><path fill="#595959" d="m413.5831 58.20255q-2.546875 0 -3.890625 1.359375q-1.484375 1.46875 -1.484375 3.515625q0 2.1718712 1.484375 3.6406212q1.34375 1.359375 3.890625 1.359375l13.625 0l0 3.375l-13.625 0q-4.203125 0 -6.609375 -2.390625q-2.390625 -2.40625 -2.390625 -5.984371q0 -3.453125 2.390625 -5.859375q2.40625 -2.390625 6.609375 -2.390625l13.625 0l0 3.375l-13.625 0zm-8.75 14.624996l22.375 0l0 3.375l-22.375 0l0 -3.375z" fill-rule="nonzero"/><path fill="#fa8b2f" d="m448.93375 77.452545l4.0625 -19.078121l-6.265625 0l0.703125 -3.328125l16.1875 0l-0.703125 3.328125l-6.46875 0l-4.0625 19.078121l-3.453125 0z" fill-rule="nonzero"/><path fill="#fa8b2f" d="m462.0689 89.452545l3.171875 -14.9375l6.078125 0q1.21875 0 2.078125 0.609375q0.875 0.609375 1.234375 1.65625q0.375 1.046875 0.109375 2.328125q-0.28125 1.28125 -1.09375 2.328125q-0.8125 1.046875 -1.9375 1.671875q-1.125 0.625 -2.34375 0.625l-3.78125 0l-1.21875 5.71875l-2.296875 0zm3.984375 -7.9375l3.734375 0q0.578125 0 1.109375 -0.328125q0.546875 -0.328125 0.953125 -0.875q0.40625 -0.546875 0.546875 -1.203125q0.140625 -0.65625 -0.046875 -1.1875q-0.171875 -0.546875 -0.578125 -0.859375q-0.390625 -0.328125 -0.96875 -0.328125l-3.734375 0l-1.015625 4.78125z" fill-rule="nonzero"/><path fill="#595959" d="m481.0629 66.858795l0 -2.8749962l14.921875 0l0 2.8749962l-14.921875 0zm0 6.046875l0 -2.84375l14.921875 0l0 2.84375l-14.921875 0z" fill-rule="nonzero"/><path fill="#0097a7" d="m427.6267 115.85255l4.765625 -22.40625l3.453125 0l-4.765625 22.40625l-3.453125 0zm3.5625 -9.53125l0.703125 -3.328125l11.546875 0l-0.703125 3.328125l-11.546875 0zm2.03125 -9.546875l0.703125 -3.328125l12.984375 0l-0.703125 3.328125l-12.984375 0z" fill-rule="nonzero"/><path fill="#000000" fill-opacity="0.0" d="m4.3937006 32.744617l0 0c0 -14.466959 11.72779 -26.194748 26.194748 -26.194748l257.1223 0c6.947296 0 13.610016 2.7597961 18.522491 7.672265c4.9124756 4.912468 7.6722717 11.575205 7.6722717 18.522484l0 104.77586c0 14.466949 -11.727783 26.194748 -26.194763 26.194748l-257.1223 0c-14.466959 0 -26.194748 -11.727798 -26.194748 -26.194748z" fill-rule="evenodd"/><path stroke="#0097a7" stroke-width="4.0" stroke-linejoin="round" stroke-linecap="butt" d="m4.3937006 32.744617l0 0c0 -14.466959 11.72779 -26.194748 26.194748 -26.194748l257.1223 0c6.947296 0 13.610016 2.7597961 18.522491 7.672265c4.9124756 4.912468 7.6722717 11.575205 7.6722717 18.522484l0 104.77586c0 14.466949 -11.727783 26.194748 -26.194763 26.194748l-257.1223 0c-14.466959 0 -26.194748 -11.727798 -26.194748 -26.194748z" fill-rule="evenodd"/><path fill="#000000" fill-opacity="0.0" d="m81.49606 58.844093l0 0c0 -7.259571 5.885048 -13.144619 13.144623 -13.144619l129.01784 0c3.4861755 0 6.8295593 1.3848763 9.294662 3.8499718c2.465088 2.4650917 3.8499603 5.8084793 3.8499603 9.294647l0 52.576904c0 7.259575 -5.8850403 13.144623 -13.144623 13.144623l-129.01784 0c-7.259575 0 -13.144623 -5.885048 -13.144623 -13.144623z" fill-rule="evenodd"/><path stroke="#6aa84f" stroke-width="4.0" stroke-linejoin="round" stroke-linecap="butt" d="m81.49606 58.844093l0 0c0 -7.259571 5.885048 -13.144619 13.144623 -13.144619l129.01784 0c3.4861755 0 6.8295593 1.3848763 9.294662 3.8499718c2.465088 2.4650917 3.8499603 5.8084793 3.8499603 9.294647l0 52.576904c0 7.259575 -5.8850403 13.144623 -13.144623 13.144623l-129.01784 0c-7.259575 0 -13.144623 -5.885048 -13.144623 -13.144623z" fill-rule="evenodd"/><path fill="#000000" fill-opacity="0.0" d="m530.89764 26.124672l331.87402 0l0 118.015755l-331.87402 0z" fill-rule="evenodd"/><path fill="#595959" d="m541.72577 53.04467l0 -13.0625l8.234375 0l0 1.9375l-6.21875 0l0 9.1875l6.21875 0l0 1.9375l-8.234375 0zm0.921875 -5.734375l0 -1.9375l6.28125 0l0 1.9375l-6.28125 0zm10.048706 5.734375l0 -9.796875l1.921875 0l0 2.015625l-0.34375 0.21875q0.1875 -0.640625 0.734375 -1.1875q0.546875 -0.5625 1.28125 -0.90625q0.75 -0.34375 1.53125 -0.34375q1.125 0 1.859375 0.4375q0.75 0.4375 1.125 1.34375q0.375 0.890625 0.375 2.25l0 5.96875l-1.921875 0l0 -5.84375q0 -0.828125 -0.21875 -1.375q-0.21875 -0.5625 -0.6875 -0.8125q-0.46875 -0.25 -1.15625 -0.21875q-0.5625 0 -1.03125 0.1875q-0.46875 0.171875 -0.8125 0.5q-0.34375 0.3125 -0.546875 0.734375q-0.1875 0.40625 -0.1875 0.890625l0 5.9375l-0.953125 0q-0.234375 0 -0.484375 0q-0.25 0 -0.484375 0zm12.319214 0l0 -12.296875l1.921875 0l0 12.296875l-1.921875 0zm-2.046875 -7.921875l0 -1.875l6.234375 0l0 1.875l-6.234375 0zm8.304626 7.921875l0 -9.796875l1.921875 0l0 9.796875l-1.921875 0zm0.9375 -11.953125q-0.609375 0 -0.953125 -0.3125q-0.328125 -0.328125 -0.328125 -0.90625q0 -0.546875 0.34375 -0.875q0.34375 -0.34375 0.9375 -0.34375q0.609375 0 0.9375 0.328125q0.34375 0.3125 0.34375 0.890625q0 0.546875 -0.34375 0.890625q-0.34375 0.328125 -0.9375 0.328125zm3.9364014 11.953125l0 -9.796875l1.9375 0l0 3.078125l-0.1875 -0.75q0.203125 -0.703125 0.703125 -1.28125q0.5 -0.578125 1.140625 -0.90625q0.640625 -0.34375 1.328125 -0.34375q0.3125 0 0.59375 0.0625q0.296875 0.046875 0.46875 0.125l-0.5 2.09375q-0.21875 -0.09375 -0.5 -0.15625q-0.265625 -0.078125 -0.53125 -0.078125q-0.5 0 -0.953125 0.203125q-0.453125 0.1875 -0.8125 0.546875q-0.34375 0.34375 -0.546875 0.796875q-0.203125 0.453125 -0.203125 1.0l0 5.40625l-1.9375 0zm11.670288 0.1875q-1.5 0 -2.671875 -0.640625q-1.15625 -0.640625 -1.828125 -1.765625q-0.65625 -1.125 -0.65625 -2.578125q0 -1.15625 0.375 -2.109375q0.375 -0.953125 1.03125 -1.640625q0.65625 -0.703125 1.578125 -1.078125q0.9375 -0.390625 2.015625 -0.390625q0.953125 0 1.765625 0.359375q0.828125 0.359375 1.421875 1.0q0.609375 0.640625 0.9375 1.515625q0.328125 0.859375 0.3125 1.875l-0.015625 0.828125l-8.0 0l-0.4375 -1.53125l6.765625 0l-0.265625 0.3125l0 -0.4375q-0.0625 -0.625 -0.421875 -1.109375q-0.34375 -0.484375 -0.890625 -0.765625q-0.546875 -0.28125 -1.171875 -0.28125q-1.015625 0 -1.703125 0.390625q-0.6875 0.375 -1.046875 1.125q-0.34375 0.734375 -0.34375 1.8125q0 1.015625 0.421875 1.78125q0.421875 0.75 1.203125 1.171875q0.796875 0.40625 1.8125 0.40625q0.734375 0 1.359375 -0.234375q0.625 -0.25 1.359375 -0.890625l0.96875 1.359375q-0.453125 0.453125 -1.09375 0.796875q-0.640625 0.328125 -1.359375 0.53125q-0.71875 0.1875 -1.421875 0.1875zm11.593872 3.921875l0 -13.90625l1.9375 0l0 2.234375l-0.296875 -0.15625q0.109375 -0.5625 0.625 -1.078125q0.53125 -0.515625 1.28125 -0.84375q0.765625 -0.328125 1.5625 -0.328125q1.328125 0 2.34375 0.65625q1.03125 0.65625 1.625 1.796875q0.609375 1.140625 0.609375 2.609375q0 1.453125 -0.59375 2.609375q-0.59375 1.140625 -1.625 1.8125q-1.015625 0.65625 -2.296875 0.65625q-0.859375 0 -1.671875 -0.34375q-0.796875 -0.34375 -1.359375 -0.890625q-0.5625 -0.546875 -0.6875 -1.125l0.484375 -0.25l0 6.546875l-1.9375 0zm4.84375 -5.71875q0.859375 0 1.53125 -0.421875q0.671875 -0.4375 1.0625 -1.171875q0.390625 -0.75 0.390625 -1.703125q0 -0.953125 -0.390625 -1.6875q-0.375 -0.734375 -1.046875 -1.15625q-0.65625 -0.4375 -1.546875 -0.4375q-0.875 0 -1.546875 0.421875q-0.671875 0.421875 -1.0625 1.171875q-0.390625 0.734375 -0.390625 1.6875q0 0.953125 0.390625 1.703125q0.390625 0.734375 1.0625 1.171875q0.671875 0.421875 1.546875 0.421875zm11.334595 1.796875q-1.4375 0 -2.578125 -0.65625q-1.125 -0.671875 -1.78125 -1.8125q-0.640625 -1.15625 -0.640625 -2.625q0 -1.46875 0.640625 -2.609375q0.65625 -1.15625 1.78125 -1.8125q1.140625 -0.671875 2.578125 -0.671875q1.40625 0 2.53125 0.671875q1.140625 0.65625 1.796875 1.8125q0.65625 1.140625 0.65625 2.609375q0 1.46875 -0.65625 2.625q-0.65625 1.140625 -1.796875 1.8125q-1.125 0.65625 -2.53125 0.65625zm0 -1.75q0.875 0 1.5625 -0.4375q0.6875 -0.4375 1.078125 -1.1875q0.390625 -0.765625 0.375 -1.71875q0.015625 -0.96875 -0.375 -1.71875q-0.390625 -0.765625 -1.078125 -1.1875q-0.6875 -0.4375 -1.5625 -0.4375q-0.875 0 -1.578125 0.4375q-0.703125 0.4375 -1.09375 1.203125q-0.390625 0.75 -0.375 1.703125q-0.015625 0.953125 0.375 1.71875q0.390625 0.75 1.09375 1.1875q0.703125 0.4375 1.578125 0.4375zm7.067322 5.671875l0 -13.90625l1.9375 0l0 2.234375l-0.296875 -0.15625q0.109375 -0.5625 0.625 -1.078125q0.53125 -0.515625 1.28125 -0.84375q0.765625 -0.328125 1.5625 -0.328125q1.328125 0 2.34375 0.65625q1.03125 0.65625 1.625 1.796875q0.609375 1.140625 0.609375 2.609375q0 1.453125 -0.59375 2.609375q-0.59375 1.140625 -1.625 1.8125q-1.015625 0.65625 -2.296875 0.65625q-0.859375 0 -1.671875 -0.34375q-0.796875 -0.34375 -1.359375 -0.890625q-0.5625 -0.546875 -0.6875 -1.125l0.484375 -0.25l0 6.546875l-1.9375 0zm4.84375 -5.71875q0.859375 0 1.53125 -0.421875q0.671875 -0.4375 1.0625 -1.171875q0.390625 -0.75 0.390625 -1.703125q0 -0.953125 -0.390625 -1.6875q-0.375 -0.734375 -1.046875 -1.15625q-0.65625 -0.4375 -1.546875 -0.4375q-0.875 0 -1.546875 0.421875q-0.671875 0.421875 -1.0625 1.171875q-0.390625 0.734375 -0.390625 1.6875q0 0.953125 0.390625 1.703125q0.390625 0.734375 1.0625 1.171875q0.671875 0.421875 1.546875 0.421875zm10.365845 1.796875q-1.046875 0 -1.828125 -0.484375q-0.765625 -0.484375 -1.1875 -1.359375q-0.421875 -0.875 -0.421875 -2.09375l0 -6.046875l1.921875 0l0 5.53125q0 0.84375 0.265625 1.46875q0.28125 0.625 0.78125 0.96875q0.515625 0.328125 1.25 0.328125q0.53125 0 0.984375 -0.171875q0.453125 -0.171875 0.78125 -0.484375q0.328125 -0.328125 0.5 -0.765625q0.1875 -0.453125 0.1875 -0.984375l0 -5.890625l1.921875 0l0 9.796875l-1.921875 0l0 -2.046875l0.34375 -0.234375q-0.21875 0.703125 -0.75 1.265625q-0.53125 0.546875 -1.265625 0.875q-0.734375 0.328125 -1.5625 0.328125zm7.8807983 -0.1875l0 -13.8125l1.921875 0l0 13.8125l-1.921875 0zm8.230408 0.1875q-1.203125 0 -2.203125 -0.671875q-1.0 -0.671875 -1.609375 -1.828125q-0.59375 -1.15625 -0.59375 -2.609375q0 -1.484375 0.609375 -2.625q0.609375 -1.140625 1.640625 -1.796875q1.046875 -0.65625 2.328125 -0.65625q0.765625 0 1.390625 0.234375q0.640625 0.21875 1.109375 0.625q0.484375 0.390625 0.78125 0.921875q0.3125 0.515625 0.390625 1.109375l-0.421875 -0.140625l0 -2.546875l1.9375 0l0 9.796875l-1.9375 0l0 -2.328125l0.4375 -0.140625q-0.109375 0.515625 -0.453125 1.0q-0.34375 0.46875 -0.875 0.84375q-0.53125 0.359375 -1.171875 0.59375q-0.640625 0.21875 -1.359375 0.21875zm0.5 -1.765625q0.890625 0 1.546875 -0.421875q0.671875 -0.4375 1.046875 -1.1875q0.390625 -0.765625 0.390625 -1.734375q0 -0.953125 -0.390625 -1.703125q-0.375 -0.75 -1.046875 -1.171875q-0.65625 -0.4375 -1.546875 -0.4375q-0.859375 0 -1.515625 0.4375q-0.65625 0.421875 -1.046875 1.171875q-0.375 0.75 -0.375 1.703125q0 0.96875 0.375 1.734375q0.390625 0.75 1.046875 1.1875q0.65625 0.421875 1.515625 0.421875zm8.762573 1.578125l0 -12.296875l1.921875 0l0 12.296875l-1.921875 0zm-2.046875 -7.921875l0 -1.875l6.234375 0l0 1.875l-6.234375 0zm8.304626 7.921875l0 -9.796875l1.921875 0l0 9.796875l-1.921875 0zm0.9375 -11.953125q-0.609375 0 -0.953125 -0.3125q-0.328125 -0.328125 -0.328125 -0.90625q0 -0.546875 0.34375 -0.875q0.34375 -0.34375 0.9375 -0.34375q0.609375 0 0.9375 0.328125q0.34375 0.3125 0.34375 0.890625q0 0.546875 -0.34375 0.890625q-0.34375 0.328125 -0.9375 0.328125zm8.342651 12.140625q-1.4375 0 -2.578125 -0.65625q-1.125 -0.671875 -1.78125 -1.8125q-0.640625 -1.15625 -0.640625 -2.625q0 -1.46875 0.640625 -2.609375q0.65625 -1.15625 1.78125 -1.8125q1.140625 -0.671875 2.578125 -0.671875q1.40625 0 2.53125 0.671875q1.140625 0.65625 1.796875 1.8125q0.65625 1.140625 0.65625 2.609375q0 1.46875 -0.65625 2.625q-0.65625 1.140625 -1.796875 1.8125q-1.125 0.65625 -2.53125 0.65625zm0 -1.75q0.875 0 1.5625 -0.4375q0.6875 -0.4375 1.078125 -1.1875q0.390625 -0.765625 0.375 -1.71875q0.015625 -0.96875 -0.375 -1.71875q-0.390625 -0.765625 -1.078125 -1.1875q-0.6875 -0.4375 -1.5625 -0.4375q-0.875 0 -1.578125 0.4375q-0.703125 0.4375 -1.09375 1.203125q-0.390625 0.75 -0.375 1.703125q-0.015625 0.953125 0.375 1.71875q0.390625 0.75 1.09375 1.1875q0.703125 0.4375 1.578125 0.4375zm7.067383 1.5625l0 -9.796875l1.921875 0l0 2.015625l-0.34375 0.21875q0.1875 -0.640625 0.734375 -1.1875q0.546875 -0.5625 1.28125 -0.90625q0.75 -0.34375 1.53125 -0.34375q1.125 0 1.859375 0.4375q0.75 0.4375 1.125 1.34375q0.375 0.890625 0.375 2.25l0 5.96875l-1.921875 0l0 -5.84375q0 -0.828125 -0.21875 -1.375q-0.21875 -0.5625 -0.6875 -0.8125q-0.46875 -0.25 -1.15625 -0.21875q-0.5625 0 -1.03125 0.1875q-0.46875 0.171875 -0.8125 0.5q-0.34375 0.3125 -0.546875 0.734375q-0.1875 0.40625 -0.1875 0.890625l0 5.9375l-0.953125 0q-0.234375 0 -0.484375 0q-0.25 0 -0.484375 0zm16.636719 0l0 -9.796875l1.921875 0l0 9.796875l-1.921875 0zm0.9375 -11.953125q-0.609375 0 -0.953125 -0.3125q-0.328125 -0.328125 -0.328125 -0.90625q0 -0.546875 0.34375 -0.875q0.34375 -0.34375 0.9375 -0.34375q0.609375 0 0.9375 0.328125q0.34375 0.3125 0.34375 0.890625q0 0.546875 -0.34375 0.890625q-0.34375 0.328125 -0.9375 0.328125zm7.2020264 12.140625q-1.234375 0 -2.21875 -0.421875q-0.984375 -0.4375 -1.640625 -1.28125l1.296875 -1.109375q0.5625 0.640625 1.21875 0.9375q0.671875 0.28125 1.515625 0.28125q0.328125 0 0.609375 -0.078125q0.296875 -0.078125 0.515625 -0.25q0.21875 -0.171875 0.328125 -0.40625q0.109375 -0.234375 0.109375 -0.515625q0 -0.484375 -0.359375 -0.78125q-0.1875 -0.125 -0.59375 -0.28125q-0.390625 -0.15625 -1.03125 -0.328125q-1.078125 -0.28125 -1.765625 -0.625q-0.6875 -0.359375 -1.0625 -0.8125q-0.28125 -0.359375 -0.421875 -0.765625q-0.125 -0.421875 -0.125 -0.9375q0 -0.609375 0.265625 -1.125q0.28125 -0.515625 0.75 -0.890625q0.484375 -0.390625 1.125 -0.59375q0.640625 -0.203125 1.375 -0.203125q0.6875 0 1.359375 0.1875q0.6875 0.1875 1.265625 0.546875q0.578125 0.34375 0.96875 0.828125l-1.09375 1.21875q-0.359375 -0.359375 -0.78125 -0.625q-0.421875 -0.265625 -0.859375 -0.40625q-0.421875 -0.15625 -0.765625 -0.15625q-0.390625 0 -0.71875 0.078125q-0.3125 0.0625 -0.53125 0.21875q-0.203125 0.140625 -0.328125 0.375q-0.109375 0.21875 -0.109375 0.5q0.015625 0.234375 0.125 0.453125q0.109375 0.21875 0.296875 0.359375q0.203125 0.15625 0.609375 0.328125q0.40625 0.15625 1.046875 0.3125q0.921875 0.234375 1.53125 0.53125q0.609375 0.28125 0.96875 0.65625q0.375 0.359375 0.515625 0.828125q0.15625 0.46875 0.15625 1.046875q0 0.828125 -0.484375 1.5q-0.46875 0.65625 -1.28125 1.03125q-0.796875 0.375 -1.78125 0.375zm10.89447 -0.1875l0 -9.796875l1.9375 0l0 3.078125l-0.1875 -0.75q0.203125 -0.703125 0.703125 -1.28125q0.5 -0.578125 1.140625 -0.90625q0.640625 -0.34375 1.328125 -0.34375q0.3125 0 0.59375 0.0625q0.296875 0.046875 0.46875 0.125l-0.5 2.09375q-0.21875 -0.09375 -0.5 -0.15625q-0.265625 -0.078125 -0.53125 -0.078125q-0.5 0 -0.953125 0.203125q-0.453125 0.1875 -0.8125 0.546875q-0.34375 0.34375 -0.546875 0.796875q-0.203125 0.453125 -0.203125 1.0l0 5.40625l-1.9375 0zm11.670288 0.1875q-1.5 0 -2.671875 -0.640625q-1.15625 -0.640625 -1.828125 -1.765625q-0.65625 -1.125 -0.65625 -2.578125q0 -1.15625 0.375 -2.109375q0.375 -0.953125 1.03125 -1.640625q0.65625 -0.703125 1.578125 -1.078125q0.9375 -0.390625 2.015625 -0.390625q0.953125 0 1.765625 0.359375q0.828125 0.359375 1.421875 1.0q0.609375 0.640625 0.9375 1.515625q0.328125 0.859375 0.3125 1.875l-0.015625 0.828125l-8.0 0l-0.4375 -1.53125l6.765625 0l-0.265625 0.3125l0 -0.4375q-0.0625 -0.625 -0.421875 -1.109375q-0.34375 -0.484375 -0.890625 -0.765625q-0.546875 -0.28125 -1.171875 -0.28125q-1.015625 0 -1.703125 0.390625q-0.6875 0.375 -1.046875 1.125q-0.34375 0.734375 -0.34375 1.8125q0 1.015625 0.421875 1.78125q0.421875 0.75 1.203125 1.171875q0.796875 0.40625 1.8125 0.40625q0.734375 0 1.359375 -0.234375q0.625 -0.25 1.359375 -0.890625l0.96875 1.359375q-0.453125 0.453125 -1.09375 0.796875q-0.640625 0.328125 -1.359375 0.53125q-0.71875 0.1875 -1.421875 0.1875zm10.135742 0q-1.203125 0 -2.203125 -0.671875q-1.0 -0.671875 -1.609375 -1.828125q-0.59375 -1.15625 -0.59375 -2.609375q0 -1.484375 0.609375 -2.625q0.609375 -1.140625 1.640625 -1.796875q1.046875 -0.65625 2.328125 -0.65625q0.765625 0 1.390625 0.234375q0.640625 0.21875 1.109375 0.625q0.484375 0.390625 0.78125 0.921875q0.3125 0.515625 0.390625 1.109375l-0.421875 -0.140625l0 -2.546875l1.9375 0l0 9.796875l-1.9375 0l0 -2.328125l0.4375 -0.140625q-0.109375 0.515625 -0.453125 1.0q-0.34375 0.46875 -0.875 0.84375q-0.53125 0.359375 -1.171875 0.59375q-0.640625 0.21875 -1.359375 0.21875zm0.5 -1.765625q0.890625 0 1.546875 -0.421875q0.671875 -0.4375 1.046875 -1.1875q0.390625 -0.765625 0.390625 -1.734375q0 -0.953125 -0.390625 -1.703125q-0.375 -0.75 -1.046875 -1.171875q-0.65625 -0.4375 -1.546875 -0.4375q-0.859375 0 -1.515625 0.4375q-0.65625 0.421875 -1.046875 1.171875q-0.375 0.75 -0.375 1.703125q0 0.96875 0.375 1.734375q0.390625 0.75 1.046875 1.1875q0.65625 0.421875 1.515625 0.421875zm11.700012 1.765625q-1.359375 0 -2.4375 -0.671875q-1.0625 -0.671875 -1.6875 -1.828125q-0.625 -1.15625 -0.625 -2.59375q0 -1.4375 0.625 -2.59375q0.625 -1.15625 1.6875 -1.828125q1.078125 -0.671875 2.4375 -0.671875q1.3125 0 2.375 0.53125q1.078125 0.53125 1.640625 1.453125l-1.0625 1.296875q-0.296875 -0.421875 -0.765625 -0.78125q-0.46875 -0.359375 -1.0 -0.5625q-0.515625 -0.203125 -1.0 -0.203125q-0.890625 0 -1.59375 0.4375q-0.703125 0.4375 -1.109375 1.203125q-0.40625 0.765625 -0.40625 1.71875q0 0.953125 0.421875 1.71875q0.4375 0.75 1.140625 1.203125q0.703125 0.4375 1.5625 0.4375q0.515625 0 0.984375 -0.171875q0.46875 -0.171875 0.921875 -0.5q0.453125 -0.34375 0.84375 -0.828125l1.0625 1.3125q-0.59375 0.84375 -1.703125 1.390625q-1.109375 0.53125 -2.3125 0.53125zm5.824829 -0.1875l0 -13.8125l1.921875 0l0 6.03125l-0.34375 0.21875q0.1875 -0.640625 0.734375 -1.1875q0.546875 -0.5625 1.28125 -0.90625q0.75 -0.34375 1.53125 -0.34375q1.125 0 1.859375 0.4375q0.75 0.4375 1.125 1.34375q0.375 0.890625 0.375 2.25l0 5.96875l-1.921875 0l0 -5.84375q0 -0.828125 -0.21875 -1.375q-0.21875 -0.5625 -0.6875 -0.8125q-0.46875 -0.25 -1.15625 -0.21875q-0.5625 0 -1.03125 0.1875q-0.46875 0.171875 -0.8125 0.5q-0.34375 0.3125 -0.546875 0.734375q-0.1875 0.40625 -0.1875 0.890625l0 5.9375l-0.953125 0q-0.234375 0 -0.484375 0q-0.25 0 -0.484375 0zm14.866089 0.1875q-1.203125 0 -2.203125 -0.671875q-1.0 -0.671875 -1.609375 -1.828125q-0.59375 -1.15625 -0.59375 -2.609375q0 -1.484375 0.609375 -2.625q0.609375 -1.140625 1.640625 -1.796875q1.046875 -0.65625 2.328125 -0.65625q0.765625 0 1.390625 0.234375q0.640625 0.21875 1.109375 0.625q0.484375 0.390625 0.78125 0.921875q0.3125 0.515625 0.390625 1.109375l-0.421875 -0.140625l0 -2.546875l1.9375 0l0 9.796875l-1.9375 0l0 -2.328125l0.4375 -0.140625q-0.109375 0.515625 -0.453125 1.0q-0.34375 0.46875 -0.875 0.84375q-0.53125 0.359375 -1.171875 0.59375q-0.640625 0.21875 -1.359375 0.21875zm0.5 -1.765625q0.890625 0 1.546875 -0.421875q0.671875 -0.4375 1.046875 -1.1875q0.390625 -0.765625 0.390625 -1.734375q0 -0.953125 -0.390625 -1.703125q-0.375 -0.75 -1.046875 -1.171875q-0.65625 -0.4375 -1.546875 -0.4375q-0.859375 0 -1.515625 0.4375q-0.65625 0.421875 -1.046875 1.171875q-0.375 0.75 -0.375 1.703125q0 0.96875 0.375 1.734375q0.390625 0.75 1.046875 1.1875q0.65625 0.421875 1.515625 0.421875zm12.700012 1.765625q-0.640625 0 -1.265625 -0.203125q-0.625 -0.203125 -1.140625 -0.546875q-0.515625 -0.359375 -0.859375 -0.765625q-0.34375 -0.421875 -0.453125 -0.859375l0.484375 -0.25l0 2.375l-1.921875 0l0 -13.75l1.921875 0l0 6.25l-0.296875 -0.15625q0.09375 -0.4375 0.40625 -0.828125q0.3125 -0.40625 0.8125 -0.734375q0.5 -0.328125 1.078125 -0.515625q0.578125 -0.203125 1.171875 -0.203125q1.328125 0 2.34375 0.65625q1.03125 0.65625 1.625 1.796875q0.59375 1.140625 0.59375 2.625q0 1.46875 -0.59375 2.625q-0.578125 1.15625 -1.609375 1.828125q-1.015625 0.65625 -2.296875 0.65625zm-0.328125 -1.75q0.859375 0 1.53125 -0.4375q0.671875 -0.4375 1.0625 -1.1875q0.390625 -0.765625 0.390625 -1.734375q0 -0.953125 -0.390625 -1.703125q-0.375 -0.765625 -1.046875 -1.1875q-0.671875 -0.4375 -1.546875 -0.4375q-0.875 0 -1.546875 0.4375q-0.671875 0.421875 -1.0625 1.1875q-0.390625 0.75 -0.390625 1.703125q0 0.96875 0.390625 1.734375q0.390625 0.75 1.0625 1.1875q0.671875 0.4375 1.546875 0.4375zm6.956604 1.5625l0 -13.8125l1.921875 0l0 13.8125l-1.921875 0zm9.027283 0.1875q-1.5 0 -2.671875 -0.640625q-1.15625 -0.640625 -1.828125 -1.765625q-0.65625 -1.125 -0.65625 -2.578125q0 -1.15625 0.375 -2.109375q0.375 -0.953125 1.03125 -1.640625q0.65625 -0.703125 1.578125 -1.078125q0.9375 -0.390625 2.015625 -0.390625q0.953125 0 1.765625 0.359375q0.828125 0.359375 1.421875 1.0q0.609375 0.640625 0.9375 1.515625q0.328125 0.859375 0.3125 1.875l-0.015625 0.828125l-8.0 0l-0.4375 -1.53125l6.765625 0l-0.265625 0.3125l0 -0.4375q-0.0625 -0.625 -0.421875 -1.109375q-0.34375 -0.484375 -0.890625 -0.765625q-0.546875 -0.28125 -1.171875 -0.28125q-1.015625 0 -1.703125 0.390625q-0.6875 0.375 -1.046875 1.125q-0.34375 0.734375 -0.34375 1.8125q0 1.015625 0.421875 1.78125q0.421875 0.75 1.203125 1.171875q0.796875 0.40625 1.8125 0.40625q0.734375 0 1.359375 -0.234375q0.625 -0.25 1.359375 -0.890625l0.96875 1.359375q-0.453125 0.453125 -1.09375 0.796875q-0.640625 0.328125 -1.359375 0.53125q-0.71875 0.1875 -1.421875 0.1875zm6.666931 3.15625l-0.703125 -0.859375q0.640625 -0.375 1.046875 -0.859375q0.421875 -0.484375 0.421875 -0.84375q0 -0.1875 -0.09375 -0.359375q-0.09375 -0.171875 -0.390625 -0.5q-0.375 -0.34375 -0.484375 -0.59375q-0.109375 -0.25 -0.109375 -0.515625q0 -0.453125 0.3125 -0.71875q0.3125 -0.28125 0.828125 -0.28125q0.453125 0 0.828125 0.28125q0.390625 0.265625 0.609375 0.75q0.21875 0.46875 0.21875 1.078125q0 0.5625 -0.1875 1.078125q-0.1875 0.53125 -0.53125 0.96875q-0.328125 0.453125 -0.78125 0.8125q-0.4375 0.359375 -0.984375 0.5625zm15.064331 -3.15625q-0.640625 0 -1.265625 -0.203125q-0.625 -0.203125 -1.140625 -0.546875q-0.515625 -0.359375 -0.859375 -0.765625q-0.34375 -0.421875 -0.453125 -0.859375l0.484375 -0.25l0 2.375l-1.921875 0l0 -13.75l1.921875 0l0 6.25l-0.296875 -0.15625q0.09375 -0.4375 0.40625 -0.828125q0.3125 -0.40625 0.8125 -0.734375q0.5 -0.328125 1.078125 -0.515625q0.578125 -0.203125 1.171875 -0.203125q1.328125 0 2.34375 0.65625q1.03125 0.65625 1.625 1.796875q0.59375 1.140625 0.59375 2.625q0 1.46875 -0.59375 2.625q-0.578125 1.15625 -1.609375 1.828125q-1.015625 0.65625 -2.296875 0.65625zm-0.328125 -1.75q0.859375 0 1.53125 -0.4375q0.671875 -0.4375 1.0625 -1.1875q0.390625 -0.765625 0.390625 -1.734375q0 -0.953125 -0.390625 -1.703125q-0.375 -0.765625 -1.046875 -1.1875q-0.671875 -0.4375 -1.546875 -0.4375q-0.875 0 -1.546875 0.4375q-0.671875 0.421875 -1.0625 1.1875q-0.390625 0.75 -0.390625 1.703125q0 0.96875 0.390625 1.734375q0.390625 0.75 1.0625 1.1875q0.671875 0.4375 1.546875 0.4375zm10.362793 1.75q-1.046875 0 -1.828125 -0.484375q-0.765625 -0.484375 -1.1875 -1.359375q-0.421875 -0.875 -0.421875 -2.09375l0 -6.046875l1.921875 0l0 5.53125q0 0.84375 0.265625 1.46875q0.28125 0.625 0.78125 0.96875q0.515625 0.328125 1.25 0.328125q0.53125 0 0.984375 -0.171875q0.453125 -0.171875 0.78125 -0.484375q0.328125 -0.328125 0.5 -0.765625q0.1875 -0.453125 0.1875 -0.984375l0 -5.890625l1.921875 0l0 9.796875l-1.921875 0l0 -2.046875l0.34375 -0.234375q-0.21875 0.703125 -0.75 1.265625q-0.53125 0.546875 -1.265625 0.875q-0.734375 0.328125 -1.5625 0.328125zm9.068298 -0.1875l0 -12.296875l1.921875 0l0 12.296875l-1.921875 0zm-2.046875 -7.921875l0 -1.875l6.234375 0l0 1.875l-6.234375 0z" fill-rule="nonzero"/><path fill="#595959" d="m544.507 86.83217q-1.234375 0 -2.21875 -0.421875q-0.984375 -0.4375 -1.640625 -1.28125l1.296875 -1.109375q0.5625 0.640625 1.21875 0.9375q0.671875 0.28125 1.515625 0.28125q0.328125 0 0.609375 -0.078125q0.296875 -0.078125 0.515625 -0.25q0.21875 -0.171875 0.328125 -0.40625q0.109375 -0.234375 0.109375 -0.515625q0 -0.484375 -0.359375 -0.78125q-0.1875 -0.125 -0.59375 -0.28125q-0.390625 -0.15625 -1.03125 -0.328125q-1.078125 -0.28125 -1.765625 -0.625q-0.6875 -0.359375 -1.0625 -0.8125q-0.28125 -0.359375 -0.421875 -0.765625q-0.125 -0.421875 -0.125 -0.9375q0 -0.609375 0.265625 -1.125q0.28125 -0.515625 0.75 -0.890625q0.484375 -0.390625 1.125 -0.59375q0.640625 -0.203125 1.375 -0.203125q0.6875 0 1.359375 0.1875q0.6875 0.1875 1.265625 0.546875q0.578125 0.34375 0.96875 0.828125l-1.09375 1.21875q-0.359375 -0.359375 -0.78125 -0.625q-0.421875 -0.265625 -0.859375 -0.40625q-0.421875 -0.15625 -0.765625 -0.15625q-0.390625 0 -0.71875 0.078125q-0.3125 0.0625 -0.53125 0.21875q-0.203125 0.140625 -0.328125 0.375q-0.109375 0.21875 -0.109375 0.5q0.015625 0.234375 0.125 0.453125q0.109375 0.21875 0.296875 0.359375q0.203125 0.15625 0.609375 0.328125q0.40625 0.15625 1.046875 0.3125q0.921875 0.234375 1.53125 0.53125q0.609375 0.28125 0.96875 0.65625q0.375 0.359375 0.515625 0.828125q0.15625 0.46875 0.15625 1.046875q0 0.828125 -0.484375 1.5q-0.46875 0.65625 -1.28125 1.03125q-0.796875 0.375 -1.78125 0.375zm9.43634 0q-1.203125 0 -2.203125 -0.671875q-1.0 -0.671875 -1.609375 -1.828125q-0.59375 -1.15625 -0.59375 -2.609375q0 -1.484375 0.609375 -2.625q0.609375 -1.140625 1.640625 -1.796875q1.046875 -0.65625 2.328125 -0.65625q0.765625 0 1.390625 0.234375q0.640625 0.21875 1.109375 0.625q0.484375 0.390625 0.78125 0.921875q0.3125 0.515625 0.390625 1.109375l-0.421875 -0.140625l0 -2.546875l1.9375 0l0 9.796875l-1.9375 0l0 -2.328125l0.4375 -0.140625q-0.109375 0.515625 -0.453125 1.0q-0.34375 0.46875 -0.875 0.84375q-0.53125 0.359375 -1.171875 0.59375q-0.640625 0.21875 -1.359375 0.21875zm0.5 -1.765625q0.890625 0 1.546875 -0.421875q0.671875 -0.4375 1.046875 -1.1875q0.390625 -0.765625 0.390625 -1.734375q0 -0.953125 -0.390625 -1.703125q-0.375 -0.75 -1.046875 -1.171875q-0.65625 -0.4375 -1.546875 -0.4375q-0.859375 0 -1.515625 0.4375q-0.65625 0.421875 -1.046875 1.171875q-0.375 0.75 -0.375 1.703125q0 0.96875 0.375 1.734375q0.390625 0.75 1.046875 1.1875q0.65625 0.421875 1.515625 0.421875zm7.512512 1.578125l0 -9.796875l1.9375 0l0 2.09375l-0.359375 0.21875q0.15625 -0.484375 0.46875 -0.921875q0.328125 -0.453125 0.796875 -0.796875q0.484375 -0.34375 1.03125 -0.546875q0.5625 -0.21875 1.140625 -0.21875q0.828125 0 1.46875 0.28125q0.640625 0.28125 1.046875 0.84375q0.40625 0.5625 0.59375 1.40625l-0.296875 -0.078125l0.125 -0.3125q0.21875 -0.4375 0.578125 -0.8125q0.359375 -0.390625 0.828125 -0.6875q0.46875 -0.296875 0.984375 -0.46875q0.53125 -0.171875 1.03125 -0.171875q1.09375 0 1.8125 0.453125q0.71875 0.453125 1.078125 1.375q0.375 0.90625 0.375 2.265625l0 5.875l-1.9375 0l0 -5.765625q0 -0.84375 -0.21875 -1.375q-0.21875 -0.53125 -0.65625 -0.78125q-0.421875 -0.265625 -1.09375 -0.265625q-0.515625 0 -0.984375 0.1875q-0.453125 0.171875 -0.796875 0.484375q-0.328125 0.3125 -0.515625 0.734375q-0.171875 0.421875 -0.171875 0.921875l0 5.859375l-1.953125 0l0 -5.796875q0 -0.765625 -0.21875 -1.296875q-0.21875 -0.53125 -0.65625 -0.8125q-0.421875 -0.28125 -1.046875 -0.28125q-0.515625 0 -0.96875 0.1875q-0.4375 0.171875 -0.78125 0.484375q-0.328125 0.296875 -0.515625 0.71875q-0.1875 0.421875 -0.1875 0.90625l0 5.890625l-1.9375 0zm17.213684 4.109375l0 -13.90625l1.9375 0l0 2.234375l-0.296875 -0.15625q0.109375 -0.5625 0.625 -1.078125q0.53125 -0.515625 1.28125 -0.84375q0.765625 -0.328125 1.5625 -0.328125q1.328125 0 2.34375 0.65625q1.03125 0.65625 1.625 1.796875q0.609375 1.140625 0.609375 2.609375q0 1.453125 -0.59375 2.609375q-0.59375 1.140625 -1.625 1.8125q-1.015625 0.65625 -2.296875 0.65625q-0.859375 0 -1.671875 -0.34375q-0.796875 -0.34375 -1.359375 -0.890625q-0.5625 -0.546875 -0.6875 -1.125l0.484375 -0.25l0 6.546875l-1.9375 0zm4.84375 -5.71875q0.859375 0 1.53125 -0.421875q0.671875 -0.4375 1.0625 -1.171875q0.390625 -0.75 0.390625 -1.703125q0 -0.953125 -0.390625 -1.6875q-0.375 -0.734375 -1.046875 -1.15625q-0.65625 -0.4375 -1.546875 -0.4375q-0.875 0 -1.546875 0.421875q-0.671875 0.421875 -1.0625 1.171875q-0.390625 0.734375 -0.390625 1.6875q0 0.953125 0.390625 1.703125q0.390625 0.734375 1.0625 1.171875q0.671875 0.421875 1.546875 0.421875zm6.9595947 1.609375l0 -13.8125l1.921875 0l0 13.8125l-1.921875 0zm9.027283 0.1875q-1.5 0 -2.671875 -0.640625q-1.15625 -0.640625 -1.828125 -1.765625q-0.65625 -1.125 -0.65625 -2.578125q0 -1.15625 0.375 -2.109375q0.375 -0.953125 1.03125 -1.640625q0.65625 -0.703125 1.578125 -1.078125q0.9375 -0.390625 2.015625 -0.390625q0.953125 0 1.765625 0.359375q0.828125 0.359375 1.421875 1.0q0.609375 0.640625 0.9375 1.515625q0.328125 0.859375 0.3125 1.875l-0.015625 0.828125l-8.0 0l-0.4375 -1.53125l6.765625 0l-0.265625 0.3125l0 -0.4375q-0.0625 -0.625 -0.421875 -1.109375q-0.34375 -0.484375 -0.890625 -0.765625q-0.546875 -0.28125 -1.171875 -0.28125q-1.015625 0 -1.703125 0.390625q-0.6875 0.375 -1.046875 1.125q-0.34375 0.734375 -0.34375 1.8125q0 1.015625 0.421875 1.78125q0.421875 0.75 1.203125 1.171875q0.796875 0.40625 1.8125 0.40625q0.734375 0 1.359375 -0.234375q0.625 -0.25 1.359375 -0.890625l0.96875 1.359375q-0.453125 0.453125 -1.09375 0.796875q-0.640625 0.328125 -1.359375 0.53125q-0.71875 0.1875 -1.421875 0.1875zm11.906311 -0.1875l0 -9.796875l1.921875 0l0 9.796875l-1.921875 0zm0.9375 -11.953125q-0.609375 0 -0.953125 -0.3125q-0.328125 -0.328125 -0.328125 -0.90625q0 -0.546875 0.34375 -0.875q0.34375 -0.34375 0.9375 -0.34375q0.609375 0 0.9375 0.328125q0.34375 0.3125 0.34375 0.890625q0 0.546875 -0.34375 0.890625q-0.34375 0.328125 -0.9375 0.328125zm7.2020874 12.140625q-1.234375 0 -2.21875 -0.421875q-0.984375 -0.4375 -1.640625 -1.28125l1.296875 -1.109375q0.5625 0.640625 1.21875 0.9375q0.671875 0.28125 1.515625 0.28125q0.328125 0 0.609375 -0.078125q0.296875 -0.078125 0.515625 -0.25q0.21875 -0.171875 0.328125 -0.40625q0.109375 -0.234375 0.109375 -0.515625q0 -0.484375 -0.359375 -0.78125q-0.1875 -0.125 -0.59375 -0.28125q-0.390625 -0.15625 -1.03125 -0.328125q-1.078125 -0.28125 -1.765625 -0.625q-0.6875 -0.359375 -1.0625 -0.8125q-0.28125 -0.359375 -0.421875 -0.765625q-0.125 -0.421875 -0.125 -0.9375q0 -0.609375 0.265625 -1.125q0.28125 -0.515625 0.75 -0.890625q0.484375 -0.390625 1.125 -0.59375q0.640625 -0.203125 1.375 -0.203125q0.6875 0 1.359375 0.1875q0.6875 0.1875 1.265625 0.546875q0.578125 0.34375 0.96875 0.828125l-1.09375 1.21875q-0.359375 -0.359375 -0.78125 -0.625q-0.421875 -0.265625 -0.859375 -0.40625q-0.421875 -0.15625 -0.765625 -0.15625q-0.390625 0 -0.71875 0.078125q-0.3125 0.0625 -0.53125 0.21875q-0.203125 0.140625 -0.328125 0.375q-0.109375 0.21875 -0.109375 0.5q0.015625 0.234375 0.125 0.453125q0.109375 0.21875 0.296875 0.359375q0.203125 0.15625 0.609375 0.328125q0.40625 0.15625 1.046875 0.3125q0.921875 0.234375 1.53125 0.53125q0.609375 0.28125 0.96875 0.65625q0.375 0.359375 0.515625 0.828125q0.15625 0.46875 0.15625 1.046875q0 0.828125 -0.484375 1.5q-0.46875 0.65625 -1.28125 1.03125q-0.796875 0.375 -1.78125 0.375zm14.660095 0q-1.203125 0 -2.203125 -0.671875q-1.0 -0.671875 -1.609375 -1.828125q-0.59375 -1.15625 -0.59375 -2.609375q0 -1.484375 0.609375 -2.625q0.609375 -1.140625 1.640625 -1.796875q1.046875 -0.65625 2.328125 -0.65625q0.765625 0 1.390625 0.234375q0.640625 0.21875 1.109375 0.625q0.484375 0.390625 0.78125 0.921875q0.3125 0.515625 0.390625 1.109375l-0.421875 -0.140625l0 -2.546875l1.9375 0l0 9.796875l-1.9375 0l0 -2.328125l0.4375 -0.140625q-0.109375 0.515625 -0.453125 1.0q-0.34375 0.46875 -0.875 0.84375q-0.53125 0.359375 -1.171875 0.59375q-0.640625 0.21875 -1.359375 0.21875zm0.5 -1.765625q0.890625 0 1.546875 -0.421875q0.671875 -0.4375 1.046875 -1.1875q0.390625 -0.765625 0.390625 -1.734375q0 -0.953125 -0.390625 -1.703125q-0.375 -0.75 -1.046875 -1.171875q-0.65625 -0.4375 -1.546875 -0.4375q-0.859375 0 -1.515625 0.4375q-0.65625 0.421875 -1.046875 1.171875q-0.375 0.75 -0.375 1.703125q0 0.96875 0.375 1.734375q0.390625 0.75 1.046875 1.1875q0.65625 0.421875 1.515625 0.421875zm16.033142 1.765625q-1.234375 0 -2.21875 -0.421875q-0.984375 -0.4375 -1.640625 -1.28125l1.296875 -1.109375q0.5625 0.640625 1.21875 0.9375q0.671875 0.28125 1.515625 0.28125q0.328125 0 0.609375 -0.078125q0.296875 -0.078125 0.515625 -0.25q0.21875 -0.171875 0.328125 -0.40625q0.109375 -0.234375 0.109375 -0.515625q0 -0.484375 -0.359375 -0.78125q-0.1875 -0.125 -0.59375 -0.28125q-0.390625 -0.15625 -1.03125 -0.328125q-1.078125 -0.28125 -1.765625 -0.625q-0.6875 -0.359375 -1.0625 -0.8125q-0.28125 -0.359375 -0.421875 -0.765625q-0.125 -0.421875 -0.125 -0.9375q0 -0.609375 0.265625 -1.125q0.28125 -0.515625 0.75 -0.890625q0.484375 -0.390625 1.125 -0.59375q0.640625 -0.203125 1.375 -0.203125q0.6875 0 1.359375 0.1875q0.6875 0.1875 1.265625 0.546875q0.578125 0.34375 0.96875 0.828125l-1.09375 1.21875q-0.359375 -0.359375 -0.78125 -0.625q-0.421875 -0.265625 -0.859375 -0.40625q-0.421875 -0.15625 -0.765625 -0.15625q-0.390625 0 -0.71875 0.078125q-0.3125 0.0625 -0.53125 0.21875q-0.203125 0.140625 -0.328125 0.375q-0.109375 0.21875 -0.109375 0.5q0.015625 0.234375 0.125 0.453125q0.109375 0.21875 0.296875 0.359375q0.203125 0.15625 0.609375 0.328125q0.40625 0.15625 1.046875 0.3125q0.921875 0.234375 1.53125 0.53125q0.609375 0.28125 0.96875 0.65625q0.375 0.359375 0.515625 0.828125q0.15625 0.46875 0.15625 1.046875q0 0.828125 -0.484375 1.5q-0.46875 0.65625 -1.28125 1.03125q-0.796875 0.375 -1.78125 0.375zm9.108215 0q-1.046875 0 -1.828125 -0.484375q-0.765625 -0.484375 -1.1875 -1.359375q-0.421875 -0.875 -0.421875 -2.09375l0 -6.046875l1.921875 0l0 5.53125q0 0.84375 0.265625 1.46875q0.28125 0.625 0.78125 0.96875q0.515625 0.328125 1.25 0.328125q0.53125 0 0.984375 -0.171875q0.453125 -0.171875 0.78125 -0.484375q0.328125 -0.328125 0.5 -0.765625q0.1875 -0.453125 0.1875 -0.984375l0 -5.890625l1.921875 0l0 9.796875l-1.921875 0l0 -2.046875l0.34375 -0.234375q-0.21875 0.703125 -0.75 1.265625q-0.53125 0.546875 -1.265625 0.875q-0.734375 0.328125 -1.5625 0.328125zm13.005798 0q-0.640625 0 -1.265625 -0.203125q-0.625 -0.203125 -1.140625 -0.546875q-0.515625 -0.359375 -0.859375 -0.765625q-0.34375 -0.421875 -0.453125 -0.859375l0.484375 -0.25l0 2.375l-1.921875 0l0 -13.75l1.921875 0l0 6.25l-0.296875 -0.15625q0.09375 -0.4375 0.40625 -0.828125q0.3125 -0.40625 0.8125 -0.734375q0.5 -0.328125 1.078125 -0.515625q0.578125 -0.203125 1.171875 -0.203125q1.328125 0 2.34375 0.65625q1.03125 0.65625 1.625 1.796875q0.59375 1.140625 0.59375 2.625q0 1.46875 -0.59375 2.625q-0.578125 1.15625 -1.609375 1.828125q-1.015625 0.65625 -2.296875 0.65625zm-0.328125 -1.75q0.859375 0 1.53125 -0.4375q0.671875 -0.4375 1.0625 -1.1875q0.390625 -0.765625 0.390625 -1.734375q0 -0.953125 -0.390625 -1.703125q-0.375 -0.765625 -1.046875 -1.1875q-0.671875 -0.4375 -1.546875 -0.4375q-0.875 0 -1.546875 0.4375q-0.671875 0.421875 -1.0625 1.1875q-0.390625 0.75 -0.390625 1.703125q0 0.96875 0.390625 1.734375q0.390625 0.75 1.0625 1.1875q0.671875 0.4375 1.546875 0.4375zm10.190918 1.75q-1.234375 0 -2.21875 -0.421875q-0.984375 -0.4375 -1.640625 -1.28125l1.296875 -1.109375q0.5625 0.640625 1.21875 0.9375q0.671875 0.28125 1.515625 0.28125q0.328125 0 0.609375 -0.078125q0.296875 -0.078125 0.515625 -0.25q0.21875 -0.171875 0.328125 -0.40625q0.109375 -0.234375 0.109375 -0.515625q0 -0.484375 -0.359375 -0.78125q-0.1875 -0.125 -0.59375 -0.28125q-0.390625 -0.15625 -1.03125 -0.328125q-1.078125 -0.28125 -1.765625 -0.625q-0.6875 -0.359375 -1.0625 -0.8125q-0.28125 -0.359375 -0.421875 -0.765625q-0.125 -0.421875 -0.125 -0.9375q0 -0.609375 0.265625 -1.125q0.28125 -0.515625 0.75 -0.890625q0.484375 -0.390625 1.125 -0.59375q0.640625 -0.203125 1.375 -0.203125q0.6875 0 1.359375 0.1875q0.6875 0.1875 1.265625 0.546875q0.578125 0.34375 0.96875 0.828125l-1.09375 1.21875q-0.359375 -0.359375 -0.78125 -0.625q-0.421875 -0.265625 -0.859375 -0.40625q-0.421875 -0.15625 -0.765625 -0.15625q-0.390625 0 -0.71875 0.078125q-0.3125 0.0625 -0.53125 0.21875q-0.203125 0.140625 -0.328125 0.375q-0.109375 0.21875 -0.109375 0.5q0.015625 0.234375 0.125 0.453125q0.109375 0.21875 0.296875 0.359375q0.203125 0.15625 0.609375 0.328125q0.40625 0.15625 1.046875 0.3125q0.921875 0.234375 1.53125 0.53125q0.609375 0.28125 0.96875 0.65625q0.375 0.359375 0.515625 0.828125q0.15625 0.46875 0.15625 1.046875q0 0.828125 -0.484375 1.5q-0.46875 0.65625 -1.28125 1.03125q-0.796875 0.375 -1.78125 0.375zm10.233215 0q-1.5 0 -2.671875 -0.640625q-1.15625 -0.640625 -1.828125 -1.765625q-0.65625 -1.125 -0.65625 -2.578125q0 -1.15625 0.375 -2.109375q0.375 -0.953125 1.03125 -1.640625q0.65625 -0.703125 1.578125 -1.078125q0.9375 -0.390625 2.015625 -0.390625q0.953125 0 1.765625 0.359375q0.828125 0.359375 1.421875 1.0q0.609375 0.640625 0.9375 1.515625q0.328125 0.859375 0.3125 1.875l-0.015625 0.828125l-8.0 0l-0.4375 -1.53125l6.765625 0l-0.265625 0.3125l0 -0.4375q-0.0625 -0.625 -0.421875 -1.109375q-0.34375 -0.484375 -0.890625 -0.765625q-0.546875 -0.28125 -1.171875 -0.28125q-1.015625 0 -1.703125 0.390625q-0.6875 0.375 -1.046875 1.125q-0.34375 0.734375 -0.34375 1.8125q0 1.015625 0.421875 1.78125q0.421875 0.75 1.203125 1.171875q0.796875 0.40625 1.8125 0.40625q0.734375 0 1.359375 -0.234375q0.625 -0.25 1.359375 -0.890625l0.96875 1.359375q-0.453125 0.453125 -1.09375 0.796875q-0.640625 0.328125 -1.359375 0.53125q-0.71875 0.1875 -1.421875 0.1875zm7.588806 -0.1875l0 -12.296875l1.921875 0l0 12.296875l-1.921875 0zm-2.046875 -7.921875l0 -1.875l6.234375 0l0 1.875l-6.234375 0zm17.622131 8.109375q-1.4375 0 -2.578125 -0.65625q-1.125 -0.671875 -1.78125 -1.8125q-0.640625 -1.15625 -0.640625 -2.625q0 -1.46875 0.640625 -2.609375q0.65625 -1.15625 1.78125 -1.8125q1.140625 -0.671875 2.578125 -0.671875q1.40625 0 2.53125 0.671875q1.140625 0.65625 1.796875 1.8125q0.65625 1.140625 0.65625 2.609375q0 1.46875 -0.65625 2.625q-0.65625 1.140625 -1.796875 1.8125q-1.125 0.65625 -2.53125 0.65625zm0 -1.75q0.875 0 1.5625 -0.4375q0.6875 -0.4375 1.078125 -1.1875q0.390625 -0.765625 0.375 -1.71875q0.015625 -0.96875 -0.375 -1.71875q-0.390625 -0.765625 -1.078125 -1.1875q-0.6875 -0.4375 -1.5625 -0.4375q-0.875 0 -1.578125 0.4375q-0.703125 0.4375 -1.09375 1.203125q-0.390625 0.75 -0.375 1.703125q-0.015625 0.953125 0.375 1.71875q0.390625 0.75 1.09375 1.1875q0.703125 0.4375 1.578125 0.4375zm7.756531 1.5625l0 -10.890625q0 -0.84375 0.375 -1.5q0.375 -0.65625 1.015625 -1.015625q0.65625 -0.375 1.515625 -0.375q0.59375 0 1.109375 0.21875q0.53125 0.21875 0.859375 0.59375l-0.65625 1.46875q-0.25 -0.21875 -0.546875 -0.359375q-0.28125 -0.140625 -0.53125 -0.140625q-0.390625 0 -0.671875 0.125q-0.265625 0.125 -0.40625 0.375q-0.125 0.25 -0.125 0.609375l0 10.890625l-0.96875 0q-0.234375 0 -0.484375 0q-0.234375 0 -0.484375 0zm-1.5625 -7.859375l0 -1.765625l5.8125 0l0 1.765625l-5.8125 0zm14.274414 7.859375l0 -12.296875l1.921875 0l0 12.296875l-1.921875 0zm-2.046875 -7.921875l0 -1.875l6.234375 0l0 1.875l-6.234375 0zm7.9921265 7.921875l0 -13.8125l1.921875 0l0 6.03125l-0.34375 0.21875q0.1875 -0.640625 0.734375 -1.1875q0.546875 -0.5625 1.28125 -0.90625q0.75 -0.34375 1.53125 -0.34375q1.125 0 1.859375 0.4375q0.75 0.4375 1.125 1.34375q0.375 0.890625 0.375 2.25l0 5.96875l-1.921875 0l0 -5.84375q0 -0.828125 -0.21875 -1.375q-0.21875 -0.5625 -0.6875 -0.8125q-0.46875 -0.25 -1.15625 -0.21875q-0.5625 0 -1.03125 0.1875q-0.46875 0.171875 -0.8125 0.5q-0.34375 0.3125 -0.546875 0.734375q-0.1875 0.40625 -0.1875 0.890625l0 5.9375l-0.953125 0q-0.234375 0 -0.484375 0q-0.25 0 -0.484375 0zm15.662964 0.1875q-1.5 0 -2.671875 -0.640625q-1.15625 -0.640625 -1.828125 -1.765625q-0.65625 -1.125 -0.65625 -2.578125q0 -1.15625 0.375 -2.109375q0.375 -0.953125 1.03125 -1.640625q0.65625 -0.703125 1.578125 -1.078125q0.9375 -0.390625 2.015625 -0.390625q0.953125 0 1.765625 0.359375q0.828125 0.359375 1.421875 1.0q0.609375 0.640625 0.9375 1.515625q0.328125 0.859375 0.3125 1.875l-0.015625 0.828125l-8.0 0l-0.4375 -1.53125l6.765625 0l-0.265625 0.3125l0 -0.4375q-0.0625 -0.625 -0.421875 -1.109375q-0.34375 -0.484375 -0.890625 -0.765625q-0.546875 -0.28125 -1.171875 -0.28125q-1.015625 0 -1.703125 0.390625q-0.6875 0.375 -1.046875 1.125q-0.34375 0.734375 -0.34375 1.8125q0 1.015625 0.421875 1.78125q0.421875 0.75 1.203125 1.171875q0.796875 0.40625 1.8125 0.40625q0.734375 0 1.359375 -0.234375q0.625 -0.25 1.359375 -0.890625l0.96875 1.359375q-0.453125 0.453125 -1.09375 0.796875q-0.640625 0.328125 -1.359375 0.53125q-0.71875 0.1875 -1.421875 0.1875z" fill-rule="nonzero"/><path fill="#595959" d="m542.3039 120.24467l0 -10.890625q0 -0.84375 0.375 -1.5q0.375 -0.65625 1.015625 -1.015625q0.65625 -0.375 1.515625 -0.375q0.59375 0 1.109375 0.21875q0.53125 0.21875 0.859375 0.59375l-0.65625 1.46875q-0.25 -0.21875 -0.546875 -0.359375q-0.28125 -0.140625 -0.53125 -0.140625q-0.390625 0 -0.671875 0.125q-0.265625 0.125 -0.40625 0.375q-0.125 0.25 -0.125 0.609375l0 10.890625l-0.96875 0q-0.234375 0 -0.484375 0q-0.234375 0 -0.484375 0zm-1.5625 -7.859375l0 -1.765625l5.8125 0l0 1.765625l-5.8125 0zm7.831909 7.859375l0 -9.796875l1.9375 0l0 3.078125l-0.1875 -0.75q0.203125 -0.703125 0.703125 -1.28125q0.5 -0.578125 1.140625 -0.90625q0.640625 -0.34375 1.328125 -0.34375q0.3125 0 0.59375 0.0625q0.296875 0.046875 0.46875 0.125l-0.5 2.09375q-0.21875 -0.09375 -0.5 -0.15625q-0.265625 -0.078125 -0.53125 -0.078125q-0.5 0 -0.953125 0.203125q-0.453125 0.1875 -0.8125 0.546875q-0.34375 0.34375 -0.546875 0.796875q-0.203125 0.453125 -0.203125 1.0l0 5.40625l-1.9375 0zm10.873413 0.1875q-1.203125 0 -2.203125 -0.671875q-1.0 -0.671875 -1.609375 -1.828125q-0.59375 -1.15625 -0.59375 -2.609375q0 -1.484375 0.609375 -2.625q0.609375 -1.140625 1.640625 -1.796875q1.046875 -0.65625 2.328125 -0.65625q0.765625 0 1.390625 0.234375q0.640625 0.21875 1.109375 0.625q0.484375 0.390625 0.78125 0.921875q0.3125 0.515625 0.390625 1.109375l-0.421875 -0.140625l0 -2.546875l1.9375 0l0 9.796875l-1.9375 0l0 -2.328125l0.4375 -0.140625q-0.109375 0.515625 -0.453125 1.0q-0.34375 0.46875 -0.875 0.84375q-0.53125 0.359375 -1.171875 0.59375q-0.640625 0.21875 -1.359375 0.21875zm0.5 -1.765625q0.890625 0 1.546875 -0.421875q0.671875 -0.4375 1.046875 -1.1875q0.390625 -0.765625 0.390625 -1.734375q0 -0.953125 -0.390625 -1.703125q-0.375 -0.75 -1.046875 -1.171875q-0.65625 -0.4375 -1.546875 -0.4375q-0.859375 0 -1.515625 0.4375q-0.65625 0.421875 -1.046875 1.171875q-0.375 0.75 -0.375 1.703125q0 0.96875 0.375 1.734375q0.390625 0.75 1.046875 1.1875q0.65625 0.421875 1.515625 0.421875zm7.512512 1.578125l0 -9.796875l1.9375 0l0 2.09375l-0.359375 0.21875q0.15625 -0.484375 0.46875 -0.921875q0.328125 -0.453125 0.796875 -0.796875q0.484375 -0.34375 1.03125 -0.546875q0.5625 -0.21875 1.140625 -0.21875q0.828125 0 1.46875 0.28125q0.640625 0.28125 1.046875 0.84375q0.40625 0.5625 0.59375 1.40625l-0.296875 -0.078125l0.125 -0.3125q0.21875 -0.4375 0.578125 -0.8125q0.359375 -0.390625 0.828125 -0.6875q0.46875 -0.296875 0.984375 -0.46875q0.53125 -0.171875 1.03125 -0.171875q1.09375 0 1.8125 0.453125q0.71875 0.453125 1.078125 1.375q0.375 0.90625 0.375 2.265625l0 5.875l-1.9375 0l0 -5.765625q0 -0.84375 -0.21875 -1.375q-0.21875 -0.53125 -0.65625 -0.78125q-0.421875 -0.265625 -1.09375 -0.265625q-0.515625 0 -0.984375 0.1875q-0.453125 0.171875 -0.796875 0.484375q-0.328125 0.3125 -0.515625 0.734375q-0.171875 0.421875 -0.171875 0.921875l0 5.859375l-1.953125 0l0 -5.796875q0 -0.765625 -0.21875 -1.296875q-0.21875 -0.53125 -0.65625 -0.8125q-0.421875 -0.28125 -1.046875 -0.28125q-0.515625 0 -0.96875 0.1875q-0.4375 0.171875 -0.78125 0.484375q-0.328125 0.296875 -0.515625 0.71875q-0.1875 0.421875 -0.1875 0.90625l0 5.890625l-1.9375 0zm21.776184 0.1875q-1.5 0 -2.671875 -0.640625q-1.15625 -0.640625 -1.828125 -1.765625q-0.65625 -1.125 -0.65625 -2.578125q0 -1.15625 0.375 -2.109375q0.375 -0.953125 1.03125 -1.640625q0.65625 -0.703125 1.578125 -1.078125q0.9375 -0.390625 2.015625 -0.390625q0.953125 0 1.765625 0.359375q0.828125 0.359375 1.421875 1.0q0.609375 0.640625 0.9375 1.515625q0.328125 0.859375 0.3125 1.875l-0.015625 0.828125l-8.0 0l-0.4375 -1.53125l6.765625 0l-0.265625 0.3125l0 -0.4375q-0.0625 -0.625 -0.421875 -1.109375q-0.34375 -0.484375 -0.890625 -0.765625q-0.546875 -0.28125 -1.171875 -0.28125q-1.015625 0 -1.703125 0.390625q-0.6875 0.375 -1.046875 1.125q-0.34375 0.734375 -0.34375 1.8125q0 1.015625 0.421875 1.78125q0.421875 0.75 1.203125 1.171875q0.796875 0.40625 1.8125 0.40625q0.734375 0 1.359375 -0.234375q0.625 -0.25 1.359375 -0.890625l0.96875 1.359375q-0.453125 0.453125 -1.09375 0.796875q-0.640625 0.328125 -1.359375 0.53125q-0.71875 0.1875 -1.421875 0.1875zm5.354431 2.28125l7.6875 -15.53125l1.859375 0l-7.671875 15.53125l-1.875 0zm11.407166 1.640625l0 -13.90625l1.9375 0l0 2.234375l-0.296875 -0.15625q0.109375 -0.5625 0.625 -1.078125q0.53125 -0.515625 1.28125 -0.84375q0.765625 -0.328125 1.5625 -0.328125q1.328125 0 2.34375 0.65625q1.03125 0.65625 1.625 1.796875q0.609375 1.140625 0.609375 2.609375q0 1.453125 -0.59375 2.609375q-0.59375 1.140625 -1.625 1.8125q-1.015625 0.65625 -2.296875 0.65625q-0.859375 0 -1.671875 -0.34375q-0.796875 -0.34375 -1.359375 -0.890625q-0.5625 -0.546875 -0.6875 -1.125l0.484375 -0.25l0 6.546875l-1.9375 0zm4.84375 -5.71875q0.859375 0 1.53125 -0.421875q0.671875 -0.4375 1.0625 -1.171875q0.390625 -0.75 0.390625 -1.703125q0 -0.953125 -0.390625 -1.6875q-0.375 -0.734375 -1.046875 -1.15625q-0.65625 -0.4375 -1.546875 -0.4375q-0.875 0 -1.546875 0.421875q-0.671875 0.421875 -1.0625 1.171875q-0.390625 0.734375 -0.390625 1.6875q0 0.953125 0.390625 1.703125q0.390625 0.734375 1.0625 1.171875q0.671875 0.421875 1.546875 0.421875zm11.334595 1.796875q-1.4375 0 -2.578125 -0.65625q-1.125 -0.671875 -1.78125 -1.8125q-0.640625 -1.15625 -0.640625 -2.625q0 -1.46875 0.640625 -2.609375q0.65625 -1.15625 1.78125 -1.8125q1.140625 -0.671875 2.578125 -0.671875q1.40625 0 2.53125 0.671875q1.140625 0.65625 1.796875 1.8125q0.65625 1.140625 0.65625 2.609375q0 1.46875 -0.65625 2.625q-0.65625 1.140625 -1.796875 1.8125q-1.125 0.65625 -2.53125 0.65625zm0 -1.75q0.875 0 1.5625 -0.4375q0.6875 -0.4375 1.078125 -1.1875q0.390625 -0.765625 0.375 -1.71875q0.015625 -0.96875 -0.375 -1.71875q-0.390625 -0.765625 -1.078125 -1.1875q-0.6875 -0.4375 -1.5625 -0.4375q-0.875 0 -1.578125 0.4375q-0.703125 0.4375 -1.09375 1.203125q-0.390625 0.75 -0.375 1.703125q-0.015625 0.953125 0.375 1.71875q0.390625 0.75 1.09375 1.1875q0.703125 0.4375 1.578125 0.4375zm7.067383 5.671875l0 -13.90625l1.9375 0l0 2.234375l-0.296875 -0.15625q0.109375 -0.5625 0.625 -1.078125q0.53125 -0.515625 1.28125 -0.84375q0.765625 -0.328125 1.5625 -0.328125q1.328125 0 2.34375 0.65625q1.03125 0.65625 1.625 1.796875q0.609375 1.140625 0.609375 2.609375q0 1.453125 -0.59375 2.609375q-0.59375 1.140625 -1.625 1.8125q-1.015625 0.65625 -2.296875 0.65625q-0.859375 0 -1.671875 -0.34375q-0.796875 -0.34375 -1.359375 -0.890625q-0.5625 -0.546875 -0.6875 -1.125l0.484375 -0.25l0 6.546875l-1.9375 0zm4.84375 -5.71875q0.859375 0 1.53125 -0.421875q0.671875 -0.4375 1.0625 -1.171875q0.390625 -0.75 0.390625 -1.703125q0 -0.953125 -0.390625 -1.6875q-0.375 -0.734375 -1.046875 -1.15625q-0.65625 -0.4375 -1.546875 -0.4375q-0.875 0 -1.546875 0.421875q-0.671875 0.421875 -1.0625 1.171875q-0.390625 0.734375 -0.390625 1.6875q0 0.953125 0.390625 1.703125q0.390625 0.734375 1.0625 1.171875q0.671875 0.421875 1.546875 0.421875zm7.7095947 1.8125q-0.609375 0 -0.953125 -0.359375q-0.328125 -0.359375 -0.328125 -1.03125q0 -0.625 0.34375 -1.015625q0.359375 -0.390625 0.9375 -0.390625q0.625 0 0.953125 0.375q0.34375 0.359375 0.34375 1.03125q0 0.609375 -0.359375 1.0q-0.359375 0.390625 -0.9375 0.390625z" fill-rule="nonzero"/></g></svg>