<svg version="1.1" viewBox="0.0 0.0 748.997375328084 230.36220472440945" fill="none" stroke="none" stroke-linecap="square" stroke-miterlimit="10" xmlns:xlink="http://www.w3.org/1999/xlink" xmlns="http://www.w3.org/2000/svg"><clipPath id="p.0"><path d="m0 0l748.9974 0l0 230.3622l-748.9974 0l0 -230.3622z" clip-rule="nonzero"/></clipPath><g clip-path="url(#p.0)"><path fill="#000000" fill-opacity="0.0" d="m0 0l748.9974 0l0 230.3622l-748.9974 0z" fill-rule="evenodd"/><path fill="#eeeeee" d="m163.41733 69.115486l0 0c0 -4.461769 3.6169739 -8.078739 8.078735 -8.078739l0 0c2.1426086 0 4.1974792 0.8511505 5.7125244 2.3662071c1.5150604 1.5150604 2.366211 3.5699158 2.366211 5.712532l0 0c0 4.4617615 -3.6169739 8.078743 -8.078735 8.078743l0 0c-4.4617615 0 -8.078735 -3.6169815 -8.078735 -8.078743z" fill-rule="evenodd"/><path stroke="#212121" stroke-width="3.0" stroke-linejoin="round" stroke-linecap="butt" d="m163.41733 69.115486l0 0c0 -4.461769 3.6169739 -8.078739 8.078735 -8.078739l0 0c2.1426086 0 4.1974792 0.8511505 5.7125244 2.3662071c1.5150604 1.5150604 2.366211 3.5699158 2.366211 5.712532l0 0c0 4.4617615 -3.6169739 8.078743 -8.078735 8.078743l0 0c-4.4617615 0 -8.078735 -3.6169815 -8.078735 -8.078743z" fill-rule="evenodd"/><path fill="#eeeeee" d="m188.16273 69.115486l0 0c0 -4.461769 3.6169739 -8.078739 8.078735 -8.078739l0 0c2.1426086 0 4.1974792 0.8511505 5.7125244 2.3662071c1.5150604 1.5150604 2.366211 3.5699158 2.366211 5.712532l0 0c0 4.4617615 -3.6169739 8.078743 -8.078735 8.078743l0 0c-4.4617615 0 -8.078735 -3.6169815 -8.078735 -8.078743z" fill-rule="evenodd"/><path stroke="#212121" stroke-width="3.0" stroke-linejoin="round" stroke-linecap="butt" d="m188.16273 69.115486l0 0c0 -4.461769 3.6169739 -8.078739 8.078735 -8.078739l0 0c2.1426086 0 4.1974792 0.8511505 5.7125244 2.3662071c1.5150604 1.5150604 2.366211 3.5699158 2.366211 5.712532l0 0c0 4.4617615 -3.6169739 8.078743 -8.078735 8.078743l0 0c-4.4617615 0 -8.078735 -3.6169815 -8.078735 -8.078743z" fill-rule="evenodd"/><path fill="#eeeeee" d="m212.90814 69.115486l0 0c0 -4.461769 3.6169739 -8.078739 8.078735 -8.078739l0 0c2.1426086 0 4.1974792 0.8511505 5.7125244 2.3662071c1.5150604 1.5150604 2.366211 3.5699158 2.366211 5.712532l0 0c0 4.4617615 -3.6169739 8.078743 -8.078735 8.078743l0 0c-4.4617615 0 -8.078735 -3.6169815 -8.078735 -8.078743z" fill-rule="evenodd"/><path stroke="#212121" stroke-width="3.0" stroke-linejoin="round" stroke-linecap="butt" d="m212.90814 69.115486l0 0c0 -4.461769 3.6169739 -8.078739 8.078735 -8.078739l0 0c2.1426086 0 4.1974792 0.8511505 5.7125244 2.3662071c1.5150604 1.5150604 2.366211 3.5699158 2.366211 5.712532l0 0c0 4.4617615 -3.6169739 8.078743 -8.078735 8.078743l0 0c-4.4617615 0 -8.078735 -3.6169815 -8.078735 -8.078743z" fill-rule="evenodd"/><path fill="#eeeeee" d="m237.65355 69.115486l0 0c0 -4.461769 3.6169739 -8.078739 8.078735 -8.078739l0 0c2.1426086 0 4.1974792 0.8511505 5.7125244 2.3662071c1.5150604 1.5150604 2.366211 3.5699158 2.366211 5.712532l0 0c0 4.4617615 -3.6169739 8.078743 -8.078735 8.078743l0 0c-4.4617615 0 -8.078735 -3.6169815 -8.078735 -8.078743z" fill-rule="evenodd"/><path stroke="#212121" stroke-width="3.0" stroke-linejoin="round" stroke-linecap="butt" d="m237.65355 69.115486l0 0c0 -4.461769 3.6169739 -8.078739 8.078735 -8.078739l0 0c2.1426086 0 4.1974792 0.8511505 5.7125244 2.3662071c1.5150604 1.5150604 2.366211 3.5699158 2.366211 5.712532l0 0c0 4.4617615 -3.6169739 8.078743 -8.078735 8.078743l0 0c-4.4617615 0 -8.078735 -3.6169815 -8.078735 -8.078743z" fill-rule="evenodd"/><path fill="#eeeeee" d="m263.72702 69.115486l0 0c0 -4.461769 3.6169739 -8.078739 8.078766 -8.078739l0 0c2.1426086 0 4.1974487 0.8511505 5.7125244 2.3662071c1.5150452 1.5150604 2.366211 3.5699158 2.366211 5.712532l0 0c0 4.4617615 -3.6169739 8.078743 -8.078735 8.078743l0 0c-4.461792 0 -8.078766 -3.6169815 -8.078766 -8.078743z" fill-rule="evenodd"/><path stroke="#212121" stroke-width="3.0" stroke-linejoin="round" stroke-linecap="butt" d="m263.72702 69.115486l0 0c0 -4.461769 3.6169739 -8.078739 8.078766 -8.078739l0 0c2.1426086 0 4.1974487 0.8511505 5.7125244 2.3662071c1.5150452 1.5150604 2.366211 3.5699158 2.366211 5.712532l0 0c0 4.4617615 -3.6169739 8.078743 -8.078735 8.078743l0 0c-4.461792 0 -8.078766 -3.6169815 -8.078766 -8.078743z" fill-rule="evenodd"/><path fill="#eeeeee" d="m289.80054 69.115486l0 0c0 -4.461769 3.6169739 -8.078739 8.078735 -8.078739l0 0c2.1426086 0 4.1974792 0.8511505 5.7125244 2.3662071c1.5150452 1.5150604 2.366211 3.5699158 2.366211 5.712532l0 0c0 4.4617615 -3.6169739 8.078743 -8.078735 8.078743l0 0c-4.4617615 0 -8.078735 -3.6169815 -8.078735 -8.078743z" fill-rule="evenodd"/><path stroke="#212121" stroke-width="3.0" stroke-linejoin="round" stroke-linecap="butt" d="m289.80054 69.115486l0 0c0 -4.461769 3.6169739 -8.078739 8.078735 -8.078739l0 0c2.1426086 0 4.1974792 0.8511505 5.7125244 2.3662071c1.5150452 1.5150604 2.366211 3.5699158 2.366211 5.712532l0 0c0 4.4617615 -3.6169739 8.078743 -8.078735 8.078743l0 0c-4.4617615 0 -8.078735 -3.6169815 -8.078735 -8.078743z" fill-rule="evenodd"/><path fill="#eeeeee" d="m315.87402 69.115486l0 0c0 -4.461769 3.6169739 -8.078739 8.078735 -8.078739l0 0c2.1426086 0 4.1974792 0.8511505 5.7125244 2.3662071c1.5150757 1.5150604 2.366211 3.5699158 2.366211 5.712532l0 0c0 4.4617615 -3.6169739 8.078743 -8.078735 8.078743l0 0c-4.4617615 0 -8.078735 -3.6169815 -8.078735 -8.078743z" fill-rule="evenodd"/><path stroke="#212121" stroke-width="3.0" stroke-linejoin="round" stroke-linecap="butt" d="m315.87402 69.115486l0 0c0 -4.461769 3.6169739 -8.078739 8.078735 -8.078739l0 0c2.1426086 0 4.1974792 0.8511505 5.7125244 2.3662071c1.5150757 1.5150604 2.366211 3.5699158 2.366211 5.712532l0 0c0 4.4617615 -3.6169739 8.078743 -8.078735 8.078743l0 0c-4.4617615 0 -8.078735 -3.6169815 -8.078735 -8.078743z" fill-rule="evenodd"/><path fill="#eeeeee" d="m341.9475 69.115486l0 0c0 -4.461769 3.6169739 -8.078739 8.078735 -8.078739l0 0c2.1426086 0 4.1974792 0.8511505 5.7125244 2.3662071c1.5150757 1.5150604 2.366211 3.5699158 2.366211 5.712532l0 0c0 4.4617615 -3.6169739 8.078743 -8.078735 8.078743l0 0c-4.4617615 0 -8.078735 -3.6169815 -8.078735 -8.078743z" fill-rule="evenodd"/><path stroke="#212121" stroke-width="3.0" stroke-linejoin="round" stroke-linecap="butt" d="m341.9475 69.115486l0 0c0 -4.461769 3.6169739 -8.078739 8.078735 -8.078739l0 0c2.1426086 0 4.1974792 0.8511505 5.7125244 2.3662071c1.5150757 1.5150604 2.366211 3.5699158 2.366211 5.712532l0 0c0 4.4617615 -3.6169739 8.078743 -8.078735 8.078743l0 0c-4.4617615 0 -8.078735 -3.6169815 -8.078735 -8.078743z" fill-rule="evenodd"/><path fill="#eeeeee" d="m368.021 69.115486l0 0c0 -4.461769 3.6169739 -8.078739 8.078735 -8.078739l0 0c2.1426086 0 4.1974792 0.8511505 5.7125244 2.3662071c1.5150757 1.5150604 2.366211 3.5699158 2.366211 5.712532l0 0c0 4.4617615 -3.6169739 8.078743 -8.078735 8.078743l0 0c-4.4617615 0 -8.078735 -3.6169815 -8.078735 -8.078743z" fill-rule="evenodd"/><path stroke="#212121" stroke-width="3.0" stroke-linejoin="round" stroke-linecap="butt" d="m368.021 69.115486l0 0c0 -4.461769 3.6169739 -8.078739 8.078735 -8.078739l0 0c2.1426086 0 4.1974792 0.8511505 5.7125244 2.3662071c1.5150757 1.5150604 2.366211 3.5699158 2.366211 5.712532l0 0c0 4.4617615 -3.6169739 8.078743 -8.078735 8.078743l0 0c-4.4617615 0 -8.078735 -3.6169815 -8.078735 -8.078743z" fill-rule="evenodd"/><path fill="#eeeeee" d="m391.43832 69.115486l0 0c0 -4.461769 3.6169739 -8.078739 8.078735 -8.078739l0 0c2.1426086 0 4.1974792 0.8511505 5.7125244 2.3662071c1.5150757 1.5150604 2.366211 3.5699158 2.366211 5.712532l0 0c0 4.4617615 -3.6169739 8.078743 -8.078735 8.078743l0 0c-4.4617615 0 -8.078735 -3.6169815 -8.078735 -8.078743z" fill-rule="evenodd"/><path stroke="#212121" stroke-width="3.0" stroke-linejoin="round" stroke-linecap="butt" d="m391.43832 69.115486l0 0c0 -4.461769 3.6169739 -8.078739 8.078735 -8.078739l0 0c2.1426086 0 4.1974792 0.8511505 5.7125244 2.3662071c1.5150757 1.5150604 2.366211 3.5699158 2.366211 5.712532l0 0c0 4.4617615 -3.6169739 8.078743 -8.078735 8.078743l0 0c-4.4617615 0 -8.078735 -3.6169815 -8.078735 -8.078743z" fill-rule="evenodd"/><path fill="#eeeeee" d="m414.85565 69.115486l0 0c0 -4.461769 3.6169739 -8.078739 8.078735 -8.078739l0 0c2.1426086 0 4.1974792 0.8511505 5.7125244 2.3662071c1.5150757 1.5150604 2.366211 3.5699158 2.366211 5.712532l0 0c0 4.4617615 -3.6169739 8.078743 -8.078735 8.078743l0 0c-4.4617615 0 -8.078735 -3.6169815 -8.078735 -8.078743z" fill-rule="evenodd"/><path stroke="#212121" stroke-width="3.0" stroke-linejoin="round" stroke-linecap="butt" d="m414.85565 69.115486l0 0c0 -4.461769 3.6169739 -8.078739 8.078735 -8.078739l0 0c2.1426086 0 4.1974792 0.8511505 5.7125244 2.3662071c1.5150757 1.5150604 2.366211 3.5699158 2.366211 5.712532l0 0c0 4.4617615 -3.6169739 8.078743 -8.078735 8.078743l0 0c-4.4617615 0 -8.078735 -3.6169815 -8.078735 -8.078743z" fill-rule="evenodd"/><path fill="#eeeeee" d="m163.41733 92.7979l0 0c0 -4.4617615 3.6169739 -8.078735 8.078735 -8.078735l0 0c2.1426086 0 4.1974792 0.8511505 5.7125244 2.3662033c1.5150604 1.5150604 2.366211 3.5699234 2.366211 5.712532l0 0c0 4.461769 -3.6169739 8.078743 -8.078735 8.078743l0 0c-4.4617615 0 -8.078735 -3.6169739 -8.078735 -8.078743z" fill-rule="evenodd"/><path stroke="#212121" stroke-width="3.0" stroke-linejoin="round" stroke-linecap="butt" d="m163.41733 92.7979l0 0c0 -4.4617615 3.6169739 -8.078735 8.078735 -8.078735l0 0c2.1426086 0 4.1974792 0.8511505 5.7125244 2.3662033c1.5150604 1.5150604 2.366211 3.5699234 2.366211 5.712532l0 0c0 4.461769 -3.6169739 8.078743 -8.078735 8.078743l0 0c-4.4617615 0 -8.078735 -3.6169739 -8.078735 -8.078743z" fill-rule="evenodd"/><path fill="#eeeeee" d="m188.16273 92.7979l0 0c0 -4.4617615 3.6169739 -8.078735 8.078735 -8.078735l0 0c2.1426086 0 4.1974792 0.8511505 5.7125244 2.3662033c1.5150604 1.5150604 2.366211 3.5699234 2.366211 5.712532l0 0c0 4.461769 -3.6169739 8.078743 -8.078735 8.078743l0 0c-4.4617615 0 -8.078735 -3.6169739 -8.078735 -8.078743z" fill-rule="evenodd"/><path stroke="#212121" stroke-width="3.0" stroke-linejoin="round" stroke-linecap="butt" d="m188.16273 92.7979l0 0c0 -4.4617615 3.6169739 -8.078735 8.078735 -8.078735l0 0c2.1426086 0 4.1974792 0.8511505 5.7125244 2.3662033c1.5150604 1.5150604 2.366211 3.5699234 2.366211 5.712532l0 0c0 4.461769 -3.6169739 8.078743 -8.078735 8.078743l0 0c-4.4617615 0 -8.078735 -3.6169739 -8.078735 -8.078743z" fill-rule="evenodd"/><path fill="#eeeeee" d="m212.90814 92.7979l0 0c0 -4.4617615 3.6169739 -8.078735 8.078735 -8.078735l0 0c2.1426086 0 4.1974792 0.8511505 5.7125244 2.3662033c1.5150604 1.5150604 2.366211 3.5699234 2.366211 5.712532l0 0c0 4.461769 -3.6169739 8.078743 -8.078735 8.078743l0 0c-4.4617615 0 -8.078735 -3.6169739 -8.078735 -8.078743z" fill-rule="evenodd"/><path stroke="#212121" stroke-width="3.0" stroke-linejoin="round" stroke-linecap="butt" d="m212.90814 92.7979l0 0c0 -4.4617615 3.6169739 -8.078735 8.078735 -8.078735l0 0c2.1426086 0 4.1974792 0.8511505 5.7125244 2.3662033c1.5150604 1.5150604 2.366211 3.5699234 2.366211 5.712532l0 0c0 4.461769 -3.6169739 8.078743 -8.078735 8.078743l0 0c-4.4617615 0 -8.078735 -3.6169739 -8.078735 -8.078743z" fill-rule="evenodd"/><path fill="#eeeeee" d="m237.65355 92.7979l0 0c0 -4.4617615 3.6169739 -8.078735 8.078735 -8.078735l0 0c2.1426086 0 4.1974792 0.8511505 5.7125244 2.3662033c1.5150604 1.5150604 2.366211 3.5699234 2.366211 5.712532l0 0c0 4.461769 -3.6169739 8.078743 -8.078735 8.078743l0 0c-4.4617615 0 -8.078735 -3.6169739 -8.078735 -8.078743z" fill-rule="evenodd"/><path stroke="#212121" stroke-width="3.0" stroke-linejoin="round" stroke-linecap="butt" d="m237.65355 92.7979l0 0c0 -4.4617615 3.6169739 -8.078735 8.078735 -8.078735l0 0c2.1426086 0 4.1974792 0.8511505 5.7125244 2.3662033c1.5150604 1.5150604 2.366211 3.5699234 2.366211 5.712532l0 0c0 4.461769 -3.6169739 8.078743 -8.078735 8.078743l0 0c-4.4617615 0 -8.078735 -3.6169739 -8.078735 -8.078743z" fill-rule="evenodd"/><path fill="#eeeeee" d="m263.72702 92.7979l0 0c0 -4.4617615 3.6169739 -8.078735 8.078766 -8.078735l0 0c2.1426086 0 4.1974487 0.8511505 5.7125244 2.3662033c1.5150452 1.5150604 2.366211 3.5699234 2.366211 5.712532l0 0c0 4.461769 -3.6169739 8.078743 -8.078735 8.078743l0 0c-4.461792 0 -8.078766 -3.6169739 -8.078766 -8.078743z" fill-rule="evenodd"/><path stroke="#212121" stroke-width="3.0" stroke-linejoin="round" stroke-linecap="butt" d="m263.72702 92.7979l0 0c0 -4.4617615 3.6169739 -8.078735 8.078766 -8.078735l0 0c2.1426086 0 4.1974487 0.8511505 5.7125244 2.3662033c1.5150452 1.5150604 2.366211 3.5699234 2.366211 5.712532l0 0c0 4.461769 -3.6169739 8.078743 -8.078735 8.078743l0 0c-4.461792 0 -8.078766 -3.6169739 -8.078766 -8.078743z" fill-rule="evenodd"/><path fill="#eeeeee" d="m289.80054 92.7979l0 0c0 -4.4617615 3.6169739 -8.078735 8.078735 -8.078735l0 0c2.1426086 0 4.1974792 0.8511505 5.7125244 2.3662033c1.5150452 1.5150604 2.366211 3.5699234 2.366211 5.712532l0 0c0 4.461769 -3.6169739 8.078743 -8.078735 8.078743l0 0c-4.4617615 0 -8.078735 -3.6169739 -8.078735 -8.078743z" fill-rule="evenodd"/><path stroke="#212121" stroke-width="3.0" stroke-linejoin="round" stroke-linecap="butt" d="m289.80054 92.7979l0 0c0 -4.4617615 3.6169739 -8.078735 8.078735 -8.078735l0 0c2.1426086 0 4.1974792 0.8511505 5.7125244 2.3662033c1.5150452 1.5150604 2.366211 3.5699234 2.366211 5.712532l0 0c0 4.461769 -3.6169739 8.078743 -8.078735 8.078743l0 0c-4.4617615 0 -8.078735 -3.6169739 -8.078735 -8.078743z" fill-rule="evenodd"/><path fill="#eeeeee" d="m315.87402 92.7979l0 0c0 -4.4617615 3.6169739 -8.078735 8.078735 -8.078735l0 0c2.1426086 0 4.1974792 0.8511505 5.7125244 2.3662033c1.5150757 1.5150604 2.366211 3.5699234 2.366211 5.712532l0 0c0 4.461769 -3.6169739 8.078743 -8.078735 8.078743l0 0c-4.4617615 0 -8.078735 -3.6169739 -8.078735 -8.078743z" fill-rule="evenodd"/><path stroke="#212121" stroke-width="3.0" stroke-linejoin="round" stroke-linecap="butt" d="m315.87402 92.7979l0 0c0 -4.4617615 3.6169739 -8.078735 8.078735 -8.078735l0 0c2.1426086 0 4.1974792 0.8511505 5.7125244 2.3662033c1.5150757 1.5150604 2.366211 3.5699234 2.366211 5.712532l0 0c0 4.461769 -3.6169739 8.078743 -8.078735 8.078743l0 0c-4.4617615 0 -8.078735 -3.6169739 -8.078735 -8.078743z" fill-rule="evenodd"/><path fill="#eeeeee" d="m414.85565 92.7979l0 0c0 -4.4617615 3.6169739 -8.078735 8.078735 -8.078735l0 0c2.1426086 0 4.1974792 0.8511505 5.7125244 2.3662033c1.5150757 1.5150604 2.366211 3.5699234 2.366211 5.712532l0 0c0 4.461769 -3.6169739 8.078743 -8.078735 8.078743l0 0c-4.4617615 0 -8.078735 -3.6169739 -8.078735 -8.078743z" fill-rule="evenodd"/><path stroke="#212121" stroke-width="3.0" stroke-linejoin="round" stroke-linecap="butt" d="m414.85565 92.7979l0 0c0 -4.4617615 3.6169739 -8.078735 8.078735 -8.078735l0 0c2.1426086 0 4.1974792 0.8511505 5.7125244 2.3662033c1.5150757 1.5150604 2.366211 3.5699234 2.366211 5.712532l0 0c0 4.461769 -3.6169739 8.078743 -8.078735 8.078743l0 0c-4.4617615 0 -8.078735 -3.6169739 -8.078735 -8.078743z" fill-rule="evenodd"/><path fill="#eeeeee" d="m163.41733 116.480316l0 0c0 -4.461769 3.6169739 -8.078743 8.078735 -8.078743l0 0c2.1426086 0 4.1974792 0.8511505 5.7125244 2.366211c1.5150604 1.5150528 2.366211 3.5699158 2.366211 5.712532l0 0c0 4.4617615 -3.6169739 8.078735 -8.078735 8.078735l0 0c-4.4617615 0 -8.078735 -3.6169739 -8.078735 -8.078735z" fill-rule="evenodd"/><path stroke="#212121" stroke-width="3.0" stroke-linejoin="round" stroke-linecap="butt" d="m163.41733 116.480316l0 0c0 -4.461769 3.6169739 -8.078743 8.078735 -8.078743l0 0c2.1426086 0 4.1974792 0.8511505 5.7125244 2.366211c1.5150604 1.5150528 2.366211 3.5699158 2.366211 5.712532l0 0c0 4.4617615 -3.6169739 8.078735 -8.078735 8.078735l0 0c-4.4617615 0 -8.078735 -3.6169739 -8.078735 -8.078735z" fill-rule="evenodd"/><path fill="#eeeeee" d="m188.16273 116.480316l0 0c0 -4.461769 3.6169739 -8.078743 8.078735 -8.078743l0 0c2.1426086 0 4.1974792 0.8511505 5.7125244 2.366211c1.5150604 1.5150528 2.366211 3.5699158 2.366211 5.712532l0 0c0 4.4617615 -3.6169739 8.078735 -8.078735 8.078735l0 0c-4.4617615 0 -8.078735 -3.6169739 -8.078735 -8.078735z" fill-rule="evenodd"/><path stroke="#212121" stroke-width="3.0" stroke-linejoin="round" stroke-linecap="butt" d="m188.16273 116.480316l0 0c0 -4.461769 3.6169739 -8.078743 8.078735 -8.078743l0 0c2.1426086 0 4.1974792 0.8511505 5.7125244 2.366211c1.5150604 1.5150528 2.366211 3.5699158 2.366211 5.712532l0 0c0 4.4617615 -3.6169739 8.078735 -8.078735 8.078735l0 0c-4.4617615 0 -8.078735 -3.6169739 -8.078735 -8.078735z" fill-rule="evenodd"/><path fill="#eeeeee" d="m212.90814 116.480316l0 0c0 -4.461769 3.6169739 -8.078743 8.078735 -8.078743l0 0c2.1426086 0 4.1974792 0.8511505 5.7125244 2.366211c1.5150604 1.5150528 2.366211 3.5699158 2.366211 5.712532l0 0c0 4.4617615 -3.6169739 8.078735 -8.078735 8.078735l0 0c-4.4617615 0 -8.078735 -3.6169739 -8.078735 -8.078735z" fill-rule="evenodd"/><path stroke="#212121" stroke-width="3.0" stroke-linejoin="round" stroke-linecap="butt" d="m212.90814 116.480316l0 0c0 -4.461769 3.6169739 -8.078743 8.078735 -8.078743l0 0c2.1426086 0 4.1974792 0.8511505 5.7125244 2.366211c1.5150604 1.5150528 2.366211 3.5699158 2.366211 5.712532l0 0c0 4.4617615 -3.6169739 8.078735 -8.078735 8.078735l0 0c-4.4617615 0 -8.078735 -3.6169739 -8.078735 -8.078735z" fill-rule="evenodd"/><path fill="#eeeeee" d="m237.65355 116.480316l0 0c0 -4.461769 3.6169739 -8.078743 8.078735 -8.078743l0 0c2.1426086 0 4.1974792 0.8511505 5.7125244 2.366211c1.5150604 1.5150528 2.366211 3.5699158 2.366211 5.712532l0 0c0 4.4617615 -3.6169739 8.078735 -8.078735 8.078735l0 0c-4.4617615 0 -8.078735 -3.6169739 -8.078735 -8.078735z" fill-rule="evenodd"/><path stroke="#212121" stroke-width="3.0" stroke-linejoin="round" stroke-linecap="butt" d="m237.65355 116.480316l0 0c0 -4.461769 3.6169739 -8.078743 8.078735 -8.078743l0 0c2.1426086 0 4.1974792 0.8511505 5.7125244 2.366211c1.5150604 1.5150528 2.366211 3.5699158 2.366211 5.712532l0 0c0 4.4617615 -3.6169739 8.078735 -8.078735 8.078735l0 0c-4.4617615 0 -8.078735 -3.6169739 -8.078735 -8.078735z" fill-rule="evenodd"/><path fill="#eeeeee" d="m263.72702 116.480316l0 0c0 -4.461769 3.6169739 -8.078743 8.078766 -8.078743l0 0c2.1426086 0 4.1974487 0.8511505 5.7125244 2.366211c1.5150452 1.5150528 2.366211 3.5699158 2.366211 5.712532l0 0c0 4.4617615 -3.6169739 8.078735 -8.078735 8.078735l0 0c-4.461792 0 -8.078766 -3.6169739 -8.078766 -8.078735z" fill-rule="evenodd"/><path stroke="#212121" stroke-width="3.0" stroke-linejoin="round" stroke-linecap="butt" d="m263.72702 116.480316l0 0c0 -4.461769 3.6169739 -8.078743 8.078766 -8.078743l0 0c2.1426086 0 4.1974487 0.8511505 5.7125244 2.366211c1.5150452 1.5150528 2.366211 3.5699158 2.366211 5.712532l0 0c0 4.4617615 -3.6169739 8.078735 -8.078735 8.078735l0 0c-4.461792 0 -8.078766 -3.6169739 -8.078766 -8.078735z" fill-rule="evenodd"/><path fill="#eeeeee" d="m289.80054 116.480316l0 0c0 -4.461769 3.6169739 -8.078743 8.078735 -8.078743l0 0c2.1426086 0 4.1974792 0.8511505 5.7125244 2.366211c1.5150452 1.5150528 2.366211 3.5699158 2.366211 5.712532l0 0c0 4.4617615 -3.6169739 8.078735 -8.078735 8.078735l0 0c-4.4617615 0 -8.078735 -3.6169739 -8.078735 -8.078735z" fill-rule="evenodd"/><path stroke="#212121" stroke-width="3.0" stroke-linejoin="round" stroke-linecap="butt" d="m289.80054 116.480316l0 0c0 -4.461769 3.6169739 -8.078743 8.078735 -8.078743l0 0c2.1426086 0 4.1974792 0.8511505 5.7125244 2.366211c1.5150452 1.5150528 2.366211 3.5699158 2.366211 5.712532l0 0c0 4.4617615 -3.6169739 8.078735 -8.078735 8.078735l0 0c-4.4617615 0 -8.078735 -3.6169739 -8.078735 -8.078735z" fill-rule="evenodd"/><path fill="#6aa84f" d="m315.87402 116.480316l0 0c0 -4.461769 3.6169739 -8.078743 8.078735 -8.078743l0 0c2.1426086 0 4.1974792 0.8511505 5.7125244 2.366211c1.5150757 1.5150528 2.366211 3.5699158 2.366211 5.712532l0 0c0 4.4617615 -3.6169739 8.078735 -8.078735 8.078735l0 0c-4.4617615 0 -8.078735 -3.6169739 -8.078735 -8.078735z" fill-rule="evenodd"/><path stroke="#212121" stroke-width="3.0" stroke-linejoin="round" stroke-linecap="butt" d="m315.87402 116.480316l0 0c0 -4.461769 3.6169739 -8.078743 8.078735 -8.078743l0 0c2.1426086 0 4.1974792 0.8511505 5.7125244 2.366211c1.5150757 1.5150528 2.366211 3.5699158 2.366211 5.712532l0 0c0 4.4617615 -3.6169739 8.078735 -8.078735 8.078735l0 0c-4.4617615 0 -8.078735 -3.6169739 -8.078735 -8.078735z" fill-rule="evenodd"/><path fill="#6aa84f" d="m414.85565 116.480316l0 0c0 -4.461769 3.6169739 -8.078743 8.078735 -8.078743l0 0c2.1426086 0 4.1974792 0.8511505 5.7125244 2.366211c1.5150757 1.5150528 2.366211 3.5699158 2.366211 5.712532l0 0c0 4.4617615 -3.6169739 8.078735 -8.078735 8.078735l0 0c-4.4617615 0 -8.078735 -3.6169739 -8.078735 -8.078735z" fill-rule="evenodd"/><path stroke="#212121" stroke-width="3.0" stroke-linejoin="round" stroke-linecap="butt" d="m414.85565 116.480316l0 0c0 -4.461769 3.6169739 -8.078743 8.078735 -8.078743l0 0c2.1426086 0 4.1974792 0.8511505 5.7125244 2.366211c1.5150757 1.5150528 2.366211 3.5699158 2.366211 5.712532l0 0c0 4.4617615 -3.6169739 8.078735 -8.078735 8.078735l0 0c-4.4617615 0 -8.078735 -3.6169739 -8.078735 -8.078735z" fill-rule="evenodd"/><path fill="#eeeeee" d="m163.41733 140.16273l0 0c0 -4.4617767 3.6169739 -8.078751 8.078735 -8.078751l0 0c2.1426086 0 4.1974792 0.8511505 5.7125244 2.366211c1.5150604 1.5150604 2.366211 3.5699158 2.366211 5.7125397l0 0c0 4.4617615 -3.6169739 8.078735 -8.078735 8.078735l0 0c-4.4617615 0 -8.078735 -3.6169739 -8.078735 -8.078735z" fill-rule="evenodd"/><path stroke="#212121" stroke-width="3.0" stroke-linejoin="round" stroke-linecap="butt" d="m163.41733 140.16273l0 0c0 -4.4617767 3.6169739 -8.078751 8.078735 -8.078751l0 0c2.1426086 0 4.1974792 0.8511505 5.7125244 2.366211c1.5150604 1.5150604 2.366211 3.5699158 2.366211 5.7125397l0 0c0 4.4617615 -3.6169739 8.078735 -8.078735 8.078735l0 0c-4.4617615 0 -8.078735 -3.6169739 -8.078735 -8.078735z" fill-rule="evenodd"/><path fill="#eeeeee" d="m188.16273 140.16273l0 0c0 -4.4617767 3.6169739 -8.078751 8.078735 -8.078751l0 0c2.1426086 0 4.1974792 0.8511505 5.7125244 2.366211c1.5150604 1.5150604 2.366211 3.5699158 2.366211 5.7125397l0 0c0 4.4617615 -3.6169739 8.078735 -8.078735 8.078735l0 0c-4.4617615 0 -8.078735 -3.6169739 -8.078735 -8.078735z" fill-rule="evenodd"/><path stroke="#212121" stroke-width="3.0" stroke-linejoin="round" stroke-linecap="butt" d="m188.16273 140.16273l0 0c0 -4.4617767 3.6169739 -8.078751 8.078735 -8.078751l0 0c2.1426086 0 4.1974792 0.8511505 5.7125244 2.366211c1.5150604 1.5150604 2.366211 3.5699158 2.366211 5.7125397l0 0c0 4.4617615 -3.6169739 8.078735 -8.078735 8.078735l0 0c-4.4617615 0 -8.078735 -3.6169739 -8.078735 -8.078735z" fill-rule="evenodd"/><path fill="#eeeeee" d="m212.90814 140.16273l0 0c0 -4.4617767 3.6169739 -8.078751 8.078735 -8.078751l0 0c2.1426086 0 4.1974792 0.8511505 5.7125244 2.366211c1.5150604 1.5150604 2.366211 3.5699158 2.366211 5.7125397l0 0c0 4.4617615 -3.6169739 8.078735 -8.078735 8.078735l0 0c-4.4617615 0 -8.078735 -3.6169739 -8.078735 -8.078735z" fill-rule="evenodd"/><path stroke="#212121" stroke-width="3.0" stroke-linejoin="round" stroke-linecap="butt" d="m212.90814 140.16273l0 0c0 -4.4617767 3.6169739 -8.078751 8.078735 -8.078751l0 0c2.1426086 0 4.1974792 0.8511505 5.7125244 2.366211c1.5150604 1.5150604 2.366211 3.5699158 2.366211 5.7125397l0 0c0 4.4617615 -3.6169739 8.078735 -8.078735 8.078735l0 0c-4.4617615 0 -8.078735 -3.6169739 -8.078735 -8.078735z" fill-rule="evenodd"/><path fill="#eeeeee" d="m237.65355 140.16273l0 0c0 -4.4617767 3.6169739 -8.078751 8.078735 -8.078751l0 0c2.1426086 0 4.1974792 0.8511505 5.7125244 2.366211c1.5150604 1.5150604 2.366211 3.5699158 2.366211 5.7125397l0 0c0 4.4617615 -3.6169739 8.078735 -8.078735 8.078735l0 0c-4.4617615 0 -8.078735 -3.6169739 -8.078735 -8.078735z" fill-rule="evenodd"/><path stroke="#212121" stroke-width="3.0" stroke-linejoin="round" stroke-linecap="butt" d="m237.65355 140.16273l0 0c0 -4.4617767 3.6169739 -8.078751 8.078735 -8.078751l0 0c2.1426086 0 4.1974792 0.8511505 5.7125244 2.366211c1.5150604 1.5150604 2.366211 3.5699158 2.366211 5.7125397l0 0c0 4.4617615 -3.6169739 8.078735 -8.078735 8.078735l0 0c-4.4617615 0 -8.078735 -3.6169739 -8.078735 -8.078735z" fill-rule="evenodd"/><path fill="#eeeeee" d="m263.72702 140.16273l0 0c0 -4.4617767 3.6169739 -8.078751 8.078766 -8.078751l0 0c2.1426086 0 4.1974487 0.8511505 5.7125244 2.366211c1.5150452 1.5150604 2.366211 3.5699158 2.366211 5.7125397l0 0c0 4.4617615 -3.6169739 8.078735 -8.078735 8.078735l0 0c-4.461792 0 -8.078766 -3.6169739 -8.078766 -8.078735z" fill-rule="evenodd"/><path stroke="#212121" stroke-width="3.0" stroke-linejoin="round" stroke-linecap="butt" d="m263.72702 140.16273l0 0c0 -4.4617767 3.6169739 -8.078751 8.078766 -8.078751l0 0c2.1426086 0 4.1974487 0.8511505 5.7125244 2.366211c1.5150452 1.5150604 2.366211 3.5699158 2.366211 5.7125397l0 0c0 4.4617615 -3.6169739 8.078735 -8.078735 8.078735l0 0c-4.461792 0 -8.078766 -3.6169739 -8.078766 -8.078735z" fill-rule="evenodd"/><path fill="#eeeeee" d="m289.80054 140.16273l0 0c0 -4.4617767 3.6169739 -8.078751 8.078735 -8.078751l0 0c2.1426086 0 4.1974792 0.8511505 5.7125244 2.366211c1.5150452 1.5150604 2.366211 3.5699158 2.366211 5.7125397l0 0c0 4.4617615 -3.6169739 8.078735 -8.078735 8.078735l0 0c-4.4617615 0 -8.078735 -3.6169739 -8.078735 -8.078735z" fill-rule="evenodd"/><path stroke="#212121" stroke-width="3.0" stroke-linejoin="round" stroke-linecap="butt" d="m289.80054 140.16273l0 0c0 -4.4617767 3.6169739 -8.078751 8.078735 -8.078751l0 0c2.1426086 0 4.1974792 0.8511505 5.7125244 2.366211c1.5150452 1.5150604 2.366211 3.5699158 2.366211 5.7125397l0 0c0 4.4617615 -3.6169739 8.078735 -8.078735 8.078735l0 0c-4.4617615 0 -8.078735 -3.6169739 -8.078735 -8.078735z" fill-rule="evenodd"/><path fill="#eeeeee" d="m315.87402 140.16273l0 0c0 -4.4617767 3.6169739 -8.078751 8.078735 -8.078751l0 0c2.1426086 0 4.1974792 0.8511505 5.7125244 2.366211c1.5150757 1.5150604 2.366211 3.5699158 2.366211 5.7125397l0 0c0 4.4617615 -3.6169739 8.078735 -8.078735 8.078735l0 0c-4.4617615 0 -8.078735 -3.6169739 -8.078735 -8.078735z" fill-rule="evenodd"/><path stroke="#212121" stroke-width="3.0" stroke-linejoin="round" stroke-linecap="butt" d="m315.87402 140.16273l0 0c0 -4.4617767 3.6169739 -8.078751 8.078735 -8.078751l0 0c2.1426086 0 4.1974792 0.8511505 5.7125244 2.366211c1.5150757 1.5150604 2.366211 3.5699158 2.366211 5.7125397l0 0c0 4.4617615 -3.6169739 8.078735 -8.078735 8.078735l0 0c-4.4617615 0 -8.078735 -3.6169739 -8.078735 -8.078735z" fill-rule="evenodd"/><path fill="#6aa84f" d="m341.9475 140.16273l0 0c0 -4.4617767 3.6169739 -8.078751 8.078735 -8.078751l0 0c2.1426086 0 4.1974792 0.8511505 5.7125244 2.366211c1.5150757 1.5150604 2.366211 3.5699158 2.366211 5.7125397l0 0c0 4.4617615 -3.6169739 8.078735 -8.078735 8.078735l0 0c-4.4617615 0 -8.078735 -3.6169739 -8.078735 -8.078735z" fill-rule="evenodd"/><path stroke="#212121" stroke-width="3.0" stroke-linejoin="round" stroke-linecap="butt" d="m341.9475 140.16273l0 0c0 -4.4617767 3.6169739 -8.078751 8.078735 -8.078751l0 0c2.1426086 0 4.1974792 0.8511505 5.7125244 2.366211c1.5150757 1.5150604 2.366211 3.5699158 2.366211 5.7125397l0 0c0 4.4617615 -3.6169739 8.078735 -8.078735 8.078735l0 0c-4.4617615 0 -8.078735 -3.6169739 -8.078735 -8.078735z" fill-rule="evenodd"/><path fill="#6aa84f" d="m414.85565 140.16273l0 0c0 -4.4617767 3.6169739 -8.078751 8.078735 -8.078751l0 0c2.1426086 0 4.1974792 0.8511505 5.7125244 2.366211c1.5150757 1.5150604 2.366211 3.5699158 2.366211 5.7125397l0 0c0 4.4617615 -3.6169739 8.078735 -8.078735 8.078735l0 0c-4.4617615 0 -8.078735 -3.6169739 -8.078735 -8.078735z" fill-rule="evenodd"/><path stroke="#212121" stroke-width="3.0" stroke-linejoin="round" stroke-linecap="butt" d="m414.85565 140.16273l0 0c0 -4.4617767 3.6169739 -8.078751 8.078735 -8.078751l0 0c2.1426086 0 4.1974792 0.8511505 5.7125244 2.366211c1.5150757 1.5150604 2.366211 3.5699158 2.366211 5.7125397l0 0c0 4.4617615 -3.6169739 8.078735 -8.078735 8.078735l0 0c-4.4617615 0 -8.078735 -3.6169739 -8.078735 -8.078735z" fill-rule="evenodd"/><path fill="#eeeeee" d="m163.41733 163.84514l0 0c0 -4.4617615 3.6169739 -8.078735 8.078735 -8.078735l0 0c2.1426086 0 4.1974792 0.8511505 5.7125244 2.366211c1.5150604 1.5150604 2.366211 3.5699158 2.366211 5.7125244l0 0c0 4.4617767 -3.6169739 8.078751 -8.078735 8.078751l0 0c-4.4617615 0 -8.078735 -3.6169739 -8.078735 -8.078751z" fill-rule="evenodd"/><path stroke="#212121" stroke-width="3.0" stroke-linejoin="round" stroke-linecap="butt" d="m163.41733 163.84514l0 0c0 -4.4617615 3.6169739 -8.078735 8.078735 -8.078735l0 0c2.1426086 0 4.1974792 0.8511505 5.7125244 2.366211c1.5150604 1.5150604 2.366211 3.5699158 2.366211 5.7125244l0 0c0 4.4617767 -3.6169739 8.078751 -8.078735 8.078751l0 0c-4.4617615 0 -8.078735 -3.6169739 -8.078735 -8.078751z" fill-rule="evenodd"/><path fill="#eeeeee" d="m188.16273 163.84514l0 0c0 -4.4617615 3.6169739 -8.078735 8.078735 -8.078735l0 0c2.1426086 0 4.1974792 0.8511505 5.7125244 2.366211c1.5150604 1.5150604 2.366211 3.5699158 2.366211 5.7125244l0 0c0 4.4617767 -3.6169739 8.078751 -8.078735 8.078751l0 0c-4.4617615 0 -8.078735 -3.6169739 -8.078735 -8.078751z" fill-rule="evenodd"/><path stroke="#212121" stroke-width="3.0" stroke-linejoin="round" stroke-linecap="butt" d="m188.16273 163.84514l0 0c0 -4.4617615 3.6169739 -8.078735 8.078735 -8.078735l0 0c2.1426086 0 4.1974792 0.8511505 5.7125244 2.366211c1.5150604 1.5150604 2.366211 3.5699158 2.366211 5.7125244l0 0c0 4.4617767 -3.6169739 8.078751 -8.078735 8.078751l0 0c-4.4617615 0 -8.078735 -3.6169739 -8.078735 -8.078751z" fill-rule="evenodd"/><path fill="#eeeeee" d="m212.90814 163.84514l0 0c0 -4.4617615 3.6169739 -8.078735 8.078735 -8.078735l0 0c2.1426086 0 4.1974792 0.8511505 5.7125244 2.366211c1.5150604 1.5150604 2.366211 3.5699158 2.366211 5.7125244l0 0c0 4.4617767 -3.6169739 8.078751 -8.078735 8.078751l0 0c-4.4617615 0 -8.078735 -3.6169739 -8.078735 -8.078751z" fill-rule="evenodd"/><path stroke="#212121" stroke-width="3.0" stroke-linejoin="round" stroke-linecap="butt" d="m212.90814 163.84514l0 0c0 -4.4617615 3.6169739 -8.078735 8.078735 -8.078735l0 0c2.1426086 0 4.1974792 0.8511505 5.7125244 2.366211c1.5150604 1.5150604 2.366211 3.5699158 2.366211 5.7125244l0 0c0 4.4617767 -3.6169739 8.078751 -8.078735 8.078751l0 0c-4.4617615 0 -8.078735 -3.6169739 -8.078735 -8.078751z" fill-rule="evenodd"/><path fill="#eeeeee" d="m237.65355 163.84514l0 0c0 -4.4617615 3.6169739 -8.078735 8.078735 -8.078735l0 0c2.1426086 0 4.1974792 0.8511505 5.7125244 2.366211c1.5150604 1.5150604 2.366211 3.5699158 2.366211 5.7125244l0 0c0 4.4617767 -3.6169739 8.078751 -8.078735 8.078751l0 0c-4.4617615 0 -8.078735 -3.6169739 -8.078735 -8.078751z" fill-rule="evenodd"/><path stroke="#212121" stroke-width="3.0" stroke-linejoin="round" stroke-linecap="butt" d="m237.65355 163.84514l0 0c0 -4.4617615 3.6169739 -8.078735 8.078735 -8.078735l0 0c2.1426086 0 4.1974792 0.8511505 5.7125244 2.366211c1.5150604 1.5150604 2.366211 3.5699158 2.366211 5.7125244l0 0c0 4.4617767 -3.6169739 8.078751 -8.078735 8.078751l0 0c-4.4617615 0 -8.078735 -3.6169739 -8.078735 -8.078751z" fill-rule="evenodd"/><path fill="#eeeeee" d="m263.72702 163.84514l0 0c0 -4.4617615 3.6169739 -8.078735 8.078766 -8.078735l0 0c2.1426086 0 4.1974487 0.8511505 5.7125244 2.366211c1.5150452 1.5150604 2.366211 3.5699158 2.366211 5.7125244l0 0c0 4.4617767 -3.6169739 8.078751 -8.078735 8.078751l0 0c-4.461792 0 -8.078766 -3.6169739 -8.078766 -8.078751z" fill-rule="evenodd"/><path stroke="#212121" stroke-width="3.0" stroke-linejoin="round" stroke-linecap="butt" d="m263.72702 163.84514l0 0c0 -4.4617615 3.6169739 -8.078735 8.078766 -8.078735l0 0c2.1426086 0 4.1974487 0.8511505 5.7125244 2.366211c1.5150452 1.5150604 2.366211 3.5699158 2.366211 5.7125244l0 0c0 4.4617767 -3.6169739 8.078751 -8.078735 8.078751l0 0c-4.461792 0 -8.078766 -3.6169739 -8.078766 -8.078751z" fill-rule="evenodd"/><path fill="#eeeeee" d="m289.80054 163.84514l0 0c0 -4.4617615 3.6169739 -8.078735 8.078735 -8.078735l0 0c2.1426086 0 4.1974792 0.8511505 5.7125244 2.366211c1.5150452 1.5150604 2.366211 3.5699158 2.366211 5.7125244l0 0c0 4.4617767 -3.6169739 8.078751 -8.078735 8.078751l0 0c-4.4617615 0 -8.078735 -3.6169739 -8.078735 -8.078751z" fill-rule="evenodd"/><path stroke="#212121" stroke-width="3.0" stroke-linejoin="round" stroke-linecap="butt" d="m289.80054 163.84514l0 0c0 -4.4617615 3.6169739 -8.078735 8.078735 -8.078735l0 0c2.1426086 0 4.1974792 0.8511505 5.7125244 2.366211c1.5150452 1.5150604 2.366211 3.5699158 2.366211 5.7125244l0 0c0 4.4617767 -3.6169739 8.078751 -8.078735 8.078751l0 0c-4.4617615 0 -8.078735 -3.6169739 -8.078735 -8.078751z" fill-rule="evenodd"/><path fill="#eeeeee" d="m315.87402 163.84514l0 0c0 -4.4617615 3.6169739 -8.078735 8.078735 -8.078735l0 0c2.1426086 0 4.1974792 0.8511505 5.7125244 2.366211c1.5150757 1.5150604 2.366211 3.5699158 2.366211 5.7125244l0 0c0 4.4617767 -3.6169739 8.078751 -8.078735 8.078751l0 0c-4.4617615 0 -8.078735 -3.6169739 -8.078735 -8.078751z" fill-rule="evenodd"/><path stroke="#212121" stroke-width="3.0" stroke-linejoin="round" stroke-linecap="butt" d="m315.87402 163.84514l0 0c0 -4.4617615 3.6169739 -8.078735 8.078735 -8.078735l0 0c2.1426086 0 4.1974792 0.8511505 5.7125244 2.366211c1.5150757 1.5150604 2.366211 3.5699158 2.366211 5.7125244l0 0c0 4.4617767 -3.6169739 8.078751 -8.078735 8.078751l0 0c-4.4617615 0 -8.078735 -3.6169739 -8.078735 -8.078751z" fill-rule="evenodd"/><path fill="#eeeeee" d="m341.9475 163.84514l0 0c0 -4.4617615 3.6169739 -8.078735 8.078735 -8.078735l0 0c2.1426086 0 4.1974792 0.8511505 5.7125244 2.366211c1.5150757 1.5150604 2.366211 3.5699158 2.366211 5.7125244l0 0c0 4.4617767 -3.6169739 8.078751 -8.078735 8.078751l0 0c-4.4617615 0 -8.078735 -3.6169739 -8.078735 -8.078751z" fill-rule="evenodd"/><path stroke="#212121" stroke-width="3.0" stroke-linejoin="round" stroke-linecap="butt" d="m341.9475 163.84514l0 0c0 -4.4617615 3.6169739 -8.078735 8.078735 -8.078735l0 0c2.1426086 0 4.1974792 0.8511505 5.7125244 2.366211c1.5150757 1.5150604 2.366211 3.5699158 2.366211 5.7125244l0 0c0 4.4617767 -3.6169739 8.078751 -8.078735 8.078751l0 0c-4.4617615 0 -8.078735 -3.6169739 -8.078735 -8.078751z" fill-rule="evenodd"/><path fill="#eeeeee" d="m368.021 163.84514l0 0c0 -4.4617615 3.6169739 -8.078735 8.078735 -8.078735l0 0c2.1426086 0 4.1974792 0.8511505 5.7125244 2.366211c1.5150757 1.5150604 2.366211 3.5699158 2.366211 5.7125244l0 0c0 4.4617767 -3.6169739 8.078751 -8.078735 8.078751l0 0c-4.4617615 0 -8.078735 -3.6169739 -8.078735 -8.078751z" fill-rule="evenodd"/><path stroke="#212121" stroke-width="3.0" stroke-linejoin="round" stroke-linecap="butt" d="m368.021 163.84514l0 0c0 -4.4617615 3.6169739 -8.078735 8.078735 -8.078735l0 0c2.1426086 0 4.1974792 0.8511505 5.7125244 2.366211c1.5150757 1.5150604 2.366211 3.5699158 2.366211 5.7125244l0 0c0 4.4617767 -3.6169739 8.078751 -8.078735 8.078751l0 0c-4.4617615 0 -8.078735 -3.6169739 -8.078735 -8.078751z" fill-rule="evenodd"/><path fill="#eeeeee" d="m391.43832 163.84514l0 0c0 -4.4617615 3.6169739 -8.078735 8.078735 -8.078735l0 0c2.1426086 0 4.1974792 0.8511505 5.7125244 2.366211c1.5150757 1.5150604 2.366211 3.5699158 2.366211 5.7125244l0 0c0 4.4617767 -3.6169739 8.078751 -8.078735 8.078751l0 0c-4.4617615 0 -8.078735 -3.6169739 -8.078735 -8.078751z" fill-rule="evenodd"/><path stroke="#212121" stroke-width="3.0" stroke-linejoin="round" stroke-linecap="butt" d="m391.43832 163.84514l0 0c0 -4.4617615 3.6169739 -8.078735 8.078735 -8.078735l0 0c2.1426086 0 4.1974792 0.8511505 5.7125244 2.366211c1.5150757 1.5150604 2.366211 3.5699158 2.366211 5.7125244l0 0c0 4.4617767 -3.6169739 8.078751 -8.078735 8.078751l0 0c-4.4617615 0 -8.078735 -3.6169739 -8.078735 -8.078751z" fill-rule="evenodd"/><path fill="#eeeeee" d="m414.85565 163.84514l0 0c0 -4.4617615 3.6169739 -8.078735 8.078735 -8.078735l0 0c2.1426086 0 4.1974792 0.8511505 5.7125244 2.366211c1.5150757 1.5150604 2.366211 3.5699158 2.366211 5.7125244l0 0c0 4.4617767 -3.6169739 8.078751 -8.078735 8.078751l0 0c-4.4617615 0 -8.078735 -3.6169739 -8.078735 -8.078751z" fill-rule="evenodd"/><path stroke="#212121" stroke-width="3.0" stroke-linejoin="round" stroke-linecap="butt" d="m414.85565 163.84514l0 0c0 -4.4617615 3.6169739 -8.078735 8.078735 -8.078735l0 0c2.1426086 0 4.1974792 0.8511505 5.7125244 2.366211c1.5150757 1.5150604 2.366211 3.5699158 2.366211 5.7125244l0 0c0 4.4617767 -3.6169739 8.078751 -8.078735 8.078751l0 0c-4.4617615 0 -8.078735 -3.6169739 -8.078735 -8.078751z" fill-rule="evenodd"/><path fill="#000000" fill-opacity="0.0" d="m143.7664 64.533325l0 0c0 -14.345192 11.629074 -25.97427 25.974274 -25.97427l254.94908 0c6.8888245 0 13.495483 2.7365685 18.366608 7.607689c4.8710938 4.8711205 7.607666 11.477779 7.607666 18.366581l0 103.89398c0 14.345184 -11.629059 25.974274 -25.974274 25.974274l-254.94908 0c-14.3452 0 -25.974274 -11.629089 -25.974274 -25.974274z" fill-rule="evenodd"/><path stroke="#fa8b2f" stroke-width="4.0" stroke-linejoin="round" stroke-linecap="butt" d="m143.7664 64.533325l0 0c0 -14.345192 11.629074 -25.97427 25.974274 -25.97427l254.94908 0c6.8888245 0 13.495483 2.7365685 18.366608 7.607689c4.8710938 4.8711205 7.607666 11.477779 7.607666 18.366581l0 103.89398c0 14.345184 -11.629059 25.974274 -25.974274 25.974274l-254.94908 0c-14.3452 0 -25.974274 -11.629089 -25.974274 -25.974274z" fill-rule="evenodd"/><path fill="#000000" fill-opacity="0.0" d="m314.54593 76.010895l0 0c0 -10.956039 8.881622 -19.837666 19.837677 -19.837666l245.48999 0c5.2612915 0 10.307068 2.0900345 14.027344 5.810318c3.720337 3.7202873 5.810364 8.766071 5.810364 14.027348l0 79.34828c0 10.956055 -8.881653 19.837677 -19.837708 19.837677l-245.48999 0c-10.956055 0 -19.837677 -8.881622 -19.837677 -19.837677z" fill-rule="evenodd"/><path stroke="#0097a7" stroke-width="4.0" stroke-linejoin="round" stroke-linecap="butt" d="m314.54593 76.010895l0 0c0 -10.956039 8.881622 -19.837666 19.837677 -19.837666l245.48999 0c5.2612915 0 10.307068 2.0900345 14.027344 5.810318c3.720337 3.7202873 5.810364 8.766071 5.810364 14.027348l0 79.34828c0 10.956055 -8.881653 19.837677 -19.837708 19.837677l-245.48999 0c-10.956055 0 -19.837677 -8.881622 -19.837677 -19.837677z" fill-rule="evenodd"/><path fill="#000000" fill-opacity="0.0" d="m-11.6482935 9.868767l51.527557 0l0 38.299213l-51.527557 0z" fill-rule="evenodd"/><path fill="#595959" d="m20.256086 43.71025q-1.1875 0 -1.8125 -1.0625q-0.609375 -1.0468788 -0.296875 -2.5312538q0.046875 -0.25 0.15625 -0.6875q0.109375 -0.453125 0.25 -0.96875q-1.609375 2.140625 -3.562499 3.5156288q-1.953125 1.375 -4.28125 1.375q-2.140625 0 -3.0781255 -1.28125q-0.921875 -1.2812538 -0.4375 -3.5781288q0.296875 -1.40625 1.0312505 -3.046875q0.734375 -1.65625 1.6875 -3.40625q0.953125 -1.7656231 1.90625 -3.546873q0.953125 -1.78125 1.703125 -3.5q0.75 -1.734375 1.078125 -3.265625q0.609375 -2.890625 -1.125 -2.890625q-0.859375 0 -1.59375 0.546875q-0.71875 0.546875 -1.296875 1.375q-0.5625 0.8125 -0.9375 1.640625q-0.359375 0.828125 -0.484375 1.40625q-0.109375 0.484375 -0.09375 1.046875q0.015625 0.546875 0.078125 1.0q-1.5312505 0 -2.0468755 -0.703125q-0.5 -0.703125 -0.28125 -1.765625q0.21875 -0.984375 0.90625 -2.0q0.7031255 -1.03125 1.7656255 -1.90625q1.078125 -0.890625 2.359375 -1.421875q1.296875 -0.53125 2.671875 -0.53125q1.953124 0 2.593749 1.125q0.640625 1.125 0.25 3.015625q-0.25 1.171875 -0.84375 2.625q-0.59374905 1.4375 -1.374999 2.96875q-0.765625 1.53125 -1.53125 2.984375q-1.34375 2.578123 -2.265625 4.484373q-0.921875 1.90625 -1.234375 3.40625q-0.3125 1.484375 0.078125 2.484375q0.390625 1.015625 1.828125 1.015625q1.3125 0 2.5625 -0.828125q1.265625 -0.8125 2.359374 -2.109375q1.109375 -1.296875 1.984375 -2.734375q0.890625 -1.4375 1.4375 -2.6875q0.859375 -1.8906231 1.84375 -4.031248q1.0 -2.140625 2.03125 -4.21875q1.03125 -2.078125 2.0 -3.765625q0.96875 -1.703125 1.78125 -2.71875q0.8125 -1.015625 1.390625 -1.015625q0.3125 0 0.796875 0.34375q0.5 0.328125 0.984375 0.90625q-0.34375 0.234375 -1.125 1.359375q-0.765625 1.109375 -1.8125 2.875q-1.046875 1.75 -2.1875 3.875q-1.140625 2.109375 -2.171875 4.328125q-1.03125 2.218748 -1.828125 4.265623q-0.78125 2.046875 -1.125 3.65625q-0.421875 1.984375 0.109375 2.625q0.546875 0.6406288 2.203125 0.6406288q-0.484375 0.609375 -1.390625 0.953125q-0.90625 0.359375 -1.609375 0.359375z" fill-rule="nonzero"/><path fill="#000000" fill-opacity="0.0" d="m36.12336 3.8963253l705.8898 0l0 225.16534l-705.8898 0z" fill-rule="evenodd"/><path stroke="#595959" stroke-width="1.0" stroke-linejoin="round" stroke-linecap="butt" stroke-dasharray="1.0,3.0" d="m36.12336 3.8963253l705.8898 0l0 225.16534l-705.8898 0z" fill-rule="evenodd"/><path fill="#000000" fill-opacity="0.0" d="m79.26247 97.33071l64.50394 0l0 38.299217l-64.50394 0z" fill-rule="evenodd"/><path fill="#fa8b2f" d="m102.928 128.00032l4.0625 -19.078133l-6.265625 0l0.703125 -3.328125l16.1875 0l-0.703125 3.328125l-6.46875 0l-4.0625 19.078133l-3.453125 0z" fill-rule="nonzero"/><path fill="#fa8b2f" d="m116.06316 140.00032l3.171875 -14.9375l6.078125 0q1.21875 0 2.078125 0.609375q0.8750076 0.609375 1.2343826 1.65625q0.375 1.046875 0.109375 2.328125q-0.28125 1.28125 -1.0937576 2.328125q-0.8125 1.046875 -1.9375 1.671875q-1.125 0.625 -2.34375 0.625l-3.78125 0l-1.21875 5.71875l-2.296875 0zm3.984375 -7.9375l3.734375 0q0.578125 0 1.109375 -0.328125q0.546875 -0.328125 0.953125 -0.875q0.40625 -0.546875 0.546875 -1.203125q0.140625 -0.65625 -0.046875 -1.1875q-0.171875 -0.546875 -0.578125 -0.859375q-0.390625 -0.328125 -0.96875 -0.328125l-3.734375 0l-1.015625 4.78125z" fill-rule="nonzero"/><path fill="#000000" fill-opacity="0.0" d="m594.7139 97.33071l64.50391 0l0 38.299217l-64.50391 0z" fill-rule="evenodd"/><path fill="#0097a7" d="m620.4745 128.00032l4.765625 -22.406258l3.453125 0l-4.765625 22.406258l-3.453125 0zm3.5625 -9.531258l0.703125 -3.328125l11.546875 0l-0.703125 3.328125l-11.546875 0zm2.03125 -9.546875l0.703125 -3.328125l12.984375 0l-0.703125 3.328125l-12.984375 0z" fill-rule="nonzero"/><path fill="#000000" fill-opacity="0.0" d="m343.22308 77.19423l60.44095 0l0 58.173218l-60.44095 0z" fill-rule="evenodd"/><path fill="#ff00ff" d="m366.6829 117.22673q-1.828125 0 -3.28125 -0.46875q-1.4375 -0.484375 -2.5 -1.453125q-1.0625 -0.984375 -1.75 -2.421875l2.953125 -2.71875q1.078125 2.234375 2.34375 3.109375q1.265625 0.859375 3.25 0.859375q1.203125 0 2.265625 -0.375q1.078125 -0.390625 1.796875 -1.0625q0.734375 -0.671875 0.90625 -1.546875q0.125 -0.578125 0.046875 -1.078125q-0.078125 -0.515625 -0.40625 -0.921875q-0.3125 -0.421875 -0.859375 -0.765625q-0.546875 -0.359375 -1.328125 -0.625q-0.765625 -0.28125 -1.8125 -0.46875q-1.640625 -0.359375 -2.796875 -0.9375q-1.15625 -0.578125 -1.84375 -1.4375q-0.6875 -0.859375 -0.875 -1.96875q-0.171875 -1.109375 0.125 -2.484375q0.28125 -1.34375 1.109375 -2.484375q0.84375 -1.15625 2.0625 -2.0q1.234375 -0.859375 2.734375 -1.3125q1.5 -0.46875 3.140625 -0.46875q1.71875 0 3.0625 0.453125q1.359375 0.4375 2.28125 1.328125q0.9375 0.875 1.390625 2.15625l-2.9375 2.390625q-0.421875 -1.046875 -1.0625 -1.765625q-0.640625 -0.71875 -1.53125 -1.078125q-0.875 -0.375 -1.953125 -0.375q-1.25 0 -2.265625 0.390625q-1.015625 0.375 -1.6875 1.0625q-0.671875 0.6875 -0.875 1.609375q-0.140625 0.671875 0 1.234375q0.140625 0.5625 0.578125 1.0q0.4375 0.421875 1.25 0.765625q0.828125 0.328125 2.015625 0.59375q1.6875 0.375 2.9375 0.96875q1.25 0.59375 2.03125 1.390625q0.796875 0.796875 1.078125 1.796875q0.28125 0.984375 0.046875 2.140625q-0.46875 2.140625 -1.796875 3.71875q-1.3125 1.5625 -3.3125 2.40625q-2.0 0.84375 -4.53125 0.84375z" fill-rule="nonzero"/><path fill="#ff00ff" d="m378.7603 128.91423l3.171875 -14.9375l6.078125 0q1.21875 0 2.078125 0.609375q0.875 0.609375 1.234375 1.65625q0.375 1.046875 0.109375 2.328125q-0.28125 1.28125 -1.09375 2.328125q-0.8125 1.046875 -1.9375 1.671875q-1.125 0.625 -2.34375 0.625l-3.78125 0l-1.21875 5.71875l-2.296875 0zm3.984375 -7.9375l3.734375 0q0.578125 0 1.109375 -0.328125q0.546875 -0.328125 0.953125 -0.875q0.40625 -0.546875 0.546875 -1.203125q0.140625 -0.65625 -0.046875 -1.1875q-0.171875 -0.546875 -0.578125 -0.859375q-0.390625 -0.328125 -0.96875 -0.328125l-3.734375 0l-1.015625 4.78125z" fill-rule="nonzero"/><path fill="#eeeeee" d="m463.1273 80.95538l0 0c0 -4.461769 3.6169739 -8.078743 8.078735 -8.078743l0 0c2.1426392 0 4.1974792 0.8511505 5.712555 2.366211c1.5150452 1.5150528 2.366211 3.5699158 2.366211 5.712532l0 0c0 4.4617615 -3.6169739 8.078735 -8.078766 8.078735l0 0c-4.4617615 0 -8.078735 -3.6169739 -8.078735 -8.078735z" fill-rule="evenodd"/><path stroke="#212121" stroke-width="3.0" stroke-linejoin="round" stroke-linecap="butt" d="m463.1273 80.95538l0 0c0 -4.461769 3.6169739 -8.078743 8.078735 -8.078743l0 0c2.1426392 0 4.1974792 0.8511505 5.712555 2.366211c1.5150452 1.5150528 2.366211 3.5699158 2.366211 5.712532l0 0c0 4.4617615 -3.6169739 8.078735 -8.078766 8.078735l0 0c-4.4617615 0 -8.078735 -3.6169739 -8.078735 -8.078735z" fill-rule="evenodd"/><path fill="#eeeeee" d="m487.8727 80.95538l0 0c0 -4.461769 3.6169739 -8.078743 8.078735 -8.078743l0 0c2.1426086 0 4.1974792 0.8511505 5.7125244 2.366211c1.5150757 1.5150528 2.366211 3.5699158 2.366211 5.712532l0 0c0 4.4617615 -3.6169739 8.078735 -8.078735 8.078735l0 0c-4.4617615 0 -8.078735 -3.6169739 -8.078735 -8.078735z" fill-rule="evenodd"/><path stroke="#212121" stroke-width="3.0" stroke-linejoin="round" stroke-linecap="butt" d="m487.8727 80.95538l0 0c0 -4.461769 3.6169739 -8.078743 8.078735 -8.078743l0 0c2.1426086 0 4.1974792 0.8511505 5.7125244 2.366211c1.5150757 1.5150528 2.366211 3.5699158 2.366211 5.712532l0 0c0 4.4617615 -3.6169739 8.078735 -8.078735 8.078735l0 0c-4.4617615 0 -8.078735 -3.6169739 -8.078735 -8.078735z" fill-rule="evenodd"/><path fill="#eeeeee" d="m512.6181 80.95538l0 0c0 -4.461769 3.6170044 -8.078743 8.078735 -8.078743l0 0c2.1426392 0 4.19751 0.8511505 5.7125244 2.366211c1.5150757 1.5150528 2.366211 3.5699158 2.366211 5.712532l0 0c0 4.4617615 -3.6169434 8.078735 -8.078735 8.078735l0 0c-4.461731 0 -8.078735 -3.6169739 -8.078735 -8.078735z" fill-rule="evenodd"/><path stroke="#212121" stroke-width="3.0" stroke-linejoin="round" stroke-linecap="butt" d="m512.6181 80.95538l0 0c0 -4.461769 3.6170044 -8.078743 8.078735 -8.078743l0 0c2.1426392 0 4.19751 0.8511505 5.7125244 2.366211c1.5150757 1.5150528 2.366211 3.5699158 2.366211 5.712532l0 0c0 4.4617615 -3.6169434 8.078735 -8.078735 8.078735l0 0c-4.461731 0 -8.078735 -3.6169739 -8.078735 -8.078735z" fill-rule="evenodd"/><path fill="#eeeeee" d="m537.3635 80.95538l0 0c0 -4.461769 3.6169434 -8.078743 8.078735 -8.078743l0 0c2.1426392 0 4.1974487 0.8511505 5.7125244 2.366211c1.5150757 1.5150528 2.366211 3.5699158 2.366211 5.712532l0 0c0 4.4617615 -3.6170044 8.078735 -8.078735 8.078735l0 0c-4.461792 0 -8.078735 -3.6169739 -8.078735 -8.078735z" fill-rule="evenodd"/><path stroke="#212121" stroke-width="3.0" stroke-linejoin="round" stroke-linecap="butt" d="m537.3635 80.95538l0 0c0 -4.461769 3.6169434 -8.078743 8.078735 -8.078743l0 0c2.1426392 0 4.1974487 0.8511505 5.7125244 2.366211c1.5150757 1.5150528 2.366211 3.5699158 2.366211 5.712532l0 0c0 4.4617615 -3.6170044 8.078735 -8.078735 8.078735l0 0c-4.461792 0 -8.078735 -3.6169739 -8.078735 -8.078735z" fill-rule="evenodd"/><path fill="#eeeeee" d="m563.437 80.95538l0 0c0 -4.461769 3.6169434 -8.078743 8.078735 -8.078743l0 0c2.1426392 0 4.1974487 0.8511505 5.7125244 2.366211c1.5150757 1.5150528 2.366211 3.5699158 2.366211 5.712532l0 0c0 4.4617615 -3.6169434 8.078735 -8.078735 8.078735l0 0c-4.461792 0 -8.078735 -3.6169739 -8.078735 -8.078735z" fill-rule="evenodd"/><path stroke="#212121" stroke-width="3.0" stroke-linejoin="round" stroke-linecap="butt" d="m563.437 80.95538l0 0c0 -4.461769 3.6169434 -8.078743 8.078735 -8.078743l0 0c2.1426392 0 4.1974487 0.8511505 5.7125244 2.366211c1.5150757 1.5150528 2.366211 3.5699158 2.366211 5.712532l0 0c0 4.4617615 -3.6169434 8.078735 -8.078735 8.078735l0 0c-4.461792 0 -8.078735 -3.6169739 -8.078735 -8.078735z" fill-rule="evenodd"/><path fill="#eeeeee" d="m463.1273 104.637794l0 0c0 -4.4617615 3.6169739 -8.078743 8.078735 -8.078743l0 0c2.1426392 0 4.1974792 0.8511505 5.712555 2.366211c1.5150452 1.5150604 2.366211 3.5699158 2.366211 5.712532l0 0c0 4.461769 -3.6169739 8.078743 -8.078766 8.078743l0 0c-4.4617615 0 -8.078735 -3.6169739 -8.078735 -8.078743z" fill-rule="evenodd"/><path stroke="#212121" stroke-width="3.0" stroke-linejoin="round" stroke-linecap="butt" d="m463.1273 104.637794l0 0c0 -4.4617615 3.6169739 -8.078743 8.078735 -8.078743l0 0c2.1426392 0 4.1974792 0.8511505 5.712555 2.366211c1.5150452 1.5150604 2.366211 3.5699158 2.366211 5.712532l0 0c0 4.461769 -3.6169739 8.078743 -8.078766 8.078743l0 0c-4.4617615 0 -8.078735 -3.6169739 -8.078735 -8.078743z" fill-rule="evenodd"/><path fill="#eeeeee" d="m487.8727 104.637794l0 0c0 -4.4617615 3.6169739 -8.078743 8.078735 -8.078743l0 0c2.1426086 0 4.1974792 0.8511505 5.7125244 2.366211c1.5150757 1.5150604 2.366211 3.5699158 2.366211 5.712532l0 0c0 4.461769 -3.6169739 8.078743 -8.078735 8.078743l0 0c-4.4617615 0 -8.078735 -3.6169739 -8.078735 -8.078743z" fill-rule="evenodd"/><path stroke="#212121" stroke-width="3.0" stroke-linejoin="round" stroke-linecap="butt" d="m487.8727 104.637794l0 0c0 -4.4617615 3.6169739 -8.078743 8.078735 -8.078743l0 0c2.1426086 0 4.1974792 0.8511505 5.7125244 2.366211c1.5150757 1.5150604 2.366211 3.5699158 2.366211 5.712532l0 0c0 4.461769 -3.6169739 8.078743 -8.078735 8.078743l0 0c-4.4617615 0 -8.078735 -3.6169739 -8.078735 -8.078743z" fill-rule="evenodd"/><path fill="#eeeeee" d="m512.6181 104.637794l0 0c0 -4.4617615 3.6170044 -8.078743 8.078735 -8.078743l0 0c2.1426392 0 4.19751 0.8511505 5.7125244 2.366211c1.5150757 1.5150604 2.366211 3.5699158 2.366211 5.712532l0 0c0 4.461769 -3.6169434 8.078743 -8.078735 8.078743l0 0c-4.461731 0 -8.078735 -3.6169739 -8.078735 -8.078743z" fill-rule="evenodd"/><path stroke="#212121" stroke-width="3.0" stroke-linejoin="round" stroke-linecap="butt" d="m512.6181 104.637794l0 0c0 -4.4617615 3.6170044 -8.078743 8.078735 -8.078743l0 0c2.1426392 0 4.19751 0.8511505 5.7125244 2.366211c1.5150757 1.5150604 2.366211 3.5699158 2.366211 5.712532l0 0c0 4.461769 -3.6169434 8.078743 -8.078735 8.078743l0 0c-4.461731 0 -8.078735 -3.6169739 -8.078735 -8.078743z" fill-rule="evenodd"/><path fill="#eeeeee" d="m537.3635 104.637794l0 0c0 -4.4617615 3.6169434 -8.078743 8.078735 -8.078743l0 0c2.1426392 0 4.1974487 0.8511505 5.7125244 2.366211c1.5150757 1.5150604 2.366211 3.5699158 2.366211 5.712532l0 0c0 4.461769 -3.6170044 8.078743 -8.078735 8.078743l0 0c-4.461792 0 -8.078735 -3.6169739 -8.078735 -8.078743z" fill-rule="evenodd"/><path stroke="#212121" stroke-width="3.0" stroke-linejoin="round" stroke-linecap="butt" d="m537.3635 104.637794l0 0c0 -4.4617615 3.6169434 -8.078743 8.078735 -8.078743l0 0c2.1426392 0 4.1974487 0.8511505 5.7125244 2.366211c1.5150757 1.5150604 2.366211 3.5699158 2.366211 5.712532l0 0c0 4.461769 -3.6170044 8.078743 -8.078735 8.078743l0 0c-4.461792 0 -8.078735 -3.6169739 -8.078735 -8.078743z" fill-rule="evenodd"/><path fill="#eeeeee" d="m563.437 104.637794l0 0c0 -4.4617615 3.6169434 -8.078743 8.078735 -8.078743l0 0c2.1426392 0 4.1974487 0.8511505 5.7125244 2.366211c1.5150757 1.5150604 2.366211 3.5699158 2.366211 5.712532l0 0c0 4.461769 -3.6169434 8.078743 -8.078735 8.078743l0 0c-4.461792 0 -8.078735 -3.6169739 -8.078735 -8.078743z" fill-rule="evenodd"/><path stroke="#212121" stroke-width="3.0" stroke-linejoin="round" stroke-linecap="butt" d="m563.437 104.637794l0 0c0 -4.4617615 3.6169434 -8.078743 8.078735 -8.078743l0 0c2.1426392 0 4.1974487 0.8511505 5.7125244 2.366211c1.5150757 1.5150604 2.366211 3.5699158 2.366211 5.712532l0 0c0 4.461769 -3.6169434 8.078743 -8.078735 8.078743l0 0c-4.461792 0 -8.078735 -3.6169739 -8.078735 -8.078743z" fill-rule="evenodd"/><path fill="#eeeeee" d="m463.1273 128.3202l0 0c0 -4.4617615 3.6169739 -8.078735 8.078735 -8.078735l0 0c2.1426392 0 4.1974792 0.8511505 5.712555 2.366211c1.5150452 1.5150528 2.366211 3.5699158 2.366211 5.7125244l0 0c0 4.4617767 -3.6169739 8.078751 -8.078766 8.078751l0 0c-4.4617615 0 -8.078735 -3.6169739 -8.078735 -8.078751z" fill-rule="evenodd"/><path stroke="#212121" stroke-width="3.0" stroke-linejoin="round" stroke-linecap="butt" d="m463.1273 128.3202l0 0c0 -4.4617615 3.6169739 -8.078735 8.078735 -8.078735l0 0c2.1426392 0 4.1974792 0.8511505 5.712555 2.366211c1.5150452 1.5150528 2.366211 3.5699158 2.366211 5.7125244l0 0c0 4.4617767 -3.6169739 8.078751 -8.078766 8.078751l0 0c-4.4617615 0 -8.078735 -3.6169739 -8.078735 -8.078751z" fill-rule="evenodd"/><path fill="#eeeeee" d="m487.8727 128.3202l0 0c0 -4.4617615 3.6169739 -8.078735 8.078735 -8.078735l0 0c2.1426086 0 4.1974792 0.8511505 5.7125244 2.366211c1.5150757 1.5150528 2.366211 3.5699158 2.366211 5.7125244l0 0c0 4.4617767 -3.6169739 8.078751 -8.078735 8.078751l0 0c-4.4617615 0 -8.078735 -3.6169739 -8.078735 -8.078751z" fill-rule="evenodd"/><path stroke="#212121" stroke-width="3.0" stroke-linejoin="round" stroke-linecap="butt" d="m487.8727 128.3202l0 0c0 -4.4617615 3.6169739 -8.078735 8.078735 -8.078735l0 0c2.1426086 0 4.1974792 0.8511505 5.7125244 2.366211c1.5150757 1.5150528 2.366211 3.5699158 2.366211 5.7125244l0 0c0 4.4617767 -3.6169739 8.078751 -8.078735 8.078751l0 0c-4.4617615 0 -8.078735 -3.6169739 -8.078735 -8.078751z" fill-rule="evenodd"/><path fill="#eeeeee" d="m512.6181 128.3202l0 0c0 -4.4617615 3.6170044 -8.078735 8.078735 -8.078735l0 0c2.1426392 0 4.19751 0.8511505 5.7125244 2.366211c1.5150757 1.5150528 2.366211 3.5699158 2.366211 5.7125244l0 0c0 4.4617767 -3.6169434 8.078751 -8.078735 8.078751l0 0c-4.461731 0 -8.078735 -3.6169739 -8.078735 -8.078751z" fill-rule="evenodd"/><path stroke="#212121" stroke-width="3.0" stroke-linejoin="round" stroke-linecap="butt" d="m512.6181 128.3202l0 0c0 -4.4617615 3.6170044 -8.078735 8.078735 -8.078735l0 0c2.1426392 0 4.19751 0.8511505 5.7125244 2.366211c1.5150757 1.5150528 2.366211 3.5699158 2.366211 5.7125244l0 0c0 4.4617767 -3.6169434 8.078751 -8.078735 8.078751l0 0c-4.461731 0 -8.078735 -3.6169739 -8.078735 -8.078751z" fill-rule="evenodd"/><path fill="#eeeeee" d="m537.3635 128.3202l0 0c0 -4.4617615 3.6169434 -8.078735 8.078735 -8.078735l0 0c2.1426392 0 4.1974487 0.8511505 5.7125244 2.366211c1.5150757 1.5150528 2.366211 3.5699158 2.366211 5.7125244l0 0c0 4.4617767 -3.6170044 8.078751 -8.078735 8.078751l0 0c-4.461792 0 -8.078735 -3.6169739 -8.078735 -8.078751z" fill-rule="evenodd"/><path stroke="#212121" stroke-width="3.0" stroke-linejoin="round" stroke-linecap="butt" d="m537.3635 128.3202l0 0c0 -4.4617615 3.6169434 -8.078735 8.078735 -8.078735l0 0c2.1426392 0 4.1974487 0.8511505 5.7125244 2.366211c1.5150757 1.5150528 2.366211 3.5699158 2.366211 5.7125244l0 0c0 4.4617767 -3.6170044 8.078751 -8.078735 8.078751l0 0c-4.461792 0 -8.078735 -3.6169739 -8.078735 -8.078751z" fill-rule="evenodd"/><path fill="#eeeeee" d="m563.437 128.3202l0 0c0 -4.4617615 3.6169434 -8.078735 8.078735 -8.078735l0 0c2.1426392 0 4.1974487 0.8511505 5.7125244 2.366211c1.5150757 1.5150528 2.366211 3.5699158 2.366211 5.7125244l0 0c0 4.4617767 -3.6169434 8.078751 -8.078735 8.078751l0 0c-4.461792 0 -8.078735 -3.6169739 -8.078735 -8.078751z" fill-rule="evenodd"/><path stroke="#212121" stroke-width="3.0" stroke-linejoin="round" stroke-linecap="butt" d="m563.437 128.3202l0 0c0 -4.4617615 3.6169434 -8.078735 8.078735 -8.078735l0 0c2.1426392 0 4.1974487 0.8511505 5.7125244 2.366211c1.5150757 1.5150528 2.366211 3.5699158 2.366211 5.7125244l0 0c0 4.4617767 -3.6169434 8.078751 -8.078735 8.078751l0 0c-4.461792 0 -8.078735 -3.6169739 -8.078735 -8.078751z" fill-rule="evenodd"/><path fill="#eeeeee" d="m463.1273 152.00262l0 0c0 -4.4617615 3.6169739 -8.078735 8.078735 -8.078735l0 0c2.1426392 0 4.1974792 0.8511505 5.712555 2.366211c1.5150452 1.5150452 2.366211 3.5699158 2.366211 5.7125244l0 0c0 4.4617615 -3.6169739 8.078735 -8.078766 8.078735l0 0c-4.4617615 0 -8.078735 -3.6169739 -8.078735 -8.078735z" fill-rule="evenodd"/><path stroke="#212121" stroke-width="3.0" stroke-linejoin="round" stroke-linecap="butt" d="m463.1273 152.00262l0 0c0 -4.4617615 3.6169739 -8.078735 8.078735 -8.078735l0 0c2.1426392 0 4.1974792 0.8511505 5.712555 2.366211c1.5150452 1.5150452 2.366211 3.5699158 2.366211 5.7125244l0 0c0 4.4617615 -3.6169739 8.078735 -8.078766 8.078735l0 0c-4.4617615 0 -8.078735 -3.6169739 -8.078735 -8.078735z" fill-rule="evenodd"/><path fill="#eeeeee" d="m487.8727 152.00262l0 0c0 -4.4617615 3.6169739 -8.078735 8.078735 -8.078735l0 0c2.1426086 0 4.1974792 0.8511505 5.7125244 2.366211c1.5150757 1.5150452 2.366211 3.5699158 2.366211 5.7125244l0 0c0 4.4617615 -3.6169739 8.078735 -8.078735 8.078735l0 0c-4.4617615 0 -8.078735 -3.6169739 -8.078735 -8.078735z" fill-rule="evenodd"/><path stroke="#212121" stroke-width="3.0" stroke-linejoin="round" stroke-linecap="butt" d="m487.8727 152.00262l0 0c0 -4.4617615 3.6169739 -8.078735 8.078735 -8.078735l0 0c2.1426086 0 4.1974792 0.8511505 5.7125244 2.366211c1.5150757 1.5150452 2.366211 3.5699158 2.366211 5.7125244l0 0c0 4.4617615 -3.6169739 8.078735 -8.078735 8.078735l0 0c-4.4617615 0 -8.078735 -3.6169739 -8.078735 -8.078735z" fill-rule="evenodd"/><path fill="#eeeeee" d="m512.6181 152.00262l0 0c0 -4.4617615 3.6170044 -8.078735 8.078735 -8.078735l0 0c2.1426392 0 4.19751 0.8511505 5.7125244 2.366211c1.5150757 1.5150452 2.366211 3.5699158 2.366211 5.7125244l0 0c0 4.4617615 -3.6169434 8.078735 -8.078735 8.078735l0 0c-4.461731 0 -8.078735 -3.6169739 -8.078735 -8.078735z" fill-rule="evenodd"/><path stroke="#212121" stroke-width="3.0" stroke-linejoin="round" stroke-linecap="butt" d="m512.6181 152.00262l0 0c0 -4.4617615 3.6170044 -8.078735 8.078735 -8.078735l0 0c2.1426392 0 4.19751 0.8511505 5.7125244 2.366211c1.5150757 1.5150452 2.366211 3.5699158 2.366211 5.7125244l0 0c0 4.4617615 -3.6169434 8.078735 -8.078735 8.078735l0 0c-4.461731 0 -8.078735 -3.6169739 -8.078735 -8.078735z" fill-rule="evenodd"/><path fill="#eeeeee" d="m537.3635 152.00262l0 0c0 -4.4617615 3.6169434 -8.078735 8.078735 -8.078735l0 0c2.1426392 0 4.1974487 0.8511505 5.7125244 2.366211c1.5150757 1.5150452 2.366211 3.5699158 2.366211 5.7125244l0 0c0 4.4617615 -3.6170044 8.078735 -8.078735 8.078735l0 0c-4.461792 0 -8.078735 -3.6169739 -8.078735 -8.078735z" fill-rule="evenodd"/><path stroke="#212121" stroke-width="3.0" stroke-linejoin="round" stroke-linecap="butt" d="m537.3635 152.00262l0 0c0 -4.4617615 3.6169434 -8.078735 8.078735 -8.078735l0 0c2.1426392 0 4.1974487 0.8511505 5.7125244 2.366211c1.5150757 1.5150452 2.366211 3.5699158 2.366211 5.7125244l0 0c0 4.4617615 -3.6170044 8.078735 -8.078735 8.078735l0 0c-4.461792 0 -8.078735 -3.6169739 -8.078735 -8.078735z" fill-rule="evenodd"/><path fill="#eeeeee" d="m563.437 152.00262l0 0c0 -4.4617615 3.6169434 -8.078735 8.078735 -8.078735l0 0c2.1426392 0 4.1974487 0.8511505 5.7125244 2.366211c1.5150757 1.5150452 2.366211 3.5699158 2.366211 5.7125244l0 0c0 4.4617615 -3.6169434 8.078735 -8.078735 8.078735l0 0c-4.461792 0 -8.078735 -3.6169739 -8.078735 -8.078735z" fill-rule="evenodd"/><path stroke="#212121" stroke-width="3.0" stroke-linejoin="round" stroke-linecap="butt" d="m563.437 152.00262l0 0c0 -4.4617615 3.6169434 -8.078735 8.078735 -8.078735l0 0c2.1426392 0 4.1974487 0.8511505 5.7125244 2.366211c1.5150757 1.5150452 2.366211 3.5699158 2.366211 5.7125244l0 0c0 4.4617615 -3.6169434 8.078735 -8.078735 8.078735l0 0c-4.461792 0 -8.078735 -3.6169739 -8.078735 -8.078735z" fill-rule="evenodd"/><path fill="#000000" fill-opacity="0.0" d="m427.75854 167.6063l51.527557 0l0 58.173233l-51.527557 0z" fill-rule="evenodd"/><path fill="#6aa84f" d="m453.52267 207.6388q-1.828125 0 -3.28125 -0.46875q-1.4375 -0.484375 -2.5 -1.453125q-1.0625 -0.984375 -1.75 -2.421875l2.953125 -2.71875q1.078125 2.234375 2.34375 3.109375q1.265625 0.859375 3.25 0.859375q1.203125 0 2.265625 -0.375q1.078125 -0.390625 1.796875 -1.0625q0.734375 -0.671875 0.90625 -1.546875q0.125 -0.578125 0.046875 -1.078125q-0.078125 -0.515625 -0.40625 -0.921875q-0.3125 -0.421875 -0.859375 -0.765625q-0.546875 -0.359375 -1.328125 -0.625q-0.765625 -0.28125 -1.8125 -0.46875q-1.640625 -0.359375 -2.796875 -0.9375q-1.15625 -0.578125 -1.84375 -1.4375q-0.6875 -0.859375 -0.875 -1.96875q-0.171875 -1.109375 0.125 -2.484375q0.28125 -1.34375 1.109375 -2.484375q0.84375 -1.15625 2.0625 -2.0q1.234375 -0.859375 2.734375 -1.3125q1.5 -0.46875 3.140625 -0.46875q1.71875 0 3.0625 0.453125q1.359375 0.4375 2.28125 1.328125q0.9375 0.875 1.390625 2.15625l-2.9375 2.390625q-0.421875 -1.046875 -1.0625 -1.765625q-0.640625 -0.71875 -1.53125 -1.078125q-0.875 -0.375 -1.953125 -0.375q-1.25 0 -2.265625 0.390625q-1.015625 0.375 -1.6875 1.0625q-0.671875 0.6875 -0.875 1.609375q-0.140625 0.671875 0 1.234375q0.140625 0.5625 0.578125 1.0q0.4375 0.421875 1.25 0.765625q0.828125 0.328125 2.015625 0.59375q1.6875 0.375 2.9375 0.96875q1.25 0.59375 2.03125 1.390625q0.796875 0.796875 1.078125 1.796875q0.28125 0.984375 0.046875 2.140625q-0.46875 2.140625 -1.796875 3.71875q-1.3125 1.5625 -3.3125 2.40625q-2.0 0.84375 -4.53125 0.84375z" fill-rule="nonzero"/></g></svg>