<?xml version="1.0" encoding="UTF-8"?>
<svg id="Layer_1" data-name="Layer 1" xmlns="http://www.w3.org/2000/svg" viewBox="0 0 658.33 849.47">
  <defs>
    <style>
      .cls-1 {
        fill: #fff;
        font-family: Lexend-Bold, Lexend;
        font-size: 32px;
        font-variation-settings: 'wght' 700;
        font-weight: 700;
      }

      .cls-2 {
        stroke-width: 7px;
      }

      .cls-2, .cls-3, .cls-4, .cls-5, .cls-6, .cls-7 {
        fill: none;
        stroke: #000;
        stroke-miterlimit: 10;
      }

      .cls-3 {
        stroke-width: 15px;
      }

      .cls-4 {
        stroke-width: 15px;
      }

      .cls-8 {
        letter-spacing: -.12em;
      }

      .cls-9 {
        letter-spacing: -.01em;
      }

      .cls-5 {
        stroke-width: 4.27px;
      }

      .cls-5, .cls-6, .cls-7 {
        stroke-linecap: round;
      }

      .cls-6 {
        stroke-width: 6.83px;
      }

      .cls-7 {
        stroke-width: 5.98px;
      }
    </style>
  </defs>
  <path d="M152.32,258.87c2.13-7.08,6.55-13.12,10.92-19.14h0c1.15-1.58,2.31-3.15,3.42-4.75,4.4-6.33,6.97-13.99,6.97-22.27,0-21.6-17.49-39.1-39.07-39.1s-39.07,17.49-39.07,39.07c0,8.28,2.58,15.96,6.97,22.27,1.11,1.6,2.26,3.17,3.42,4.75h0c4.4,6.02,8.81,12.08,10.92,19.14h35.52v.02ZM134.56,287.29c9.81,0,17.76-7.95,17.76-17.76v-3.55h-35.52v3.55c0,9.81,7.95,17.76,17.76,17.76ZM116.8,212.69c0,1.95-1.6,3.55-3.55,3.55s-3.55-1.6-3.55-3.55c0-13.74,11.12-24.86,24.86-24.86,1.95,0,3.55,1.6,3.55,3.55s-1.6,3.55-3.55,3.55c-9.81,0-17.76,7.95-17.76,17.76Z"/>
  <path d="M493.28,227.74v-17.63h29.39v17.63h-29.39ZM493.28,239.5h29.39v17.63h-29.39v-17.63ZM534.42,257.13v-17.63h29.39v17.63h-29.39ZM563.81,227.74h-29.39v-17.63h29.39v17.63ZM493.28,186.6c-6.48,0-11.76,5.27-11.76,11.76v58.78c0,6.48,5.27,11.76,11.76,11.76h70.53c6.48,0,11.76-5.27,11.76-11.76v-58.78c0-6.48-5.27-11.76-11.76-11.76h-70.53Z"/>
  <path d="M555.93,613.51c0,7.85-2.55,15.11-6.84,21l21.66,21.68c2.14,2.14,2.14,5.61,0,7.75-2.14,2.14-5.61,2.14-7.75,0l-21.66-21.68c-5.89,4.31-13.14,6.84-21,6.84-19.66,0-35.59-15.93-35.59-35.59s15.93-35.59,35.59-35.59,35.59,15.93,35.59,35.59ZM520.33,638.15c13.61,0,24.64-11.03,24.64-24.64s-11.03-24.64-24.64-24.64-24.64,11.03-24.64,24.64,11.03,24.64,24.64,24.64Z"/>
  <g>
    <line class="cls-6" x1="97.31" y1="582.99" x2="97.31" y2="652.93"/>
    <line class="cls-6" x1="180.61" y1="652.93" x2="97.31" y2="652.93"/>
    <line class="cls-7" x1="113.29" y1="618.74" x2="113.29" y2="644.67"/>
    <line class="cls-7" x1="137.63" y1="618.74" x2="137.63" y2="644.67"/>
    <line class="cls-7" x1="126.05" y1="611.19" x2="126.05" y2="644.67"/>
    <line class="cls-7" x1="160.24" y1="600.7" x2="160.24" y2="644.67"/>
    <line class="cls-7" x1="149.21" y1="611.19" x2="149.21" y2="644.67"/>
    <line class="cls-5" x1="109.87" y1="612.61" x2="127.18" y2="595.3"/>
    <line class="cls-5" x1="127.18" y1="595.3" x2="138.44" y2="606.56"/>
    <line class="cls-5" x1="138.44" y1="606.56" x2="157.32" y2="587.68"/>
  </g>
  <circle class="cls-2" cx="134.56" cy="227.74" r="71.47"/>
  <circle class="cls-2" cx="528.55" cy="227.74" r="71.47"/>
  <circle class="cls-2" cx="134.56" cy="621.73" r="71.47"/>
  <circle class="cls-2" cx="528.55" cy="621.73" r="71.47"/>
  <g>
    <rect x="15.02" y="86.77" width="217.77" height="49.71" rx="24.86" ry="24.86"/>
    <text class="cls-1" transform="translate(33.18 121.32)"><tspan x="0" y="0">QUEST</tspan><tspan class="cls-9" x="112.35" y="0">I</tspan><tspan x="129.63" y="0">ON</tspan></text>
  </g>
  <g>
    <rect x="425.54" y="88.15" width="217.77" height="49.71" rx="24.86" ry="24.86"/>
    <text class="cls-1" transform="translate(458.94 122.7)"><tspan x="0" y="0">COLLECT</tspan></text>
  </g>
  <g>
    <rect x="25.67" y="710.21" width="217.77" height="49.71" rx="24.86" ry="24.86"/>
    <text class="cls-1" transform="translate(38.11 744.76)"><tspan x="0" y="0">INTERPRET</tspan></text>
  </g>
  <g>
    <rect x="425.54" y="711.61" width="217.77" height="49.71" rx="24.86" ry="24.86"/>
    <text class="cls-1" transform="translate(459.21 746.16)"><tspan x="0" y="0">ANA</tspan><tspan class="cls-8" x="70.24" y="0">L</tspan><tspan x="85.89" y="0">YZE</tspan></text>
  </g>
  <g>
    <path class="cls-3" d="M206.03,227.74c20.77-11.2,65.12-31.53,124.79-31.69,38.1-.11,70.03,8.04,93.65,16.89"/>
    <polygon points="399.92 226.94 417.49 210.38 417.77 186.24 457.08 227.74 399.92 226.94"/>
  </g>
  <g>
    <path class="cls-4" d="M457.08,628.82c-20.77,11.2-65.12,31.52-124.79,31.69-38.1.11-70.03-8.04-93.65-16.89"/>
    <polygon points="263.19 629.62 245.62 646.18 245.34 670.32 206.03 628.82 263.19 629.62"/>
  </g>
  <g>
    <path class="cls-4" d="M533.27,299.21c11.2,20.77,31.52,65.12,31.69,124.79.11,38.1-8.04,70.03-16.89,93.65"/>
    <polygon points="534.07 493.1 550.63 510.67 574.77 510.95 533.27 550.26 534.07 493.1"/>
  </g>
  <g>
    <path class="cls-4" d="M132.65,550.26c-11.2-20.77-31.52-65.12-31.69-124.79-.11-38.1,8.04-70.03,16.89-93.65"/>
    <polygon points="131.84 356.37 115.29 338.8 91.15 338.52 132.65 299.21 131.84 356.37"/>
  </g>
  <g>
    <line class="cls-4" x1="126.87" x2="126.87" y2="55.23"/>
    <polygon points="104.65 38.38 126.87 47.82 149.09 38.38 126.87 91.05 104.65 38.38"/>
  </g>
  <g>
    <line class="cls-4" x1="536.24" x2="536.24" y2="55.23"/>
    <polygon points="514.02 38.38 536.24 47.82 558.46 38.38 536.24 91.05 514.02 38.38"/>
  </g>
  <g>
    <line class="cls-4" x1="126.87" y1="758.42" x2="126.87" y2="813.65"/>
    <polygon points="104.65 796.8 126.87 806.24 149.09 796.8 126.87 849.47 104.65 796.8"/>
  </g>
  <g>
    <line class="cls-4" x1="536.24" y1="758.42" x2="536.24" y2="813.65"/>
    <polygon points="514.02 796.8 536.24 806.24 558.46 796.8 536.24 849.47 514.02 796.8"/>
  </g>
</svg>