<?xml version="1.0" encoding="UTF-8"?>
<svg id="Layer_1" data-name="Layer 1" xmlns="http://www.w3.org/2000/svg" viewBox="0 0 444.07 455.14">
  <defs>
    <style>
      .cls-1 {
        fill: #d05618;
      }

      .cls-2 {
        fill: #d76e3a;
      }

      .cls-3 {
        fill: #d1571a;
      }

      .cls-4 {
        fill: #fdf9f7;
      }

      .cls-5 {
        fill: #cf5416;
      }

      .cls-6 {
        fill: #d05314;
      }

      .cls-7 {
        fill: #d4642d;
      }

      .cls-8 {
        fill: #f5e0d5;
      }

      .cls-9 {
        fill: #ce5011;
      }

      .cls-10 {
        fill: #f9eee9;
      }

      .cls-11 {
        fill: #d05417;
      }

      .cls-12 {
        fill: #d5662f;
      }

      .cls-13 {
        fill: #cf5213;
      }

      .cls-14 {
        fill: #6a6a6c;
      }

      .cls-15 {
        fill: #655da5;
      }

      .cls-16 {
        fill: #fafafc;
      }

      .cls-17 {
        fill: #d35e24;
      }

      .cls-18 {
        fill: #f8f8fb;
      }

      .cls-19 {
        fill: #fcf6f3;
      }

      .cls-20 {
        fill: #d05619;
      }

      .cls-21 {
        fill: #fdfaf8;
      }

      .cls-22 {
        fill: #fcf7f4;
      }

      .cls-23 {
        fill: #cf5112;
      }

      .cls-24 {
        fill: #faf0ec;
      }

      .cls-25 {
        fill: #fdfbfa;
      }

      .cls-26 {
        fill: #cf5111;
      }

      .cls-27 {
        fill: #c14c12;
      }

      .cls-28 {
        fill: #cd4a08;
      }

      .cls-29 {
        fill: #fcfcfd;
      }

      .cls-30 {
        fill: #fdfaf9;
      }

      .cls-31 {
        fill: #d25d22;
      }

      .cls-32 {
        fill: #d05518;
      }

      .cls-33 {
        fill: #595857;
      }

      .cls-34 {
        fill: #cf5113;
      }

      .cls-35 {
        fill: #faf1ed;
      }

      .cls-36 {
        fill: #cf5011;
      }

      .cls-37 {
        fill: #d4652d;
      }

      .cls-38 {
        fill: #6159a3;
      }

      .cls-39 {
        fill: #d15a1e;
      }

      .cls-40 {
        fill: #cf4f0f;
      }

      .cls-41 {
        fill: #d05517;
      }

      .cls-42 {
        fill: #635ba5;
      }

      .cls-43 {
        fill: #d1591c;
      }

      .cls-44 {
        fill: #675fa6;
      }

      .cls-45 {
        fill: #736cae;
      }

      .cls-46 {
        fill: #625aa4;
      }

      .cls-47 {
        fill: #d1591d;
      }

      .cls-48 {
        fill: #f8e8e0;
      }

      .cls-49 {
        fill: #d05415;
      }

      .cls-50 {
        fill: #d25e23;
      }

      .cls-51 {
        fill: #6f68ac;
      }

      .cls-52 {
        fill: #d1581b;
      }

      .cls-53 {
        fill: #d05416;
      }

      .cls-54 {
        fill: #d36026;
      }

      .cls-55 {
        fill: #cb4a09;
      }

      .cls-56 {
        fill: #ce4e0d;
      }

      .cls-57 {
        fill: #dd8558;
      }

      .cls-58 {
        fill: #d1581c;
      }

      .cls-59 {
        fill: #fefefe;
      }

      .cls-60 {
        fill: #d05315;
      }

      .cls-61 {
        fill: #faf0eb;
      }

      .cls-62 {
        fill: #665ea7;
      }

      .cls-63 {
        fill: #d4642c;
      }

      .cls-64 {
        fill: #ce4e0e;
      }

      .cls-65 {
        fill: #635ba4;
      }

      .cls-66 {
        fill: #665fa7;
      }

      .cls-67 {
        fill: #645ca5;
      }

      .cls-68 {
        fill: #fbf6f3;
      }

      .cls-69 {
        fill: #faf1ec;
      }

      .cls-70 {
        fill: #d4622a;
      }

      .cls-71 {
        fill: #6860a7;
      }

      .cls-72 {
        fill: #535353;
      }

      .cls-73 {
        fill: #faeee9;
      }

      .cls-74 {
        fill: #ce4c0c;
      }

      .cls-75 {
        fill: #fdf9f8;
      }

      .cls-76 {
        fill: #c95114;
      }

      .cls-77 {
        fill: #d36027;
      }

      .cls-78 {
        fill: #d25b20;
      }

      .cls-79 {
        fill: #cd4d0d;
      }

      .cls-80 {
        fill: #d5652e;
      }
    </style>
  </defs>
  <path class="cls-72" d="M153.08,167.01c1.63-.19,3.36.13,5,0,1.35-1.44,1.96-.82,1,1l.06,78.45c-.31,1.16-2.13.37-3.06.55-1.14-1.05-2.14-1.05-3,0-.76-.15-2.58.33-2.91-.05-.59-.68.24-5.43-.1-6.94-1.78.96-2.01,2.87-4.05,4.44-11.05,8.49-27.37,2.13-33.34-9.55-1.68-3.29-3.2-13.31-3.6-13.9,4.2-5.17,4.72-10.14,1.56-14.89l.44-2.11c1.46-1.56,2.16-5.82,3-7,.64-.9,6.08-5.48,7.29-6.21,8.54-5.1,21.55-3.88,27.7,4.21.29-8.49-.35-17.08-.03-25.58.05-1.29,1.03-2.28,1.04-2.42,1.18-1.04,1.52-1.29,3,0Z"/>
  <path class="cls-72" d="M217.74,193.34c5.66,5.82,2.83,26.49,3.35,35.15.36,6.06,1.21,12.77,2.99,18.5-2.17-.45-8.56.73-9.86-.12-.94-.61-.6-5.83-2.63-6.85-12.23,14.18-46.84,10.11-39.56-13.58,4.66-15.17,25.05-11.27,36.53-15.46,4.78-1.75,3.47-7.51,1.02-10.96-3.2-4.5-11.93-4.64-16.9-3.92-9,1.3-9.37,10.33-11.16,10.78-1.18.3-6.23-1.83-8.43-.88-.35-19.85,34.5-23.11,44.66-12.66Z"/>
  <path class="cls-72" d="M278.08,248.01c-16.92-3.39-19.16-25.27-3.29-31.8,6.21-2.55,26.68-3.56,29.42-6.64,1.46-1.65-.52-8.25-2.1-10.09-3.41-3.98-11.68-4.07-16.44-3.38-9,1.3-9.37,10.33-11.16,10.78-1.18.3-6.23-1.83-8.43-.88-.32-19.88,34.52-23.08,44.66-12.66,4.96,5.1,3.61,26.02,3.34,33.66.78,3.35,1.05,9.46.91,13.58-.08,2.28-.19,4.98-1.91,6.42-8.58.31-4.73-.39-8.5-6.98-3.1,3.87-6.33,4.59-10.5,5.98-2.32.59-2.98-.07-2-2-3.61-.83-7.39-1.07-11,0-.99,1.21-1.99,2.54-3,4Z"/>
  <path class="cls-72" d="M250.08,248.01c-5.85-1.05-12-4.85-12-11.5v-39.5c-7.41.72-8.16.27-7.02-7.43.76-1.32,7.02-.22,7.02-.57v-15c0-.56,8.84-3.59,10-5v20h10.01s.01,7.43.01,7.43c-.21,1.4-10.02.07-10.02.57v38.5c0,4.24,9.61,2.11,10,2.49.25.25.53,5.83,1,7.01,1.17,1.72-1.52,3.5-3,2-.55,1.6-.91,2.65-2,1h-4Z"/>
  <path class="cls-46" d="M300.08,141.01v30c-2.7.35-2.52.04-3.49-2-16.58,11.11-21.13-21.59-4.99-20.09,2.61.24,3.19,2.03,5.47,2.09v-10s3.01,0,3.01,0Z"/>
  <path class="cls-46" d="M168.08,149.01c.76.97,1.15,1.73,1.01,3,.36.36,3.49-4.62,9.29-2.8,1.48.46,2.37,2.52,3.33,2.74,1.3.3,3.35-4,8.84-2.93,1.3.25,4.53,2.83,4.53,3.49v18.5h-3v-15.5c0-.56-1.81-3.07-2.67-3.36-8.95-3.04-7.32,13.95-7.34,18.87h-3v-15.51c0-.53-1.84-3.13-2.67-3.4-8.45-2.66-7.46,14.14-7.33,18.9-2.6,1.2-4.14-1.6-3-3.01-.5-1.38,1.41-2.28,1.31-1.88-.16.63-.96,1.06-1.12.87-.63-.71-.51-17.71,1.81-17.99Z"/>
  <path class="cls-65" d="M203.08,161.01c1.2,4.94,3.37,8.65,9.31,6.83,2.56-.78,2.38-6.07,6.7-3.33.61,7.06-15.53,10.1-18.21,1.25-5.9-19.48,17.97-23.99,19.21-4.75h-17Z"/>
  <path class="cls-42" d="M114.07,170.01c.76,2.06-1.64,3.55-1.82,4.69-.15.95,1.63,2.71,1.89,4.76.7,5.5-.25,10.05-6.58,9.64-7.52-.5-5.71-13.81-7.5-15.09-2.57-1.83-6.8,4.3-4.5,9.03.92,1.9,4.62,1.21,3.5,4.46-1.27,3.68-6.4-1.78-6.93-5.04-2.72-16.85,11.19-9.53,21.93-12.44Z"/>
  <path class="cls-65" d="M164.08,264.01c1.2,4.94,3.37,8.65,9.31,6.83,2.56-.78,2.38-6.07,6.7-3.33.61,7.06-15.53,10.1-18.21,1.25-5.9-19.48,17.97-23.99,19.21-4.75h-17Z"/>
  <path class="cls-65" d="M248.08,269.01c-1.56,1.56-2.27,3.72-4.95,4.55-17.43,5.4-18.36-19.62-6.49-21.5,8.98-1.42,10.48,3.74,12.44,10.94.89.27.88.6,0,1-.16,1.95-.5,3.62-1,5Z"/>
  <path class="cls-42" d="M236.08,141.01h3s0,9.99,0,9.99c10.02-4.64,13.99-2.14,14.98,8.52.15,1.67.43,11.09.01,11.49-.14.14-4,.2-4,0v-15.5c0-3.67-6.58-4.69-9.02-2.02-2.56,2.8-1.82,13.65-1.98,17.53h-3v-30.01Z"/>
  <path class="cls-42" d="M274.73,151.35c4.43,4.52,4.4,16.22-1.9,18.9-11.15,4.74-17.83-5.42-14.41-15.44,2.16-6.33,11.87-7.99,16.32-3.46Z"/>
  <path class="cls-67" d="M107.08,144c-1.15-3.87,2.95-2.95,3.81-5.68,1.19-3.79-.77-9.95-4.72-7.21-2.15,1.49-.79,14.37-9.36,12.73-9.5-1.81-2.94-19.85,1.26-15.84.78.74-7.15,12.05-.49,12.02,4.5-.02,2.1-13.62,10.99-13.12,8.11.45,7.8,18.69-1.49,17.1Z"/>
  <path class="cls-67" d="M126.07,258c-.98,1-10.37-6.64-11.99-1.49-1.78,5.69,13.62,2.69,13.09,11.99-.46,8.1-18.67,7.81-17.1-1.49,3.67-1.09,2.91,2.02,4.39,3.06,5.29,3.73,11.63-1.59,8.01-4.17-3.33-2.38-12.99-1.05-12.38-8.32.9-10.65,20.17-3.89,15.96.42Z"/>
  <path class="cls-67" d="M321.07,155c-.98,1-10.37-6.64-11.99-1.49-1.78,5.69,13.62,2.69,13.09,11.99-.46,8.1-18.67,7.81-17.1-1.49,3.67-1.09,2.91,2.02,4.39,3.06,5.29,3.73,11.63-1.59,8.01-4.17-3.33-2.38-12.99-1.05-12.38-8.32.9-10.65,20.17-3.89,15.96.42Z"/>
  <path class="cls-65" d="M111.08,204.01c3.77,1.43,5.14,16.77-2,17-.11-.17-3.03.76-1.92-2.44.38-1.08,1.65-1.21,1.92-1.56,1.61-2.68,1.94-5.35,1-8-1.36-1.16-2.13-1.43-3.91-.9-1.82,5.18-2.77,15.91-10.84,12.17-7.52-3.48-1.01-18.91,2.75-15.27,1.52,1.47-2.45,4.55-2.8,5.7-.81,2.65-.29,7.44,3.27,6.27,2.63-.86,2.64-16.73,12.53-12.97Z"/>
  <path class="cls-40" d="M308.08,299.01c.22.03,1.99,1.59,3.71,1.77,1.89.2,6.27.73,7.75.3,1.24-.36.19-2.66.55-3.07,1.4-1.59,2.36,1.45,3,2,1.42-1.36,1.98-.75,1,1-3.57,2.71-1.26,7.82-2.03,11.29-.16.71-1.51.73-1.88,1.49-1.9,3.85-1.43,6.55-7.56,6.29-9.61-.41-10.27-14.05.48-13.07v10c2.68.5,5.34-1.52,5.05-4.45-.18-1.89-7.3-8.57,1.94-3.55l.02-6h-15c-.48-2,.56-2.2,1.99-2.99-.81-1.7-.7-2.04,1-1Z"/>
  <path class="cls-46" d="M186.08,271.01c-.35-6.29.25-12.71,0-19.01h2.99s.01,3.01.01,3.01c2.21-4.67,13.99-3.42,13.99.5v18.5h-3v-15.5c0-3.21-6.5-4.61-8.77-2.26s-2.09,11.02-2.23,14.31c-.08,1.92,1.03,4.01-2,3.45-1.78.89-2.67-2.05-1-3Z"/>
  <path class="cls-67" d="M133.08,272.01c-4.97-9.05-1.49-23.4,11.06-19.55,6.83,2.1,5.75,10.13.85,5.89-.64-.55-.55-2.54-2.6-3.19-10.02-3.13-11.09,19.93,1.03,15.68,2.91-1.02,1.53-6.97,5.67-4.33-.09,6.57-5.56,8.39-11.48,7.44-1.69-.27-2.58-1.67-3.52-1.95-.33.81-.67.81-1,0Z"/>
  <path class="cls-67" d="M99.07,84.01c2.55,2.75-3.34,5.09-3.84,6.69-3.13,10.02,19.93,11.09,15.68-1.03-1.02-2.91-6.97-1.53-4.33-5.67,9.02-1.13,11.23,15.84.76,17.77-4.77.88-10.13.83-13.29-3.24-6.11-7.88,2.85-16.84,5.01-14.51Z"/>
  <path class="cls-67" d="M226.07,259c-2.75,2.55-5.09-3.34-6.69-3.84-10.02-3.13-11.09,19.93,1.03,15.68,2.91-1.02,1.53-6.97,5.67-4.33,1.13,9.02-15.84,11.23-17.77.76-.88-4.77-.83-10.13,3.24-13.29,7.88-6.11,16.84,2.85,14.51,5.01Z"/>
  <path class="cls-6" d="M58.08,109.01c-.18.18.56,2.28-.59,3.09-2.81,1.99-8.86.12-11.77.9-1.16.31.82,3.77-4.87-.27-1.14-.81-2.21-.74-1.77-2.72,4.5,1.22,3.73-1.71,4.03-1.96,1.95-1.64,1.87,1.78,2.61,1.97,1.02.26,8.63.27,9.65,0s.96-2.4,2.32-2.87c1.83-.64,4.4.06,6.38-.16.75-.63-6.97-12,10.56-10.04,1.36.15,5,1.14,2.46,2.56-2.93,1.64-10.85-1.19-11.94,2.09-.95,2.84,1,4.56,3.64,5.17,2.94.68,9.91-1.41,9.28,2.22-2.8.53-19.3-.71-20,0Z"/>
  <path class="cls-1" d="M201.09,124.01c.32-.41,6.71,6.11,8.94.45,1.63-4.14-2.41-1.36-4.39-1.48-7.21-.4-6.99-12.45-2.31-14.33,1.08-.43,8.44-.46,8.79-.2,1.91,1.4,1.31,15.98-.6,18.5-3.67,4.86-12.88.22-10.44-2.94Z"/>
  <path class="cls-1" d="M416.09,248.01c.32-.41,6.71,6.11,8.94.45,1.63-4.14-2.41-1.36-4.39-1.48-7.21-.4-6.99-12.45-2.31-14.33,1.08-.43,8.44-.46,8.79-.2,1.91,1.4,1.31,15.98-.6,18.5-3.67,4.86-12.88.22-10.44-2.94Z"/>
  <path class="cls-1" d="M227.08,316c-.41-.32,6.11-6.71.45-8.94-4.14-1.63-1.36,2.41-1.48,4.39-.4,7.21-12.45,6.99-14.33,2.31-.43-1.08-.46-8.44-.2-8.79,1.4-1.91,15.98-1.31,18.5.6,4.86,3.67.22,12.88-2.94,10.44Z"/>
  <path class="cls-1" d="M265.08,350c-.41-.32,6.11-6.71.45-8.94-4.14-1.63-1.36,2.41-1.48,4.39-.4,7.21-12.45,6.99-14.33,2.31-.43-1.08-.46-8.44-.2-8.79,1.4-1.91,15.98-1.31,18.5.6,4.86,3.67.22,12.88-2.94,10.44Z"/>
  <path class="cls-15" d="M110.08,63.01c1.79.47,1.32,3.77,0,5-7.11-1.87-4.43,9.44-8.7,12.05-7.6,4.63-12.38-6.95-7.77-13.02.91-1.2,3.42-3.05,4.47-2.02,1.65,1.63-5.58,6.52-2.51,11.02,4.01,5.88,6.32-10.31,9.52-12.03-.86-2.21,3.85-2.68,5-1Z"/>
  <path class="cls-62" d="M114.08,197.01c-1.3,2.8-15.52,1.37-18.33,2.02-.93.22-.27,2.76-3.16,2-.4-.11-.3-1.71-1.23-1.97-3.06-.84-4.99.79-6.28-4.04,10.14,1.6,5.92-2.92,7-4.02.11-.11,2.89-.11,2.99,0,.35.36-.34,3.66,0,4.02.54.57,14.57.29,15.53-1.03,1.14-1.55-.9-3.84,3.47-2.99-.3,1.51.46,5.02,0,6.01Z"/>
  <path class="cls-66" d="M95.07,156c.35.36-.34,3.66,0,4.02.52.55,14.39.04,15.08-.45,1.58-1.13-.49-4.74,3.92-3.56,2.35,11.77-11.83,6.52-18.32,8.02-.93.22-.27,2.76-3.16,2-.4-.11-.3-1.71-1.23-1.97-3.06-.84-4.99.79-6.28-4.04,10.14,1.6,5.92-2.92,7-4.02.11-.11,2.89-.11,2.99,0Z"/>
  <path class="cls-66" d="M95.07,114c.35.36-.34,3.66,0,4.02.52.55,14.39.04,15.08-.45,1.58-1.13-.49-4.74,3.92-3.56,2.35,11.77-11.83,6.52-18.32,8.02-.93.22-.27,2.76-3.16,2-.4-.11-.3-1.71-1.23-1.97-3.06-.84-4.99.79-6.28-4.04,10.14,1.6,5.92-2.92,7-4.02.11-.11,2.89-.11,2.99,0Z"/>
  <path class="cls-44" d="M228.08,145.01c.31.86-.35,3.69,0,4.01.37.35,3.66-.36,4.02,0,.11.11.11,2.89,0,2.99-.36.35-3.66-.34-4.02,0-.55.52-.04,14.39.45,15.08,1.13,1.58,4.74-.49,3.56,3.92-11.77,2.35-6.53-11.85-8.02-18.32-.18-.8-1.9-.78-2-1.17-.28-1.08,3.02-5.38,3.02-8.5,2.08-1.96,3.96-.75,3,2Z"/>
  <path class="cls-1" d="M359.08,66.01c.24-2.02-.09-3.24,2.05-4.46,1.9-1.08,11.74-1.29,7.35-4.62-4.08-3.09-7.14,3.43-8.39,2.07-2.88-3.11,8.65-8.34,11.47-1.97,1.42,3.21.08,8.4.52,11.97-4.2-1.91-7.93,1.45-11.98-1-1.18,1.58,1.62,15.18-1.01,18-.68-6.41-1.04-13.65,0-20Z"/>
  <path class="cls-13" d="M359.06,232.01l3.51,11.01c.67-.02,1.55-9.71,4.01-11,1.81-.94,1.5,1.45,1.75,2.21.81,2.5,1.47,5.16,1.75,7.78,3.98-1.32,1.45-10.06,5.98-9.99.15,2.1-3.41,14.53-4.06,14.95-4.37,2.82-3.99-9.96-5.44-9.96-1.77,2.46-1.36,12.59-5.44,9.96-.55-.36-3.79-11.12-4-12.53-.31-2.08-.52-2.81,1.92-2.42Z"/>
  <path class="cls-60" d="M338.08,181.01c1.34-1.31,4.7.1,4,2,1.96.69,7.58-.03,6,3.5-1.38,3.05-9.54.6-9,4.5,3.51.47,9.9.01,9.01,5-3.26-.78-11.74,4.06-13.51,3.98-5.74-.26,7.83-6.69,9.51-4.98-1-2.54-16.31-3.36-9.26-6.75,2.32-1.12,6.63-1.13,9.26-2.25l-10.51-3.97.03-2.03c1.4.63,3.17.62,4.49,1.02Z"/>
  <path class="cls-23" d="M288.08,410.51c-1.76,6.17-15.6,2.59-11.99-1.5,1.05-1.19,3.51,2.55,4.7,2.85,2.87.72,5.56-1.94,5.29-4.85-12.54,6.27-13.58-15.37-3.72-13.85,1.46.22,2.5,1.63,3.24,1.86.62.19,0-3.28,2.48-2.01-.84,4.66,1.15,13.48,0,17.5Z"/>
  <path class="cls-23" d="M365.08,115.51c-1.76,6.17-15.6,2.59-11.99-1.5,1.05-1.19,3.51,2.55,4.7,2.85,2.87.72,5.56-1.94,5.29-4.85-12.54,6.27-13.58-15.37-3.72-13.85,1.46.22,2.5,1.63,3.24,1.86.62.19,0-3.28,2.48-2.01-.84,4.66,1.15,13.48,0,17.5Z"/>
  <path class="cls-60" d="M288.08,333.02c3.4,4.02-8.78,4.89-9.01,5.5l7.98,3.01,1.03,3.47c-3.26-.78-11.74,4.06-13.51,3.98-.56-.03-2.16-1.71-.5-2.48l10-3.48c-2.98-.8-6.14-1.32-9-2.55-.79-.34-2.84-.3-1.98-1.95,1.38-2.63,9.38-1.49,10.98-4.5-1.27.27-13.63-2.61-10.99-5.01.57-.52,14.5,3.41,15,4Z"/>
  <path class="cls-60" d="M329.09,334c1.35.29,1.12-1.04,1.47-2,1.03-2.89,1.55-6.08,2.54-8.99,3.17-2.4,3.91,10,5.49,11.01.68-.01,2.69-14.09,5.5-11,.53.58-3.73,14.87-4.5,15-5.19.87-3.54-8.46-5-9.01l-3.01,7.98c-.39,1.22-3.08,1.34-3.47,1.03-.46-.38-2.6-9.89-2.99-11.54-.17-.75-1.72-3.59.48-3.44,1.42.1,3.81,9.13,3.51,10.97Z"/>
  <path class="cls-23" d="M115.08,322.51c-1.76,6.17-15.6,2.59-11.99-1.5,1.05-1.19,3.51,2.55,4.7,2.85,2.87.72,5.56-1.94,5.29-4.85-12.54,6.27-13.58-15.37-3.72-13.85,1.46.22,2.5,1.63,3.24,1.86.62.19,0-3.28,2.48-2.01-.84,4.66,1.15,13.48,0,17.5Z"/>
  <path class="cls-23" d="M216.08,297.51c-1.76,6.17-15.6,2.59-11.99-1.5,1.05-1.19,3.51,2.55,4.7,2.85,2.87.72,5.56-1.94,5.29-4.85-12.54,6.27-13.58-15.37-3.72-13.85,1.46.22,2.5,1.63,3.24,1.86.62.19,0-3.28,2.48-2.01-.84,4.66,1.15,13.48,0,17.5Z"/>
  <path class="cls-23" d="M199.07,302.99c-.31.41-8.49,2.16-10,2.02-.27,2.59,0,1.59,1.46,2.02,1.71.5,10.7,1.17,8.07,4-2.02,2.17-11.48,3.27-14.52,4.97.14-1.2-.7-2.27.66-3.02,1.71-.95,7.08-1.38,9.33-1.99-.35-2.62-13.79-2.95-10-6.98.35-.38,8.71-.62,10.01-2.51-.02-.99-8.23-2.02-9.32-2.51-1.21-.55-.84-2.81-.69-2.98.57-.64,16.76,4.64,14.99,6.99Z"/>
  <path class="cls-43" d="M226.08,341.01c-1.29,4.55,2.3,9.86-3.26,12.24-6.78,2.9-15.63-2.2-9.74-9.23h-7.01s0-3.01,0-3.01h20Z"/>
  <path class="cls-43" d="M266.08,21.01v20c-4.55-1.29-9.86,2.3-12.24-3.26-2.9-6.78,2.2-15.63,9.23-9.74v-7.01s3.01,0,3.01,0Z"/>
  <path class="cls-43" d="M98.08,301.01v20c-4.55-1.29-9.86,2.3-12.24-3.26-2.9-6.78,2.2-15.63,9.23-9.74v-7.01s3.01,0,3.01,0Z"/>
  <path class="cls-43" d="M281.08,0v20c-4.55-1.29-9.86,2.3-12.24-3.26-2.9-6.78,2.2-15.63,9.23-9.74V0s3.01,0,3.01,0Z"/>
  <path class="cls-43" d="M263.08,68.01c-1.29,4.55,2.3,9.86-3.26,12.24-6.78,2.9-15.63-2.2-9.74-9.23h-7.01s0-3.01,0-3.01h20Z"/>
  <path class="cls-52" d="M99.08,277.51c.26-1.02,7.2-1.63,8.28-1.36,7.77,1.92,5.39,20.09-5.27,13.86,2.11,3.32-3.01,9.65-3.01,5.5v-18Z"/>
  <path class="cls-26" d="M62.08,251.01c-1.11-.52-5.03-1.79-2.99-4,1.06-1.15,3.5,2.79,5.47,2.95,3.59.29,6.38-5.49,3.2-4.8-1.78.39-2.73,1.3-4.94.68-5.54-1.55-5.87-13.63.99-14.68,2.71-.41,3.46,1.44,4.79,1.85.32.1.79-3.98,2.47-2,.54.63.29,14.92,0,16.52-.38,2.02-1.94,2.32-1.99,2.47-.25,2.27-2.59,2.6-7,1Z"/>
  <path class="cls-20" d="M263.07,113.01c-1.8,3.8,2.78,13.68-4.45,13.04-4.96-.44-3.91-9.44-4.56-10.05-.3-.28-2.41-.26-3.07.6-3.09,4.07,3.45,7.19,2.07,8.39-3.01,2.63-8.06-7.76-2.56-11.06,3.38-2.02,8.67-.5,12.56-.93Z"/>
  <path class="cls-20" d="M315.07,86c-3.8-1.8-13.68,2.78-13.04-4.45.44-4.96,9.44-3.91,10.05-4.56.28-.3.26-2.41-.6-3.07-4.07-3.09-7.19,3.45-8.39,2.07-2.63-3.01,7.76-8.06,11.06-2.56,2.02,3.38.5,8.67.93,12.56Z"/>
  <path class="cls-20" d="M348.07,202.01c-1.8,3.8,2.78,13.68-4.45,13.04-4.96-.44-3.91-9.44-4.56-10.05-.3-.28-2.41-.26-3.07.6-3.09,4.07,3.45,7.19,2.07,8.39-3.01,2.63-8.06-7.76-2.56-11.06,3.38-2.02,8.67-.5,12.56-.93Z"/>
  <path class="cls-20" d="M58.07,194.01c-1.8,3.8,2.78,13.68-4.45,13.04-4.96-.44-3.91-9.44-4.56-10.05-.3-.28-2.41-.26-3.07.6-3.09,4.07,3.45,7.19,2.07,8.39-3.01,2.63-8.06-7.76-2.56-11.06,3.38-2.02,8.67-.5,12.56-.93Z"/>
  <path class="cls-20" d="M355.07,313c-3.8-1.8-13.68,2.78-13.04-4.45.44-4.96,9.44-3.91,10.05-4.56.28-.3.26-2.41-.6-3.07-4.07-3.09-7.19,3.45-8.39,2.07-2.63-3.01,7.76-8.06,11.06-2.56,2.02,3.38.5,8.67.93,12.56Z"/>
  <path class="cls-20" d="M131.07,320c-3.8-1.8-13.68,2.78-13.04-4.45.44-4.96,9.44-3.91,10.05-4.56.28-.3.26-2.41-.6-3.07-4.07-3.09-7.19,3.45-8.39,2.07-2.63-3.01,7.76-8.06,11.06-2.56,2.02,3.38.5,8.67.93,12.56Z"/>
  <path class="cls-20" d="M264.07,359.01c-1.8,3.8,2.78,13.68-4.45,13.04-4.96-.44-3.91-9.44-4.56-10.05-.3-.28-2.41-.26-3.07.6-3.09,4.07,3.45,7.19,2.07,8.39-3.01,2.63-8.06-7.76-2.56-11.06,3.38-2.02,8.67-.5,12.56-.93Z"/>
  <path class="cls-20" d="M303.07,113c-3.8-1.8-13.68,2.78-13.04-4.45.44-4.96,9.44-3.91,10.05-4.56.28-.3.26-2.41-.6-3.07-4.07-3.09-7.19,3.45-8.39,2.07-2.63-3.01,7.76-8.06,11.06-2.56,2.02,3.38.5,8.67.93,12.56Z"/>
  <path class="cls-20" d="M58.07,116.01c-1.8,3.8,2.78,13.68-4.45,13.04-4.96-.44-3.91-9.44-4.56-10.05-.3-.28-2.41-.26-3.07.6-3.09,4.07,3.45,7.19,2.07,8.39-3.01,2.63-8.06-7.76-2.56-11.06,3.38-2.02,8.67-.5,12.56-.93Z"/>
  <path class="cls-9" d="M168.08,149.01c-.54,2.87.73,18.03,0,19.01-.17.22-1.82-.22-2,0l-.51-1-6.49,1c-.17-.43-.9-.75-1-1-1.39-3.62-4.16-6.4-1.46-10.95,2.9-4.88,8.12-1.71,8.45-2.05.51-.53-.09-8.94,3.01-5Z"/>
  <path class="cls-76" d="M314.08,227.01c3.03-.56,1.92,1.53,2,3.45.1,2.51-.08,5.05,0,7.55l7.98-5.99c.4,2.89-4.02,3.91-4.01,6.48,0,1.57,5.59,8.05,5.01,8.51-4.48.73-4.83-4.73-7.5-6.97-2.61,1.16-.97,6.37-1.5,6.99-.12.14-2.23-.04-3,0,.22-5.83-.29-11.75-.04-17.58.06-1.29,1.04-2.29,1.04-2.42Z"/>
  <path class="cls-32" d="M233.07,101.01c1.94,1.66-2.04,2.17-2.05,2.5-.07,1.78,4.61,7.24.07,10.02-6.53,3.99-6.9-9.18-8.53-9.53-1.47-.31-2.35,1.21-2.54,2.53-.4,2.74,2.76,5.73,2.05,6.46-2.51,2.58-8.6-10.52.57-11.93,1.43-.22,10.03-.4,10.43-.06Z"/>
  <path class="cls-41" d="M225.08,143.01c0-4.4-4.03-12.51-5.06-5.47-.4,2.74,2.76,5.73,2.05,6.46-2.51,2.58-8.6-10.53.57-11.93,1.43-.22,10.03-.4,10.43-.06,1.94,1.66-2.04,2.18-2.05,2.5-.08,2.31,6,9.87-2.95,10.49-.1-.29-2.46-1.44-3-2Z"/>
  <path class="cls-41" d="M185.08,348.01c1.49-1.02,13.43-1.48,13.99-.99,1.94,1.66-2.04,2.18-2.05,2.5-.05,1.5,4.84,8.63-.61,10.39-7.07,2.27-5.31-10.63-8.82-9.89-1.14.24-1.63,2.33-1.61,3.5.02,1.3,3.85,6.74.61,5.48-2.82-1.1-2.99-6.41-2.52-8.99-1.91-.53-1.07-2.8,1-2Z"/>
  <path class="cls-32" d="M293.07,265.01c1.94,1.66-2.04,2.17-2.05,2.5-.07,1.78,4.61,7.24.07,10.02-6.53,3.99-6.9-9.18-8.53-9.53-1.47-.31-2.35,1.21-2.54,2.53-.4,2.74,2.76,5.73,2.05,6.46-2.51,2.58-8.6-10.52.57-11.93,1.43-.22,10.03-.4,10.43-.06Z"/>
  <path class="cls-32" d="M78.07,126.01c1.94,1.66-2.04,2.17-2.05,2.5-.07,1.78,4.61,7.24.07,10.02-6.53,3.99-6.9-9.18-8.53-9.53-1.47-.31-2.35,1.21-2.54,2.53-.4,2.74,2.76,5.73,2.05,6.46-2.51,2.58-8.6-10.52.57-11.93,1.43-.22,10.03-.4,10.43-.06Z"/>
  <path class="cls-20" d="M142.08,300.01h3s.01,7,.01,7c10.69-6.58,9.25,5.42,8.98,13-1.22,1.6-1.82,0-2-1.48-.36-2.91,1.35-10.64-2.63-11.36-6.79-1.24-3.53,12.06-4.37,12.85h-3v-20.01Z"/>
  <path class="cls-78" d="M45.08,148.01c-4.15-2.84-.37-5.56-.17-7.67.12-1.3-1.7-2.45-1.87-3.9-.73-6.15,11.11-5.69,15.04-5.43v2.99s-11.89.1-11.89.1c-2.82,8.1,6.59,5.63,11.89,5.9v2.99c-1.07,1.13-16.04-2.85-12.01,4,.93,1.34.46,1.81-1,1Z"/>
  <path class="cls-78" d="M45.08,226.01c-4.15-2.84-.37-5.56-.17-7.67.12-1.3-1.7-2.45-1.87-3.9-.73-6.15,11.11-5.69,15.04-5.43v2.99s-11.89.1-11.89.1c-2.82,8.1,6.59,5.63,11.89,5.9v2.99c-1.07,1.13-16.04-2.85-12.01,4,.93,1.33.46,1.81-1,1Z"/>
  <path class="cls-78" d="M249.08,263.01c4.36-3.67,9.66-3.11,15.01-3v2.99s-11.89.1-11.89.1c-2.82,8.1,6.59,5.63,11.89,5.9v2.99c-1.07,1.13-16.04-2.85-12.01,4,.93,1.34.46,1.81-1,1-4.09-2.87-.5-5.35-.15-7.72.14-.91-.82-1.16-.85-1.28-2.25-1.04-3.42-2.26-1-4-.07-.32.08-.69,0-1Z"/>
  <path class="cls-78" d="M323.08,300.01c2.84-4.15,5.56-.37,7.67-.17,1.3.12,2.45-1.7,3.9-1.87,6.15-.73,5.69,11.11,5.43,15.04h-2.99s-.1-11.89-.1-11.89c-8.1-2.82-5.63,6.59-5.9,11.89h-2.99c-.49-.47.52-9.22-.16-11.35-.93-2.92-3.21-.61-3.85-.66-.07,0-.72-.76-1-1Z"/>
  <path class="cls-78" d="M335.08,272.01c2.84-4.15,5.56-.37,7.67-.17,1.3.12,2.45-1.7,3.9-1.87,6.15-.73,5.69,11.11,5.43,15.04h-2.99s-.1-11.89-.1-11.89c-8.1-2.82-5.63,6.59-5.9,11.89h-2.99c-.49-.47.52-9.22-.16-11.35-.93-2.92-3.21-.6-3.85-.66-1.37,1.39-1.91.8-1-1Z"/>
  <path class="cls-78" d="M153.08,386.01c-4.15-2.84-.37-5.56-.17-7.67.12-1.3-1.7-2.45-1.87-3.9-.73-6.15,11.11-5.69,15.04-5.43v2.99s-11.89.1-11.89.1c-2.82,8.1,6.59,5.63,11.89,5.9v2.99c-1.07,1.13-16.04-2.85-12.01,4,.93,1.34.46,1.81-1,1Z"/>
  <path class="cls-23" d="M153.07,94c-2.52,1.42-3.26-2.09-3.49-1.99-.73.32-1.22,1.65-3.04,1.98-5.55,1.03-8.3-1.25-5.57-6.59.89-2.25,10.09-1.35,9.09-3.88-.55-1.41-2.92-2.75-4.49-2.6-1.89.17-3.46,5.11-5.5,3.08-1.85-1.83,6.68-7.9,11.02-3.52,2.49,2.52-.44,10.08,1.97,13.51Z"/>
  <path class="cls-23" d="M301.07,69c-2.52,1.42-3.26-2.09-3.49-1.99-.73.32-1.22,1.65-3.04,1.98-5.55,1.03-8.3-1.25-5.57-6.59.89-2.25,10.09-1.35,9.09-3.88-.55-1.41-2.92-2.75-4.49-2.6-1.89.17-3.46,5.11-5.5,3.08-1.85-1.83,6.68-7.9,11.02-3.52,2.49,2.52-.44,10.08,1.97,13.51Z"/>
  <path class="cls-23" d="M371.07,182c-2.52,1.42-3.26-2.09-3.49-1.99-.73.32-1.22,1.65-3.04,1.98-5.55,1.03-8.3-1.25-5.57-6.59.89-2.25,10.09-1.35,9.09-3.88-.55-1.41-2.92-2.75-4.49-2.6-1.89.17-3.46,5.11-5.5,3.08-1.85-1.83,6.68-7.9,11.02-3.52,2.49,2.52-.44,10.08,1.97,13.51Z"/>
  <path class="cls-23" d="M359.07,338c-2.52,1.42-3.26-2.09-3.49-1.99-.73.32-1.22,1.65-3.04,1.98-5.55,1.03-8.3-1.25-5.57-6.59.89-2.25,10.09-1.35,9.09-3.88-.55-1.41-2.92-2.75-4.49-2.6-1.89.17-3.46,5.11-5.5,3.08-1.85-1.83,6.68-7.9,11.02-3.52,2.49,2.52-.44,10.08,1.97,13.51Z"/>
  <path class="cls-41" d="M51.07,155v10c2.02.36,4.31-.71,4.86-2.71,1.2-4.34-4.5-4.58-1.34-7.28,6.57,3.63,3.97,13.4-3.99,13.06-9.63-.41-10.25-14.07.48-13.07Z"/>
  <path class="cls-64" d="M409.08,162.01v20c-3.98-1.36-10.13,1.98-11.78-3.71-2.22-7.6,2.41-14.36,9.77-9.29.94-1.29-1.97-8.02,2.01-7Z"/>
  <path class="cls-41" d="M147.08,161h-10c-.36,2.02.71,4.31,2.71,4.86,4.34,1.2,4.58-4.5,7.28-1.34-3.63,6.57-13.4,3.97-13.06-3.99.41-9.63,14.07-10.25,13.07.48Z"/>
  <path class="cls-41" d="M25.07,151v10c2.02.36,4.31-.71,4.86-2.71,1.2-4.34-4.5-4.58-1.34-7.28,6.57,3.63,3.97,13.4-3.99,13.06-9.63-.41-10.25-14.07.48-13.07Z"/>
  <path class="cls-41" d="M100.08,345h-10c-.36,2.02.71,4.31,2.71,4.86,4.34,1.2,4.58-4.5,7.28-1.34-3.63,6.57-13.4,3.97-13.06-3.99.41-9.63,14.07-10.25,13.07.48Z"/>
  <path class="cls-41" d="M67.08,314h-10c-.36,2.02.71,4.31,2.71,4.86,4.34,1.2,4.58-4.5,7.28-1.34-3.63,6.57-13.4,3.97-13.06-3.99.41-9.63,14.07-10.25,13.07.48Z"/>
  <path class="cls-41" d="M125.08,345h-10c-.36,2.02.71,4.31,2.71,4.86,4.34,1.2,4.58-4.5,7.28-1.34-3.63,6.57-13.4,3.97-13.06-3.99.41-9.63,14.07-10.25,13.07.48Z"/>
  <path class="cls-41" d="M256.07,83v10c2.02.36,4.31-.71,4.86-2.71,1.2-4.34-4.5-4.58-1.34-7.28,6.57,3.63,3.97,13.4-3.99,13.06-9.63-.41-10.25-14.07.48-13.07Z"/>
  <path class="cls-41" d="M170.08,345h-10c-.36,2.02.71,4.31,2.71,4.86,4.34,1.2,4.58-4.5,7.28-1.34-3.63,6.57-13.4,3.97-13.06-3.99.41-9.63,14.07-10.25,13.07.48Z"/>
  <path class="cls-41" d="M376.08,79h-10c-.36,2.02.71,4.31,2.71,4.86,4.34,1.2,4.58-4.5,7.28-1.34-3.63,6.57-13.4,3.97-13.06-3.99.41-9.63,14.07-10.25,13.07.48Z"/>
  <path class="cls-41" d="M170.08,313h-10c-.36,2.02.71,4.31,2.71,4.86,4.34,1.2,4.58-4.5,7.28-1.34-3.63,6.57-13.4,3.97-13.06-3.99.41-9.63,14.07-10.25,13.07.48Z"/>
  <path class="cls-41" d="M281.07,351v10c2.02.36,4.31-.71,4.86-2.71,1.2-4.34-4.5-4.58-1.34-7.28,6.57,3.63,3.97,13.4-3.99,13.06-9.63-.41-10.25-14.07.48-13.07Z"/>
  <path class="cls-64" d="M403.08,140.01v20c-3.98-1.36-10.13,1.98-11.78-3.71-2.22-7.6,2.41-14.36,9.77-9.29.94-1.29-1.97-8.02,2.01-7Z"/>
  <path class="cls-6" d="M286.07,298c.8.77-2.18,14.76,3.5,8.99,4.22-4.29-3.43-6.82-1.49-8.98s9.36,8.51.75,12.24c-11.97,5.18-15.77-13.52-2.75-12.25Z"/>
  <path class="cls-40" d="M342.08,71.01c1.68-1.98,2.16,2.11,2.48,2.01.74-.23,1.78-1.63,3.24-1.85,9.26-1.43,8.95,20.18-3.71,13.85-.93,1.09,1.96,8.07-2.01,7,.51-2.91-.68-20.2,0-21Z"/>
  <path class="cls-6" d="M192.07,282c.8.77-2.18,14.76,3.5,8.99,4.22-4.29-3.43-6.82-1.49-8.98s9.36,8.51.75,12.24c-11.97,5.18-15.77-13.52-2.75-12.25Z"/>
  <path class="cls-41" d="M397.08,240h-10c-.36,2.02.71,4.31,2.71,4.86,4.34,1.2,4.58-4.5,7.28-1.34-3.63,6.57-13.4,3.97-13.06-3.99.41-9.63,14.07-10.25,13.07.48Z"/>
  <path class="cls-64" d="M175.08,103.01v20c-3.98-1.36-10.13,1.98-11.78-3.71-2.22-7.6,2.41-14.36,9.77-9.29.94-1.29-1.97-8.02,2.01-7Z"/>
  <path class="cls-41" d="M313.07,262v10c2.02.36,4.31-.71,4.86-2.71,1.2-4.34-4.5-4.58-1.34-7.28,6.57,3.63,3.97,13.4-3.99,13.06-9.63-.41-10.25-14.07.48-13.07Z"/>
  <path class="cls-6" d="M71.07,59c.8.77-2.18,14.76,3.5,8.99,4.22-4.29-3.43-6.82-1.49-8.98s9.36,8.51.75,12.24c-11.97,5.18-15.77-13.52-2.75-12.25Z"/>
  <path class="cls-41" d="M159.07,392v10c2.02.36,4.31-.71,4.86-2.71,1.2-4.34-4.5-4.58-1.34-7.28,6.57,3.63,3.97,13.4-3.99,13.06-9.63-.41-10.25-14.07.48-13.07Z"/>
  <path class="cls-41" d="M144.08,56h-10c-.36,2.02.71,4.31,2.71,4.86,4.34,1.2,4.58-4.5,7.28-1.34-3.63,6.57-13.4,3.97-13.06-3.99.41-9.63,14.07-10.25,13.07.48Z"/>
  <path class="cls-64" d="M412.08,227.01v20c-3.98-1.36-10.13,1.98-11.78-3.71-2.22-7.6,2.41-14.36,9.77-9.29.94-1.29-1.97-8.02,2.01-7Z"/>
  <path class="cls-64" d="M32.08,184.01H12.08c-1.02-3.98,5.71-1.07,7-2.01-7.55-9.21,9.49-13.86,12.5-6.96,1.29,2.94-.99,5.89.5,8.97Z"/>
  <path class="cls-64" d="M263.08,140.01h-20c-1.02-3.98,5.71-1.07,7-2.01-7.55-9.21,9.49-13.86,12.5-6.96,1.29,2.94-.99,5.89.5,8.97Z"/>
  <path class="cls-3" d="M358.08,86.01c-2.68-3.03.23-17.25-1.01-19-8.05,6.91-16.29-3.44-10.01-10.52,4.98-5.62,12.21.1,10.02,2.52-1.09,1.2-3.54-2.59-4.69-2.89-5.66-1.47-6.83,13.53,1.07,10.74.98-.35,4.37-6.93,4.63-.85.63,6.55.96,13.44,0,20Z"/>
  <path class="cls-60" d="M377.07,210h-10.99c-.08,3.82,3.58,6.65,7.05,4.51,1.08-.67.16-3.37,2.94-2.5.59,7.19-10.79,6.66-11.97.47-2.42-12.67,11.95-14.16,12.97-2.48Z"/>
  <path class="cls-60" d="M135.07,367h-10.99c-.08,3.82,3.58,6.65,7.05,4.51,1.08-.67.16-3.37,2.94-2.5.59,7.19-10.79,6.66-11.97.47-2.42-12.67,11.95-14.16,12.97-2.48Z"/>
  <path class="cls-60" d="M288.07,106h-10.99c-.08,3.82,3.58,6.65,7.05,4.51,1.08-.67.16-3.37,2.94-2.5.59,7.19-10.79,6.66-11.97.47-2.42-12.67,11.95-14.16,12.97-2.48Z"/>
  <path class="cls-60" d="M444.07,240h-10.99c-.08,3.82,3.58,6.65,7.05,4.51,1.08-.67.16-3.37,2.94-2.5.59,7.19-10.79,6.66-11.97.47-2.42-12.67,11.95-14.16,12.97-2.48Z"/>
  <path class="cls-60" d="M250.07,13h-10.99c-.08,3.82,3.58,6.65,7.05,4.51,1.08-.67.16-3.37,2.94-2.5.59,7.19-10.79,6.66-11.97.47-2.42-12.67,11.95-14.16,12.97-2.48Z"/>
  <path class="cls-60" d="M422.07,210h-10.99c-.08,3.82,3.58,6.65,7.05,4.51,1.08-.67.16-3.37,2.94-2.5.59,7.19-10.79,6.66-11.97.47-2.42-12.67,11.95-14.16,12.97-2.48Z"/>
  <path class="cls-60" d="M233.07,288h-10.99c-.08,3.82,3.58,6.65,7.05,4.51,1.08-.67.16-3.37,2.94-2.5.59,7.19-10.79,6.66-11.97.47-2.42-12.67,11.95-14.16,12.97-2.48Z"/>
  <path class="cls-60" d="M151.07,284h-10.99c-.08,3.82,3.58,6.65,7.05,4.51,1.08-.67.16-3.37,2.94-2.5.59,7.19-10.79,6.66-11.97.47-2.42-12.67,11.95-14.16,12.97-2.48Z"/>
  <path class="cls-60" d="M338.08,181.01c-8.14-12.15,8.28-21.2,11-6.01h-10.99c-.08,3.82,3.58,6.65,7.05,4.51,1.08-.67.16-3.37,2.94-2.5.67,4.68-3.13,4.25-5.99,5.99-1.14-.4-2.09-1.43-4-2Z"/>
  <path class="cls-60" d="M394.07,175h-10.99c-.08,3.82,3.58,6.65,7.05,4.51,1.08-.67.16-3.37,2.94-2.5.59,7.19-10.79,6.66-11.97.47-2.42-12.67,11.95-14.16,12.97-2.48Z"/>
  <path class="cls-60" d="M47.07,263h-10.99c-.08,3.82,3.58,6.65,7.05,4.51,1.08-.67.16-3.37,2.94-2.5.59,7.19-10.79,6.66-11.97.47-2.42-12.67,11.95-14.16,12.97-2.48Z"/>
  <path class="cls-60" d="M191.07,401h-10.99c-.08,3.82,3.58,6.65,7.05,4.51,1.08-.67.16-3.37,2.94-2.5.59,7.19-10.79,6.66-11.97.47-2.42-12.67,11.95-14.16,12.97-2.48Z"/>
  <path class="cls-58" d="M274.09,37c2.07.3,4.38-13.93,6.98-10.99.68.77-5.97,18.06-6.94,19.29-1.12,1.41-2.87,1.67-4.54,1.72-2.49-4.09,2-2.51,3.06-3.94,2.24-2.99-5.59-15.97-4.57-17.07,2.13-2.3,6.34,9.5,6.01,10.99Z"/>
  <path class="cls-60" d="M179.82,48.16c9.25-1.64,10.88,12.71,4.57,14.65-11.16,3.43-12.91-13.16-4.57-14.65Z"/>
  <path class="cls-60" d="M367.82,145.16c9.25-1.64,10.88,12.71,4.57,14.65-11.16,3.43-12.91-13.16-4.57-14.65Z"/>
  <path class="cls-60" d="M381.82,124.16c9.25-1.64,10.88,12.71,4.57,14.65-11.16,3.43-12.91-13.16-4.57-14.65Z"/>
  <path class="cls-60" d="M359.82,270.16c9.25-1.64,10.88,12.71,4.57,14.65-11.16,3.43-12.91-13.16-4.57-14.65Z"/>
  <path class="cls-1" d="M164.83,355.26c2.04,2.07,1.83,10.12-1.27,10.74-5,1.01,0-3.78.31-4.7,1.27-3.76-.71-6.39-3.27-3.27-1.01,1.24-.89,3.86-1.71,5.28-3.02,5.25-8.81,1.13-7.63-4.57.88-4.25,4.83-4.39,4.8-2.24,0,.38-6.11,5.49-1.47,6.49,2.95.64,4.06-14.02,10.24-7.74Z"/>
  <path class="cls-6" d="M294.81,124.16c9.25-1.67,10.19,13.43,2.72,14.83-10.75,2.02-11.23-13.29-2.72-14.83Z"/>
  <path class="cls-6" d="M152.81,108.16c9.25-1.67,10.19,13.43,2.72,14.83-10.75,2.02-11.23-13.29-2.72-14.83Z"/>
  <path class="cls-1" d="M380.82,283.76c-2.07,2.04-10.12,1.83-10.74-1.27-1.01-5,3.78,0,4.7.31,3.76,1.27,6.39-.71,3.27-3.27-1.24-1.01-3.86-.89-5.28-1.71-5.25-3.02-1.13-8.81,4.57-7.63,4.25.88,4.39,4.83,2.24,4.8-.38,0-5.49-6.11-6.49-1.47-.64,2.95,14.02,4.06,7.74,10.24Z"/>
  <path class="cls-1" d="M30.83,204.26c2.04,2.07,1.83,10.12-1.27,10.74-5,1.01,0-3.78.31-4.7,1.27-3.76-.71-6.39-3.27-3.27-1.01,1.24-.89,3.86-1.71,5.28-3.02,5.25-8.81,1.13-7.63-4.57.88-4.25,4.83-4.39,4.8-2.24,0,.38-6.11,5.49-1.47,6.49,2.95.64,4.06-14.02,10.24-7.74Z"/>
  <path class="cls-1" d="M366.82,137.76c-2.07,2.04-10.12,1.83-10.74-1.27-1.01-5,3.78,0,4.7.31,3.76,1.27,6.39-.71,3.27-3.27-1.24-1.01-3.86-.89-5.28-1.71-5.25-3.02-1.13-8.81,4.57-7.63,4.25.88,4.39,4.83,2.24,4.8-.38,0-5.49-6.11-6.49-1.47-.64,2.95,14.02,4.06,7.74,10.24Z"/>
  <path class="cls-1" d="M56.83,75.26c2.04,2.07,1.83,10.12-1.27,10.74-5,1.01,0-3.78.31-4.7,1.27-3.76-.71-6.39-3.27-3.27-1.01,1.24-.89,3.86-1.71,5.28-3.02,5.25-8.81,1.13-7.63-4.57.88-4.25,4.83-4.39,4.8-2.24,0,.38-6.11,5.49-1.47,6.49,2.95.64,4.06-14.02,10.24-7.74Z"/>
  <path class="cls-1" d="M298.82,84.76c-2.07,2.04-10.12,1.83-10.74-1.27-1.01-5,3.78,0,4.7.31,3.76,1.27,6.39-.71,3.27-3.27-1.24-1.01-3.86-.89-5.28-1.71-5.25-3.02-1.13-8.81,4.57-7.63,4.25.88,4.39,4.83,2.24,4.8-.38,0-5.49-6.11-6.49-1.47-.64,2.95,14.02,4.06,7.74,10.24Z"/>
  <path class="cls-6" d="M65.81,276.16c9.25-1.67,10.19,13.43,2.72,14.83-10.75,2.02-11.23-13.29-2.72-14.83Z"/>
  <path class="cls-6" d="M182.81,79.16c9.25-1.67,10.19,13.43,2.72,14.83-10.75,2.02-11.23-13.29-2.72-14.83Z"/>
  <path class="cls-1" d="M147.82,372.76c-2.07,2.04-10.12,1.83-10.74-1.27-1.01-5,3.78,0,4.7.31,3.76,1.27,6.39-.71,3.27-3.27-1.24-1.01-3.86-.89-5.28-1.71-5.25-3.02-1.13-8.81,4.57-7.63,4.25.88,4.39,4.83,2.24,4.8-.38,0-5.49-6.11-6.49-1.47-.64,2.95,14.02,4.06,7.74,10.24Z"/>
  <path class="cls-1" d="M164.83,416.26c2.04,2.07,1.83,10.12-1.27,10.74-5,1.01,0-3.78.31-4.7,1.27-3.76-.71-6.39-3.27-3.27-1.01,1.24-.89,3.86-1.71,5.28-3.02,5.25-8.81,1.13-7.63-4.57.88-4.25,4.83-4.39,4.8-2.24,0,.38-6.11,5.49-1.47,6.49,2.95.64,4.06-14.02,10.24-7.74Z"/>
  <path class="cls-1" d="M48.82,244.76c-2.07,2.04-10.12,1.83-10.74-1.27-1.01-5,3.78,0,4.7.31,3.76,1.27,6.39-.71,3.27-3.27-1.24-1.01-3.86-.89-5.28-1.71-5.25-3.02-1.13-8.81,4.57-7.63,4.25.88,4.39,4.83,2.24,4.8-.38,0-5.49-6.11-6.49-1.47-.64,2.95,14.02,4.06,7.74,10.24Z"/>
  <path class="cls-1" d="M212.82,92.76c-2.07,2.04-10.12,1.83-10.74-1.27-1.01-5,3.78,0,4.7.31,3.76,1.27,6.39-.71,3.27-3.27-1.24-1.01-3.86-.89-5.28-1.71-5.25-3.02-1.13-8.81,4.57-7.63,4.25.88,4.39,4.83,2.24,4.8-.38,0-5.49-6.11-6.49-1.47-.64,2.95,14.02,4.06,7.74,10.24Z"/>
  <path class="cls-1" d="M327.82,67.76c-2.07,2.04-10.12,1.83-10.74-1.27-1.01-5,3.78,0,4.7.31,3.76,1.27,6.39-.71,3.27-3.27-1.24-1.01-3.86-.89-5.28-1.71-5.25-3.02-1.13-8.81,4.57-7.63,4.25.88,4.39,4.83,2.24,4.8-.38,0-5.49-6.11-6.49-1.47-.64,2.95,14.02,4.06,7.74,10.24Z"/>
  <path class="cls-6" d="M256.58,321.53c8.35.02,10.46,10.09,4.24,12.72-12.19,5.16-16.53-12.74-4.24-12.72Z"/>
  <path class="cls-1" d="M107.82,244.76c-2.07,2.04-10.12,1.83-10.74-1.27-1.01-5,3.78,0,4.7.31,3.76,1.27,6.39-.71,3.27-3.27-1.24-1.01-3.86-.89-5.28-1.71-5.25-3.02-1.13-8.81,4.57-7.63,4.25.88,4.39,4.83,2.24,4.8-.38,0-5.49-6.11-6.49-1.47-.64,2.95,14.02,4.06,7.74,10.24Z"/>
  <path class="cls-1" d="M261.83,99.26c2.04,2.07,1.83,10.12-1.27,10.74-5,1.01,0-3.78.31-4.7,1.27-3.76-.71-6.39-3.27-3.27-1.01,1.24-.89,3.86-1.71,5.28-3.02,5.25-8.81,1.13-7.63-4.57.88-4.25,4.83-4.39,4.8-2.24,0,.38-6.11,5.49-1.47,6.49,2.95.64,4.06-14.02,10.24-7.74Z"/>
  <path class="cls-6" d="M347.81,232.16c9.25-1.67,10.19,13.43,2.72,14.83-10.75,2.02-11.23-13.29-2.72-14.83Z"/>
  <path class="cls-6" d="M369.81,298.16c9.25-1.67,10.19,13.43,2.72,14.83-10.75,2.02-11.23-13.29-2.72-14.83Z"/>
  <path class="cls-1" d="M164.83,444.26c2.04,2.07,1.83,10.12-1.27,10.74-5,1.01,0-3.78.31-4.7,1.27-3.76-.71-6.39-3.27-3.27-1.01,1.24-.89,3.86-1.71,5.28-3.02,5.25-8.81,1.13-7.63-4.57.88-4.25,4.83-4.39,4.8-2.24,0,.38-6.11,5.49-1.47,6.49,2.95.64,4.06-14.02,10.24-7.74Z"/>
  <path class="cls-6" d="M265.81,393.16c9.25-1.67,10.19,13.43,2.72,14.83-10.75,2.02-11.23-13.29-2.72-14.83Z"/>
  <path class="cls-5" d="M259.08,245.01c6.54-.84,6.21,11.23,2.49,12-4.99,1.02,0-3.8.31-4.7,1.27-3.76-.71-6.39-3.27-3.27-1.1,1.35-.91,4.33-2.07,5.92-3.51,4.78-9.86-1-6.45-6.95,1.55-2.71,2.6-2.85,4,0-.58,2.12.09,1.79,2-1,.87-.46,2.32-1.91,3-2Z"/>
  <path class="cls-6" d="M243.81,393.16c9.25-1.67,10.19,13.43,2.72,14.83-10.75,2.02-11.23-13.29-2.72-14.83Z"/>
  <path class="cls-3" d="M62.07,270c-1.2,1.58-1.82.02-2-1.47-.31-2.65,1.24-11.47-3.48-11.13-5.58.4-2.99,8.83-3.52,12.61h-2.99c.3-2.35-1.03-15.1,1.5-14.99.29.01,1.13,1.62,1.97,1.63.73,0,1.85-1.72,3.93-1.67,7.16.18,3.99,10.21,4.6,15.02Z"/>
  <path class="cls-53" d="M405.06,281c.49-3.77,1.78-8.82,5-11,.56,3.01-6.99,25.07-10.98,20.99-2.48-2.53,2.73-3.12,3.09-3.6,2.5-3.35-5.69-15.58-4.09-17.39,2.7-3.06,4.68,11.45,6.98,10.99Z"/>
  <path class="cls-3" d="M82.07,321c-1.2,1.58-1.82.02-2-1.47-.31-2.65,1.24-11.47-3.48-11.13-5.58.4-2.99,8.83-3.52,12.61h-2.99c.3-2.35-1.03-15.1,1.5-14.99.29.01,1.13,1.62,1.97,1.63.73,0,1.85-1.72,3.93-1.67,7.16.18,3.99,10.21,4.6,15.02Z"/>
  <path class="cls-3" d="M235.07,408c-1.2,1.58-1.82.02-2-1.47-.31-2.65,1.24-11.47-3.48-11.13-5.58.4-2.99,8.83-3.52,12.61h-2.99c.3-2.35-1.03-15.1,1.5-14.99.29.01,1.13,1.62,1.97,1.63.73,0,1.85-1.72,3.93-1.67,7.16.18,3.99,10.21,4.6,15.02Z"/>
  <path class="cls-53" d="M368.06,334c.49-3.77,1.78-8.82,5-11,.56,3.01-6.99,25.07-10.98,20.99-2.48-2.53,2.73-3.12,3.09-3.6,2.5-3.35-5.69-15.58-4.09-17.39,2.7-3.06,4.68,11.45,6.98,10.99Z"/>
  <path class="cls-3" d="M197.07,123c-1.2,1.58-1.82.02-2-1.47-.31-2.65,1.24-11.47-3.48-11.13-5.58.4-2.99,8.83-3.52,12.61h-2.99c.3-2.35-1.03-15.1,1.5-14.99.29.01,1.13,1.62,1.97,1.63.73,0,1.85-1.72,3.93-1.67,7.16.18,3.99,10.21,4.6,15.02Z"/>
  <path class="cls-53" d="M172.07,440c-2.53,2.48-3.12-2.73-3.6-3.09-3.35-2.5-15.58,5.69-17.39,4.09-3.06-2.7,11.45-4.68,10.99-6.98-3.71-.49-8.75-1.73-11-5,3.03-.55,25.07,7,20.99,10.98Z"/>
  <path class="cls-53" d="M298.06,404c.49-3.77,1.78-8.82,5-11,.56,3.01-6.99,25.07-10.98,20.99-2.48-2.53,2.73-3.12,3.09-3.6,2.5-3.35-5.69-15.58-4.09-17.39,2.7-3.06,4.68,11.45,6.98,10.99Z"/>
  <path class="cls-3" d="M140.07,352c-1.2,1.58-1.82.02-2-1.47-.31-2.65,1.24-11.47-3.48-11.13-5.58.4-2.99,8.83-3.52,12.61h-2.99c.3-2.35-1.03-15.1,1.5-14.99.29.01,1.13,1.62,1.97,1.63.73,0,1.85-1.72,3.93-1.67,7.16.18,3.99,10.21,4.6,15.02Z"/>
  <path class="cls-3" d="M76.07,352c-1.2,1.58-1.82.02-2-1.47-.31-2.65,1.24-11.47-3.48-11.13-5.58.4-2.99,8.83-3.52,12.61h-2.99c.3-2.35-1.03-15.1,1.5-14.99.29.01,1.13,1.62,1.97,1.63.73,0,1.85-1.72,3.93-1.67,7.16.18,3.99,10.21,4.6,15.02Z"/>
  <path class="cls-3" d="M339.07,247c-1.2,1.58-1.82.02-2-1.47-.31-2.65,1.24-11.47-3.48-11.13-5.58.4-2.99,8.83-3.52,12.61h-2.99c.3-2.35-1.03-15.1,1.5-14.99.29.01,1.13,1.62,1.97,1.63.73,0,1.85-1.72,3.93-1.67,7.16.18,3.99,10.21,4.6,15.02Z"/>
  <path class="cls-3" d="M35.07,246c-1.2,1.58-1.82.02-2-1.47-.31-2.65,1.24-11.47-3.48-11.13-5.58.4-2.99,8.83-3.52,12.61h-2.99c.3-2.35-1.03-15.1,1.5-14.99.29.01,1.13,1.62,1.97,1.63.73,0,1.85-1.72,3.93-1.67,7.16.18,3.99,10.21,4.6,15.02Z"/>
  <path class="cls-29" d="M249.08,264.01c.31,1.35.71,2.7,1,4-.55.39-1.6.59-2,1-1.33-6.35-5.27,1.4-6.69,1.83-5.91,1.82-8.11-1.89-9.31-6.82h17Z"/>
  <path class="cls-51" d="M157.08,274.01c-.14.14-4,.2-4,0v-22c1.16-.4,4,.44,4,1.5,0,2.92.74,19.79,0,20.5Z"/>
  <path class="cls-51" d="M114.08,148.01c.14.14.2,4,0,4h-22c-.4-1.16.44-4,1.5-4,2.92,0,19.79-.74,20.5,0Z"/>
  <path class="cls-51" d="M114.08,106.01c.14.14.2,4,0,4h-22c-.4-1.16.44-4,1.5-4,2.92,0,19.79-.74,20.5,0Z"/>
  <path class="cls-60" d="M228.08,58c-1.57-1.69,6.36-6.98,1.48-8.99-4.13-1.7-2.43,6.86-6.52,8.54-5.49,2.24-7.05-8.75-2.45-10.54,3.59-1.39-2.24,6.27-.51,7.99,3.38,3.37,4.05-6.97,5.66-8.07,4.44-3.02,8.28,2.61,6.92,7.11-.38,1.27-3.44,5.19-4.58,3.96Z"/>
  <path class="cls-60" d="M194.08,329c-1.57-1.69,6.36-6.98,1.48-8.99-4.13-1.7-2.43,6.86-6.52,8.54-5.49,2.24-7.05-8.75-2.45-10.54,3.59-1.39-2.24,6.27-.51,7.99,3.38,3.37,4.05-6.97,5.66-8.07,4.44-3.02,8.28,2.61,6.92,7.11-.38,1.27-3.44,5.19-4.58,3.96Z"/>
  <path class="cls-53" d="M127.08,291.01l-2.03-1.98c-9.01,6.04-10.92-1.52-10.02-9.57.15-1.36,1.14-5,2.56-2.46,1.78,3.18-2.15,14.31,4.87,11.92,1.46-.5,2.1-3.24,2.37-4.65.51-2.73-1.17-9.04,2.25-8.26v15Z"/>
  <path class="cls-53" d="M250.08,41.01l-2.03-1.98c-9.01,6.04-10.92-1.52-10.02-9.57.15-1.36,1.14-5,2.56-2.46,1.78,3.18-2.15,14.31,4.87,11.92,1.46-.5,2.1-3.24,2.37-4.65.51-2.73-1.17-9.04,2.25-8.26v15Z"/>
  <path class="cls-53" d="M128.08,63.01l-2.03-1.98c-9.01,6.04-10.92-1.52-10.02-9.57.15-1.36,1.14-5,2.56-2.46,1.78,3.18-2.15,14.31,4.87,11.92,1.46-.5,2.1-3.24,2.37-4.65.51-2.73-1.17-9.04,2.25-8.26v15Z"/>
  <path class="cls-60" d="M228.08,78c-1.57-1.69,6.36-6.98,1.48-8.99-4.13-1.7-2.43,6.86-6.52,8.54-5.49,2.24-7.05-8.75-2.45-10.54,3.59-1.39-2.24,6.27-.51,7.99,3.38,3.37,4.05-6.97,5.66-8.07,4.44-3.02,8.28,2.61,6.92,7.11-.38,1.27-3.44,5.19-4.58,3.96Z"/>
  <path class="cls-1" d="M353.08,139.01l-2.03-1.98c-9.01,6.04-10.92-1.52-10.02-9.57.15-1.36,1.14-5,2.56-2.46,1.78,3.18-2.15,14.31,4.87,11.92,1.46-.5,2.1-3.24,2.37-4.65.51-2.73-1.17-9.04,2.25-8.26v15Z"/>
  <path class="cls-49" d="M65.08,150.01c3.29,1.9,9.38.01,12.02,1.48,1.52.85.55,2.06-.65,2.38-4.11,1.08-12.29-2.18-11.38,2.64s8.22,3.09,11.53,3.49c1.84.22,1.6-.29,1.48,2.01h-15l1.99-2.03c-4.28-4.39-.83-5.93.01-8.97-.51-.3-.49-.63,0-1Z"/>
  <path class="cls-34" d="M277.08,58c-2.68.69-5.47-3.07-8.01-1.5-4.68,2.91,7.22,4.65,7.84,5.66,4.12,6.76-11.3,10.94-10.83,1.85,3.13-.7,1.4,2.58,4.49,3.05,1.76.27,3.41,0,4.5-1.57.72-3.31-8.52-1.9-9.05-7.03-.58-5.7,9.25-5.61,11.05-.46Z"/>
  <path class="cls-34" d="M360.08,149c-2.68.69-5.47-3.07-8.01-1.5-4.68,2.91,7.22,4.65,7.84,5.66,4.12,6.76-11.3,10.94-10.83,1.85,3.13-.7,1.4,2.58,4.49,3.05,1.76.27,3.41,0,4.5-1.57.72-3.31-8.52-1.9-9.05-7.03-.58-5.7,9.25-5.61,11.05-.46Z"/>
  <path class="cls-23" d="M217.08,52c-2.68.69-5.47-3.07-8.01-1.5-4.68,2.91,7.22,4.65,7.84,5.66,4.12,6.76-11.3,10.94-10.83,1.85,3.13-.7,1.4,2.58,4.49,3.05,1.76.27,3.41,0,4.5-1.57.72-3.31-8.52-1.9-9.05-7.03-.58-5.7,9.25-5.61,11.05-.46Z"/>
  <path class="cls-34" d="M11.08,259c-2.68.69-5.47-3.07-8.01-1.5-4.68,2.91,7.22,4.65,7.84,5.66,4.12,6.76-11.3,10.94-10.83,1.85,3.13-.7,1.4,2.58,4.49,3.05,1.76.27,3.41,0,4.5-1.57.72-3.31-8.52-1.9-9.05-7.03-.58-5.7,9.25-5.61,11.05-.46Z"/>
  <path class="cls-23" d="M237.85,87.22c.59,1.07.13,2.58.22,3.78-3.25.67-1.98-3.93-5.47-3.98-2.27-.03-13.21,6.13-14.52,4.98-3.06-2.7,11.46-4.68,10.99-6.98-1.98-.28-13.71-2.38-10.99-6.01,2.89,2.2,18.64,6.16,19.77,8.21Z"/>
  <path class="cls-34" d="M227.08,30c-2.68.69-5.47-3.07-8.01-1.5-4.68,2.91,7.22,4.65,7.84,5.66,4.12,6.76-11.3,10.94-10.83,1.85,3.13-.7,1.4,2.58,4.49,3.05,1.76.27,3.41,0,4.5-1.57.72-3.31-8.52-1.9-9.05-7.03-.58-5.7,9.25-5.61,11.05-.46Z"/>
  <path class="cls-34" d="M419.08,128c-2.68.69-5.47-3.07-8.01-1.5-4.68,2.91,7.22,4.65,7.84,5.66,4.12,6.76-11.3,10.94-10.83,1.85,3.13-.7,1.4,2.58,4.49,3.05,1.76.27,3.41,0,4.5-1.57.72-3.31-8.52-1.9-9.05-7.03-.58-5.7,9.25-5.61,11.05-.46Z"/>
  <path class="cls-34" d="M119.08,363c-2.68.69-5.47-3.07-8.01-1.5-4.68,2.91,7.22,4.65,7.84,5.66,4.12,6.76-11.3,10.94-10.83,1.85,3.13-.7,1.4,2.58,4.49,3.05,1.76.27,3.41,0,4.5-1.57.72-3.31-8.52-1.9-9.05-7.03-.58-5.7,9.25-5.61,11.05-.46Z"/>
  <path class="cls-34" d="M295.08,9c-2.68.69-5.47-3.07-8.01-1.5-4.68,2.91,7.22,4.65,7.84,5.66,4.12,6.76-11.3,10.94-10.83,1.85,3.13-.7,1.4,2.58,4.49,3.05,1.76.27,3.41,0,4.5-1.57.72-3.31-8.52-1.9-9.05-7.03-.58-5.7,9.25-5.61,11.05-.46Z"/>
  <path class="cls-34" d="M361.08,206c-2.68.69-5.47-3.07-8.01-1.5-4.68,2.91,7.22,4.65,7.84,5.66,4.12,6.76-11.3,10.94-10.83,1.85,3.13-.7,1.4,2.58,4.49,3.05,1.76.27,3.41,0,4.5-1.57.72-3.31-8.52-1.9-9.05-7.03-.58-5.7,9.25-5.61,11.05-.46Z"/>
  <path class="cls-34" d="M158.08,52c-2.68.69-5.47-3.07-8.01-1.5-4.68,2.91,7.22,4.65,7.84,5.66,4.12,6.76-11.3,10.94-10.83,1.85,3.13-.7,1.4,2.58,4.49,3.05,1.76.27,3.41,0,4.5-1.57.72-3.31-8.52-1.9-9.05-7.03-.58-5.7,9.25-5.61,11.05-.46Z"/>
  <path class="cls-34" d="M406.08,206c-2.68.69-5.47-3.07-8.01-1.5-4.68,2.91,7.22,4.65,7.84,5.66,4.12,6.76-11.3,10.94-10.83,1.85,3.13-.7,1.4,2.58,4.49,3.05,1.76.27,3.41,0,4.5-1.57.72-3.31-8.52-1.9-9.05-7.03-.58-5.7,9.25-5.61,11.05-.46Z"/>
  <path class="cls-34" d="M182.08,338.01c.7-1.14,1.37-.47,2,2,.87.28.86.62,0,1-1.19,1.38-2.87,1.55-5.04.5,2.87.51,4.55,1.68,5.04,3.5l1,3c-.13.09-.94,1.69-1,2-2.88,2.94-10.26,3.33-11.03-1.48-.3-1.88,1.31-2.18,2.01-1.51,1.46,1.39,1.8,6.02,7.01,1.48.74-3.38-9.63-1.88-9.06-7.96.37-4,6.29-3.79,9.07-2.53Z"/>
  <path class="cls-50" d="M131.08,148.01c.99,5.57-3.21,1.54-7,2-.95,3.57,1.79,2.7,2.99,4.99-5.97-2.13-1.58,11.66-3,13.02h-2.99c-1.25-1.19,2.3-13.06-2-13.5,3.7-5.8,4.25-7.62,12-6.5Z"/>
  <path class="cls-50" d="M90.08,250.01c.99,5.57-3.21,1.54-7,2-.95,3.57,1.79,2.7,2.99,4.99-5.97-2.13-1.58,11.66-3,13.02h-2.99c-1.25-1.19,2.3-13.06-2-13.5,3.7-5.8,4.25-7.62,12-6.5Z"/>
  <path class="cls-1" d="M60.07,91.02l-2.91,6.55c-7.79,8.95-19.66-6.07-11.54-9.53,5.5-2.35-.84,4.62-.44,6.27.99,4,13.36,4.6,10.74-2.68-.48-1.35-4.68-2.14-2.84-4.63.43-.59,5.46,4.26,6.98,4.02Z"/>
  <path class="cls-47" d="M65.27,115.17c-3.48,6.39,10.86,8.38,10.84,2.33-.01-3.42-4.72-2.28-4.03-5.49,10.25.1,6.31,13.18-3.24,11.8s-5.94-12.47-2.28-11.8-1.19,2.98-1.29,3.16Z"/>
  <path class="cls-3" d="M58.07,281c-1.09,1.2-3.54-2.59-4.69-2.89-5.66-1.47-6.82,13.54,1.07,10.74,1.63-.58,1.51-4.65,4.62-2.35-5.93,11.98-18.99-.89-10.52-8.51,5.26-4.73,11.56.76,9.52,3.01Z"/>
  <path class="cls-3" d="M205.07,398c-1.09,1.2-3.54-2.59-4.69-2.89-5.66-1.47-6.82,13.54,1.07,10.74,1.63-.58,1.51-4.65,4.62-2.35-5.93,11.98-18.99-.89-10.52-8.51,5.26-4.73,11.56.76,9.52,3.01Z"/>
  <path class="cls-3" d="M22.07,136.01c1.2,1.09-2.59,3.54-2.89,4.69-1.47,5.66,13.54,6.82,10.74-1.07-.58-1.63-4.65-1.51-2.35-4.62,11.98,5.93-.89,18.99-8.51,10.52-4.73-5.26.76-11.56,3.01-9.52Z"/>
  <path class="cls-3" d="M167.07,84c-1.09,1.2-3.54-2.59-4.69-2.89-5.66-1.47-6.82,13.54,1.07,10.74,1.63-.58,1.51-4.65,4.62-2.35-5.93,11.98-18.99-.89-10.52-8.51,5.26-4.73,11.56.76,9.52,3.01Z"/>
  <path class="cls-3" d="M145.07,113c-1.09,1.2-3.54-2.59-4.69-2.89-5.66-1.47-6.82,13.54,1.07,10.74,1.63-.58,1.51-4.65,4.62-2.35-5.93,11.98-18.99-.89-10.52-8.51,5.26-4.73,11.56.76,9.52,3.01Z"/>
  <path class="cls-3" d="M105.07,260c-1.09,1.2-3.54-2.59-4.69-2.89-5.66-1.47-6.82,13.54,1.07,10.74,1.63-.58,1.51-4.65,4.62-2.35-5.93,11.98-18.99-.89-10.52-8.51,5.26-4.73,11.56.76,9.52,3.01Z"/>
  <path class="cls-3" d="M287.07,129c-1.09,1.2-3.54-2.59-4.69-2.89-5.66-1.47-6.82,13.54,1.07,10.74,1.63-.58,1.51-4.65,4.62-2.35-5.93,11.98-18.99-.89-10.52-8.51,5.26-4.73,11.56.76,9.52,3.01Z"/>
  <path class="cls-3" d="M310.07,277.01c1.2,1.09-2.59,3.54-2.89,4.69-1.47,5.66,13.54,6.82,10.74-1.07-.58-1.63-4.65-1.51-2.35-4.62,11.98,5.93-.89,18.99-8.51,10.52-4.73-5.26.76-11.56,3.01-9.52Z"/>
  <path class="cls-47" d="M280.27,316.17c-3.48,6.39,10.86,8.38,10.84,2.33-.01-3.42-4.72-2.28-4.03-5.49,10.25.1,6.31,13.18-3.24,11.8-9.29-1.34-5.94-12.47-2.28-11.8s-1.19,2.98-1.29,3.16Z"/>
  <path class="cls-3" d="M155.07,342c-1.09,1.2-3.54-2.59-4.69-2.89-5.66-1.47-6.82,13.54,1.07,10.74,1.63-.58,1.51-4.65,4.62-2.35-5.93,11.98-18.99-.89-10.52-8.51,5.26-4.73,11.56.76,9.52,3.01Z"/>
  <path class="cls-60" d="M333.07,129c-1.87,1.7-3.5-2.89-6.35-2.71-5.88.36-4.45,13.41,2.35,10.22,1.34-.63,1.84-3.05,4.01-2.5,3.81,4.05-15.22,10.93-11.97-5.49,1.71-8.65,14.69-2,11.97.48Z"/>
  <path class="cls-60" d="M26.07,260c-1.87,1.7-3.5-2.89-6.35-2.71-5.88.36-4.45,13.41,2.35,10.22,1.34-.63,1.84-3.05,4.01-2.5,3.81,4.05-15.22,10.93-11.97-5.49,1.71-8.65,14.69-2,11.97.48Z"/>
  <path class="cls-17" d="M87.07,332.01c.78,3.73-3.32,1.27-4,2-1.9,2.02,2.4,3.61,3.01,4.99-5.97-2.13-1.58,11.66-3,13.02h-2.99c-1.25-1.19,2.3-13.06-2-13.5,3.27-3.5,2.79-7.83,8.99-6.5Z"/>
  <path class="cls-54" d="M69.08,250.01c-1.63,4.88,1.68,4.7,1.95,5.04,1.6,1.99-1.77,1.85-1.97,2.61-.93,3.58-.7,10.55,3.02,12.34-9.23,2-4.69-7.6-5.99-12.34-.26-.95-1.94-.58-2-.66-.27-.33,2.95-3.15,2-4.98-1.77.42-2.65-.38-4.01-1.01l7-1Z"/>
  <path class="cls-17" d="M140.07,74.01c.78,3.73-3.32,1.27-4,2-1.9,2.02,2.4,3.61,3.01,4.99-5.97-2.13-1.58,11.66-3,13.02h-2.99c-1.25-1.19,2.3-13.06-2-13.5,3.27-3.5,2.79-7.83,8.99-6.5Z"/>
  <path class="cls-17" d="M208.07,376c-.65,6.24,1.97,4.84,4.99,1.01-2.13,5.97,11.66,1.58,13.02,3v2.99c-1.19,1.25-13.06-2.3-13.5,2-1.08-1.95-5.2-2.63-6.02-3.98-.86-1.42-1.54-6.03,1.51-5.02Z"/>
  <path class="cls-50" d="M302.07,342c-.65,6.24,1.97,4.84,4.99,1.01-2.13,5.97,11.66,1.58,13.02,3v2.99c-1.19,1.25-13.06-2.3-13.5,2-1.08-1.95-5.2-2.63-6.02-3.98-.86-1.42-1.54-6.03,1.51-5.02Z"/>
  <path class="cls-20" d="M273.08,384c-.51-2.68.59-1.73,2.01-2.44,1.28-.64,7.87-2.66,8-3.07.99-3.23-10.73-2.34-10-6.48,2.4-.31,14.64,3.96,14.99,5.51.55,2.39-12.51,6.76-14.99,6.48Z"/>
  <path class="cls-17" d="M165.93,410.86c-1.23,2.01-9.98.54-12.21,1.13-1.16.31.82,3.77-4.87-.27-1.14-.81-2.21-.74-1.77-2.72,4.5,1.22,3.73-1.71,4.03-1.96,1.95-1.64,1.87,1.78,2.61,1.97,3.58.93,10.55.7,12.34-3.02-.2,1.37.49,3.85-.13,4.86Z"/>
  <path class="cls-17" d="M335.07,50.01c-1.22,4.5,1.71,3.73,1.96,4.03,1.64,1.95-1.78,1.87-1.97,2.61-.93,3.58-.7,10.55,3.02,12.34-9.24,2-4.65-7.48-5.99-12.34-.24-.88-1.89-.6-1.96-.7-.23-.32,3.75-7.5,4.95-5.94Z"/>
  <path class="cls-17" d="M388.07,266.01c-1.22,4.5,1.71,3.73,1.96,4.03,1.64,1.95-1.78,1.87-1.97,2.61-.93,3.58-.7,10.55,3.02,12.34-9.24,2-4.65-7.48-5.99-12.34-.24-.88-1.89-.6-1.96-.7-.23-.32,3.75-7.5,4.95-5.94Z"/>
  <path class="cls-17" d="M263.93,301.86c-1.23,2.01-9.98.54-12.21,1.13-1.16.31.82,3.77-4.87-.27-1.14-.81-2.21-.74-1.77-2.72,4.5,1.22,3.73-1.71,4.03-1.96,1.95-1.64,1.87,1.78,2.61,1.97,3.58.93,10.55.7,12.34-3.02-.2,1.37.49,3.85-.13,4.86Z"/>
  <path class="cls-17" d="M307.07,50.01c-1.22,4.5,1.71,3.73,1.96,4.03,1.64,1.95-1.78,1.87-1.97,2.61-.93,3.58-.7,10.55,3.02,12.34-9.24,2-4.65-7.48-5.99-12.34-.24-.88-1.89-.6-1.96-.7-.23-.32,3.75-7.5,4.95-5.94Z"/>
  <path class="cls-17" d="M134.08,272.01c-1.96,2.55,2.51,4.23,2.01,5.49-.36.91-1.77.17-2.03,1.16-.93,3.58-.7,10.55,3.02,12.34-9.22,1.99-4.67-7.42-5.99-12.34-.26-.96-2.32-.39-2.01-1.13.37-.9,3.08-5.26,4-5.51.21-.06.79-.06,1,0Z"/>
  <path class="cls-17" d="M173.07,75.01c-1.22,4.5,1.71,3.73,1.96,4.03,1.64,1.95-1.78,1.87-1.97,2.61-.93,3.58-.7,10.55,3.02,12.34-9.24,2-4.65-7.48-5.99-12.34-.24-.88-1.89-.6-1.96-.7-.23-.32,3.75-7.5,4.95-5.94Z"/>
  <path class="cls-17" d="M31.93,131.86c-1.23,2.01-9.98.54-12.21,1.13-1.16.31.82,3.77-4.87-.27-1.14-.81-2.21-.74-1.77-2.72,4.5,1.22,3.73-1.71,4.03-1.96,1.95-1.64,1.87,1.78,2.61,1.97,3.58.93,10.55.7,12.34-3.02-.2,1.37.49,3.85-.13,4.86Z"/>
  <path class="cls-17" d="M239.07,276.01c-1.22,4.5,1.71,3.73,1.96,4.03,1.64,1.95-1.78,1.87-1.97,2.61-.93,3.58-.7,10.55,3.02,12.34-9.24,2-4.65-7.48-5.99-12.34-.24-.88-1.89-.6-1.96-.7-.23-.32,3.75-7.5,4.95-5.94Z"/>
  <path class="cls-17" d="M377.07,163.01c-1.22,4.5,1.71,3.73,1.96,4.03,1.64,1.95-1.78,1.87-1.97,2.61-.93,3.58-.7,10.55,3.02,12.34-9.24,2-4.65-7.48-5.99-12.34-.24-.88-1.89-.6-1.96-.7-.23-.32,3.75-7.5,4.95-5.94Z"/>
  <path class="cls-17" d="M278.08,286.01c-2.03-.17-4.74-1.75-5-3.99,5.25,1.4,4.55-1.58,5.03-1.97,1.98-1.61,1.87,1.78,2.62,1.98,1.23.32,6.41.24,7.92.06,2.03-.25,1.25-3.1,4.43-2.07-.58,6.98-5.75,4.55-10.58,4.95-1.31.11-2.28,1.04-2.41,1.05-.22,2.04-1.23,1.96-2,0Z"/>
  <path class="cls-13" d="M361.08,315.51c-.55,2.65-3.4,4.16-6,3.49-1.32-2.44,3-2.47,3-3.49v-16c0-1.48,3-1.48,3,0,0,4.26.75,12.42,0,16Z"/>
  <path class="cls-17" d="M45.08,185.01c3.15.7,8.09,1.31,11,0-.09-1.49,1.49-1.42,2,0-.04,1.19.58,3.3-.58,4.11-2.79,1.95-8.92.09-11.77.88-.88.24-.6,1.89-.7,1.96-.28.2-5.01-2.9-5.93-3.47-.49-2.74,2.57-1.06,3.99-1.49.46-2.43,1.12-3.1,2-2Z"/>
  <path class="cls-23" d="M281.08,244.01c3.55-1.09,7.42-.83,11,0v1c-3.29.4-6.62.73-10,1-.11.99-.77,1.66-2,2,.03,3.45,1.25,4.42,4.57,4.93,2.61.4,9.21-1.49,8.43,2.07h-15c-.51-2.7.54-1.45,2-2.49-1.69-1.29-1.98-2.51-2-4.51-.04-2.89.09-3.56,3-4Z"/>
  <path class="cls-48" d="M184.08,341.01c1.69-1.31,2.2-.77,1,1,1.44.97,4.39,1.11,4-1,4.85.74,11.64-2.69,10,4-4.77-.42-10.38.6-15,0-11.12-1.42-12.54-9.02,0-4Z"/>
  <rect class="cls-28" x="375.08" y="49.01" width="3" height="20"/>
  <rect class="cls-28" x="254.08" y="388.01" width="3" height="20"/>
  <rect class="cls-28" x="269.08" y="93.01" width="3" height="20"/>
  <rect class="cls-28" x="335.08" y="119.01" width="3" height="20"/>
  <path class="cls-55" d="M150.08,167.01c.26-5.81-.31-11.72,0-17.53.11-2.07.58-1.81,2.5-1.47,1.15.2.18,16.71.51,19.01-.33.04-2.28,2.29-3,0Z"/>
  <path class="cls-41" d="M109.08,50.01c1.41,1.39.78,1.97-1,1-4.86.67-6.06,8.82.06,7.99l.94,1.01c2.05-.8,2.73,2.16,1,3-1.24.73-4.16.55-5,1-9.08-4.06-5.97-20.55,4-14Z"/>
  <path class="cls-77" d="M335.07,170c-7.71-1.11-4.37,6.92-5,12.01h-2.99c.6-3.46-1.07-11.41.46-14.1.42-.74,8.8-1.83,7.53,2.09Z"/>
  <path class="cls-77" d="M111.07,340c-7.71-1.11-4.37,6.92-5,12.01h-2.99c.6-3.46-1.07-11.41.46-14.1.42-.74,8.8-1.83,7.53,2.09Z"/>
  <path class="cls-77" d="M201.07,82c-7.71-1.11-4.37,6.92-5,12.01h-2.99c.6-3.46-1.07-11.41.46-14.1.42-.74,8.8-1.83,7.53,2.09Z"/>
  <path class="cls-77" d="M181.07,308c-7.71-1.11-4.37,6.92-5,12.01h-2.99c.6-3.46-1.07-11.41.46-14.1.42-.74,8.8-1.83,7.53,2.09Z"/>
  <path class="cls-77" d="M236.07,8c-7.71-1.11-4.37,6.92-5,12.01h-2.99c.6-3.46-1.07-11.41.46-14.1.42-.74,8.8-1.83,7.53,2.09Z"/>
  <path class="cls-77" d="M314.07,101c-7.71-1.11-4.37,6.92-5,12.01h-2.99c.6-3.46-1.07-11.41.46-14.1.42-.74,8.8-1.83,7.53,2.09Z"/>
  <path class="cls-77" d="M388.07,301c-7.71-1.11-4.37,6.92-5,12.01h-2.99c.6-3.46-1.07-11.41.46-14.1.42-.74,8.8-1.83,7.53,2.09Z"/>
  <path class="cls-77" d="M53.07,309c-7.71-1.11-4.37,6.92-5,12.01h-2.99c.6-3.46-1.07-11.41.46-14.1.42-.74,8.8-1.83,7.53,2.09Z"/>
  <path class="cls-23" d="M223.07,1c-.86,3.96.89,3.67,3,5.99-3.85-.09-3.52,5.7-3.02,8.55.36,2.02,4.7,3.15,3.01,4.46-.52.4-3.83.11-4.56-.93-1.22-1.76,0-6.97-.47-9.53-.3-1.67-1.98-2.61-2.01-4.02-.01-.57,1.5-.4,1.73-.76,1.1-1.72-1.07-4.48,2.31-3.75Z"/>
  <path class="cls-23" d="M173.07,389c-.86,3.96.89,3.67,3,5.99-3.85-.09-3.52,5.7-3.02,8.55.36,2.02,4.7,3.15,3.01,4.46-.52.4-3.83.11-4.56-.93-1.22-1.76,0-6.97-.47-9.53-.3-1.67-1.98-2.61-2.01-4.02-.01-.57,1.5-.4,1.73-.76,1.1-1.72-1.07-4.48,2.31-3.75Z"/>
  <path class="cls-23" d="M164.07,44c-.86,3.96.89,3.67,3,5.99-3.85-.09-3.52,5.7-3.02,8.55.36,2.02,4.7,3.15,3.01,4.46-.52.4-3.83.11-4.56-.93-1.22-1.76,0-6.97-.47-9.53-.3-1.67-1.98-2.61-2.01-4.02-.01-.57,1.5-.4,1.73-.76,1.1-1.72-1.07-4.48,2.31-3.75Z"/>
  <path class="cls-23" d="M283.07,50c-.86,3.96.89,3.67,3,5.99-3.85-.09-3.52,5.7-3.02,8.55.36,2.02,4.7,3.15,3.01,4.46-.52.4-3.83.11-4.56-.93-1.22-1.76,0-6.97-.47-9.53-.3-1.67-1.98-2.61-2.01-4.02-.01-.57,1.5-.4,1.73-.76,1.1-1.72-1.07-4.48,2.31-3.75Z"/>
  <path class="cls-23" d="M137.07,301c-.86,3.96.89,3.67,3,5.99-3.85-.09-3.52,5.7-3.02,8.55.36,2.02,4.7,3.15,3.01,4.46-.52.4-3.83.11-4.56-.93-1.22-1.76,0-6.97-.47-9.53-.3-1.67-1.98-2.61-2.01-4.02-.01-.57,1.5-.4,1.73-.76,1.1-1.72-1.07-4.48,2.31-3.75Z"/>
  <path class="cls-23" d="M233.07,22c-.86,3.96.89,3.67,3,5.99-3.85-.09-3.52,5.7-3.02,8.55.36,2.02,4.7,3.15,3.01,4.46-.52.4-3.83.11-4.56-.93-1.22-1.76,0-6.97-.47-9.53-.3-1.67-1.98-2.61-2.01-4.02-.01-.57,1.5-.4,1.73-.76,1.1-1.72-1.07-4.48,2.31-3.75Z"/>
  <path class="cls-23" d="M40.07,302c-.86,3.96.89,3.67,3,5.99-3.85-.09-3.52,5.7-3.02,8.55.36,2.02,4.7,3.15,3.01,4.46-.52.4-3.83.11-4.56-.93-1.22-1.76,0-6.97-.47-9.53-.3-1.67-1.98-2.61-2.01-4.02-.01-.57,1.5-.4,1.73-.76,1.1-1.72-1.07-4.48,2.31-3.75Z"/>
  <path class="cls-23" d="M93.07,227c-.86,3.96.89,3.67,3,5.99-3.85-.09-3.52,5.7-3.02,8.55.36,2.02,4.7,3.15,3.01,4.46-.52.4-3.83.11-4.56-.93-1.22-1.76,0-6.97-.47-9.53-.3-1.67-1.98-2.61-2.01-4.02-.01-.57,1.5-.4,1.73-.76,1.1-1.72-1.07-4.48,2.31-3.75Z"/>
  <path class="cls-50" d="M187.08,341.01c.62,1.89-.69,2.5-2,1,.11-1.09-.53-.81-1-1v-1c-1.32-1.4-.88-2.5,0-4,.3-.49.03-1.57.98-2.48,2.34-2.23,14-2.25,14-.02,0,3.67-17.71-2.35-11.98,7.5Z"/>
  <path class="cls-80" d="M78.08,233.01c9.18-6.87,9.72,6.54,9,13.01h-2.99c-.51-2.33.73-10.71-.09-11.92s-4.31.04-4.91-.09c-1.49,1.3-2.05.72-1-1Z"/>
  <path class="cls-7" d="M383.08,204.01c9.18-6.87,9.72,6.54,9,13.01h-2.99c-.41-3.35,1.57-11.83-2.67-12.77-1.02-.23-2.07.79-2.34.76-1.38,1.39-1.92.79-1-1Z"/>
  <path class="cls-7" d="M341.08,100.01c9.18-6.87,9.72,6.54,9,13.01h-2.99c-.41-3.35,1.57-11.83-2.67-12.77-1.02-.23-2.07.79-2.34.76-1.38,1.39-1.92.79-1-1Z"/>
  <path class="cls-7" d="M396.08,126.01c9.18-6.87,9.72,6.54,9,13.01h-2.99c-.41-3.35,1.57-11.83-2.67-12.77-1.02-.23-2.07.79-2.34.76-1.38,1.39-1.92.79-1-1Z"/>
  <path class="cls-7" d="M256.08,7.01c9.18-6.87,9.72,6.54,9,13.01h-2.99c-.41-3.35,1.57-11.83-2.67-12.77-1.02-.23-2.07.79-2.34.76-1.38,1.39-1.92.79-1-1Z"/>
  <path class="cls-37" d="M251.08,292.01c-6.87-9.18,6.54-9.72,13.01-9v2.99c-5.24.87-14.81-3.14-12.01,5,1.11,1.37.58,1.88-1,1Z"/>
  <path class="cls-63" d="M307.08,361.01c-6.87-9.18,6.54-9.72,13.01-9v2.99c-.89.94-15.75-2.72-12.01,5,1.09,1.33.57,1.82-1,1Z"/>
  <path class="cls-7" d="M309.08,126.01c9.18-6.87,9.72,6.54,9,13.01h-2.99c-.41-3.35,1.57-11.83-2.67-12.77-1.02-.23-2.07.79-2.34.76-1.38,1.39-1.92.79-1-1Z"/>
  <path class="cls-31" d="M66.08,84.01c-.25.85-.58.83-1,0-9.89-10.35,13.03-10.62,12.98-7.5-.06,3.69-17.69-2.37-11.98,7.5Z"/>
  <path class="cls-63" d="M88.08,278.01c9.95-7.05,8.05,6.72,8,13.01h-2.99c-.49-.47.52-9.22-.16-11.35-.93-2.93-3.49-.58-3.85-.66-1.5,1.26-2.05.66-1-1Z"/>
  <path class="cls-63" d="M330.08,73.01c9.95-7.05,8.05,6.72,8,13.01h-2.99c-.49-.47.52-9.22-.16-11.35-.93-2.93-3.49-.58-3.85-.66-1.5,1.26-2.05.66-1-1Z"/>
  <path class="cls-37" d="M45.08,180.01c-6.87-9.18,6.54-9.72,13.01-9v2.99c-5.24.87-14.81-3.14-12.01,5,1.11,1.37.58,1.88-1,1Z"/>
  <path class="cls-80" d="M211.08,395.01c9.18-6.87,9.72,6.54,9,13.01h-2.99c-.51-2.33.73-10.71-.09-11.92s-4.31.04-4.91-.09c-1.49,1.3-2.05.72-1-1Z"/>
  <path class="cls-7" d="M194.08,50.01c9.18-6.87,9.72,6.54,9,13.01h-2.99c-.41-3.35,1.57-11.83-2.67-12.77-1.02-.23-2.07.79-2.34.76-1.38,1.39-1.92.79-1-1Z"/>
  <path class="cls-7" d="M319.08,100.01c9.18-6.87,9.72,6.54,9,13.01h-2.99c-.41-3.35,1.57-11.83-2.67-12.77-1.02-.23-2.07.79-2.34.76-1.38,1.39-1.92.79-1-1Z"/>
  <path class="cls-63" d="M213.08,366.01c-6.87-9.18,6.54-9.72,13.01-9v2.99c-.89.94-15.75-2.72-12.01,5,1.09,1.33.57,1.82-1,1Z"/>
  <path class="cls-31" d="M221.08,125.01c-.25.85-.58.83-1,0-9.89-10.35,13.03-10.62,12.98-7.5-.06,3.69-17.69-2.37-11.98,7.5Z"/>
  <path class="cls-63" d="M307.08,300.01c-6.87-9.18,6.54-9.72,13.01-9v2.99c-.89.94-15.75-2.72-12.01,5-.52-.07-.81.89-1,1Z"/>
  <path class="cls-63" d="M213.08,328.01c-6.87-9.18,6.54-9.72,13.01-9v2.99c-.89.94-15.75-2.72-12.01,5,1.09,1.33.57,1.82-1,1Z"/>
  <path class="cls-31" d="M65.08,151.01c-2.81-.9-2.72-6.04-1.01-7.51s13.46-3.42,14.02,1c.02,1.15-9.69.09-11.37.65-2.5.83-1.23,3.41-1.64,4.86-.09.31.09.69,0,1Z"/>
  <path class="cls-79" d="M109.08,50.01c.95-1.37.8-2.51,2.99-1.99-.28,5.95.41,12.06,0,17.99.68,1.79,1.2,3.67-1,3-.48-.11-.93-.53-1-1-.23-1.53.14-3.39,0-5-.1-1.13-.97-2.41-1-3l-1.84-1.6c.67-2.44.95-4.9.84-7.4.27-.37.75-.64,1-1Z"/>
  <path class="cls-12" d="M100.08,372.01c3.43-3.42,1.46-8.33,2-12.5,5.48-.94,2.12,10.68,3,14.49-1.36.54-3.35-1.02-3.99-1-1.36.13-1.7-.21-1-1Z"/>
  <path class="cls-12" d="M30.08,193.01c-3.42-3.43-8.33-1.46-12.5-2-.94-5.48,10.68-2.12,14.49-3,.54,1.36-1.02,3.35-1,3.99.09,1.26-.24,1.6-1,1Z"/>
  <path class="cls-12" d="M318.08,328.01c-3.42-3.43-8.33-1.46-12.5-2-.94-5.48,10.68-2.12,14.49-3,.54,1.36-1.02,3.35-1,3.99.09,1.26-.24,1.6-1,1Z"/>
  <path class="cls-71" d="M112.08,66.01c4.1,4.55,2.82,16.15-5,14.99-1.15-3.87,2.96-2.95,3.81-5.69.62-1.99-.09-4.36.18-6.31.06-.41.88-1.29,1-3Z"/>
  <path class="cls-70" d="M80.08,278.01c.85-.83,1.48-1.2,2,0-5.1,1.09-1.91,12.72-3.51,13.01-1.92.34-2.4.59-2.5-1.48-.12-2.34-.67-13.47,1.51-13.51.21,0,1.59,1.69,2.5,1.98Z"/>
  <path class="cls-70" d="M322.08,73.01c.85-.83,1.48-1.2,2,0-5.1,1.09-1.91,12.72-3.51,13.01-1.92.34-2.4.59-2.5-1.48-.12-2.34-.67-13.47,1.51-13.51.21,0,1.59,1.69,2.5,1.98Z"/>
  <path class="cls-36" d="M37.08,167.01c.22.14,1.28,4.69.99,4.99-1.75,1.89-2.76-2.99-3.49-2.99h-17.5v-2c2.93,0,19.15-.53,20,0Z"/>
  <path class="cls-74" d="M252.08,291.01c1.66,0,8.26,3.86,11.99,2.01v1.99s-19.99,0-19.99,0v-1.99c3.01.64,4.73-.32,7-1.01.15-.05.49-1,1-1Z"/>
  <path class="cls-74" d="M212.08,396.01c-2.62,3.66-2.05,7.72-2.01,11.99h-1.99s0-19.99,0-19.99h1.99c.11,2.71-.74,4.8,1.01,7,.13.16.93.98,1,1Z"/>
  <path class="cls-74" d="M46.08,179.01c1.68.01,8.23,3.85,12.01,2,.05.66-.05,1.34,0,2l-.47.99c-5.06-1.1-9.74-.82-14.02.83-1.19-1.08-3.02-1.68-5.51-1.82-1.21-2.57,3.91-2.07,7-3,.15-.05.49-1,1-1Z"/>
  <path class="cls-74" d="M79.08,234.01c-2.62,3.66-2.05,7.72-2.01,11.99h-1.99s0-19.99,0-19.99h1.99c.11,2.71-.74,4.8,1.01,7,.13.16.93.98,1,1Z"/>
  <path class="cls-60" d="M249.08,318.01c-.97-2.8,1.84-1.76,1.99-2.02.16-.28-3.16-3.51-.98-5.98,2.56.42,1.44,3.96,2.17,4.81,1.18,1.38,8.29.94,10.34,1.18,1.84.22,1.61-.31,1.48,2h-15Z"/>
  <path class="cls-53" d="M333.08,223.01c-.97-2.8,1.84-1.76,1.99-2.02.16-.28-3.16-3.51-.98-5.98,2.56.42,1.44,3.96,2.17,4.81,1.18,1.38,8.29.94,10.34,1.18,1.84.22,1.61-.31,1.48,2h-15Z"/>
  <path class="cls-53" d="M154.08,276.01c2.8-.97,1.76,1.84,2.02,1.99.28.16,3.51-3.16,5.98-.98-.42,2.56-3.96,1.44-4.81,2.17-1.38,1.18-.94,8.29-1.18,10.34-.22,1.84.31,1.61-2,1.48v-15Z"/>
  <path class="cls-28" d="M76.07,270.01h-2.99c-1.29-19.52,4.29-19.52,2.99,0Z"/>
  <path class="cls-28" d="M90.07,270.01h-2.99c-1.29-19.52,4.29-19.52,2.99,0Z"/>
  <path class="cls-28" d="M61.07,352.01h-2.99c-1.29-19.52,4.29-19.52,2.99,0Z"/>
  <path class="cls-28" d="M20.07,246.01h-2.99c-1.29-19.52,4.29-19.52,2.99,0Z"/>
  <path class="cls-28" d="M131.07,168.01h-2.99c-1.29-19.52,4.29-19.52,2.99,0Z"/>
  <path class="cls-28" d="M31.07,270.01h-2.99c-1.29-19.52,4.29-19.52,2.99,0Z"/>
  <path class="cls-28" d="M334.07,113.01h-2.99c-1.29-19.52,4.29-19.52,2.99,0Z"/>
  <path class="cls-28" d="M388.07,160.01h-2.99c-1.29-19.52,4.29-19.52,2.99,0Z"/>
  <path class="cls-36" d="M88.08,278.01c.38.11.77.95,1,1-2.88,2.86-1.59,7.09-2,10.52-.18,1.49-.79,3.07-2,1.48-.54-3.29.73-8.38.03-11.32-.21-.87-2.13-1.3-3.04-1.67-.47-.19-1.45.18-2,0,1.49-3.79,5.1-.8,8,0Z"/>
  <path class="cls-36" d="M330.08,73.01c.38.11.77.95,1,1-2.88,2.86-1.59,7.09-2,10.52-.18,1.49-.79,3.07-2,1.48-.54-3.29.73-8.38.03-11.32-.21-.87-2.13-1.3-3.04-1.67-.47-.19-1.45.18-2,0,1.49-3.79,5.1-.8,8,0Z"/>
  <rect class="cls-40" x="212.08" y="95.01" width="21" height="2"/>
  <path class="cls-36" d="M31.08,192.01c.05,1.48,3,5.55-1,7.5-1.76.87-9.27.78-11.52.5-1.46-.19-3.09-.76-1.48-2,3.14-.38,9.89.87,12.41-.89,1.24-.86.44-2.9.58-4.11.06-.47.51-.91,1-1Z"/>
  <path class="cls-36" d="M101.08,373.01c-1.48.05-5.55,3-7.5-1-.87-1.76-.78-9.27-.5-11.52.19-1.46.76-3.09,2-1.48.38,3.14-.87,9.89.89,12.41.85,1.21,2.9.47,4.11.58.46.04.91.52,1,1Z"/>
  <path class="cls-36" d="M319.08,327.01c.05,1.48,3,5.55-1,7.5-1.76.87-9.27.78-11.52.5-1.46-.19-3.09-.76-1.48-2,3.14-.38,9.89.87,12.41-.89,1.24-.86.44-2.9.58-4.11.06-.47.51-.91,1-1Z"/>
  <rect class="cls-28" x="300.08" y="339.01" width="20" height="2"/>
  <rect class="cls-28" x="352.08" y="162.01" width="2" height="20"/>
  <rect class="cls-28" x="379.08" y="140.01" width="2" height="20"/>
  <rect class="cls-28" x="379.08" y="227.01" width="2" height="20"/>
  <rect class="cls-28" x="393.08" y="265.01" width="2" height="20"/>
  <rect class="cls-28" x="244.08" y="354.01" width="20" height="2"/>
  <path class="cls-64" d="M46.08,225.01c.2.05,1.38,1.86,3.57,2.01,2.38.17,8.6-2.76,8.43,1.99h-14.99c-.48-2.01.56-2.2,1.99-2.99.16-.09.36-1.15,1-1Z"/>
  <path class="cls-64" d="M214.08,365.01c.2.03,2,1.55,3.71,1.77.98.13,11.51-.22,8.28,2.23h-14.99c-.48-2,.56-2.2,1.99-2.99.19-.11.48-1.07,1-1Z"/>
  <path class="cls-64" d="M320.08,101.01c-2.88,2.86-1.59,7.09-2,10.52-.18,1.49-.79,3.07-2,1.48v-14.99c2.44-.72,1.9,1.07,2.99,1.99.41.35.93.99,1,1Z"/>
  <path class="cls-64" d="M214.08,327.01c.2.03,2,1.55,3.71,1.77.98.13,11.51-.22,8.28,2.23h-14.99c-.48-2,.56-2.2,1.99-2.99.19-.11.48-1.07,1-1Z"/>
  <path class="cls-64" d="M384.08,205.01c-2.88,2.86-1.59,7.09-2,10.52-.18,1.49-.79,3.07-2,1.48v-14.99c2.44-.72,1.9,1.07,2.99,1.99.41.35.93.99,1,1Z"/>
  <path class="cls-64" d="M342.08,101.01c-2.88,2.86-1.59,7.09-2,10.52-.18,1.49-.79,3.07-2,1.48v-14.99c2.44-.72,1.9,1.07,2.99,1.99.41.35.93.99,1,1Z"/>
  <path class="cls-64" d="M397.08,127.01c-2.88,2.86-1.59,7.09-2,10.52-.18,1.49-.79,3.07-2,1.48v-14.99c2.44-.72,1.9,1.07,2.99,1.99.41.35.93.99,1,1Z"/>
  <path class="cls-64" d="M257.08,8.01c-2.88,2.86-1.59,7.09-2,10.52-.18,1.49-.79,3.07-2,1.48V5.01c2.44-.72,1.9,1.07,2.99,1.99.41.35.93.99,1,1Z"/>
  <path class="cls-64" d="M310.08,127.01c-2.88,2.86-1.59,7.09-2,10.52-.18,1.49-.79,3.07-2,1.48v-14.99c2.44-.72,1.9,1.07,2.99,1.99.41.35.93.99,1,1Z"/>
  <path class="cls-64" d="M308.08,360.01c.2.03,2,1.55,3.71,1.77.98.13,11.51-.22,8.28,2.23h-14.99c-.48-2,.56-2.2,1.99-2.99.19-.11.48-1.07,1-1Z"/>
  <path class="cls-64" d="M195.08,51.01c-2.88,2.86-1.59,7.09-2,10.52-.18,1.49-.79,3.07-2,1.48v-14.99c2.44-.72,1.9,1.07,2.99,1.99.41.35.93.99,1,1Z"/>
  <path class="cls-64" d="M336.08,273.01c-3.28,2.52-1.59,7.11-1.99,10.52-.18,1.49-.8,3.05-2,1.47v-14.99c2.44-.73,1.9,1.08,2.99,1.99.42.35.93.99,1,1Z"/>
  <path class="cls-64" d="M46.08,147.01c.16.04,1.06,1.57,2.66,1.8,1.02.14,12.69-.36,9.33,2.19h-14.99c-.48-2,.56-2.2,1.99-2.99.16-.09.37-1.15,1-1Z"/>
  <path class="cls-64" d="M154.08,385.01c.16.04,1.06,1.57,2.66,1.8,1.02.14,12.69-.36,9.33,2.19h-14.99c-.48-2,.56-2.2,1.99-2.99.16-.09.37-1.15,1-1Z"/>
  <path class="cls-64" d="M252.08,276.01c.16.04,1.06,1.57,2.66,1.8,1.02.14,12.69-.36,9.33,2.19h-14.99c-.48-2,.56-2.2,1.99-2.99.16-.09.37-1.15,1-1Z"/>
  <path class="cls-26" d="M281.08,291.01c2.19,0,7.99.7,10.52.99,1.5.18,3.04.81,1.47,2h-14.99c-.35-.91,1-1.86,1-1.99-.39-2.73-.15-2.85,2-1Z"/>
  <path class="cls-26" d="M187.08,275.01c2.19,0,7.99.7,10.52.99,1.5.18,3.04.81,1.47,2h-14.99c-.35-.91,1-1.86,1-1.99-.39-2.73-.15-2.85,2-1Z"/>
  <path class="cls-23" d="M221.08,125.01c2.98.08,6.98,1.94,10.52.99l1.47,2h-14.49c-1.85-.92.67-2.84,1.5-2.99.3-.06.69,0,1,0Z"/>
  <path class="cls-23" d="M66.08,84.01c2.98.08,6.98,1.94,10.52.99l1.47,2h-14.49c-1.85-.92.67-2.84,1.5-2.99.3-.06.69,0,1,0Z"/>
  <path class="cls-23" d="M189.08,341.01c.15.01,1.14.89,2.42,1.04,2.33.29,7.43-1.53,6.58,1.95h-13.99s1-1.99,1-1.99c.62-.19,1.5-.98,2-1,.64-.03,1.36-.06,2,0Z"/>
  <rect class="cls-56" x="179.08" y="108.01" width="2" height="15"/>
  <rect class="cls-56" x="249.08" y="307.01" width="15" height="2"/>
  <rect class="cls-64" x="278.08" y="259.01" width="15" height="2"/>
  <rect class="cls-56" x="371.08" y="124.01" width="2" height="15"/>
  <rect class="cls-56" x="43.08" y="103.01" width="15" height="2"/>
  <rect class="cls-56" x="169.08" y="48.01" width="2" height="15"/>
  <rect class="cls-64" x="63.08" y="91.01" width="15" height="2"/>
  <rect class="cls-56" x="211.08" y="373.01" width="15" height="2"/>
  <rect class="cls-56" x="305.08" y="368.01" width="15" height="2"/>
  <rect class="cls-56" x="273.08" y="367.01" width="15" height="2"/>
  <rect class="cls-56" x="53.08" y="231.01" width="2" height="15"/>
  <rect class="cls-64" x="218.08" y="61.01" width="15" height="2"/>
  <rect class="cls-56" x="211.08" y="335.01" width="15" height="2"/>
  <rect class="cls-56" x="340.08" y="54.01" width="2" height="15"/>
  <rect class="cls-56" x="312.08" y="54.01" width="2" height="15"/>
  <path class="cls-33" d="M294.08,246.01c-5.04,1.68-8.16,2.82-14,2-.03-3.06.63-1.5,2-2l10-1c.03-.13.05-.98,0-1,.57.26,1.31,1.57,2,2Z"/>
  <path class="cls-8" d="M58.08,183.01c.04.65.02,1.34,0,2-.63-.11-1.48.16-2,0-2.54,1.14-8.34.87-11,0-.53.26-1.25,1.77-2,2,1.31-5.29-3.8-1.45-5-4h20Z"/>
  <path class="cls-28" d="M359.08,86.01h-1c-.2-6.64.28-13.37,0-20h1c-.73,6.22.54,13.63,0,20Z"/>
  <path class="cls-45" d="M88.07,148.01c2.08,2.08-1.91,6.07-3.99,3.99s1.91-6.07,3.99-3.99Z"/>
  <path class="cls-45" d="M88.07,106.01c2.08,2.08-1.91,6.07-3.99,3.99s1.91-6.07,3.99-3.99Z"/>
  <path class="cls-14" d="M109.08,217.01l1-8c3.52,2.99.72,5.78-1,8Z"/>
  <path class="cls-2" d="M280.08,286.01l1,5c-.47,0-1.4.81-2,1-.06-1.32-1.79-3.96-1-6,.65.06,1.34.01,2,0Z"/>
  <path class="cls-38" d="M153.08,247.01c-.99-4.58,4.05-4.4,3,0-.25.05-.69.93-1.5.93s-1.26-.88-1.5-.93Z"/>
  <path class="cls-39" d="M186.08,271.01c.05.81.58,2.23,1,3v1c-.47,0-1.4.81-2,1-.09-1.91-3.13-5.63,1-5Z"/>
  <path class="cls-28" d="M334.07,93.01c1.59,1.59-1.4,4.58-2.99,2.99s1.4-4.58,2.99-2.99Z"/>
  <path class="cls-28" d="M388.07,140.01c1.59,1.59-1.4,4.58-2.99,2.99s1.4-4.58,2.99-2.99Z"/>
  <path class="cls-28" d="M361.07,293.01c1.59,1.59-1.4,4.58-2.99,2.99s1.4-4.58,2.99-2.99Z"/>
  <path class="cls-28" d="M76.07,250.01c1.59,1.59-1.4,4.58-2.99,2.99s1.4-4.58,2.99-2.99Z"/>
  <path class="cls-28" d="M31.07,250.01c1.59,1.59-1.4,4.58-2.99,2.99s1.4-4.58,2.99-2.99Z"/>
  <path class="cls-28" d="M20.07,226.01c1.59,1.59-1.4,4.58-2.99,2.99s1.4-4.58,2.99-2.99Z"/>
  <path class="cls-28" d="M61.07,332.01c1.59,1.59-1.4,4.58-2.99,2.99s1.4-4.58,2.99-2.99Z"/>
  <rect class="cls-20" x="244.08" y="307.01" width="2.99" height="1.99"/>
  <rect class="cls-57" x="206.08" y="373.01" width="2.99" height="1.99"/>
  <rect class="cls-11" x="12.08" y="167.01" width="2.99" height="1.99"/>
  <rect class="cls-20" x="312.08" y="49.01" width="1.99" height="2.99"/>
  <rect class="cls-20" x="340.08" y="49.01" width="1.99" height="2.99"/>
  <rect class="cls-20" x="300.08" y="368.01" width="2.99" height="1.99"/>
  <rect class="cls-20" x="38.08" y="103.01" width="2.99" height="1.99"/>
  <rect class="cls-20" x="268.08" y="367.01" width="2.99" height="1.99"/>
  <rect class="cls-20" x="206.08" y="335.01" width="2.99" height="1.99"/>
  <rect class="cls-20" x="179.08" y="103.01" width="1.99" height="2.99"/>
  <rect class="cls-20" x="371.08" y="119.01" width="1.99" height="2.99"/>
  <rect class="cls-20" x="169.08" y="43.01" width="1.99" height="2.99"/>
  <rect class="cls-37" x="272.08" y="259.01" width="2.99" height="1.99"/>
  <path class="cls-48" d="M184.08,340.01c-.99-.11-1.73-1.88-2-2,.61-.64,1.56-1.27,2-2v4Z"/>
  <path class="cls-59" d="M130.8,196.24c24.52-5.1,25.35,40.99,6.7,43.71-23.32,3.4-23.97-40.12-6.7-43.71Z"/>
  <path class="cls-59" d="M211.07,218.01c.03,5.66.84,10.94-2.73,15.76-6.67,9.01-28.32,10.25-26.22-4.19,1.48-10.18,21.74-7.31,28.95-11.58Z"/>
  <path class="cls-59" d="M304.07,218.01c.03,5.66.84,10.94-2.73,15.76-6.67,9.01-28.32,10.25-26.22-4.19,1.48-10.18,21.74-7.31,28.95-11.58Z"/>
  <path class="cls-27" d="M292.08,244.01c-.5-.23-9.65-.2-11,0,2.76-1.92,7.89-1.4,11,0Z"/>
  <path class="cls-35" d="M254.08,248.01c.52-.39,1.37-.67,2-1,.09,10.77-9.61,6.67-2,1Z"/>
  <path class="cls-29" d="M288.74,152.16c9.71-3.23,10.7,13.8,4.64,15.66-10.05,3.08-9.44-14.06-4.64-15.66Z"/>
  <path class="cls-16" d="M216.07,158c-3.33-.31-7.31.47-10.52.01-3.63-.51-.03-4.77,1.54-5.47,5.18-2.33,7.79.77,8.98,5.46Z"/>
  <path class="cls-18" d="M103.08,174.01c5.72-1.92,11.9,7.53,7.02,10.52-5.73,3.51-6.04-6.92-7.02-10.52Z"/>
  <path class="cls-16" d="M177.07,261c-3.33-.31-7.31.47-10.52.01-3.63-.51-.03-4.77,1.54-5.47,5.18-2.33,7.79.77,8.98,5.46Z"/>
  <path class="cls-16" d="M245.07,261c-3.33-.31-7.31.47-10.52.01-3.63-.51-.03-4.77,1.54-5.47,5.18-2.33,7.79.77,8.98,5.46Z"/>
  <path class="cls-29" d="M263.33,166.74c-4.65-4.36-1.96-18.4,7.51-14,8.34,3.88.76,21.75-7.51,14Z"/>
  <path class="cls-69" d="M311.07,317c-5.3-.62-4.99-6.29-.49-7.99l.49,7.99Z"/>
  <path class="cls-25" d="M205.76,110.1c5.54-1.42,6.08,10.91.82,10.93-5.06-.69-5.04-9.85-.82-10.93Z"/>
  <path class="cls-25" d="M420.76,234.1c5.54-1.42,6.08,10.91.82,10.93-5.06-.69-5.04-9.85-.82-10.93Z"/>
  <path class="cls-25" d="M215.78,307.21c14.37-4.39,6.18,15.83-2.74,3.29,0-1.44,1.4-2.89,2.74-3.29Z"/>
  <path class="cls-25" d="M253.78,341.21c14.37-4.39,6.18,15.83-2.74,3.29,0-1.44,1.4-2.89,2.74-3.29Z"/>
  <path class="cls-75" d="M369.07,62.01c1.07,7.12-11.24,5.97-5.96,1.53.73-.61,5.47-2.03,5.96-1.53Z"/>
  <path class="cls-19" d="M284.83,396.25c2.96,3.05.82,12.1-4.76,9.28s-.19-14.38,4.76-9.28Z"/>
  <path class="cls-19" d="M361.83,101.25c2.96,3.05.82,12.1-4.76,9.28s-.19-14.38,4.76-9.28Z"/>
  <path class="cls-19" d="M111.83,308.25c2.96,3.05.82,12.1-4.76,9.28s-.19-14.38,4.76-9.28Z"/>
  <path class="cls-19" d="M212.83,283.25c2.96,3.05.82,12.1-4.76,9.28s-.19-14.38,4.76-9.28Z"/>
  <path class="cls-21" d="M215.78,344.21c8.2-2.5,12.37,6.62,3.8,6.88-6.94.21-8.74-5.38-3.8-6.88Z"/>
  <path class="cls-21" d="M258.77,28.11c5.55-1.37,6.51,11.49-.17,10.96-4.05-.32-3.43-10.07.17-10.96Z"/>
  <path class="cls-21" d="M90.77,308.11c5.55-1.37,6.51,11.49-.17,10.96-4.05-.32-3.43-10.07.17-10.96Z"/>
  <path class="cls-21" d="M273.77,7.11c5.55-1.37,6.51,11.49-.17,10.96-4.05-.32-3.43-10.07.17-10.96Z"/>
  <path class="cls-21" d="M252.78,71.21c8.2-2.5,12.37,6.62,3.8,6.88-6.94.21-8.74-5.38-3.8-6.88Z"/>
  <path class="cls-30" d="M107.93,288.86c-6.51,3.96-8.08-9.53-3.16-10.75,5.55-1.37,4.92,9.68,3.16,10.75Z"/>
  <path class="cls-19" d="M67.83,234.25c2.96,3.05.82,12.1-4.76,9.28s-.19-14.38,4.76-9.28Z"/>
  <path class="cls-75" d="M261.07,123c-2.37,2.42-5.8-4.75-4.99-6.99,3.83-1.59,6.45,5.5,4.99,6.99Z"/>
  <path class="cls-75" d="M312.07,79.01c1.07,7.12-11.24,5.97-5.96,1.53.73-.61,5.47-2.03,5.96-1.53Z"/>
  <path class="cls-75" d="M346.07,212c-2.37,2.42-5.8-4.75-4.99-6.99,3.83-1.59,6.45,5.5,4.99,6.99Z"/>
  <path class="cls-75" d="M56.07,204c-2.37,2.42-5.8-4.75-4.99-6.99,3.83-1.59,6.45,5.5,4.99,6.99Z"/>
  <path class="cls-75" d="M352.07,306.01c1.07,7.12-11.24,5.97-5.96,1.53.73-.61,5.47-2.03,5.96-1.53Z"/>
  <path class="cls-75" d="M128.07,313.01c1.07,7.12-11.24,5.97-5.96,1.53.73-.61,5.47-2.03,5.96-1.53Z"/>
  <path class="cls-75" d="M262.07,369c-2.37,2.42-5.8-4.75-4.99-6.99,3.83-1.59,6.45,5.5,4.99,6.99Z"/>
  <path class="cls-75" d="M300.07,106.01c1.07,7.12-11.24,5.97-5.96,1.53.73-.61,5.47-2.03,5.96-1.53Z"/>
  <path class="cls-75" d="M56.07,126c-2.37,2.42-5.8-4.75-4.99-6.99,3.83-1.59,6.45,5.5,4.99,6.99Z"/>
  <path class="cls-68" d="M159.32,156.26c4.83-5.03,9.83,7.8,4.09,9.64-5.44,1.74-6.97-6.64-4.09-9.64Z"/>
  <path class="cls-73" d="M225.08,104.02c4.3-1.12,8.03,3.74,4.49,6.98-4.53.61-2.96-4.28-4.49-6.98Z"/>
  <path class="cls-10" d="M225.08,135.02c4.3-1.12,8.03,3.74,4.49,6.98-4.53.61-2.96-4.28-4.49-6.98Z"/>
  <path class="cls-73" d="M191.08,350.02c4.3-1.12,8.03,3.74,4.49,6.98-4.53.61-2.96-4.28-4.49-6.98Z"/>
  <path class="cls-73" d="M285.08,268.02c4.3-1.12,8.03,3.74,4.49,6.98-4.53.61-2.96-4.28-4.49-6.98Z"/>
  <path class="cls-73" d="M70.08,129.02c4.3-1.12,8.03,3.74,4.49,6.98-4.53.61-2.96-4.28-4.49-6.98Z"/>
  <path class="cls-24" d="M150.08,87.02c-.9,8.98-12.51,3.98-5.59.9,1.69-.75,3.75-.98,5.59-.9Z"/>
  <path class="cls-24" d="M298.08,62.02c-.9,8.98-12.51,3.98-5.59.9,1.69-.75,3.75-.98,5.59-.9Z"/>
  <path class="cls-24" d="M368.08,175.02c-.9,8.98-12.51,3.98-5.59.9,1.69-.75,3.75-.98,5.59-.9Z"/>
  <path class="cls-24" d="M356.08,331.02c-.9,8.98-12.51,3.98-5.59.9,1.69-.75,3.75-.98,5.59-.9Z"/>
  <path class="cls-69" d="M49.07,165c-5.3-.62-4.99-6.29-.49-7.99l.49,7.99Z"/>
  <path class="cls-22" d="M405.83,170.25c2.96,3.05.82,12.1-4.76,9.28s-.19-14.38,4.76-9.28Z"/>
  <path class="cls-69" d="M143.79,156.29c.29.25,1.4,2.61,1.28,2.7h-7.99c.13-3.83,4-5.04,6.71-2.7Z"/>
  <path class="cls-69" d="M23.07,161c-5.3-.62-4.99-6.29-.49-7.99l.49,7.99Z"/>
  <path class="cls-69" d="M96.79,340.29c.29.25,1.4,2.61,1.28,2.7h-7.99c.13-3.83,4-5.04,6.71-2.7Z"/>
  <path class="cls-69" d="M63.79,309.29c.29.25,1.4,2.61,1.28,2.7h-7.99c.13-3.83,4-5.04,6.71-2.7Z"/>
  <path class="cls-69" d="M121.79,340.29c.29.25,1.4,2.61,1.28,2.7h-7.99c.13-3.83,4-5.04,6.71-2.7Z"/>
  <path class="cls-69" d="M254.07,93c-5.3-.62-4.99-6.29-.49-7.99l.49,7.99Z"/>
  <path class="cls-69" d="M166.79,340.29c.29.25,1.4,2.61,1.28,2.7h-7.99c.13-3.83,4-5.04,6.71-2.7Z"/>
  <path class="cls-69" d="M372.79,74.29c.29.25,1.4,2.61,1.28,2.7h-7.99c.13-3.83,4-5.04,6.71-2.7Z"/>
  <path class="cls-69" d="M166.79,308.29c.29.25,1.4,2.61,1.28,2.7h-7.99c.13-3.83,4-5.04,6.71-2.7Z"/>
  <path class="cls-69" d="M279.07,361c-5.3-.62-4.99-6.29-.49-7.99l.49,7.99Z"/>
  <path class="cls-22" d="M399.83,148.25c2.96,3.05.82,12.1-4.76,9.28s-.19-14.38,4.76-9.28Z"/>
  <path class="cls-61" d="M284.07,300.01c-.57,1.45,1.48,8.59-1.47,7.97-6.1-1.27-.29-9.96,1.47-7.97Z"/>
  <path class="cls-22" d="M345.32,74.26c5.8-5.88,9.59,7.89,4.09,9.64s-6.96-6.74-4.09-9.64Z"/>
  <path class="cls-61" d="M190.07,284.01c-.57,1.45,1.48,8.59-1.47,7.97-6.1-1.27-.29-9.96,1.47-7.97Z"/>
  <path class="cls-69" d="M393.79,235.29c.29.25,1.4,2.61,1.28,2.7h-7.99c.13-3.83,4-5.04,6.71-2.7Z"/>
  <path class="cls-22" d="M171.83,111.25c2.96,3.05.82,12.1-4.76,9.28s-.19-14.38,4.76-9.28Z"/>
  <path class="cls-69" d="M311.07,272c-5.3-.62-4.99-6.29-.49-7.99l.49,7.99Z"/>
  <path class="cls-61" d="M69.07,61.01c-.57,1.45,1.48,8.59-1.47,7.97-6.1-1.27-.29-9.96,1.47-7.97Z"/>
  <path class="cls-69" d="M157.07,402c-5.3-.62-4.99-6.29-.49-7.99l.49,7.99Z"/>
  <path class="cls-69" d="M140.79,51.29c.29.25,1.4,2.61,1.28,2.7h-7.99c.13-3.83,4-5.04,6.71-2.7Z"/>
  <path class="cls-22" d="M408.83,235.25c2.96,3.05.82,12.1-4.76,9.28-5.3-2.68-.19-14.38,4.76-9.28Z"/>
  <path class="cls-19" d="M20.32,180.76c-5.61-5.44,7.81-9.89,9.65-4.09,1.74,5.46-6.7,6.96-9.65,4.09Z"/>
  <path class="cls-19" d="M251.32,136.76c-5.61-5.44,7.81-9.89,9.65-4.09,1.74,5.46-6.7,6.96-9.65,4.09Z"/>
  <path class="cls-69" d="M374.07,208l-7.99-.49c1.7-4.5,7.37-4.81,7.99.49Z"/>
  <path class="cls-69" d="M132.07,365l-7.99-.49c1.7-4.5,7.37-4.81,7.99.49Z"/>
  <path class="cls-69" d="M285.07,104l-7.99-.49c1.7-4.5,7.37-4.81,7.99.49Z"/>
  <path class="cls-69" d="M441.07,238l-7.99-.49c1.7-4.5,7.37-4.81,7.99.49Z"/>
  <path class="cls-69" d="M247.07,11l-7.99-.49c1.7-4.5,7.37-4.81,7.99.49Z"/>
  <path class="cls-69" d="M419.07,208l-7.99-.49c1.7-4.5,7.37-4.81,7.99.49Z"/>
  <path class="cls-69" d="M230.07,286l-7.99-.49c1.7-4.5,7.37-4.81,7.99.49Z"/>
  <path class="cls-69" d="M148.07,282l-7.99-.49c1.7-4.5,7.37-4.81,7.99.49Z"/>
  <path class="cls-69" d="M346.07,173l-7.99-.49c1.7-4.5,7.37-4.81,7.99.49Z"/>
  <path class="cls-69" d="M391.07,173l-7.99-.49c1.7-4.5,7.37-4.81,7.99.49Z"/>
  <path class="cls-69" d="M44.07,261l-7.99-.49c1.7-4.5,7.37-4.81,7.99.49Z"/>
  <path class="cls-69" d="M188.07,399l-7.99-.49c1.7-4.5,7.37-4.81,7.99.49Z"/>
  <path class="cls-21" d="M178.32,51.26c5.46-5.55,9.95,6.67,4.76,9.28-5.79,2.91-7.89-6.1-4.76-9.28Z"/>
  <path class="cls-21" d="M366.32,148.26c5.46-5.55,9.95,6.67,4.76,9.28-5.79,2.91-7.89-6.1-4.76-9.28Z"/>
  <path class="cls-21" d="M380.32,127.26c5.46-5.55,9.95,6.67,4.76,9.28-5.79,2.91-7.89-6.1-4.76-9.28Z"/>
  <path class="cls-21" d="M358.32,273.26c5.46-5.55,9.95,6.67,4.76,9.28-5.79,2.91-7.89-6.1-4.76-9.28Z"/>
  <path class="cls-4" d="M298.83,127.26c2.29,2.32,1.55,9.16-2.27,9.79-8.79,1.45-4.1-16.25,2.27-9.79Z"/>
  <path class="cls-4" d="M156.83,111.26c2.29,2.32,1.55,9.16-2.27,9.79-8.79,1.45-4.1-16.25,2.27-9.79Z"/>
  <path class="cls-4" d="M69.83,279.26c2.29,2.32,1.55,9.16-2.27,9.79-8.79,1.45-4.1-16.25,2.27-9.79Z"/>
  <path class="cls-4" d="M186.83,82.26c2.29,2.32,1.55,9.16-2.27,9.79-8.79,1.45-4.1-16.25,2.27-9.79Z"/>
  <path class="cls-4" d="M252.33,325.25c2.32-2.29,9.16-1.55,9.79,2.27,1.45,8.79-16.25,4.1-9.79-2.27Z"/>
  <path class="cls-4" d="M351.83,235.26c2.29,2.32,1.55,9.16-2.27,9.79-8.79,1.45-4.1-16.25,2.27-9.79Z"/>
  <path class="cls-4" d="M373.83,301.26c2.29,2.32,1.55,9.16-2.27,9.79-8.79,1.45-4.1-16.25,2.27-9.79Z"/>
  <path class="cls-4" d="M269.83,396.26c2.29,2.32,1.55,9.16-2.27,9.79-8.79,1.45-4.1-16.25,2.27-9.79Z"/>
  <path class="cls-4" d="M247.83,396.26c2.29,2.32,1.55,9.16-2.27,9.79-8.79,1.45-4.1-16.25,2.27-9.79Z"/>
  <path class="cls-4" d="M56.08,185.01c-.09.93.54,1.74-.63,2.02-.96.23-9.96.29-10.38-.02-.16-.12.1-1.44,0-2,3.89-1.95,6.98-1.24,11,0Z"/>
  <path class="cls-27" d="M292.08,245.01c-.51,2.03-7.54.59-10,1,3.63-1.33,6.1-1.15,10-1Z"/>
  <path class="cls-22" d="M108.08,51.01c3.95,2.82.85,6.42,1,9-9.86,5.28-8.35-14.24-1-9Z"/>
</svg>