<?xml version="1.0" encoding="UTF-8"?>
<svg id="Layer_1" data-name="Layer 1" xmlns="http://www.w3.org/2000/svg" viewBox="0 0 658.33 849.47">
  <defs>
    <style>
      .cls-1 {
        fill: #fff;
        font-family: Lexend-Bold, Lexend;
        font-size: 32px;
        font-variation-settings: 'wght' 700;
        font-weight: 700;
      }

      .cls-2 {
        stroke-width: 7px;
      }

      .cls-2, .cls-3, .cls-4, .cls-5, .cls-6, .cls-7 {
        fill: none;
        stroke: #000;
        stroke-miterlimit: 10;
      }

      .cls-3 {
        stroke-width: 15px;
      }

      .cls-4 {
        stroke-width: 15px;
      }

      .cls-8 {
        letter-spacing: -.12em;
      }

      .cls-9 {
        letter-spacing: -.01em;
      }

      .cls-5 {
        stroke-width: 4.27px;
      }

      .cls-5, .cls-6, .cls-7 {
        stroke-linecap: round;
      }

      .cls-6 {
        stroke-width: 6.83px;
      }

      .cls-7 {
        stroke-width: 5.98px;
      }
    </style>
  </defs>
  <path d="M152.32,263.15c2.13-7.08,6.55-13.12,10.92-19.14h0c1.15-1.58,2.31-3.15,3.42-4.75,4.4-6.33,6.97-13.99,6.97-22.27,0-21.6-17.49-39.1-39.07-39.1s-39.07,17.49-39.07,39.07c0,8.28,2.58,15.96,6.97,22.27,1.11,1.6,2.26,3.17,3.42,4.75h0c4.4,6.02,8.81,12.08,10.92,19.14h35.52v.02ZM134.56,291.56c9.81,0,17.76-7.95,17.76-17.76v-3.55h-35.52v3.55c0,9.81,7.95,17.76,17.76,17.76ZM116.8,216.97c0,1.95-1.6,3.55-3.55,3.55s-3.55-1.6-3.55-3.55c0-13.74,11.12-24.86,24.86-24.86,1.95,0,3.55,1.6,3.55,3.55s-1.6,3.55-3.55,3.55c-9.81,0-17.76,7.95-17.76,17.76Z"/>
  <path d="M493.28,232.02v-17.63h29.39v17.63h-29.39ZM493.28,243.78h29.39v17.63h-29.39v-17.63ZM534.42,261.41v-17.63h29.39v17.63h-29.39ZM563.81,232.02h-29.39v-17.63h29.39v17.63ZM493.28,190.88c-6.48,0-11.76,5.27-11.76,11.76v58.78c0,6.48,5.27,11.76,11.76,11.76h70.53c6.48,0,11.76-5.27,11.76-11.76v-58.78c0-6.48-5.27-11.76-11.76-11.76h-70.53Z"/>
  <path d="M555.93,617.79c0,7.85-2.55,15.11-6.84,21l21.66,21.68c2.14,2.14,2.14,5.61,0,7.75-2.14,2.14-5.61,2.14-7.75,0l-21.66-21.68c-5.89,4.31-13.14,6.84-21,6.84-19.66,0-35.59-15.93-35.59-35.59s15.93-35.59,35.59-35.59,35.59,15.93,35.59,35.59ZM520.33,642.43c13.61,0,24.64-11.03,24.64-24.64s-11.03-24.64-24.64-24.64-24.64,11.03-24.64,24.64,11.03,24.64,24.64,24.64Z"/>
  <g>
    <line class="cls-6" x1="97.31" y1="587.27" x2="97.31" y2="657.21"/>
    <line class="cls-6" x1="180.61" y1="657.21" x2="97.31" y2="657.21"/>
    <line class="cls-7" x1="113.29" y1="623.02" x2="113.29" y2="648.95"/>
    <line class="cls-7" x1="137.63" y1="623.02" x2="137.63" y2="648.95"/>
    <line class="cls-7" x1="126.05" y1="615.47" x2="126.05" y2="648.95"/>
    <line class="cls-7" x1="160.24" y1="604.98" x2="160.24" y2="648.95"/>
    <line class="cls-7" x1="149.21" y1="615.47" x2="149.21" y2="648.95"/>
    <line class="cls-5" x1="109.87" y1="616.88" x2="127.18" y2="599.57"/>
    <line class="cls-5" x1="127.18" y1="599.57" x2="138.44" y2="610.83"/>
    <line class="cls-5" x1="138.44" y1="610.83" x2="157.32" y2="591.96"/>
  </g>
  <circle class="cls-2" cx="134.56" cy="232.02" r="71.47"/>
  <circle class="cls-2" cx="528.55" cy="232.02" r="71.47"/>
  <circle class="cls-2" cx="134.56" cy="626.01" r="71.47"/>
  <circle class="cls-2" cx="528.55" cy="626.01" r="71.47"/>
  <g>
    <rect x="15.02" y="91.05" width="217.77" height="49.71" rx="24.86" ry="24.86"/>
    <text class="cls-1" transform="translate(33.18 125.59)"><tspan x="0" y="0">QUEST</tspan><tspan class="cls-9" x="112.35" y="0">I</tspan><tspan x="129.63" y="0">ON</tspan></text>
  </g>
  <g>
    <rect x="425.54" y="92.43" width="217.77" height="49.71" rx="24.86" ry="24.86"/>
    <text class="cls-1" transform="translate(458.94 126.97)"><tspan x="0" y="0">COLLECT</tspan></text>
  </g>
  <g>
    <rect x="25.67" y="714.49" width="217.77" height="49.71" rx="24.86" ry="24.86"/>
    <text class="cls-1" transform="translate(38.11 749.04)"><tspan x="0" y="0">INTERPRET</tspan></text>
  </g>
  <g>
    <rect x="425.54" y="715.89" width="217.77" height="49.71" rx="24.86" ry="24.86"/>
    <text class="cls-1" transform="translate(459.21 750.44)"><tspan x="0" y="0">ANA</tspan><tspan class="cls-8" x="70.24" y="0">L</tspan><tspan x="85.89" y="0">YZE</tspan></text>
  </g>
  <g>
    <path class="cls-3" d="M206.03,232.02c20.77-11.2,65.12-31.53,124.79-31.69,38.1-.11,70.03,8.04,93.65,16.89"/>
    <polygon points="399.92 231.22 417.49 214.66 417.77 190.52 457.08 232.02 399.92 231.22"/>
  </g>
  <g>
    <path class="cls-3" d="M206.03,603.12c20.77-11.2,65.12-31.53,124.79-31.69,38.1-.11,70.03,8.04,93.65,16.89"/>
    <polygon points="399.92 602.32 417.49 585.76 417.77 561.62 457.08 603.12 399.92 602.32"/>
  </g>
  <g>
    <path class="cls-4" d="M457.08,633.1c-20.77,11.2-65.12,31.52-124.79,31.69-38.1.11-70.03-8.04-93.65-16.89"/>
    <polygon points="263.19 633.9 245.62 650.46 245.34 674.6 206.03 633.1 263.19 633.9"/>
  </g>
  <g>
    <path class="cls-4" d="M457.08,254.41c-20.77,11.2-65.12,31.52-124.79,31.69-38.1.11-70.03-8.04-93.65-16.89"/>
    <polygon points="263.19 255.21 245.62 271.77 245.34 295.9 206.03 254.41 263.19 255.21"/>
  </g>
  <g>
    <path class="cls-4" d="M533.27,303.49c11.2,20.77,31.52,65.12,31.69,124.79.11,38.1-8.04,70.03-16.89,93.65"/>
    <polygon points="534.07 497.38 550.63 514.95 574.77 515.23 533.27 554.54 534.07 497.38"/>
  </g>
  <g>
    <path class="cls-4" d="M157.79,303.49c11.2,20.77,31.52,65.12,31.69,124.79.11,38.1-8.04,70.03-16.89,93.65"/>
    <polygon points="158.59 497.38 175.15 514.95 199.29 515.23 157.79 554.54 158.59 497.38"/>
  </g>
  <g>
    <path class="cls-4" d="M132.65,554.54c-11.2-20.77-31.52-65.12-31.69-124.79-.11-38.1,8.04-70.03,16.89-93.65"/>
    <polygon points="131.84 360.64 115.29 343.08 91.15 342.8 132.65 303.49 131.84 360.64"/>
  </g>
  <g>
    <path class="cls-4" d="M500.59,554.54c-11.2-20.77-31.52-65.12-31.69-124.79-.11-38.1,8.04-70.03,16.89-93.65"/>
    <polygon points="499.79 360.64 483.23 343.08 459.09 342.8 500.59 303.49 499.79 360.64"/>
  </g>
  <g>
    <line class="cls-4" x1="206.61" y1="311.42" x2="449.83" y2="554.64"/>
    <polygon points="202.82 339.05 211.85 316.67 234.24 307.63 181.28 286.1 202.82 339.05"/>
    <polygon points="422.2 558.44 444.59 549.4 453.62 527.02 475.16 579.97 422.2 558.44"/>
  </g>
  <g>
    <line class="cls-4" x1="454.55" y1="306.7" x2="211.33" y2="549.92"/>
    <polygon points="426.92 302.91 449.31 311.95 458.35 334.33 479.88 281.38 426.92 302.91"/>
    <polygon points="207.54 522.3 216.57 544.68 238.96 553.72 186.01 575.25 207.54 522.3"/>
  </g>
  <g>
    <line class="cls-4" x1="123.9" x2="123.9" y2="55.23"/>
    <polygon points="101.69 38.38 123.9 47.82 146.12 38.38 123.9 91.05 101.69 38.38"/>
  </g>
  <g>
    <line class="cls-4" x1="533.27" x2="533.27" y2="55.23"/>
    <polygon points="511.05 38.38 533.27 47.82 555.49 38.38 533.27 91.05 511.05 38.38"/>
  </g>
  <g>
    <line class="cls-4" x1="123.9" y1="758.42" x2="123.9" y2="813.65"/>
    <polygon points="101.69 796.8 123.9 806.24 146.12 796.8 123.9 849.47 101.69 796.8"/>
  </g>
  <g>
    <line class="cls-4" x1="533.27" y1="758.42" x2="533.27" y2="813.65"/>
    <polygon points="511.05 796.8 533.27 806.24 555.49 796.8 533.27 849.47 511.05 796.8"/>
  </g>
</svg>