<svg version="1.1" viewBox="0.0 0.0 507.2230971128609 196.52230971128608" fill="none" stroke="none" stroke-linecap="square" stroke-miterlimit="10" xmlns:xlink="http://www.w3.org/1999/xlink" xmlns="http://www.w3.org/2000/svg"><clipPath id="p.0"><path d="m0 0l507.22308 0l0 196.52231l-507.22308 0l0 -196.52231z" clip-rule="nonzero"/></clipPath><g clip-path="url(#p.0)"><path fill="#000000" fill-opacity="0.0" d="m0 0l507.22308 0l0 196.52231l-507.22308 0z" fill-rule="evenodd"/><path fill="#000000" fill-opacity="0.0" d="m7.4475064 35.627296l0 17.732285" fill-rule="evenodd"/><path stroke="#595959" stroke-width="1.0" stroke-linejoin="round" stroke-linecap="butt" d="m7.4475064 35.627296l0 17.732285" fill-rule="evenodd"/><path fill="#000000" fill-opacity="0.0" d="m7.4475064 44.49344l496.97638 0" fill-rule="evenodd"/><path stroke="#595959" stroke-width="1.0" stroke-linejoin="round" stroke-linecap="butt" d="m7.4475064 44.49344l496.97638 0" fill-rule="evenodd"/><path fill="#4285f4" d="m203.06989 38.295185l1.9208374 -1.9208412l6.151016 6.1510086l6.151001 -6.1510086l1.9208374 1.9208412l-6.151001 6.1510086l6.151001 6.1510086l-1.9208374 1.920845l-6.151001 -6.1510124l-6.151016 6.1510124l-1.9208374 -1.920845l6.151001 -6.1510086z" fill-rule="evenodd"/><path fill="#000000" fill-opacity="0.0" d="m33.807087 1.1023622l43.370075 0l0 22.897638l-43.370075 0z" fill-rule="evenodd"/><path fill="#595959" d="m55.0664 18.31118l-1.96875 -3.531249l-0.171875 -0.3125l-2.578125 -4.5625l2.078125 0l1.9375 3.5l0.203125 0.34375l2.515625 4.562499l-2.015625 0zm-6.484375 0l4.234375 -4.312499l0.734375 1.15625l-3.015625 3.156249l-1.953125 0zm5.96875 -4.062499l-0.65625 -1.15625l2.734375 -3.1875l1.953125 0l-4.03125 4.34375z" fill-rule="nonzero"/><path fill="#595959" d="m59.636543 23.795555l0 -6.0625l0.390625 0.296875l-1.46875 0.78125l-0.3125 -1.0l2.0 -1.0625l0.546875 0l0 7.046875l-1.15625 0zm-1.1875 0.515625l0 -1.109375l3.5625 0l0 1.109375l-3.5625 0z" fill-rule="nonzero"/><path fill="#000000" fill-opacity="0.0" d="m92.203415 1.1023622l43.37007 0l0 22.897638l-43.37007 0z" fill-rule="evenodd"/><path fill="#595959" d="m113.20697 18.31118l-1.96875 -3.531249l-0.171875 -0.3125l-2.578125 -4.5625l2.078125 0l1.9375 3.5l0.203125 0.34375l2.515625 4.562499l-2.015625 0zm-6.484375 0l4.234375 -4.312499l0.734375 1.15625l-3.015625 3.156249l-1.953125 0zm5.96875 -4.062499l-0.65625 -1.15625l2.734375 -3.1875l1.953125 0l-4.03125 4.34375z" fill-rule="nonzero"/><path fill="#595959" d="m116.44899 24.31118l-0.34375 -0.875l2.28125 -2.5625q0.171875 -0.203125 0.375 -0.453125q0.203125 -0.25 0.375 -0.515625q0.1875 -0.265625 0.296875 -0.515625q0.109375 -0.265625 0.109375 -0.5q0 -0.34375 -0.140625 -0.578125q-0.125 -0.25 -0.375 -0.375q-0.25 -0.125 -0.59375 -0.125q-0.3125 0 -0.609375 0.1875q-0.296875 0.171875 -0.546875 0.5q-0.25 0.328125 -0.390625 0.765625l-0.875 -0.546875q0.171875 -0.625 0.53125 -1.0625q0.375 -0.4375 0.890625 -0.671875q0.53125 -0.234375 1.125 -0.234375q0.640625 0 1.125 0.265625q0.484375 0.25 0.765625 0.71875q0.28125 0.46875 0.28125 1.0625q0 0.25 -0.0625 0.515625q-0.046875 0.25 -0.171875 0.53125q-0.109375 0.265625 -0.296875 0.5625q-0.171875 0.28125 -0.421875 0.609375q-0.25 0.3125 -0.578125 0.671875l-1.6875 1.84375l-0.21875 -0.328125l3.671875 0l0 1.109375l-4.515625 0z" fill-rule="nonzero"/><path fill="#000000" fill-opacity="0.0" d="m189.4567 1.1023622l43.37007 0l0 22.897638l-43.37007 0z" fill-rule="evenodd"/><path fill="#595959" d="m210.5615 18.31118l-1.96875 -3.531249l-0.171875 -0.3125l-2.578125 -4.5625l2.078125 0l1.9375 3.5l0.203125 0.34375l2.515625 4.562499l-2.015625 0zm-6.484375 0l4.234375 -4.312499l0.734375 1.15625l-3.015625 3.156249l-1.953125 0zm5.96875 -4.062499l-0.65625 -1.15625l2.734375 -3.1875l1.953125 0l-4.03125 4.34375z" fill-rule="nonzero"/><path fill="#595959" d="m215.49101 24.420555q-0.78125 0 -1.375 -0.359375q-0.578125 -0.375 -1.078125 -1.21875l0.890625 -0.5625q0.265625 0.390625 0.515625 0.640625q0.265625 0.25 0.546875 0.375q0.28125 0.109375 0.59375 0.109375q0.375 0 0.6875 -0.1875q0.3125 -0.1875 0.5 -0.515625q0.203125 -0.328125 0.203125 -0.75q0 -0.40625 -0.15625 -0.703125q-0.140625 -0.296875 -0.4375 -0.453125q-0.28125 -0.15625 -0.671875 -0.15625q-0.1875 0 -0.390625 0.046875q-0.1875 0.03125 -0.421875 0.109375q-0.21875 0.0625 -0.484375 0.171875l-0.3125 -0.84375l2.296875 -2.53125l0.21875 0.328125l-3.171875 0l0 -1.0625l4.28125 0l0.203125 0.421875l-2.4375 2.703125l-0.265625 -0.28125q0.09375 -0.03125 0.28125 -0.0625q0.203125 -0.046875 0.328125 -0.046875q0.46875 0 0.875 0.171875q0.421875 0.171875 0.71875 0.5q0.296875 0.3125 0.46875 0.734375q0.1875 0.40625 0.1875 0.890625q0 0.734375 -0.34375 1.3125q-0.34375 0.5625 -0.9375 0.890625q-0.578125 0.328125 -1.3125 0.328125z" fill-rule="nonzero"/><path fill="#4285f4" d="m306.5712 38.295185l1.9208374 -1.9208412l6.151001 6.1510086l6.1510315 -6.1510086l1.9208374 1.9208412l-6.1510315 6.1510086l6.1510315 6.1510086l-1.9208374 1.920845l-6.1510315 -6.1510124l-6.151001 6.1510124l-1.9208374 -1.920845l6.151001 -6.1510086z" fill-rule="evenodd"/><path fill="#000000" fill-opacity="0.0" d="m292.958 1.1023622l43.370087 0l0 22.897638l-43.370087 0z" fill-rule="evenodd"/><path fill="#595959" d="m313.57794 18.31118l-1.96875 -3.531249l-0.171875 -0.3125l-2.578125 -4.5625l2.078125 0l1.9375 3.5l0.203125 0.34375l2.515625 4.562499l-2.015625 0zm-6.484375 0l4.234375 -4.312499l0.734375 1.15625l-3.015625 3.156249l-1.953125 0zm5.96875 -4.062499l-0.65625 -1.15625l2.734375 -3.1875l1.953125 0l-4.03125 4.34375z" fill-rule="nonzero"/><path fill="#595959" d="m319.58557 24.31118l0 -6.015625l0.265625 0.0625l-2.453125 3.0l-0.03125 -0.125l4.625 0l0 1.046875l-5.34375 0l-0.5 -0.953125l3.65625 -4.46875l0.890625 0l0 7.453125l-1.109375 0z" fill-rule="nonzero"/><path fill="#4285f4" d="m402.0712 38.295185l1.9208374 -1.9208412l6.151001 6.1510086l6.1510315 -6.1510086l1.9208374 1.9208412l-6.1510315 6.1510086l6.1510315 6.1510086l-1.9208374 1.920845l-6.1510315 -6.1510124l-6.151001 6.1510124l-1.9208374 -1.920845l6.151001 -6.1510086z" fill-rule="evenodd"/><path fill="#000000" fill-opacity="0.0" d="m388.458 1.1023622l43.370087 0l0 22.897638l-43.370087 0z" fill-rule="evenodd"/><path fill="#595959" d="m409.355 18.31118l-1.96875 -3.531249l-0.171875 -0.3125l-2.578125 -4.5625l2.078125 0l1.9375 3.5l0.203125 0.34375l2.515625 4.562499l-2.015625 0zm-6.484375 0l4.234375 -4.312499l0.734375 1.15625l-3.015625 3.156249l-1.953125 0zm5.96875 -4.062499l-0.65625 -1.15625l2.734375 -3.1875l1.953125 0l-4.03125 4.34375z" fill-rule="nonzero"/><path fill="#595959" d="m414.34702 24.389305q-0.734375 0 -1.328125 -0.328125q-0.59375 -0.34375 -0.984375 -0.96875l0.640625 -0.71875q0.5 0.546875 0.859375 0.75q0.375 0.203125 0.8125 0.203125q0.4375 0 0.78125 -0.1875q0.359375 -0.1875 0.5625 -0.515625q0.21875 -0.34375 0.21875 -0.734375q0 -0.4375 -0.203125 -0.765625q-0.1875 -0.34375 -0.53125 -0.53125q-0.328125 -0.203125 -0.734375 -0.203125q-0.203125 0 -0.390625 0.03125q-0.171875 0.015625 -0.4375 0.125q-0.25 0.09375 -0.671875 0.296875l-0.609375 -0.828125l0.4375 -3.15625l4.03125 0l0 1.0625l-3.296875 0l0.21875 -0.203125l-0.34375 2.359375l-0.28125 -0.3125q0.109375 -0.09375 0.359375 -0.1875q0.265625 -0.109375 0.578125 -0.171875q0.3125 -0.078125 0.609375 -0.078125q0.671875 0 1.203125 0.3125q0.546875 0.3125 0.859375 0.875q0.3125 0.546875 0.3125 1.265625q0 0.734375 -0.359375 1.328125q-0.34375 0.578125 -0.953125 0.9375q-0.59375 0.34375 -1.359375 0.34375z" fill-rule="nonzero"/><path fill="#4285f4" d="m445.44128 38.295185l1.9208374 -1.9208412l6.151001 6.1510086l6.151001 -6.1510086l1.9208374 1.9208412l-6.151001 6.1510086l6.151001 6.1510086l-1.9208374 1.920845l-6.151001 -6.1510124l-6.151001 6.1510124l-1.9208374 -1.920845l6.151001 -6.1510086z" fill-rule="evenodd"/><path fill="#000000" fill-opacity="0.0" d="m431.8281 1.1023622l43.370056 0l0 22.897638l-43.370056 0z" fill-rule="evenodd"/><path fill="#595959" d="m452.7837 18.31118l-1.96875 -3.531249l-0.171875 -0.3125l-2.578125 -4.5625l2.078125 0l1.9375 3.5l0.203125 0.34375l2.515625 4.562499l-2.015625 0zm-6.484375 0l4.234375 -4.312499l0.734375 1.15625l-3.015625 3.156249l-1.953125 0zm5.96875 -4.062499l-0.65625 -1.15625l2.734375 -3.1875l1.953125 0l-4.03125 4.34375z" fill-rule="nonzero"/><path fill="#595959" d="m458.05698 24.31118q-0.546875 0 -1.03125 -0.1875q-0.46875 -0.203125 -0.8125 -0.546875q-0.34375 -0.359375 -0.546875 -0.84375q-0.203125 -0.484375 -0.203125 -1.046875q0 -0.296875 0.078125 -0.65625q0.09375 -0.359375 0.25 -0.78125q0.171875 -0.421875 0.40625 -0.890625q0.234375 -0.484375 0.53125 -1.0l0.984375 -1.640625l1.109375 0l0.046875 0.109375l-1.171875 1.96875q-0.328125 0.546875 -0.578125 1.046875q-0.25 0.484375 -0.421875 0.921875q-0.171875 0.421875 -0.25 0.78125l-0.25 -1.109375q0.203125 -0.328125 0.4375 -0.578125q0.234375 -0.25 0.5 -0.421875q0.265625 -0.171875 0.5625 -0.25q0.3125 -0.09375 0.625 -0.09375q0.625 0 1.140625 0.34375q0.515625 0.328125 0.828125 0.890625q0.3125 0.546875 0.3125 1.21875q0 0.796875 -0.328125 1.421875q-0.328125 0.625 -0.90625 0.984375q-0.5625 0.359375 -1.3125 0.359375zm0 -1.0625q0.421875 0 0.734375 -0.1875q0.328125 -0.203125 0.515625 -0.5625q0.1875 -0.359375 0.1875 -0.8125q0 -0.40625 -0.1875 -0.75q-0.1875 -0.34375 -0.515625 -0.546875q-0.3125 -0.21875 -0.71875 -0.21875q-0.4375 0 -0.78125 0.203125q-0.328125 0.203125 -0.53125 0.546875q-0.1875 0.328125 -0.1875 0.75q0 0.453125 0.1875 0.8125q0.203125 0.34375 0.53125 0.5625q0.328125 0.203125 0.765625 0.203125z" fill-rule="nonzero"/><path fill="#000000" fill-opacity="0.0" d="m2.7992127 71.36614l155.62206 0" fill-rule="evenodd"/><path stroke="#e49e0d" stroke-width="3.0" stroke-linejoin="round" stroke-linecap="butt" d="m2.7992127 71.36614l155.62206 0" fill-rule="evenodd"/><path fill="#4285f4" d="m47.420273 38.295185l1.920845 -1.9208412l6.1510086 6.1510086l6.1510086 -6.1510086l1.9208412 1.9208412l-6.1510086 6.1510086l6.1510086 6.1510086l-1.9208412 1.920845l-6.1510086 -6.1510124l-6.1510086 6.1510124l-1.920845 -1.920845l6.1510124 -6.1510086z" fill-rule="evenodd"/><path fill="#4285f4" d="m105.8166 38.295185l1.920845 -1.9208412l6.1510086 6.1510086l6.1510086 -6.1510086l1.920845 1.9208412l-6.1510086 6.1510086l6.1510086 6.1510086l-1.920845 1.920845l-6.1510086 -6.1510124l-6.1510086 6.1510124l-1.920845 -1.920845l6.151016 -6.1510086z" fill-rule="evenodd"/><path fill="#000000" fill-opacity="0.0" d="m2.7992127 64.8937l0 12.850395" fill-rule="evenodd"/><path stroke="#e49e0d" stroke-width="1.0" stroke-linejoin="round" stroke-linecap="butt" d="m2.7992127 64.8937l0 12.850395" fill-rule="evenodd"/><path fill="#000000" fill-opacity="0.0" d="m74.185036 44.447506l0 0c0 -3.5485382 2.8766632 -6.4251976 6.4252014 -6.4251976l0 0c1.704071 0 3.3383408 0.6769409 4.543297 1.881897c1.2049637 1.2049599 1.881897 2.8392334 1.881897 4.5433006l0 0c0 3.5485382 -2.8766556 6.4251976 -6.425194 6.4251976l0 0c-3.5485382 0 -6.4252014 -2.8766594 -6.4252014 -6.4251976z" fill-rule="evenodd"/><path stroke="#ff0000" stroke-width="4.0" stroke-linejoin="round" stroke-linecap="butt" d="m74.185036 44.447506l0 0c0 -3.5485382 2.8766632 -6.4251976 6.4252014 -6.4251976l0 0c1.704071 0 3.3383408 0.6769409 4.543297 1.881897c1.2049637 1.2049599 1.881897 2.8392334 1.881897 4.5433006l0 0c0 3.5485382 -2.8766556 6.4251976 -6.425194 6.4251976l0 0c-3.5485382 0 -6.4252014 -2.8766594 -6.4252014 -6.4251976z" fill-rule="evenodd"/><path fill="#000000" fill-opacity="0.0" d="m158.49738 64.94095l0 12.850388" fill-rule="evenodd"/><path stroke="#e49e0d" stroke-width="1.0" stroke-linejoin="round" stroke-linecap="butt" d="m158.49738 64.94095l0 12.850388" fill-rule="evenodd"/><path fill="#000000" fill-opacity="0.0" d="m66.92519 12.730971l27.370079 0l0 22.897636l-27.370079 0z" fill-rule="evenodd"/><path fill="#ff0000" d="m82.30019 29.939789l-1.234375 -2.734375l-0.578125 -1.171875l-2.375 -4.59375l3.0625 0l1.1875 2.609375l0.640625 1.25l2.328125 4.640625l-3.03125 0zm-6.09375 0l4.453125 -4.765625l1.03125 1.640625l-2.453125 3.125l-3.03125 0zm6.40625 -3.703125l-1.015625 -1.625l2.359375 -3.171875l3.03125 0l-4.375 4.796875z" fill-rule="nonzero"/><path fill="#000000" fill-opacity="0.0" d="m7.4475064 153.2546l0 17.732285" fill-rule="evenodd"/><path stroke="#595959" stroke-width="1.0" stroke-linejoin="round" stroke-linecap="butt" d="m7.4475064 153.2546l0 17.732285" fill-rule="evenodd"/><path fill="#000000" fill-opacity="0.0" d="m7.4475064 162.12073l496.97638 0" fill-rule="evenodd"/><path stroke="#595959" stroke-width="1.0" stroke-linejoin="round" stroke-linecap="butt" d="m7.4475064 162.12073l496.97638 0" fill-rule="evenodd"/><path fill="#4285f4" d="m203.06989 155.92249l1.9208374 -1.9208527l6.151016 6.151016l6.151001 -6.151016l1.9208374 1.9208527l-6.151001 6.151001l6.151001 6.151016l-1.9208374 1.9208374l-6.151001 -6.151001l-6.151016 6.151001l-1.9208374 -1.9208374l6.151001 -6.151016z" fill-rule="evenodd"/><path fill="#000000" fill-opacity="0.0" d="m33.807087 118.72966l43.370075 0l0 22.897644l-43.370075 0z" fill-rule="evenodd"/><path fill="#595959" d="m55.0664 135.93848l-1.96875 -3.53125l-0.171875 -0.3125l-2.578125 -4.5625l2.078125 0l1.9375 3.5l0.203125 0.34375l2.515625 4.5625l-2.015625 0zm-6.484375 0l4.234375 -4.3125l0.734375 1.15625l-3.015625 3.15625l-1.953125 0zm5.96875 -4.0625l-0.65625 -1.15625l2.734375 -3.1875l1.953125 0l-4.03125 4.34375z" fill-rule="nonzero"/><path fill="#595959" d="m59.636543 141.42285l0 -6.0625l0.390625 0.296875l-1.46875 0.78125l-0.3125 -1.0l2.0 -1.0625l0.546875 0l0 7.046875l-1.15625 0zm-1.1875 0.515625l0 -1.109375l3.5625 0l0 1.109375l-3.5625 0z" fill-rule="nonzero"/><path fill="#000000" fill-opacity="0.0" d="m92.203415 118.72966l43.37007 0l0 22.897644l-43.37007 0z" fill-rule="evenodd"/><path fill="#595959" d="m113.20697 135.93848l-1.96875 -3.53125l-0.171875 -0.3125l-2.578125 -4.5625l2.078125 0l1.9375 3.5l0.203125 0.34375l2.515625 4.5625l-2.015625 0zm-6.484375 0l4.234375 -4.3125l0.734375 1.15625l-3.015625 3.15625l-1.953125 0zm5.96875 -4.0625l-0.65625 -1.15625l2.734375 -3.1875l1.953125 0l-4.03125 4.34375z" fill-rule="nonzero"/><path fill="#595959" d="m116.44899 141.93848l-0.34375 -0.875l2.28125 -2.5625q0.171875 -0.203125 0.375 -0.453125q0.203125 -0.25 0.375 -0.515625q0.1875 -0.265625 0.296875 -0.515625q0.109375 -0.265625 0.109375 -0.5q0 -0.34375 -0.140625 -0.578125q-0.125 -0.25 -0.375 -0.375q-0.25 -0.125 -0.59375 -0.125q-0.3125 0 -0.609375 0.1875q-0.296875 0.171875 -0.546875 0.5q-0.25 0.328125 -0.390625 0.765625l-0.875 -0.546875q0.171875 -0.625 0.53125 -1.0625q0.375 -0.4375 0.890625 -0.671875q0.53125 -0.234375 1.125 -0.234375q0.640625 0 1.125 0.265625q0.484375 0.25 0.765625 0.71875q0.28125 0.46875 0.28125 1.0625q0 0.25 -0.0625 0.515625q-0.046875 0.25 -0.171875 0.53125q-0.109375 0.265625 -0.296875 0.5625q-0.171875 0.28125 -0.421875 0.609375q-0.25 0.3125 -0.578125 0.671875l-1.6875 1.84375l-0.21875 -0.328125l3.671875 0l0 1.109375l-4.515625 0z" fill-rule="nonzero"/><path fill="#000000" fill-opacity="0.0" d="m189.4567 118.72966l43.37007 0l0 22.897644l-43.37007 0z" fill-rule="evenodd"/><path fill="#595959" d="m210.5615 135.93848l-1.96875 -3.53125l-0.171875 -0.3125l-2.578125 -4.5625l2.078125 0l1.9375 3.5l0.203125 0.34375l2.515625 4.5625l-2.015625 0zm-6.484375 0l4.234375 -4.3125l0.734375 1.15625l-3.015625 3.15625l-1.953125 0zm5.96875 -4.0625l-0.65625 -1.15625l2.734375 -3.1875l1.953125 0l-4.03125 4.34375z" fill-rule="nonzero"/><path fill="#595959" d="m215.49101 142.04785q-0.78125 0 -1.375 -0.359375q-0.578125 -0.375 -1.078125 -1.21875l0.890625 -0.5625q0.265625 0.390625 0.515625 0.640625q0.265625 0.25 0.546875 0.375q0.28125 0.109375 0.59375 0.109375q0.375 0 0.6875 -0.1875q0.3125 -0.1875 0.5 -0.515625q0.203125 -0.328125 0.203125 -0.75q0 -0.40625 -0.15625 -0.703125q-0.140625 -0.296875 -0.4375 -0.453125q-0.28125 -0.15625 -0.671875 -0.15625q-0.1875 0 -0.390625 0.046875q-0.1875 0.03125 -0.421875 0.109375q-0.21875 0.0625 -0.484375 0.171875l-0.3125 -0.84375l2.296875 -2.53125l0.21875 0.328125l-3.171875 0l0 -1.0625l4.28125 0l0.203125 0.421875l-2.4375 2.703125l-0.265625 -0.28125q0.09375 -0.03125 0.28125 -0.0625q0.203125 -0.046875 0.328125 -0.046875q0.46875 0 0.875 0.171875q0.421875 0.171875 0.71875 0.5q0.296875 0.3125 0.46875 0.734375q0.1875 0.40625 0.1875 0.890625q0 0.734375 -0.34375 1.3125q-0.34375 0.5625 -0.9375 0.890625q-0.578125 0.328125 -1.3125 0.328125z" fill-rule="nonzero"/><path fill="#4285f4" d="m306.5712 155.92249l1.9208374 -1.9208527l6.151001 6.151016l6.1510315 -6.151016l1.9208374 1.9208527l-6.1510315 6.151001l6.1510315 6.151016l-1.9208374 1.9208374l-6.1510315 -6.151001l-6.151001 6.151001l-1.9208374 -1.9208374l6.151001 -6.151016z" fill-rule="evenodd"/><path fill="#000000" fill-opacity="0.0" d="m292.958 118.72966l43.370087 0l0 22.897644l-43.370087 0z" fill-rule="evenodd"/><path fill="#595959" d="m313.57794 135.93848l-1.96875 -3.53125l-0.171875 -0.3125l-2.578125 -4.5625l2.078125 0l1.9375 3.5l0.203125 0.34375l2.515625 4.5625l-2.015625 0zm-6.484375 0l4.234375 -4.3125l0.734375 1.15625l-3.015625 3.15625l-1.953125 0zm5.96875 -4.0625l-0.65625 -1.15625l2.734375 -3.1875l1.953125 0l-4.03125 4.34375z" fill-rule="nonzero"/><path fill="#595959" d="m319.58557 141.93848l0 -6.015625l0.265625 0.0625l-2.453125 3.0l-0.03125 -0.125l4.625 0l0 1.046875l-5.34375 0l-0.5 -0.953125l3.65625 -4.46875l0.890625 0l0 7.453125l-1.109375 0z" fill-rule="nonzero"/><path fill="#4285f4" d="m402.0712 155.92249l1.9208374 -1.9208527l6.151001 6.151016l6.1510315 -6.151016l1.9208374 1.9208527l-6.1510315 6.151001l6.1510315 6.151016l-1.9208374 1.9208374l-6.1510315 -6.151001l-6.151001 6.151001l-1.9208374 -1.9208374l6.151001 -6.151016z" fill-rule="evenodd"/><path fill="#000000" fill-opacity="0.0" d="m388.458 118.72966l43.370087 0l0 22.897644l-43.370087 0z" fill-rule="evenodd"/><path fill="#595959" d="m409.355 135.93848l-1.96875 -3.53125l-0.171875 -0.3125l-2.578125 -4.5625l2.078125 0l1.9375 3.5l0.203125 0.34375l2.515625 4.5625l-2.015625 0zm-6.484375 0l4.234375 -4.3125l0.734375 1.15625l-3.015625 3.15625l-1.953125 0zm5.96875 -4.0625l-0.65625 -1.15625l2.734375 -3.1875l1.953125 0l-4.03125 4.34375z" fill-rule="nonzero"/><path fill="#595959" d="m414.34702 142.0166q-0.734375 0 -1.328125 -0.328125q-0.59375 -0.34375 -0.984375 -0.96875l0.640625 -0.71875q0.5 0.546875 0.859375 0.75q0.375 0.203125 0.8125 0.203125q0.4375 0 0.78125 -0.1875q0.359375 -0.1875 0.5625 -0.515625q0.21875 -0.34375 0.21875 -0.734375q0 -0.4375 -0.203125 -0.765625q-0.1875 -0.34375 -0.53125 -0.53125q-0.328125 -0.203125 -0.734375 -0.203125q-0.203125 0 -0.390625 0.03125q-0.171875 0.015625 -0.4375 0.125q-0.25 0.09375 -0.671875 0.296875l-0.609375 -0.828125l0.4375 -3.15625l4.03125 0l0 1.0625l-3.296875 0l0.21875 -0.203125l-0.34375 2.359375l-0.28125 -0.3125q0.109375 -0.09375 0.359375 -0.1875q0.265625 -0.109375 0.578125 -0.171875q0.3125 -0.078125 0.609375 -0.078125q0.671875 0 1.203125 0.3125q0.546875 0.3125 0.859375 0.875q0.3125 0.546875 0.3125 1.265625q0 0.734375 -0.359375 1.328125q-0.34375 0.578125 -0.953125 0.9375q-0.59375 0.34375 -1.359375 0.34375z" fill-rule="nonzero"/><path fill="#4285f4" d="m445.44128 155.92249l1.9208374 -1.9208527l6.151001 6.151016l6.151001 -6.151016l1.9208374 1.9208527l-6.151001 6.151001l6.151001 6.151016l-1.9208374 1.9208374l-6.151001 -6.151001l-6.151001 6.151001l-1.9208374 -1.9208374l6.151001 -6.151016z" fill-rule="evenodd"/><path fill="#000000" fill-opacity="0.0" d="m431.8281 118.72966l43.370056 0l0 22.897644l-43.370056 0z" fill-rule="evenodd"/><path fill="#595959" d="m452.7837 135.93848l-1.96875 -3.53125l-0.171875 -0.3125l-2.578125 -4.5625l2.078125 0l1.9375 3.5l0.203125 0.34375l2.515625 4.5625l-2.015625 0zm-6.484375 0l4.234375 -4.3125l0.734375 1.15625l-3.015625 3.15625l-1.953125 0zm5.96875 -4.0625l-0.65625 -1.15625l2.734375 -3.1875l1.953125 0l-4.03125 4.34375z" fill-rule="nonzero"/><path fill="#595959" d="m458.05698 141.93848q-0.546875 0 -1.03125 -0.1875q-0.46875 -0.203125 -0.8125 -0.546875q-0.34375 -0.359375 -0.546875 -0.84375q-0.203125 -0.484375 -0.203125 -1.046875q0 -0.296875 0.078125 -0.65625q0.09375 -0.359375 0.25 -0.78125q0.171875 -0.421875 0.40625 -0.890625q0.234375 -0.484375 0.53125 -1.0l0.984375 -1.640625l1.109375 0l0.046875 0.109375l-1.171875 1.96875q-0.328125 0.546875 -0.578125 1.046875q-0.25 0.484375 -0.421875 0.921875q-0.171875 0.421875 -0.25 0.78125l-0.25 -1.109375q0.203125 -0.328125 0.4375 -0.578125q0.234375 -0.25 0.5 -0.421875q0.265625 -0.171875 0.5625 -0.25q0.3125 -0.09375 0.625 -0.09375q0.625 0 1.140625 0.34375q0.515625 0.328125 0.828125 0.890625q0.3125 0.546875 0.3125 1.21875q0 0.796875 -0.328125 1.421875q-0.328125 0.625 -0.90625 0.984375q-0.5625 0.359375 -1.3125 0.359375zm0 -1.0625q0.421875 0 0.734375 -0.1875q0.328125 -0.203125 0.515625 -0.5625q0.1875 -0.359375 0.1875 -0.8125q0 -0.40625 -0.1875 -0.75q-0.1875 -0.34375 -0.515625 -0.546875q-0.3125 -0.21875 -0.71875 -0.21875q-0.4375 0 -0.78125 0.203125q-0.328125 0.203125 -0.53125 0.546875q-0.1875 0.328125 -0.1875 0.75q0 0.453125 0.1875 0.8125q0.203125 0.34375 0.53125 0.5625q0.328125 0.203125 0.765625 0.203125z" fill-rule="nonzero"/><path fill="#000000" fill-opacity="0.0" d="m303.68634 188.99344l155.62207 0" fill-rule="evenodd"/><path stroke="#e49e0d" stroke-width="3.0" stroke-linejoin="round" stroke-linecap="butt" d="m303.68634 188.99344l155.62207 0" fill-rule="evenodd"/><path fill="#4285f4" d="m47.420273 155.92249l1.920845 -1.9208527l6.1510086 6.151016l6.1510086 -6.151016l1.9208412 1.9208527l-6.1510086 6.151001l6.1510086 6.151016l-1.9208412 1.9208374l-6.1510086 -6.151001l-6.1510086 6.151001l-1.920845 -1.9208374l6.1510124 -6.151016z" fill-rule="evenodd"/><path fill="#4285f4" d="m105.8166 155.92249l1.920845 -1.9208527l6.1510086 6.151016l6.1510086 -6.151016l1.920845 1.9208527l-6.1510086 6.151001l6.1510086 6.151016l-1.920845 1.9208374l-6.1510086 -6.151001l-6.1510086 6.151001l-1.920845 -1.9208374l6.151016 -6.151016z" fill-rule="evenodd"/><path fill="#000000" fill-opacity="0.0" d="m303.6483 182.521l0 12.850388" fill-rule="evenodd"/><path stroke="#e49e0d" stroke-width="1.0" stroke-linejoin="round" stroke-linecap="butt" d="m303.6483 182.521l0 12.850388" fill-rule="evenodd"/><path fill="#000000" fill-opacity="0.0" d="m375.07217 162.0748l0 0c0 -3.5485382 2.876648 -6.425186 6.4252014 -6.425186l0 0c1.704071 0 3.3383484 0.67692566 4.5433044 1.881897c1.204956 1.204956 1.881897 2.8392181 1.881897 4.543289l0 0c0 3.5485382 -2.8766785 6.4252014 -6.4252014 6.4252014l0 0c-3.5485535 0 -6.4252014 -2.8766632 -6.4252014 -6.4252014z" fill-rule="evenodd"/><path stroke="#ff0000" stroke-width="4.0" stroke-linejoin="round" stroke-linecap="butt" d="m375.07217 162.0748l0 0c0 -3.5485382 2.876648 -6.425186 6.4252014 -6.425186l0 0c1.704071 0 3.3383484 0.67692566 4.5433044 1.881897c1.204956 1.204956 1.881897 2.8392181 1.881897 4.543289l0 0c0 3.5485382 -2.8766785 6.4252014 -6.4252014 6.4252014l0 0c-3.5485535 0 -6.4252014 -2.8766632 -6.4252014 -6.4252014z" fill-rule="evenodd"/><path fill="#000000" fill-opacity="0.0" d="m459.34647 182.56824l0 12.850403" fill-rule="evenodd"/><path stroke="#e49e0d" stroke-width="1.0" stroke-linejoin="round" stroke-linecap="butt" d="m459.34647 182.56824l0 12.850403" fill-rule="evenodd"/><path fill="#000000" fill-opacity="0.0" d="m367.81235 130.35826l27.370056 0l0 22.897644l-27.370056 0z" fill-rule="evenodd"/><path fill="#ff0000" d="m383.18735 147.5671l-1.234375 -2.734375l-0.578125 -1.171875l-2.375 -4.59375l3.0625 0l1.1875 2.609375l0.640625 1.25l2.328125 4.640625l-3.03125 0zm-6.09375 0l4.453125 -4.765625l1.03125 1.640625l-2.453125 3.125l-3.03125 0zm6.40625 -3.703125l-1.015625 -1.625l2.359375 -3.171875l3.03125 0l-4.375 4.796875z" fill-rule="nonzero"/></g></svg>