<?xml version="1.0" encoding="UTF-8"?>
<svg id="Layer_1" data-name="Layer 1" xmlns="http://www.w3.org/2000/svg" viewBox="0 0 510.5 454.51">
  <defs>
    <style>
      .cls-1 {
        fill: #d1d3d4;
        opacity: .7;
      }

      .cls-1, .cls-2, .cls-3, .cls-4, .cls-5 {
        stroke-width: 0px;
      }

      .cls-6 {
        font-size: 30px;
      }

      .cls-6, .cls-7, .cls-8, .cls-2 {
        fill: #16375f;
      }

      .cls-6, .cls-8 {
        font-family: CenturyGothic, 'Century Gothic';
      }

      .cls-9 {
        stroke: #231f20;
        stroke-width: 5px;
      }

      .cls-9, .cls-10 {
        stroke-linecap: round;
        stroke-linejoin: round;
      }

      .cls-9, .cls-10, .cls-11, .cls-12 {
        fill: none;
      }

      .cls-7 {
        font-family: CenturyGothic-Bold, 'Century Gothic';
        font-size: 55px;
        font-weight: 700;
      }

      .cls-10 {
        stroke-width: 3.3px;
      }

      .cls-10, .cls-11 {
        stroke: #f5ba1d;
      }

      .cls-8 {
        font-size: 7px;
      }

      .cls-11 {
        stroke-width: 3.21px;
      }

      .cls-11, .cls-12 {
        stroke-miterlimit: 10;
      }

      .cls-3 {
        fill: #bcbec0;
      }

      .cls-4 {
        fill: #f1f2f2;
      }

      .cls-5 {
        fill: #f5ba1d;
      }

      .cls-12 {
        stroke: #16375f;
        stroke-width: 1.05px;
      }
    </style>
  </defs>
  <path class="cls-4" d="M350.42,0h-194.28c-21.08,0-40.56,11.25-51.1,29.5L7.9,197.75c-10.54,18.26-10.54,40.75,0,59l97.14,168.25c10.54,18.26,30.02,29.5,51.1,29.5h194.28c21.08,0,40.56-11.25,51.1-29.5l97.14-168.25c10.54-18.26,10.54-40.75,0-59L401.52,29.5c-10.54-18.26-30.02-29.5-51.1-29.5Z"/>
  <g>
    <circle class="cls-1" cx="261.92" cy="146.05" r="5.42"/>
    <circle class="cls-1" cx="261.92" cy="174.29" r="6.15"/>
    <circle class="cls-1" cx="244.33" cy="169.41" r="3.57"/>
    <circle class="cls-1" cx="243.9" cy="139.3" r="6.15"/>
    <circle class="cls-1" cx="261.92" cy="134.43" r="4.57"/>
    <circle class="cls-1" cx="259.81" cy="208.59" r="5.42"/>
    <circle class="cls-1" cx="277.95" cy="207.47" r="6.8"/>
    <circle class="cls-1" cx="279.22" cy="153.1" r="6.8"/>
    <circle class="cls-1" cx="246.06" cy="188.03" r="11.92"/>
    <circle class="cls-1" cx="277.95" cy="172.79" r="4.57"/>
    <circle class="cls-1" cx="263.34" cy="159.9" r="6.8"/>
    <circle class="cls-1" cx="244.33" cy="153.1" r="6.15"/>
    <circle class="cls-1" cx="279.22" cy="130.88" r="5.42"/>
    <line class="cls-9" x1="231.31" y1="141.45" x2="288.31" y2="141.45"/>
    <line class="cls-9" x1="231.31" y1="141.45" x2="231.31" y2="208.59"/>
    <line class="cls-9" x1="288.31" y1="141.45" x2="288.31" y2="208.73"/>
    <g>
      <path class="cls-2" d="M344.03,326.78h-168.44c.03-3.17.39-7.42,1.83-12.17,1.96-6.5,4.99-10.85,5.88-12.16,5.47-8.04,23.35-38.53,48.01-81.08v-12.78c3.96-4.91,11.84-5.61,18.31-4.13,6.48,1.49,12.39,4.66,18.9,6,6.57,1.36,13.61.74,19.79-1.72v12.63c24.66,42.55,42.54,73.04,48.01,81.08.89,1.31,3.92,5.66,5.88,12.16,1.44,4.75,1.8,9,1.83,12.17Z"/>
      <g>
        <path class="cls-12" d="M231.31,208.59c3.96-4.91,11.84-5.61,18.31-4.13,6.48,1.49,12.39,4.66,18.9,6,6.57,1.36,13.61.74,19.79-1.72"/>
        <line class="cls-9" x1="231.31" y1="208.59" x2="231.31" y2="221.37"/>
        <line class="cls-9" x1="288.31" y1="208.74" x2="288.31" y2="221.37"/>
        <line class="cls-9" x1="175.59" y1="326.78" x2="344.03" y2="326.78"/>
        <path class="cls-9" d="M231.31,221.37c-24.66,42.55-42.54,73.04-48.01,81.08-.89,1.31-3.92,5.66-5.88,12.16-1.44,4.75-1.8,9-1.83,12.17"/>
        <path class="cls-9" d="M288.31,221.37c24.66,42.55,42.54,73.04,48.01,81.08.89,1.31,3.92,5.66,5.88,12.16,1.44,4.75,1.8,9,1.83,12.17"/>
      </g>
    </g>
    <rect class="cls-3" x="202.83" y="308.38" width="19.19" height="11.25" rx="2.49" ry="2.49"/>
    <rect class="cls-3" x="226.87" y="280.16" width="19.19" height="39.47" rx="4.66" ry="4.66"/>
    <rect class="cls-3" x="250.52" y="258.43" width="19.19" height="61.2" rx="5.8" ry="5.8"/>
    <rect class="cls-3" x="274.76" y="280.16" width="19.19" height="39.47" rx="4.66" ry="4.66"/>
    <rect class="cls-3" x="299.14" y="308.38" width="19.19" height="11.25" rx="2.49" ry="2.49"/>
    <path class="cls-10" d="M330.49,313.53c-3.89-.4-7.76-.89-11.56-1.9-3.82-1.02-7.4-2.51-10.78-4.53-4.59-2.76-8.38-6.41-11.95-10.35-4.72-5.21-8.65-11-12.69-16.71-3.21-4.54-6.32-9.16-10.03-13.33-2.22-2.49-4.55-4.84-7.49-6.55-4.22-2.45-8.29-2.22-12.33.31-3.23,2.02-5.79,4.77-8.18,7.68-4.35,5.29-8.1,11.01-12.06,16.59-4.31,6.08-8.82,12.01-14.33,17.09-5.26,4.84-11.33,8.23-18.29,9.98-3.63.91-7.34,1.39-11.07,1.73"/>
    <circle class="cls-1" cx="231.31" cy="100.15" r="5.42"/>
    <circle class="cls-1" cx="253.28" cy="115.49" r="11.92"/>
    <circle class="cls-1" cx="232.03" cy="126.52" r="6.15"/>
    <circle class="cls-1" cx="262.69" cy="94.73" r="6.15"/>
    <circle class="cls-1" cx="270.14" cy="188.03" r="6.15"/>
    <circle class="cls-1" cx="281.56" cy="100.15" r="6.8"/>
    <circle class="cls-1" cx="276.94" cy="117.22" r="3.57"/>
    <circle class="cls-1" cx="293.73" cy="115.36" r="5.42"/>
    <circle class="cls-1" cx="243.9" cy="91.16" r="3.57"/>
    <circle class="cls-1" cx="232.03" cy="115.36" r="3.57"/>
    <circle class="cls-1" cx="293.73" cy="129.85" r="3.57"/>
    <circle class="cls-1" cx="277.95" cy="86.8" r="3.57"/>
    <circle class="cls-5" cx="166.27" cy="203.16" r="16.31"/>
    <line class="cls-11" x1="166.27" y1="203.16" x2="218.51" y2="257.26"/>
    <circle class="cls-5" cx="218.51" cy="257.26" r="12.8"/>
    <circle class="cls-5" cx="257.98" cy="211.16" r="10.25"/>
    <circle class="cls-5" cx="308.73" cy="153.1" r="16.31"/>
    <circle class="cls-5" cx="359.05" cy="211.16" r="16.31"/>
    <line class="cls-11" x1="218.51" y1="257.26" x2="308.73" y2="154.2"/>
    <line class="cls-11" x1="308.73" y1="153.1" x2="359.05" y2="211.16"/>
  </g>
  <text class="cls-7" transform="translate(67.08 172.67)"><tspan x="0" y="0">PSTAT</tspan></text>
  <text class="cls-7" transform="translate(339.12 286.79)"><tspan x="0" y="0">100</tspan></text>
  <text class="cls-6" transform="translate(151.02 66.92)"><tspan x="0" y="0">DATA SCIENCE</tspan></text>
  <text class="cls-6" transform="translate(136.48 390.08)"><tspan x="0" y="0">CONCEPTS AND</tspan><tspan x="49.38" y="36">ANALYSIS</tspan></text>
  <text class="cls-8" transform="translate(443.55 343.3) rotate(-60)"><tspan x="0" y="0" xml:space="preserve">logo created by  ETHAN P. MARZBAN</tspan></text>
</svg>