<?xml version="1.0" encoding="UTF-8"?>
<svg id="Layer_1" data-name="Layer 1" xmlns="http://www.w3.org/2000/svg" viewBox="0 0 735.45 659.87">
  <defs>
    <style>
      .cls-1 {
        stroke: #16375f;
        stroke-width: 1.52px;
      }

      .cls-1, .cls-2 {
        stroke-miterlimit: 10;
      }

      .cls-1, .cls-2, .cls-3, .cls-4 {
        fill: none;
      }

      .cls-5 {
        fill: #d1d3d4;
        opacity: .7;
      }

      .cls-5, .cls-6, .cls-7, .cls-8, .cls-9 {
        stroke-width: 0px;
      }

      .cls-10 {
        font-family: CenturyGothic-Bold, 'Century Gothic';
        font-size: 91.47px;
        font-weight: 700;
      }

      .cls-10, .cls-11, .cls-12, .cls-6 {
        fill: #16375f;
      }

      .cls-2 {
        stroke-width: 4.67px;
      }

      .cls-2, .cls-3 {
        stroke: #f5ba1d;
      }

      .cls-11 {
        font-size: 36.3px;
      }

      .cls-11, .cls-12 {
        font-family: CenturyGothic, 'Century Gothic';
      }

      .cls-3 {
        stroke-width: 4.79px;
      }

      .cls-3, .cls-4 {
        stroke-linecap: round;
        stroke-linejoin: round;
      }

      .cls-12 {
        font-size: 10.16px;
      }

      .cls-4 {
        stroke: #231f20;
        stroke-width: 7.26px;
      }

      .cls-7 {
        fill: #bcbec0;
      }

      .cls-8 {
        fill: #f1f2f2;
      }

      .cls-9 {
        fill: #f5ba1d;
      }
    </style>
  </defs>
  <path class="cls-8" d="M508.76,0H226.69c-30.6,0-58.88,16.33-74.18,42.83L11.48,287.11c-15.3,26.5-15.3,59.16,0,85.66l141.03,244.28c15.3,26.5,43.58,42.83,74.18,42.83h282.07c30.6,0,58.88-16.33,74.18-42.83l141.03-244.28c15.3-26.5,15.3-59.16,0-85.66l-141.03-244.28c-15.3-26.5-43.58-42.83-74.18-42.83Z"/>
  <g>
    <g>
      <circle class="cls-5" cx="380.1" cy="275.48" r="7.87"/>
      <circle class="cls-5" cx="380.1" cy="316.48" r="8.93"/>
      <circle class="cls-5" cx="354.56" cy="309.4" r="5.18"/>
      <circle class="cls-5" cx="353.93" cy="265.69" r="8.93"/>
      <circle class="cls-5" cx="380.1" cy="258.61" r="6.64"/>
      <circle class="cls-5" cx="377.03" cy="366.28" r="7.87"/>
      <circle class="cls-5" cx="403.37" cy="364.65" r="9.88"/>
      <circle class="cls-5" cx="405.22" cy="285.71" r="9.88"/>
      <circle class="cls-5" cx="357.07" cy="336.43" r="17.31"/>
      <circle class="cls-5" cx="403.37" cy="314.3" r="6.64"/>
      <circle class="cls-5" cx="382.16" cy="295.59" r="9.88"/>
      <circle class="cls-5" cx="354.56" cy="285.71" r="8.93"/>
      <circle class="cls-5" cx="405.22" cy="253.46" r="7.87"/>
      <line class="cls-4" x1="335.65" y1="268.8" x2="418.41" y2="268.8"/>
      <line class="cls-4" x1="335.65" y1="268.8" x2="335.65" y2="366.28"/>
      <line class="cls-4" x1="418.41" y1="268.8" x2="418.41" y2="366.49"/>
      <g>
        <path class="cls-6" d="M499.31,537.87h-244.56c.04-4.6.58-10.76,2.66-17.65,2.86-9.44,7.26-15.75,8.55-17.67,7.93-11.67,33.89-55.94,69.7-117.72v-18.55c5.75-7.13,17.19-8.14,26.58-5.98,9.39,2.15,17.97,6.77,27.43,8.71,9.55,1.96,19.77,1.07,28.75-2.51v18.34c35.8,61.78,61.76,106.04,69.69,117.72,1.29,1.92,5.69,8.23,8.55,17.67,2.08,6.9,2.61,13.05,2.66,17.65Z"/>
        <g>
          <path class="cls-1" d="M335.66,366.27c5.75-7.13,17.19-8.14,26.58-5.98,9.39,2.15,17.97,6.77,27.43,8.71,9.55,1.96,19.77,1.07,28.75-2.51"/>
          <line class="cls-4" x1="335.66" y1="366.27" x2="335.66" y2="384.83"/>
          <line class="cls-4" x1="418.42" y1="366.49" x2="418.42" y2="384.83"/>
          <line class="cls-4" x1="254.75" y1="537.87" x2="499.31" y2="537.87"/>
          <path class="cls-4" d="M335.66,384.83c-35.82,61.78-61.78,106.04-69.7,117.72-1.29,1.92-5.69,8.23-8.55,17.67-2.08,6.9-2.61,13.05-2.66,17.65"/>
          <path class="cls-4" d="M418.42,384.83c35.8,61.78,61.76,106.04,69.69,117.72,1.29,1.92,5.69,8.23,8.55,17.67,2.08,6.9,2.61,13.05,2.66,17.65"/>
        </g>
      </g>
      <rect class="cls-7" x="294.31" y="511.17" width="27.86" height="16.33" rx="3.61" ry="3.61"/>
      <rect class="cls-7" x="329.21" y="470.19" width="27.86" height="57.31" rx="6.77" ry="6.77"/>
      <rect class="cls-7" x="363.55" y="438.64" width="27.86" height="88.85" rx="8.43" ry="8.43"/>
      <rect class="cls-7" x="398.73" y="470.19" width="27.86" height="57.31" rx="6.77" ry="6.77"/>
      <rect class="cls-7" x="434.13" y="511.17" width="27.86" height="16.33" rx="3.61" ry="3.61"/>
      <path class="cls-3" d="M479.65,518.64c-5.65-.59-11.27-1.29-16.78-2.75-5.54-1.47-10.75-3.64-15.65-6.58-6.66-4-12.17-9.31-17.35-15.03-6.85-7.56-12.56-15.97-18.42-24.27-4.66-6.6-9.17-13.3-14.56-19.35-3.22-3.62-6.6-7.03-10.87-9.52-6.12-3.56-12.04-3.22-17.91.46-4.69,2.94-8.4,6.93-11.87,11.15-6.31,7.68-11.77,15.98-17.5,24.08-6.25,8.83-12.8,17.44-20.81,24.81-7.64,7.03-16.45,11.94-26.55,14.49-5.28,1.33-10.66,2.02-16.07,2.52"/>
      <circle class="cls-5" cx="335.65" cy="208.84" r="7.87"/>
      <circle class="cls-5" cx="367.56" cy="231.12" r="17.31"/>
      <circle class="cls-5" cx="336.71" cy="247.12" r="8.93"/>
      <circle class="cls-5" cx="381.21" cy="200.97" r="8.93"/>
      <circle class="cls-5" cx="392.04" cy="336.43" r="8.93"/>
      <circle class="cls-5" cx="408.61" cy="208.84" r="9.88"/>
      <circle class="cls-5" cx="401.91" cy="233.62" r="5.18"/>
      <circle class="cls-5" cx="426.28" cy="230.93" r="7.87"/>
      <circle class="cls-5" cx="353.93" cy="195.79" r="5.18"/>
      <circle class="cls-5" cx="336.71" cy="230.93" r="5.18"/>
      <circle class="cls-5" cx="426.28" cy="251.97" r="5.18"/>
      <circle class="cls-5" cx="403.37" cy="189.46" r="5.18"/>
      <circle class="cls-9" cx="241.24" cy="358.4" r="23.68"/>
      <line class="cls-2" x1="241.24" y1="358.4" x2="317.07" y2="436.94"/>
      <circle class="cls-9" cx="317.07" cy="436.94" r="18.58"/>
      <circle class="cls-9" cx="374.37" cy="370.02" r="14.88"/>
      <circle class="cls-9" cx="448.06" cy="285.71" r="23.68"/>
      <circle class="cls-9" cx="521.12" cy="370.02" r="23.68"/>
      <line class="cls-2" x1="317.07" y1="436.94" x2="448.06" y2="287.32"/>
      <line class="cls-2" x1="448.06" y1="285.71" x2="521.12" y2="370.02"/>
    </g>
    <text class="cls-10" transform="translate(69.77 306.12)"><tspan x="0" y="0">PSTAT</tspan></text>
    <text class="cls-10" transform="translate(492.18 488.36)"><tspan x="0" y="0">100</tspan></text>
  </g>
  <text class="cls-11" transform="translate(239.09 97.05)"><tspan x="0" y="0">DATA SCIENCE</tspan><tspan x="-99.28" y="43.56">CONCEPTS AND ANALYSIS</tspan></text>
  <text class="cls-12" transform="translate(279.18 652.13)"><tspan x="0" y="0" xml:space="preserve">logo created by  ETHAN P. MARZBAN</tspan></text>
</svg>