<svg version="1.1" viewBox="0.0 0.0 561.9553805774278 270.1076115485564" fill="none" stroke="none" stroke-linecap="square" stroke-miterlimit="10" xmlns:xlink="http://www.w3.org/1999/xlink" xmlns="http://www.w3.org/2000/svg"><clipPath id="p.0"><path d="m0 0l561.9554 0l0 270.1076l-561.9554 0l0 -270.1076z" clip-rule="nonzero"/></clipPath><g clip-path="url(#p.0)"><path fill="#000000" fill-opacity="0.0" d="m0 0l561.9554 0l0 270.1076l-561.9554 0z" fill-rule="evenodd"/><path fill="#0097a7" d="m20.825459 53.503937l0 0c0 -4.287815 3.4759636 -7.7637787 7.7637806 -7.7637787l0 0c2.059082 0 4.0338306 0.81796646 5.4898205 2.2739563c1.4559898 1.4559937 2.27396 3.4307404 2.27396 5.4898224l0 0c0 4.287819 -3.4759636 7.7637787 -7.7637806 7.7637787l0 0c-4.287817 0 -7.7637806 -3.4759598 -7.7637806 -7.7637787z" fill-rule="evenodd"/><path fill="#0097a7" d="m64.06956 53.503937l0 0c0 -4.287815 3.4759598 -7.7637787 7.7637787 -7.7637787l0 0c2.059082 0 4.0338287 0.81796646 5.4898224 2.2739563c1.455986 1.4559937 2.2739563 3.4307404 2.2739563 5.4898224l0 0c0 4.287819 -3.4759674 7.7637787 -7.7637787 7.7637787l0 0c-4.287819 0 -7.7637787 -3.4759598 -7.7637787 -7.7637787z" fill-rule="evenodd"/><path fill="#0097a7" d="m107.31365 53.503937l0 0c0 -4.287815 3.4759598 -7.7637787 7.7637787 -7.7637787l0 0c2.059082 0 4.0338287 0.81796646 5.4898148 2.2739563c1.4559937 1.4559937 2.273964 3.4307404 2.273964 5.4898224l0 0c0 4.287819 -3.4759674 7.7637787 -7.7637787 7.7637787l0 0c-4.287819 0 -7.7637787 -3.4759598 -7.7637787 -7.7637787z" fill-rule="evenodd"/><path fill="#0097a7" d="m150.55774 53.503937l0 0c0 -4.287815 3.4759674 -7.7637787 7.7637787 -7.7637787l0 0c2.059082 0 4.0338287 0.81796646 5.4898224 2.2739563c1.4559937 1.4559937 2.2739563 3.4307404 2.2739563 5.4898224l0 0c0 4.287819 -3.4759521 7.7637787 -7.7637787 7.7637787l0 0c-4.2878113 0 -7.7637787 -3.4759598 -7.7637787 -7.7637787z" fill-rule="evenodd"/><path fill="#0097a7" d="m20.825459 79.855644l0 0c0 -4.287819 3.4759636 -7.7637787 7.7637806 -7.7637787l0 0c2.059082 0 4.0338306 0.81796265 5.4898205 2.2739563c1.4559898 1.4559937 2.27396 3.4307404 2.27396 5.4898224l0 0c0 4.287819 -3.4759636 7.7637787 -7.7637806 7.7637787l0 0c-4.287817 0 -7.7637806 -3.4759598 -7.7637806 -7.7637787z" fill-rule="evenodd"/><path fill="#0097a7" d="m64.06956 79.855644l0 0c0 -4.287819 3.4759598 -7.7637787 7.7637787 -7.7637787l0 0c2.059082 0 4.0338287 0.81796265 5.4898224 2.2739563c1.455986 1.4559937 2.2739563 3.4307404 2.2739563 5.4898224l0 0c0 4.287819 -3.4759674 7.7637787 -7.7637787 7.7637787l0 0c-4.287819 0 -7.7637787 -3.4759598 -7.7637787 -7.7637787z" fill-rule="evenodd"/><path fill="#0097a7" d="m107.31365 79.855644l0 0c0 -4.287819 3.4759598 -7.7637787 7.7637787 -7.7637787l0 0c2.059082 0 4.0338287 0.81796265 5.4898148 2.2739563c1.4559937 1.4559937 2.273964 3.4307404 2.273964 5.4898224l0 0c0 4.287819 -3.4759674 7.7637787 -7.7637787 7.7637787l0 0c-4.287819 0 -7.7637787 -3.4759598 -7.7637787 -7.7637787z" fill-rule="evenodd"/><path fill="#0097a7" d="m150.55774 79.855644l0 0c0 -4.287819 3.4759674 -7.7637787 7.7637787 -7.7637787l0 0c2.059082 0 4.0338287 0.81796265 5.4898224 2.2739563c1.4559937 1.4559937 2.2739563 3.4307404 2.2739563 5.4898224l0 0c0 4.287819 -3.4759521 7.7637787 -7.7637787 7.7637787l0 0c-4.2878113 0 -7.7637787 -3.4759598 -7.7637787 -7.7637787z" fill-rule="evenodd"/><path fill="#0097a7" d="m20.825459 106.20735l0 0c0 -4.287819 3.4759636 -7.7637787 7.7637806 -7.7637787l0 0c2.059082 0 4.0338306 0.81796265 5.4898205 2.2739563c1.4559898 1.455986 2.27396 3.4307404 2.27396 5.4898224l0 0c0 4.2878113 -3.4759636 7.7637787 -7.7637806 7.7637787l0 0c-4.287817 0 -7.7637806 -3.4759674 -7.7637806 -7.7637787z" fill-rule="evenodd"/><path fill="#0097a7" d="m64.06956 106.20735l0 0c0 -4.287819 3.4759598 -7.7637787 7.7637787 -7.7637787l0 0c2.059082 0 4.0338287 0.81796265 5.4898224 2.2739563c1.455986 1.455986 2.2739563 3.4307404 2.2739563 5.4898224l0 0c0 4.2878113 -3.4759674 7.7637787 -7.7637787 7.7637787l0 0c-4.287819 0 -7.7637787 -3.4759674 -7.7637787 -7.7637787z" fill-rule="evenodd"/><path fill="#0097a7" d="m107.31365 106.20735l0 0c0 -4.287819 3.4759598 -7.7637787 7.7637787 -7.7637787l0 0c2.059082 0 4.0338287 0.81796265 5.4898148 2.2739563c1.4559937 1.455986 2.273964 3.4307404 2.273964 5.4898224l0 0c0 4.2878113 -3.4759674 7.7637787 -7.7637787 7.7637787l0 0c-4.287819 0 -7.7637787 -3.4759674 -7.7637787 -7.7637787z" fill-rule="evenodd"/><path fill="#0097a7" d="m150.55774 106.20735l0 0c0 -4.287819 3.4759674 -7.7637787 7.7637787 -7.7637787l0 0c2.059082 0 4.0338287 0.81796265 5.4898224 2.2739563c1.4559937 1.455986 2.2739563 3.4307404 2.2739563 5.4898224l0 0c0 4.2878113 -3.4759521 7.7637787 -7.7637787 7.7637787l0 0c-4.2878113 0 -7.7637787 -3.4759674 -7.7637787 -7.7637787z" fill-rule="evenodd"/><path fill="#0097a7" d="m20.825459 132.55905l0 0c0 -4.2878113 3.4759636 -7.7637787 7.7637806 -7.7637787l0 0c2.059082 0 4.0338306 0.8179703 5.4898205 2.273964c1.4559898 1.455986 2.27396 3.4307327 2.27396 5.4898148l0 0c0 4.2878265 -3.4759636 7.7637787 -7.7637806 7.7637787l0 0c-4.287817 0 -7.7637806 -3.4759521 -7.7637806 -7.7637787z" fill-rule="evenodd"/><path fill="#0097a7" d="m64.06956 132.55905l0 0c0 -4.2878113 3.4759598 -7.7637787 7.7637787 -7.7637787l0 0c2.059082 0 4.0338287 0.8179703 5.4898224 2.273964c1.455986 1.455986 2.2739563 3.4307327 2.2739563 5.4898148l0 0c0 4.2878265 -3.4759674 7.7637787 -7.7637787 7.7637787l0 0c-4.287819 0 -7.7637787 -3.4759521 -7.7637787 -7.7637787z" fill-rule="evenodd"/><path fill="#0097a7" d="m107.31365 132.55905l0 0c0 -4.2878113 3.4759598 -7.7637787 7.7637787 -7.7637787l0 0c2.059082 0 4.0338287 0.8179703 5.4898148 2.273964c1.4559937 1.455986 2.273964 3.4307327 2.273964 5.4898148l0 0c0 4.2878265 -3.4759674 7.7637787 -7.7637787 7.7637787l0 0c-4.287819 0 -7.7637787 -3.4759521 -7.7637787 -7.7637787z" fill-rule="evenodd"/><path fill="#0097a7" d="m150.55774 132.55905l0 0c0 -4.2878113 3.4759674 -7.7637787 7.7637787 -7.7637787l0 0c2.059082 0 4.0338287 0.8179703 5.4898224 2.273964c1.4559937 1.455986 2.2739563 3.4307327 2.2739563 5.4898148l0 0c0 4.2878265 -3.4759521 7.7637787 -7.7637787 7.7637787l0 0c-4.2878113 0 -7.7637787 -3.4759521 -7.7637787 -7.7637787z" fill-rule="evenodd"/><path fill="#0097a7" d="m20.825459 158.91077l0 0c0 -4.2878265 3.4759636 -7.7637787 7.7637806 -7.7637787l0 0c2.059082 0 4.0338306 0.81796265 5.4898205 2.2739563c1.4559898 1.4559937 2.27396 3.4307404 2.27396 5.4898224l0 0c0 4.2878113 -3.4759636 7.7637787 -7.7637806 7.7637787l0 0c-4.287817 0 -7.7637806 -3.4759674 -7.7637806 -7.7637787z" fill-rule="evenodd"/><path fill="#0097a7" d="m64.06956 158.91077l0 0c0 -4.2878265 3.4759598 -7.7637787 7.7637787 -7.7637787l0 0c2.059082 0 4.0338287 0.81796265 5.4898224 2.2739563c1.455986 1.4559937 2.2739563 3.4307404 2.2739563 5.4898224l0 0c0 4.2878113 -3.4759674 7.7637787 -7.7637787 7.7637787l0 0c-4.287819 0 -7.7637787 -3.4759674 -7.7637787 -7.7637787z" fill-rule="evenodd"/><path fill="#0097a7" d="m107.31365 158.91077l0 0c0 -4.2878265 3.4759598 -7.7637787 7.7637787 -7.7637787l0 0c2.059082 0 4.0338287 0.81796265 5.4898148 2.2739563c1.4559937 1.4559937 2.273964 3.4307404 2.273964 5.4898224l0 0c0 4.2878113 -3.4759674 7.7637787 -7.7637787 7.7637787l0 0c-4.287819 0 -7.7637787 -3.4759674 -7.7637787 -7.7637787z" fill-rule="evenodd"/><path fill="#0097a7" d="m150.55774 158.91077l0 0c0 -4.2878265 3.4759674 -7.7637787 7.7637787 -7.7637787l0 0c2.059082 0 4.0338287 0.81796265 5.4898224 2.2739563c1.4559937 1.4559937 2.2739563 3.4307404 2.2739563 5.4898224l0 0c0 4.2878113 -3.4759521 7.7637787 -7.7637787 7.7637787l0 0c-4.2878113 0 -7.7637787 -3.4759674 -7.7637787 -7.7637787z" fill-rule="evenodd"/><path fill="#0097a7" d="m20.825459 185.26247l0 0c0 -4.2878113 3.4759636 -7.7637787 7.7637806 -7.7637787l0 0c2.059082 0 4.0338306 0.81796265 5.4898205 2.2739563c1.4559898 1.4559937 2.27396 3.4307404 2.27396 5.4898224l0 0c0 4.2878113 -3.4759636 7.7637787 -7.7637806 7.7637787l0 0c-4.287817 0 -7.7637806 -3.4759674 -7.7637806 -7.7637787z" fill-rule="evenodd"/><path fill="#0097a7" d="m64.06956 185.26247l0 0c0 -4.2878113 3.4759598 -7.7637787 7.7637787 -7.7637787l0 0c2.059082 0 4.0338287 0.81796265 5.4898224 2.2739563c1.455986 1.4559937 2.2739563 3.4307404 2.2739563 5.4898224l0 0c0 4.2878113 -3.4759674 7.7637787 -7.7637787 7.7637787l0 0c-4.287819 0 -7.7637787 -3.4759674 -7.7637787 -7.7637787z" fill-rule="evenodd"/><path fill="#0097a7" d="m107.31365 185.26247l0 0c0 -4.2878113 3.4759598 -7.7637787 7.7637787 -7.7637787l0 0c2.059082 0 4.0338287 0.81796265 5.4898148 2.2739563c1.4559937 1.4559937 2.273964 3.4307404 2.273964 5.4898224l0 0c0 4.2878113 -3.4759674 7.7637787 -7.7637787 7.7637787l0 0c-4.287819 0 -7.7637787 -3.4759674 -7.7637787 -7.7637787z" fill-rule="evenodd"/><path fill="#0097a7" d="m150.55774 185.26247l0 0c0 -4.2878113 3.4759674 -7.7637787 7.7637787 -7.7637787l0 0c2.059082 0 4.0338287 0.81796265 5.4898224 2.2739563c1.4559937 1.4559937 2.2739563 3.4307404 2.2739563 5.4898224l0 0c0 4.2878113 -3.4759521 7.7637787 -7.7637787 7.7637787l0 0c-4.2878113 0 -7.7637787 -3.4759674 -7.7637787 -7.7637787z" fill-rule="evenodd"/><path fill="#000000" fill-opacity="0.0" d="m10.691601 196.39633l0 0c-4.105171 0 -7.4330707 -0.27731323 -7.4330707 -0.6194l0 -154.8242l0 0c0 -0.16427612 0.7831249 -0.32182312 2.177096 -0.43798065c1.3939714 -0.11616135 3.2846022 -0.18141937 5.255975 -0.18141937z" fill-rule="evenodd"/><path fill="#000000" fill-opacity="0.0" d="m10.691601 196.39633l0 0c-4.105171 0 -7.4330707 -0.27731323 -7.4330707 -0.6194l0 -154.8242l0 0c0 -0.16427612 0.7831249 -0.32182312 2.177096 -0.43798065c1.3939714 -0.11616135 3.2846022 -0.18141937 5.255975 -0.18141937" fill-rule="evenodd"/><path stroke="#595959" stroke-width="2.0" stroke-linejoin="round" stroke-linecap="butt" d="m10.691601 196.39633l0 0c-4.105171 0 -7.4330707 -0.27731323 -7.4330707 -0.6194l0 -154.8242l0 0c0 -0.16427612 0.7831249 -0.32182312 2.177096 -0.43798065c1.3939714 -0.11616135 3.2846022 -0.18141937 5.255975 -0.18141937" fill-rule="evenodd"/><path fill="#000000" fill-opacity="0.0" d="m173.52756 40.333332l0 0c4.105179 0 7.433075 0.27731323 7.433075 0.6194l0 154.8242l0 0c0 0.16427612 -0.78312683 0.32182312 -2.1770935 0.43797302c-1.3939819 0.11616516 -3.284607 0.181427 -5.2559814 0.181427z" fill-rule="evenodd"/><path fill="#000000" fill-opacity="0.0" d="m173.52756 40.333332l0 0c4.105179 0 7.433075 0.27731323 7.433075 0.6194l0 154.8242l0 0c0 0.16427612 -0.78312683 0.32182312 -2.1770935 0.43797302c-1.3939819 0.11616516 -3.284607 0.181427 -5.2559814 0.181427" fill-rule="evenodd"/><path stroke="#595959" stroke-width="2.0" stroke-linejoin="round" stroke-linecap="butt" d="m173.52756 40.333332l0 0c4.105179 0 7.433075 0.27731323 7.433075 0.6194l0 154.8242l0 0c0 0.16427612 -0.78312683 0.32182312 -2.1770935 0.43797302c-1.3939819 0.11616516 -3.284607 0.181427 -5.2559814 0.181427" fill-rule="evenodd"/><path fill="#ffab40" d="m245.1483 78.83727l0 0c0 -4.287819 3.4759521 -7.7637787 7.7637787 -7.7637787l0 0c2.059082 0 4.0338135 0.81796265 5.489807 2.2739563c1.4559937 1.4559937 2.2739563 3.4307404 2.2739563 5.4898224l0 0c0 4.2878113 -3.4759521 7.7637787 -7.7637634 7.7637787l0 0c-4.2878265 0 -7.7637787 -3.4759674 -7.7637787 -7.7637787z" fill-rule="evenodd"/><path fill="#ffab40" d="m288.3924 78.83727l0 0c0 -4.287819 3.4759521 -7.7637787 7.7637634 -7.7637787l0 0c2.059082 0 4.033844 0.81796265 5.4898376 2.2739563c1.4559937 1.4559937 2.2739563 3.4307404 2.2739563 5.4898224l0 0c0 4.2878113 -3.4759521 7.7637787 -7.763794 7.7637787l0 0c-4.2878113 0 -7.7637634 -3.4759674 -7.7637634 -7.7637787z" fill-rule="evenodd"/><path fill="#ffab40" d="m245.1483 105.18898l0 0c0 -4.287819 3.4759521 -7.7637863 7.7637787 -7.7637863l0 0c2.059082 0 4.0338135 0.8179703 5.489807 2.273964c1.4559937 1.455986 2.2739563 3.4307327 2.2739563 5.4898224l0 0c0 4.2878113 -3.4759521 7.7637787 -7.7637634 7.7637787l0 0c-4.2878265 0 -7.7637787 -3.4759674 -7.7637787 -7.7637787z" fill-rule="evenodd"/><path fill="#ffab40" d="m288.3924 105.18898l0 0c0 -4.287819 3.4759521 -7.7637863 7.7637634 -7.7637863l0 0c2.059082 0 4.033844 0.8179703 5.4898376 2.273964c1.4559937 1.455986 2.2739563 3.4307327 2.2739563 5.4898224l0 0c0 4.2878113 -3.4759521 7.7637787 -7.763794 7.7637787l0 0c-4.2878113 0 -7.7637634 -3.4759674 -7.7637634 -7.7637787z" fill-rule="evenodd"/><path fill="#ffab40" d="m245.1483 131.54068l0 0c0 -4.2878113 3.4759521 -7.7637787 7.7637787 -7.7637787l0 0c2.059082 0 4.0338135 0.8179703 5.489807 2.2739563c1.4559937 1.4559937 2.2739563 3.4307404 2.2739563 5.4898224l0 0c0 4.2878265 -3.4759521 7.7637787 -7.7637634 7.7637787l0 0c-4.2878265 0 -7.7637787 -3.4759521 -7.7637787 -7.7637787z" fill-rule="evenodd"/><path fill="#ffab40" d="m288.3924 131.54068l0 0c0 -4.2878113 3.4759521 -7.7637787 7.7637634 -7.7637787l0 0c2.059082 0 4.033844 0.8179703 5.4898376 2.2739563c1.4559937 1.4559937 2.2739563 3.4307404 2.2739563 5.4898224l0 0c0 4.2878265 -3.4759521 7.7637787 -7.763794 7.7637787l0 0c-4.2878113 0 -7.7637634 -3.4759521 -7.7637634 -7.7637787z" fill-rule="evenodd"/><path fill="#ffab40" d="m245.1483 157.8924l0 0c0 -4.2878265 3.4759521 -7.7637787 7.7637787 -7.7637787l0 0c2.059082 0 4.0338135 0.81796265 5.489807 2.2739563c1.4559937 1.4559784 2.2739563 3.4307404 2.2739563 5.4898224l0 0c0 4.2878113 -3.4759521 7.7637787 -7.7637634 7.7637787l0 0c-4.2878265 0 -7.7637787 -3.4759674 -7.7637787 -7.7637787z" fill-rule="evenodd"/><path fill="#ffab40" d="m288.3924 157.8924l0 0c0 -4.2878265 3.4759521 -7.7637787 7.7637634 -7.7637787l0 0c2.059082 0 4.033844 0.81796265 5.4898376 2.2739563c1.4559937 1.4559784 2.2739563 3.4307404 2.2739563 5.4898224l0 0c0 4.2878113 -3.4759521 7.7637787 -7.763794 7.7637787l0 0c-4.2878113 0 -7.7637634 -3.4759674 -7.7637634 -7.7637787z" fill-rule="evenodd"/><path fill="#000000" fill-opacity="0.0" d="m238.3937 168.34908l0 0c-4.105179 0 -7.433075 -0.27731323 -7.433075 -0.61938477l0 -98.72971l0 0c0 -0.16427612 0.78312683 -0.32182312 2.1770935 -0.43798065c1.3939667 -0.11615753 3.284607 -0.18141937 5.2559814 -0.18141937z" fill-rule="evenodd"/><path fill="#000000" fill-opacity="0.0" d="m238.3937 168.34908l0 0c-4.105179 0 -7.433075 -0.27731323 -7.433075 -0.61938477l0 -98.72971l0 0c0 -0.16427612 0.78312683 -0.32182312 2.1770935 -0.43798065c1.3939667 -0.11615753 3.284607 -0.18141937 5.2559814 -0.18141937" fill-rule="evenodd"/><path stroke="#595959" stroke-width="2.0" stroke-linejoin="round" stroke-linecap="butt" d="m238.3937 168.34908l0 0c-4.105179 0 -7.433075 -0.27731323 -7.433075 -0.61938477l0 -98.72971l0 0c0 -0.16427612 0.78312683 -0.32182312 2.1770935 -0.43798065c1.3939667 -0.11615753 3.284607 -0.18141937 5.2559814 -0.18141937" fill-rule="evenodd"/><path fill="#000000" fill-opacity="0.0" d="m310.02887 68.38058l0 0c4.1051636 0 7.433075 0.27731323 7.433075 0.6194l0 98.72971l0 0c0 0.16426086 -0.7831421 0.32180786 -2.1770935 0.43797302c-1.3939819 0.11616516 -3.284607 0.18141174 -5.2559814 0.18141174z" fill-rule="evenodd"/><path fill="#000000" fill-opacity="0.0" d="m310.02887 68.38058l0 0c4.1051636 0 7.433075 0.27731323 7.433075 0.6194l0 98.72971l0 0c0 0.16426086 -0.7831421 0.32180786 -2.1770935 0.43797302c-1.3939819 0.11616516 -3.284607 0.18141174 -5.2559814 0.18141174" fill-rule="evenodd"/><path stroke="#595959" stroke-width="2.0" stroke-linejoin="round" stroke-linecap="butt" d="m310.02887 68.38058l0 0c4.1051636 0 7.433075 0.27731323 7.433075 0.6194l0 98.72971l0 0c0 0.16426086 -0.7831421 0.32180786 -2.1770935 0.43797302c-1.3939819 0.11616516 -3.284607 0.18141174 -5.2559814 0.18141174" fill-rule="evenodd"/><path fill="#990055" d="m384.38452 53.503937l0 0c0 -4.287815 3.4759521 -7.7637787 7.7637634 -7.7637787l0 0c2.059082 0 4.033844 0.81796646 5.4898376 2.2739563c1.4559937 1.4559937 2.2739563 3.4307404 2.2739563 5.4898224l0 0c0 4.287819 -3.4759827 7.7637787 -7.763794 7.7637787l0 0c-4.2878113 0 -7.7637634 -3.4759598 -7.7637634 -7.7637787z" fill-rule="evenodd"/><path fill="#990055" d="m427.6286 53.503937l0 0c0 -4.287815 3.4759827 -7.7637787 7.763794 -7.7637787l0 0c2.059082 0 4.0338135 0.81796646 5.489807 2.2739563c1.4559937 1.4559937 2.2739563 3.4307404 2.2739563 5.4898224l0 0c0 4.287819 -3.4759521 7.7637787 -7.7637634 7.7637787l0 0c-4.2878113 0 -7.763794 -3.4759598 -7.763794 -7.7637787z" fill-rule="evenodd"/><path fill="#990055" d="m384.38452 79.855644l0 0c0 -4.287819 3.4759521 -7.7637787 7.7637634 -7.7637787l0 0c2.059082 0 4.033844 0.81796265 5.4898376 2.2739563c1.4559937 1.4559937 2.2739563 3.4307404 2.2739563 5.4898224l0 0c0 4.287819 -3.4759827 7.7637787 -7.763794 7.7637787l0 0c-4.2878113 0 -7.7637634 -3.4759598 -7.7637634 -7.7637787z" fill-rule="evenodd"/><path fill="#990055" d="m427.6286 79.855644l0 0c0 -4.287819 3.4759827 -7.7637787 7.763794 -7.7637787l0 0c2.059082 0 4.0338135 0.81796265 5.489807 2.2739563c1.4559937 1.4559937 2.2739563 3.4307404 2.2739563 5.4898224l0 0c0 4.287819 -3.4759521 7.7637787 -7.7637634 7.7637787l0 0c-4.2878113 0 -7.763794 -3.4759598 -7.763794 -7.7637787z" fill-rule="evenodd"/><path fill="#990055" d="m384.38452 106.20735l0 0c0 -4.287819 3.4759521 -7.7637787 7.7637634 -7.7637787l0 0c2.059082 0 4.033844 0.81796265 5.4898376 2.2739563c1.4559937 1.455986 2.2739563 3.4307404 2.2739563 5.4898224l0 0c0 4.2878113 -3.4759827 7.7637787 -7.763794 7.7637787l0 0c-4.2878113 0 -7.7637634 -3.4759674 -7.7637634 -7.7637787z" fill-rule="evenodd"/><path fill="#990055" d="m427.6286 106.20735l0 0c0 -4.287819 3.4759827 -7.7637787 7.763794 -7.7637787l0 0c2.059082 0 4.0338135 0.81796265 5.489807 2.2739563c1.4559937 1.455986 2.2739563 3.4307404 2.2739563 5.4898224l0 0c0 4.2878113 -3.4759521 7.7637787 -7.7637634 7.7637787l0 0c-4.2878113 0 -7.763794 -3.4759674 -7.763794 -7.7637787z" fill-rule="evenodd"/><path fill="#990055" d="m384.38452 132.55905l0 0c0 -4.2878113 3.4759521 -7.7637787 7.7637634 -7.7637787l0 0c2.059082 0 4.033844 0.8179703 5.4898376 2.273964c1.4559937 1.455986 2.2739563 3.4307327 2.2739563 5.4898148l0 0c0 4.2878265 -3.4759827 7.7637787 -7.763794 7.7637787l0 0c-4.2878113 0 -7.7637634 -3.4759521 -7.7637634 -7.7637787z" fill-rule="evenodd"/><path fill="#990055" d="m427.6286 132.55905l0 0c0 -4.2878113 3.4759827 -7.7637787 7.763794 -7.7637787l0 0c2.059082 0 4.0338135 0.8179703 5.489807 2.273964c1.4559937 1.455986 2.2739563 3.4307327 2.2739563 5.4898148l0 0c0 4.2878265 -3.4759521 7.7637787 -7.7637634 7.7637787l0 0c-4.2878113 0 -7.763794 -3.4759521 -7.763794 -7.7637787z" fill-rule="evenodd"/><path fill="#990055" d="m384.38452 158.91077l0 0c0 -4.2878265 3.4759521 -7.7637787 7.7637634 -7.7637787l0 0c2.059082 0 4.033844 0.81796265 5.4898376 2.2739563c1.4559937 1.4559937 2.2739563 3.4307404 2.2739563 5.4898224l0 0c0 4.2878113 -3.4759827 7.7637787 -7.763794 7.7637787l0 0c-4.2878113 0 -7.7637634 -3.4759674 -7.7637634 -7.7637787z" fill-rule="evenodd"/><path fill="#990055" d="m427.6286 158.91077l0 0c0 -4.2878265 3.4759827 -7.7637787 7.763794 -7.7637787l0 0c2.059082 0 4.0338135 0.81796265 5.489807 2.2739563c1.4559937 1.4559937 2.2739563 3.4307404 2.2739563 5.4898224l0 0c0 4.2878113 -3.4759521 7.7637787 -7.7637634 7.7637787l0 0c-4.2878113 0 -7.763794 -3.4759674 -7.763794 -7.7637787z" fill-rule="evenodd"/><path fill="#990055" d="m384.38452 185.26247l0 0c0 -4.2878113 3.4759521 -7.7637787 7.7637634 -7.7637787l0 0c2.059082 0 4.033844 0.81796265 5.4898376 2.2739563c1.4559937 1.4559937 2.2739563 3.4307404 2.2739563 5.4898224l0 0c0 4.2878113 -3.4759827 7.7637787 -7.763794 7.7637787l0 0c-4.2878113 0 -7.7637634 -3.4759674 -7.7637634 -7.7637787z" fill-rule="evenodd"/><path fill="#990055" d="m427.6286 185.26247l0 0c0 -4.2878113 3.4759827 -7.7637787 7.763794 -7.7637787l0 0c2.059082 0 4.0338135 0.81796265 5.489807 2.2739563c1.4559937 1.4559937 2.2739563 3.4307404 2.2739563 5.4898224l0 0c0 4.2878113 -3.4759521 7.7637787 -7.7637634 7.7637787l0 0c-4.2878113 0 -7.763794 -3.4759674 -7.763794 -7.7637787z" fill-rule="evenodd"/><path fill="#000000" fill-opacity="0.0" d="m374.25067 196.39633l0 0c-4.105194 0 -7.433075 -0.27731323 -7.433075 -0.6194l0 -154.8242l0 0c0 -0.16427612 0.7831116 -0.32182312 2.1770935 -0.43798065c1.3939514 -0.11616135 3.284607 -0.18141937 5.2559814 -0.18141937z" fill-rule="evenodd"/><path fill="#000000" fill-opacity="0.0" d="m374.25067 196.39633l0 0c-4.105194 0 -7.433075 -0.27731323 -7.433075 -0.6194l0 -154.8242l0 0c0 -0.16427612 0.7831116 -0.32182312 2.1770935 -0.43798065c1.3939514 -0.11616135 3.284607 -0.18141937 5.2559814 -0.18141937" fill-rule="evenodd"/><path stroke="#595959" stroke-width="2.0" stroke-linejoin="round" stroke-linecap="butt" d="m374.25067 196.39633l0 0c-4.105194 0 -7.433075 -0.27731323 -7.433075 -0.6194l0 -154.8242l0 0c0 -0.16427612 0.7831116 -0.32182312 2.1770935 -0.43798065c1.3939514 -0.11616135 3.284607 -0.18141937 5.2559814 -0.18141937" fill-rule="evenodd"/><path fill="#000000" fill-opacity="0.0" d="m454.65616 40.333332l0 0c4.105194 0 7.433075 0.27731323 7.433075 0.6194l0 154.8242l0 0c0 0.16427612 -0.7831116 0.32182312 -2.1770935 0.43797302c-1.3939819 0.11616516 -3.284607 0.181427 -5.2559814 0.181427z" fill-rule="evenodd"/><path fill="#000000" fill-opacity="0.0" d="m454.65616 40.333332l0 0c4.105194 0 7.433075 0.27731323 7.433075 0.6194l0 154.8242l0 0c0 0.16427612 -0.7831116 0.32182312 -2.1770935 0.43797302c-1.3939819 0.11616516 -3.284607 0.181427 -5.2559814 0.181427" fill-rule="evenodd"/><path stroke="#595959" stroke-width="2.0" stroke-linejoin="round" stroke-linecap="butt" d="m454.65616 40.333332l0 0c4.105194 0 7.433075 0.27731323 7.433075 0.6194l0 154.8242l0 0c0 0.16427612 -0.7831116 0.32182312 -2.1770935 0.43797302c-1.3939819 0.11616516 -3.284607 0.181427 -5.2559814 0.181427" fill-rule="evenodd"/><path fill="#000000" fill-opacity="0.0" d="m188.40552 102.34908l26.45668 0l0 32.0315l-26.45668 0z" fill-rule="evenodd"/><path fill="#595959" d="m205.2649 125.08483l-3.171875 -4.125l-0.28125 -0.359375l-4.125 -5.3125l2.421875 0l3.125 4.0625l0.3125 0.421875l4.0625 5.3125l-2.34375 0zm-7.5625 0l3.859375 -5.03125l1.140625 1.359375l-2.71875 3.671875l-2.28125 0zm5.953125 -4.734375l-1.0625 -1.34375l2.40625 -3.71875l2.28125 0l-3.625 5.0625z" fill-rule="nonzero"/><path fill="#000000" fill-opacity="0.0" d="m335.29398 102.34908l26.456696 0l0 32.0315l-26.456696 0z" fill-rule="evenodd"/><path fill="#595959" d="m345.23148 118.91296l0 -1.6875l8.6875 0l0 1.6875l-8.6875 0zm0 3.515625l0 -1.65625l8.6875 0l0 1.65625l-8.6875 0z" fill-rule="nonzero"/><path fill="#000000" fill-opacity="0.0" d="m46.451443 2.7020998l92.40944 0l0 32.031498l-92.40944 0z" fill-rule="evenodd"/><path fill="#595959" d="m70.51645 28.906597q-2.265625 -1.421875 -3.46875 -3.546875q-1.1875 -2.125 -1.1875 -4.734375q0 -2.59375 1.203125 -4.718749q1.203125 -2.140625 3.46875 -3.5625l1.03125 1.15625q-1.90625 1.328125 -2.90625 3.171874q-0.984375 1.828125 -0.984375 3.953125q0 2.125 0.984375 3.96875q1.0 1.828125 2.90625 3.15625l-1.046875 1.15625zm6.703186 -3.46875q-0.96875 0 -1.796875 -0.34375q-0.828125 -0.34375 -1.4375 -0.953125q-0.609375 -0.625 -0.953125 -1.453125q-0.34375 -0.84375 -0.34375 -1.859375q0 -0.5 0.140625 -1.125q0.140625 -0.625 0.421875 -1.375q0.296875 -0.75 0.703125 -1.578125q0.40625 -0.82812405 0.953125 -1.718749l1.703125 -2.875l1.953125 0l0.078125 0.1875l-2.0625 3.453125q-0.5625 0.95312405 -1.0 1.812499q-0.4375 0.84375 -0.734375 1.609375q-0.296875 0.75 -0.4375 1.375l-0.453125 -1.921875q0.359375 -0.578125 0.765625 -1.015625q0.40625 -0.453125 0.875 -0.75q0.484375 -0.296875 1.0 -0.4375q0.53125 -0.15625 1.09375 -0.15625q1.078125 0 1.984375 0.59375q0.90625 0.578125 1.453125 1.5625q0.546875 0.96875 0.546875 2.125q0 1.390625 -0.578125 2.484375q-0.5625 1.09375 -1.578125 1.734375q-1.0 0.625 -2.296875 0.625zm0 -1.859375q0.71875 0 1.28125 -0.34375q0.578125 -0.359375 0.90625 -0.984375q0.328125 -0.625 0.328125 -1.421875q0 -0.6875 -0.34375 -1.296875q-0.328125 -0.609375 -0.890625 -0.96875q-0.5625 -0.375 -1.25 -0.375q-0.765625 0 -1.359375 0.359375q-0.59375 0.34375 -0.9375 0.9375q-0.328125 0.59375 -0.328125 1.328125q0 0.78125 0.328125 1.40625q0.34375 0.625 0.921875 1.0q0.578125 0.359375 1.34375 0.359375zm17.521545 0.40625l-6.53125 -6.5l1.1875 -1.109375l6.53125 6.5l-1.1875 1.109375zm-5.359375 0.125l-1.09375 -1.203125l6.484375 -6.53125l1.125 1.1875l-6.515625 6.546875zm18.987762 1.328125l0 -10.515624l0.46875 0.109375l-4.28125 5.234374l-0.078125 -0.21875l8.109375 0l0 1.84375l-9.359375 0l-0.859375 -1.671875l6.390625 -7.843749l1.546875 0l0 13.062499l-1.9375 0zm6.4106293 3.46875l-1.03125 -1.15625q1.90625 -1.328125 2.890625 -3.15625q1.0 -1.84375 1.0 -3.96875q0 -2.125 -1.0 -3.953125q-0.984375 -1.843749 -2.890625 -3.171874l1.046875 -1.15625q2.265625 1.421875 3.453125 3.546875q1.203125 2.124999 1.203125 4.734374q0 2.59375 -1.203125 4.734375q-1.203125 2.125 -3.46875 3.546875z" fill-rule="nonzero"/><path fill="#000000" fill-opacity="0.0" d="m227.68373 28.543306l92.40944 0l0 32.031494l-92.40944 0z" fill-rule="evenodd"/><path fill="#595959" d="m251.83269 54.747807q-2.265625 -1.421875 -3.46875 -3.546875q-1.1875 -2.125 -1.1875 -4.734375q0 -2.59375 1.203125 -4.71875q1.203125 -2.140625 3.46875 -3.5625l1.03125 1.15625q-1.90625 1.328125 -2.90625 3.171875q-0.984375 1.828125 -0.984375 3.953125q0 2.125 0.984375 3.96875q1.0 1.828125 2.90625 3.15625l-1.046875 1.15625zm7.984421 -3.46875l0 -10.515625l0.46875 0.109375l-4.28125 5.234375l-0.07810974 -0.21875l8.10936 0l0 1.84375l-9.35936 0l-0.859375 -1.671875l6.3906097 -7.84375l1.546875 0l0 13.0625l-1.9375 0zm17.41565 -1.453125l-6.53125 -6.5l1.1875 -1.109375l6.53125 6.5l-1.1875 1.109375zm-5.359375 0.125l-1.09375 -1.203125l6.484375 -6.53125l1.125 1.1875l-6.515625 6.546875zm14.159637 1.328125l-0.609375 -1.53125l3.984375 -4.5q0.3125 -0.328125 0.65625 -0.765625q0.359375 -0.4375 0.671875 -0.90625q0.3125 -0.46875 0.5 -0.921875q0.203125 -0.453125 0.203125 -0.875q0 -0.59375 -0.234375 -1.015625q-0.234375 -0.421875 -0.671875 -0.640625q-0.4375 -0.21875 -1.046875 -0.21875q-0.546875 0 -1.078125 0.3125q-0.515625 0.3125 -0.9375 0.890625q-0.421875 0.578125 -0.671875 1.34375l-1.546875 -0.96875q0.3125 -1.078125 0.953125 -1.84375q0.65625 -0.78125 1.546875 -1.1875q0.90625 -0.421875 1.96875 -0.421875q1.109375 0 1.96875 0.46875q0.859375 0.453125 1.34375 1.265625q0.484375 0.8125 0.484375 1.875q0 0.421875 -0.09375 0.875q-0.09375 0.4375 -0.296875 0.921875q-0.203125 0.46875 -0.53125 0.984375q-0.3125 0.515625 -0.75 1.078125q-0.4375 0.5625 -1.0 1.171875l-2.96875 3.234375l-0.375 -0.5625l6.421875 0l0 1.9375l-7.890625 0zm9.895508 3.46875l-1.03125 -1.15625q1.90625 -1.328125 2.890625 -3.15625q1.0 -1.84375 1.0 -3.96875q0 -2.125 -1.0 -3.953125q-0.984375 -1.84375 -2.890625 -3.171875l1.046875 -1.15625q2.265625 1.421875 3.453125 3.546875q1.203125 2.125 1.203125 4.734375q0 2.59375 -1.203125 4.734375q-1.203125 2.125 -3.46875 3.546875z" fill-rule="nonzero"/><path fill="#000000" fill-opacity="0.0" d="m374.25067 -0.001312336l92.409424 0l0 32.031494l-92.409424 0z" fill-rule="evenodd"/><path fill="#595959" d="m398.98727 26.203186q-2.265625 -1.421875 -3.46875 -3.546875q-1.1875 -2.125 -1.1875 -4.734375q0 -2.59375 1.203125 -4.71875q1.203125 -2.140625 3.46875 -3.5625l1.03125 1.15625q-1.90625 1.328125 -2.90625 3.171875q-0.984375 1.828125 -0.984375 3.953125q0 2.125 0.984375 3.96875q1.0 1.828125 2.90625 3.15625l-1.046875 1.15625zm6.703186 -3.46875q-0.96875 0 -1.796875 -0.34375q-0.828125 -0.34375 -1.4375 -0.953125q-0.609375 -0.625 -0.953125 -1.453125q-0.34375 -0.84375 -0.34375 -1.859375q0 -0.5 0.140625 -1.125q0.140625 -0.625 0.421875 -1.375q0.296875 -0.75 0.703125 -1.578125q0.40625 -0.828125 0.953125 -1.71875l1.703125 -2.875l1.953125 0l0.078125 0.1875l-2.0625 3.453125q-0.5625 0.953125 -1.0 1.8125q-0.4375 0.84375 -0.734375 1.609375q-0.296875 0.75 -0.4375 1.375l-0.453125 -1.921875q0.359375 -0.578125 0.765625 -1.015625q0.40625 -0.453125 0.875 -0.75q0.484375 -0.296875 1.0 -0.4375q0.53125 -0.15625 1.09375 -0.15625q1.078125 0 1.984375 0.59375q0.90625 0.578125 1.453125 1.5625q0.546875 0.96875 0.546875 2.125q0 1.390625 -0.578125 2.484375q-0.5625 1.09375 -1.578125 1.734375q-1.0 0.625 -2.296875 0.625zm0 -1.859375q0.71875 0 1.28125 -0.34375q0.578125 -0.359375 0.90625 -0.984375q0.328125 -0.625 0.328125 -1.421875q0 -0.6875 -0.34375 -1.296875q-0.328125 -0.609375 -0.890625 -0.96875q-0.5625 -0.375 -1.25 -0.375q-0.765625 0 -1.359375 0.359375q-0.59375 0.34375 -0.9375 0.9375q-0.328125 0.59375 -0.328125 1.328125q0 0.78125 0.328125 1.40625q0.34375 0.625 0.921875 1.0q0.578125 0.359375 1.34375 0.359375zm17.521545 0.40625l-6.53125 -6.5l1.1875 -1.109375l6.53125 6.5l-1.1875 1.109375zm-5.359375 0.125l-1.09375 -1.203125l6.484375 -6.53125l1.125 1.1875l-6.515625 6.546875zm14.159637 1.328125l-0.609375 -1.53125l3.984375 -4.5q0.3125 -0.328125 0.65625 -0.765625q0.359375 -0.4375 0.671875 -0.90625q0.3125 -0.46875 0.5 -0.921875q0.203125 -0.453125 0.203125 -0.875q0 -0.59375 -0.234375 -1.015625q-0.234375 -0.421875 -0.671875 -0.640625q-0.4375 -0.21875 -1.046875 -0.21875q-0.546875 0 -1.078125 0.3125q-0.515625 0.3125 -0.9375 0.890625q-0.421875 0.578125 -0.671875 1.34375l-1.546875 -0.96875q0.3125 -1.078125 0.953125 -1.84375q0.65625 -0.78125 1.546875 -1.1875q0.90625 -0.421875 1.96875 -0.421875q1.109375 0 1.96875 0.46875q0.8594055 0.453125 1.3437805 1.265625q0.484375 0.8125 0.484375 1.875q0 0.421875 -0.09375 0.875q-0.09375 0.4375 -0.296875 0.921875q-0.203125 0.46875 -0.53125 0.984375q-0.3125 0.515625 -0.7500305 1.078125q-0.4375 0.5625 -1.0 1.171875l-2.96875 3.234375l-0.375 -0.5625l6.4219055 0l0 1.9375l-7.8906555 0zm9.895538 3.46875l-1.03125 -1.15625q1.90625 -1.328125 2.890625 -3.15625q1.0 -1.84375 1.0 -3.96875q0 -2.125 -1.0 -3.953125q-0.984375 -1.84375 -2.890625 -3.171875l1.046875 -1.15625q2.265625 1.421875 3.453125 3.546875q1.203125 2.125 1.203125 4.734375q0 2.59375 -1.203125 4.734375q-1.203125 2.125 -3.46875 3.546875z" fill-rule="nonzero"/><path fill="#000000" fill-opacity="0.0" d="m242.92651 69.20479l0 0c0 -1.7656097 1.4313049 -3.1969147 3.1969147 -3.1969147l12.787277 0l0 0c0.8478699 0 1.6610107 0.33681488 2.260559 0.9363556c0.5995178 0.5995407 0.93634033 1.4126816 0.93634033 2.260559l0 102.39357c0 1.7656097 -1.4313049 3.1969147 -3.1968994 3.1969147l-12.787277 0c-1.7656097 0 -3.1969147 -1.4313049 -3.1969147 -3.1969147z" fill-rule="evenodd"/><path stroke="#595959" stroke-width="1.0" stroke-linejoin="round" stroke-linecap="butt" d="m242.92651 69.20479l0 0c0 -1.7656097 1.4313049 -3.1969147 3.1969147 -3.1969147l12.787277 0l0 0c0.8478699 0 1.6610107 0.33681488 2.260559 0.9363556c0.5995178 0.5995407 0.93634033 1.4126816 0.93634033 2.260559l0 102.39357c0 1.7656097 -1.4313049 3.1969147 -3.1968994 3.1969147l-12.787277 0c-1.7656097 0 -3.1969147 -1.4313049 -3.1969147 -3.1969147z" fill-rule="evenodd"/><path fill="#000000" fill-opacity="0.0" d="m287.26773 69.20479l0 0c0 -1.7656097 1.4313049 -3.1969147 3.1968994 -3.1969147l12.787262 0l0 0c0.8479004 0 1.6610413 0.33681488 2.260559 0.9363556c0.59954834 0.5995407 0.93637085 1.4126816 0.93637085 2.260559l0 102.39357c0 1.7656097 -1.4313049 3.1969147 -3.19693 3.1969147l-12.787262 0c-1.7655945 0 -3.1968994 -1.4313049 -3.1968994 -3.1969147z" fill-rule="evenodd"/><path stroke="#595959" stroke-width="1.0" stroke-linejoin="round" stroke-linecap="butt" d="m287.26773 69.20479l0 0c0 -1.7656097 1.4313049 -3.1969147 3.1968994 -3.1969147l12.787262 0l0 0c0.8479004 0 1.6610413 0.33681488 2.260559 0.9363556c0.59954834 0.5995407 0.93637085 1.4126816 0.93637085 2.260559l0 102.39357c0 1.7656097 -1.4313049 3.1969147 -3.19693 3.1969147l-12.787262 0c-1.7655945 0 -3.1968994 -1.4313049 -3.1968994 -3.1969147z" fill-rule="evenodd"/><path fill="#000000" fill-opacity="0.0" d="m186.46982 199.79002l168.62991 0l0 60.12599l-168.62991 0z" fill-rule="evenodd"/><path fill="#595959" d="m222.94862 213.25114l0 -10.59375l0.6875 0.53125l-2.5625 1.359375l-0.546875 -1.75l3.484375 -1.875l0.96875 0l0 12.328125l-2.03125 0zm-2.0625 0.921875l0 -1.9375l6.21875 0l0 1.9375l-6.21875 0zm11.953125 0.1875q-1.234375 0 -2.21875 -0.421875q-0.984375 -0.4375 -1.640625 -1.28125l1.296875 -1.109375q0.5625 0.640625 1.21875 0.9375q0.671875 0.28125 1.515625 0.28125q0.328125 0 0.609375 -0.078125q0.296875 -0.078125 0.515625 -0.25q0.21875 -0.171875 0.328125 -0.40625q0.109375 -0.234375 0.109375 -0.515625q0 -0.484375 -0.359375 -0.78125q-0.1875 -0.125 -0.59375 -0.28125q-0.390625 -0.15625 -1.03125 -0.328125q-1.078125 -0.28125 -1.765625 -0.625q-0.6875 -0.359375 -1.0625 -0.8125q-0.28125 -0.359375 -0.421875 -0.765625q-0.125 -0.421875 -0.125 -0.9375q0 -0.609375 0.265625 -1.125q0.28125 -0.515625 0.75 -0.890625q0.484375 -0.390625 1.125 -0.59375q0.640625 -0.203125 1.375 -0.203125q0.6875 0 1.359375 0.1875q0.6875 0.1875 1.265625 0.546875q0.578125 0.34375 0.96875 0.828125l-1.09375 1.21875q-0.359375 -0.359375 -0.78125 -0.625q-0.421875 -0.265625 -0.859375 -0.40625q-0.421875 -0.15625 -0.765625 -0.15625q-0.390625 0 -0.71875 0.078125q-0.3125 0.0625 -0.53125 0.21875q-0.203125 0.140625 -0.328125 0.375q-0.109375 0.21875 -0.109375 0.5q0.015625 0.234375 0.125 0.453125q0.109375 0.21875 0.296875 0.359375q0.203125 0.15625 0.609375 0.328125q0.40625 0.15625 1.046875 0.3125q0.921875 0.234375 1.53125 0.53125q0.609375 0.28125 0.96875 0.65625q0.375 0.359375 0.515625 0.828125q0.15625 0.46875 0.15625 1.046875q0 0.828125 -0.484375 1.5q-0.46875 0.65625 -1.28125 1.03125q-0.796875 0.375 -1.78125 0.375zm6.8894653 -0.1875l0 -12.296875l1.921875 0l0 12.296875l-1.921875 0zm-2.046875 -7.921875l0 -1.875l6.234375 0l0 1.875l-6.234375 0zm16.981506 8.109375q-1.203125 0 -2.203125 -0.671875q-1.0 -0.671875 -1.609375 -1.828125q-0.59375 -1.15625 -0.59375 -2.609375q0 -1.484375 0.609375 -2.625q0.609375 -1.140625 1.640625 -1.796875q1.046875 -0.65625 2.328125 -0.65625q0.765625 0 1.3906097 0.234375q0.640625 0.21875 1.109375 0.625q0.484375 0.390625 0.78125 0.921875q0.3125 0.515625 0.390625 1.109375l-0.421875 -0.140625l0 -2.546875l1.9375 0l0 9.796875l-1.9375 0l0 -2.328125l0.4375 -0.140625q-0.109375 0.515625 -0.453125 1.0q-0.34375 0.46875 -0.875 0.84375q-0.53125 0.359375 -1.171875 0.59375q-0.64060974 0.21875 -1.3593597 0.21875zm0.5 -1.765625q0.89060974 0 1.5468597 -0.421875q0.671875 -0.4375 1.046875 -1.1875q0.390625 -0.765625 0.390625 -1.734375q0 -0.953125 -0.390625 -1.703125q-0.375 -0.75 -1.046875 -1.171875q-0.65625 -0.4375 -1.5468597 -0.4375q-0.859375 0 -1.515625 0.4375q-0.65625 0.421875 -1.046875 1.171875q-0.375 0.75 -0.375 1.703125q0 0.96875 0.375 1.734375q0.390625 0.75 1.046875 1.1875q0.65625 0.421875 1.515625 0.421875zm7.5437775 1.578125l0 -9.796875l1.921875 0l0 2.015625l-0.34375 0.21875q0.1875 -0.640625 0.734375 -1.1875q0.546875 -0.5625 1.28125 -0.90625q0.75 -0.34375 1.53125 -0.34375q1.125 0 1.859375 0.4375q0.75 0.4375 1.125 1.34375q0.375 0.890625 0.375 2.25l0 5.96875l-1.921875 0l0 -5.84375q0 -0.828125 -0.21875 -1.375q-0.21875 -0.5625 -0.6875 -0.8125q-0.46875 -0.25 -1.15625 -0.21875q-0.5625 0 -1.03125 0.1875q-0.46875 0.171875 -0.8125 0.5q-0.34375 0.3125 -0.546875 0.734375q-0.1875 0.40625 -0.1875 0.890625l0 5.9375l-0.953125 0q-0.234375 0 -0.484375 0q-0.25 0 -0.484375 0zm15.178589 0.1875q-1.34375 0 -2.390625 -0.65625q-1.046875 -0.671875 -1.671875 -1.8125q-0.609375 -1.15625 -0.609375 -2.625q0 -1.46875 0.59375 -2.609375q0.609375 -1.15625 1.65625 -1.8125q1.046875 -0.671875 2.375 -0.671875q0.71875 0 1.40625 0.234375q0.6875 0.234375 1.21875 0.640625q0.546875 0.390625 0.84375 0.875q0.3125 0.46875 0.3125 0.953125l-0.5625 0.046875l0 -6.5625l1.921875 0l0 13.8125l-1.921875 0l0 -2.328125l0.375 0q0 0.4375 -0.296875 0.890625q-0.296875 0.4375 -0.796875 0.8125q-0.484375 0.359375 -1.140625 0.59375q-0.640625 0.21875 -1.3125 0.21875zm0.265625 -1.65625q0.875 0 1.546875 -0.453125q0.671875 -0.453125 1.046875 -1.21875q0.390625 -0.78125 0.390625 -1.765625q0 -0.984375 -0.390625 -1.75q-0.375 -0.78125 -1.046875 -1.234375q-0.671875 -0.453125 -1.546875 -0.453125q-0.875 0 -1.546875 0.453125q-0.671875 0.453125 -1.0625 1.234375q-0.375 0.765625 -0.375 1.75q0 0.984375 0.375 1.765625q0.390625 0.765625 1.0625 1.21875q0.671875 0.453125 1.546875 0.453125zm13.098694 1.46875l-0.609375 -1.53125l3.984375 -4.5q0.3125 -0.328125 0.65625 -0.765625q0.359375 -0.4375 0.671875 -0.90625q0.3125 -0.46875 0.5 -0.921875q0.203125 -0.453125 0.203125 -0.875q0 -0.59375 -0.234375 -1.015625q-0.234375 -0.421875 -0.671875 -0.640625q-0.4375 -0.21875 -1.046875 -0.21875q-0.546875 0 -1.078125 0.3125q-0.515625 0.3125 -0.9375 0.890625q-0.421875 0.578125 -0.671875 1.34375l-1.546875 -0.96875q0.3125 -1.078125 0.953125 -1.84375q0.65625 -0.78125 1.546875 -1.1875q0.90625 -0.421875 1.96875 -0.421875q1.109375 0 1.96875 0.46875q0.859375 0.453125 1.34375 1.265625q0.484375 0.8125 0.484375 1.875q0 0.421875 -0.09375 0.875q-0.09375 0.4375 -0.296875 0.921875q-0.203125 0.46875 -0.53125 0.984375q-0.3125 0.515625 -0.75 1.078125q-0.4375 0.5625 -1.0 1.171875l-2.96875 3.234375l-0.375 -0.5625l6.421875 0l0 1.9375l-7.890625 0zm9.833008 0l0 -9.796875l1.921875 0l0 2.015625l-0.34375 0.21875q0.1875 -0.640625 0.734375 -1.1875q0.546875 -0.5625 1.28125 -0.90625q0.75 -0.34375 1.53125 -0.34375q1.125 0 1.859375 0.4375q0.75 0.4375 1.125 1.34375q0.375 0.890625 0.375 2.25l0 5.96875l-1.921875 0l0 -5.84375q0 -0.828125 -0.21875 -1.375q-0.21875 -0.5625 -0.6875 -0.8125q-0.46875 -0.25 -1.15625 -0.21875q-0.5625 0 -1.03125 0.1875q-0.46875 0.171875 -0.8125 0.5q-0.34375 0.3125 -0.546875 0.734375q-0.1875 0.40625 -0.1875 0.890625l0 5.9375l-0.953125 0q-0.234375 0 -0.484375 0q-0.25 0 -0.484375 0zm15.178589 0.1875q-1.34375 0 -2.390625 -0.65625q-1.046875 -0.671875 -1.671875 -1.8125q-0.609375 -1.15625 -0.609375 -2.625q0 -1.46875 0.59375 -2.609375q0.609375 -1.15625 1.65625 -1.8125q1.046875 -0.671875 2.375 -0.671875q0.71875 0 1.40625 0.234375q0.6875 0.234375 1.21875 0.640625q0.546875 0.390625 0.84375 0.875q0.3125 0.46875 0.3125 0.953125l-0.5625 0.046875l0 -6.5625l1.921875 0l0 13.8125l-1.921875 0l0 -2.328125l0.375 0q0 0.4375 -0.296875 0.890625q-0.296875 0.4375 -0.796875 0.8125q-0.484375 0.359375 -1.140625 0.59375q-0.640625 0.21875 -1.3125 0.21875zm0.265625 -1.65625q0.875 0 1.546875 -0.453125q0.671875 -0.453125 1.046875 -1.21875q0.390625 -0.78125 0.390625 -1.765625q0 -0.984375 -0.390625 -1.75q-0.375 -0.78125 -1.046875 -1.234375q-0.671875 -0.453125 -1.546875 -0.453125q-0.875 0 -1.546875 0.453125q-0.671875 0.453125 -1.0625 1.234375q-0.375 0.765625 -0.375 1.75q0 0.984375 0.375 1.765625q0.390625 0.765625 1.0625 1.21875q0.671875 0.453125 1.546875 0.453125z" fill-rule="nonzero"/><path fill="#4285f4" d="m229.63261 240.68239l0 -14.015625l2.828125 0l0.109375 2.21875l-0.546875 -0.171875q0.125 -0.609375 0.625 -1.109375q0.5 -0.515625 1.28125 -0.8125q0.78125 -0.3125 1.625 -0.3125q1.28125 0 2.265625 0.671875q0.984375 0.65625 1.546875 1.8125q0.578125 1.140625 0.578125 2.640625q0 1.5 -0.578125 2.65625q-0.5625 1.15625 -1.5625 1.828125q-1.0 0.65625 -2.28125 0.65625q-0.84375 0 -1.609375 -0.3125q-0.765625 -0.328125 -1.28125 -0.859375q-0.515625 -0.546875 -0.6875 -1.1875l0.6875 -0.25l0 6.546875l-3.0 0zm5.171875 -6.453125q0.65625 0 1.15625 -0.328125q0.515625 -0.328125 0.796875 -0.90625q0.28125 -0.578125 0.28125 -1.390625q0 -0.78125 -0.28125 -1.359375q-0.28125 -0.59375 -0.78125 -0.921875q-0.484375 -0.328125 -1.171875 -0.328125q-0.703125 0 -1.203125 0.328125q-0.5 0.3125 -0.78125 0.90625q-0.28125 0.59375 -0.28125 1.375q0 0.8125 0.28125 1.390625q0.28125 0.578125 0.78125 0.90625q0.5 0.328125 1.203125 0.328125zm7.122589 2.34375l0 -9.90625l2.828125 0l0.140625 3.234375l-0.5625 -0.625q0.21875 -0.796875 0.734375 -1.421875q0.515625 -0.640625 1.203125 -1.015625q0.6875 -0.375 1.46875 -0.375q0.34375 0 0.625 0.0625q0.296875 0.046875 0.53125 0.125l-0.8125 3.296875q-0.203125 -0.125 -0.5625 -0.203125q-0.34375 -0.09375 -0.703125 -0.09375q-0.421875 0 -0.78125 0.140625q-0.34375 0.140625 -0.59375 0.40625q-0.234375 0.25 -0.375 0.609375q-0.140625 0.359375 -0.140625 0.796875l0 4.96875l-3.0 0zm8.660477 0l0 -9.90625l2.984375 0l0 9.90625l-2.984375 0zm1.484375 -11.859375q-0.84375 0 -1.328125 -0.40625q-0.46875 -0.40625 -0.46875 -1.140625q0 -0.671875 0.484375 -1.09375q0.5 -0.4375 1.3125 -0.4375q0.84375 0 1.296875 0.40625q0.46875 0.390625 0.46875 1.125q0 0.6875 -0.46875 1.125q-0.46875 0.421875 -1.296875 0.421875zm4.295105 11.859375l0 -9.90625l2.828125 0l0.09375 2.015625l-0.59375 0.21875q0.203125 -0.671875 0.734375 -1.21875q0.53125 -0.546875 1.28125 -0.875q0.75 -0.34375 1.5625 -0.34375q1.125 0 1.890625 0.453125q0.765625 0.453125 1.15625 1.359375q0.390625 0.90625 0.390625 2.21875l0 6.078125l-3.0 0l0 -5.84375q0 -0.59375 -0.171875 -0.984375q-0.171875 -0.390625 -0.515625 -0.578125q-0.34375 -0.203125 -0.84375 -0.1875q-0.390625 0 -0.734375 0.125q-0.328125 0.125 -0.578125 0.359375q-0.234375 0.21875 -0.375 0.53125q-0.140625 0.296875 -0.140625 0.640625l0 5.9375l-1.484375 0q-0.515625 0 -0.890625 0q-0.375 0 -0.609375 0zm16.19046 0.1875q-1.4375 0 -2.578125 -0.671875q-1.140625 -0.671875 -1.796875 -1.828125q-0.65625 -1.171875 -0.65625 -2.65625q0 -1.46875 0.65625 -2.625q0.65625 -1.171875 1.796875 -1.84375q1.140625 -0.671875 2.578125 -0.671875q1.328125 0 2.4375 0.46875q1.109375 0.46875 1.765625 1.296875l-1.625 1.9375q-0.265625 -0.296875 -0.625 -0.546875q-0.34375 -0.265625 -0.78125 -0.40625q-0.421875 -0.15625 -0.890625 -0.15625q-0.703125 0 -1.25 0.328125q-0.546875 0.328125 -0.84375 0.90625q-0.296875 0.578125 -0.296875 1.3125q0 0.71875 0.296875 1.296875q0.3125 0.578125 0.859375 0.921875q0.546875 0.328125 1.234375 0.328125q0.484375 0 0.890625 -0.125q0.40625 -0.125 0.75 -0.359375q0.359375 -0.25 0.65625 -0.59375l1.59375 1.953125q-0.625 0.796875 -1.765625 1.265625q-1.125 0.46875 -2.40625 0.46875zm5.9957886 -0.1875l0 -9.90625l2.984375 0l0 9.90625l-2.984375 0zm1.484375 -11.859375q-0.84375 0 -1.328125 -0.40625q-0.46875 -0.40625 -0.46875 -1.140625q0 -0.671875 0.484375 -1.09375q0.5 -0.4375 1.3125 -0.4375q0.84375 0 1.296875 0.40625q0.46875 0.390625 0.46875 1.125q0 0.6875 -0.46875 1.125q-0.46875 0.421875 -1.296875 0.421875zm4.295105 15.96875l0 -14.015625l2.828125 0l0.109375 2.21875l-0.546875 -0.171875q0.125 -0.609375 0.625 -1.109375q0.5 -0.515625 1.28125 -0.8125q0.78125 -0.3125 1.625 -0.3125q1.28125 0 2.265625 0.671875q0.984375 0.65625 1.546875 1.8125q0.578125 1.140625 0.578125 2.640625q0 1.5 -0.578125 2.65625q-0.5625 1.15625 -1.5625 1.828125q-1.0 0.65625 -2.28125 0.65625q-0.84375 0 -1.609375 -0.3125q-0.765625 -0.328125 -1.28125 -0.859375q-0.515625 -0.546875 -0.6875 -1.1875l0.6875 -0.25l0 6.546875l-3.0 0zm5.171875 -6.453125q0.65625 0 1.15625 -0.328125q0.515625 -0.328125 0.796875 -0.90625q0.28125 -0.578125 0.28125 -1.390625q0 -0.78125 -0.28125 -1.359375q-0.28125 -0.59375 -0.78125 -0.921875q-0.484375 -0.328125 -1.171875 -0.328125q-0.703125 0 -1.203125 0.328125q-0.5 0.3125 -0.78125 0.90625q-0.28125 0.59375 -0.28125 1.375q0 0.8125 0.28125 1.390625q0.28125 0.578125 0.78125 0.90625q0.5 0.328125 1.203125 0.328125zm10.778839 2.515625q-1.25 0 -2.234375 -0.65625q-0.984375 -0.671875 -1.5625 -1.828125q-0.578125 -1.171875 -0.578125 -2.65625q0 -1.5 0.578125 -2.65625q0.578125 -1.15625 1.578125 -1.8125q1.015625 -0.671875 2.3125 -0.671875q0.703125 0 1.28125 0.203125q0.59375 0.203125 1.046875 0.578125q0.453125 0.359375 0.765625 0.84375q0.3125 0.46875 0.46875 1.0l-0.625 -0.078125l0 -2.34375l2.96875 0l0 9.90625l-3.015625 0l0 -2.390625l0.671875 -0.015625q-0.15625 0.515625 -0.5 0.984375q-0.328125 0.46875 -0.8125 0.828125q-0.484375 0.34375 -1.078125 0.5625q-0.59375 0.203125 -1.265625 0.203125zm0.8125 -2.515625q0.703125 0 1.203125 -0.3125q0.5 -0.328125 0.78125 -0.90625q0.28125 -0.59375 0.28125 -1.40625q0 -0.796875 -0.28125 -1.375q-0.28125 -0.59375 -0.78125 -0.921875q-0.5 -0.328125 -1.203125 -0.328125q-0.671875 0 -1.171875 0.328125q-0.484375 0.328125 -0.765625 0.921875q-0.28125 0.578125 -0.28125 1.375q0 0.8125 0.28125 1.40625q0.28125 0.578125 0.765625 0.90625q0.5 0.3125 1.171875 0.3125zm7.841339 2.34375l0 -13.8125l2.984375 0l0 13.8125l-2.984375 0z" fill-rule="nonzero"/><path fill="#4285f4" d="m218.46358 259.16052q-1.4375 0 -2.578125 -0.671875q-1.140625 -0.671875 -1.796875 -1.828125q-0.65625 -1.1718903 -0.65625 -2.6562653q0 -1.46875 0.65625 -2.625q0.65625 -1.171875 1.796875 -1.84375q1.140625 -0.671875 2.578125 -0.671875q1.328125 0 2.4375 0.46875q1.109375 0.46875 1.765625 1.296875l-1.625 1.9375q-0.265625 -0.296875 -0.625 -0.546875q-0.34375 -0.265625 -0.78125 -0.40625q-0.421875 -0.15625 -0.890625 -0.15625q-0.703125 0 -1.25 0.328125q-0.546875 0.328125 -0.84375 0.90625q-0.296875 0.578125 -0.296875 1.3125q0 0.71875 0.296875 1.296875q0.3125 0.578125 0.859375 0.92189026q0.546875 0.328125 1.234375 0.328125q0.484375 0 0.890625 -0.125q0.40625 -0.125 0.75 -0.359375q0.359375 -0.25001526 0.65625 -0.59376526l1.59375 1.9531403q-0.625 0.796875 -1.765625 1.265625q-1.125 0.46875 -2.40625 0.46875zm10.480164 0q-1.546875 0 -2.75 -0.671875q-1.203125 -0.671875 -1.90625 -1.828125q-0.6875 -1.1562653 -0.6875 -2.6562653q0 -1.484375 0.6875 -2.640625q0.703125 -1.15625 1.90625 -1.828125q1.203125 -0.671875 2.75 -0.671875q1.546875 0 2.75 0.671875q1.203125 0.671875 1.890625 1.828125q0.703125 1.15625 0.703125 2.640625q0 1.5 -0.703125 2.6562653q-0.6875 1.15625 -1.890625 1.828125q-1.203125 0.671875 -2.75 0.671875zm0 -2.578125q0.671875 0 1.1875 -0.328125q0.53125 -0.34376526 0.828125 -0.92189026q0.296875 -0.578125 0.28125 -1.328125q0.015625 -0.734375 -0.28125 -1.328125q-0.296875 -0.59375 -0.828125 -0.921875q-0.515625 -0.34375 -1.1875 -0.34375q-0.671875 0 -1.203125 0.34375q-0.53125 0.328125 -0.828125 0.921875q-0.296875 0.59375 -0.28125 1.328125q-0.015625 0.75 0.28125 1.328125q0.296875 0.578125 0.828125 0.92189026q0.53125 0.328125 1.203125 0.328125zm7.286789 2.390625l0 -9.906265l2.828125 0l0.09375 1.796875l-0.390625 0.015625q0.21875 -0.484375 0.5625 -0.859375q0.34375 -0.375 0.78125 -0.625q0.453125 -0.25 0.921875 -0.375q0.46875 -0.140625 0.96875 -0.140625q0.71875 0 1.3125 0.234375q0.609375 0.21875 1.046875 0.71875q0.453125 0.484375 0.71875 1.328125l-0.46875 -0.046875l0.140625 -0.296875q0.25 -0.4375 0.625 -0.796875q0.390625 -0.375 0.84375 -0.625q0.46875 -0.25 0.96875 -0.375q0.515625 -0.140625 0.984375 -0.140625q1.171875 0 1.953125 0.46875q0.78125 0.453125 1.1875 1.375q0.40625 0.90625 0.40625 2.203125l0 6.0468903l-3.015625 0l0 -5.7968903q0 -0.609375 -0.171875 -1.0q-0.15625 -0.390625 -0.484375 -0.578125q-0.328125 -0.203125 -0.8125 -0.203125q-0.390625 0 -0.71875 0.140625q-0.328125 0.125 -0.5625 0.359375q-0.234375 0.21875 -0.359375 0.515625q-0.125 0.296875 -0.125 0.671875l0 5.8906403l-3.015625 0l0 -5.8281403q0 -0.546875 -0.171875 -0.9375q-0.15625 -0.390625 -0.5 -0.59375q-0.328125 -0.21875 -0.78125 -0.21875q-0.390625 0 -0.71875 0.140625q-0.328125 0.125 -0.5625 0.359375q-0.21875 0.21875 -0.359375 0.515625q-0.125 0.296875 -0.125 0.65625l0 5.9062653l-3.0 0zm17.962936 4.109375l0 -14.01564l2.8281097 0l0.109375 2.21875l-0.546875 -0.171875q0.125 -0.609375 0.625 -1.109375q0.5 -0.515625 1.28125 -0.8125q0.78125 -0.3125 1.625 -0.3125q1.28125 0 2.265625 0.671875q0.984375 0.65625 1.546875 1.8125q0.578125 1.140625 0.578125 2.640625q0 1.5 -0.578125 2.6562653q-0.5625 1.15625 -1.5625 1.828125q-1.0 0.65625 -2.28125 0.65625q-0.84375 0 -1.609375 -0.3125q-0.765625 -0.328125 -1.28125 -0.859375q-0.515625 -0.546875 -0.6875 -1.1875l0.6875 -0.25l0 6.546875l-2.9999847 0zm5.1718597 -6.453125q0.65625 0 1.15625 -0.328125q0.515625 -0.32814026 0.796875 -0.90626526q0.28125 -0.578125 0.28125 -1.390625q0 -0.78125 -0.28125 -1.359375q-0.28125 -0.59375 -0.78125 -0.921875q-0.484375 -0.328125 -1.171875 -0.328125q-0.703125 0 -1.203125 0.328125q-0.5 0.3125 -0.78125 0.90625q-0.28125 0.59375 -0.28125 1.375q0 0.8125 0.28125 1.390625q0.28125 0.578125 0.78125 0.90626526q0.5 0.328125 1.203125 0.328125zm11.778839 2.53125q-1.546875 0 -2.75 -0.671875q-1.203125 -0.671875 -1.90625 -1.828125q-0.6875 -1.1562653 -0.6875 -2.6562653q0 -1.484375 0.6875 -2.640625q0.703125 -1.15625 1.90625 -1.828125q1.203125 -0.671875 2.75 -0.671875q1.546875 0 2.75 0.671875q1.203125 0.671875 1.890625 1.828125q0.703125 1.15625 0.703125 2.640625q0 1.5 -0.703125 2.6562653q-0.6875 1.15625 -1.890625 1.828125q-1.203125 0.671875 -2.75 0.671875zm0 -2.578125q0.671875 0 1.1875 -0.328125q0.53125 -0.34376526 0.828125 -0.92189026q0.296875 -0.578125 0.28125 -1.328125q0.015625 -0.734375 -0.28125 -1.328125q-0.296875 -0.59375 -0.828125 -0.921875q-0.515625 -0.34375 -1.1875 -0.34375q-0.671875 0 -1.203125 0.34375q-0.53125 0.328125 -0.828125 0.921875q-0.296875 0.59375 -0.28125 1.328125q-0.015625 0.75 0.28125 1.328125q0.296875 0.578125 0.828125 0.92189026q0.53125 0.328125 1.203125 0.328125zm7.302429 2.390625l0 -9.906265l2.828125 0l0.09375 2.015625l-0.59375 0.21875q0.203125 -0.671875 0.734375 -1.21875q0.53125 -0.546875 1.28125 -0.875q0.75 -0.34375 1.5625 -0.34375q1.125 0 1.890625 0.453125q0.765625 0.453125 1.15625 1.359375q0.390625 0.90625 0.390625 2.21875l0 6.0781403l-3.0 0l0 -5.8437653q0 -0.59375 -0.171875 -0.984375q-0.171875 -0.390625 -0.515625 -0.578125q-0.34375 -0.203125 -0.84375 -0.1875q-0.390625 0 -0.734375 0.125q-0.328125 0.125 -0.578125 0.359375q-0.234375 0.21875 -0.375 0.53125q-0.140625 0.296875 -0.140625 0.640625l0 5.9375153l-1.484375 0q-0.515625 0 -0.890625 0q-0.375 0 -0.609375 0zm16.56546 0.1875q-1.640625 0 -2.859375 -0.65625q-1.203125 -0.671875 -1.875 -1.8125q-0.671875 -1.1562653 -0.671875 -2.6250153q0 -1.140625 0.359375 -2.09375q0.375 -0.953125 1.046875 -1.640625q0.671875 -0.703125 1.59375 -1.078125q0.9375 -0.390625 2.03125 -0.390625q1.046875 0 1.90625 0.375q0.875 0.375 1.5 1.046875q0.640625 0.671875 0.96875 1.59375q0.34375 0.90625 0.3125 1.984375l-0.03125 0.796875l-7.890625 0l-0.421875 -1.671875l5.890625 0l-0.3125 0.34375l0 -0.359375q-0.03125 -0.46875 -0.296875 -0.828125q-0.25 -0.375 -0.65625 -0.578125q-0.40625 -0.203125 -0.9375 -0.203125q-0.71875 0 -1.234375 0.296875q-0.515625 0.28125 -0.78125 0.828125q-0.25 0.546875 -0.25 1.359375q0 0.8125 0.34375 1.421875q0.34375 0.609375 1.0 0.95314026q0.671875 0.328125 1.578125 0.328125q0.640625 0 1.125 -0.1875q0.5 -0.1875 1.078125 -0.64064026l1.40625 1.9843903q-0.578125 0.5 -1.234375 0.828125q-0.65625 0.3125 -1.34375 0.46875q-0.671875 0.15625 -1.34375 0.15625zm6.2138367 -0.1875l0 -9.906265l2.828125 0l0.09375 2.015625l-0.59375 0.21875q0.203125 -0.671875 0.734375 -1.21875q0.53125 -0.546875 1.28125 -0.875q0.75 -0.34375 1.5625 -0.34375q1.125 0 1.890625 0.453125q0.765625 0.453125 1.15625 1.359375q0.390625 0.90625 0.390625 2.21875l0 6.0781403l-3.0 0l0 -5.8437653q0 -0.59375 -0.171875 -0.984375q-0.171875 -0.390625 -0.515625 -0.578125q-0.34375 -0.203125 -0.84375 -0.1875q-0.390625 0 -0.734375 0.125q-0.328125 0.125 -0.578125 0.359375q-0.234375 0.21875 -0.375 0.53125q-0.140625 0.296875 -0.140625 0.640625l0 5.9375153l-1.484375 0q-0.515625 0 -0.890625 0q-0.375 0 -0.609375 0zm12.65921 0l0 -12.406265l2.984375 0l0 12.406265l-2.984375 0zm-1.75 -7.2968903l0 -2.609375l6.65625 0l0 2.609375l-6.65625 0zm12.079773 7.4843903q-1.46875 0 -2.578125 -0.46875q-1.109375 -0.46875 -1.765625 -1.25l1.8125 -1.5625153q0.578125 0.57814026 1.296875 0.84376526q0.734375 0.265625 1.390625 0.265625q0.265625 0 0.46875 -0.046875q0.203125 -0.0625 0.34375 -0.15625q0.140625 -0.109375 0.21875 -0.25q0.078125 -0.140625 0.078125 -0.328125q0 -0.37501526 -0.34375 -0.57814026q-0.171875 -0.09375 -0.5625 -0.21875q-0.390625 -0.125 -1.0 -0.296875q-0.875 -0.21875 -1.53125 -0.53125q-0.640625 -0.3125 -1.046875 -0.71875q-0.375 -0.390625 -0.578125 -0.859375q-0.203125 -0.484375 -0.203125 -1.078125q0 -0.703125 0.328125 -1.25q0.328125 -0.5625 0.875 -0.96875q0.546875 -0.421875 1.265625 -0.625q0.71875 -0.21875 1.484375 -0.21875q0.828125 0 1.5625 0.1875q0.75 0.1875 1.390625 0.53125q0.65625 0.328125 1.15625 0.796875l-1.578125 1.75q-0.328125 -0.3125 -0.75 -0.5625q-0.421875 -0.265625 -0.875 -0.40625q-0.4375 -0.15625 -0.8125 -0.15625q-0.28125 0 -0.5 0.046875q-0.203125 0.046875 -0.359375 0.15625q-0.140625 0.09375 -0.21875 0.234375q-0.078125 0.140625 -0.078125 0.328125q0 0.1875 0.09375 0.359375q0.109375 0.171875 0.296875 0.28125q0.1875 0.109375 0.59375 0.25q0.421875 0.140625 1.125 0.34375q0.875 0.234375 1.5 0.546875q0.640625 0.296875 1.015625 0.703125q0.296875 0.3125 0.4375 0.734375q0.15625 0.421875 0.15625 0.90625q0 0.95314026 -0.53125 1.6875153q-0.53125 0.734375 -1.46875 1.15625q-0.921875 0.421875 -2.109375 0.421875z" fill-rule="nonzero"/><path fill="#000000" fill-opacity="0.0" d="m359.11548 213.83727l168.62994 0l0 32.031494l-168.62994 0z" fill-rule="evenodd"/><path fill="#4285f4" d="m398.33725 236.57301l0 -13.0625l5.640625 0q1.21875 0 2.171875 0.5625q0.96875 0.5625 1.53125 1.53125q0.578125 0.96875 0.578125 2.1875q0 1.265625 -0.578125 2.265625q-0.5625 1.0 -1.53125 1.578125q-0.953125 0.578125 -2.171875 0.578125l-2.46875 0l0 4.359375l-3.171875 0zm3.109375 -7.140625l2.078125 0q0.40625 0 0.734375 -0.203125q0.34375 -0.21875 0.546875 -0.5625q0.21875 -0.359375 0.21875 -0.828125q0 -0.484375 -0.21875 -0.8125q-0.203125 -0.34375 -0.546875 -0.53125q-0.328125 -0.1875 -0.734375 -0.1875l-2.078125 0l0 3.125zm15.178558 7.328125q-1.484375 0 -2.71875 -0.484375q-1.234375 -0.5 -2.15625 -1.40625q-0.90625 -0.90625 -1.40625 -2.140625q-0.5 -1.25 -0.5 -2.734375q0 -1.46875 0.515625 -2.6875q0.53125 -1.234375 1.453125 -2.140625q0.921875 -0.90625 2.1875 -1.40625q1.265625 -0.515625 2.75 -0.515625q0.9375 0 1.828125 0.25q0.890625 0.25 1.671875 0.71875q0.78125 0.46875 1.328125 1.125l-1.9375 2.21875q-0.390625 -0.40625 -0.828125 -0.703125q-0.4375 -0.3125 -0.96875 -0.484375q-0.515625 -0.171875 -1.109375 -0.171875q-0.75 0 -1.421875 0.28125q-0.65625 0.265625 -1.15625 0.765625q-0.484375 0.484375 -0.765625 1.203125q-0.28125 0.703125 -0.28125 1.578125q0 0.859375 0.28125 1.5625q0.28125 0.6875 0.78125 1.203125q0.515625 0.5 1.234375 0.765625q0.71875 0.25 1.59375 0.25q0.59375 0 1.125 -0.15625q0.546875 -0.171875 1.0 -0.453125q0.46875 -0.296875 0.8125 -0.671875l1.53125 2.421875q-0.46875 0.53125 -1.25 0.9375q-0.765625 0.40625 -1.703125 0.640625q-0.9375 0.234375 -1.890625 0.234375zm17.308075 0q-1.28125 0 -2.328125 -0.296875q-1.03125 -0.3125 -1.84375 -0.90625q-0.796875 -0.59375 -1.421875 -1.390625l1.921875 -2.1875q0.9375 1.25 1.875 1.6875q0.9375 0.421875 1.953125 0.421875q0.5 0 0.90625 -0.125q0.40625 -0.140625 0.625 -0.390625q0.234375 -0.25 0.234375 -0.625q0 -0.28125 -0.140625 -0.5q-0.140625 -0.21875 -0.390625 -0.390625q-0.234375 -0.171875 -0.578125 -0.3125q-0.328125 -0.140625 -0.703125 -0.234375q-0.375 -0.109375 -0.765625 -0.1875q-1.078125 -0.234375 -1.890625 -0.578125q-0.796875 -0.359375 -1.328125 -0.875q-0.53125 -0.515625 -0.796875 -1.171875q-0.25 -0.671875 -0.25 -1.484375q0 -0.890625 0.390625 -1.625q0.40625 -0.734375 1.078125 -1.265625q0.6875 -0.53125 1.578125 -0.8125q0.90625 -0.296875 1.875 -0.296875q1.28125 0 2.203125 0.28125q0.9375 0.265625 1.59375 0.765625q0.65625 0.5 1.125 1.21875l-1.953125 1.875q-0.390625 -0.484375 -0.859375 -0.796875q-0.453125 -0.3125 -0.96875 -0.484375q-0.5 -0.171875 -1.046875 -0.171875q-0.5625 0 -0.96875 0.140625q-0.390625 0.140625 -0.625 0.390625q-0.21875 0.25 -0.21875 0.609375q0 0.3125 0.1875 0.546875q0.1875 0.21875 0.5 0.40625q0.328125 0.171875 0.734375 0.296875q0.40625 0.109375 0.859375 0.1875q1.03125 0.203125 1.859375 0.546875q0.828125 0.328125 1.421875 0.8125q0.609375 0.484375 0.9375 1.15625q0.328125 0.65625 0.328125 1.53125q0 1.359375 -0.671875 2.3125q-0.65625 0.9375 -1.796875 1.4375q-1.140625 0.484375 -2.640625 0.484375zm11.531189 0q-1.4375 0 -2.578125 -0.671875q-1.140625 -0.671875 -1.796875 -1.828125q-0.65625 -1.171875 -0.65625 -2.65625q0 -1.46875 0.65625 -2.625q0.65625 -1.171875 1.796875 -1.84375q1.140625 -0.671875 2.578125 -0.671875q1.328125 0 2.4375 0.46875q1.109375 0.46875 1.765625 1.296875l-1.625 1.9375q-0.265625 -0.296875 -0.625 -0.546875q-0.34375 -0.265625 -0.78125 -0.40625q-0.421875 -0.15625 -0.890625 -0.15625q-0.703125 0 -1.25 0.328125q-0.546875 0.328125 -0.84375 0.90625q-0.296875 0.578125 -0.296875 1.3125q0 0.71875 0.296875 1.296875q0.3125 0.578125 0.859375 0.921875q0.546875 0.328125 1.234375 0.328125q0.484375 0 0.890625 -0.125q0.40625 -0.125 0.75 -0.359375q0.359375 -0.25 0.65625 -0.59375l1.59375 1.953125q-0.625 0.796875 -1.765625 1.265625q-1.125 0.46875 -2.40625 0.46875zm10.480164 0q-1.546875 0 -2.75 -0.671875q-1.203125 -0.671875 -1.90625 -1.828125q-0.6875 -1.15625 -0.6875 -2.65625q0 -1.484375 0.6875 -2.640625q0.703125 -1.15625 1.90625 -1.828125q1.203125 -0.671875 2.75 -0.671875q1.546875 0 2.75 0.671875q1.203125 0.671875 1.890625 1.828125q0.703125 1.15625 0.703125 2.640625q0 1.5 -0.703125 2.65625q-0.6875 1.15625 -1.890625 1.828125q-1.203125 0.671875 -2.75 0.671875zm0 -2.578125q0.671875 0 1.1875 -0.328125q0.53125 -0.34375 0.828125 -0.921875q0.296875 -0.578125 0.28125 -1.328125q0.015625 -0.734375 -0.28125 -1.328125q-0.296875 -0.59375 -0.828125 -0.921875q-0.515625 -0.34375 -1.1875 -0.34375q-0.671875 0 -1.203125 0.34375q-0.53125 0.328125 -0.828125 0.921875q-0.296875 0.59375 -0.28125 1.328125q-0.015625 0.75 0.28125 1.328125q0.296875 0.578125 0.828125 0.921875q0.53125 0.328125 1.203125 0.328125zm7.3023987 2.390625l0 -9.90625l2.828125 0l0.140625 3.234375l-0.5625 -0.625q0.21875 -0.796875 0.734375 -1.421875q0.515625 -0.640625 1.203125 -1.015625q0.6875 -0.375 1.46875 -0.375q0.34375 0 0.625 0.0625q0.296875 0.046875 0.53125 0.125l-0.8125 3.296875q-0.203125 -0.125 -0.5625 -0.203125q-0.34375 -0.09375 -0.703125 -0.09375q-0.421875 0 -0.78125 0.140625q-0.34375 0.140625 -0.59375 0.40625q-0.234375 0.25 -0.375 0.609375q-0.140625 0.359375 -0.140625 0.796875l0 4.96875l-3.0 0zm12.796692 0.1875q-1.640625 0 -2.859375 -0.65625q-1.203125 -0.671875 -1.875 -1.8125q-0.671875 -1.15625 -0.671875 -2.625q0 -1.140625 0.359375 -2.09375q0.375 -0.953125 1.046875 -1.640625q0.671875 -0.703125 1.59375 -1.078125q0.9375 -0.390625 2.03125 -0.390625q1.046875 0 1.90625 0.375q0.875 0.375 1.5 1.046875q0.640625 0.671875 0.96875 1.59375q0.34375 0.90625 0.3125 1.984375l-0.03125 0.796875l-7.890625 0l-0.421875 -1.671875l5.890625 0l-0.3125 0.34375l0 -0.359375q-0.03125 -0.46875 -0.296875 -0.828125q-0.25 -0.375 -0.65625 -0.578125q-0.40625 -0.203125 -0.9375 -0.203125q-0.71875 0 -1.234375 0.296875q-0.515625 0.28125 -0.78125 0.828125q-0.25 0.546875 -0.25 1.359375q0 0.8125 0.34375 1.421875q0.34375 0.609375 1.0 0.953125q0.671875 0.328125 1.578125 0.328125q0.640625 0 1.125 -0.1875q0.5 -0.1875 1.078125 -0.640625l1.40625 1.984375q-0.578125 0.5 -1.234375 0.828125q-0.65625 0.3125 -1.34375 0.46875q-0.671875 0.15625 -1.34375 0.15625zm9.557587 0q-1.46875 0 -2.578125 -0.46875q-1.109375 -0.46875 -1.765625 -1.25l1.8125 -1.5625q0.578125 0.578125 1.296875 0.84375q0.734375 0.265625 1.390625 0.265625q0.265625 0 0.46875 -0.046875q0.203125 -0.0625 0.34375 -0.15625q0.140625 -0.109375 0.21875 -0.25q0.078125 -0.140625 0.078125 -0.328125q0 -0.375 -0.34375 -0.578125q-0.171875 -0.09375 -0.5625 -0.21875q-0.390625 -0.125 -1.0 -0.296875q-0.875 -0.21875 -1.53125 -0.53125q-0.640625 -0.3125 -1.046875 -0.71875q-0.375 -0.390625 -0.578125 -0.859375q-0.203125 -0.484375 -0.203125 -1.078125q0 -0.703125 0.328125 -1.25q0.328125 -0.5625 0.875 -0.96875q0.546875 -0.421875 1.265625 -0.625q0.71875 -0.21875 1.484375 -0.21875q0.828125 0 1.5625 0.1875q0.75 0.1875 1.390625 0.53125q0.65625 0.328125 1.15625 0.796875l-1.578125 1.75q-0.328125 -0.3125 -0.75 -0.5625q-0.421875 -0.265625 -0.875 -0.40625q-0.4375 -0.15625 -0.8125 -0.15625q-0.28125 0 -0.5 0.046875q-0.203125 0.046875 -0.359375 0.15625q-0.140625 0.09375 -0.21875 0.234375q-0.078125 0.140625 -0.078125 0.328125q0 0.1875 0.09375 0.359375q0.109375 0.171875 0.296875 0.28125q0.1875 0.109375 0.59375 0.25q0.421875 0.140625 1.125 0.34375q0.875 0.234375 1.5 0.546875q0.640625 0.296875 1.015625 0.703125q0.296875 0.3125 0.4375 0.734375q0.15625 0.421875 0.15625 0.90625q0 0.953125 -0.53125 1.6875q-0.53125 0.734375 -1.46875 1.15625q-0.921875 0.421875 -2.109375 0.421875z" fill-rule="nonzero"/></g></svg>