<svg version="1.1" viewBox="0.0 0.0 775.6404199475065 258.9737532808399" fill="none" stroke="none" stroke-linecap="square" stroke-miterlimit="10" xmlns:xlink="http://www.w3.org/1999/xlink" xmlns="http://www.w3.org/2000/svg"><clipPath id="p.0"><path d="m0 0l775.64044 0l0 258.97375l-775.64044 0l0 -258.97375z" clip-rule="nonzero"/></clipPath><g clip-path="url(#p.0)"><path fill="#000000" fill-opacity="0.0" d="m0 0l775.64044 0l0 258.97375l-775.64044 0z" fill-rule="evenodd"/><path fill="#000000" fill-opacity="0.0" d="m9.828084 175.14174l0 -150.29922" fill-rule="evenodd"/><path stroke="#000000" stroke-width="2.0" stroke-linejoin="round" stroke-linecap="butt" d="m9.828084 175.14174l0 -143.44504" fill-rule="evenodd"/><path fill="#000000" stroke="#000000" stroke-width="2.0" stroke-linecap="butt" d="m9.828084 31.696693l2.2491674 2.2491646l-2.2491674 -6.179533l-2.249167 6.179533z" fill-rule="evenodd"/><path fill="#000000" fill-opacity="0.0" d="m9.828084 175.14174l305.22833 0" fill-rule="evenodd"/><path stroke="#000000" stroke-width="2.0" stroke-linejoin="round" stroke-linecap="butt" d="m9.828084 175.14174l298.37418 0" fill-rule="evenodd"/><path fill="#000000" stroke="#000000" stroke-width="2.0" stroke-linecap="butt" d="m308.20227 175.14174l-2.249176 2.2491608l6.179535 -2.2491608l-6.179535 -2.249176z" fill-rule="evenodd"/><path fill="#b4a7d6" d="m26.993439 152.67505l0 0c0 -2.5135498 2.037632 -4.551178 4.55118 -4.551178l0 0c1.2070484 0 2.3646603 0.4794922 3.218172 1.3330078c0.8535118 0.8535156 1.3330116 2.0111237 1.3330116 3.2181702l0 0c0 2.5135498 -2.0376358 4.551178 -4.5511837 4.551178l0 0c-2.513548 0 -4.55118 -2.0376282 -4.55118 -4.551178z" fill-rule="evenodd"/><path fill="#b4a7d6" d="m41.63421 127.508354l0 0c0 -2.5135498 2.0376358 -4.5511856 4.551182 -4.5511856l0 0c1.2070465 0 2.3646584 0.47949982 3.2181702 1.3330154c0.8535118 0.853508 1.3330116 2.0111237 1.3330116 3.2181702l0 0c0 2.5135422 -2.037632 4.5511856 -4.551182 4.5511856l0 0c-2.513546 0 -4.551182 -2.0376434 -4.551182 -4.5511856z" fill-rule="evenodd"/><path fill="#b4a7d6" d="m56.73414 143.57318l0 0c0 -2.5135345 2.0376358 -4.551178 4.551182 -4.551178l0 0c1.2070503 0 2.3646584 0.47950745 3.218174 1.3330078c0.853508 0.8535156 1.3330078 2.0111237 1.3330078 3.2181702l0 0c0 2.5135498 -2.037632 4.551193 -4.551182 4.551193l0 0c-2.513546 0 -4.551182 -2.0376434 -4.551182 -4.551193z" fill-rule="evenodd"/><path fill="#b4a7d6" d="m69.54409 127.508354l0 0c0 -2.5135498 2.0376282 -4.5511856 4.551178 -4.5511856l0 0c1.2070465 0 2.3646622 0.47949982 3.2181702 1.3330154c0.8535156 0.853508 1.3330154 2.0111237 1.3330154 3.2181702l0 0c0 2.5135422 -2.0376358 4.5511856 -4.5511856 4.5511856l0 0c-2.5135498 0 -4.551178 -2.0376434 -4.551178 -4.5511856z" fill-rule="evenodd"/><path fill="#b4a7d6" d="m80.52322 106.91874l0 0c0 -2.5135422 2.0376282 -4.551178 4.551178 -4.551178l0 0c1.2070465 0 2.3646622 0.47949982 3.2181702 1.3330078c0.8535156 0.8535156 1.3330078 2.0111237 1.3330078 3.2181702l0 0c0 2.5135498 -2.0376282 4.5511856 -4.551178 4.5511856l0 0c-2.5135498 0 -4.551178 -2.0376358 -4.551178 -4.5511856z" fill-rule="evenodd"/><path fill="#b4a7d6" d="m92.87691 118.406494l0 0c0 -2.5135498 2.0376358 -4.551178 4.5511856 -4.551178l0 0c1.2070465 0 2.3646545 0.47949982 3.2181702 1.3330078c0.853508 0.8535156 1.3330078 2.0111237 1.3330078 3.2181702l0 0c0 2.5135498 -2.0376358 4.5511856 -4.551178 4.5511856l0 0c-2.5135498 0 -4.5511856 -2.0376358 -4.5511856 -4.5511856z" fill-rule="evenodd"/><path fill="#b4a7d6" d="m95.623146 85.00687l0 0c0 -2.5135498 2.0376282 -4.5511856 4.551178 -4.5511856l0 0c1.2070465 0 2.3646622 0.47949982 3.2181702 1.3330154c0.8535156 0.853508 1.3330078 2.011116 1.3330078 3.2181702l0 0c0 2.5135422 -2.0376282 4.551178 -4.551178 4.551178l0 0c-2.5135498 0 -4.551178 -2.0376358 -4.551178 -4.551178z" fill-rule="evenodd"/><path fill="#b4a7d6" d="m110.67076 97.81689l0 0c0 -2.5135498 2.0376358 -4.5511856 4.5511856 -4.5511856l0 0c1.2070465 0 2.3646545 0.47949982 3.2181702 1.3330154c0.853508 0.853508 1.3330078 2.0111237 1.3330078 3.2181702l0 0c0 2.5135498 -2.0376282 4.551178 -4.551178 4.551178l0 0c-2.5135498 0 -4.5511856 -2.0376282 -4.5511856 -4.551178z" fill-rule="evenodd"/><path fill="#b4a7d6" d="m114.33241 72.19394l0 0c0 -2.5135498 2.0376282 -4.5511856 4.551178 -4.5511856l0 0c1.2070465 0 2.3646622 0.47949982 3.2181702 1.3330154c0.8535156 0.853508 1.3330078 2.011116 1.3330078 3.2181702l0 0c0 2.5135422 -2.0376282 4.551178 -4.551178 4.551178l0 0c-2.5135498 0 -4.551178 -2.0376358 -4.551178 -4.551178z" fill-rule="evenodd"/><path fill="#b4a7d6" d="m134.9219 75.90501l0 0c0 -2.5135498 2.0376282 -4.551178 4.551178 -4.551178l0 0c1.2070465 0 2.3646545 0.4794922 3.2181702 1.3330078c0.8535156 0.853508 1.3330078 2.0111237 1.3330078 3.2181702l0 0c0 2.5135498 -2.0376282 4.551178 -4.551178 4.551178l0 0c-2.5135498 0 -4.551178 -2.0376282 -4.551178 -4.551178z" fill-rule="evenodd"/><path fill="#b4a7d6" d="m144.02371 101.429146l0 0c0 -2.5135422 2.0376282 -4.551178 4.551178 -4.551178l0 0c1.2070465 0 2.3646545 0.47949982 3.2181702 1.3330078c0.8535156 0.8535156 1.3330078 2.0111237 1.3330078 3.2181702l0 0c0 2.5135498 -2.0376282 4.5511856 -4.551178 4.5511856l0 0c-2.5135498 0 -4.551178 -2.0376358 -4.551178 -4.5511856z" fill-rule="evenodd"/><path fill="#b4a7d6" d="m161.82338 88.71503l0 0c0 -2.5135498 2.0376282 -4.551178 4.551178 -4.551178l0 0c1.2070465 0 2.3646545 0.47949982 3.2181702 1.3330078c0.8535156 0.8535156 1.3330078 2.0111237 1.3330078 3.2181702l0 0c0 2.5135498 -2.0376282 4.5511856 -4.551178 4.5511856l0 0c-2.5135498 0 -4.551178 -2.0376358 -4.551178 -4.5511856z" fill-rule="evenodd"/><path fill="#b4a7d6" d="m170.92519 104.2713l0 0c0 -2.5135498 2.0376282 -4.5511856 4.551178 -4.5511856l0 0c1.2070465 0 2.3646545 0.47949982 3.2181702 1.3330154c0.8535156 0.853508 1.3330078 2.011116 1.3330078 3.2181702l0 0c0 2.5135422 -2.0376282 4.551178 -4.551178 4.551178l0 0c-2.5135498 0 -4.551178 -2.0376358 -4.551178 -4.551178z" fill-rule="evenodd"/><path fill="#b4a7d6" d="m188.81784 116.0206l0 0c0 -2.5135498 2.0376282 -4.551178 4.551178 -4.551178l0 0c1.2070465 0 2.3646698 0.4794922 3.2181702 1.3330078c0.8535156 0.853508 1.3330231 2.0111237 1.3330231 3.2181702l0 0c0 2.5135498 -2.0376434 4.551178 -4.551193 4.551178l0 0c-2.5135498 0 -4.551178 -2.0376282 -4.551178 -4.551178z" fill-rule="evenodd"/><path fill="#b4a7d6" d="m197.82666 97.81689l0 0c0 -2.5135498 2.0376282 -4.5511856 4.551178 -4.5511856l0 0c1.2070465 0 2.3646545 0.47949982 3.2181702 1.3330154c0.8535156 0.853508 1.3330078 2.0111237 1.3330078 3.2181702l0 0c0 2.5135498 -2.0376282 4.551178 -4.551178 4.551178l0 0c-2.5135498 0 -4.551178 -2.0376282 -4.551178 -4.551178z" fill-rule="evenodd"/><path fill="#b4a7d6" d="m184.55754 88.71503l0 0c0 -2.5135498 2.0376434 -4.551178 4.551193 -4.551178l0 0c1.2070465 0 2.3646545 0.47949982 3.2181702 1.3330078c0.85350037 0.8535156 1.3330078 2.0111237 1.3330078 3.2181702l0 0c0 2.5135498 -2.0376434 4.5511856 -4.551178 4.5511856l0 0c-2.5135498 0 -4.551193 -2.0376358 -4.551193 -4.5511856z" fill-rule="evenodd"/><path fill="#b4a7d6" d="m216.12616 104.2713l0 0c0 -2.5135498 2.0376434 -4.5511856 4.551193 -4.5511856l0 0c1.2070465 0 2.3646545 0.47949982 3.2181702 1.3330154c0.85350037 0.853508 1.3330078 2.011116 1.3330078 3.2181702l0 0c0 2.5135422 -2.0376434 4.551178 -4.551178 4.551178l0 0c-2.5135498 0 -4.551193 -2.0376358 -4.551193 -4.551178z" fill-rule="evenodd"/><path fill="#b4a7d6" d="m219.32866 85.00687l0 0c0 -2.5135498 2.0376282 -4.5511856 4.551178 -4.5511856l0 0c1.2070465 0 2.3646545 0.47949982 3.2181702 1.3330154c0.8535156 0.853508 1.3330078 2.011116 1.3330078 3.2181702l0 0c0 2.5135422 -2.0376282 4.551178 -4.551178 4.551178l0 0c-2.5135498 0 -4.551178 -2.0376358 -4.551178 -4.551178z" fill-rule="evenodd"/><path fill="#b4a7d6" d="m234.42567 66.80315l0 0c0 -2.5135422 2.0376282 -4.551178 4.551178 -4.551178l0 0c1.2070465 0 2.3646698 0.47949982 3.2181702 1.3330116c0.8535156 0.8535118 1.3330078 2.0111198 1.3330078 3.2181664l0 0c0 2.5135498 -2.0376282 4.5511856 -4.551178 4.5511856l0 0c-2.5135498 0 -4.551178 -2.0376358 -4.551178 -4.5511856z" fill-rule="evenodd"/><path fill="#b4a7d6" d="m247.69478 85.00687l0 0c0 -2.5135498 2.0376434 -4.5511856 4.551178 -4.5511856l0 0c1.2070618 0 2.3646698 0.47949982 3.2181854 1.3330154c0.8535156 0.853508 1.3330078 2.011116 1.3330078 3.2181702l0 0c0 2.5135422 -2.0376434 4.551178 -4.551193 4.551178l0 0c-2.5135345 0 -4.551178 -2.0376358 -4.551178 -4.551178z" fill-rule="evenodd"/><path fill="#000000" fill-opacity="0.0" d="m315.05975 163.56693l39.08661 0l0 23.149612l-39.08661 0z" fill-rule="evenodd"/><path fill="#000000" d="m324.60663 171.95547l2.671875 0l1.734375 2.8125l2.0625 -2.8125l2.828125 0l-3.59375 4.921875l3.046875 4.984375l-2.671875 0l-1.84375 -3.0l-2.21875 3.0l-2.828125 0l3.765625 -5.09375l-2.953125 -4.8125z" fill-rule="nonzero"/><path fill="#000000" fill-opacity="0.0" d="m-7.3372703 1.6929134l34.330708 0l0 23.149607l-34.330708 0z" fill-rule="evenodd"/><path fill="#000000" d="m2.0689797 10.081465l2.390625 0l1.9375 5.875l3.3749995 -5.875l2.625 0l-7.7812495 13.53125l-2.578125 0l2.828125 -4.96875l-2.796875 -8.5625z" fill-rule="nonzero"/><path fill="#000000" fill-opacity="0.0" d="m129.41077 23.11811l0 168.18896" fill-rule="evenodd"/><path stroke="#ff0000" stroke-width="2.0" stroke-linejoin="round" stroke-linecap="butt" stroke-dasharray="8.0,6.0" d="m129.41077 23.11811l0 168.18896" fill-rule="evenodd"/><path fill="#0000ff" d="m123.176384 81.797226l3.0224152 -3.0224228l3.2106552 3.2106552l3.2106476 -3.2106552l3.0224152 3.0224228l-3.2106476 3.2106476l3.2106476 3.2106476l-3.0224152 3.0224228l-3.2106476 -3.2106552l-3.2106552 3.2106552l-3.0224152 -3.0224228l3.2106476 -3.2106476z" fill-rule="evenodd"/><path fill="#000000" fill-opacity="0.0" d="m40.560368 191.30708l177.70079 0l0 14.740158l-177.70079 0z" fill-rule="evenodd"/><path fill="#ff0000" d="m63.863888 192.93716l2.0937462 0l4.921875 7.5625l0 -7.5625l2.1875 0l0 11.5l-2.09375 0l-4.921875 -7.546875l0 7.546875l-2.1874962 0l0 -11.5zm20.101559 7.859375l-6.84375 0q0.140625 0.90625 0.78125 1.453125q0.65625 0.53125 1.65625 0.53125q1.1875 0 2.046875 -0.84375l1.796875 0.84375q-0.671875 0.953125 -1.609375 1.421875q-0.9375 0.453125 -2.21875 0.453125q-2.0 0 -3.265625 -1.265625q-1.25 -1.265625 -1.25 -3.15625q0 -1.953125 1.25 -3.234375q1.25 -1.28125 3.140625 -1.28125q2.015625 0 3.265625 1.28125q1.265625 1.28125 1.265625 3.390625l-0.015625 0.40625zm-2.140625 -1.671875q-0.203125 -0.71875 -0.828125 -1.15625q-0.625 -0.453125 -1.4375 -0.453125q-0.890625 0 -1.5625 0.5q-0.421875 0.3125 -0.78125 1.109375l4.609375 0zm2.9296875 -3.1875l2.078125 0l1.71875 4.828125l1.84375 -4.828125l1.265625 0l1.8125 4.78125l1.703125 -4.78125l2.109375 0l-3.109375 8.5l-1.34375 0l-1.8125 -4.84375l-1.875 4.84375l-1.328125 0l-3.0625 -8.5zm23.882812 -3.28125q2.4375 0 4.1875 1.765625q1.75 1.765625 1.75 4.296875q0 2.515625 -1.734375 4.265625q-1.71875 1.75 -4.1875 1.75q-2.59375 0 -4.3125 -1.796875q-1.703125 -1.796875 -1.703125 -4.25q0 -1.65625 0.796875 -3.03125q0.796875 -1.390625 2.1875 -2.1875q1.40625 -0.8125 3.015625 -0.8125zm-0.03125 2.140625q-1.59375 0 -2.6875 1.109375q-1.078125 1.109375 -1.078125 2.8125q0 1.90625 1.375 3.015625q1.0625 0.875 2.4375 0.875q1.546875 0 2.640625 -1.125q1.09375 -1.125 1.09375 -2.78125q0 -1.640625 -1.109375 -2.765625q-1.09375 -1.140625 -2.671875 -1.140625zm9.921875 -2.140625l0 4.21875q0.578125 -0.578125 1.25 -0.859375q0.671875 -0.296875 1.4375 -0.296875q1.65625 0 2.8125 1.265625q1.171875 1.25 1.171875 3.21875q0 1.890625 -1.203125 3.171875q-1.203125 1.28125 -2.84375 1.28125q-0.734375 0 -1.375 -0.265625q-0.625 -0.265625 -1.25 -0.859375l0 0.90625l-2.125 0l0 -11.78125l2.125 0zm2.234375 5.03125q-1.0 0 -1.671875 0.6875q-0.65625 0.6875 -0.65625 1.796875q0 1.125 0.65625 1.828125q0.671875 0.703125 1.671875 0.703125q0.984375 0 1.640625 -0.703125q0.671875 -0.71875 0.671875 -1.828125q0 -1.09375 -0.65625 -1.78125q-0.65625 -0.703125 -1.65625 -0.703125zm11.406258 -0.5625l-1.3125 1.3125q-0.8125 -0.796875 -1.46875 -0.796875q-0.359375 0 -0.5625 0.15625q-0.203125 0.15625 -0.203125 0.375q0 0.171875 0.125 0.328125q0.140625 0.140625 0.640625 0.390625l0.78125 0.390625q1.234375 0.609375 1.6875 1.25q0.46875 0.625 0.46875 1.46875q0 1.140625 -0.828125 1.90625q-0.828125 0.75 -2.234375 0.75q-1.8593826 0 -2.9687576 -1.453125l1.3125 -1.4375q0.375 0.4375 0.8750076 0.71875q0.515625 0.265625 0.90625 0.265625q0.421875 0 0.671875 -0.203125q0.265625 -0.203125 0.265625 -0.46875q0 -0.5 -0.9375 -0.96875l-0.71875 -0.359375q-2.0625076 -1.03125 -2.0625076 -2.59375q0 -1.015625 0.78125 -1.71875q0.7812576 -0.71875 1.9843826 -0.71875q0.828125 0 1.5625 0.359375q0.734375 0.359375 1.234375 1.046875zm10.3515625 3.671875l-6.84375 0q0.140625 0.90625 0.78125 1.453125q0.65625 0.53125 1.65625 0.53125q1.1875 0 2.046875 -0.84375l1.796875 0.84375q-0.671875 0.953125 -1.609375 1.421875q-0.9375 0.453125 -2.21875 0.453125q-2.0 0 -3.265625 -1.265625q-1.25 -1.265625 -1.25 -3.15625q0 -1.953125 1.25 -3.234375q1.25 -1.28125 3.140625 -1.28125q2.015625 0 3.265625 1.28125q1.265625 1.28125 1.265625 3.390625l-0.015625 0.40625zm-2.140625 -1.671875q-0.203125 -0.71875 -0.828125 -1.15625q-0.625 -0.453125 -1.4375 -0.453125q-0.890625 0 -1.5625 0.5q-0.421875 0.3125 -0.78125 1.109375l4.609375 0zm3.3671875 -3.1875l1.828125 0l0 1.0625q0.296875 -0.625 0.78125 -0.953125q0.5 -0.328125 1.09375 -0.328125q0.40625 0 0.859375 0.21875l-0.65625 1.828125q-0.375 -0.1875 -0.625 -0.1875q-0.484375 0 -0.828125 0.609375q-0.34375 0.609375 -0.34375 2.390625l0.015625 0.421875l0 3.4375l-2.125 0l0 -8.5zm4.7109375 0l2.171875 0l2.140625 5.015625l2.140625 -5.015625l2.171875 0l-3.625 8.5l-1.375 0l-3.625 -8.5zm16.148438 0l2.125 0l0 8.5l-2.125 0l0 -0.90625q-0.625 0.59375 -1.25 0.859375q-0.625 0.265625 -1.359375 0.265625q-1.65625 0 -2.859375 -1.28125q-1.203125 -1.28125 -1.203125 -3.171875q0 -1.96875 1.15625 -3.21875q1.171875 -1.265625 2.84375 -1.265625q0.765625 0 1.4375 0.296875q0.671875 0.28125 1.234375 0.859375l0 -0.9375zm-2.234375 1.75q-1.0 0 -1.65625 0.703125q-0.65625 0.6875 -0.65625 1.78125q0 1.109375 0.671875 1.828125q0.671875 0.703125 1.640625 0.703125q1.015625 0 1.671875 -0.703125q0.671875 -0.703125 0.671875 -1.828125q0 -1.109375 -0.671875 -1.796875q-0.65625 -0.6875 -1.671875 -0.6875zm6.78125 -4.890625l2.125 0l0 3.140625l1.265625 0l0 1.828125l-1.265625 0l0 6.671875l-2.125 0l0 -6.671875l-1.09375 0l0 -1.828125l1.09375 0l0 -3.140625zm5.375 -0.359375q0.5625 0 0.953125 0.40625q0.40625 0.40625 0.40625 0.984375q0 0.5625 -0.40625 0.96875q-0.390625 0.40625 -0.9375 0.40625q-0.578125 0 -0.984375 -0.40625q-0.390625 -0.421875 -0.390625 -1.0q0 -0.5625 0.390625 -0.953125q0.40625 -0.40625 0.96875 -0.40625zm-1.078125 3.5l2.140625 0l0 8.5l-2.140625 0l0 -8.5zm8.0703125 -0.21875q1.203125 0 2.25 0.609375q1.0625 0.59375 1.65625 1.625q0.59375 1.03125 0.59375 2.21875q0 1.203125 -0.59375 2.25q-0.59375 1.046875 -1.625 1.640625q-1.03125 0.59375 -2.28125 0.59375q-1.828125 0 -3.125 -1.296875q-1.28125 -1.3125 -1.28125 -3.171875q0 -1.984375 1.453125 -3.3125q1.28125 -1.15625 2.953125 -1.15625zm0.03125 2.0q-1.0 0 -1.65625 0.703125q-0.65625 0.6875 -0.65625 1.765625q0 1.109375 0.640625 1.796875q0.65625 0.6875 1.65625 0.6875q1.0 0 1.65625 -0.6875q0.671875 -0.703125 0.671875 -1.796875q0 -1.09375 -0.65625 -1.78125q-0.640625 -0.6875 -1.65625 -0.6875zm6.2109375 -1.78125l2.125 0l0 0.859375q0.734375 -0.609375 1.3125 -0.84375q0.59375 -0.234375 1.21875 -0.234375q1.265625 0 2.140625 0.875q0.75 0.75 0.75 2.21875l0 5.625l-2.109375 0l0 -3.734375q0 -1.515625 -0.140625 -2.015625q-0.140625 -0.5 -0.484375 -0.765625q-0.328125 -0.265625 -0.828125 -0.265625q-0.65625 0 -1.125 0.4375q-0.453125 0.4375 -0.640625 1.203125q-0.09375 0.390625 -0.09375 1.71875l0 3.421875l-2.125 0l0 -8.5z" fill-rule="nonzero"/><path fill="#000000" fill-opacity="0.0" d="m424.58398 175.14174l0 -150.29922" fill-rule="evenodd"/><path stroke="#000000" stroke-width="2.0" stroke-linejoin="round" stroke-linecap="butt" d="m424.58398 175.14174l0 -143.44504" fill-rule="evenodd"/><path fill="#000000" stroke="#000000" stroke-width="2.0" stroke-linecap="butt" d="m424.58398 31.696693l2.249176 2.2491646l-2.249176 -6.179533l-2.249176 6.179533z" fill-rule="evenodd"/><path fill="#000000" fill-opacity="0.0" d="m424.58398 175.14174l305.22833 0" fill-rule="evenodd"/><path stroke="#000000" stroke-width="2.0" stroke-linejoin="round" stroke-linecap="butt" d="m424.58398 175.14174l298.3742 0" fill-rule="evenodd"/><path fill="#000000" stroke="#000000" stroke-width="2.0" stroke-linecap="butt" d="m722.9582 175.14174l-2.2492065 2.2491608l6.1795654 -2.2491608l-6.1795654 -2.249176z" fill-rule="evenodd"/><path fill="#b4a7d6" d="m441.74933 152.67505l0 0c0 -2.5135498 2.0376587 -4.551178 4.5512085 -4.551178l0 0c1.2070312 0 2.3646545 0.4794922 3.2181702 1.3330078c0.8535156 0.8535156 1.3330078 2.0111237 1.3330078 3.2181702l0 0c0 2.5135498 -2.0376282 4.551178 -4.551178 4.551178l0 0c-2.5135498 0 -4.5512085 -2.0376282 -4.5512085 -4.551178z" fill-rule="evenodd"/><path fill="#b4a7d6" d="m456.3901 127.508354l0 0c0 -2.5135498 2.0376282 -4.5511856 4.551178 -4.5511856l0 0c1.2070618 0 2.364685 0.47949982 3.2181702 1.3330154c0.8535156 0.853508 1.3330078 2.0111237 1.3330078 3.2181702l0 0c0 2.5135422 -2.0376282 4.5511856 -4.551178 4.5511856l0 0c-2.5135498 0 -4.551178 -2.0376434 -4.551178 -4.5511856z" fill-rule="evenodd"/><path fill="#b4a7d6" d="m471.49005 143.57318l0 0c0 -2.5135345 2.0376282 -4.551178 4.551178 -4.551178l0 0c1.2070312 0 2.3646545 0.47950745 3.2181702 1.3330078c0.8535156 0.8535156 1.3330078 2.0111237 1.3330078 3.2181702l0 0c0 2.5135498 -2.0376282 4.551193 -4.551178 4.551193l0 0c-2.5135498 0 -4.551178 -2.0376434 -4.551178 -4.551193z" fill-rule="evenodd"/><path fill="#b4a7d6" d="m484.3 127.508354l0 0c0 -2.5135498 2.0376282 -4.5511856 4.551178 -4.5511856l0 0c1.2070618 0 2.3646545 0.47949982 3.2181702 1.3330154c0.8535156 0.853508 1.3330078 2.0111237 1.3330078 3.2181702l0 0c0 2.5135422 -2.0376282 4.5511856 -4.551178 4.5511856l0 0c-2.5135498 0 -4.551178 -2.0376434 -4.551178 -4.5511856z" fill-rule="evenodd"/><path fill="#b4a7d6" d="m495.2791 106.91874l0 0c0 -2.5135422 2.0376282 -4.551178 4.551178 -4.551178l0 0c1.2070618 0 2.3646545 0.47949982 3.2181702 1.3330078c0.8535156 0.8535156 1.3330078 2.0111237 1.3330078 3.2181702l0 0c0 2.5135498 -2.0376282 4.5511856 -4.551178 4.5511856l0 0c-2.5135498 0 -4.551178 -2.0376358 -4.551178 -4.5511856z" fill-rule="evenodd"/><path fill="#b4a7d6" d="m507.6328 118.406494l0 0c0 -2.5135498 2.0376282 -4.551178 4.5512085 -4.551178l0 0c1.2070312 0 2.364624 0.47949982 3.2181396 1.3330078c0.8535156 0.8535156 1.3330078 2.0111237 1.3330078 3.2181702l0 0c0 2.5135498 -2.0375977 4.5511856 -4.5511475 4.5511856l0 0c-2.5135803 0 -4.5512085 -2.0376358 -4.5512085 -4.5511856z" fill-rule="evenodd"/><path fill="#b4a7d6" d="m510.37906 85.00687l0 0c0 -2.5135498 2.0376282 -4.5511856 4.551178 -4.5511856l0 0c1.2070312 0 2.364624 0.47949982 3.2181396 1.3330154c0.8535156 0.853508 1.3330078 2.011116 1.3330078 3.2181702l0 0c0 2.5135422 -2.0375977 4.551178 -4.5511475 4.551178l0 0c-2.5135498 0 -4.551178 -2.0376358 -4.551178 -4.551178z" fill-rule="evenodd"/><path fill="#b4a7d6" d="m525.4267 97.81689l0 0c0 -2.5135498 2.0375977 -4.5511856 4.5511475 -4.5511856l0 0c1.2070312 0 2.364685 0.47949982 3.2182007 1.3330154c0.8535156 0.853508 1.3330078 2.0111237 1.3330078 3.2181702l0 0c0 2.5135498 -2.0376587 4.551178 -4.5512085 4.551178l0 0c-2.5135498 0 -4.5511475 -2.0376282 -4.5511475 -4.551178z" fill-rule="evenodd"/><path fill="#b4a7d6" d="m529.0883 72.19394l0 0c0 -2.5135498 2.0376587 -4.5511856 4.5512085 -4.5511856l0 0c1.2070312 0 2.364624 0.47949982 3.2181396 1.3330154c0.8535156 0.853508 1.3330078 2.011116 1.3330078 3.2181702l0 0c0 2.5135422 -2.0376587 4.551178 -4.5511475 4.551178l0 0c-2.5135498 0 -4.5512085 -2.0376358 -4.5512085 -4.551178z" fill-rule="evenodd"/><path fill="#b4a7d6" d="m549.6778 75.90501l0 0c0 -2.5135498 2.0376587 -4.551178 4.5512085 -4.551178l0 0c1.2070312 0 2.364624 0.4794922 3.2181396 1.3330078c0.8535156 0.853508 1.3330078 2.0111237 1.3330078 3.2181702l0 0c0 2.5135498 -2.0375977 4.551178 -4.5511475 4.551178l0 0c-2.5135498 0 -4.5512085 -2.0376282 -4.5512085 -4.551178z" fill-rule="evenodd"/><path fill="#b4a7d6" d="m558.7796 101.429146l0 0c0 -2.5135422 2.0376587 -4.551178 4.5512085 -4.551178l0 0c1.2070312 0 2.364624 0.47949982 3.2181396 1.3330078c0.8535156 0.8535156 1.3330078 2.0111237 1.3330078 3.2181702l0 0c0 2.5135498 -2.0375977 4.5511856 -4.5511475 4.5511856l0 0c-2.5135498 0 -4.5512085 -2.0376358 -4.5512085 -4.5511856z" fill-rule="evenodd"/><path fill="#b4a7d6" d="m576.5793 88.71503l0 0c0 -2.5135498 2.0376587 -4.551178 4.5511475 -4.551178l0 0c1.2070923 0 2.364685 0.47949982 3.2182007 1.3330078c0.8535156 0.8535156 1.3330078 2.0111237 1.3330078 3.2181702l0 0c0 2.5135498 -2.0376587 4.5511856 -4.5512085 4.5511856l0 0c-2.5134888 0 -4.5511475 -2.0376358 -4.5511475 -4.5511856z" fill-rule="evenodd"/><path fill="#b4a7d6" d="m585.6811 104.2713l0 0c0 -2.5135498 2.0376587 -4.5511856 4.5511475 -4.5511856l0 0c1.2070923 0 2.364685 0.47949982 3.2182007 1.3330154c0.8535156 0.853508 1.3330078 2.011116 1.3330078 3.2181702l0 0c0 2.5135422 -2.0376587 4.551178 -4.5512085 4.551178l0 0c-2.5134888 0 -4.5511475 -2.0376358 -4.5511475 -4.551178z" fill-rule="evenodd"/><path fill="#b4a7d6" d="m603.5737 116.0206l0 0c0 -2.5135498 2.0376587 -4.551178 4.5512085 -4.551178l0 0c1.2070312 0 2.364624 0.4794922 3.2181396 1.3330078c0.8535156 0.853508 1.3330078 2.0111237 1.3330078 3.2181702l0 0c0 2.5135498 -2.0375977 4.551178 -4.5511475 4.551178l0 0c-2.5135498 0 -4.5512085 -2.0376282 -4.5512085 -4.551178z" fill-rule="evenodd"/><path fill="#b4a7d6" d="m612.5826 97.81689l0 0c0 -2.5135498 2.0375977 -4.5511856 4.5511475 -4.5511856l0 0c1.2070312 0 2.364685 0.47949982 3.2182007 1.3330154c0.8535156 0.853508 1.3330078 2.0111237 1.3330078 3.2181702l0 0c0 2.5135498 -2.0376587 4.551178 -4.5512085 4.551178l0 0c-2.5135498 0 -4.5511475 -2.0376282 -4.5511475 -4.551178z" fill-rule="evenodd"/><path fill="#b4a7d6" d="m599.3135 88.71503l0 0c0 -2.5135498 2.0375977 -4.551178 4.5511475 -4.551178l0 0c1.2070312 0 2.364685 0.47949982 3.2182007 1.3330078c0.8535156 0.8535156 1.3330078 2.0111237 1.3330078 3.2181702l0 0c0 2.5135498 -2.0376587 4.5511856 -4.5512085 4.5511856l0 0c-2.5135498 0 -4.5511475 -2.0376358 -4.5511475 -4.5511856z" fill-rule="evenodd"/><path fill="#b4a7d6" d="m630.8821 104.2713l0 0c0 -2.5135498 2.0375977 -4.5511856 4.5511475 -4.5511856l0 0c1.2070923 0 2.364685 0.47949982 3.2182007 1.3330154c0.8535156 0.853508 1.3330078 2.011116 1.3330078 3.2181702l0 0c0 2.5135422 -2.0376587 4.551178 -4.5512085 4.551178l0 0c-2.5135498 0 -4.5511475 -2.0376358 -4.5511475 -4.551178z" fill-rule="evenodd"/><path fill="#b4a7d6" d="m634.08453 85.00687l0 0c0 -2.5135498 2.0376587 -4.5511856 4.5512085 -4.5511856l0 0c1.2070312 0 2.364685 0.47949982 3.2181396 1.3330154c0.8535156 0.853508 1.3330078 2.011116 1.3330078 3.2181702l0 0c0 2.5135422 -2.0375977 4.551178 -4.5511475 4.551178l0 0c-2.5135498 0 -4.5512085 -2.0376358 -4.5512085 -4.551178z" fill-rule="evenodd"/><path fill="#b4a7d6" d="m649.1816 66.80315l0 0c0 -2.5135422 2.0376587 -4.551178 4.5512085 -4.551178l0 0c1.2070312 0 2.364624 0.47949982 3.2181396 1.3330116c0.8535156 0.8535118 1.3330078 2.0111198 1.3330078 3.2181664l0 0c0 2.5135498 -2.0375977 4.5511856 -4.5511475 4.5511856l0 0c-2.5135498 0 -4.5512085 -2.0376358 -4.5512085 -4.5511856z" fill-rule="evenodd"/><path fill="#b4a7d6" d="m662.4507 85.00687l0 0c0 -2.5135498 2.0376587 -4.5511856 4.5512085 -4.5511856l0 0c1.2070312 0 2.364624 0.47949982 3.2181396 1.3330154c0.8535156 0.853508 1.3330078 2.011116 1.3330078 3.2181702l0 0c0 2.5135422 -2.0375977 4.551178 -4.5511475 4.551178l0 0c-2.5135498 0 -4.5512085 -2.0376358 -4.5512085 -4.551178z" fill-rule="evenodd"/><path fill="#000000" fill-opacity="0.0" d="m729.8157 163.56693l39.08661 0l0 23.149612l-39.08661 0z" fill-rule="evenodd"/><path fill="#000000" d="m739.36255 171.95547l2.671875 0l1.734375 2.8125l2.0625 -2.8125l2.828125 0l-3.59375 4.921875l3.046875 4.984375l-2.671875 0l-1.84375 -3.0l-2.21875 3.0l-2.828125 0l3.765625 -5.09375l-2.953125 -4.8125z" fill-rule="nonzero"/><path fill="#000000" fill-opacity="0.0" d="m407.41864 1.6929134l34.33069 0l0 23.149607l-34.33069 0z" fill-rule="evenodd"/><path fill="#000000" d="m416.8249 10.081465l2.390625 0l1.9375 5.875l3.375 -5.875l2.625 0l-7.78125 13.53125l-2.578125 0l2.828125 -4.96875l-2.796875 -8.5625z" fill-rule="nonzero"/><path fill="#000000" fill-opacity="0.0" d="m694.1273 23.11811l0 168.18896" fill-rule="evenodd"/><path stroke="#ff0000" stroke-width="2.0" stroke-linejoin="round" stroke-linecap="butt" stroke-dasharray="8.0,6.0" d="m694.1273 23.11811l0 168.18896" fill-rule="evenodd"/><path fill="#0000ff" d="m687.89294 59.057068l3.0224 -3.022419l3.2106323 3.2106514l3.2106323 -3.2106514l3.022461 3.022419l-3.2106934 3.2106476l3.2106934 3.2106552l-3.022461 3.0224152l-3.2106323 -3.2106552l-3.2106323 3.2106552l-3.0224 -3.0224152l3.2106323 -3.2106552z" fill-rule="evenodd"/><path fill="#000000" fill-opacity="0.0" d="m605.2769 191.30708l177.70074 0l0 14.740158l-177.70074 0z" fill-rule="evenodd"/><path fill="#ff0000" d="m628.58044 192.93716l2.09375 0l4.921875 7.5625l0 -7.5625l2.1875 0l0 11.5l-2.09375 0l-4.921875 -7.546875l0 7.546875l-2.1875 0l0 -11.5zm20.101562 7.859375l-6.84375 0q0.140625 0.90625 0.78125 1.453125q0.65625 0.53125 1.65625 0.53125q1.1875 0 2.046875 -0.84375l1.796875 0.84375q-0.671875 0.953125 -1.609375 1.421875q-0.9375 0.453125 -2.21875 0.453125q-2.0 0 -3.265625 -1.265625q-1.25 -1.265625 -1.25 -3.15625q0 -1.953125 1.25 -3.234375q1.25 -1.28125 3.140625 -1.28125q2.015625 0 3.265625 1.28125q1.265625 1.28125 1.265625 3.390625l-0.015625 0.40625zm-2.140625 -1.671875q-0.203125 -0.71875 -0.828125 -1.15625q-0.625 -0.453125 -1.4375 -0.453125q-0.890625 0 -1.5625 0.5q-0.421875 0.3125 -0.78125 1.109375l4.609375 0zm2.9296875 -3.1875l2.078125 0l1.71875 4.828125l1.84375 -4.828125l1.265625 0l1.8125 4.78125l1.703125 -4.78125l2.109375 0l-3.109375 8.5l-1.34375 0l-1.8125 -4.84375l-1.875 4.84375l-1.328125 0l-3.0625 -8.5zm23.882812 -3.28125q2.4375 0 4.1875 1.765625q1.75 1.765625 1.75 4.296875q0 2.515625 -1.734375 4.265625q-1.71875 1.75 -4.1875 1.75q-2.59375 0 -4.3125 -1.796875q-1.703125 -1.796875 -1.703125 -4.25q0 -1.65625 0.796875 -3.03125q0.796875 -1.390625 2.1875 -2.1875q1.40625 -0.8125 3.015625 -0.8125zm-0.03125 2.140625q-1.59375 0 -2.6875 1.109375q-1.078125 1.109375 -1.078125 2.8125q0 1.90625 1.375 3.015625q1.0625 0.875 2.4375 0.875q1.546875 0 2.640625 -1.125q1.09375 -1.125 1.09375 -2.78125q0 -1.640625 -1.109375 -2.765625q-1.09375 -1.140625 -2.671875 -1.140625zm9.921875 -2.140625l0 4.21875q0.578125 -0.578125 1.25 -0.859375q0.671875 -0.296875 1.4375 -0.296875q1.65625 0 2.8125 1.265625q1.171875 1.25 1.171875 3.21875q0 1.890625 -1.203125 3.171875q-1.203125 1.28125 -2.84375 1.28125q-0.734375 0 -1.375 -0.265625q-0.625 -0.265625 -1.25 -0.859375l0 0.90625l-2.125 0l0 -11.78125l2.125 0zm2.234375 5.03125q-1.0 0 -1.671875 0.6875q-0.65625 0.6875 -0.65625 1.796875q0 1.125 0.65625 1.828125q0.671875 0.703125 1.671875 0.703125q0.984375 0 1.640625 -0.703125q0.671875 -0.71875 0.671875 -1.828125q0 -1.09375 -0.65625 -1.78125q-0.65625 -0.703125 -1.65625 -0.703125zm11.40625 -0.5625l-1.3125 1.3125q-0.8125 -0.796875 -1.46875 -0.796875q-0.359375 0 -0.5625 0.15625q-0.203125 0.15625 -0.203125 0.375q0 0.171875 0.125 0.328125q0.140625 0.140625 0.640625 0.390625l0.78125 0.390625q1.234375 0.609375 1.6875 1.25q0.46875 0.625 0.46875 1.46875q0 1.140625 -0.828125 1.90625q-0.828125 0.75 -2.234375 0.75q-1.859375 0 -2.96875 -1.453125l1.3125 -1.4375q0.375 0.4375 0.875 0.71875q0.515625 0.265625 0.90625 0.265625q0.421875 0 0.671875 -0.203125q0.265625 -0.203125 0.265625 -0.46875q0 -0.5 -0.9375 -0.96875l-0.71875 -0.359375q-2.0625 -1.03125 -2.0625 -2.59375q0 -1.015625 0.78125 -1.71875q0.78125 -0.71875 1.984375 -0.71875q0.828125 0 1.5625 0.359375q0.734375 0.359375 1.234375 1.046875zm10.3515625 3.671875l-6.84375 0q0.140625 0.90625 0.78125 1.453125q0.65625 0.53125 1.65625 0.53125q1.1875 0 2.046875 -0.84375l1.796875 0.84375q-0.671875 0.953125 -1.609375 1.421875q-0.9375 0.453125 -2.21875 0.453125q-2.0 0 -3.265625 -1.265625q-1.25 -1.265625 -1.25 -3.15625q0 -1.953125 1.25 -3.234375q1.25 -1.28125 3.140625 -1.28125q2.015625 0 3.265625 1.28125q1.265625 1.28125 1.265625 3.390625l-0.015625 0.40625zm-2.140625 -1.671875q-0.203125 -0.71875 -0.828125 -1.15625q-0.625 -0.453125 -1.4375 -0.453125q-0.890625 0 -1.5625 0.5q-0.421875 0.3125 -0.78125 1.109375l4.609375 0zm3.3671875 -3.1875l1.828125 0l0 1.0625q0.296875 -0.625 0.78125 -0.953125q0.5 -0.328125 1.09375 -0.328125q0.40625 0 0.859375 0.21875l-0.65625 1.828125q-0.375 -0.1875 -0.625 -0.1875q-0.484375 0 -0.828125 0.609375q-0.34375 0.609375 -0.34375 2.390625l0.015625 0.421875l0 3.4375l-2.125 0l0 -8.5zm4.7109375 0l2.171875 0l2.140625 5.015625l2.140625 -5.015625l2.171875 0l-3.625 8.5l-1.375 0l-3.625 -8.5zm16.148438 0l2.125 0l0 8.5l-2.125 0l0 -0.90625q-0.625 0.59375 -1.25 0.859375q-0.625 0.265625 -1.359375 0.265625q-1.65625 0 -2.859375 -1.28125q-1.203125 -1.28125 -1.203125 -3.171875q0 -1.96875 1.15625 -3.21875q1.171875 -1.265625 2.84375 -1.265625q0.765625 0 1.4375 0.296875q0.671875 0.28125 1.234375 0.859375l0 -0.9375zm-2.234375 1.75q-1.0 0 -1.65625 0.703125q-0.65625 0.6875 -0.65625 1.78125q0 1.109375 0.671875 1.828125q0.671875 0.703125 1.640625 0.703125q1.015625 0 1.671875 -0.703125q0.671875 -0.703125 0.671875 -1.828125q0 -1.109375 -0.671875 -1.796875q-0.65625 -0.6875 -1.671875 -0.6875zm6.78125 -4.890625l2.125 0l0 3.140625l1.265625 0l0 1.828125l-1.265625 0l0 6.671875l-2.125 0l0 -6.671875l-1.09375 0l0 -1.828125l1.09375 0l0 -3.140625zm5.375 -0.359375q0.5625 0 0.953125 0.40625q0.40625 0.40625 0.40625 0.984375q0 0.5625 -0.40625 0.96875q-0.390625 0.40625 -0.9375 0.40625q-0.578125 0 -0.984375 -0.40625q-0.390625 -0.421875 -0.390625 -1.0q0 -0.5625 0.390625 -0.953125q0.40625 -0.40625 0.96875 -0.40625zm-1.078125 3.5l2.140625 0l0 8.5l-2.140625 0l0 -8.5zm8.0703125 -0.21875q1.203125 0 2.25 0.609375q1.0625 0.59375 1.65625 1.625q0.59375 1.03125 0.59375 2.21875q0 1.203125 -0.59375 2.25q-0.59375 1.046875 -1.625 1.640625q-1.03125 0.59375 -2.28125 0.59375q-1.828125 0 -3.125 -1.296875q-1.28125 -1.3125 -1.28125 -3.171875q0 -1.984375 1.453125 -3.3125q1.28125 -1.15625 2.953125 -1.15625zm0.03125 2.0q-1.0 0 -1.65625 0.703125q-0.65625 0.6875 -0.65625 1.765625q0 1.109375 0.640625 1.796875q0.65625 0.6875 1.65625 0.6875q1.0 0 1.65625 -0.6875q0.671875 -0.703125 0.671875 -1.796875q0 -1.09375 -0.65625 -1.78125q-0.640625 -0.6875 -1.65625 -0.6875zm6.2109375 -1.78125l2.125 0l0 0.859375q0.734375 -0.609375 1.3125 -0.84375q0.59375 -0.234375 1.21875 -0.234375q1.265625 0 2.140625 0.875q0.75 0.75 0.75 2.21875l0 5.625l-2.109375 0l0 -3.734375q0 -1.515625 -0.140625 -2.015625q-0.140625 -0.5 -0.484375 -0.765625q-0.328125 -0.265625 -0.828125 -0.265625q-0.65625 0 -1.125 0.4375q-0.453125 0.4375 -0.640625 1.203125q-0.09375 0.390625 -0.09375 1.71875l0 3.421875l-2.125 0l0 -8.5z" fill-rule="nonzero"/><path fill="#cfe2f3" d="m41.001312 232.31769l0 0c0 -2.7571259 2.235096 -4.9922333 4.9922256 -4.9922333l205.16516 0c1.3240204 0 2.593811 0.52597046 3.5300446 1.4621887c0.93621826 0.9362335 1.4621735 2.2060242 1.4621735 3.5300446l0 19.968307c0 2.7571259 -2.2350922 4.9922333 -4.992218 4.9922333l-205.16516 0c-2.7571297 0 -4.9922256 -2.2351074 -4.9922256 -4.9922333z" fill-rule="evenodd"/><path fill="#000000" d="m61.529243 233.60747l3.265625 0l0 17.234375l-3.265625 0l0 -17.234375zm6.9648438 0l3.140625 0l7.390625 11.34375l0 -11.34375l3.28125 0l0 17.234375l-3.15625 0l-7.375 -11.3125l0 11.3125l-3.28125 0l0 -17.234375zm16.035156 0l9.53125 0l0 3.234375l-3.140625 0l0 14.0l-3.328125 0l0 -14.0l-3.0625 0l0 -3.234375zm11.796875 0l9.40625 0l0 3.203125l-6.15625 0l0 3.125l6.15625 0l0 3.140625l-6.15625 0l0 4.546875l6.15625 0l0 3.21875l-9.40625 0l0 -17.234375zm12.683594 0l3.484375 0q2.859375 0 4.0625 0.515625q1.21875 0.5 1.953125 1.6875q0.75 1.171875 0.75 2.796875q0 1.703125 -0.8125 2.84375q-0.8125 1.140625 -2.453125 1.71875l4.078125 7.671875l-3.59375 0l-3.875 -7.296875l-0.3125 0l0 7.296875l-3.28125 0l0 -17.234375zm3.28125 6.734375l1.03125 0q1.578125 0 2.171875 -0.40625q0.59375 -0.421875 0.59375 -1.359375q0 -0.5625 -0.296875 -0.984375q-0.296875 -0.421875 -0.796875 -0.59375q-0.484375 -0.1875 -1.796875 -0.1875l-0.90625 0l0 3.53125zm10.40625 -6.734375l3.484375 0q2.8281174 0 4.0781174 0.515625q1.25 0.515625 1.96875 1.6875q0.71875 1.171875 0.71875 2.796875q0 1.796875 -0.953125 3.0q-0.9375 1.1875 -2.546875 1.65625q-0.953125 0.28125 -3.4687424 0.28125l0 7.296875l-3.28125 0l0 -17.234375zm3.28125 6.734375l1.046875 0q1.2343674 0 1.7031174 -0.171875q0.484375 -0.1875 0.765625 -0.578125q0.28125 -0.40625 0.28125 -0.984375q0 -1.0 -0.78125 -1.453125q-0.5625 -0.34375 -2.0781174 -0.34375l-0.9375 0l0 3.53125zm18.316399 -7.171875q3.65625 0 6.28125 2.65625q2.640625 2.640625 2.640625 6.453125q0 3.765625 -2.59375 6.390625q-2.59375 2.609375 -6.296875 2.609375q-3.875 0 -6.453125 -2.6875q-2.5625 -2.6875 -2.5625 -6.375q0 -2.46875 1.1875 -4.546875q1.203125 -2.078125 3.296875 -3.28125q2.09375 -1.21875 4.5 -1.21875zm-0.03125 3.203125q-2.390625 0 -4.015625 1.671875q-1.625 1.65625 -1.625 4.234375q0 2.859375 2.046875 4.515625q1.59375 1.296875 3.65625 1.296875q2.328125 0 3.96875 -1.6875q1.640625 -1.6875 1.640625 -4.15625q0 -2.453125 -1.65625 -4.15625q-1.640625 -1.71875 -4.015625 -1.71875zm12.046875 -2.765625l3.28125 0l0 14.109375l4.78125 0l0 3.125l-8.0625 0l0 -17.234375zm15.808609 0l3.328125 0l6.640625 17.234375l-3.421875 0l-1.34375 -3.546875l-7.0312653 0l-1.40625 3.546875l-3.40625 0l6.6406403 -17.234375zm1.6875 4.5625l-2.296875 5.921875l4.578125 0l-2.28125 -5.921875zm9.113281 -4.5625l9.53125 0l0 3.234375l-3.140625 0l0 14.0l-3.328125 0l0 -14.0l-3.0625 0l0 -3.234375zm11.546875 0l3.265625 0l0 17.234375l-3.265625 0l0 -17.234375zm15.089844 -0.4375q3.65625 0 6.28125 2.65625q2.640625 2.640625 2.640625 6.453125q0 3.765625 -2.59375 6.390625q-2.59375 2.609375 -6.296875 2.609375q-3.875 0 -6.453125 -2.6875q-2.5625 -2.6875 -2.5625 -6.375q0 -2.46875 1.1875 -4.546875q1.203125 -2.078125 3.296875 -3.28125q2.09375 -1.21875 4.5 -1.21875zm-0.03125 3.203125q-2.390625 0 -4.015625 1.671875q-1.625 1.65625 -1.625 4.234375q0 2.859375 2.046875 4.515625q1.59375 1.296875 3.65625 1.296875q2.328125 0 3.96875 -1.6875q1.640625 -1.6875 1.640625 -4.15625q0 -2.453125 -1.65625 -4.15625q-1.640625 -1.71875 -4.015625 -1.71875zm12.0625 -2.765625l3.140625 0l7.390625 11.34375l0 -11.34375l3.28125 0l0 17.234375l-3.15625 0l-7.375 -11.3125l0 11.3125l-3.28125 0l0 -17.234375z" fill-rule="nonzero"/><path fill="#cfe2f3" d="m473.5551 232.31769l0 0c0 -2.7571259 2.2351074 -4.9922333 4.992218 -4.9922333l205.16519 0c1.3239746 0 2.593811 0.52597046 3.5300293 1.4621887c0.93621826 0.9362335 1.4621582 2.2060242 1.4621582 3.5300446l0 19.968307c0 2.7571259 -2.2351074 4.9922333 -4.9921875 4.9922333l-205.16519 0c-2.7571106 0 -4.992218 -2.2351074 -4.992218 -4.9922333z" fill-rule="evenodd"/><path fill="#000000" d="m489.52835 233.60747l9.40625 0l0 3.203125l-6.15625 0l0 3.125l6.15625 0l0 3.140625l-6.15625 0l0 4.546875l6.15625 0l0 3.21875l-9.40625 0l0 -17.234375zm11.339844 0l3.6875 0l3.609375 5.515625l3.65625 -5.515625l3.6875305 0l-5.4844055 8.34375l5.8281555 8.890625l-3.703125 0l-3.9844055 -6.0625l-3.9375 6.0625l-3.71875 0l5.828125 -8.890625l-5.46875 -8.34375zm15.746124 0l9.53125 0l0 3.234375l-3.140625 0l0 14.0l-3.328125 0l0 -14.0l-3.0625 0l0 -3.234375zm12.0 0l3.484375 0q2.859375 0 4.0625 0.515625q1.21875 0.5 1.953125 1.6875q0.75 1.171875 0.75 2.796875q0 1.703125 -0.8125 2.84375q-0.8125 1.140625 -2.453125 1.71875l4.078125 7.671875l-3.59375 0l-3.875 -7.296875l-0.3125 0l0 7.296875l-3.28125 0l0 -17.234375zm3.28125 6.734375l1.03125 0q1.578125 0 2.171875 -0.40625q0.59375 -0.421875 0.59375 -1.359375q0 -0.5625 -0.296875 -0.984375q-0.296875 -0.421875 -0.796875 -0.59375q-0.484375 -0.1875 -1.796875 -0.1875l-0.90625 0l0 3.53125zm15.671875 -6.734375l3.328125 0l6.640625 17.234375l-3.421875 0l-1.34375 -3.546875l-7.03125 0l-1.40625 3.546875l-3.40625 0l6.640625 -17.234375zm1.6875 4.5625l-2.296875 5.921875l4.578125 0l-2.28125 -5.921875zm10.800781 -4.5625l3.484375 0q2.828125 0 4.078125 0.515625q1.25 0.515625 1.96875 1.6875q0.71875 1.171875 0.71875 2.796875q0 1.796875 -0.953125 3.0q-0.9375 1.1875 -2.546875 1.65625q-0.953125 0.28125 -3.46875 0.28125l0 7.296875l-3.28125 0l0 -17.234375zm3.28125 6.734375l1.046875 0q1.234375 0 1.703125 -0.171875q0.484375 -0.1875 0.765625 -0.578125q0.28125 -0.40625 0.28125 -0.984375q0 -1.0 -0.78125 -1.453125q-0.5625 -0.34375 -2.078125 -0.34375l-0.9375 0l0 3.53125zm18.316406 -7.171875q3.65625 0 6.28125 2.65625q2.640625 2.640625 2.640625 6.453125q0 3.765625 -2.59375 6.390625q-2.59375 2.609375 -6.296875 2.609375q-3.875 0 -6.453125 -2.6875q-2.5625 -2.6875 -2.5625 -6.375q0 -2.46875 1.1875 -4.546875q1.203125 -2.078125 3.296875 -3.28125q2.09375 -1.21875 4.5 -1.21875zm-0.03125 3.203125q-2.390625 0 -4.015625 1.671875q-1.625 1.65625 -1.625 4.234375q0 2.859375 2.046875 4.515625q1.59375 1.296875 3.65625 1.296875q2.328125 0 3.96875 -1.6875q1.640625 -1.6875 1.640625 -4.15625q0 -2.453125 -1.65625 -4.15625q-1.640625 -1.71875 -4.015625 -1.71875zm12.046875 -2.765625l3.28125 0l0 14.109375l4.78125 0l0 3.125l-8.0625 0l0 -17.234375zm15.808594 0l3.328125 0l6.640625 17.234375l-3.421875 0l-1.34375 -3.546875l-7.03125 0l-1.40625 3.546875l-3.40625 0l6.640625 -17.234375zm1.6875 4.5625l-2.296875 5.921875l4.578125 0l-2.28125 -5.921875zm9.113281 -4.5625l9.53125 0l0 3.234375l-3.140625 0l0 14.0l-3.328125 0l0 -14.0l-3.0625 0l0 -3.234375zm11.546875 0l3.265625 0l0 17.234375l-3.265625 0l0 -17.234375zm15.089844 -0.4375q3.65625 0 6.28125 2.65625q2.640625 2.640625 2.640625 6.453125q0 3.765625 -2.59375 6.390625q-2.59375 2.609375 -6.296875 2.609375q-3.875 0 -6.453125 -2.6875q-2.5625 -2.6875 -2.5625 -6.375q0 -2.46875 1.1875 -4.546875q1.203125 -2.078125 3.296875 -3.28125q2.09375 -1.21875 4.5 -1.21875zm-0.03125 3.203125q-2.390625 0 -4.015625 1.671875q-1.625 1.65625 -1.625 4.234375q0 2.859375 2.046875 4.515625q1.59375 1.296875 3.65625 1.296875q2.328125 0 3.96875 -1.6875q1.640625 -1.6875 1.640625 -4.15625q0 -2.453125 -1.65625 -4.15625q-1.640625 -1.71875 -4.015625 -1.71875zm12.0625 -2.765625l3.140625 0l7.390625 11.34375l0 -11.34375l3.28125 0l0 17.234375l-3.15625 0l-7.375 -11.3125l0 11.3125l-3.28125 0l0 -17.234375z" fill-rule="nonzero"/></g></svg>