<svg version="1.1" viewBox="0.0 0.0 687.0367454068241 200.0" fill="none" stroke="none" stroke-linecap="square" stroke-miterlimit="10" xmlns:xlink="http://www.w3.org/1999/xlink" xmlns="http://www.w3.org/2000/svg"><clipPath id="p.0"><path d="m0 0l687.03674 0l0 200.0l-687.03674 0l0 -200.0z" clip-rule="nonzero"/></clipPath><g clip-path="url(#p.0)"><path fill="#000000" fill-opacity="0.0" d="m0 0l687.03674 0l0 200.0l-687.03674 0z" fill-rule="evenodd"/><path shape-rendering="crispEdges" fill="#000000" d="m70.750656 44.440945l62.664047 0l0 22.417324l-62.664047 0l0 -22.417324z" fill-rule="nonzero"/><path shape-rendering="crispEdges" fill="#000000" d="m133.4147 44.440945l59.7769 0l0 22.417324l-59.7769 0l0 -22.417324z" fill-rule="nonzero"/><path shape-rendering="crispEdges" fill="#000000" d="m1.3805774 66.85827l69.37008 0l0 30.619423l-69.37008 0l0 -30.619423z" fill-rule="nonzero"/><path shape-rendering="crispEdges" fill="#000000" d="m1.3805774 97.47769l69.37008 0l0 30.412071l-69.37008 0l0 -30.412071z" fill-rule="nonzero"/><path shape-rendering="crispEdges" fill="#000000" d="m1.3805774 127.88976l69.37008 0l0 27.669289l-69.37008 0l0 -27.669289z" fill-rule="nonzero"/><path stroke="#9e9e9e" stroke-width="1.0" stroke-linecap="butt" d="m1.3805774 66.35958l0 89.69816" fill-rule="nonzero"/><path stroke="#9e9e9e" stroke-width="1.0" stroke-linecap="butt" d="m70.750656 43.942257l0 112.11548" fill-rule="nonzero"/><path stroke="#9e9e9e" stroke-width="1.0" stroke-linecap="butt" d="m133.4147 43.942257l0 112.11548" fill-rule="nonzero"/><path stroke="#9e9e9e" stroke-width="1.0" stroke-linecap="butt" d="m193.1916 43.942257l0 112.11548" fill-rule="nonzero"/><path stroke="#9e9e9e" stroke-width="1.0" stroke-linecap="butt" d="m70.25197 44.440945l123.438324 0" fill-rule="nonzero"/><path stroke="#9e9e9e" stroke-width="1.0" stroke-linecap="butt" d="m0.88188976 66.85827l192.8084 0" fill-rule="nonzero"/><path stroke="#9e9e9e" stroke-width="1.0" stroke-linecap="butt" d="m0.88188976 97.47769l192.8084 0" fill-rule="nonzero"/><path stroke="#9e9e9e" stroke-width="1.0" stroke-linecap="butt" d="m0.88188976 127.88976l192.8084 0" fill-rule="nonzero"/><path stroke="#9e9e9e" stroke-width="1.0" stroke-linecap="butt" d="m0.88188976 155.55905l192.8084 0" fill-rule="nonzero"/><path fill="#ffffff" d="m96.65768 62.369606l3.78125 -12.15625l3.28125 0l3.796875 12.15625l-2.921875 0l-1.5625 -6.15625q-0.21875 -0.921875 -0.484375 -1.9375q-0.265625 -1.03125 -0.484375 -1.984375l-0.078125 0q-0.21875 0.953125 -0.46875 1.984375q-0.234375 1.015625 -0.484375 1.9375l-1.578125 6.15625l-2.796875 0zm2.5 -2.890625l0 -2.140625l5.8125 0l0 2.140625l-5.8125 0z" fill-rule="nonzero"/><path fill="#ffffff" d="m159.08127 62.369606l0 -12.15625l4.09375 0q1.265625 0 2.265625 0.265625q1.015625 0.265625 1.59375 0.921875q0.59375 0.65625 0.59375 1.828125q0 0.8125 -0.5 1.578125q-0.5 0.765625 -1.59375 1.046875l0 0.078125q1.3125 0.21875 1.984375 0.921875q0.671875 0.703125 0.671875 1.9375q0 1.234375 -0.625 2.03125q-0.609375 0.78125 -1.671875 1.171875q-1.046875 0.375 -2.359375 0.375l-4.453125 0zm2.75 -7.28125l1.203125 0q1.015625 0 1.453125 -0.390625q0.453125 -0.40625 0.453125 -1.09375q0 -0.671875 -0.453125 -0.953125q-0.453125 -0.296875 -1.421875 -0.296875l-1.234375 0l0 2.734375zm0 5.140625l1.46875 0q1.125 0 1.65625 -0.40625q0.546875 -0.421875 0.546875 -1.234375q0 -0.8125 -0.546875 -1.15625q-0.53125 -0.359375 -1.65625 -0.359375l-1.46875 0l0 3.15625z" fill-rule="nonzero"/><path fill="#ffffff" d="m18.771854 89.10673q-1.015625 0 -2.109375 -0.4375q-1.078125 -0.453125 -1.890625 -1.578125l1.59375 -1.6875q0.515625 0.65625 1.109375 1.0q0.609375 0.34375 1.203125 0.34375q0.9375 0 1.40625 -0.484375q0.484375 -0.484375 0.484375 -1.734375l0 -5.515625l-4.765625 0l0 -2.28125l7.5 0l0 8.015625q0 1.1875 -0.4375 2.1875q-0.4375 0.984375 -1.421875 1.578125q-0.96875 0.59375 -2.671875 0.59375zm10.271881 0q-0.921875 0 -1.609375 -0.359375q-0.671875 -0.375 -1.046875 -1.015625q-0.375 -0.640625 -0.375 -1.421875q0 -1.546875 1.40625 -2.359375q1.40625 -0.828125 4.6875 -1.015625q-0.046875 -0.421875 -0.28125 -0.71875q-0.21875 -0.3125 -0.640625 -0.46875q-0.421875 -0.15625 -1.046875 -0.15625q-0.453125 0 -0.90625 0.109375q-0.4375 0.09375 -0.921875 0.296875q-0.46875 0.1875 -1.0 0.453125l-0.96875 -1.796875q0.640625 -0.359375 1.328125 -0.640625q0.703125 -0.28125 1.453125 -0.4375q0.765625 -0.171875 1.546875 -0.171875q1.3125 0 2.234375 0.46875q0.9375 0.453125 1.4375 1.375q0.515625 0.921875 0.515625 2.34375l0 5.296875l-2.234375 0l-0.21875 -1.046875l-0.0625 0q-0.703125 0.53125 -1.546875 0.90625q-0.828125 0.359375 -1.75 0.359375zm0.890625 -2.125q0.609375 0 1.140625 -0.25q0.546875 -0.25 1.03125 -0.625l0 -1.53125q-1.359375 0.078125 -2.125 0.28125q-0.75 0.203125 -1.046875 0.53125q-0.296875 0.3125 -0.296875 0.71875q0 0.28125 0.15625 0.484375q0.15625 0.203125 0.453125 0.296875q0.296875 0.09375 0.6875 0.09375zm7.475006 1.90625l0 -9.25l2.234375 0l0.203125 1.234375l0.078125 0q0.59375 -0.609375 1.359375 -1.03125q0.78125 -0.4375 1.828125 -0.4375q1.578125 0 2.296875 1.015625q0.734375 1.0 0.734375 2.765625l0 5.703125l-2.75 0l0 -5.359375q0 -0.921875 -0.3125 -1.34375q-0.296875 -0.4375 -1.046875 -0.4375q-0.5625 0 -0.984375 0.25q-0.40625 0.25 -0.90625 0.71875l0 6.171875l-2.734375 0zm16.006256 0.21875q-1.4375 0 -2.609375 -0.5625q-1.15625 -0.578125 -1.84375 -1.65625q-0.671875 -1.09375 -0.671875 -2.625q0 -1.515625 0.6875 -2.609375q0.6875 -1.09375 1.78125 -1.671875q1.109375 -0.578125 2.34375 -0.578125q1.4375 0 2.40625 0.59375q0.96875 0.59375 1.453125 1.59375q0.5 0.984375 0.5 2.265625q0 0.359375 -0.046875 0.71875q-0.046875 0.34375 -0.078125 0.5l-7.015625 0l0 -1.84375l5.171875 0l-0.4375 0.53125q0 -1.125 -0.484375 -1.6875q-0.46875 -0.578125 -1.375 -0.578125q-0.671875 0 -1.1875 0.296875q-0.5 0.296875 -0.78125 0.921875q-0.28125 0.609375 -0.28125 1.546875q0 0.953125 0.328125 1.5625q0.34375 0.59375 0.984375 0.90625q0.640625 0.296875 1.53125 0.296875q0.625 0 1.1875 -0.171875q0.578125 -0.171875 1.203125 -0.484375l0.90625 1.65625q-0.796875 0.5 -1.765625 0.796875q-0.96875 0.28125 -1.90625 0.28125z" fill-rule="nonzero"/><path fill="#000000" d="m97.06964 88.98173q-0.96875 0 -1.8125 -0.328125q-0.828125 -0.34375 -1.4375 -0.96875q-0.59375 -0.625 -0.9375 -1.46875q-0.328125 -0.859375 -0.328125 -1.859375q0 -0.484375 0.125 -1.0625q0.125 -0.59375 0.390625 -1.296875q0.265625 -0.703125 0.640625 -1.46875q0.375 -0.765625 0.859375 -1.578125l1.890625 -3.234375l1.421875 0l0.078125 0.1875l-2.109375 3.546875q-0.453125 0.75 -0.8125 1.484375q-0.359375 0.71875 -0.6875 1.453125q-0.3125 0.734375 -0.609375 1.5l-0.265625 -1.34375q0.359375 -0.59375 0.78125 -1.03125q0.421875 -0.453125 0.90625 -0.78125q0.484375 -0.328125 1.03125 -0.484375q0.546875 -0.171875 1.125 -0.171875q1.140625 0 2.0625 0.59375q0.921875 0.59375 1.484375 1.5625q0.5625 0.96875 0.5625 2.15625q0 1.3125 -0.578125 2.359375q-0.578125 1.046875 -1.578125 1.640625q-1.0 0.59375 -2.203125 0.59375zm-0.0625 -1.359375q0.84375 0 1.515625 -0.40625q0.671875 -0.421875 1.0625 -1.109375q0.390625 -0.703125 0.390625 -1.578125q0 -0.828125 -0.390625 -1.515625q-0.390625 -0.703125 -1.0625 -1.125q-0.671875 -0.421875 -1.5 -0.421875q-0.875 0 -1.5625 0.40625q-0.671875 0.40625 -1.0625 1.109375q-0.390625 0.6875 -0.390625 1.515625q0 0.890625 0.390625 1.59375q0.390625 0.6875 1.0625 1.109375q0.6875 0.421875 1.546875 0.421875zm7.0524445 1.265625l-0.453125 -1.078125l4.40625 -4.953125q0.3125 -0.34375 0.65625 -0.796875q0.359375 -0.453125 0.65625 -0.9375q0.3125 -0.5 0.5 -0.984375q0.1875 -0.484375 0.1875 -0.953125q0 -0.6875 -0.296875 -1.15625q-0.296875 -0.484375 -0.859375 -0.734375q-0.546875 -0.265625 -1.265625 -0.265625q-0.640625 0 -1.265625 0.296875q-0.609375 0.296875 -1.109375 0.921875q-0.5 0.609375 -0.78125 1.5625l-1.15625 -0.703125q0.328125 -1.125 0.984375 -1.90625q0.65625 -0.78125 1.546875 -1.171875q0.90625 -0.390625 1.921875 -0.390625q1.09375 0 1.9375 0.4375q0.859375 0.4375 1.359375 1.234375q0.515625 0.796875 0.515625 1.828125q0 0.4375 -0.109375 0.890625q-0.09375 0.453125 -0.3125 0.90625q-0.203125 0.4375 -0.5 0.90625q-0.28125 0.46875 -0.671875 0.953125q-0.375 0.484375 -0.828125 1.0l-3.75 4.171875l-0.234375 -0.484375l6.8125 0l0 1.40625l-7.890625 0z" fill-rule="nonzero"/><path fill="#000000" d="m158.10355 88.98173q-0.96875 0 -1.8125 -0.328125q-0.828125 -0.34375 -1.4375 -0.96875q-0.59375 -0.625 -0.9375 -1.46875q-0.328125 -0.859375 -0.328125 -1.859375q0 -0.484375 0.125 -1.0625q0.125 -0.59375 0.390625 -1.296875q0.265625 -0.703125 0.640625 -1.46875q0.375 -0.765625 0.859375 -1.578125l1.890625 -3.234375l1.421875 0l0.078125 0.1875l-2.109375 3.546875q-0.453125 0.75 -0.8125 1.484375q-0.359375 0.71875 -0.6875 1.453125q-0.3125 0.734375 -0.609375 1.5l-0.265625 -1.34375q0.359375 -0.59375 0.78125 -1.03125q0.421875 -0.453125 0.90625 -0.78125q0.484375 -0.328125 1.03125 -0.484375q0.546875 -0.171875 1.125 -0.171875q1.140625 0 2.0625 0.59375q0.921875 0.59375 1.484375 1.5625q0.5625 0.96875 0.5625 2.15625q0 1.3125 -0.578125 2.359375q-0.578125 1.046875 -1.578125 1.640625q-1.0 0.59375 -2.203125 0.59375zm-0.0625 -1.359375q0.84375 0 1.515625 -0.40625q0.671875 -0.421875 1.0625 -1.109375q0.390625 -0.703125 0.390625 -1.578125q0 -0.828125 -0.390625 -1.515625q-0.390625 -0.703125 -1.0625 -1.125q-0.671875 -0.421875 -1.5 -0.421875q-0.875 0 -1.5625 0.40625q-0.671875 0.40625 -1.0625 1.109375q-0.390625 0.6875 -0.390625 1.515625q0 0.890625 0.390625 1.59375q0.390625 0.6875 1.0625 1.109375q0.6875 0.421875 1.546875 0.421875zm10.114944 1.390625q-1.296875 0 -2.34375 -0.578125q-1.03125 -0.59375 -1.71875 -1.6875l0.875 -0.953125q0.78125 1.046875 1.5625 1.453125q0.796875 0.390625 1.640625 0.390625q0.890625 0 1.625 -0.421875q0.75 -0.421875 1.171875 -1.125q0.4375 -0.703125 0.4375 -1.5625q0 -0.84375 -0.40625 -1.515625q-0.390625 -0.6875 -1.0625 -1.09375q-0.671875 -0.40625 -1.546875 -0.40625q-0.453125 0 -0.921875 0.109375q-0.46875 0.109375 -0.96875 0.328125q-0.484375 0.203125 -1.046875 0.515625l-0.828125 -1.09375l0.765625 -5.546875l7.046875 0l0 1.359375l-6.28125 0l0.46875 -0.328125l-0.6875 4.5625l-0.4375 -0.296875q0.296875 -0.234375 0.796875 -0.453125q0.515625 -0.234375 1.125 -0.375q0.609375 -0.140625 1.1875 -0.140625q1.203125 0 2.15625 0.5625q0.953125 0.546875 1.515625 1.515625q0.5625 0.953125 0.5625 2.203125q0 1.296875 -0.625 2.34375q-0.609375 1.03125 -1.671875 1.640625q-1.0625 0.59375 -2.390625 0.59375z" fill-rule="nonzero"/><path fill="#ffffff" d="m18.771854 119.622475q-1.015625 0 -2.109375 -0.4375q-1.078125 -0.453125 -1.890625 -1.578125l1.59375 -1.6875q0.515625 0.65625 1.109375 1.0q0.609375 0.34375 1.203125 0.34375q0.9375 0 1.40625 -0.484375q0.484375 -0.484375 0.484375 -1.734375l0 -5.515625l-4.765625 0l0 -2.28125l7.5 0l0 8.015625q0 1.1875 -0.4375 2.1875q-0.4375 0.984375 -1.421875 1.578125q-0.96875 0.59375 -2.671875 0.59375zm11.693756 0q-1.203125 0 -2.296875 -0.5625q-1.078125 -0.578125 -1.75 -1.65625q-0.671875 -1.09375 -0.671875 -2.625q0 -1.53125 0.671875 -2.625q0.671875 -1.09375 1.75 -1.65625q1.09375 -0.578125 2.296875 -0.578125q1.21875 0 2.296875 0.578125q1.078125 0.5625 1.75 1.65625q0.671875 1.09375 0.671875 2.625q0 1.53125 -0.671875 2.625q-0.671875 1.078125 -1.75 1.65625q-1.078125 0.5625 -2.296875 0.5625zm0 -2.21875q0.640625 0 1.0625 -0.3125q0.421875 -0.3125 0.625 -0.90625q0.21875 -0.609375 0.21875 -1.40625q0 -0.796875 -0.21875 -1.390625q-0.203125 -0.609375 -0.625 -0.921875q-0.421875 -0.3125 -1.0625 -0.3125q-0.625 0 -1.046875 0.3125q-0.421875 0.3125 -0.640625 0.921875q-0.21875 0.59375 -0.21875 1.390625q0 0.796875 0.21875 1.40625q0.21875 0.59375 0.640625 0.90625q0.421875 0.3125 1.046875 0.3125zm6.943756 2.0l0 -13.078125l2.734375 0l0 3.203125l-0.140625 1.78125l0.0625 0q0.515625 -0.546875 1.265625 -0.96875q0.765625 -0.421875 1.8125 -0.421875q1.5625 0 2.28125 1.015625q0.71875 1.0 0.71875 2.765625l0 5.703125l-2.75 0l0 -5.359375q0 -0.921875 -0.3125 -1.34375q-0.296875 -0.4375 -1.046875 -0.4375q-0.5625 0 -0.984375 0.25q-0.40625 0.25 -0.90625 0.71875l0 6.171875l-2.734375 0zm11.193756 0l0 -9.25l2.234375 0l0.203125 1.234375l0.078125 0q0.59375 -0.609375 1.359375 -1.03125q0.78125 -0.4375 1.828125 -0.4375q1.578125 0 2.296875 1.015625q0.734375 1.0 0.734375 2.765625l0 5.703125l-2.75 0l0 -5.359375q0 -0.921875 -0.3125 -1.34375q-0.296875 -0.4375 -1.046875 -0.4375q-0.5625 0 -0.984375 0.25q-0.40625 0.25 -0.90625 0.71875l0 6.171875l-2.734375 0z" fill-rule="nonzero"/><path fill="#000000" d="m95.13708 119.403725l5.484375 -12.203125l0.234375 0.5l-6.984375 0l0 -1.359375l7.859375 0l0.25 1.140625l-5.265625 11.921875l-1.578125 0zm11.206009 -0.640625l0 -11.265625l0.546875 0.40625l-2.421875 1.46875l-0.4375 -1.3125l3.234375 -1.90625l0.546875 0l0 12.609375l-1.46875 0zm-1.921875 0.640625l0 -1.421875l5.359375 0l0 1.421875l-5.359375 0z" fill-rule="nonzero"/><path fill="#000000" d="m155.19145 119.403725l5.484375 -12.203125l0.234375 0.5l-6.984375 0l0 -1.359375l7.859375 0l0.25 1.140625l-5.265625 11.921875l-1.578125 0zm12.423508 0.125q-1.296875 0 -2.34375 -0.578125q-1.03125 -0.59375 -1.71875 -1.6875l0.875 -0.953125q0.78125 1.046875 1.5625 1.453125q0.796875 0.390625 1.640625 0.390625q0.890625 0 1.625 -0.421875q0.75 -0.421875 1.171875 -1.125q0.4375 -0.703125 0.4375 -1.5625q0 -0.84375 -0.40625 -1.515625q-0.390625 -0.6875 -1.0625 -1.09375q-0.671875 -0.40625 -1.546875 -0.40625q-0.453125 0 -0.921875 0.109375q-0.46875 0.109375 -0.96875 0.328125q-0.484375 0.203125 -1.046875 0.515625l-0.828125 -1.09375l0.765625 -5.546875l7.046875 0l0 1.359375l-6.28125 0l0.46875 -0.328125l-0.6875 4.5625l-0.4375 -0.296875q0.296875 -0.234375 0.796875 -0.453125q0.515625 -0.234375 1.125 -0.375q0.609375 -0.140625 1.1875 -0.140625q1.203125 0 2.15625 0.5625q0.953125 0.546875 1.515625 1.515625q0.5625 0.953125 0.5625 2.203125q0 1.296875 -0.625 2.34375q-0.609375 1.03125 -1.671875 1.640625q-1.0625 0.59375 -2.390625 0.59375z" fill-rule="nonzero"/><path fill="#ffffff" d="m18.771854 148.66316q-1.015625 0 -2.109375 -0.4375q-1.078125 -0.453125 -1.890625 -1.578125l1.59375 -1.6875q0.515625 0.65625 1.109375 1.0q0.609375 0.34375 1.203125 0.34375q0.9375 0 1.40625 -0.484375q0.484375 -0.484375 0.484375 -1.734375l0 -5.515625l-4.765625 0l0 -2.28125l7.5 0l0 8.015625q0 1.1875 -0.4375 2.1875q-0.4375 0.984375 -1.421875 1.578125q-0.96875 0.59375 -2.671875 0.59375zm10.271881 0q-0.921875 0 -1.609375 -0.359375q-0.671875 -0.375 -1.046875 -1.015625q-0.375 -0.640625 -0.375 -1.421875q0 -1.546875 1.40625 -2.359375q1.40625 -0.828125 4.6875 -1.015625q-0.046875 -0.421875 -0.28125 -0.71875q-0.21875 -0.3125 -0.640625 -0.46875q-0.421875 -0.15625 -1.046875 -0.15625q-0.453125 0 -0.90625 0.109375q-0.4375 0.09375 -0.921875 0.296875q-0.46875 0.1875 -1.0 0.453125l-0.96875 -1.796875q0.640625 -0.359375 1.328125 -0.640625q0.703125 -0.28125 1.453125 -0.4375q0.765625 -0.171875 1.546875 -0.171875q1.3125 0 2.234375 0.46875q0.9375 0.453125 1.4375 1.375q0.515625 0.921875 0.515625 2.34375l0 5.296875l-2.234375 0l-0.21875 -1.046875l-0.0625 0q-0.703125 0.53125 -1.546875 0.90625q-0.828125 0.359375 -1.75 0.359375zm0.890625 -2.125q0.609375 0 1.140625 -0.25q0.546875 -0.25 1.03125 -0.625l0 -1.53125q-1.359375 0.078125 -2.125 0.28125q-0.75 0.203125 -1.046875 0.53125q-0.296875 0.3125 -0.296875 0.71875q0 0.28125 0.15625 0.484375q0.15625 0.203125 0.453125 0.296875q0.296875 0.09375 0.6875 0.09375zm12.537506 2.125q-1.46875 0 -2.640625 -0.5625q-1.15625 -0.578125 -1.84375 -1.65625q-0.671875 -1.09375 -0.671875 -2.625q0 -1.53125 0.75 -2.625q0.75 -1.09375 1.96875 -1.65625q1.21875 -0.578125 2.640625 -0.578125q1.09375 0 1.984375 0.359375q0.90625 0.34375 1.484375 0.890625l-1.265625 1.703125q-0.546875 -0.375 -1.046875 -0.546875q-0.484375 -0.171875 -1.015625 -0.171875q-0.78125 0 -1.40625 0.3125q-0.609375 0.3125 -0.953125 0.921875q-0.328125 0.59375 -0.328125 1.390625q0 0.796875 0.328125 1.40625q0.328125 0.59375 0.90625 0.90625q0.59375 0.3125 1.359375 0.3125q0.734375 0 1.328125 -0.25q0.609375 -0.265625 1.125 -0.625l1.09375 1.734375q-0.8125 0.6875 -1.84375 1.03125q-1.015625 0.328125 -1.953125 0.328125zm6.209381 -0.21875l0 -13.078125l2.734375 0l0 7.5625l0.078125 0l3.390625 -3.734375l3.015625 0l-6.484375 6.921875l0 2.328125l-2.734375 0zm6.53125 0l-2.6875 -4.203125l1.5625 -1.6875l4.078125 5.890625l-2.953125 0z" fill-rule="nonzero"/><path fill="#000000" d="m96.39802 148.53816q-0.96875 0 -1.8125 -0.328125q-0.828125 -0.34375 -1.4375 -0.96875q-0.59375 -0.625 -0.9375 -1.46875q-0.328125 -0.859375 -0.328125 -1.859375q0 -0.484375 0.125 -1.0625q0.125 -0.59375 0.390625 -1.296875q0.265625 -0.703125 0.640625 -1.46875q0.375 -0.765625 0.859375 -1.578125l1.890625 -3.234375l1.421875 0l0.078125 0.1875l-2.109375 3.546875q-0.453125 0.75 -0.8125 1.484375q-0.359375 0.71875 -0.6875 1.453125q-0.3125 0.734375 -0.609375 1.5l-0.265625 -1.34375q0.359375 -0.59375 0.78125 -1.03125q0.421875 -0.453125 0.90625 -0.78125q0.484375 -0.328125 1.03125 -0.484375q0.546875 -0.171875 1.125 -0.171875q1.140625 0 2.0625 0.59375q0.921875 0.59375 1.484375 1.5625q0.5625 0.96875 0.5625 2.15625q0 1.3125 -0.578125 2.359375q-0.578125 1.046875 -1.578125 1.640625q-1.0 0.59375 -2.203125 0.59375zm-0.0625 -1.359375q0.84375 0 1.515625 -0.40625q0.671875 -0.421875 1.0625 -1.109375q0.390625 -0.703125 0.390625 -1.578125q0 -0.828125 -0.390625 -1.515625q-0.390625 -0.703125 -1.0625 -1.125q-0.671875 -0.421875 -1.5 -0.421875q-0.875 0 -1.5625 0.40625q-0.671875 0.40625 -1.0625 1.109375q-0.390625 0.6875 -0.390625 1.515625q0 0.890625 0.390625 1.59375q0.390625 0.6875 1.0625 1.109375q0.6875 0.421875 1.546875 0.421875zm12.411819 1.265625l0 -11.328125l0.40625 0.140625l-5.40625 6.59375l-0.15625 -0.328125l8.84375 0l0 1.375l-9.375 0l-0.703125 -1.375l6.671875 -8.140625l1.125 0l0 13.0625l-1.40625 0z" fill-rule="nonzero"/><path fill="#000000" d="m154.78102 148.44441l5.484375 -12.203125l0.234375 0.5l-6.984375 0l0 -1.359375l7.859375 0l0.25 1.140625l-5.265625 11.921875l-1.578125 0zm13.329758 0.1875q-1.53125 0 -2.609375 -0.796875q-1.0625 -0.8125 -1.640625 -2.3125q-0.5625 -1.5 -0.5625 -3.609375q0 -2.109375 0.5625 -3.609375q0.578125 -1.5 1.640625 -2.296875q1.078125 -0.8125 2.609375 -0.8125q1.515625 0 2.59375 0.8125q1.09375 0.796875 1.65625 2.296875q0.5625 1.5 0.5625 3.609375q0 2.109375 -0.5625 3.609375q-0.5625 1.5 -1.65625 2.3125q-1.078125 0.796875 -2.59375 0.796875zm0 -1.359375q1.609375 0 2.46875 -1.390625q0.875 -1.40625 0.875 -3.96875q0 -2.546875 -0.875 -3.953125q-0.859375 -1.40625 -2.46875 -1.40625q-1.625 0 -2.5 1.40625q-0.859375 1.40625 -0.859375 3.953125q0 2.5625 0.859375 3.96875q0.875 1.390625 2.5 1.390625z" fill-rule="nonzero"/><path shape-rendering="crispEdges" fill="#000000" d="m370.41995 7.8779526l87.270325 0l0 25.95538l-87.270325 0l0 -25.95538z" fill-rule="nonzero"/><path shape-rendering="crispEdges" fill="#000000" d="m457.69028 7.8779526l94.12076 0l0 25.95538l-94.12076 0l0 -25.95538z" fill-rule="nonzero"/><path shape-rendering="crispEdges" fill="#000000" d="m551.81104 7.8779526l133.84515 0l0 25.95538l-133.84515 0l0 -25.95538z" fill-rule="nonzero"/><path stroke="#9e9e9e" stroke-width="1.0" stroke-linecap="butt" d="m370.41995 7.3792653l0 185.23883" fill-rule="nonzero"/><path stroke="#9e9e9e" stroke-width="1.0" stroke-linecap="butt" d="m457.69028 7.3792653l0 185.23883" fill-rule="nonzero"/><path stroke="#9e9e9e" stroke-width="1.0" stroke-linecap="butt" d="m551.81104 7.3792653l0 185.23883" fill-rule="nonzero"/><path stroke="#9e9e9e" stroke-width="1.0" stroke-linecap="butt" d="m685.6562 7.3792653l0 185.23883" fill-rule="nonzero"/><path stroke="#9e9e9e" stroke-width="1.0" stroke-linecap="butt" d="m369.92126 7.8779526l316.23358 0" fill-rule="nonzero"/><path stroke="#9e9e9e" stroke-width="1.0" stroke-linecap="butt" d="m369.92126 33.833332l316.23358 0" fill-rule="nonzero"/><path stroke="#9e9e9e" stroke-width="1.0" stroke-linecap="butt" d="m369.92126 59.788715l316.23358 0" fill-rule="nonzero"/><path stroke="#9e9e9e" stroke-width="1.0" stroke-linecap="butt" d="m369.92126 85.744095l316.23358 0" fill-rule="nonzero"/><path stroke="#9e9e9e" stroke-width="1.0" stroke-linecap="butt" d="m369.92126 111.69948l316.23358 0" fill-rule="nonzero"/><path stroke="#9e9e9e" stroke-width="1.0" stroke-linecap="butt" d="m369.92126 137.65486l316.23358 0" fill-rule="nonzero"/><path stroke="#9e9e9e" stroke-width="1.0" stroke-linecap="butt" d="m369.92126 163.61023l316.23358 0" fill-rule="nonzero"/><path stroke="#9e9e9e" stroke-width="1.0" stroke-linecap="butt" d="m369.92126 192.11942l316.23358 0" fill-rule="nonzero"/><path fill="#ffffff" d="m392.90198 27.575642l0 -12.15625l2.8125 0l2.5625 6.03125l1.046875 2.6875l0.0625 0q-0.09375 -0.96875 -0.25 -2.15625q-0.140625 -1.203125 -0.140625 -2.265625l0 -4.296875l2.640625 0l0 12.15625l-2.828125 0l-2.546875 -6.0625l-1.046875 -2.65625l-0.078125 0q0.09375 1.0 0.234375 2.171875q0.15625 1.15625 0.15625 2.234375l0 4.3125l-2.625 0zm14.131256 0.21875q-0.921875 0 -1.609375 -0.359375q-0.671875 -0.375 -1.046875 -1.015625q-0.375 -0.640625 -0.375 -1.421875q0 -1.546875 1.40625 -2.359375q1.40625 -0.828125 4.6875 -1.015625q-0.046875 -0.421875 -0.28125 -0.71875q-0.21875 -0.3125 -0.640625 -0.46875q-0.421875 -0.15625 -1.046875 -0.15625q-0.453125 0 -0.90625 0.109375q-0.4375 0.09375 -0.921875 0.296875q-0.46875 0.1875 -1.0 0.453125l-0.96875 -1.796875q0.640625 -0.359375 1.328125 -0.640625q0.703125 -0.28125 1.453125 -0.4375q0.765625 -0.171875 1.546875 -0.171875q1.3125 0 2.234375 0.46875q0.9375 0.453125 1.4375 1.375q0.515625 0.921875 0.515625 2.34375l0 5.296875l-2.234375 0l-0.21875 -1.046875l-0.0625 0q-0.703125 0.53125 -1.546875 0.90625q-0.828125 0.359375 -1.75 0.359375zm0.890625 -2.125q0.609375 0 1.140625 -0.25q0.546875 -0.25 1.03125 -0.625l0 -1.53125q-1.359375 0.078125 -2.125 0.28125q-0.75 0.203125 -1.046875 0.53125q-0.296875 0.3125 -0.296875 0.71875q0 0.28125 0.15625 0.484375q0.15625 0.203125 0.453125 0.296875q0.296875 0.09375 0.6875 0.09375zm6.787506 1.90625l0 -9.25l2.0625 0l0.1875 1.140625l0.078125 0q0.265625 -0.5625 0.71875 -0.96875q0.46875 -0.40625 1.28125 -0.40625q0.59375 0 1.015625 0.390625q0.4375 0.375 0.578125 1.125q0.265625 -0.625 0.75 -1.0625q0.5 -0.453125 1.3125 -0.453125q0.984375 0 1.515625 0.8125q0.546875 0.796875 0.546875 2.171875l0 6.5l-2.609375 0l0 -6.3125q0 -0.828125 -0.5 -0.828125q-0.265625 0 -0.46875 0.21875q-0.1875 0.203125 -0.375 0.671875l0 6.25l-2.140625 0l0 -6.3125q0 -0.421875 -0.140625 -0.625q-0.125 -0.203125 -0.390625 -0.203125q-0.25 0 -0.4375 0.21875q-0.1875 0.203125 -0.375 0.671875l0 6.25l-2.609375 0zm16.693756 0.21875q-1.4375 0 -2.609375 -0.5625q-1.15625 -0.578125 -1.84375 -1.65625q-0.671875 -1.09375 -0.671875 -2.625q0 -1.515625 0.6875 -2.609375q0.6875 -1.09375 1.78125 -1.671875q1.109375 -0.578125 2.34375 -0.578125q1.4375 0 2.40625 0.59375q0.96875 0.59375 1.453125 1.59375q0.5 0.984375 0.5 2.265625q0 0.359375 -0.046875 0.71875q-0.046875 0.34375 -0.078125 0.5l-7.015625 0l0 -1.84375l5.171875 0l-0.4375 0.53125q0 -1.125 -0.484375 -1.6875q-0.46875 -0.578125 -1.375 -0.578125q-0.671875 0 -1.1875 0.296875q-0.5 0.296875 -0.78125 0.921875q-0.28125 0.609375 -0.28125 1.546875q0 0.953125 0.328125 1.5625q0.34375 0.59375 0.984375 0.90625q0.640625 0.296875 1.53125 0.296875q0.625 0 1.1875 -0.171875q0.578125 -0.171875 1.203125 -0.484375l0.90625 1.65625q-0.796875 0.5 -1.765625 0.796875q-0.96875 0.28125 -1.90625 0.28125z" fill-rule="nonzero"/><path fill="#ffffff" d="m472.4819 27.575642l0 -12.15625l3.359375 0q1.765625 0 3.078125 0.640625q1.3125 0.625 2.03125 1.953125q0.734375 1.328125 0.734375 3.421875q0 2.09375 -0.71875 3.453125q-0.71875 1.359375 -2.0 2.03125q-1.28125 0.65625 -2.96875 0.65625l-3.515625 0zm2.75 -2.21875l0.453125 0q0.96875 0 1.671875 -0.375q0.71875 -0.375 1.109375 -1.234375q0.40625 -0.859375 0.40625 -2.3125q0 -1.453125 -0.40625 -2.28125q-0.390625 -0.828125 -1.109375 -1.171875q-0.703125 -0.34375 -1.671875 -0.34375l-0.453125 0l0 7.71875zm12.725006 2.4375q-1.203125 0 -2.296875 -0.5625q-1.078125 -0.578125 -1.75 -1.65625q-0.671875 -1.09375 -0.671875 -2.625q0 -1.53125 0.671875 -2.625q0.671875 -1.09375 1.75 -1.65625q1.09375 -0.578125 2.296875 -0.578125q1.21875 0 2.296875 0.578125q1.078125 0.5625 1.75 1.65625q0.671875 1.09375 0.671875 2.625q0 1.53125 -0.671875 2.625q-0.671875 1.078125 -1.75 1.65625q-1.078125 0.5625 -2.296875 0.5625zm0 -2.21875q0.640625 0 1.0625 -0.3125q0.421875 -0.3125 0.625 -0.90625q0.21875 -0.609375 0.21875 -1.40625q0 -0.796875 -0.21875 -1.390625q-0.203125 -0.609375 -0.625 -0.921875q-0.421875 -0.3125 -1.0625 -0.3125q-0.625 0 -1.046875 0.3125q-0.421875 0.3125 -0.640625 0.921875q-0.21875 0.59375 -0.21875 1.390625q0 0.796875 0.21875 1.40625q0.21875 0.59375 0.640625 0.90625q0.421875 0.3125 1.046875 0.3125zm11.115631 2.21875q-1.21875 0 -2.4375 -0.40625q-1.21875 -0.421875 -2.09375 -1.0l1.1875 -1.71875q0.828125 0.53125 1.765625 0.8125q0.953125 0.28125 1.953125 0.28125q0.765625 0 1.125 -0.234375q0.359375 -0.234375 0.359375 -0.546875q0 -0.203125 -0.109375 -0.34375q-0.109375 -0.140625 -0.359375 -0.265625q-0.25 -0.125 -0.6875 -0.234375q-0.4375 -0.109375 -1.125 -0.25q-1.890625 -0.421875 -2.71875 -1.125q-0.8125 -0.703125 -0.8125 -1.765625q0 -1.3125 1.140625 -2.109375q1.140625 -0.796875 3.125 -0.796875q1.25 0 2.265625 0.40625q1.015625 0.40625 1.734375 0.875l-1.234375 1.640625q-0.6875 -0.4375 -1.46875 -0.65625q-0.78125 -0.21875 -1.546875 -0.21875q-0.421875 0 -0.703125 0.078125q-0.28125 0.078125 -0.4375 0.265625q-0.140625 0.171875 -0.140625 0.375q0 0.375 0.484375 0.5625q0.484375 0.171875 1.65625 0.421875q1.421875 0.328125 2.21875 0.734375q0.796875 0.40625 1.109375 0.9375q0.3125 0.53125 0.3125 1.296875q0 0.84375 -0.515625 1.515625q-0.515625 0.671875 -1.53125 1.078125q-1.015625 0.390625 -2.515625 0.390625zm9.850006 0q-0.921875 0 -1.609375 -0.359375q-0.671875 -0.375 -1.046875 -1.015625q-0.375 -0.640625 -0.375 -1.421875q0 -1.546875 1.40625 -2.359375q1.40625 -0.828125 4.6875 -1.015625q-0.046875 -0.421875 -0.28125 -0.71875q-0.21875 -0.3125 -0.640625 -0.46875q-0.421875 -0.15625 -1.046875 -0.15625q-0.453125 0 -0.90625 0.109375q-0.4375 0.09375 -0.921875 0.296875q-0.46875 0.1875 -1.0 0.453125l-0.96875 -1.796875q0.640625 -0.359375 1.328125 -0.640625q0.703125 -0.28125 1.453125 -0.4375q0.765625 -0.171875 1.546875 -0.171875q1.3125 0 2.234375 0.46875q0.9375 0.453125 1.4375 1.375q0.515625 0.921875 0.515625 2.34375l0 5.296875l-2.234375 0l-0.21875 -1.046875l-0.0625 0q-0.703125 0.53125 -1.546875 0.90625q-0.828125 0.359375 -1.75 0.359375zm0.890625 -2.125q0.609375 0 1.140625 -0.25q0.546875 -0.25 1.03125 -0.625l0 -1.53125q-1.359375 0.078125 -2.125 0.28125q-0.75 0.203125 -1.046875 0.53125q-0.296875 0.3125 -0.296875 0.71875q0 0.28125 0.15625 0.484375q0.15625 0.203125 0.453125 0.296875q0.296875 0.09375 0.6875 0.09375zm11.303101 5.84375q-1.21875 0 -2.15625 -0.25q-0.9375 -0.25 -1.5 -0.78125q-0.546875 -0.515625 -0.546875 -1.34375q0 -0.5625 0.359375 -1.03125q0.375 -0.453125 1.078125 -0.8125l0 -0.078125q-0.390625 -0.25 -0.671875 -0.625q-0.265625 -0.375 -0.265625 -0.953125q0 -0.46875 0.3125 -0.9375q0.3125 -0.46875 0.796875 -0.796875l0 -0.078125q-0.5 -0.328125 -0.859375 -0.9375q-0.359375 -0.625 -0.359375 -1.4375q0 -1.109375 0.546875 -1.859375q0.5625 -0.75 1.453125 -1.125q0.90625 -0.375 1.953125 -0.375q0.859375 0 1.53125 0.234375l3.75 0l0 2.015625l-1.859375 0q0.171875 0.203125 0.28125 0.53125q0.125 0.328125 0.125 0.671875q0 1.0625 -0.515625 1.75q-0.515625 0.6875 -1.375 1.03125q-0.84375 0.328125 -1.9375 0.328125q-0.25 0 -0.59375 -0.046875q-0.328125 -0.046875 -0.671875 -0.140625q-0.21875 0.140625 -0.3125 0.296875q-0.09375 0.140625 -0.09375 0.390625q0 0.34375 0.375 0.515625q0.390625 0.171875 1.1875 0.171875l1.71875 0q1.828125 0 2.78125 0.546875q0.96875 0.53125 0.96875 1.78125q0 0.96875 -0.671875 1.71875q-0.671875 0.765625 -1.921875 1.1875q-1.234375 0.4375 -2.90625 0.4375zm0.140625 -8.53125q0.390625 0 0.703125 -0.15625q0.328125 -0.171875 0.515625 -0.515625q0.1875 -0.34375 0.1875 -0.859375q0 -0.484375 -0.1875 -0.8125q-0.1875 -0.34375 -0.515625 -0.515625q-0.3125 -0.171875 -0.703125 -0.171875q-0.375 0 -0.6875 0.171875q-0.3125 0.171875 -0.5 0.515625q-0.1875 0.328125 -0.1875 0.8125q0 0.515625 0.1875 0.859375q0.1875 0.34375 0.5 0.515625q0.3125 0.15625 0.6875 0.15625zm0.25 6.796875q0.75 0 1.296875 -0.15625q0.5625 -0.140625 0.875 -0.390625q0.328125 -0.25 0.328125 -0.578125q0 -0.46875 -0.421875 -0.59375q-0.40625 -0.109375 -1.203125 -0.109375l-1.15625 0q-0.5 0 -0.828125 -0.046875q-0.328125 -0.03125 -0.59375 -0.078125q-0.359375 0.21875 -0.515625 0.421875q-0.140625 0.21875 -0.140625 0.484375q0 0.5 0.640625 0.765625q0.640625 0.28125 1.71875 0.28125zm11.787537 -1.984375q-1.4375 0 -2.609375 -0.5625q-1.15625 -0.578125 -1.84375 -1.65625q-0.671875 -1.09375 -0.671875 -2.625q0 -1.515625 0.6875 -2.609375q0.6875 -1.09375 1.78125 -1.671875q1.109375 -0.578125 2.34375 -0.578125q1.4375 0 2.40625 0.59375q0.96875 0.59375 1.453125 1.59375q0.5 0.984375 0.5 2.265625q0 0.359375 -0.046875 0.71875q-0.046875 0.34375 -0.078125 0.5l-7.015625 0l0 -1.84375l5.171875 0l-0.4375 0.53125q0 -1.125 -0.484375 -1.6875q-0.46875 -0.578125 -1.375 -0.578125q-0.671875 0 -1.1875 0.296875q-0.5 0.296875 -0.78125 0.921875q-0.28125 0.609375 -0.28125 1.546875q0 0.953125 0.328125 1.5625q0.34375 0.59375 0.984375 0.90625q0.640625 0.296875 1.53125 0.296875q0.625 0 1.1875 -0.171875q0.578125 -0.171875 1.203125 -0.484375l0.90625 1.65625q-0.796875 0.5 -1.765625 0.796875q-0.96875 0.28125 -1.90625 0.28125z" fill-rule="nonzero"/><path fill="#ffffff" d="m563.95233 27.575642l0 -12.15625l2.75 0l0 4.6875l3.3125 0l0 -4.6875l2.75 0l0 12.15625l-2.75 0l0 -5.078125l-3.3125 0l0 5.078125l-2.75 0zm16.162476 0.21875q-1.4375 0 -2.609375 -0.5625q-1.15625 -0.578125 -1.84375 -1.65625q-0.671875 -1.09375 -0.671875 -2.625q0 -1.515625 0.6875 -2.609375q0.6875 -1.09375 1.78125 -1.671875q1.109375 -0.578125 2.34375 -0.578125q1.4375 0 2.40625 0.59375q0.96875 0.59375 1.453125 1.59375q0.5 0.984375 0.5 2.265625q0 0.359375 -0.046875 0.71875q-0.046875 0.34375 -0.078125 0.5l-7.015625 0l0 -1.84375l5.171875 0l-0.4375 0.53125q0 -1.125 -0.484375 -1.6875q-0.46875 -0.578125 -1.375 -0.578125q-0.671875 0 -1.1875 0.296875q-0.5 0.296875 -0.78125 0.921875q-0.28125 0.609375 -0.28125 1.546875q0 0.953125 0.328125 1.5625q0.34375 0.59375 0.984375 0.90625q0.640625 0.296875 1.53125 0.296875q0.625 0 1.1875 -0.171875q0.578125 -0.171875 1.203125 -0.484375l0.90625 1.65625q-0.796875 0.5 -1.765625 0.796875q-0.96875 0.28125 -1.90625 0.28125zm9.209412 0q-0.921875 0 -1.609375 -0.359375q-0.671875 -0.375 -1.046875 -1.015625q-0.375 -0.640625 -0.375 -1.421875q0 -1.546875 1.40625 -2.359375q1.40625 -0.828125 4.6875 -1.015625q-0.046875 -0.421875 -0.28125 -0.71875q-0.21875 -0.3125 -0.640625 -0.46875q-0.421875 -0.15625 -1.046875 -0.15625q-0.453125 0 -0.90625 0.109375q-0.4375 0.09375 -0.921875 0.296875q-0.46875 0.1875 -1.0 0.453125l-0.96875 -1.796875q0.640625 -0.359375 1.328125 -0.640625q0.703125 -0.28125 1.453125 -0.4375q0.765625 -0.171875 1.546875 -0.171875q1.3125 0 2.234375 0.46875q0.9375 0.453125 1.4375 1.375q0.515625 0.921875 0.515625 2.34375l0 5.296875l-2.234375 0l-0.21875 -1.046875l-0.0625 0q-0.703125 0.53125 -1.546875 0.90625q-0.828125 0.359375 -1.75 0.359375zm0.890625 -2.125q0.609375 0 1.140625 -0.25q0.546875 -0.25 1.03125 -0.625l0 -1.53125q-1.359375 0.078125 -2.125 0.28125q-0.75 0.203125 -1.046875 0.53125q-0.296875 0.3125 -0.296875 0.71875q0 0.28125 0.15625 0.484375q0.15625 0.203125 0.453125 0.296875q0.296875 0.09375 0.6875 0.09375zm8.303101 1.90625l0 -9.25l2.234375 0l0.21875 2.015625l0.0625 0q0.6875 -1.140625 1.65625 -1.6875q0.984375 -0.5625 2.09375 -0.5625q0.609375 0 0.984375 0.09375q0.390625 0.09375 0.796875 0.28125l-0.5625 2.296875q-0.421875 -0.125 -0.765625 -0.1875q-0.34375 -0.078125 -0.875 -0.078125q-0.859375 0 -1.6875 0.515625q-0.828125 0.5 -1.421875 1.75l0 4.8125l-2.734375 0zm16.256287 0.21875q-1.46875 0 -2.34375 -0.5q-0.859375 -0.515625 -1.25 -1.421875q-0.390625 -0.921875 -0.390625 -2.140625l0 -3.265625l-2.3125 0l0 -2.03125l2.4375 -0.109375l0.359375 -2.84375l2.25 0l0 2.84375l3.921875 0l0 2.140625l-3.921875 0l0 3.25q0 0.6875 0.203125 1.125q0.21875 0.421875 0.640625 0.625q0.421875 0.1875 1.09375 0.1875q0.546875 0 0.984375 -0.09375q0.453125 -0.09375 0.875 -0.234375l0.484375 1.96875q-0.625 0.1875 -1.359375 0.34375q-0.734375 0.15625 -1.671875 0.15625zm17.325012 -0.21875l0 -9.25l2.234375 0l0.21875 2.015625l0.0625 0q0.6875 -1.140625 1.65625 -1.6875q0.984375 -0.5625 2.09375 -0.5625q0.609375 0 0.984375 0.09375q0.390625 0.09375 0.796875 0.28125l-0.5625 2.296875q-0.421875 -0.125 -0.765625 -0.1875q-0.34375 -0.078125 -0.875 -0.078125q-0.859375 0 -1.6875 0.515625q-0.828125 0.5 -1.421875 1.75l0 4.8125l-2.734375 0zm13.193726 0.21875q-0.921875 0 -1.609375 -0.359375q-0.671875 -0.375 -1.046875 -1.015625q-0.375 -0.640625 -0.375 -1.421875q0 -1.546875 1.40625 -2.359375q1.40625 -0.828125 4.6875 -1.015625q-0.046875 -0.421875 -0.28125 -0.71875q-0.21875 -0.3125 -0.640625 -0.46875q-0.421875 -0.15625 -1.046875 -0.15625q-0.453125 0 -0.90625 0.109375q-0.4375 0.09375 -0.921875 0.296875q-0.46875 0.1875 -1.0 0.453125l-0.96875 -1.796875q0.640625 -0.359375 1.328125 -0.640625q0.703125 -0.28125 1.453125 -0.4375q0.765625 -0.171875 1.546875 -0.171875q1.3125 0 2.234375 0.46875q0.9375 0.453125 1.4375 1.375q0.515625 0.921875 0.515625 2.34375l0 5.296875l-2.234375 0l-0.21875 -1.046875l-0.0625 0q-0.703125 0.53125 -1.546875 0.90625q-0.828125 0.359375 -1.75 0.359375zm0.890625 -2.125q0.609375 0 1.140625 -0.25q0.546875 -0.25 1.03125 -0.625l0 -1.53125q-1.359375 0.078125 -2.125 0.28125q-0.75 0.203125 -1.046875 0.53125q-0.296875 0.3125 -0.296875 0.71875q0 0.28125 0.15625 0.484375q0.15625 0.203125 0.453125 0.296875q0.296875 0.09375 0.6875 0.09375zm13.365662 2.125q-1.46875 0 -2.34375 -0.5q-0.859375 -0.515625 -1.25 -1.421875q-0.390625 -0.921875 -0.390625 -2.140625l0 -3.265625l-2.3125 0l0 -2.03125l2.4375 -0.109375l0.359375 -2.84375l2.25 0l0 2.84375l3.921875 0l0 2.140625l-3.921875 0l0 3.25q0 0.6875 0.203125 1.125q0.21875 0.421875 0.640625 0.625q0.421875 0.1875 1.09375 0.1875q0.546875 0 0.984375 -0.09375q0.453125 -0.09375 0.875 -0.234375l0.484375 1.96875q-0.625 0.1875 -1.359375 0.34375q-0.734375 0.15625 -1.671875 0.15625zm10.115601 0q-1.4375 0 -2.609375 -0.5625q-1.15625 -0.578125 -1.84375 -1.65625q-0.671875 -1.09375 -0.671875 -2.625q0 -1.515625 0.6875 -2.609375q0.6875 -1.09375 1.78125 -1.671875q1.109375 -0.578125 2.34375 -0.578125q1.4375 0 2.40625 0.59375q0.96875 0.59375 1.453125 1.59375q0.5 0.984375 0.5 2.265625q0 0.359375 -0.046875 0.71875q-0.046875 0.34375 -0.078125 0.5l-7.015625 0l0 -1.84375l5.171875 0l-0.4375 0.53125q0 -1.125 -0.484375 -1.6875q-0.46875 -0.578125 -1.375 -0.578125q-0.671875 0 -1.1875 0.296875q-0.5 0.296875 -0.78125 0.921875q-0.28125 0.609375 -0.28125 1.546875q0 0.953125 0.328125 1.5625q0.34375 0.59375 0.984375 0.90625q0.640625 0.296875 1.53125 0.296875q0.625 0 1.1875 -0.171875q0.578125 -0.171875 1.203125 -0.484375l0.90625 1.65625q-0.796875 0.5 -1.765625 0.796875q-0.96875 0.28125 -1.90625 0.28125z" fill-rule="nonzero"/><path fill="#000000" d="m397.13382 53.71852q-0.640625 0 -1.203125 -0.15625q-0.546875 -0.15625 -1.03125 -0.46875q-0.484375 -0.3125 -0.875 -0.75q-0.390625 -0.453125 -0.703125 -1.0l0.984375 -1.0q0.328125 0.5625 0.671875 0.9375q0.34375 0.359375 0.6875 0.59375q0.34375 0.21875 0.703125 0.3125q0.375 0.09375 0.765625 0.09375q0.765625 0 1.34375 -0.359375q0.59375 -0.375 0.921875 -1.015625q0.328125 -0.640625 0.328125 -1.453125l0 -7.59375l-2.375 0l0 -1.390625l5.78125 0l0 1.390625l-1.90625 0l0 7.703125q0 0.890625 -0.3125 1.65625q-0.296875 0.765625 -0.84375 1.328125q-0.53125 0.5625 -1.28125 0.875q-0.734375 0.296875 -1.65625 0.296875zm11.123047 0q-1.265625 0 -2.296875 -0.65625q-1.03125 -0.671875 -1.625 -1.8125q-0.59375 -1.15625 -0.59375 -2.609375q0 -1.46875 0.609375 -2.609375q0.625 -1.140625 1.65625 -1.78125q1.03125 -0.65625 2.328125 -0.65625q0.75 0 1.40625 0.21875q0.65625 0.21875 1.171875 0.625q0.515625 0.40625 0.859375 0.9375q0.34375 0.53125 0.46875 1.140625l-0.40625 -0.203125l0.0625 -2.515625l1.390625 0l0 9.734375l-1.421875 0l0 -2.390625l0.375 -0.234375q-0.125 0.546875 -0.5 1.0625q-0.375 0.515625 -0.90625 0.90625q-0.53125 0.390625 -1.203125 0.625q-0.65625 0.21875 -1.375 0.21875zm0.3125 -1.34375q0.96875 0 1.734375 -0.46875q0.765625 -0.484375 1.203125 -1.328125q0.4375 -0.859375 0.4375 -1.9375q0 -1.078125 -0.4375 -1.921875q-0.4375 -0.84375 -1.203125 -1.328125q-0.765625 -0.484375 -1.734375 -0.484375q-0.984375 0 -1.75 0.484375q-0.75 0.484375 -1.1875 1.328125q-0.4375 0.84375 -0.4375 1.921875q0 1.0625 0.421875 1.921875q0.4375 0.84375 1.203125 1.328125q0.765625 0.484375 1.75 0.484375zm7.441864 1.15625l0 -9.734375l1.390625 0l0.046875 2.03125l-0.21875 0.09375q0.1875 -0.640625 0.71875 -1.15625q0.546875 -0.53125 1.296875 -0.84375q0.765625 -0.328125 1.5625 -0.328125q1.078125 0 1.796875 0.4375q0.734375 0.421875 1.109375 1.3125q0.375 0.890625 0.375 2.28125l0 5.90625l-1.421875 0l0 -5.84375q0 -0.96875 -0.25 -1.59375q-0.25 -0.625 -0.78125 -0.921875q-0.515625 -0.296875 -1.28125 -0.28125q-0.625 0 -1.171875 0.21875q-0.53125 0.21875 -0.9375 0.59375q-0.390625 0.359375 -0.609375 0.84375q-0.21875 0.484375 -0.21875 1.046875l0 5.9375l-0.6875 0q-0.140625 0 -0.3125 0q-0.15625 0 -0.40625 0zm15.042877 0.1875q-1.453125 0 -2.59375 -0.625q-1.125 -0.640625 -1.765625 -1.78125q-0.625 -1.140625 -0.625 -2.609375q0 -1.140625 0.34375 -2.0625q0.359375 -0.921875 1.0 -1.609375q0.65625 -0.703125 1.546875 -1.078125q0.890625 -0.390625 1.9375 -0.390625q1.0 0 1.796875 0.359375q0.8125 0.359375 1.40625 0.984375q0.59375 0.625 0.890625 1.484375q0.296875 0.859375 0.25 1.875l-0.015625 0.65625l-8.109375 0l-0.203125 -1.171875l7.25 0l-0.328125 0.3125l0 -0.4375q-0.046875 -0.671875 -0.40625 -1.296875q-0.34375 -0.625 -0.984375 -1.015625q-0.640625 -0.40625 -1.546875 -0.40625q-1.046875 0 -1.8125 0.421875q-0.765625 0.421875 -1.171875 1.25q-0.40625 0.8125 -0.40625 2.03125q0 1.15625 0.4375 2.0q0.453125 0.84375 1.28125 1.3125q0.84375 0.46875 2.015625 0.46875q0.6875 0 1.359375 -0.234375q0.6875 -0.234375 1.515625 -0.921875l0.71875 1.015625q-0.421875 0.421875 -1.03125 0.75q-0.59375 0.328125 -1.296875 0.53125q-0.703125 0.1875 -1.453125 0.1875z" fill-rule="nonzero"/><path fill="#000000" d="m498.9416 53.53102l5.0 -13.0625l1.65625 0l4.96875 13.0625l-1.59375 0l-3.1875 -8.46875q-0.125 -0.359375 -0.296875 -0.828125q-0.15625 -0.484375 -0.328125 -0.984375q-0.171875 -0.515625 -0.34375 -1.0q-0.15625 -0.484375 -0.28125 -0.859375l0.375 0q-0.15625 0.46875 -0.3125 0.9375q-0.15625 0.46875 -0.328125 0.953125q-0.15625 0.46875 -0.328125 0.9375q-0.171875 0.46875 -0.34375 0.9375l-3.171875 8.375l-1.484375 0zm2.125 -3.59375l0.546875 -1.421875l6.171875 0l0.59375 1.421875l-7.3125 0z" fill-rule="nonzero"/><path fill="#000000" d="m613.7206 53.62477q-0.96875 0 -1.8125 -0.328125q-0.828125 -0.34375 -1.4375 -0.96875q-0.59375 -0.625 -0.9375 -1.46875q-0.328125 -0.859375 -0.328125 -1.859375q0 -0.484375 0.125 -1.0625q0.125 -0.59375 0.390625 -1.296875q0.265625 -0.703125 0.640625 -1.46875q0.375 -0.765625 0.859375 -1.578125l1.890625 -3.234375l1.421875 0l0.078125 0.1875l-2.109375 3.546875q-0.453125 0.75 -0.8125 1.484375q-0.359375 0.71875 -0.6875 1.453125q-0.3125 0.734375 -0.609375 1.5l-0.265625 -1.34375q0.359375 -0.59375 0.78125 -1.03125q0.421875 -0.453125 0.90625 -0.78125q0.484375 -0.328125 1.03125 -0.484375q0.546875 -0.171875 1.125 -0.171875q1.140625 0 2.0625 0.59375q0.921875 0.59375 1.484375 1.5625q0.5625 0.96875 0.5625 2.15625q0 1.3125 -0.578125 2.359375q-0.578125 1.046875 -1.578125 1.640625q-1.0 0.59375 -2.203125 0.59375zm-0.0625 -1.359375q0.84375 0 1.515625 -0.40625q0.671875 -0.421875 1.0625 -1.109375q0.390625 -0.703125 0.390625 -1.578125q0 -0.828125 -0.390625 -1.515625q-0.390625 -0.703125 -1.0625 -1.125q-0.671875 -0.421875 -1.5 -0.421875q-0.875 0 -1.5625 0.40625q-0.671875 0.40625 -1.0625 1.109375q-0.390625 0.6875 -0.390625 1.515625q0 0.890625 0.390625 1.59375q0.390625 0.6875 1.0625 1.109375q0.6875 0.421875 1.546875 0.421875zm7.052429 1.265625l-0.453125 -1.078125l4.40625 -4.953125q0.3125 -0.34375 0.65625 -0.796875q0.359375 -0.453125 0.65625 -0.9375q0.3125 -0.5 0.5 -0.984375q0.1875 -0.484375 0.1875 -0.953125q0 -0.6875 -0.296875 -1.15625q-0.296875 -0.484375 -0.859375 -0.734375q-0.546875 -0.265625 -1.265625 -0.265625q-0.640625 0 -1.265625 0.296875q-0.609375 0.296875 -1.109375 0.921875q-0.5 0.609375 -0.78125 1.5625l-1.15625 -0.703125q0.328125 -1.125 0.984375 -1.90625q0.65625 -0.78125 1.546875 -1.171875q0.90625 -0.390625 1.921875 -0.390625q1.09375 0 1.9375 0.4375q0.859375 0.4375 1.359375 1.234375q0.515625 0.796875 0.515625 1.828125q0 0.4375 -0.109375 0.890625q-0.09375 0.453125 -0.3125 0.90625q-0.203125 0.4375 -0.5 0.90625q-0.28125 0.46875 -0.671875 0.953125q-0.375 0.484375 -0.828125 1.0l-3.75 4.171875l-0.234375 -0.484375l6.8125 0l0 1.40625l-7.890625 0z" fill-rule="nonzero"/><path fill="#000000" d="m397.13382 79.673904q-0.640625 0 -1.203125 -0.15625q-0.546875 -0.15625 -1.03125 -0.46875q-0.484375 -0.3125 -0.875 -0.75q-0.390625 -0.453125 -0.703125 -1.0l0.984375 -1.0q0.328125 0.5625 0.671875 0.9375q0.34375 0.359375 0.6875 0.59375q0.34375 0.21875 0.703125 0.3125q0.375 0.09375 0.765625 0.09375q0.765625 0 1.34375 -0.359375q0.59375 -0.375 0.921875 -1.015625q0.328125 -0.640625 0.328125 -1.453125l0 -7.59375l-2.375 0l0 -1.390625l5.78125 0l0 1.390625l-1.90625 0l0 7.703125q0 0.890625 -0.3125 1.65625q-0.296875 0.765625 -0.84375 1.328125q-0.53125 0.5625 -1.28125 0.875q-0.734375 0.296875 -1.65625 0.296875zm11.123047 0q-1.265625 0 -2.296875 -0.65625q-1.03125 -0.671875 -1.625 -1.8125q-0.59375 -1.15625 -0.59375 -2.609375q0 -1.46875 0.609375 -2.609375q0.625 -1.140625 1.65625 -1.78125q1.03125 -0.65625 2.328125 -0.65625q0.75 0 1.40625 0.21875q0.65625 0.21875 1.171875 0.625q0.515625 0.40625 0.859375 0.9375q0.34375 0.53125 0.46875 1.140625l-0.40625 -0.203125l0.0625 -2.515625l1.390625 0l0 9.734375l-1.421875 0l0 -2.390625l0.375 -0.234375q-0.125 0.546875 -0.5 1.0625q-0.375 0.515625 -0.90625 0.90625q-0.53125 0.390625 -1.203125 0.625q-0.65625 0.21875 -1.375 0.21875zm0.3125 -1.34375q0.96875 0 1.734375 -0.46875q0.765625 -0.484375 1.203125 -1.328125q0.4375 -0.859375 0.4375 -1.9375q0 -1.078125 -0.4375 -1.921875q-0.4375 -0.84375 -1.203125 -1.328125q-0.765625 -0.484375 -1.734375 -0.484375q-0.984375 0 -1.75 0.484375q-0.75 0.484375 -1.1875 1.328125q-0.4375 0.84375 -0.4375 1.921875q0 1.0625 0.421875 1.921875q0.4375 0.84375 1.203125 1.328125q0.765625 0.484375 1.75 0.484375zm7.441864 1.15625l0 -9.734375l1.390625 0l0.046875 2.03125l-0.21875 0.09375q0.1875 -0.640625 0.71875 -1.15625q0.546875 -0.53125 1.296875 -0.84375q0.765625 -0.328125 1.5625 -0.328125q1.078125 0 1.796875 0.4375q0.734375 0.421875 1.109375 1.3125q0.375 0.890625 0.375 2.28125l0 5.90625l-1.421875 0l0 -5.84375q0 -0.96875 -0.25 -1.59375q-0.25 -0.625 -0.78125 -0.921875q-0.515625 -0.296875 -1.28125 -0.28125q-0.625 0 -1.171875 0.21875q-0.53125 0.21875 -0.9375 0.59375q-0.390625 0.359375 -0.609375 0.84375q-0.21875 0.484375 -0.21875 1.046875l0 5.9375l-0.6875 0q-0.140625 0 -0.3125 0q-0.15625 0 -0.40625 0zm15.042877 0.1875q-1.453125 0 -2.59375 -0.625q-1.125 -0.640625 -1.765625 -1.78125q-0.625 -1.140625 -0.625 -2.609375q0 -1.140625 0.34375 -2.0625q0.359375 -0.921875 1.0 -1.609375q0.65625 -0.703125 1.546875 -1.078125q0.890625 -0.390625 1.9375 -0.390625q1.0 0 1.796875 0.359375q0.8125 0.359375 1.40625 0.984375q0.59375 0.625 0.890625 1.484375q0.296875 0.859375 0.25 1.875l-0.015625 0.65625l-8.109375 0l-0.203125 -1.171875l7.25 0l-0.328125 0.3125l0 -0.4375q-0.046875 -0.671875 -0.40625 -1.296875q-0.34375 -0.625 -0.984375 -1.015625q-0.640625 -0.40625 -1.546875 -0.40625q-1.046875 0 -1.8125 0.421875q-0.765625 0.421875 -1.171875 1.25q-0.40625 0.8125 -0.40625 2.03125q0 1.15625 0.4375 2.0q0.453125 0.84375 1.28125 1.3125q0.84375 0.46875 2.015625 0.46875q0.6875 0 1.359375 -0.234375q0.6875 -0.234375 1.515625 -0.921875l0.71875 1.015625q-0.421875 0.421875 -1.03125 0.75q-0.59375 0.328125 -1.296875 0.53125q-0.703125 0.1875 -1.453125 0.1875z" fill-rule="nonzero"/><path fill="#000000" d="m500.41336 79.486404l0 -13.0625l5.296875 0q1.140625 0 1.96875 0.40625q0.828125 0.40625 1.265625 1.140625q0.453125 0.734375 0.453125 1.734375q0 1.09375 -0.609375 1.875q-0.609375 0.765625 -1.671875 1.0625l-0.046875 -0.359375q0.921875 0.171875 1.59375 0.65625q0.671875 0.46875 1.046875 1.15625q0.390625 0.6875 0.390625 1.546875q0 0.875 -0.3125 1.59375q-0.296875 0.703125 -0.84375 1.203125q-0.546875 0.5 -1.328125 0.78125q-0.765625 0.265625 -1.71875 0.265625l-5.484375 0zm1.453125 -1.421875l3.921875 0q0.84375 0 1.46875 -0.28125q0.625 -0.296875 0.96875 -0.828125q0.34375 -0.546875 0.34375 -1.25q0 -0.671875 -0.375 -1.171875q-0.359375 -0.515625 -1.0 -0.796875q-0.640625 -0.28125 -1.5 -0.28125l-3.828125 0l0 4.609375zm0 -6.015625l3.734375 0q0.671875 0 1.1875 -0.265625q0.53125 -0.28125 0.828125 -0.75q0.296875 -0.484375 0.296875 -1.078125q0 -0.953125 -0.640625 -1.53125q-0.640625 -0.578125 -1.796875 -0.578125l-3.609375 0l0 4.203125z" fill-rule="nonzero"/><path fill="#000000" d="m613.534 79.580154q-0.96875 0 -1.8125 -0.328125q-0.828125 -0.34375 -1.4375 -0.96875q-0.59375 -0.625 -0.9375 -1.46875q-0.328125 -0.859375 -0.328125 -1.859375q0 -0.484375 0.125 -1.0625q0.125 -0.59375 0.390625 -1.296875q0.265625 -0.703125 0.640625 -1.46875q0.375 -0.765625 0.859375 -1.578125l1.890625 -3.234375l1.421875 0l0.078125 0.1875l-2.109375 3.546875q-0.453125 0.75 -0.8125 1.484375q-0.359375 0.71875 -0.6875 1.453125q-0.3125 0.734375 -0.609375 1.5l-0.265625 -1.34375q0.359375 -0.59375 0.78125 -1.03125q0.421875 -0.453125 0.90625 -0.78125q0.484375 -0.328125 1.03125 -0.484375q0.546875 -0.171875 1.125 -0.171875q1.140625 0 2.0625 0.59375q0.921875 0.59375 1.484375 1.5625q0.5625 0.96875 0.5625 2.15625q0 1.3125 -0.578125 2.359375q-0.578125 1.046875 -1.578125 1.640625q-1.0 0.59375 -2.203125 0.59375zm-0.0625 -1.359375q0.84375 0 1.515625 -0.40625q0.671875 -0.421875 1.0625 -1.109375q0.390625 -0.703125 0.390625 -1.578125q0 -0.828125 -0.390625 -1.515625q-0.390625 -0.703125 -1.0625 -1.125q-0.671875 -0.421875 -1.5 -0.421875q-0.875 0 -1.5625 0.40625q-0.671875 0.40625 -1.0625 1.109375q-0.390625 0.6875 -0.390625 1.515625q0 0.890625 0.390625 1.59375q0.390625 0.6875 1.0625 1.109375q0.6875 0.421875 1.546875 0.421875zm10.114929 1.390625q-1.296875 0 -2.34375 -0.578125q-1.03125 -0.59375 -1.71875 -1.6875l0.875 -0.953125q0.78125 1.046875 1.5625 1.453125q0.796875 0.390625 1.640625 0.390625q0.890625 0 1.625 -0.421875q0.75 -0.421875 1.171875 -1.125q0.4375 -0.703125 0.4375 -1.5625q0 -0.84375 -0.40625 -1.515625q-0.390625 -0.6875 -1.0625 -1.09375q-0.671875 -0.40625 -1.546875 -0.40625q-0.453125 0 -0.921875 0.109375q-0.46875 0.109375 -0.96875 0.328125q-0.484375 0.203125 -1.046875 0.515625l-0.828125 -1.09375l0.765625 -5.546875l7.046875 0l0 1.359375l-6.28125 0l0.46875 -0.328125l-0.6875 4.5625l-0.4375 -0.296875q0.296875 -0.234375 0.796875 -0.453125q0.515625 -0.234375 1.125 -0.375q0.609375 -0.140625 1.1875 -0.140625q1.203125 0 2.15625 0.5625q0.953125 0.546875 1.515625 1.515625q0.5625 0.953125 0.5625 2.203125q0 1.296875 -0.625 2.34375q-0.609375 1.03125 -1.671875 1.640625q-1.0625 0.59375 -2.390625 0.59375z" fill-rule="nonzero"/><path fill="#000000" d="m397.12448 105.62928q-0.640625 0 -1.203125 -0.15625q-0.546875 -0.15625 -1.03125 -0.46875q-0.484375 -0.3125 -0.875 -0.75q-0.390625 -0.453125 -0.703125 -1.0l0.984375 -1.0q0.328125 0.5625 0.671875 0.9375q0.34375 0.359375 0.6875 0.59375q0.34375 0.21875 0.703125 0.3125q0.375 0.09375 0.765625 0.09375q0.765625 0 1.34375 -0.359375q0.59375 -0.375 0.921875 -1.015625q0.328125 -0.640625 0.328125 -1.453125l0 -7.59375l-2.375 0l0 -1.390625l5.78125 0l0 1.390625l-1.90625 0l0 7.703125q0 0.890625 -0.3125 1.65625q-0.296875 0.765625 -0.84375 1.328125q-0.53125 0.5625 -1.28125 0.875q-0.734375 0.296875 -1.65625 0.296875zm11.623047 0q-1.453125 0 -2.59375 -0.65625q-1.125 -0.65625 -1.765625 -1.8125q-0.640625 -1.15625 -0.640625 -2.625q0 -1.453125 0.640625 -2.59375q0.640625 -1.140625 1.765625 -1.78125q1.140625 -0.65625 2.59375 -0.65625q1.4375 0 2.5625 0.65625q1.125 0.640625 1.765625 1.78125q0.65625 1.140625 0.65625 2.59375q0 1.46875 -0.65625 2.625q-0.640625 1.15625 -1.765625 1.8125q-1.125 0.65625 -2.5625 0.65625zm0 -1.328125q1.03125 0 1.828125 -0.484375q0.796875 -0.5 1.25 -1.34375q0.453125 -0.859375 0.453125 -1.9375q0 -1.078125 -0.453125 -1.921875q-0.453125 -0.84375 -1.25 -1.3125q-0.796875 -0.484375 -1.828125 -0.484375q-1.03125 0 -1.84375 0.484375q-0.8125 0.46875 -1.265625 1.328125q-0.453125 0.84375 -0.4375 1.90625q-0.015625 1.078125 0.4375 1.9375q0.453125 0.84375 1.265625 1.34375q0.8125 0.484375 1.84375 0.484375zm7.011841 1.140625l0 -13.8125l1.40625 0l0 6.203125l-0.28125 0.28125q0.203125 -0.765625 0.765625 -1.34375q0.5625 -0.59375 1.3125 -0.921875q0.75 -0.34375 1.53125 -0.34375q1.125 0 1.875 0.4375q0.75 0.421875 1.109375 1.3125q0.359375 0.890625 0.359375 2.28125l0 5.90625l-1.421875 0l0 -5.84375q0 -0.96875 -0.25 -1.59375q-0.25 -0.625 -0.78125 -0.921875q-0.515625 -0.296875 -1.296875 -0.28125q-0.609375 0 -1.15625 0.21875q-0.53125 0.21875 -0.9375 0.59375q-0.390625 0.359375 -0.609375 0.84375q-0.21875 0.484375 -0.21875 1.046875l0 5.9375l-0.6875 0q-0.140625 0 -0.3125 0q-0.15625 0 -0.40625 0zm10.746002 0l0 -9.734375l1.390625 0l0.046875 2.03125l-0.21875 0.09375q0.1875 -0.640625 0.71875 -1.15625q0.546875 -0.53125 1.296875 -0.84375q0.765625 -0.328125 1.5625 -0.328125q1.078125 0 1.796875 0.4375q0.734375 0.421875 1.109375 1.3125q0.375 0.890625 0.375 2.28125l0 5.90625l-1.421875 0l0 -5.84375q0 -0.96875 -0.25 -1.59375q-0.25 -0.625 -0.78125 -0.921875q-0.515625 -0.296875 -1.28125 -0.28125q-0.625 0 -1.171875 0.21875q-0.53125 0.21875 -0.9375 0.59375q-0.390625 0.359375 -0.609375 0.84375q-0.21875 0.484375 -0.21875 1.046875l0 5.9375l-0.6875 0q-0.140625 0 -0.3125 0q-0.15625 0 -0.40625 0z" fill-rule="nonzero"/><path fill="#000000" d="m498.9416 105.44178l5.0 -13.0625l1.65625 0l4.96875 13.0625l-1.59375 0l-3.1875 -8.46875q-0.125 -0.359375 -0.296875 -0.828125q-0.15625 -0.484375 -0.328125 -0.984375q-0.171875 -0.515625 -0.34375 -1.0q-0.15625 -0.484375 -0.28125 -0.859375l0.375 0q-0.15625 0.46875 -0.3125 0.9375q-0.15625 0.46875 -0.328125 0.953125q-0.15625 0.46875 -0.328125 0.9375q-0.171875 0.46875 -0.34375 0.9375l-3.171875 8.375l-1.484375 0zm2.125 -3.59375l0.546875 -1.421875l6.171875 0l0.59375 1.421875l-7.3125 0z" fill-rule="nonzero"/><path fill="#000000" d="m611.78796 105.44178l5.484436 -12.203125l0.234375 0.5l-6.984436 0l0 -1.359375l7.859436 0l0.25 1.140625l-5.265686 11.921875l-1.578125 0zm11.206055 -0.640625l0 -11.265625l0.546875 0.40625l-2.421875 1.46875l-0.4375 -1.3125l3.234375 -1.90625l0.546875 0l0 12.609375l-1.46875 0zm-1.921875 0.640625l0 -1.421875l5.359375 0l0 1.421875l-5.359375 0z" fill-rule="nonzero"/><path fill="#000000" d="m397.12448 131.58467q-0.640625 0 -1.203125 -0.15625q-0.546875 -0.15625 -1.03125 -0.46875q-0.484375 -0.3125 -0.875 -0.75q-0.390625 -0.453125 -0.703125 -1.0l0.984375 -1.0q0.328125 0.5625 0.671875 0.9375q0.34375 0.359375 0.6875 0.59375q0.34375 0.21875 0.703125 0.3125q0.375 0.09375 0.765625 0.09375q0.765625 0 1.34375 -0.359375q0.59375 -0.375 0.921875 -1.015625q0.328125 -0.640625 0.328125 -1.4531326l0 -7.59375l-2.375 0l0 -1.390625l5.78125 0l0 1.390625l-1.90625 0l0 7.703125q0 0.8906326 -0.3125 1.6562576q-0.296875 0.765625 -0.84375 1.328125q-0.53125 0.5625 -1.28125 0.875q-0.734375 0.296875 -1.65625 0.296875zm11.623047 0q-1.453125 0 -2.59375 -0.65625q-1.125 -0.65625 -1.765625 -1.8125q-0.640625 -1.1562576 -0.640625 -2.6250076q0 -1.453125 0.640625 -2.59375q0.640625 -1.140625 1.765625 -1.78125q1.140625 -0.65625 2.59375 -0.65625q1.4375 0 2.5625 0.65625q1.125 0.640625 1.765625 1.78125q0.65625 1.140625 0.65625 2.59375q0 1.46875 -0.65625 2.6250076q-0.640625 1.15625 -1.765625 1.8125q-1.125 0.65625 -2.5625 0.65625zm0 -1.328125q1.03125 0 1.828125 -0.484375q0.796875 -0.5 1.25 -1.34375q0.453125 -0.8593826 0.453125 -1.9375076q0 -1.078125 -0.453125 -1.921875q-0.453125 -0.84375 -1.25 -1.3125q-0.796875 -0.484375 -1.828125 -0.484375q-1.03125 0 -1.84375 0.484375q-0.8125 0.46875 -1.265625 1.328125q-0.453125 0.84375 -0.4375 1.90625q-0.015625 1.078125 0.4375 1.9375076q0.453125 0.84375 1.265625 1.34375q0.8125 0.484375 1.84375 0.484375zm7.011841 1.140625l0 -13.812508l1.40625 0l0 6.203125l-0.28125 0.28125q0.203125 -0.765625 0.765625 -1.34375q0.5625 -0.59375 1.3125 -0.921875q0.75 -0.34375 1.53125 -0.34375q1.125 0 1.875 0.4375q0.75 0.421875 1.109375 1.3125q0.359375 0.890625 0.359375 2.28125l0 5.9062576l-1.421875 0l0 -5.8437576q0 -0.96875 -0.25 -1.59375q-0.25 -0.625 -0.78125 -0.921875q-0.515625 -0.296875 -1.296875 -0.28125q-0.609375 0 -1.15625 0.21875q-0.53125 0.21875 -0.9375 0.59375q-0.390625 0.359375 -0.609375 0.84375q-0.21875 0.484375 -0.21875 1.046875l0 5.9375076l-0.6875 0q-0.140625 0 -0.3125 0q-0.15625 0 -0.40625 0zm10.746002 0l0 -9.734383l1.390625 0l0.046875 2.03125l-0.21875 0.09375q0.1875 -0.640625 0.71875 -1.15625q0.546875 -0.53125 1.296875 -0.84375q0.765625 -0.328125 1.5625 -0.328125q1.078125 0 1.796875 0.4375q0.734375 0.421875 1.109375 1.3125q0.375 0.890625 0.375 2.28125l0 5.9062576l-1.421875 0l0 -5.8437576q0 -0.96875 -0.25 -1.59375q-0.25 -0.625 -0.78125 -0.921875q-0.515625 -0.296875 -1.28125 -0.28125q-0.625 0 -1.171875 0.21875q-0.53125 0.21875 -0.9375 0.59375q-0.390625 0.359375 -0.609375 0.84375q-0.21875 0.484375 -0.21875 1.046875l0 5.9375076l-0.6875 0q-0.140625 0 -0.3125 0q-0.15625 0 -0.40625 0z" fill-rule="nonzero"/><path fill="#000000" d="m500.41336 131.39717l0 -13.062508l5.296875 0q1.140625 0 1.96875 0.40625q0.828125 0.40625 1.265625 1.140625q0.453125 0.734375 0.453125 1.734375q0 1.09375 -0.609375 1.875q-0.609375 0.765625 -1.671875 1.0625l-0.046875 -0.359375q0.921875 0.171875 1.59375 0.65625q0.671875 0.46875 1.046875 1.15625q0.390625 0.6875 0.390625 1.546875q0 0.8750076 -0.3125 1.5937576q-0.296875 0.703125 -0.84375 1.203125q-0.546875 0.5 -1.328125 0.78125q-0.765625 0.265625 -1.71875 0.265625l-5.484375 0zm1.453125 -1.421875l3.921875 0q0.84375 0 1.46875 -0.28125q0.625 -0.296875 0.96875 -0.828125q0.34375 -0.546875 0.34375 -1.2500076q0 -0.671875 -0.375 -1.171875q-0.359375 -0.515625 -1.0 -0.796875q-0.640625 -0.28125 -1.5 -0.28125l-3.828125 0l0 4.6093826zm0 -6.0156326l3.734375 0q0.671875 0 1.1875 -0.265625q0.53125 -0.28125 0.828125 -0.75q0.296875 -0.484375 0.296875 -1.078125q0 -0.953125 -0.640625 -1.53125q-0.640625 -0.578125 -1.796875 -0.578125l-3.609375 0l0 4.203125z" fill-rule="nonzero"/><path fill="#000000" d="m610.6219 131.39717l5.484375 -12.203133l0.234375 0.5l-6.984375 0l0 -1.359375l7.859375 0l0.25 1.140625l-5.265625 11.921883l-1.578125 0zm12.423523 0.125q-1.296875 0 -2.34375 -0.578125q-1.03125 -0.59375 -1.71875 -1.6875l0.875 -0.953125q0.78125 1.046875 1.5625 1.453125q0.796875 0.390625 1.640625 0.390625q0.890625 0 1.625 -0.421875q0.75 -0.421875 1.171875 -1.125q0.4375 -0.7031326 0.4375 -1.5625076q0 -0.84375 -0.40625 -1.515625q-0.390625 -0.6875 -1.0625 -1.09375q-0.671875 -0.40625 -1.546875 -0.40625q-0.453125 0 -0.921875 0.109375q-0.46875 0.109375 -0.96875 0.328125q-0.484375 0.203125 -1.046875 0.515625l-0.828125 -1.09375l0.765625 -5.546875l7.046875 0l0 1.359375l-6.28125 0l0.46875 -0.328125l-0.6875 4.5625l-0.4375 -0.296875q0.296875 -0.234375 0.796875 -0.453125q0.515625 -0.234375 1.125 -0.375q0.609375 -0.140625 1.1875 -0.140625q1.203125 0 2.15625 0.5625q0.953125 0.546875 1.515625 1.515625q0.5625 0.953125 0.5625 2.203125q0 1.2968826 -0.625 2.3437576q-0.609375 1.03125 -1.671875 1.640625q-1.0625 0.59375 -2.390625 0.59375z" fill-rule="nonzero"/><path fill="#000000" d="m397.8241 157.54004q-0.640625 0 -1.203125 -0.15625q-0.546875 -0.15625 -1.03125 -0.46875q-0.484375 -0.3125 -0.875 -0.75q-0.390625 -0.453125 -0.703125 -1.0l0.984375 -1.0q0.328125 0.5625 0.671875 0.9375q0.34375 0.359375 0.6875 0.59375q0.34375 0.21875 0.703125 0.3125q0.375 0.09375 0.765625 0.09375q0.765625 0 1.34375 -0.359375q0.59375 -0.375 0.921875 -1.015625q0.328125 -0.640625 0.328125 -1.453125l0 -7.59375l-2.375 0l0 -1.390625l5.78125 0l0 1.390625l-1.90625 0l0 7.703125q0 0.890625 -0.3125 1.65625q-0.296875 0.765625 -0.84375 1.328125q-0.53125 0.5625 -1.28125 0.875q-0.734375 0.296875 -1.65625 0.296875zm11.123047 0q-1.265625 0 -2.296875 -0.65625q-1.03125 -0.671875 -1.625 -1.8125q-0.59375 -1.15625 -0.59375 -2.609375q0 -1.46875 0.609375 -2.609375q0.625 -1.140625 1.65625 -1.78125q1.03125 -0.65625 2.328125 -0.65625q0.75 0 1.40625 0.21875q0.65625 0.21875 1.171875 0.625q0.515625 0.40625 0.859375 0.9375q0.34375 0.53125 0.46875 1.140625l-0.40625 -0.203125l0.0625 -2.515625l1.390625 0l0 9.734375l-1.421875 0l0 -2.390625l0.375 -0.234375q-0.125 0.546875 -0.5 1.0625q-0.375 0.515625 -0.90625 0.90625q-0.53125 0.390625 -1.203125 0.625q-0.65625 0.21875 -1.375 0.21875zm0.3125 -1.34375q0.96875 0 1.734375 -0.46875q0.765625 -0.484375 1.203125 -1.328125q0.4375 -0.859375 0.4375 -1.9375q0 -1.078125 -0.4375 -1.921875q-0.4375 -0.84375 -1.203125 -1.328125q-0.765625 -0.484375 -1.734375 -0.484375q-0.984375 0 -1.75 0.484375q-0.75 0.484375 -1.1875 1.328125q-0.4375 0.84375 -0.4375 1.921875q0 1.0625 0.421875 1.921875q0.4375 0.84375 1.203125 1.328125q0.765625 0.484375 1.75 0.484375zm11.551239 1.34375q-1.390625 0 -2.46875 -0.65625q-1.078125 -0.671875 -1.703125 -1.8125q-0.625 -1.15625 -0.625 -2.609375q0 -1.453125 0.625 -2.59375q0.625 -1.15625 1.703125 -1.796875q1.078125 -0.65625 2.484375 -0.65625q1.25 0 2.265625 0.5q1.03125 0.484375 1.65625 1.359375l-0.828125 1.0q-0.34375 -0.453125 -0.84375 -0.8125q-0.5 -0.359375 -1.078125 -0.546875q-0.5625 -0.203125 -1.109375 -0.203125q-1.0 0 -1.78125 0.5q-0.78125 0.484375 -1.234375 1.328125q-0.453125 0.84375 -0.453125 1.921875q0 1.078125 0.453125 1.9375q0.453125 0.84375 1.234375 1.328125q0.78125 0.484375 1.75 0.484375q0.5625 0 1.09375 -0.171875q0.546875 -0.1875 1.03125 -0.515625q0.5 -0.34375 0.90625 -0.84375l0.8125 1.015625q-0.625 0.828125 -1.6875 1.34375q-1.0625 0.5 -2.203125 0.5zm6.953827 -3.328125l-0.046875 -1.609375l5.09375 -4.984375l1.875 0l-6.921875 6.59375zm-1.25 3.140625l0 -13.8125l1.40625 0l0 13.8125l-1.40625 0zm6.6875 0l-4.109375 -4.75l0.984375 -0.984375l4.953125 5.734375l-1.828125 0z" fill-rule="nonzero"/><path fill="#000000" d="m498.9416 157.35254l5.0 -13.0625l1.65625 0l4.96875 13.0625l-1.59375 0l-3.1875 -8.46875q-0.125 -0.359375 -0.296875 -0.828125q-0.15625 -0.484375 -0.328125 -0.984375q-0.171875 -0.515625 -0.34375 -1.0q-0.15625 -0.484375 -0.28125 -0.859375l0.375 0q-0.15625 0.46875 -0.3125 0.9375q-0.15625 0.46875 -0.328125 0.953125q-0.15625 0.46875 -0.328125 0.9375q-0.171875 0.46875 -0.34375 0.9375l-3.171875 8.375l-1.484375 0zm2.125 -3.59375l0.546875 -1.421875l6.171875 0l0.59375 1.421875l-7.3125 0z" fill-rule="nonzero"/><path fill="#000000" d="m613.04895 157.44629q-0.96875 0 -1.8125 -0.328125q-0.828125 -0.34375 -1.4375 -0.96875q-0.59375 -0.625 -0.9375 -1.46875q-0.328125 -0.859375 -0.328125 -1.859375q0 -0.484375 0.125 -1.0625q0.125 -0.59375 0.390625 -1.296875q0.265625 -0.703125 0.640625 -1.46875q0.375 -0.765625 0.859375 -1.578125l1.890625 -3.234375l1.421875 0l0.078125 0.1875l-2.109375 3.546875q-0.453125 0.75 -0.8125 1.484375q-0.359375 0.71875 -0.6875 1.453125q-0.3125 0.734375 -0.609375 1.5l-0.265625 -1.34375q0.359375 -0.59375 0.78125 -1.03125q0.421875 -0.453125 0.90625 -0.78125q0.484375 -0.328125 1.03125 -0.484375q0.546875 -0.171875 1.125 -0.171875q1.140625 0 2.0625 0.59375q0.921875 0.59375 1.484375 1.5625q0.5625 0.96875 0.5625 2.15625q0 1.3125 -0.578125 2.359375q-0.578125 1.046875 -1.578125 1.640625q-1.0 0.59375 -2.203125 0.59375zm-0.0625 -1.359375q0.84375 0 1.515625 -0.40625q0.671875 -0.421875 1.0625 -1.109375q0.390625 -0.703125 0.390625 -1.578125q0 -0.828125 -0.390625 -1.515625q-0.390625 -0.703125 -1.0625 -1.125q-0.671875 -0.421875 -1.5 -0.421875q-0.875 0 -1.5625 0.40625q-0.671875 0.40625 -1.0625 1.109375q-0.390625 0.6875 -0.390625 1.515625q0 0.890625 0.390625 1.59375q0.390625 0.6875 1.0625 1.109375q0.6875 0.421875 1.546875 0.421875zm12.411804 1.265625l0 -11.328125l0.40625 0.140625l-5.40625 6.59375l-0.15625 -0.328125l8.84375 0l0 1.375l-9.375 0l-0.703125 -1.375l6.671875 -8.140625l1.125 0l0 13.0625l-1.40625 0z" fill-rule="nonzero"/><path fill="#000000" d="m397.8241 184.77232q-0.640625 0 -1.203125 -0.15625q-0.546875 -0.15625 -1.03125 -0.46875q-0.484375 -0.3125 -0.875 -0.75q-0.390625 -0.453125 -0.703125 -1.0l0.984375 -1.0q0.328125 0.5625 0.671875 0.9375q0.34375 0.359375 0.6875 0.59375q0.34375 0.21875 0.703125 0.3125q0.375 0.09375 0.765625 0.09375q0.765625 0 1.34375 -0.359375q0.59375 -0.375 0.921875 -1.015625q0.328125 -0.640625 0.328125 -1.453125l0 -7.59375l-2.375 0l0 -1.390625l5.78125 0l0 1.390625l-1.90625 0l0 7.703125q0 0.890625 -0.3125 1.65625q-0.296875 0.765625 -0.84375 1.328125q-0.53125 0.5625 -1.28125 0.875q-0.734375 0.296875 -1.65625 0.296875zm11.123047 0q-1.265625 0 -2.296875 -0.65625q-1.03125 -0.671875 -1.625 -1.8125q-0.59375 -1.15625 -0.59375 -2.609375q0 -1.46875 0.609375 -2.609375q0.625 -1.140625 1.65625 -1.78125q1.03125 -0.65625 2.328125 -0.65625q0.75 0 1.40625 0.21875q0.65625 0.21875 1.171875 0.625q0.515625 0.40625 0.859375 0.9375q0.34375 0.53125 0.46875 1.140625l-0.40625 -0.203125l0.0625 -2.515625l1.390625 0l0 9.734375l-1.421875 0l0 -2.390625l0.375 -0.234375q-0.125 0.546875 -0.5 1.0625q-0.375 0.515625 -0.90625 0.90625q-0.53125 0.390625 -1.203125 0.625q-0.65625 0.21875 -1.375 0.21875zm0.3125 -1.34375q0.96875 0 1.734375 -0.46875q0.765625 -0.484375 1.203125 -1.328125q0.4375 -0.859375 0.4375 -1.9375q0 -1.078125 -0.4375 -1.921875q-0.4375 -0.84375 -1.203125 -1.328125q-0.765625 -0.484375 -1.734375 -0.484375q-0.984375 0 -1.75 0.484375q-0.75 0.484375 -1.1875 1.328125q-0.4375 0.84375 -0.4375 1.921875q0 1.0625 0.421875 1.921875q0.4375 0.84375 1.203125 1.328125q0.765625 0.484375 1.75 0.484375zm11.551239 1.34375q-1.390625 0 -2.46875 -0.65625q-1.078125 -0.671875 -1.703125 -1.8125q-0.625 -1.15625 -0.625 -2.609375q0 -1.453125 0.625 -2.59375q0.625 -1.15625 1.703125 -1.796875q1.078125 -0.65625 2.484375 -0.65625q1.25 0 2.265625 0.5q1.03125 0.484375 1.65625 1.359375l-0.828125 1.0q-0.34375 -0.453125 -0.84375 -0.8125q-0.5 -0.359375 -1.078125 -0.546875q-0.5625 -0.203125 -1.109375 -0.203125q-1.0 0 -1.78125 0.5q-0.78125 0.484375 -1.234375 1.328125q-0.453125 0.84375 -0.453125 1.921875q0 1.078125 0.453125 1.9375q0.453125 0.84375 1.234375 1.328125q0.78125 0.484375 1.75 0.484375q0.5625 0 1.09375 -0.171875q0.546875 -0.1875 1.03125 -0.515625q0.5 -0.34375 0.90625 -0.84375l0.8125 1.015625q-0.625 0.828125 -1.6875 1.34375q-1.0625 0.5 -2.203125 0.5zm6.953827 -3.328125l-0.046875 -1.609375l5.09375 -4.984375l1.875 0l-6.921875 6.59375zm-1.25 3.140625l0 -13.8125l1.40625 0l0 13.8125l-1.40625 0zm6.6875 0l-4.109375 -4.75l0.984375 -0.984375l4.953125 5.734375l-1.828125 0z" fill-rule="nonzero"/><path fill="#000000" d="m500.41336 184.58482l0 -13.0625l5.296875 0q1.140625 0 1.96875 0.40625q0.828125 0.40625 1.265625 1.140625q0.453125 0.734375 0.453125 1.734375q0 1.09375 -0.609375 1.875q-0.609375 0.765625 -1.671875 1.0625l-0.046875 -0.359375q0.921875 0.171875 1.59375 0.65625q0.671875 0.46875 1.046875 1.15625q0.390625 0.6875 0.390625 1.546875q0 0.875 -0.3125 1.59375q-0.296875 0.703125 -0.84375 1.203125q-0.546875 0.5 -1.328125 0.78125q-0.765625 0.265625 -1.71875 0.265625l-5.484375 0zm1.453125 -1.421875l3.921875 0q0.84375 0 1.46875 -0.28125q0.625 -0.296875 0.96875 -0.828125q0.34375 -0.546875 0.34375 -1.25q0 -0.671875 -0.375 -1.171875q-0.359375 -0.515625 -1.0 -0.796875q-0.640625 -0.28125 -1.5 -0.28125l-3.828125 0l0 4.609375zm0 -6.015625l3.734375 0q0.671875 0 1.1875 -0.265625q0.53125 -0.28125 0.828125 -0.75q0.296875 -0.484375 0.296875 -1.078125q0 -0.953125 -0.640625 -1.53125q-0.640625 -0.578125 -1.796875 -0.578125l-3.609375 0l0 4.203125z" fill-rule="nonzero"/><path fill="#000000" d="m610.2115 184.58482l5.484375 -12.203125l0.234375 0.5l-6.984375 0l0 -1.359375l7.859375 0l0.25 1.140625l-5.265625 11.921875l-1.578125 0zm13.329712 0.1875q-1.53125 0 -2.609375 -0.796875q-1.0625 -0.8125 -1.640625 -2.3125q-0.5625 -1.5 -0.5625 -3.609375q0 -2.109375 0.5625 -3.609375q0.578125 -1.5 1.640625 -2.296875q1.078125 -0.8125 2.609375 -0.8125q1.515625 0 2.59375 0.8125q1.09375 0.796875 1.65625 2.296875q0.5625 1.5 0.5625 3.609375q0 2.109375 -0.5625 3.609375q-0.5625 1.5 -1.65625 2.3125q-1.078125 0.796875 -2.59375 0.796875zm0 -1.359375q1.609375 0 2.46875 -1.390625q0.875 -1.40625 0.875 -3.96875q0 -2.546875 -0.875 -3.953125q-0.859375 -1.40625 -2.46875 -1.40625q-1.625 0 -2.5 1.40625q-0.859375 1.40625 -0.859375 3.953125q0 2.5625 0.859375 3.96875q0.875 1.390625 2.5 1.390625z" fill-rule="nonzero"/><path fill="#000000" fill-opacity="0.0" d="m457.69028 17.433384l0 0c0 -8.662781 7.022583 -15.685352 15.685364 -15.685352l62.739532 0l0 0c4.160034 0 8.149658 1.6525592 11.091248 4.5941334c2.9415283 2.941574 4.594116 6.9312057 4.594116 11.091219l0 165.13324c0 8.662781 -7.022583 15.6853485 -15.685364 15.6853485l-62.739532 0c-8.662781 0 -15.685364 -7.0225677 -15.685364 -15.6853485z" fill-rule="evenodd"/><path stroke="#4285f4" stroke-width="3.0" stroke-linejoin="round" stroke-linecap="butt" d="m457.69028 17.433384l0 0c0 -8.662781 7.022583 -15.685352 15.685364 -15.685352l62.739532 0l0 0c4.160034 0 8.149658 1.6525592 11.091248 4.5941334c2.9415283 2.941574 4.594116 6.9312057 4.594116 11.091219l0 165.13324c0 8.662781 -7.022583 15.6853485 -15.685364 15.6853485l-62.739532 0c-8.662781 0 -15.685364 -7.0225677 -15.685364 -15.6853485z" fill-rule="evenodd"/></g></svg>