<?xml version="1.0" encoding="UTF-8"?>
<svg id="Layer_1" data-name="Layer 1" xmlns="http://www.w3.org/2000/svg" viewBox="0 0 1181.31 409.35">
  <defs>
    <style>
      .cls-1 {
        letter-spacing: 0em;
      }

      .cls-1, .cls-2, .cls-3, .cls-4, .cls-5, .cls-6, .cls-7, .cls-8, .cls-9, .cls-10, .cls-11, .cls-12 {
        font-family: Lexend-Medium, Lexend;
        font-variation-settings: 'wght' 500;
        font-weight: 500;
      }

      .cls-13 {
        fill: rgba(255, 0, 0, .25);
        fill-rule: evenodd;
      }

      .cls-2 {
        letter-spacing: -.02em;
      }

      .cls-3, .cls-14 {
        letter-spacing: -.02em;
      }

      .cls-4 {
        letter-spacing: -.03em;
      }

      .cls-5, .cls-15 {
        letter-spacing: -.02em;
      }

      .cls-6 {
        letter-spacing: -.02em;
      }

      .cls-16, .cls-17, .cls-15, .cls-18 {
        fill: #09847a;
      }

      .cls-16, .cls-19, .cls-15, .cls-18, .cls-20 {
        font-family: Lexend-Black, Lexend;
        font-variation-settings: 'wght' 900;
        font-weight: 800;
      }

      .cls-21, .cls-19, .cls-20 {
        fill: #febc11;
      }

      .cls-22 {
        fill: #fff;
        font-family: Lexend-Bold, Lexend;
        font-size: 32px;
        font-variation-settings: 'wght' 700;
        font-weight: 700;
      }

      .cls-7 {
        letter-spacing: 0em;
      }

      .cls-8, .cls-23 {
        font-size: 30px;
      }

      .cls-9 {
        letter-spacing: 0em;
      }

      .cls-24 {
        stroke-dasharray: 11.64 11.64;
      }

      .cls-24, .cls-25 {
        stroke-width: 5px;
      }

      .cls-24, .cls-25, .cls-26 {
        fill: none;
        stroke: #000;
        stroke-miterlimit: 10;
      }

      .cls-10 {
        letter-spacing: 0em;
      }

      .cls-12 {
        letter-spacing: 0em;
      }

      .cls-19, .cls-18 {
        letter-spacing: 0em;
      }

      .cls-27 {
        letter-spacing: -.07em;
      }

      .cls-28 {
        letter-spacing: -.01em;
      }

      .cls-29 {
        letter-spacing: -.05em;
      }

      .cls-30 {
        letter-spacing: -.03em;
      }

      .cls-31 {
        fill: #333;
      }

      .cls-26 {
        stroke-width: 2.64px;
      }
    </style>
  </defs>
  <path class="cls-13" d="M118.16,91.5h124.03l7.57,20.17,8.52-12.1,9.47-6.46,7.57,9.68,4.73,8.07,20.83-7.26,18.93-20.98,18.94,10.49-7.58,39.54-27.46,46,10.41,34.7-5.68,8.88-8.52-6.46-18.93-25.82-36.92,10.49-22.72,2.42-21.78,30.66-24.62-9.68-14.2-19.37-38.82-8.88-29.35-14.53-9.47-29.05v-32.28l2.84-26.63,8.52,6.46,10.41,2.42,2.84-9.68,10.41-.81Z"/>
  <path class="cls-17" d="M235.45,86.57c7.35,0,20.13,6.23,20.13,13.75s-12.78,13.75-20.13,13.75h-25.05l-21.59,37.78c-1.22,2.15-3.5,3.46-5.97,3.46h-12.07c-2.28,0-3.93-2.19-3.31-4.38l10.52-36.86h-22.08l-9.28,12.37c-.64.86-1.68,1.37-2.75,1.37h-9.02c-1.68,0-3.01-1.35-3.01-3.01,0-.28.04-.56.11-.84l6.77-23.65-6.77-23.65c-.09-.28-.11-.56-.11-.84,0-1.68,1.35-3.01,3.01-3.01h9.02c1.07,0,2.1.52,2.75,1.37l9.28,12.37h22.1l-10.52-36.86c-.64-2.19,1.01-4.38,3.29-4.38h12.07c2.47,0,4.75,1.33,5.97,3.46l21.59,37.78h25.05,0Z"/>
  <g>
    <path class="cls-31" d="M221.93,263.11v-20.8c0-16.9,13.7-30.61,30.61-30.61h42.71c16.9,0,30.61,13.7,30.61,30.61v20.8"/>
    <circle class="cls-31" cx="273.89" cy="175.54" r="30.76"/>
  </g>
  <path class="cls-21" d="M126.11,205.67h3.07c3.97,6.88,11.4,11.49,19.91,11.49,1.97,0,3.91-.25,5.74-.72v40.93c0,3.18-2.57,5.74-5.74,5.74s-5.74-2.57-5.74-5.74v-25.28l-24.41,19.53h10.05c3.18,0,5.74,2.57,5.74,5.74s-2.57,5.74-5.74,5.74h-25.85c-9.51,0-17.23-7.72-17.23-17.23v-40.12c0-2.89-2.15-5.35-5.03-5.71l-1.42-.18c-3.14-.39-5.39-3.27-4.99-6.41s3.27-5.39,6.41-4.99l1.42.18c8.62,1.08,15.1,8.4,15.1,17.11v15.31c6.18-9.28,16.73-15.4,28.72-15.4h0ZM154.83,210.42h0c-1.8.63-3.73.99-5.74.99-5.1,0-9.69-2.23-12.85-5.74h0c-.66-.74-1.26-1.53-1.78-2.37-1.65-2.66-2.6-5.78-2.6-9.12h0v-21.06c0-1.06.84-1.9,1.9-1.92h.04c.59,0,1.15.29,1.51.75v.02l2.3,3.05,4.88,6.52.86,1.15h11.49l.86-1.15,4.88-6.52,2.3-3.05v-.02c.36-.47.92-.75,1.51-.75h.04c1.06.02,1.9.86,1.9,1.92v21.06c0,3.11-.83,6.03-2.26,8.54-2.03,3.55-5.31,6.32-9.23,7.7h0ZM146.21,194.18c0-1.59-1.29-2.87-2.87-2.87s-2.87,1.29-2.87,2.87,1.29,2.87,2.87,2.87,2.87-1.29,2.87-2.87ZM154.83,197.05c1.59,0,2.87-1.29,2.87-2.87s-1.29-2.87-2.87-2.87-2.87,1.29-2.87,2.87,1.29,2.87,2.87,2.87Z"/>
  <g>
    <rect x="0" y="315.58" width="421.89" height="49.71" rx="24.86" ry="24.86"/>
    <text class="cls-22" transform="translate(19.52 352.28)"><tspan x="0" y="0">OBSE</tspan><tspan class="cls-30" x="89.34" y="0">R</tspan><tspan class="cls-27" x="110.85" y="0">V</tspan><tspan class="cls-29" x="131.23" y="0">A</tspan><tspan x="151.84" y="0">T</tspan><tspan class="cls-28" x="172.8" y="0">I</tspan><tspan x="190.08" y="0">ONAL UNIT</tspan></text>
  </g>
  <rect x="672.73" y="127.54" width="292.43" height="49.71" rx="24.86" ry="24.86"/>
  <text class="cls-22" transform="translate(698 164.23)"><tspan x="0" y="0">OBSE</tspan><tspan class="cls-30" x="89.34" y="0">R</tspan><tspan class="cls-27" x="110.85" y="0">V</tspan><tspan class="cls-29" x="131.23" y="0">A</tspan><tspan x="151.84" y="0">T</tspan><tspan class="cls-28" x="172.8" y="0">I</tspan><tspan x="190.08" y="0">ON</tspan></text>
  <text class="cls-8" transform="translate(11.78 402)"><tspan x="0" y="0">The entity being measu</tspan><tspan class="cls-14" x="347.79" y="0">r</tspan><tspan x="359.76" y="0">ed</tspan></text>
  <text class="cls-23" transform="translate(509.23 213.22)"><tspan class="cls-11" x="0" y="0">Col</tspan><tspan class="cls-1" x="47.34" y="0">l</tspan><tspan class="cls-12" x="55.14" y="0">ection </tspan><tspan class="cls-6" x="155.16" y="0">o</tspan><tspan class="cls-11" x="173.28" y="0">f </tspan><tspan class="cls-15" x="193.89" y="0">v</tspan><tspan class="cls-16" x="212.31" y="0">a</tspan><tspan class="cls-18" x="232.68" y="0">l</tspan><tspan class="cls-16" x="242.82" y="0">ues </tspan><tspan class="cls-11" x="306.18" y="0">measu</tspan><tspan class="cls-2" x="404.18" y="0">r</tspan><tspan class="cls-10" x="416.16" y="0">ed on </tspan><tspan class="cls-5" x="507.59" y="0">v</tspan><tspan class="cls-7" x="524.66" y="0">arious </tspan><tspan class="cls-20" x="0" y="36">attribu</tspan><tspan class="cls-19" x="110.64" y="36">t</tspan><tspan class="cls-20" x="122.76" y="36">es </tspan><tspan class="cls-4" x="166.05" y="36">(</tspan><tspan class="cls-9" x="176.52" y="36">a</tspan><tspan class="cls-3" x="195.78" y="36">k</tspan><tspan class="cls-9" x="212.79" y="36">a </tspan><tspan class="cls-5" x="240.87" y="36">v</tspan><tspan class="cls-11" x="257.94" y="36">ariab</tspan><tspan class="cls-1" x="337.08" y="36">l</tspan><tspan class="cls-11" x="344.88" y="36">es)</tspan></text>
  <g>
    <path class="cls-21" d="M465.31,20.72h6.19l7.1,22.81h-5.47l-2.95-11.55c-.58-2.28-1.27-4.95-1.82-7.36h-.14c-.56,2.41-1.19,5.08-1.77,7.36l-2.96,11.55h-5.28l7.1-22.81ZM462.91,34.08h10.91v4.02h-10.91v-4.02Z"/>
    <path class="cls-21" d="M485,36.33v-6.13h-4.38v-3.84l4.61-.2.66-5.31h4.26v5.31h7.32v4.04h-7.32v6.07c0,2.64,1.12,3.64,3.65,3.64,1.3,0,2.41-.26,3.43-.62l.93,3.73c-1.54.46-3.36.94-5.67.94-5.53,0-7.49-3.06-7.49-7.62Z"/>
    <path class="cls-21" d="M506,36.33v-6.13h-4.38v-3.84l4.61-.2.66-5.31h4.26v5.31h7.32v4.04h-7.32v6.07c0,2.64,1.12,3.64,3.65,3.64,1.3,0,2.41-.26,3.43-.62l.93,3.73c-1.54.46-3.36.94-5.67.94-5.53,0-7.49-3.06-7.49-7.62Z"/>
    <path class="cls-21" d="M524.94,26.16h4.23l.41,3.8h.12c1.71-2.84,4.27-4.22,7.04-4.22,1.51,0,2.34.25,3.33.7l-1.04,4.33c-1.09-.33-1.79-.51-3.07-.51-2.15,0-4.36,1.12-5.86,4.23v9.03h-5.15v-17.37Z"/>
    <path class="cls-21" d="M551.64,30.2h-6.99v-4.04h12.15v17.37h-5.15v-13.33ZM550.56,20.3c0-1.89,1.43-3.2,3.42-3.2s3.42,1.31,3.42,3.2-1.44,3.15-3.42,3.15-3.42-1.25-3.42-3.15Z"/>
    <path class="cls-21" d="M570.02,41.64h-.13l-.43,1.89h-4.03v-24.52h5.15v5.98l-.19,2.73h.13c1.29-1.25,3.05-1.98,4.75-1.98,4.33,0,6.99,3.47,6.99,8.8,0,5.99-3.64,9.41-7.51,9.41-1.6,0-3.31-.8-4.73-2.31ZM576.99,34.63c0-3.11-1.02-4.67-3.2-4.67-1.1,0-2.12.47-3.2,1.61v7.01c.97.85,2.07,1.15,2.99,1.15,1.88,0,3.41-1.51,3.41-5.1Z"/>
    <path class="cls-21" d="M586.07,36.89v-10.72h5.15v10.06c0,2.3.62,3.34,2.53,3.34,1.28,0,2.18-.46,3.37-1.98v-11.42h5.15v17.37h-4.21l-.37-2.5h-.14c-1.54,1.77-3.36,2.92-5.86,2.92-3.95,0-5.63-2.68-5.63-7.06Z"/>
    <path class="cls-21" d="M611,36.33v-6.13h-4.38v-3.84l4.61-.2.66-5.31h4.26v5.31h7.32v4.04h-7.32v6.07c0,2.64,1.12,3.64,3.65,3.64,1.3,0,2.41-.26,3.43-.62l.93,3.73c-1.54.46-3.36.94-5.67.94-5.53,0-7.49-3.06-7.49-7.62Z"/>
    <path class="cls-21" d="M627.83,34.84c0-5.68,4.38-9.09,9.03-9.09,5.36,0,8.18,3.61,8.18,8.33,0,.94-.15,1.88-.22,2.31h-13.17v-3.45h9.69l-.81.98c0-2.79-1.21-4.25-3.49-4.25-2.54,0-4.21,1.72-4.21,5.18s1.96,5.19,5.34,5.19c1.58,0,2.93-.43,4.47-1.21l1.71,3.1c-1.98,1.27-4.56,2.03-6.88,2.03-5.41,0-9.63-3.34-9.63-9.11Z"/>
    <path class="cls-21" d="M670.67,39.37h5.99v-12.85h-4.93v-3.2c3-.45,4.58-1,6.3-2.02h3.79v18.07h5.05v4.16h-16.19v-4.16Z"/>
    <path class="cls-21" d="M789.31,20.72h6.19l7.1,22.81h-5.47l-2.95-11.55c-.58-2.28-1.27-4.95-1.82-7.36h-.14c-.56,2.41-1.19,5.08-1.77,7.36l-2.96,11.55h-5.28l7.1-22.81ZM786.91,34.08h10.92v4.02h-10.92v-4.02Z"/>
    <path class="cls-21" d="M809,36.33v-6.13h-4.38v-3.84l4.61-.2.66-5.31h4.26v5.31h7.32v4.04h-7.32v6.07c0,2.64,1.12,3.64,3.65,3.64,1.3,0,2.41-.26,3.43-.62l.93,3.73c-1.54.46-3.36.94-5.67.94-5.53,0-7.49-3.06-7.49-7.62Z"/>
    <path class="cls-21" d="M830,36.33v-6.13h-4.38v-3.84l4.61-.2.66-5.31h4.26v5.31h7.32v4.04h-7.32v6.07c0,2.64,1.12,3.64,3.65,3.64,1.3,0,2.41-.26,3.43-.62l.93,3.73c-1.54.46-3.36.94-5.67.94-5.53,0-7.49-3.06-7.49-7.62Z"/>
    <path class="cls-21" d="M848.94,26.16h4.23l.41,3.8h.12c1.71-2.84,4.27-4.22,7.04-4.22,1.51,0,2.33.25,3.33.7l-1.04,4.33c-1.09-.33-1.79-.51-3.07-.51-2.15,0-4.36,1.12-5.86,4.23v9.03h-5.15v-17.37Z"/>
    <path class="cls-21" d="M875.64,30.2h-6.99v-4.04h12.15v17.37h-5.15v-13.33ZM874.56,20.3c0-1.89,1.43-3.2,3.42-3.2s3.42,1.31,3.42,3.2-1.43,3.15-3.42,3.15-3.42-1.25-3.42-3.15Z"/>
    <path class="cls-21" d="M894.02,41.64h-.13l-.43,1.89h-4.03v-24.52h5.15v5.98l-.19,2.73h.13c1.29-1.25,3.05-1.98,4.75-1.98,4.33,0,7,3.47,7,8.8,0,5.99-3.64,9.41-7.51,9.41-1.6,0-3.31-.8-4.73-2.31ZM900.99,34.63c0-3.11-1.02-4.67-3.2-4.67-1.1,0-2.12.47-3.2,1.61v7.01c.97.85,2.07,1.15,2.99,1.15,1.88,0,3.41-1.51,3.41-5.1Z"/>
    <path class="cls-21" d="M910.07,36.89v-10.72h5.15v10.06c0,2.3.61,3.34,2.53,3.34,1.28,0,2.18-.46,3.37-1.98v-11.42h5.15v17.37h-4.21l-.37-2.5h-.14c-1.54,1.77-3.36,2.92-5.86,2.92-3.95,0-5.63-2.68-5.63-7.06Z"/>
    <path class="cls-21" d="M935,36.33v-6.13h-4.38v-3.84l4.61-.2.66-5.31h4.26v5.31h7.32v4.04h-7.32v6.07c0,2.64,1.12,3.64,3.65,3.64,1.3,0,2.41-.26,3.43-.62l.93,3.73c-1.54.46-3.36.94-5.67.94-5.53,0-7.49-3.06-7.49-7.62Z"/>
    <path class="cls-21" d="M951.83,34.84c0-5.68,4.38-9.09,9.03-9.09,5.36,0,8.17,3.61,8.17,8.33,0,.94-.15,1.88-.22,2.31h-13.17v-3.45h9.69l-.81.98c0-2.79-1.21-4.25-3.49-4.25-2.54,0-4.21,1.72-4.21,5.18s1.96,5.19,5.34,5.19c1.58,0,2.93-.43,4.47-1.21l1.71,3.1c-1.98,1.27-4.56,2.03-6.88,2.03-5.41,0-9.62-3.34-9.62-9.11Z"/>
    <path class="cls-21" d="M993.93,40.58c6.37-5.35,10.66-9.12,10.66-12.32,0-2.15-1.34-3.33-3.67-3.33-1.77,0-3.21,1.09-4.47,2.26l-2.77-2.78c2.31-2.33,4.54-3.52,7.94-3.52,4.68,0,7.86,2.8,7.86,7.09,0,3.75-3.85,7.73-8.16,11.49,1.27-.13,2.89-.25,4.04-.25h5.27v4.33h-16.7v-2.95Z"/>
    <path class="cls-21" d="M1076.34,39.84c0-2.28,1.66-4.11,4.07-4.11s4.07,1.83,4.07,4.11-1.66,4.11-4.07,4.11-4.07-1.8-4.07-4.11Z"/>
    <path class="cls-21" d="M1097.34,39.84c0-2.28,1.66-4.11,4.07-4.11s4.07,1.83,4.07,4.11-1.66,4.11-4.07,4.11-4.07-1.8-4.07-4.11Z"/>
    <path class="cls-21" d="M1118.34,39.84c0-2.28,1.66-4.11,4.07-4.11s4.07,1.83,4.07,4.11-1.66,4.11-4.07,4.11-4.07-1.8-4.07-4.11Z"/>
    <path class="cls-17" d="M464.23,75.8c0-6.58,2.85-11.96,7.41-15.99l2.85,2.28c-4.16,4.06-5.95,8.19-5.95,13.71s1.79,9.66,5.95,13.71l-2.85,2.28c-4.56-4.03-7.41-9.41-7.41-15.99Z"/>
    <path class="cls-17" d="M482.95,75.68v-3.55l13.54-8.77v4.67l-9.29,5.81v.14l9.29,5.81v4.67l-13.54-8.77Z"/>
    <path class="cls-17" d="M501,68.16h5.17l2.73,8.19c.56,1.74,1.04,3.52,1.56,5.34h.14c.52-1.82.98-3.6,1.55-5.34l2.73-8.19h4.92l-6.36,17.37h-5.91l-6.54-17.37Z"/>
    <path class="cls-17" d="M523.05,80.71c0-3.89,3.22-5.87,11.42-6.37-.18-1.55-1.35-2.5-3.68-2.5-1.67,0-3.34.65-5.29,1.63l-1.84-3.37c2.41-1.37,5.18-2.35,8.13-2.35,4.88,0,7.84,2.54,7.84,7.86v9.93h-4.21l-.37-1.96h-.13c-1.75,1.32-3.93,2.38-6.16,2.38-3.51,0-5.71-2.32-5.71-5.23ZM534.47,80.3v-2.84c-5.11.26-6.48,1.36-6.48,2.85,0,1.12.94,1.66,2.4,1.66,1.55,0,2.86-.71,4.08-1.66Z"/>
    <path class="cls-17" d="M549.1,78.74v-13.69h-5.47v-4.04h10.62v17.94c0,2.15,1.38,2.84,2.83,2.84.8,0,1.65-.17,2.71-.57l1.14,3.79c-1.8.59-3.02.94-5.18.94-4.37,0-6.65-2.81-6.65-7.21Z"/>
    <path class="cls-17" d="M565.07,78.89v-10.72h5.15v10.06c0,2.3.62,3.34,2.53,3.34,1.28,0,2.18-.46,3.37-1.98v-11.42h5.15v17.37h-4.21l-.37-2.5h-.14c-1.54,1.77-3.36,2.92-5.86,2.92-3.95,0-5.63-2.68-5.63-7.06Z"/>
    <path class="cls-17" d="M585.83,76.84c0-5.68,4.38-9.09,9.03-9.09,5.35,0,8.18,3.61,8.18,8.33,0,.94-.15,1.88-.22,2.31h-13.17v-3.45h9.69l-.81.98c0-2.79-1.21-4.25-3.49-4.25-2.54,0-4.21,1.72-4.21,5.18s1.96,5.19,5.34,5.19c1.58,0,2.93-.43,4.47-1.21l1.71,3.1c-1.98,1.27-4.56,2.03-6.88,2.03-5.41,0-9.63-3.34-9.63-9.11Z"/>
    <path class="cls-17" d="M628.67,81.37h5.99v-12.85h-4.93v-3.2c3-.45,4.58-1,6.3-2.02h3.79v18.07h5.05v4.16h-16.19v-4.16Z"/>
    <path class="cls-17" d="M650.32,79.79l9.29-5.81v-.14l-9.29-5.81v-4.67l13.54,8.77v3.55l-13.54,8.77v-4.67Z"/>
    <path class="cls-17" d="M806.95,75.68v-3.55l13.54-8.77v4.67l-9.29,5.81v.14l9.29,5.81v4.67l-13.54-8.77Z"/>
    <path class="cls-17" d="M825,68.16h5.17l2.73,8.19c.56,1.74,1.04,3.52,1.56,5.34h.14c.52-1.82.98-3.6,1.55-5.34l2.73-8.19h4.92l-6.36,17.37h-5.91l-6.54-17.37Z"/>
    <path class="cls-17" d="M847.05,80.71c0-3.89,3.22-5.87,11.42-6.37-.18-1.55-1.35-2.5-3.68-2.5-1.67,0-3.34.65-5.29,1.63l-1.84-3.37c2.41-1.37,5.18-2.35,8.13-2.35,4.88,0,7.84,2.54,7.84,7.86v9.93h-4.21l-.37-1.96h-.13c-1.75,1.32-3.93,2.38-6.16,2.38-3.51,0-5.71-2.32-5.71-5.23ZM858.47,80.3v-2.84c-5.11.26-6.48,1.36-6.48,2.85,0,1.12.94,1.66,2.4,1.66,1.55,0,2.86-.71,4.08-1.66Z"/>
    <path class="cls-17" d="M873.1,78.74v-13.69h-5.46v-4.04h10.62v17.94c0,2.15,1.38,2.84,2.83,2.84.8,0,1.65-.17,2.71-.57l1.14,3.79c-1.8.59-3.02.94-5.18.94-4.37,0-6.65-2.81-6.65-7.21Z"/>
    <path class="cls-17" d="M889.07,78.89v-10.72h5.15v10.06c0,2.3.61,3.34,2.53,3.34,1.28,0,2.18-.46,3.37-1.98v-11.42h5.15v17.37h-4.21l-.37-2.5h-.14c-1.54,1.77-3.36,2.92-5.86,2.92-3.95,0-5.63-2.68-5.63-7.06Z"/>
    <path class="cls-17" d="M909.83,76.84c0-5.68,4.38-9.09,9.03-9.09,5.36,0,8.17,3.61,8.17,8.33,0,.94-.15,1.88-.22,2.31h-13.17v-3.45h9.69l-.81.98c0-2.79-1.21-4.25-3.49-4.25-2.54,0-4.21,1.72-4.21,5.18s1.96,5.19,5.34,5.19c1.58,0,2.93-.43,4.47-1.21l1.71,3.1c-1.98,1.27-4.56,2.03-6.88,2.03-5.41,0-9.62-3.34-9.62-9.11Z"/>
    <path class="cls-17" d="M951.93,82.58c6.37-5.35,10.66-9.12,10.66-12.32,0-2.15-1.34-3.33-3.67-3.33-1.77,0-3.21,1.09-4.47,2.26l-2.77-2.78c2.31-2.33,4.54-3.52,7.94-3.52,4.68,0,7.86,2.8,7.86,7.09,0,3.75-3.85,7.73-8.16,11.49,1.27-.13,2.89-.25,4.04-.25h5.27v4.33h-16.7v-2.95Z"/>
    <path class="cls-17" d="M974.32,79.79l9.29-5.81v-.14l-9.29-5.81v-4.67l13.54,8.77v3.55l-13.54,8.77v-4.67Z"/>
    <path class="cls-17" d="M1076.34,81.84c0-2.28,1.66-4.11,4.07-4.11s4.07,1.83,4.07,4.11-1.66,4.11-4.07,4.11-4.07-1.8-4.07-4.11Z"/>
    <path class="cls-17" d="M1097.34,81.84c0-2.28,1.66-4.11,4.07-4.11s4.07,1.83,4.07,4.11-1.66,4.11-4.07,4.11-4.07-1.8-4.07-4.11Z"/>
    <path class="cls-17" d="M1118.34,81.84c0-2.28,1.66-4.11,4.07-4.11s4.07,1.83,4.07,4.11-1.66,4.11-4.07,4.11-4.07-1.8-4.07-4.11Z"/>
    <path class="cls-17" d="M1146.33,89.51c4.16-4.06,5.95-8.19,5.95-13.71s-1.79-9.66-5.95-13.71l2.85-2.28c4.56,4.03,7.41,9.41,7.41,15.99s-2.85,11.96-7.41,15.99l-2.85-2.28Z"/>
  </g>
  <rect class="cls-26" x="436.7" y="1.32" width="743.29" height="112.65" rx="26.61" ry="26.61"/>
  <g>
    <line class="cls-25" x1="436.7" y1="66.49" x2="432.63" y2="70.9"/>
    <line class="cls-24" x1="424.73" y1="79.45" x2="333.87" y2="177.74"/>
    <line class="cls-25" x1="329.92" y1="182.01" x2="325.85" y2="186.42"/>
  </g>
</svg>