<?xml version="1.0" encoding="UTF-8"?>
<svg id="Layer_1" data-name="Layer 1" xmlns="http://www.w3.org/2000/svg" viewBox="0 0 893.06 675.66">
  <defs>
    <style>
      .cls-1, .cls-2, .cls-3, .cls-4, .cls-5, .cls-6, .cls-7, .cls-8, .cls-9, .cls-10, .cls-11, .cls-12, .cls-13, .cls-14, .cls-15 {
        fill: none;
      }

      .cls-1, .cls-2, .cls-3, .cls-5, .cls-6, .cls-7, .cls-8, .cls-9, .cls-10, .cls-12, .cls-13, .cls-14 {
        stroke-width: 4px;
      }

      .cls-1, .cls-16, .cls-17, .cls-5, .cls-7, .cls-18 {
        stroke-linecap: round;
        stroke-linejoin: round;
      }

      .cls-1, .cls-16, .cls-8, .cls-9, .cls-14, .cls-15 {
        stroke: #000;
      }

      .cls-19, .cls-17, .cls-20 {
        fill: #56b4e9;
      }

      .cls-2, .cls-3, .cls-4, .cls-5, .cls-18, .cls-13 {
        stroke: #e69f00;
      }

      .cls-2, .cls-3, .cls-4, .cls-6, .cls-8, .cls-9, .cls-10, .cls-11, .cls-12, .cls-13, .cls-14, .cls-15 {
        stroke-miterlimit: 10;
      }

      .cls-2, .cls-6, .cls-9 {
        stroke-dasharray: 12.04 12.04;
      }

      .cls-4, .cls-11, .cls-15 {
        stroke-width: 3.33px;
      }

      .cls-21, .cls-20, .cls-22 {
        font-size: 28px;
      }

      .cls-21, .cls-20, .cls-22, .cls-23 {
        font-family: CenturyGothic-Bold, 'Century Gothic';
        font-weight: 700;
      }

      .cls-21, .cls-24, .cls-18 {
        fill: #e69f00;
      }

      .cls-16, .cls-17, .cls-18 {
        stroke-width: 2.48px;
      }

      .cls-17, .cls-6, .cls-7, .cls-10, .cls-11, .cls-12 {
        stroke: #56b4e9;
      }

      .cls-8, .cls-12, .cls-13 {
        stroke-dasharray: 11.13 11.13;
      }

      .cls-23 {
        font-size: 40px;
      }
    </style>
  </defs>
  <path d="M128.09,183.52h3.71c4.79,8.3,13.76,13.87,24.04,13.87,2.38,0,4.73-.3,6.94-.87v49.42c0,3.84-3.1,6.94-6.94,6.94s-6.94-3.1-6.94-6.94v-30.52l-29.48,23.58h12.14c3.84,0,6.94,3.1,6.94,6.94s-3.1,6.94-6.94,6.94h-31.21c-11.49,0-20.81-9.32-20.81-20.81v-48.45c0-3.49-2.6-6.46-6.07-6.89l-1.71-.22c-3.79-.48-6.5-3.95-6.03-7.74s3.95-6.5,7.74-6.03l1.71.22c10.4,1.3,18.23,10.14,18.23,20.66v18.49c7.46-11.21,20.2-18.6,34.68-18.6h0ZM162.77,189.27h0c-2.17.76-4.51,1.19-6.94,1.19-6.16,0-11.71-2.69-15.52-6.94h0c-.8-.89-1.52-1.84-2.15-2.86-1.99-3.21-3.14-6.98-3.14-11.01h0v-25.43c0-1.28,1.02-2.3,2.3-2.32h.04c.72,0,1.39.35,1.82.91v.02l2.77,3.68,5.9,7.87,1.04,1.39h13.87l1.04-1.39,5.9-7.87,2.77-3.68v-.02c.43-.56,1.11-.91,1.82-.91h.04c1.28.02,2.3,1.04,2.3,2.32v25.43c0,3.75-1,7.28-2.73,10.32-2.45,4.29-6.42,7.63-11.14,9.3h0ZM152.37,169.65c0-1.92-1.55-3.47-3.47-3.47s-3.47,1.55-3.47,3.47,1.55,3.47,3.47,3.47,3.47-1.55,3.47-3.47ZM162.77,173.12c1.92,0,3.47-1.55,3.47-3.47s-1.55-3.47-3.47-3.47-3.47,1.55-3.47,3.47,1.55,3.47,3.47,3.47Z"/>
  <rect class="cls-15" x="225.47" y="79.74" width="116.67" height="32.81"/>
  <text class="cls-22" transform="translate(234.25 106.46)"><tspan x="0" y="0">value 1</tspan></text>
  <text class="cls-22" transform="translate(243.77 68.45)"><tspan x="0" y="0">VAR 1</tspan></text>
  <text class="cls-22" transform="translate(360.83 68.45)"><tspan x="0" y="0">VAR 2</tspan></text>
  <rect class="cls-15" x="342.53" y="79.74" width="116.67" height="32.81"/>
  <text class="cls-22" transform="translate(351.31 106.46)"><tspan x="0" y="0">value 2</tspan></text>
  <text class="cls-22" transform="translate(492.92 106.46)"><tspan x="0" y="0">•••</tspan></text>
  <line class="cls-1" x1="194.9" y1="79.87" x2="156.15" y2="79.87"/>
  <line class="cls-1" x1="156.15" y1="79.87" x2="120.21" y2="115.81"/>
  <circle class="cls-16" cx="120.21" cy="117.67" r="5.99"/>
  <g>
    <polyline class="cls-14" points="558.84 117.66 558.84 123.66 552.84 123.66"/>
    <line class="cls-9" x1="540.8" y1="123.66" x2="209.57" y2="123.66"/>
    <polyline class="cls-14" points="203.55 123.66 197.55 123.66 197.55 117.66"/>
    <line class="cls-8" x1="197.55" y1="106.53" x2="197.55" y2="45.29"/>
    <polyline class="cls-14" points="197.55 39.73 197.55 33.73 203.55 33.73"/>
    <line class="cls-9" x1="215.59" y1="33.73" x2="546.82" y2="33.73"/>
    <polyline class="cls-14" points="552.84 33.73 558.84 33.73 558.84 39.73"/>
    <line class="cls-8" x1="558.84" y1="50.86" x2="558.84" y2="112.09"/>
  </g>
  <text class="cls-22" transform="translate(341.39 24.05)"><tspan x="0" y="0">OBSERVATION 1</tspan></text>
  <text class="cls-22" transform="translate(44.34 300.34)"><tspan x="0" y="0">OBS. UNIT 1</tspan></text>
  <path class="cls-24" d="M289.04,351.86h3.71c4.79,8.3,13.76,13.87,24.04,13.87,2.38,0,4.73-.3,6.94-.87v49.42c0,3.84-3.1,6.94-6.94,6.94s-6.94-3.1-6.94-6.94v-30.52l-29.48,23.58h12.14c3.84,0,6.94,3.1,6.94,6.94s-3.1,6.94-6.94,6.94h-31.21c-11.49,0-20.81-9.32-20.81-20.81v-48.45c0-3.49-2.6-6.46-6.07-6.89l-1.71-.22c-3.79-.48-6.5-3.95-6.03-7.74s3.95-6.5,7.74-6.03l1.71.22c10.4,1.3,18.23,10.14,18.23,20.66v18.49c7.46-11.21,20.2-18.6,34.68-18.6h0ZM323.72,357.61h0c-2.17.76-4.51,1.19-6.94,1.19-6.16,0-11.71-2.69-15.52-6.94h0c-.8-.89-1.52-1.84-2.15-2.86-1.99-3.21-3.14-6.98-3.14-11.01h0v-25.43c0-1.28,1.02-2.3,2.3-2.32h.04c.72,0,1.39.35,1.82.91v.02l2.77,3.68,5.9,7.87,1.04,1.39h13.87l1.04-1.39,5.9-7.87,2.77-3.68v-.02c.43-.56,1.11-.91,1.82-.91h.04c1.28.02,2.3,1.04,2.3,2.32v25.43c0,3.75-1,7.28-2.73,10.32-2.45,4.29-6.42,7.63-11.14,9.3h0ZM313.32,337.99c0-1.92-1.55-3.47-3.47-3.47s-3.47,1.55-3.47,3.47,1.55,3.47,3.47,3.47,3.47-1.55,3.47-3.47ZM323.72,341.46c1.92,0,3.47-1.55,3.47-3.47s-1.55-3.47-3.47-3.47-3.47,1.55-3.47,3.47,1.55,3.47,3.47,3.47Z"/>
  <rect class="cls-4" x="386.43" y="248.08" width="116.67" height="32.81"/>
  <text class="cls-21" transform="translate(395.2 274.79)"><tspan x="0" y="0">value 1</tspan></text>
  <text class="cls-21" transform="translate(404.72 236.79)"><tspan x="0" y="0">VAR 1</tspan></text>
  <text class="cls-21" transform="translate(521.78 236.79)"><tspan x="0" y="0">VAR 2</tspan></text>
  <rect class="cls-4" x="503.48" y="248.08" width="116.67" height="32.81"/>
  <text class="cls-21" transform="translate(512.26 274.79)"><tspan x="0" y="0">value 2</tspan></text>
  <text class="cls-21" transform="translate(653.87 274.79)"><tspan x="0" y="0">•••</tspan></text>
  <line class="cls-5" x1="355.85" y1="248.21" x2="317.1" y2="248.21"/>
  <line class="cls-5" x1="317.1" y1="248.21" x2="281.16" y2="284.15"/>
  <circle class="cls-18" cx="281.16" cy="286.01" r="5.99"/>
  <g>
    <polyline class="cls-3" points="719.79 286 719.79 292 713.79 292"/>
    <line class="cls-2" x1="701.75" y1="292" x2="370.52" y2="292"/>
    <polyline class="cls-3" points="364.5 292 358.5 292 358.5 286"/>
    <line class="cls-13" x1="358.5" y1="274.86" x2="358.5" y2="213.63"/>
    <polyline class="cls-3" points="358.5 208.06 358.5 202.06 364.5 202.06"/>
    <line class="cls-2" x1="376.54" y1="202.06" x2="707.77" y2="202.06"/>
    <polyline class="cls-3" points="713.79 202.06 719.79 202.06 719.79 208.06"/>
    <line class="cls-13" x1="719.79" y1="219.2" x2="719.79" y2="280.43"/>
  </g>
  <text class="cls-21" transform="translate(502.35 192.39)"><tspan x="0" y="0">OBSERVATION 2</tspan></text>
  <text class="cls-21" transform="translate(205.3 468.68)"><tspan x="0" y="0">OBS. UNIT 2</tspan></text>
  <path class="cls-19" d="M460.31,504.17h3.71c4.79,8.3,13.76,13.87,24.04,13.87,2.38,0,4.73-.3,6.94-.87v49.42c0,3.84-3.1,6.94-6.94,6.94s-6.94-3.1-6.94-6.94v-30.52l-29.48,23.58h12.14c3.84,0,6.94,3.1,6.94,6.94s-3.1,6.94-6.94,6.94h-31.21c-11.49,0-20.81-9.32-20.81-20.81v-48.45c0-3.49-2.6-6.46-6.07-6.89l-1.71-.22c-3.79-.48-6.5-3.95-6.03-7.74s3.95-6.5,7.74-6.03l1.71.22c10.4,1.3,18.23,10.14,18.23,20.66v18.49c7.46-11.21,20.2-18.6,34.68-18.6h0ZM494.99,509.92h0c-2.17.76-4.51,1.19-6.94,1.19-6.16,0-11.71-2.69-15.52-6.94h0c-.8-.89-1.52-1.84-2.15-2.86-1.99-3.21-3.14-6.98-3.14-11.01h0v-25.43c0-1.28,1.02-2.3,2.3-2.32h.04c.72,0,1.39.35,1.82.91v.02l2.77,3.68,5.9,7.87,1.04,1.39h13.87l1.04-1.39,5.9-7.87,2.77-3.68v-.02c.43-.56,1.11-.91,1.82-.91h.04c1.28.02,2.3,1.04,2.3,2.32v25.43c0,3.75-1,7.28-2.73,10.32-2.45,4.29-6.42,7.63-11.14,9.3h0ZM484.59,490.3c0-1.92-1.55-3.47-3.47-3.47s-3.47,1.55-3.47,3.47,1.55,3.47,3.47,3.47,3.47-1.55,3.47-3.47ZM494.99,493.77c1.92,0,3.47-1.55,3.47-3.47s-1.55-3.47-3.47-3.47-3.47,1.55-3.47,3.47,1.55,3.47,3.47,3.47Z"/>
  <rect class="cls-11" x="557.69" y="400.39" width="116.67" height="32.81"/>
  <text class="cls-20" transform="translate(566.47 427.1)"><tspan x="0" y="0">value 1</tspan></text>
  <text class="cls-20" transform="translate(575.99 389.1)"><tspan x="0" y="0">VAR 1</tspan></text>
  <text class="cls-20" transform="translate(693.05 389.1)"><tspan x="0" y="0">VAR 2</tspan></text>
  <rect class="cls-11" x="674.75" y="400.39" width="116.67" height="32.81"/>
  <text class="cls-20" transform="translate(683.53 427.1)"><tspan x="0" y="0">value 2</tspan></text>
  <text class="cls-23" transform="translate(564.84 585.33) rotate(45)"><tspan x="0" y="0">•••</tspan></text>
  <line class="cls-7" x1="527.12" y1="400.52" x2="488.37" y2="400.52"/>
  <line class="cls-7" x1="488.37" y1="400.52" x2="452.43" y2="436.46"/>
  <circle class="cls-17" cx="452.43" cy="438.32" r="5.99"/>
  <g>
    <polyline class="cls-10" points="891.06 438.31 891.06 444.31 885.06 444.31"/>
    <line class="cls-6" x1="873.01" y1="444.31" x2="541.79" y2="444.31"/>
    <polyline class="cls-10" points="535.77 444.31 529.77 444.31 529.77 438.31"/>
    <line class="cls-12" x1="529.77" y1="427.17" x2="529.77" y2="365.94"/>
    <polyline class="cls-10" points="529.77 360.37 529.77 354.37 535.77 354.37"/>
    <line class="cls-6" x1="547.81" y1="354.37" x2="879.04" y2="354.37"/>
    <polyline class="cls-10" points="885.06 354.37 891.06 354.37 891.06 360.37"/>
    <line class="cls-12" x1="891.06" y1="371.51" x2="891.06" y2="432.74"/>
  </g>
  <text class="cls-20" transform="translate(673.61 344.7)"><tspan x="0" y="0">OBSERVATION 3</tspan></text>
  <text class="cls-20" transform="translate(376.56 620.98)"><tspan x="0" y="0">OBS. UNIT 3</tspan></text>
</svg>