<svg version="1.1" viewBox="0.0 0.0 213.8215223097113 100.0" fill="none" stroke="none" stroke-linecap="square" stroke-miterlimit="10" xmlns:xlink="http://www.w3.org/1999/xlink" xmlns="http://www.w3.org/2000/svg"><clipPath id="p.0"><path d="m0 0l213.82152 0l0 100.0l-213.82152 0l0 -100.0z" clip-rule="nonzero"/></clipPath><g clip-path="url(#p.0)"><path fill="#000000" fill-opacity="0.0" d="m0 0l213.82152 0l0 100.0l-213.82152 0z" fill-rule="evenodd"/><path shape-rendering="crispEdges" fill="#000000" d="m0.7322835 1.4593176l53.089237 0l0 24.27034l-53.089237 0l0 -24.27034z" fill-rule="nonzero"/><path shape-rendering="crispEdges" fill="#000000" d="m53.82152 1.4593176l53.089237 0l0 24.27034l-53.089237 0l0 -24.27034z" fill-rule="nonzero"/><path shape-rendering="crispEdges" fill="#000000" d="m106.91076 1.4593176l53.08924 0l0 24.27034l-53.08924 0l0 -24.27034z" fill-rule="nonzero"/><path shape-rendering="crispEdges" fill="#000000" d="m160.0 1.4593176l53.089233 0l0 24.27034l-53.089233 0l0 -24.27034z" fill-rule="nonzero"/><path shape-rendering="crispEdges" fill="#eeeeee" d="m0.7322835 50.0l53.089237 0l0 24.27034l-53.089237 0l0 -24.27034z" fill-rule="nonzero"/><path shape-rendering="crispEdges" fill="#eeeeee" d="m53.82152 50.0l53.089237 0l0 24.27034l-53.089237 0l0 -24.27034z" fill-rule="nonzero"/><path shape-rendering="crispEdges" fill="#eeeeee" d="m106.91076 50.0l53.08924 0l0 24.27034l-53.08924 0l0 -24.27034z" fill-rule="nonzero"/><path shape-rendering="crispEdges" fill="#eeeeee" d="m160.0 50.0l53.089233 0l0 24.27034l-53.089233 0l0 -24.27034z" fill-rule="nonzero"/><path stroke="#9e9e9e" stroke-width="1.0" stroke-linecap="butt" d="m0.7322835 0.96062994l0 98.078735" fill-rule="nonzero"/><path stroke="#9e9e9e" stroke-width="1.0" stroke-linecap="butt" d="m53.82152 0.96062994l0 98.078735" fill-rule="nonzero"/><path stroke="#9e9e9e" stroke-width="1.0" stroke-linecap="butt" d="m106.91076 0.96062994l0 98.078735" fill-rule="nonzero"/><path stroke="#9e9e9e" stroke-width="1.0" stroke-linecap="butt" d="m160.0 0.96062994l0 98.078735" fill-rule="nonzero"/><path stroke="#9e9e9e" stroke-width="1.0" stroke-linecap="butt" d="m213.08923 0.96062994l0 98.078735" fill-rule="nonzero"/><path stroke="#9e9e9e" stroke-width="1.0" stroke-linecap="butt" d="m0.2335958 1.4593176l213.35432 0" fill-rule="nonzero"/><path stroke="#9e9e9e" stroke-width="1.0" stroke-linecap="butt" d="m0.2335958 25.729658l213.35432 0" fill-rule="nonzero"/><path stroke="#9e9e9e" stroke-width="1.0" stroke-linecap="butt" d="m0.2335958 50.0l213.35432 0" fill-rule="nonzero"/><path stroke="#9e9e9e" stroke-width="1.0" stroke-linecap="butt" d="m0.2335958 74.27034l213.35432 0" fill-rule="nonzero"/><path stroke="#9e9e9e" stroke-width="1.0" stroke-linecap="butt" d="m0.2335958 98.54068l213.35432 0" fill-rule="nonzero"/><path fill="#000000" fill-opacity="0.0" d="m28.929134 8.524935l-1.1338596 90.01575" fill-rule="evenodd"/><path stroke="#4285f4" stroke-width="4.0" stroke-linejoin="round" stroke-linecap="butt" d="m28.756475 22.232193l-0.7885399 62.601234" fill-rule="evenodd"/><path fill="#4285f4" stroke="#4285f4" stroke-width="4.0" stroke-linecap="butt" d="m28.756474 22.232193l4.4413223 4.554636l-4.342314 -12.414749l-4.6536427 12.301434z" fill-rule="evenodd"/><path fill="#4285f4" stroke="#4285f4" stroke-width="4.0" stroke-linecap="butt" d="m27.967936 84.83343l-4.4413204 -4.5546417l4.342312 12.414749l4.6536446 -12.30143z" fill-rule="evenodd"/><path fill="#000000" fill-opacity="0.0" d="m81.83727 8.524935l-1.1338577 90.01575" fill-rule="evenodd"/><path stroke="#4285f4" stroke-width="4.0" stroke-linejoin="round" stroke-linecap="butt" d="m81.66461 22.232193l-0.7885437 62.601234" fill-rule="evenodd"/><path fill="#4285f4" stroke="#4285f4" stroke-width="4.0" stroke-linecap="butt" d="m81.66461 22.232193l4.4413223 4.554636l-4.3423157 -12.414749l-4.6536407 12.301434z" fill-rule="evenodd"/><path fill="#4285f4" stroke="#4285f4" stroke-width="4.0" stroke-linecap="butt" d="m80.87607 84.83343l-4.4413147 -4.5546417l4.342308 12.414749l4.6536484 -12.30143z" fill-rule="evenodd"/><path fill="#000000" fill-opacity="0.0" d="m134.7454 8.524935l-1.1338654 90.01575" fill-rule="evenodd"/><path stroke="#4285f4" stroke-width="4.0" stroke-linejoin="round" stroke-linecap="butt" d="m134.57274 22.232193l-0.78852844 62.601234" fill-rule="evenodd"/><path fill="#4285f4" stroke="#4285f4" stroke-width="4.0" stroke-linecap="butt" d="m134.57275 22.232193l4.4413147 4.554636l-4.3423157 -12.414749l-4.6536407 12.301434z" fill-rule="evenodd"/><path fill="#4285f4" stroke="#4285f4" stroke-width="4.0" stroke-linecap="butt" d="m133.78421 84.83343l-4.4413147 -4.5546417l4.3423004 12.414749l4.6536407 -12.30143z" fill-rule="evenodd"/><path fill="#000000" fill-opacity="0.0" d="m187.65355 8.524935l-1.1338654 90.01575" fill-rule="evenodd"/><path stroke="#4285f4" stroke-width="4.0" stroke-linejoin="round" stroke-linecap="butt" d="m187.4809 22.232193l-0.78855896 62.601234" fill-rule="evenodd"/><path fill="#4285f4" stroke="#4285f4" stroke-width="4.0" stroke-linecap="butt" d="m187.48088 22.232193l4.44133 4.554636l-4.3423157 -12.414749l-4.6536407 12.301434z" fill-rule="evenodd"/><path fill="#4285f4" stroke="#4285f4" stroke-width="4.0" stroke-linecap="butt" d="m186.69235 84.83343l-4.44133 -4.5546417l4.3423157 12.414749l4.6536407 -12.30143z" fill-rule="evenodd"/></g></svg>