<svg version="1.1" viewBox="0.0 0.0 479.8320209973753 278.15223097112863" fill="none" stroke="none" stroke-linecap="square" stroke-miterlimit="10" xmlns:xlink="http://www.w3.org/1999/xlink" xmlns="http://www.w3.org/2000/svg"><clipPath id="p.0"><path d="m0 0l479.83203 0l0 278.15222l-479.83203 0l0 -278.15222z" clip-rule="nonzero"/></clipPath><g clip-path="url(#p.0)"><path fill="#000000" fill-opacity="0.0" d="m0 0l479.83203 0l0 278.15222l-479.83203 0z" fill-rule="evenodd"/><path fill="#000000" fill-opacity="0.0" d="m17.811024 39.28609l0 222.45668" fill-rule="evenodd"/><path stroke="#000000" stroke-width="1.0" stroke-linejoin="round" stroke-linecap="butt" d="m17.811024 42.713177l0 219.02959" fill-rule="evenodd"/><path fill="#000000" stroke="#000000" stroke-width="1.0" stroke-linecap="butt" d="m17.811024 42.713177l1.1245842 1.1245842l-1.1245842 -3.0897713l-1.1245842 3.0897713z" fill-rule="evenodd"/><path fill="#000000" fill-opacity="0.0" d="m17.811024 261.74277l430.2992 0" fill-rule="evenodd"/><path stroke="#000000" stroke-width="1.0" stroke-linejoin="round" stroke-linecap="butt" d="m17.811024 261.74277l426.87213 0" fill-rule="evenodd"/><path fill="#000000" stroke="#000000" stroke-width="1.0" stroke-linecap="butt" d="m444.68314 261.74277l-1.1245728 1.1246033l3.0897827 -1.1246033l-3.0897827 -1.1245728z" fill-rule="evenodd"/><path fill="#000000" fill-opacity="0.0" d="m448.11023 245.56955l35.62204 0l0 32.346466l-35.62204 0z" fill-rule="evenodd"/><path fill="#000000" d="m467.94318 269.4228l-1.625 -3.640625l-0.78125 -1.5625l-3.1875 -6.125l4.09375 0l1.59375 3.484375l0.859375 1.65625l3.109375 6.1875l-4.0625 0zm-8.09375 0l5.921875 -6.359375l1.359375 2.203125l-3.25 4.15625l-4.03125 0zm8.53125 -4.921875l-1.34375 -2.1875l3.125 -4.21875l4.03125 0l-5.8125 6.40625z" fill-rule="nonzero"/><path fill="#000000" fill-opacity="0.0" d="m0 0l35.622047 0l0 32.34646l-35.622047 0z" fill-rule="evenodd"/><path fill="#000000" d="m13.089901 28.75948l3.890625 -6.078125l-0.34375 1.75l-2.921875 -11.90625l3.859375 0l1.1875 5.703125q0.09375 0.421875 0.15625 0.921875q0.0625 0.484375 0.046875 0.921875l-0.515625 0.28125q0.203125 -0.3125 0.453125 -0.796875q0.265625 -0.484375 0.5625 -1.03125l3.375 -6.0l3.875 0l-7.21875 11.328125l-3.015625 4.90625l-3.390625 0z" fill-rule="nonzero"/><path fill="#cfe2f3" d="m69.144356 155.19685l0 0c0 -4.774872 3.8707962 -8.645676 8.645668 -8.645676l0 0c2.2929764 0 4.492035 0.9108887 6.113411 2.532257c1.6213837 1.6213837 2.532257 3.8204346 2.532257 6.1134186l0 0c0 4.774872 -3.8707962 8.64566 -8.645668 8.64566l0 0c-4.774872 0 -8.645668 -3.8707886 -8.645668 -8.64566z" fill-rule="evenodd"/><path stroke="#000000" stroke-width="1.0" stroke-linejoin="round" stroke-linecap="butt" d="m69.144356 155.19685l0 0c0 -4.774872 3.8707962 -8.645676 8.645668 -8.645676l0 0c2.2929764 0 4.492035 0.9108887 6.113411 2.532257c1.6213837 1.6213837 2.532257 3.8204346 2.532257 6.1134186l0 0c0 4.774872 -3.8707962 8.64566 -8.645668 8.64566l0 0c-4.774872 0 -8.645668 -3.8707886 -8.645668 -8.64566z" fill-rule="evenodd"/><path fill="#000000" fill-opacity="0.0" d="m61.406826 218.22572l313.07086 -146.36221" fill-rule="evenodd"/><path stroke="#0000ff" stroke-width="3.0" stroke-linejoin="round" stroke-linecap="butt" d="m61.406826 218.22572l313.07086 -146.36221" fill-rule="evenodd"/><path fill="#cfe2f3" d="m182.77953 108.69292l0 0c0 -4.774872 3.8708038 -8.645676 8.645676 -8.645676l0 0c2.2929688 0 4.492035 0.91088104 6.1134033 2.532257c1.6213837 1.6213837 2.532257 3.8204422 2.532257 6.1134186l0 0c0 4.774864 -3.8707886 8.645668 -8.64566 8.645668l0 0c-4.774872 0 -8.645676 -3.8708038 -8.645676 -8.645668z" fill-rule="evenodd"/><path stroke="#000000" stroke-width="1.0" stroke-linejoin="round" stroke-linecap="butt" d="m182.77953 108.69292l0 0c0 -4.774872 3.8708038 -8.645676 8.645676 -8.645676l0 0c2.2929688 0 4.492035 0.91088104 6.1134033 2.532257c1.6213837 1.6213837 2.532257 3.8204422 2.532257 6.1134186l0 0c0 4.774864 -3.8707886 8.645668 -8.64566 8.645668l0 0c-4.774872 0 -8.645676 -3.8708038 -8.645676 -8.645668z" fill-rule="evenodd"/><path fill="#cfe2f3" d="m292.44095 68.35171l0 0c0 -4.774872 3.8707886 -8.645672 8.64566 -8.645672l0 0c2.2929688 0 4.492035 0.91088104 6.1134033 2.532261c1.6213989 1.621376 2.532257 3.8204346 2.532257 6.113411l0 0c0 4.774872 -3.8707886 8.645668 -8.64566 8.645668l0 0c-4.774872 0 -8.64566 -3.8707962 -8.64566 -8.645668z" fill-rule="evenodd"/><path stroke="#000000" stroke-width="1.0" stroke-linejoin="round" stroke-linecap="butt" d="m292.44095 68.35171l0 0c0 -4.774872 3.8707886 -8.645672 8.64566 -8.645672l0 0c2.2929688 0 4.492035 0.91088104 6.1134033 2.532261c1.6213989 1.621376 2.532257 3.8204346 2.532257 6.113411l0 0c0 4.774872 -3.8707886 8.645668 -8.64566 8.645668l0 0c-4.774872 0 -8.64566 -3.8707962 -8.64566 -8.645668z" fill-rule="evenodd"/><path fill="#cfe2f3" d="m121.75853 223.94751l0 0c0 -4.774872 3.8707962 -8.645676 8.645676 -8.645676l0 0c2.2929688 0 4.492035 0.9108887 6.1134033 2.532257c1.6213837 1.6213837 2.532257 3.8204346 2.532257 6.1134186l0 0c0 4.774872 -3.8707886 8.64566 -8.64566 8.64566l0 0c-4.7748795 0 -8.645676 -3.8707886 -8.645676 -8.64566z" fill-rule="evenodd"/><path stroke="#000000" stroke-width="1.0" stroke-linejoin="round" stroke-linecap="butt" d="m121.75853 223.94751l0 0c0 -4.774872 3.8707962 -8.645676 8.645676 -8.645676l0 0c2.2929688 0 4.492035 0.9108887 6.1134033 2.532257c1.6213837 1.6213837 2.532257 3.8204346 2.532257 6.1134186l0 0c0 4.774872 -3.8707886 8.64566 -8.64566 8.64566l0 0c-4.7748795 0 -8.645676 -3.8707886 -8.645676 -8.64566z" fill-rule="evenodd"/><path fill="#cfe2f3" d="m235.3937 177.44357l0 0c0 -4.774872 3.8707886 -8.645676 8.64566 -8.645676l0 0c2.292984 0 4.492035 0.9108887 6.1134186 2.532257c1.6213684 1.6213837 2.532257 3.8204346 2.532257 6.1134186l0 0c0 4.774872 -3.8708038 8.64566 -8.645676 8.64566l0 0c-4.774872 0 -8.64566 -3.8707886 -8.64566 -8.64566z" fill-rule="evenodd"/><path stroke="#000000" stroke-width="1.0" stroke-linejoin="round" stroke-linecap="butt" d="m235.3937 177.44357l0 0c0 -4.774872 3.8707886 -8.645676 8.64566 -8.645676l0 0c2.292984 0 4.492035 0.9108887 6.1134186 2.532257c1.6213684 1.6213837 2.532257 3.8204346 2.532257 6.1134186l0 0c0 4.774872 -3.8708038 8.64566 -8.645676 8.64566l0 0c-4.774872 0 -8.64566 -3.8707886 -8.64566 -8.64566z" fill-rule="evenodd"/><path fill="#cfe2f3" d="m345.0551 137.10236l0 0c0 -4.774872 3.8707886 -8.64566 8.64566 -8.64566l0 0c2.2929993 0 4.492035 0.9108734 6.113434 2.532257c1.6213684 1.6213684 2.532257 3.8204346 2.532257 6.1134033l0 0c0 4.774872 -3.870819 8.645676 -8.645691 8.645676l0 0c-4.774872 0 -8.64566 -3.8708038 -8.64566 -8.645676z" fill-rule="evenodd"/><path stroke="#000000" stroke-width="1.0" stroke-linejoin="round" stroke-linecap="butt" d="m345.0551 137.10236l0 0c0 -4.774872 3.8707886 -8.64566 8.64566 -8.64566l0 0c2.2929993 0 4.492035 0.9108734 6.113434 2.532257c1.6213684 1.6213684 2.532257 3.8204346 2.532257 6.1134033l0 0c0 4.774872 -3.870819 8.645676 -8.645691 8.645676l0 0c-4.774872 0 -8.64566 -3.8708038 -8.64566 -8.645676z" fill-rule="evenodd"/><path fill="#000000" fill-opacity="0.0" d="m77.79002 163.84251l0 47.3071" fill-rule="evenodd"/><path stroke="#9900ff" stroke-width="2.0" stroke-linejoin="round" stroke-linecap="butt" stroke-dasharray="8.0,6.0" d="m77.79002 163.84251l0 47.3071" fill-rule="evenodd"/><path fill="#000000" fill-opacity="0.0" d="m191.4252 117.338585l0 41.039375" fill-rule="evenodd"/><path stroke="#9900ff" stroke-width="2.0" stroke-linejoin="round" stroke-linecap="butt" stroke-dasharray="8.0,6.0" d="m191.4252 117.338585l0 41.039375" fill-rule="evenodd"/><path fill="#000000" fill-opacity="0.0" d="m130.4042 186.13649l0 29.165344" fill-rule="evenodd"/><path stroke="#9900ff" stroke-width="2.0" stroke-linejoin="round" stroke-linecap="butt" stroke-dasharray="8.0,6.0" d="m130.4042 186.13649l0 29.165344" fill-rule="evenodd"/><path fill="#000000" fill-opacity="0.0" d="m244.03937 133.36482l0 35.433075" fill-rule="evenodd"/><path stroke="#9900ff" stroke-width="2.0" stroke-linejoin="round" stroke-linecap="butt" stroke-dasharray="8.0,6.0" d="m244.03937 133.36482l0 35.433075" fill-rule="evenodd"/><path fill="#000000" fill-opacity="0.0" d="m353.70078 83.35433l0 45.102364" fill-rule="evenodd"/><path stroke="#9900ff" stroke-width="2.0" stroke-linejoin="round" stroke-linecap="butt" stroke-dasharray="8.0,6.0" d="m353.70078 83.35433l0 45.102364" fill-rule="evenodd"/><path fill="#000000" fill-opacity="0.0" d="m301.0866 76.997375l0 28.031494" fill-rule="evenodd"/><path stroke="#9900ff" stroke-width="2.0" stroke-linejoin="round" stroke-linecap="butt" stroke-dasharray="8.0,6.0" d="m301.0866 76.997375l0 28.031494" fill-rule="evenodd"/><path fill="#000000" fill-opacity="0.0" d="m33.614216 168.80052l40.7559 0l0 32.346466l-40.7559 0z" fill-rule="evenodd"/><path fill="#9900ff" d="m50.614002 192.8725q-1.875 0 -3.09375 -0.75q-1.21875 -0.765625 -1.71875 -2.078125q-0.5 -1.3125 -0.140625 -3.0q0.28125 -1.296875 0.9375 -2.375q0.65625 -1.09375 1.59375 -1.890625q0.9375 -0.8125 2.078125 -1.25q1.15625 -0.4375 2.421875 -0.4375q1.1875 0 2.09375 0.4375q0.90625 0.421875 1.46875 1.1875q0.5625 0.765625 0.71875 1.8125q0.15625 1.046875 -0.140625 2.28125l-0.21875 0.921875l-9.015625 0l-0.09375 -1.921875l6.75 0l-0.4375 0.40625l0.09375 -0.4375q0.0625 -0.53125 -0.140625 -0.9375q-0.203125 -0.421875 -0.625 -0.65625q-0.421875 -0.234375 -1.015625 -0.234375q-0.84375 0 -1.5 0.328125q-0.65625 0.328125 -1.09375 0.96875q-0.421875 0.625 -0.609375 1.546875q-0.203125 0.9375 0.046875 1.625q0.25 0.6875 0.921875 1.078125q0.6875 0.390625 1.71875 0.390625q0.734375 0 1.34375 -0.21875q0.609375 -0.21875 1.390625 -0.734375l1.109375 2.265625q-0.78125 0.578125 -1.609375 0.9375q-0.828125 0.359375 -1.65625 0.546875q-0.8125 0.1875 -1.578125 0.1875z" fill-rule="nonzero"/><path fill="#9900ff" d="m59.252964 199.95062l0 -8.0625l0.53125 1.203125l-2.140625 1.0l-0.40625 -2.15625l2.828125 -1.375l1.5625 0l0 9.390625l-2.375 0zm-1.8125 0.703125l0 -2.140625l6.046875 0l0 2.140625l-6.046875 0z" fill-rule="nonzero"/><path fill="#000000" fill-opacity="0.0" d="m42.711327 168.80052l40.755905 0l0 32.346466l-40.755905 0z" fill-rule="evenodd"/><path fill="#9900ff" d="m60.03708 184.65375l-0.46875 -1.171875l2.890625 -3.171875q0.25 -0.265625 0.53125 -0.609375q0.28125 -0.34375 0.546875 -0.703125q0.28125 -0.359375 0.4375 -0.703125q0.171875 -0.34375 0.171875 -0.625q0 -0.28125 -0.140625 -0.484375q-0.125 -0.21875 -0.375 -0.34375q-0.234375 -0.125 -0.59375 -0.125q-0.328125 0 -0.625 0.171875q-0.296875 0.15625 -0.5625 0.5q-0.265625 0.34375 -0.5 0.84375l-1.78125 -0.96875q0.296875 -0.828125 0.84375 -1.453125q0.546875 -0.640625 1.28125 -0.984375q0.734375 -0.359375 1.578125 -0.359375q0.890625 0.015625 1.59375 0.390625q0.71875 0.359375 1.125 1.015625q0.421875 0.640625 0.421875 1.5q0 0.296875 -0.078125 0.625q-0.0625 0.328125 -0.203125 0.6875q-0.140625 0.34375 -0.375 0.734375q-0.234375 0.390625 -0.5625 0.8125q-0.328125 0.421875 -0.765625 0.90625l-2.265625 2.46875l-0.28125 -1.09375l4.96875 0l0 2.140625l-6.8125 0z" fill-rule="nonzero"/><path fill="#000000" fill-opacity="0.0" d="m137.76907 185.87138l40.755905 0l0 32.346466l-40.755905 0z" fill-rule="evenodd"/><path fill="#9900ff" d="m154.86128 209.94337q-1.875 0 -3.09375 -0.75q-1.21875 -0.765625 -1.71875 -2.078125q-0.5 -1.3125 -0.140625 -3.0q0.28125 -1.296875 0.9375 -2.375q0.65625 -1.09375 1.59375 -1.890625q0.9375 -0.8125 2.078125 -1.25q1.15625 -0.4375 2.421875 -0.4375q1.1875 0 2.09375 0.4375q0.90625 0.421875 1.46875 1.1875q0.5625 0.765625 0.71875 1.8125q0.15625 1.046875 -0.140625 2.28125l-0.21875 0.921875l-9.015625 0l-0.09375 -1.921875l6.75 0l-0.4375 0.40625l0.09375 -0.4375q0.0625 -0.53125 -0.140625 -0.9375q-0.203125 -0.421875 -0.625 -0.65625q-0.421875 -0.234375 -1.015625 -0.234375q-0.84375 0 -1.5 0.328125q-0.65625 0.328125 -1.09375 0.96875q-0.421875 0.625 -0.609375 1.546875q-0.203125 0.9375 0.046875 1.625q0.25 0.6875 0.921875 1.078125q0.6875 0.390625 1.71875 0.390625q0.734375 0 1.34375 -0.21875q0.609375 -0.21875 1.390625 -0.734375l1.109375 2.265625q-0.78125 0.578125 -1.609375 0.9375q-0.828125 0.359375 -1.65625 0.546875q-0.8125 0.1875 -1.578125 0.1875z" fill-rule="nonzero"/><path fill="#9900ff" d="m161.344 217.72462l-0.46875 -1.171875l2.890625 -3.171875q0.25 -0.265625 0.53125 -0.609375q0.28125 -0.34375 0.546875 -0.703125q0.28125 -0.359375 0.4375 -0.703125q0.171875 -0.34375 0.171875 -0.625q0 -0.28125 -0.140625 -0.484375q-0.125 -0.21875 -0.375 -0.34375q-0.234375 -0.125 -0.59375 -0.125q-0.328125 0 -0.625 0.171875q-0.296875 0.15625 -0.5625 0.5q-0.265625 0.34375 -0.5 0.84375l-1.78125 -0.96875q0.296875 -0.828125 0.84375 -1.453125q0.546875 -0.640625 1.28125 -0.984375q0.734375 -0.359375 1.578125 -0.359375q0.890625 0.015625 1.59375 0.390625q0.71875 0.359375 1.125 1.015625q0.421875 0.640625 0.421875 1.5q0 0.296875 -0.078125 0.625q-0.0625 0.328125 -0.203125 0.6875q-0.140625 0.34375 -0.375 0.734375q-0.234375 0.390625 -0.5625 0.8125q-0.328125 0.421875 -0.765625 0.90625l-2.265625 2.46875l-0.28125 -1.09375l4.96875 0l0 2.140625l-6.8125 0z" fill-rule="nonzero"/><path fill="#000000" fill-opacity="0.0" d="m146.86618 185.87138l40.755905 0l0 32.346466l-40.755905 0z" fill-rule="evenodd"/><path fill="#9900ff" d="m164.19194 201.72462l-0.46875 -1.171875l2.890625 -3.171875q0.25 -0.265625 0.53125 -0.609375q0.28125 -0.34375 0.546875 -0.703125q0.28125 -0.359375 0.4375 -0.703125q0.171875 -0.34375 0.171875 -0.625q0 -0.28125 -0.140625 -0.484375q-0.125 -0.21875 -0.375 -0.34375q-0.234375 -0.125 -0.59375 -0.125q-0.328125 0 -0.625 0.171875q-0.296875 0.15625 -0.5625 0.5q-0.265625 0.34375 -0.5 0.84375l-1.78125 -0.96875q0.296875 -0.828125 0.84375 -1.453125q0.546875 -0.640625 1.28125 -0.984375q0.734375 -0.359375 1.578125 -0.359375q0.890625 0.015625 1.59375 0.390625q0.71875 0.359375 1.125 1.015625q0.421875 0.640625 0.421875 1.5q0 0.296875 -0.078125 0.625q-0.0625 0.328125 -0.203125 0.6875q-0.140625 0.34375 -0.375 0.734375q-0.234375 0.390625 -0.5625 0.8125q-0.328125 0.421875 -0.765625 0.90625l-2.265625 2.46875l-0.28125 -1.09375l4.96875 0l0 2.140625l-6.8125 0z" fill-rule="nonzero"/><path fill="#000000" fill-opacity="0.0" d="m137.76907 120.92913l40.755905 0l0 32.34646l-40.755905 0z" fill-rule="evenodd"/><path fill="#9900ff" d="m154.55557 145.00111q-1.875 0 -3.09375 -0.75q-1.21875 -0.765625 -1.71875 -2.078125q-0.5 -1.3125 -0.140625 -3.0q0.28125 -1.296875 0.9375 -2.375q0.65625 -1.09375 1.59375 -1.890625q0.9375 -0.8125 2.078125 -1.25q1.15625 -0.4375 2.421875 -0.4375q1.1875 0 2.09375 0.4375q0.90625 0.421875 1.46875 1.1875q0.5625 0.765625 0.71875 1.8125q0.15625 1.046875 -0.140625 2.28125l-0.21875 0.921875l-9.015625 0l-0.09375 -1.921875l6.75 0l-0.4375 0.40625l0.09375 -0.4375q0.0625 -0.53125 -0.140625 -0.9375q-0.203125 -0.421875 -0.625 -0.65625q-0.421875 -0.234375 -1.015625 -0.234375q-0.84375 0 -1.5 0.328125q-0.65625 0.328125 -1.09375 0.96875q-0.421875 0.625 -0.609375 1.546875q-0.203125 0.9375 0.046875 1.625q0.25 0.6875 0.921875 1.078125q0.6875 0.390625 1.71875 0.390625q0.734375 0 1.34375 -0.21875q0.609375 -0.21875 1.390625 -0.734375l1.109375 2.265625q-0.78125 0.578125 -1.609375 0.9375q-0.828125 0.359375 -1.65625 0.546875q-0.8125 0.1875 -1.578125 0.1875z" fill-rule="nonzero"/><path fill="#9900ff" d="m164.27266 152.92299q-1.203125 0 -2.109375 -0.5q-0.90625 -0.515625 -1.640625 -1.75l1.734375 -1.125q0.3125 0.5 0.640625 0.796875q0.34375 0.296875 0.703125 0.4375q0.359375 0.140625 0.765625 0.140625q0.390625 0 0.71875 -0.171875q0.34375 -0.1875 0.546875 -0.515625q0.203125 -0.328125 0.203125 -0.734375q0 -0.4375 -0.171875 -0.75q-0.171875 -0.3125 -0.515625 -0.46875q-0.328125 -0.15625 -0.796875 -0.15625q-0.21875 0 -0.46875 0.0625q-0.234375 0.046875 -0.5 0.140625q-0.265625 0.078125 -0.5625 0.21875l-0.515625 -1.40625l2.40625 -2.640625l0.65625 0.359375l-4.140625 -0.078125l0 -2.03125l6.109375 0l0.4375 0.875l-3.28125 3.53125l-0.578125 -0.671875q0.125 -0.0625 0.375 -0.109375q0.265625 -0.046875 0.515625 -0.046875q0.671875 0 1.25 0.25q0.578125 0.234375 1.03125 0.65625q0.453125 0.421875 0.703125 1.0q0.265625 0.578125 0.265625 1.234375q0 1.0 -0.5 1.78125q-0.5 0.765625 -1.359375 1.21875q-0.859375 0.453125 -1.921875 0.453125z" fill-rule="nonzero"/><path fill="#000000" fill-opacity="0.0" d="m146.86618 120.92913l40.755905 0l0 32.34646l-40.755905 0z" fill-rule="evenodd"/><path fill="#9900ff" d="m164.19194 136.78236l-0.46875 -1.171875l2.890625 -3.171875q0.25 -0.265625 0.53125 -0.609375q0.28125 -0.34375 0.546875 -0.703125q0.28125 -0.359375 0.4375 -0.703125q0.171875 -0.34375 0.171875 -0.625q0 -0.28125 -0.140625 -0.484375q-0.125 -0.21875 -0.375 -0.34375q-0.234375 -0.125 -0.59375 -0.125q-0.328125 0 -0.625 0.171875q-0.296875 0.15625 -0.5625 0.5q-0.265625 0.34375 -0.5 0.84375l-1.78125 -0.96875q0.296875 -0.828125 0.84375 -1.453125q0.546875 -0.640625 1.28125 -0.984375q0.734375 -0.359375 1.578125 -0.359375q0.890625 0.015625 1.59375 0.390625q0.71875 0.359375 1.125 1.015625q0.421875 0.640625 0.421875 1.5q0 0.296875 -0.078125 0.625q-0.0625 0.328125 -0.203125 0.6875q-0.140625 0.34375 -0.375 0.734375q-0.234375 0.390625 -0.5625 0.8125q-0.328125 0.421875 -0.765625 0.90625l-2.265625 2.46875l-0.28125 -1.09375l4.96875 0l0 2.140625l-6.8125 0z" fill-rule="nonzero"/><path fill="#000000" fill-opacity="0.0" d="m248.05254 133.36745l40.755905 0l0 32.346466l-40.755905 0z" fill-rule="evenodd"/><path fill="#9900ff" d="m264.33426 157.43944q-1.875 0 -3.09375 -0.75q-1.21875 -0.765625 -1.71875 -2.078125q-0.5 -1.3125 -0.140625 -3.0q0.28125 -1.296875 0.9375 -2.375q0.65625 -1.09375 1.59375 -1.890625q0.9375 -0.8125 2.078125 -1.25q1.15625 -0.4375 2.421875 -0.4375q1.1875 0 2.09375 0.4375q0.90625 0.421875 1.46875 1.1875q0.5625 0.765625 0.71875 1.8125q0.15625 1.046875 -0.140625 2.28125l-0.21875 0.921875l-9.015625 0l-0.09375 -1.921875l6.75 0l-0.4375 0.40625l0.09375 -0.4375q0.0625 -0.53125 -0.140625 -0.9375q-0.203125 -0.421875 -0.625 -0.65625q-0.421875 -0.234375 -1.015625 -0.234375q-0.84375 0 -1.5 0.328125q-0.65625 0.328125 -1.09375 0.96875q-0.421875 0.625 -0.609375 1.546875q-0.203125 0.9375 0.046875 1.625q0.25 0.6875 0.921875 1.078125q0.6875 0.390625 1.71875 0.390625q0.734375 0 1.34375 -0.21875q0.609375 -0.21875 1.390625 -0.734375l1.109375 2.265625q-0.78125 0.578125 -1.609375 0.9375q-0.828125 0.359375 -1.65625 0.546875q-0.8125 0.1875 -1.578125 0.1875z" fill-rule="nonzero"/><path fill="#9900ff" d="m274.942 165.22069l0 -8.046875l1.28125 0.03125l-3.59375 4.40625l-0.34375 -0.421875l6.609375 0l0 1.984375l-7.6875 0l-0.96875 -1.859375l5.078125 -6.125l1.953125 0l0 10.03125l-2.328125 0z" fill-rule="nonzero"/><path fill="#000000" fill-opacity="0.0" d="m257.14966 133.36745l40.75589 0l0 32.346466l-40.75589 0z" fill-rule="evenodd"/><path fill="#9900ff" d="m274.4754 149.22069l-0.46875 -1.171875l2.890625 -3.171875q0.25 -0.265625 0.53125 -0.609375q0.28125 -0.34375 0.546875 -0.703125q0.28125 -0.359375 0.4375 -0.703125q0.171875 -0.34375 0.171875 -0.625q0 -0.28125 -0.140625 -0.484375q-0.125 -0.21875 -0.375 -0.34375q-0.234375 -0.125 -0.59375 -0.125q-0.328125 0 -0.625 0.171875q-0.296875 0.15625 -0.5625 0.5q-0.265625 0.34375 -0.5 0.84375l-1.78125 -0.96875q0.296875 -0.828125 0.84375 -1.453125q0.546875 -0.640625 1.28125 -0.984375q0.734375 -0.359375 1.578125 -0.359375q0.890625 0.015625 1.59375 0.390625q0.71875 0.359375 1.125 1.015625q0.421875 0.640625 0.421875 1.5q0 0.296875 -0.078125 0.625q-0.0625 0.328125 -0.203125 0.6875q-0.140625 0.34375 -0.375 0.734375q-0.234375 0.390625 -0.5625 0.8125q-0.328125 0.421875 -0.765625 0.90625l-2.265625 2.46875l-0.28125 -1.09375l4.96875 0l0 2.140625l-6.8125 0z" fill-rule="nonzero"/><path fill="#000000" fill-opacity="0.0" d="m244.03941 74.8399l40.755905 0l0 32.34645l-40.755905 0z" fill-rule="evenodd"/><path fill="#9900ff" d="m260.79037 98.91187q-1.875 0 -3.09375 -0.75q-1.21875 -0.765625 -1.7187653 -2.078125q-0.5 -1.3125 -0.140625 -3.0q0.28126526 -1.296875 0.93751526 -2.375q0.65625 -1.09375 1.59375 -1.890625q0.9375 -0.8125 2.078125 -1.25q1.15625 -0.4375 2.421875 -0.4375q1.1875 0 2.09375 0.4375q0.90625 0.421875 1.46875 1.1875q0.5625 0.765625 0.71875 1.8125q0.15625 1.046875 -0.140625 2.28125l-0.21875 0.921875l-9.015625 0l-0.09375 -1.921875l6.75 0l-0.4375 0.40625l0.09375 -0.4375q0.0625 -0.53125 -0.140625 -0.9375q-0.203125 -0.421875 -0.625 -0.65625q-0.421875 -0.234375 -1.015625 -0.234375q-0.84375 0 -1.5 0.328125q-0.65625 0.328125 -1.09375 0.96875q-0.421875 0.625 -0.609375 1.546875q-0.203125 0.9375 0.046875 1.625q0.25 0.6875 0.921875 1.078125q0.6875 0.390625 1.71875 0.390625q0.734375 0 1.34375 -0.21875q0.609375 -0.21875 1.390625 -0.734375l1.109375 2.265625q-0.78125 0.578125 -1.609375 0.9375q-0.828125 0.359375 -1.65625 0.546875q-0.8125 0.1875 -1.578125 0.1875z" fill-rule="nonzero"/><path fill="#9900ff" d="m270.44495 106.78687q-1.125 0 -2.046875 -0.453125q-0.921875 -0.453125 -1.515625 -1.296875l1.296875 -1.421875q0.578125 0.625 1.078125 0.875q0.5 0.234375 1.109375 0.234375q0.453125 0 0.8125 -0.1875q0.359375 -0.1875 0.5625 -0.515625q0.203125 -0.34375 0.203125 -0.75q0 -0.4375 -0.203125 -0.765625q-0.203125 -0.328125 -0.5625 -0.53125q-0.34375 -0.203125 -0.796875 -0.203125q-0.328125 0 -0.609375 0.0625q-0.28125 0.046875 -0.609375 0.1875q-0.3125 0.140625 -0.765625 0.390625l-1.015625 -1.359375l0.609375 -4.390625l5.71875 0l0 2.03125l-4.5625 0l0.625 -0.796875l-0.46875 3.15625l-0.859375 -0.28125q0.28125 -0.25 0.671875 -0.4375q0.390625 -0.1875 0.84375 -0.296875q0.453125 -0.125 0.90625 -0.125q0.9375 0 1.6875 0.4375q0.75 0.421875 1.1875 1.203125q0.4375 0.765625 0.4375 1.75q0 0.984375 -0.5 1.78125q-0.5 0.78125 -1.34375 1.25q-0.828125 0.453125 -1.890625 0.453125z" fill-rule="nonzero"/><path fill="#000000" fill-opacity="0.0" d="m253.13652 74.8399l40.755905 0l0 32.34645l-40.755905 0z" fill-rule="evenodd"/><path fill="#9900ff" d="m270.46228 90.69312l-0.46875 -1.171875l2.890625 -3.171875q0.25 -0.265625 0.53125 -0.609375q0.28125 -0.34375 0.546875 -0.703125q0.28125 -0.359375 0.4375 -0.703125q0.171875 -0.34375 0.171875 -0.625q0 -0.28125 -0.140625 -0.484375q-0.125 -0.21875 -0.375 -0.34375q-0.234375 -0.125 -0.59375 -0.125q-0.328125 0 -0.625 0.171875q-0.296875 0.15625 -0.5625 0.5q-0.265625 0.34375 -0.5 0.84375l-1.78125 -0.96875q0.296875 -0.828125 0.84375 -1.453125q0.546875 -0.640625 1.28125 -0.984375q0.734375 -0.359375 1.578125 -0.359375q0.890625 0.015625 1.59375 0.390625q0.71875 0.359375 1.125 1.015625q0.421875 0.640625 0.421875 1.5q0 0.296875 -0.078125 0.625q-0.0625 0.328125 -0.203125 0.6875q-0.140625 0.34375 -0.375 0.734375q-0.234375 0.390625 -0.5625 0.8125q-0.328125 0.421875 -0.765625 0.90625l-2.265625 2.46875l-0.28125 -1.09375l4.96875 0l0 2.140625l-6.8125 0z" fill-rule="nonzero"/><path fill="#000000" fill-opacity="0.0" d="m360.4226 88.58268l40.75592 0l0 32.34645l-40.75592 0z" fill-rule="evenodd"/><path fill="#9900ff" d="m377.29443 112.654655q-1.875 0 -3.09375 -0.75q-1.21875 -0.765625 -1.71875 -2.078125q-0.5 -1.3125 -0.140625 -3.0q0.28125 -1.296875 0.9375 -2.375q0.65625 -1.09375 1.59375 -1.890625q0.9375 -0.8125 2.078125 -1.25q1.15625 -0.4375 2.421875 -0.4375q1.1875 0 2.09375 0.4375q0.90625 0.421875 1.46875 1.1875q0.5625 0.765625 0.71875 1.8125q0.15625 1.046875 -0.140625 2.28125l-0.21875 0.921875l-9.015625 0l-0.09375 -1.921875l6.75 0l-0.4375 0.40625l0.09375 -0.4375q0.0625 -0.53125 -0.140625 -0.9375q-0.203125 -0.421875 -0.625 -0.65625q-0.421875 -0.234375 -1.015625 -0.234375q-0.84375 0 -1.5 0.328125q-0.65625 0.328125 -1.09375 0.96875q-0.421875 0.625 -0.609375 1.546875q-0.203125 0.9375 0.046875 1.625q0.25 0.6875 0.921875 1.078125q0.6875 0.390625 1.71875 0.390625q0.734375 0 1.34375 -0.21875q0.609375 -0.21875 1.390625 -0.734375l1.109375 2.265625q-0.78125 0.578125 -1.609375 0.9375q-0.828125 0.359375 -1.65625 0.546875q-0.8125 0.1875 -1.578125 0.1875z" fill-rule="nonzero"/><path fill="#9900ff" d="m387.12088 120.435905q-0.78125 0 -1.453125 -0.265625q-0.671875 -0.28125 -1.171875 -0.765625q-0.5 -0.5 -0.796875 -1.15625q-0.28125 -0.65625 -0.28125 -1.40625q0 -0.53125 0.109375 -1.015625q0.125 -0.5 0.328125 -1.0q0.203125 -0.5 0.484375 -1.03125q0.296875 -0.546875 0.65625 -1.140625l1.390625 -2.328125l2.234375 0l0.0625 0.140625l-1.9375 3.046875q-0.375 0.59375 -0.640625 1.109375q-0.265625 0.515625 -0.484375 1.03125q-0.21875 0.515625 -0.421875 1.078125l-0.453125 -0.96875q0.140625 -0.5 0.453125 -0.921875q0.3125 -0.421875 0.71875 -0.71875q0.421875 -0.3125 0.875 -0.46875q0.46875 -0.171875 0.90625 -0.171875q0.84375 0 1.546875 0.453125q0.703125 0.4375 1.125 1.1875q0.421875 0.734375 0.421875 1.609375q0 1.0625 -0.484375 1.90625q-0.46875 0.828125 -1.296875 1.3125q-0.828125 0.484375 -1.890625 0.484375zm0.015625 -1.984375q0.453125 0 0.796875 -0.203125q0.359375 -0.203125 0.5625 -0.5625q0.203125 -0.359375 0.203125 -0.828125q0 -0.40625 -0.21875 -0.75q-0.203125 -0.34375 -0.546875 -0.5625q-0.34375 -0.234375 -0.78125 -0.234375q-0.453125 0 -0.8125 0.21875q-0.359375 0.203125 -0.5625 0.546875q-0.203125 0.34375 -0.203125 0.78125q0 0.453125 0.203125 0.8125q0.203125 0.359375 0.546875 0.578125q0.359375 0.203125 0.8125 0.203125z" fill-rule="nonzero"/><path fill="#000000" fill-opacity="0.0" d="m369.5197 88.58268l40.75592 0l0 32.34645l-40.75592 0z" fill-rule="evenodd"/><path fill="#9900ff" d="m386.8455 104.435905l-0.46875 -1.171875l2.890625 -3.171875q0.25 -0.265625 0.53125 -0.609375q0.28125 -0.34375 0.546875 -0.703125q0.28125 -0.359375 0.4375 -0.703125q0.171875 -0.34375 0.171875 -0.625q0 -0.28125 -0.140625 -0.484375q-0.125 -0.21875 -0.375 -0.34375q-0.234375 -0.125 -0.59375 -0.125q-0.328125 0 -0.625 0.171875q-0.296875 0.15625 -0.5625 0.5q-0.265625 0.34375 -0.5 0.84375l-1.78125 -0.96875q0.296875 -0.828125 0.84375 -1.453125q0.546875 -0.640625 1.28125 -0.984375q0.734375 -0.359375 1.578125 -0.359375q0.890625 0.015625 1.59375 0.390625q0.71875 0.359375 1.125 1.015625q0.421875 0.640625 0.421875 1.5q0 0.296875 -0.078125 0.625q-0.0625 0.328125 -0.203125 0.6875q-0.140625 0.34375 -0.375 0.734375q-0.234375 0.390625 -0.5625 0.8125q-0.328125 0.421875 -0.765625 0.90625l-2.265625 2.46875l-0.28125 -1.09375l4.96875 0l0 2.140625l-6.8125 0z" fill-rule="nonzero"/></g></svg>