<svg version="1.1" viewBox="0.0 0.0 667.007874015748 161.28083989501312" fill="none" stroke="none" stroke-linecap="square" stroke-miterlimit="10" xmlns:xlink="http://www.w3.org/1999/xlink" xmlns="http://www.w3.org/2000/svg"><clipPath id="p.0"><path d="m0 0l667.0079 0l0 161.28084l-667.0079 0l0 -161.28084z" clip-rule="nonzero"/></clipPath><g clip-path="url(#p.0)"><path fill="#000000" fill-opacity="0.0" d="m0 0l667.0079 0l0 161.28084l-667.0079 0z" fill-rule="evenodd"/><path fill="#4285f4" d="m0 10.225926l0 0c0 -5.647623 4.5783033 -10.225926 10.225926 -10.225926l228.7135 0c2.7120972 0 5.313095 1.0773712 7.2308197 2.9951046c1.9177399 1.917733 2.9951172 4.518738 2.9951172 7.2308216l0 40.902477c0 5.647625 -4.578308 10.225929 -10.225937 10.225929l-228.7135 0c-5.647623 0 -10.225926 -4.5783043 -10.225926 -10.225929z" fill-rule="evenodd"/><path fill="#ffffff" d="m95.16057 26.784664q-1.28125 0 -2.328125 -0.296875q-1.03125 -0.3125 -1.84375 -0.90625q-0.796875 -0.59375 -1.421875 -1.390625l1.921875 -2.1875q0.9375 1.25 1.875 1.6875q0.9375 0.421875 1.953125 0.421875q0.5 0 0.90625 -0.125q0.40625 -0.140625 0.625 -0.390625q0.234375 -0.25 0.234375 -0.625q0 -0.28125 -0.140625 -0.5q-0.140625 -0.21875 -0.390625 -0.390625q-0.234375 -0.171875 -0.578125 -0.3125q-0.328125 -0.140625 -0.703125 -0.234375q-0.375 -0.109375 -0.765625 -0.1875q-1.078125 -0.234375 -1.890625 -0.578125q-0.796875 -0.359375 -1.328125 -0.875q-0.53125 -0.515625 -0.796875 -1.171875q-0.25 -0.671875 -0.25 -1.484375q0 -0.890625 0.390625 -1.625q0.40625 -0.734375 1.078125 -1.265625q0.6875 -0.53125 1.578125 -0.8125q0.90625 -0.296875 1.875 -0.296875q1.28125 0 2.203125 0.28125q0.9375 0.265625 1.59375 0.765625q0.65625 0.5 1.125 1.21875l-1.953125 1.875q-0.390625 -0.484375 -0.859375 -0.796875q-0.453125 -0.3125 -0.96875 -0.484375q-0.5 -0.171875 -1.046875 -0.171875q-0.5625 0 -0.96875 0.140625q-0.390625 0.140625 -0.625 0.390625q-0.21875 0.25 -0.21875 0.609375q0 0.3125 0.1875 0.546875q0.1875 0.21875 0.5 0.40625q0.328125 0.171875 0.734375 0.296875q0.40625 0.109375 0.859375 0.1875q1.03125 0.203125 1.859375 0.546875q0.828125 0.328125 1.421875 0.8125q0.609375 0.484375 0.9375 1.15625q0.328125 0.65625 0.328125 1.53125q0 1.359375 -0.671875 2.3125q-0.65625 0.9375 -1.796875 1.4375q-1.140625 0.484375 -2.640625 0.484375zm10.843689 -0.015625q-1.25 0 -2.234375 -0.65625q-0.984375 -0.671875 -1.5625 -1.828125q-0.578125 -1.171875 -0.578125 -2.65625q0 -1.5 0.578125 -2.65625q0.578125 -1.15625 1.578125 -1.8125q1.015625 -0.671875 2.3125 -0.671875q0.703125 0 1.28125 0.203125q0.59375 0.203125 1.046875 0.578125q0.453125 0.359375 0.765625 0.84375q0.3125 0.46875 0.46875 1.0l-0.625 -0.078125l0 -2.34375l2.96875 0l0 9.90625l-3.015625 0l0 -2.390625l0.671875 -0.015625q-0.15625 0.515625 -0.5 0.984375q-0.328125 0.46875 -0.8125 0.828125q-0.484375 0.34375 -1.078125 0.5625q-0.59375 0.203125 -1.265625 0.203125zm0.8125 -2.515625q0.703125 0 1.203125 -0.3125q0.5 -0.328125 0.78125 -0.90625q0.28125 -0.59375 0.28125 -1.40625q0 -0.796875 -0.28125 -1.375q-0.28125 -0.59375 -0.78125 -0.921875q-0.5 -0.328125 -1.203125 -0.328125q-0.671875 0 -1.171875 0.328125q-0.484375 0.328125 -0.765625 0.921875q-0.28125 0.578125 -0.28125 1.375q0 0.8125 0.28125 1.40625q0.28125 0.578125 0.765625 0.90625q0.5 0.3125 1.171875 0.3125zm7.810089 2.34375l0 -9.90625l2.828125 0l0.09375 1.796875l-0.390625 0.015625q0.21875 -0.484375 0.5625 -0.859375q0.34375 -0.375 0.78125 -0.625q0.453125 -0.25 0.921875 -0.375q0.46875 -0.140625 0.96875 -0.140625q0.71875 0 1.3125 0.234375q0.609375 0.21875 1.046875 0.71875q0.453125 0.484375 0.71875 1.328125l-0.46875 -0.046875l0.140625 -0.296875q0.25 -0.4375 0.625 -0.796875q0.390625 -0.375 0.84375 -0.625q0.46875 -0.25 0.96875 -0.375q0.515625 -0.140625 0.984375 -0.140625q1.171875 0 1.953125 0.46875q0.78125 0.453125 1.1875 1.375q0.40625 0.90625 0.40625 2.203125l0 6.046875l-3.015625 0l0 -5.796875q0 -0.609375 -0.171875 -1.0q-0.15625 -0.390625 -0.484375 -0.578125q-0.328125 -0.203125 -0.8125 -0.203125q-0.390625 0 -0.71875 0.140625q-0.328125 0.125 -0.5625 0.359375q-0.234375 0.21875 -0.359375 0.515625q-0.125 0.296875 -0.125 0.671875l0 5.890625l-3.015625 0l0 -5.828125q0 -0.546875 -0.171875 -0.9375q-0.15625 -0.390625 -0.5 -0.59375q-0.328125 -0.21875 -0.78125 -0.21875q-0.390625 0 -0.71875 0.140625q-0.328125 0.125 -0.5625 0.359375q-0.21875 0.21875 -0.359375 0.515625q-0.125 0.296875 -0.125 0.65625l0 5.90625l-3.0 0zm17.962936 4.109375l0 -14.015625l2.828125 0l0.109375 2.21875l-0.546875 -0.171875q0.125 -0.609375 0.625 -1.109375q0.5 -0.515625 1.28125 -0.8125q0.78125 -0.3125 1.625 -0.3125q1.28125 0 2.265625 0.671875q0.984375 0.65625 1.546875 1.8125q0.578125 1.140625 0.578125 2.640625q0 1.5 -0.578125 2.65625q-0.5625 1.15625 -1.5625 1.828125q-1.0 0.65625 -2.28125 0.65625q-0.84375 0 -1.609375 -0.3125q-0.765625 -0.328125 -1.28125 -0.859375q-0.515625 -0.546875 -0.6875 -1.1875l0.6875 -0.25l0 6.546875l-3.0 0zm5.171875 -6.453125q0.65625 0 1.15625 -0.328125q0.515625 -0.328125 0.796875 -0.90625q0.28125 -0.578125 0.28125 -1.390625q0 -0.78125 -0.28125 -1.359375q-0.28125 -0.59375 -0.78125 -0.921875q-0.484375 -0.328125 -1.171875 -0.328125q-0.703125 0 -1.203125 0.328125q-0.5 0.3125 -0.78125 0.90625q-0.28125 0.59375 -0.28125 1.375q0 0.8125 0.28125 1.390625q0.28125 0.578125 0.78125 0.90625q0.5 0.328125 1.203125 0.328125zm7.138214 2.34375l0 -13.8125l2.984375 0l0 13.8125l-2.984375 0zm10.187973 0.1875q-1.640625 0 -2.859375 -0.65625q-1.203125 -0.671875 -1.875 -1.8125q-0.671875 -1.15625 -0.671875 -2.625q0 -1.140625 0.359375 -2.09375q0.375 -0.953125 1.046875 -1.640625q0.671875 -0.703125 1.59375 -1.078125q0.9375 -0.390625 2.03125 -0.390625q1.046875 0 1.90625 0.375q0.875 0.375 1.5 1.046875q0.640625 0.671875 0.96875 1.59375q0.34375 0.90625 0.3125 1.984375l-0.03125 0.796875l-7.890625 0l-0.421875 -1.671875l5.890625 0l-0.3125 0.34375l0 -0.359375q-0.03125 -0.46875 -0.296875 -0.828125q-0.25 -0.375 -0.65625 -0.578125q-0.40625 -0.203125 -0.9375 -0.203125q-0.71875 0 -1.234375 0.296875q-0.515625 0.28125 -0.78125 0.828125q-0.25 0.546875 -0.25 1.359375q0 0.8125 0.34375 1.421875q0.34375 0.609375 1.0 0.953125q0.671875 0.328125 1.578125 0.328125q0.640625 0 1.125 -0.1875q0.5 -0.1875 1.078125 -0.640625l1.40625 1.984375q-0.578125 0.5 -1.234375 0.828125q-0.65625 0.3125 -1.34375 0.46875q-0.671875 0.15625 -1.34375 0.15625z" fill-rule="nonzero"/><path fill="#ffffff" d="m72.82298 52.065914q-2.265625 -1.421875 -3.46875 -3.546875q-1.1875 -2.125 -1.1875 -4.734375q0 -2.59375 1.203125 -4.71875q1.203125 -2.140625 3.46875 -3.5625l1.03125 1.15625q-1.90625 1.328125 -2.90625 3.171875q-0.984375 1.828125 -0.984375 3.953125q0 2.125 0.984375 3.96875q1.0 1.828125 2.90625 3.15625l-1.046875 1.15625z" fill-rule="nonzero"/><path fill="#ffffff" d="m84.02617 48.597164l-2.796875 -5.859375l-3.65625 -7.203125l2.546875 0l2.71875 5.78125l3.734375 7.28125l-2.546875 0zm-9.328125 0l6.484375 -7.109375l0.9375 1.46875l-5.0625 5.640625l-2.359375 0zm8.171875 -6.0625l-0.90625 -1.421875l4.84375 -5.578125l2.359375 0l-6.296875 7.0z" fill-rule="nonzero"/><path fill="#ffffff" d="m89.727585 54.98779l0 -7.0625l0.453125 0.34375l-1.71875 0.90625l-0.359375 -1.171875l2.328125 -1.234375l0.640625 0l0 8.21875l-1.34375 0zm-1.390625 0.609375l0 -1.296875l4.15625 0l0 1.296875l-4.15625 0z" fill-rule="nonzero"/><path fill="#ffffff" d="m94.88388 51.940914l-0.703125 -0.859375q0.640625 -0.375 1.046875 -0.859375q0.421875 -0.484375 0.421875 -0.84375q0 -0.1875 -0.09375 -0.359375q-0.09375 -0.171875 -0.390625 -0.5q-0.375 -0.34375 -0.484375 -0.59375q-0.109375 -0.25 -0.109375 -0.515625q0 -0.453125 0.3125 -0.71875q0.3125 -0.28125 0.828125 -0.28125q0.453125 0 0.828125 0.28125q0.390625 0.265625 0.609375 0.75q0.21875 0.46875 0.21875 1.078125q0 0.5625 -0.1875 1.078125q-0.1875 0.53125 -0.53125 0.96875q-0.328125 0.453125 -0.78125 0.8125q-0.4375 0.359375 -0.984375 0.5625z" fill-rule="nonzero"/><path fill="#ffffff" d="m113.22948 48.597164l-2.796875 -5.859375l-3.65625 -7.203125l2.546875 0l2.71875 5.78125l3.734375 7.28125l-2.546875 0zm-9.328125 0l6.484375 -7.109375l0.9375 1.46875l-5.0625 5.640625l-2.359375 0zm8.171875 -6.0625l-0.90625 -1.421875l4.84375 -5.578125l2.359375 0l-6.296875 7.0z" fill-rule="nonzero"/><path fill="#ffffff" d="m117.38402 55.597164l-0.40625 -1.015625l2.65625 -3.0q0.21875 -0.21875 0.4375 -0.515625q0.234375 -0.296875 0.4375 -0.609375q0.21875 -0.3125 0.34375 -0.609375q0.140625 -0.3125 0.140625 -0.578125q0 -0.40625 -0.15625 -0.671875q-0.15625 -0.28125 -0.453125 -0.4375q-0.28125 -0.15625 -0.703125 -0.15625q-0.359375 0 -0.703125 0.21875q-0.34375 0.21875 -0.640625 0.609375q-0.28125 0.375 -0.4375 0.875l-1.03125 -0.640625q0.203125 -0.71875 0.625 -1.234375q0.4375 -0.515625 1.03125 -0.78125q0.609375 -0.28125 1.328125 -0.28125q0.734375 0 1.296875 0.3125q0.578125 0.296875 0.890625 0.84375q0.328125 0.53125 0.328125 1.234375q0 0.296875 -0.0625 0.59375q-0.0625 0.296875 -0.203125 0.625q-0.125 0.3125 -0.34375 0.65625q-0.203125 0.328125 -0.5 0.703125q-0.296875 0.375 -0.671875 0.78125l-1.96875 2.15625l-0.25 -0.375l4.28125 0l0 1.296875l-5.265625 0z" fill-rule="nonzero"/><path fill="#ffffff" d="m124.68419 51.940914l-0.703125 -0.859375q0.640625 -0.375 1.046875 -0.859375q0.421875 -0.484375 0.421875 -0.84375q0 -0.1875 -0.09375 -0.359375q-0.09375 -0.171875 -0.390625 -0.5q-0.375 -0.34375 -0.484375 -0.59375q-0.109375 -0.25 -0.109375 -0.515625q0 -0.453125 0.3125 -0.71875q0.3125 -0.28125 0.828125 -0.28125q0.453125 0 0.828125 0.28125q0.390625 0.265625 0.609375 0.75q0.21875 0.46875 0.21875 1.078125q0 0.5625 -0.1875 1.078125q-0.1875 0.53125 -0.53125 0.96875q-0.328125 0.453125 -0.78125 0.8125q-0.4375 0.359375 -0.984375 0.5625zm10.689346 -3.140625q-0.609375 0 -0.953125 -0.359375q-0.328125 -0.359375 -0.328125 -1.03125q0 -0.625 0.34375 -1.015625q0.359375 -0.390625 0.9375 -0.390625q0.625 0 0.953125 0.375q0.34375 0.359375 0.34375 1.03125q0 0.609375 -0.359375 1.0q-0.359375 0.390625 -0.9375 0.390625zm3.5 0q-0.609375 0 -0.953125 -0.359375q-0.328125 -0.359375 -0.328125 -1.03125q0 -0.625 0.34375 -1.015625q0.359375 -0.390625 0.9375 -0.390625q0.625 0 0.953125 0.375q0.34375 0.359375 0.34375 1.03125q0 0.609375 -0.359375 1.0q-0.359375 0.390625 -0.9375 0.390625zm3.53125 0q-0.609375 0 -0.953125 -0.359375q-0.328125 -0.359375 -0.328125 -1.03125q0 -0.625 0.34375 -1.015625q0.359375 -0.390625 0.9375 -0.390625q0.625 0 0.953125 0.375q0.34375 0.359375 0.34375 1.03125q0 0.609375 -0.359375 1.0q-0.359375 0.390625 -0.9375 0.390625zm3.771408 3.140625l-0.703125 -0.859375q0.640625 -0.375 1.046875 -0.859375q0.421875 -0.484375 0.421875 -0.84375q0 -0.1875 -0.09375 -0.359375q-0.09375 -0.171875 -0.390625 -0.5q-0.375 -0.34375 -0.484375 -0.59375q-0.109375 -0.25 -0.109375 -0.515625q0 -0.453125 0.3125 -0.71875q0.3125 -0.28125 0.828125 -0.28125q0.453125 0 0.828125 0.28125q0.390625 0.265625 0.609375 0.75q0.21875 0.46875 0.21875 1.078125q0 0.5625 -0.1875 1.078125q-0.1875 0.53125 -0.53125 0.96875q-0.328125 0.453125 -0.78125 0.8125q-0.4375 0.359375 -0.984375 0.5625z" fill-rule="nonzero"/><path fill="#ffffff" d="m164.52179 48.597164l-2.796875 -5.859375l-3.65625 -7.203125l2.546875 0l2.71875 5.78125l3.734375 7.28125l-2.546875 0zm-9.328125 0l6.484375 -7.109375l0.9375 1.46875l-5.0625 5.640625l-2.359375 0zm8.171875 -6.0625l-0.90625 -1.421875l4.84375 -5.578125l2.359375 0l-6.296875 7.0z" fill-rule="nonzero"/><path fill="#ffffff" d="m168.4107 55.597164l1.390625 -6.53125l1.28125 0l-0.28125 1.34375l-0.265625 0.15625q0.21875 -0.4375 0.65625 -0.796875q0.4375 -0.375 0.984375 -0.609375q0.5625 -0.234375 1.078125 -0.234375q0.75 0 1.1875 0.296875q0.4375 0.296875 0.546875 0.890625q0.125 0.59375 -0.078125 1.5l-0.84375 3.984375l-1.265625 0l0.828125 -3.890625q0.125 -0.5625 0.046875 -0.921875q-0.078125 -0.375 -0.359375 -0.53125q-0.265625 -0.171875 -0.734375 -0.15625q-0.375 0 -0.71875 0.125q-0.328125 0.109375 -0.609375 0.328125q-0.265625 0.203125 -0.46875 0.484375q-0.1875 0.28125 -0.25 0.609375l-0.84375 3.953125l-0.625 0q-0.171875 0 -0.328125 0q-0.15625 0 -0.328125 0z" fill-rule="nonzero"/><path fill="#ffffff" d="m176.32669 52.065914l-1.03125 -1.15625q1.90625 -1.328125 2.890625 -3.15625q1.0 -1.84375 1.0 -3.96875q0 -2.125 -1.0 -3.953125q-0.984375 -1.84375 -2.890625 -3.171875l1.046875 -1.15625q2.265625 1.421875 3.453125 3.546875q1.203125 2.125 1.203125 4.734375q0 2.59375 -1.203125 4.734375q-1.203125 2.125 -3.46875 3.546875z" fill-rule="nonzero"/><path fill="#4285f4" d="m0 108.53826l0 0c0 -5.647621 4.5783033 -10.225929 10.225926 -10.225929l228.7135 0c2.7120972 0 5.313095 1.0773773 7.2308197 2.9951096c1.9177399 1.9177322 2.9951172 4.518738 2.9951172 7.2308197l0 40.902473c0 5.647629 -4.578308 10.225937 -10.225937 10.225937l-228.7135 0c-5.647623 0 -10.225926 -4.578308 -10.225926 -10.225937z" fill-rule="evenodd"/><path fill="#ffffff" d="m22.003906 124.30138q-1.375 0 -2.53125 -0.46875q-1.140625 -0.46875 -1.984375 -1.3125q-0.84375 -0.84375 -1.3125 -1.984375q-0.46875 -1.15625 -0.46875 -2.515625q0 -1.375 0.46875 -2.515625q0.46875 -1.140625 1.3125 -1.984375q0.84375 -0.859375 1.984375 -1.328125q1.15625 -0.46875 2.515625 -0.46875q1.375 0 2.515625 0.46875q1.140625 0.46875 1.984375 1.328125q0.859375 0.84375 1.3125 1.984375q0.46875 1.140625 0.46875 2.515625q0 1.34375 -0.46875 2.5q-0.453125 1.15625 -1.3125 2.0q-0.84375 0.84375 -1.984375 1.3125q-1.140625 0.46875 -2.5 0.46875zm-0.015625 -2.765625q0.71875 0 1.3125 -0.265625q0.59375 -0.265625 1.03125 -0.734375q0.453125 -0.484375 0.6875 -1.125q0.25 -0.640625 0.25 -1.390625q0 -0.765625 -0.25 -1.40625q-0.234375 -0.640625 -0.6875 -1.109375q-0.4375 -0.484375 -1.03125 -0.75q-0.59375 -0.265625 -1.3125 -0.265625q-0.703125 0 -1.3125 0.265625q-0.59375 0.265625 -1.046875 0.75q-0.4375 0.46875 -0.671875 1.109375q-0.234375 0.640625 -0.234375 1.40625q0 0.75 0.234375 1.40625q0.234375 0.640625 0.671875 1.109375q0.453125 0.46875 1.046875 0.734375q0.609375 0.265625 1.3125 0.265625zm13.804733 2.78125q-0.625 0 -1.203125 -0.171875q-0.578125 -0.171875 -1.03125 -0.46875q-0.453125 -0.296875 -0.765625 -0.6875q-0.296875 -0.390625 -0.40625 -0.796875l0.609375 -0.21875l-0.15625 2.140625l-2.578125 0l0 -12.8125l2.78125 0l0 5.828125l-0.5625 -0.203125q0.09375 -0.453125 0.390625 -0.84375q0.296875 -0.390625 0.75 -0.6875q0.453125 -0.3125 0.984375 -0.484375q0.53125 -0.171875 1.109375 -0.171875q1.203125 0 2.125 0.625q0.921875 0.609375 1.453125 1.6875q0.546875 1.078125 0.546875 2.46875q0 1.40625 -0.53125 2.484375q-0.53125 1.078125 -1.453125 1.703125q-0.90625 0.609375 -2.0625 0.609375zm-0.734375 -2.34375q0.625 0 1.09375 -0.296875q0.46875 -0.3125 0.71875 -0.859375q0.25 -0.546875 0.25 -1.296875q0 -0.734375 -0.25 -1.28125q-0.25 -0.5625 -0.71875 -0.84375q-0.46875 -0.296875 -1.09375 -0.296875q-0.640625 0 -1.109375 0.296875q-0.46875 0.28125 -0.734375 0.84375q-0.25 0.546875 -0.25 1.28125q0 0.75 0.25 1.296875q0.265625 0.546875 0.734375 0.859375q0.46875 0.296875 1.109375 0.296875zm9.698715 2.328125q-1.34375 0 -2.375 -0.421875q-1.03125 -0.4375 -1.640625 -1.171875l1.6875 -1.453125q0.53125 0.53125 1.203125 0.78125q0.671875 0.25 1.28125 0.25q0.25 0 0.4375 -0.046875q0.1875 -0.046875 0.3125 -0.140625q0.140625 -0.09375 0.203125 -0.21875q0.078125 -0.140625 0.078125 -0.3125q0 -0.34375 -0.3125 -0.546875q-0.15625 -0.078125 -0.53125 -0.203125q-0.359375 -0.125 -0.921875 -0.28125q-0.828125 -0.203125 -1.421875 -0.484375q-0.59375 -0.28125 -0.96875 -0.671875q-0.359375 -0.359375 -0.546875 -0.796875q-0.1875 -0.453125 -0.1875 -1.0q0 -0.640625 0.296875 -1.15625q0.3125 -0.53125 0.8125 -0.90625q0.515625 -0.390625 1.1875 -0.578125q0.671875 -0.203125 1.375 -0.203125q0.765625 0 1.453125 0.171875q0.703125 0.171875 1.296875 0.484375q0.59375 0.3125 1.0625 0.75l-1.453125 1.625q-0.3125 -0.296875 -0.703125 -0.53125q-0.390625 -0.234375 -0.8125 -0.375q-0.40625 -0.140625 -0.75 -0.140625q-0.265625 0 -0.46875 0.046875q-0.203125 0.046875 -0.34375 0.140625q-0.125 0.09375 -0.203125 0.234375q-0.0625 0.125 -0.0625 0.296875q0 0.171875 0.09375 0.328125q0.09375 0.15625 0.265625 0.265625q0.171875 0.09375 0.546875 0.234375q0.390625 0.125 1.046875 0.3125q0.8125 0.234375 1.40625 0.515625q0.59375 0.265625 0.9375 0.640625q0.28125 0.296875 0.40625 0.6875q0.140625 0.390625 0.140625 0.84375q0 0.890625 -0.5 1.578125q-0.484375 0.671875 -1.359375 1.0625q-0.859375 0.390625 -1.96875 0.390625zm9.858627 0q-1.515625 0 -2.640625 -0.609375q-1.125 -0.625 -1.75 -1.6875q-0.625 -1.0625 -0.625 -2.4375q0 -1.046875 0.34375 -1.921875q0.34375 -0.890625 0.96875 -1.546875q0.625 -0.65625 1.484375 -1.0q0.859375 -0.359375 1.875 -0.359375q0.96875 0 1.765625 0.34375q0.8125 0.34375 1.40625 0.96875q0.59375 0.625 0.90625 1.484375q0.3125 0.84375 0.265625 1.84375l-0.015625 0.75l-7.328125 0l-0.390625 -1.5625l5.46875 0l-0.296875 0.328125l0 -0.34375q-0.03125 -0.4375 -0.265625 -0.765625q-0.234375 -0.34375 -0.625 -0.53125q-0.375 -0.1875 -0.859375 -0.1875q-0.671875 0 -1.15625 0.265625q-0.46875 0.265625 -0.71875 0.78125q-0.234375 0.5 -0.234375 1.25q0 0.765625 0.3125 1.328125q0.328125 0.5625 0.9375 0.875q0.625 0.3125 1.46875 0.3125q0.59375 0 1.046875 -0.171875q0.46875 -0.171875 1.0 -0.59375l1.296875 1.84375q-0.53125 0.46875 -1.140625 0.765625q-0.609375 0.28125 -1.25 0.421875q-0.625 0.15625 -1.25 0.15625zm5.7792206 -0.171875l0 -9.203125l2.625 0l0.125 3.0l-0.515625 -0.578125q0.203125 -0.734375 0.671875 -1.328125q0.484375 -0.59375 1.125 -0.9375q0.640625 -0.34375 1.375 -0.34375q0.3125 0 0.578125 0.0625q0.265625 0.046875 0.5 0.109375l-0.765625 3.0625q-0.1875 -0.109375 -0.515625 -0.1875q-0.328125 -0.078125 -0.671875 -0.078125q-0.375 0 -0.703125 0.125q-0.328125 0.125 -0.5625 0.375q-0.21875 0.234375 -0.359375 0.5625q-0.125 0.328125 -0.125 0.75l0 4.609375l-2.78125 0zm11.579041 0l-3.859375 -9.203125l3.078125 0l2.28125 6.875l-0.671875 0.078125l2.359375 -6.953125l3.03125 0l-4.046875 9.203125l-2.171875 0zm11.77034 0.171875q-1.515625 0 -2.640625 -0.609375q-1.125 -0.625 -1.75 -1.6875q-0.625 -1.0625 -0.625 -2.4375q0 -1.046875 0.34375 -1.921875q0.34375 -0.890625 0.96875 -1.546875q0.625 -0.65625 1.484375 -1.0q0.859375 -0.359375 1.875 -0.359375q0.96875 0 1.765625 0.34375q0.8125 0.34375 1.40625 0.96875q0.59375 0.625 0.90625 1.484375q0.3125 0.84375 0.265625 1.84375l-0.015625 0.75l-7.328125 0l-0.390625 -1.5625l5.46875 0l-0.296875 0.328125l0 -0.34375q-0.03125 -0.4375 -0.265625 -0.765625q-0.234375 -0.34375 -0.625 -0.53125q-0.375 -0.1875 -0.859375 -0.1875q-0.671875 0 -1.15625 0.265625q-0.46875 0.265625 -0.71875 0.78125q-0.234375 0.5 -0.234375 1.25q0 0.765625 0.3125 1.328125q0.328125 0.5625 0.9375 0.875q0.625 0.3125 1.46875 0.3125q0.59375 0 1.046875 -0.171875q0.46875 -0.171875 1.0 -0.59375l1.296875 1.84375q-0.53125 0.46875 -1.140625 0.765625q-0.609375 0.28125 -1.25 0.421875q-0.625 0.15625 -1.25 0.15625zm9.263596 0.015625q-1.203125 0 -2.140625 -0.609375q-0.921875 -0.625 -1.453125 -1.703125q-0.53125 -1.078125 -0.53125 -2.46875q0 -1.390625 0.53125 -2.46875q0.53125 -1.078125 1.46875 -1.703125q0.9375 -0.625 2.15625 -0.625q0.625 0 1.1875 0.1875q0.578125 0.1875 1.046875 0.515625q0.46875 0.328125 0.765625 0.765625q0.296875 0.421875 0.34375 0.875l-0.65625 0.15625l0 -5.9375l2.78125 0l0 12.828125l-2.578125 0l-0.15625 -2.09375l0.5625 0.078125q-0.0625 0.4375 -0.34375 0.84375q-0.28125 0.390625 -0.734375 0.703125q-0.453125 0.296875 -1.03125 0.46875q-0.578125 0.1875 -1.21875 0.1875zm0.703125 -2.296875q0.640625 0 1.109375 -0.3125q0.46875 -0.3125 0.71875 -0.859375q0.25 -0.5625 0.25 -1.3125q0 -0.765625 -0.25 -1.3125q-0.25 -0.5625 -0.71875 -0.875q-0.46875 -0.3125 -1.109375 -0.3125q-0.640625 0 -1.109375 0.3125q-0.453125 0.3125 -0.71875 0.875q-0.25 0.546875 -0.25 1.3125q0 0.75 0.25 1.3125q0.265625 0.546875 0.71875 0.859375q0.46875 0.3125 1.109375 0.3125zm17.002502 2.28125q-1.203125 0 -2.171875 -0.28125q-0.953125 -0.296875 -1.703125 -0.828125q-0.734375 -0.546875 -1.328125 -1.296875l1.78125 -2.03125q0.875 1.15625 1.75 1.5625q0.875 0.40625 1.8125 0.40625q0.46875 0 0.84375 -0.125q0.375 -0.125 0.578125 -0.359375q0.21875 -0.234375 0.21875 -0.578125q0 -0.265625 -0.140625 -0.46875q-0.125 -0.203125 -0.34375 -0.359375q-0.21875 -0.15625 -0.53125 -0.28125q-0.3125 -0.140625 -0.671875 -0.234375q-0.34375 -0.09375 -0.703125 -0.171875q-1.0 -0.21875 -1.75 -0.546875q-0.75 -0.328125 -1.25 -0.796875q-0.484375 -0.484375 -0.734375 -1.09375q-0.234375 -0.625 -0.234375 -1.390625q0 -0.8125 0.375 -1.484375q0.375 -0.6875 1.0 -1.1875q0.640625 -0.5 1.46875 -0.765625q0.828125 -0.265625 1.734375 -0.265625q1.1875 0 2.046875 0.25q0.859375 0.25 1.46875 0.71875q0.625 0.46875 1.0625 1.125l-1.828125 1.75q-0.359375 -0.453125 -0.78125 -0.734375q-0.421875 -0.296875 -0.90625 -0.453125q-0.46875 -0.15625 -0.984375 -0.15625q-0.515625 0 -0.890625 0.125q-0.375 0.125 -0.578125 0.359375q-0.203125 0.234375 -0.203125 0.5625q0 0.296875 0.171875 0.515625q0.171875 0.203125 0.46875 0.375q0.296875 0.15625 0.671875 0.265625q0.390625 0.109375 0.796875 0.1875q0.953125 0.1875 1.71875 0.5q0.78125 0.3125 1.34375 0.765625q0.5625 0.4375 0.859375 1.0625q0.3125 0.609375 0.3125 1.421875q0 1.265625 -0.625 2.140625q-0.609375 0.875 -1.671875 1.34375q-1.0625 0.453125 -2.453125 0.453125zm10.064087 -0.015625q-1.15625 0 -2.078125 -0.609375q-0.90625 -0.625 -1.4375 -1.703125q-0.53125 -1.078125 -0.53125 -2.453125q0 -1.40625 0.53125 -2.46875q0.53125 -1.078125 1.46875 -1.6875q0.9375 -0.625 2.140625 -0.625q0.65625 0 1.203125 0.1875q0.546875 0.1875 0.953125 0.53125q0.421875 0.34375 0.71875 0.78125q0.296875 0.4375 0.421875 0.9375l-0.5625 -0.0625l0 -2.1875l2.75 0l0 9.203125l-2.796875 0l0 -2.21875l0.609375 -0.015625q-0.125 0.484375 -0.4375 0.921875q-0.3125 0.421875 -0.765625 0.765625q-0.453125 0.328125 -1.015625 0.515625q-0.546875 0.1875 -1.171875 0.1875zm0.765625 -2.34375q0.640625 0 1.109375 -0.28125q0.46875 -0.296875 0.71875 -0.84375q0.265625 -0.546875 0.265625 -1.296875q0 -0.75 -0.265625 -1.296875q-0.25 -0.546875 -0.71875 -0.84375q-0.46875 -0.296875 -1.109375 -0.296875q-0.625 0 -1.09375 0.296875q-0.453125 0.296875 -0.71875 0.84375q-0.25 0.546875 -0.25 1.296875q0 0.75 0.25 1.296875q0.265625 0.546875 0.71875 0.84375q0.46875 0.28125 1.09375 0.28125zm7.247299 2.1875l0 -9.203125l2.625 0l0.09375 1.671875l-0.375 0.015625q0.21875 -0.453125 0.53125 -0.796875q0.328125 -0.34375 0.734375 -0.578125q0.40625 -0.234375 0.84375 -0.359375q0.4375 -0.125 0.890625 -0.125q0.6875 0 1.234375 0.21875q0.5625 0.203125 0.96875 0.65625q0.421875 0.453125 0.65625 1.234375l-0.421875 -0.03125l0.125 -0.28125q0.234375 -0.40625 0.578125 -0.734375q0.359375 -0.34375 0.796875 -0.578125q0.4375 -0.234375 0.90625 -0.359375q0.46875 -0.125 0.890625 -0.125q1.09375 0 1.8125 0.421875q0.734375 0.421875 1.109375 1.28125q0.375 0.84375 0.375 2.0625l0 5.609375l-2.78125 0l0 -5.390625q0 -0.546875 -0.15625 -0.90625q-0.15625 -0.375 -0.46875 -0.546875q-0.296875 -0.1875 -0.75 -0.1875q-0.359375 0 -0.671875 0.125q-0.296875 0.109375 -0.515625 0.328125q-0.21875 0.203125 -0.34375 0.484375q-0.109375 0.265625 -0.109375 0.625l0 5.46875l-2.796875 0l0 -5.40625q0 -0.515625 -0.15625 -0.875q-0.15625 -0.375 -0.46875 -0.5625q-0.3125 -0.1875 -0.71875 -0.1875q-0.375 0 -0.6875 0.125q-0.296875 0.109375 -0.515625 0.328125q-0.203125 0.203125 -0.328125 0.484375q-0.125 0.265625 -0.125 0.59375l0 5.5l-2.78125 0zm16.68518 3.8125l0 -13.015625l2.625 0l0.109375 2.0625l-0.515625 -0.15625q0.109375 -0.5625 0.578125 -1.03125q0.46875 -0.46875 1.1875 -0.75q0.71875 -0.296875 1.515625 -0.296875q1.1875 0 2.09375 0.625q0.921875 0.609375 1.453125 1.671875q0.53125 1.0625 0.53125 2.46875q0 1.390625 -0.53125 2.46875q-0.53125 1.0625 -1.453125 1.6875q-0.921875 0.609375 -2.125 0.609375q-0.78125 0 -1.5 -0.296875q-0.703125 -0.296875 -1.1875 -0.796875q-0.484375 -0.5 -0.640625 -1.09375l0.640625 -0.234375l0 6.078125l-2.78125 0zm4.796875 -6.0q0.625 0 1.09375 -0.296875q0.46875 -0.3125 0.71875 -0.84375q0.265625 -0.53125 0.265625 -1.28125q0 -0.734375 -0.265625 -1.265625q-0.25 -0.546875 -0.71875 -0.84375q-0.453125 -0.3125 -1.09375 -0.3125q-0.640625 0 -1.109375 0.296875q-0.46875 0.28125 -0.734375 0.84375q-0.25 0.546875 -0.25 1.28125q0 0.75 0.25 1.28125q0.265625 0.53125 0.734375 0.84375q0.46875 0.296875 1.109375 0.296875zm6.637924 2.1875l0 -12.828125l2.765625 0l0 12.828125l-2.765625 0zm9.453751 0.171875q-1.515625 0 -2.640625 -0.609375q-1.125 -0.625 -1.75 -1.6875q-0.625 -1.0625 -0.625 -2.4375q0 -1.046875 0.34375 -1.921875q0.34375 -0.890625 0.96875 -1.546875q0.625 -0.65625 1.484375 -1.0q0.859375 -0.359375 1.875 -0.359375q0.96875 0 1.765625 0.34375q0.8125 0.34375 1.40625 0.96875q0.59375 0.625 0.90625 1.484375q0.3125 0.84375 0.265625 1.84375l-0.015625 0.75l-7.328125 0l-0.390625 -1.5625l5.46875 0l-0.296875 0.328125l0 -0.34375q-0.03125 -0.4375 -0.265625 -0.765625q-0.234375 -0.34375 -0.625 -0.53125q-0.375 -0.1875 -0.859375 -0.1875q-0.671875 0 -1.15625 0.265625q-0.46875 0.265625 -0.71875 0.78125q-0.234375 0.5 -0.234375 1.25q0 0.765625 0.3125 1.328125q0.328125 0.5625 0.9375 0.875q0.625 0.3125 1.46875 0.3125q0.59375 0 1.046875 -0.171875q0.46875 -0.171875 1.0 -0.59375l1.296875 1.84375q-0.53125 0.46875 -1.140625 0.765625q-0.609375 0.28125 -1.25 0.421875q-0.625 0.15625 -1.25 0.15625zm15.011688 -0.171875l-4.859375 -12.125l3.078125 0l2.328125 6.1875q0.21875 0.53125 0.359375 0.9375q0.15625 0.390625 0.265625 0.734375q0.109375 0.34375 0.203125 0.703125q0.09375 0.359375 0.21875 0.8125l-0.53125 0q0.125 -0.59375 0.265625 -1.046875q0.140625 -0.46875 0.3125 -0.953125q0.171875 -0.5 0.4375 -1.1875l2.25 -6.1875l3.015625 0l-4.890625 12.125l-2.453125 0zm11.000687 0.15625q-1.15625 0 -2.078125 -0.609375q-0.90625 -0.625 -1.4375 -1.703125q-0.53125 -1.078125 -0.53125 -2.453125q0 -1.40625 0.53125 -2.46875q0.53125 -1.078125 1.46875 -1.6875q0.9375 -0.625 2.140625 -0.625q0.65625 0 1.203125 0.1875q0.546875 0.1875 0.953125 0.53125q0.421875 0.34375 0.71875 0.78125q0.296875 0.4375 0.421875 0.9375l-0.5625 -0.0625l0 -2.1875l2.75 0l0 9.203125l-2.796875 0l0 -2.21875l0.609375 -0.015625q-0.125 0.484375 -0.4375 0.921875q-0.3125 0.421875 -0.765625 0.765625q-0.453125 0.328125 -1.015625 0.515625q-0.546875 0.1875 -1.171875 0.1875zm0.765625 -2.34375q0.640625 0 1.109375 -0.28125q0.46875 -0.296875 0.71875 -0.84375q0.265625 -0.546875 0.265625 -1.296875q0 -0.75 -0.265625 -1.296875q-0.25 -0.546875 -0.71875 -0.84375q-0.46875 -0.296875 -1.109375 -0.296875q-0.625 0 -1.09375 0.296875q-0.453125 0.296875 -0.71875 0.84375q-0.25 0.546875 -0.25 1.296875q0 0.75 0.25 1.296875q0.265625 0.546875 0.71875 0.84375q0.46875 0.28125 1.09375 0.28125zm7.278549 2.1875l0 -12.828125l2.765625 0l0 12.828125l-2.765625 0zm8.290421 0.1875q-1.015625 0 -1.734375 -0.4375q-0.71875 -0.4375 -1.109375 -1.265625q-0.390625 -0.84375 -0.390625 -2.0l0 -5.6875l2.796875 0l0 5.296875q0 0.5625 0.171875 0.96875q0.171875 0.390625 0.515625 0.609375q0.34375 0.21875 0.828125 0.21875q0.375 0 0.671875 -0.125q0.296875 -0.125 0.515625 -0.34375q0.21875 -0.21875 0.34375 -0.5q0.125 -0.28125 0.125 -0.625l0 -5.5l2.78125 0l0 9.203125l-2.609375 0l-0.125 -1.890625l0.515625 -0.203125q-0.203125 0.65625 -0.6875 1.171875q-0.484375 0.5 -1.171875 0.8125q-0.671875 0.296875 -1.4375 0.296875zm12.374588 -0.015625q-1.515625 0 -2.640625 -0.609375q-1.125 -0.625 -1.75 -1.6875q-0.625 -1.0625 -0.625 -2.4375q0 -1.046875 0.34375 -1.921875q0.34375 -0.890625 0.96875 -1.546875q0.625 -0.65625 1.484375 -1.0q0.859375 -0.359375 1.875 -0.359375q0.96875 0 1.765625 0.34375q0.8125 0.34375 1.40625 0.96875q0.59375 0.625 0.90625 1.484375q0.3125 0.84375 0.265625 1.84375l-0.015625 0.75l-7.328125 0l-0.390625 -1.5625l5.46875 0l-0.296875 0.328125l0 -0.34375q-0.03125 -0.4375 -0.265625 -0.765625q-0.234375 -0.34375 -0.625 -0.53125q-0.375 -0.1875 -0.859375 -0.1875q-0.671875 0 -1.15625 0.265625q-0.46875 0.265625 -0.71875 0.78125q-0.234375 0.5 -0.234375 1.25q0 0.765625 0.3125 1.328125q0.328125 0.5625 0.9375 0.875q0.625 0.3125 1.46875 0.3125q0.59375 0 1.046875 -0.171875q0.46875 -0.171875 1.0 -0.59375l1.296875 1.84375q-0.53125 0.46875 -1.140625 0.765625q-0.609375 0.28125 -1.25 0.421875q-0.625 0.15625 -1.25 0.15625zm8.872971 0q-1.34375 0 -2.375 -0.421875q-1.03125 -0.4375 -1.640625 -1.171875l1.6875 -1.453125q0.53125 0.53125 1.203125 0.78125q0.671875 0.25 1.28125 0.25q0.25 0 0.4375 -0.046875q0.1875 -0.046875 0.3125 -0.140625q0.140625 -0.09375 0.203125 -0.21875q0.078125 -0.140625 0.078125 -0.3125q0 -0.34375 -0.3125 -0.546875q-0.15625 -0.078125 -0.53125 -0.203125q-0.359375 -0.125 -0.921875 -0.28125q-0.828125 -0.203125 -1.421875 -0.484375q-0.59375 -0.28125 -0.96875 -0.671875q-0.359375 -0.359375 -0.546875 -0.796875q-0.1875 -0.453125 -0.1875 -1.0q0 -0.640625 0.296875 -1.15625q0.3125 -0.53125 0.8125 -0.90625q0.515625 -0.390625 1.1875 -0.578125q0.671875 -0.203125 1.375 -0.203125q0.765625 0 1.453125 0.171875q0.703125 0.171875 1.296875 0.484375q0.59375 0.3125 1.0625 0.75l-1.453125 1.625q-0.3125 -0.296875 -0.703125 -0.53125q-0.390625 -0.234375 -0.8125 -0.375q-0.40625 -0.140625 -0.75 -0.140625q-0.265625 0 -0.46875 0.046875q-0.203125 0.046875 -0.34375 0.140625q-0.125 0.09375 -0.203125 0.234375q-0.0625 0.125 -0.0625 0.296875q0 0.171875 0.09375 0.328125q0.09375 0.15625 0.265625 0.265625q0.171875 0.09375 0.546875 0.234375q0.390625 0.125 1.046875 0.3125q0.8125 0.234375 1.40625 0.515625q0.59375 0.265625 0.9375 0.640625q0.28125 0.296875 0.40625 0.6875q0.140625 0.390625 0.140625 0.84375q0 0.890625 -0.5 1.578125q-0.484375 0.671875 -1.359375 1.0625q-0.859375 0.390625 -1.96875 0.390625z" fill-rule="nonzero"/><path fill="#ffffff" d="m76.26507 149.87825q-2.265625 -1.421875 -3.46875 -3.546875q-1.1875 -2.125 -1.1875 -4.734375q0 -2.59375 1.203125 -4.71875q1.203125 -2.140625 3.46875 -3.5625l1.03125 1.15625q-1.90625 1.328125 -2.90625 3.171875q-0.984375 1.828125 -0.984375 3.953125q0 2.125 0.984375 3.96875q1.0 1.828125 2.90625 3.15625l-1.046875 1.15625z" fill-rule="nonzero"/><path fill="#ffffff" d="m85.54638 146.4095l-2.296875 -4.125l-0.203125 -0.359375l-3.0 -5.3125l2.421875 0l2.265625 4.0625l0.21875 0.421875l2.9375 5.3125l-2.34375 0zm-7.5625 0l4.921875 -5.03125l0.859375 1.359375l-3.5 3.671875l-2.28125 0zm6.953125 -4.734375l-0.765625 -1.34375l3.1875 -3.71875l2.28125 0l-4.703125 5.0625z" fill-rule="nonzero"/><path fill="#ffffff" d="m90.87495 152.80013l0 -7.0625l0.453125 0.34375l-1.71875 0.90625l-0.359375 -1.171875l2.328125 -1.234375l0.640625 0l0 8.21875l-1.34375 0zm-1.390625 0.609375l0 -1.296875l4.15625 0l0 1.296875l-4.15625 0z" fill-rule="nonzero"/><path fill="#ffffff" d="m96.03124 149.75325l-0.703125 -0.859375q0.640625 -0.375 1.046875 -0.859375q0.421875 -0.484375 0.421875 -0.84375q0 -0.1875 -0.09375 -0.359375q-0.09375 -0.171875 -0.390625 -0.5q-0.375 -0.34375 -0.484375 -0.59375q-0.109375 -0.25 -0.109375 -0.515625q0 -0.453125 0.3125 -0.71875q0.3125 -0.28125 0.828125 -0.28125q0.453125 0 0.828125 0.28125q0.390625 0.265625 0.609375 0.75q0.21875 0.46875 0.21875 1.078125q0 0.5625 -0.1875 1.078125q-0.1875 0.53125 -0.53125 0.96875q-0.328125 0.453125 -0.78125 0.8125q-0.4375 0.359375 -0.984375 0.5625z" fill-rule="nonzero"/><path fill="#ffffff" d="m112.45496 146.4095l-2.296875 -4.125l-0.203125 -0.359375l-3.0 -5.3125l2.421875 0l2.265625 4.0625l0.21875 0.421875l2.9375 5.3125l-2.34375 0zm-7.5625 0l4.921875 -5.03125l0.859375 1.359375l-3.5 3.671875l-2.28125 0zm6.953125 -4.734375l-0.765625 -1.34375l3.1875 -3.71875l2.28125 0l-4.703125 5.0625z" fill-rule="nonzero"/><path fill="#ffffff" d="m116.23666 153.4095l-0.40625 -1.015625l2.65625 -3.0q0.21875 -0.21875 0.4375 -0.515625q0.234375 -0.296875 0.4375 -0.609375q0.21875 -0.3125 0.34375 -0.609375q0.140625 -0.3125 0.140625 -0.578125q0 -0.40625 -0.15625 -0.671875q-0.15625 -0.28125 -0.453125 -0.4375q-0.28125 -0.15625 -0.703125 -0.15625q-0.359375 0 -0.703125 0.21875q-0.34375 0.21875 -0.640625 0.609375q-0.28125 0.375 -0.4375 0.875l-1.03125 -0.640625q0.203125 -0.71875 0.625 -1.234375q0.4375 -0.515625 1.03125 -0.78125q0.609375 -0.28125 1.328125 -0.28125q0.734375 0 1.296875 0.3125q0.578125 0.296875 0.890625 0.84375q0.328125 0.53125 0.328125 1.234375q0 0.296875 -0.0625 0.59375q-0.0625 0.296875 -0.203125 0.625q-0.125 0.3125 -0.34375 0.65625q-0.203125 0.328125 -0.5 0.703125q-0.296875 0.375 -0.671875 0.78125l-1.96875 2.15625l-0.25 -0.375l4.28125 0l0 1.296875l-5.265625 0z" fill-rule="nonzero"/><path fill="#ffffff" d="m123.53683 149.75325l-0.703125 -0.859375q0.640625 -0.375 1.046875 -0.859375q0.421875 -0.484375 0.421875 -0.84375q0 -0.1875 -0.09375 -0.359375q-0.09375 -0.171875 -0.390625 -0.5q-0.375 -0.34375 -0.484375 -0.59375q-0.109375 -0.25 -0.109375 -0.515625q0 -0.453125 0.3125 -0.71875q0.3125 -0.28125 0.828125 -0.28125q0.453125 0 0.828125 0.28125q0.390625 0.265625 0.609375 0.75q0.21875 0.46875 0.21875 1.078125q0 0.5625 -0.1875 1.078125q-0.1875 0.53125 -0.53125 0.96875q-0.328125 0.453125 -0.78125 0.8125q-0.4375 0.359375 -0.984375 0.5625zm10.689354 -3.140625q-0.609375 0 -0.953125 -0.359375q-0.328125 -0.359375 -0.328125 -1.03125q0 -0.625 0.34375 -1.015625q0.359375 -0.390625 0.9375 -0.390625q0.625 0 0.953125 0.375q0.34375 0.359375 0.34375 1.03125q0 0.609375 -0.359375 1.0q-0.359375 0.390625 -0.9375 0.390625zm3.5 0q-0.609375 0 -0.953125 -0.359375q-0.328125 -0.359375 -0.328125 -1.03125q0 -0.625 0.34375 -1.015625q0.359375 -0.390625 0.9375 -0.390625q0.625 0 0.953125 0.375q0.34375 0.359375 0.34375 1.03125q0 0.609375 -0.359375 1.0q-0.359375 0.390625 -0.9375 0.390625zm3.53125 0q-0.609375 0 -0.953125 -0.359375q-0.328125 -0.359375 -0.328125 -1.03125q0 -0.625 0.34375 -1.015625q0.359375 -0.390625 0.9375 -0.390625q0.625 0 0.953125 0.375q0.34375 0.359375 0.34375 1.03125q0 0.609375 -0.359375 1.0q-0.359375 0.390625 -0.9375 0.390625zm3.7713928 3.140625l-0.703125 -0.859375q0.640625 -0.375 1.046875 -0.859375q0.421875 -0.484375 0.421875 -0.84375q0 -0.1875 -0.09375 -0.359375q-0.09375 -0.171875 -0.390625 -0.5q-0.375 -0.34375 -0.484375 -0.59375q-0.109375 -0.25 -0.109375 -0.515625q0 -0.453125 0.3125 -0.71875q0.3125 -0.28125 0.828125 -0.28125q0.453125 0 0.828125 0.28125q0.390625 0.265625 0.609375 0.75q0.21875 0.46875 0.21875 1.078125q0 0.5625 -0.1875 1.078125q-0.1875 0.53125 -0.53125 0.96875q-0.328125 0.453125 -0.78125 0.8125q-0.4375 0.359375 -0.984375 0.5625z" fill-rule="nonzero"/><path fill="#ffffff" d="m161.45256 146.4095l-2.296875 -4.125l-0.203125 -0.359375l-3.0 -5.3125l2.421875 0l2.265625 4.0625l0.21875 0.421875l2.9375 5.3125l-2.34375 0zm-7.5625 0l4.921875 -5.03125l0.859375 1.359375l-3.5 3.671875l-2.28125 0zm6.953125 -4.734375l-0.765625 -1.34375l3.1875 -3.71875l2.28125 0l-4.703125 5.0625z" fill-rule="nonzero"/><path fill="#ffffff" d="m164.96861 153.4095l1.390625 -6.53125l1.28125 0l-0.28125 1.34375l-0.265625 0.15625q0.21875 -0.4375 0.65625 -0.796875q0.4375 -0.375 0.984375 -0.609375q0.5625 -0.234375 1.078125 -0.234375q0.75 0 1.1875 0.296875q0.4375 0.296875 0.546875 0.890625q0.125 0.59375 -0.078125 1.5l-0.84375 3.984375l-1.265625 0l0.828125 -3.890625q0.125 -0.5625 0.046875 -0.921875q-0.078125 -0.375 -0.359375 -0.53125q-0.265625 -0.171875 -0.734375 -0.15625q-0.375 0 -0.71875 0.125q-0.328125 0.109375 -0.609375 0.328125q-0.265625 0.203125 -0.46875 0.484375q-0.1875 0.28125 -0.25 0.609375l-0.84375 3.953125l-0.625 0q-0.171875 0 -0.328125 0q-0.15625 0 -0.328125 0z" fill-rule="nonzero"/><path fill="#ffffff" d="m172.8846 149.87825l-1.03125 -1.15625q1.90625 -1.328125 2.890625 -3.15625q1.0 -1.84375 1.0 -3.96875q0 -2.125 -1.0 -3.953125q-0.984375 -1.84375 -2.890625 -3.171875l1.046875 -1.15625q2.265625 1.421875 3.453125 3.546875q1.203125 2.125 1.203125 4.734375q0 2.59375 -1.203125 4.734375q-1.203125 2.125 -3.46875 3.546875z" fill-rule="nonzero"/><path fill="#000000" fill-opacity="0.0" d="m331.7349 2.551181l249.16537 0l0 56.25197l-249.16537 0z" fill-rule="evenodd"/><path fill="#595959" d="m342.26614 33.598415q0 -4.140625 2.0 -7.953125q2.0 -3.828125 5.265625 -3.796875q2.015625 -0.0625 3.296875 1.390625q1.296875 1.4375 1.296875 4.40625q0 4.40625 -2.0 8.1875q-1.984375 3.765625 -5.234375 3.765625q-2.046875 0 -3.34375 -1.59375q-1.28125 -1.59375 -1.28125 -4.40625zm2.671875 -3.65625l6.890625 0q0.296875 -1.796875 0.296875 -2.890625q0 -1.59375 -0.734375 -2.53125q-0.734375 -0.9375 -1.953125 -0.9375q-3.015625 0 -4.5 6.359375zm6.546875 1.75l-6.921875 0q-0.21875 1.59375 -0.21875 2.4375q0 1.6875 0.71875 2.71875q0.71875 1.015625 1.953125 1.015625q1.4375 0 2.625 -1.65625q1.1875 -1.65625 1.84375 -4.515625z" fill-rule="nonzero"/><path fill="#595959" d="m354.91068 48.317165l1.78125 -8.40625l1.640625 0l-0.359375 1.734375l-0.328125 0.1875q0.28125 -0.5625 0.84375 -1.03125q0.5625 -0.46875 1.265625 -0.765625q0.703125 -0.296875 1.375 -0.296875q0.96875 0 1.515625 0.375q0.5625 0.375 0.71875 1.15625q0.15625 0.765625 -0.078125 1.921875l-1.09375 5.125l-1.65625 0l1.0625 -5.015625q0.15625 -0.71875 0.0625 -1.1875q-0.078125 -0.46875 -0.4375 -0.6875q-0.359375 -0.21875 -0.953125 -0.1875q-0.484375 0 -0.921875 0.15625q-0.421875 0.15625 -0.78125 0.4375q-0.34375 0.265625 -0.59375 0.625q-0.25 0.359375 -0.34375 0.765625l-1.078125 5.09375l-0.8125 0q-0.203125 0 -0.421875 0q-0.203125 0 -0.40625 0z" fill-rule="nonzero"/><path fill="#595959" d="m372.72882 39.55154q-0.796875 0 -1.234375 -0.46875q-0.421875 -0.46875 -0.421875 -1.328125q0 -0.796875 0.453125 -1.296875q0.453125 -0.515625 1.203125 -0.515625q0.796875 0 1.21875 0.46875q0.4375 0.46875 0.4375 1.34375q0 0.78125 -0.453125 1.296875q-0.453125 0.5 -1.203125 0.5zm0 -9.46875q-0.796875 0 -1.234375 -0.46875q-0.421875 -0.46875 -0.421875 -1.328125q0 -0.796875 0.453125 -1.296875q0.453125 -0.515625 1.203125 -0.515625q0.796875 0 1.21875 0.46875q0.4375 0.46875 0.4375 1.34375q0 0.78125 -0.453125 1.296875q-0.453125 0.5 -1.203125 0.5zm3.9407349 1.296875l0 -2.171875l11.1875 0l0 2.171875l-11.1875 0zm0 4.53125l0 -2.140625l11.1875 0l0 2.140625l-11.1875 0z" fill-rule="nonzero"/><path fill="#595959" d="m401.97348 44.83279q-1.34375 0 -2.59375 -0.421875q-1.25 -0.40625 -1.921875 -1.078125l1.328125 -1.921875q0.40625 0.359375 0.984375 0.625q0.59375 0.28125 1.28125 0.4375q0.6875 0.15625 1.390625 0.15625q1.3125 0 2.296875 -0.4375q0.984375 -0.421875 1.609375 -1.265625q0.640625 -0.84375 0.90625 -2.09375l0.515625 -2.421875l0.21875 0.171875q-0.28125 0.75 -1.078125 1.4375q-0.796875 0.671875 -1.875 1.109375q-1.078125 0.421875 -2.109375 0.421875q-1.796875 0 -3.03125 -0.84375q-1.21875 -0.859375 -1.734375 -2.328125q-0.5 -1.484375 -0.09375 -3.375q0.40625 -1.890625 1.515625 -3.359375q1.125 -1.484375 2.703125 -2.328125q1.59375 -0.859375 3.34375 -0.859375q0.71875 0 1.34375 0.1875q0.640625 0.171875 1.140625 0.5q0.515625 0.3125 0.890625 0.703125q0.375 0.375 0.5625 0.8125q0.203125 0.4375 0.203125 0.8125l-0.578125 0.203125l0.625 -2.953125l2.46875 0l-2.515625 11.828125q-0.3125 1.515625 -1.015625 2.671875q-0.6875 1.171875 -1.703125 1.96875q-1.0 0.8125 -2.296875 1.21875q-1.28125 0.421875 -2.78125 0.421875zm1.703125 -7.5625q1.171875 0 2.203125 -0.546875q1.03125 -0.546875 1.734375 -1.5q0.703125 -0.96875 0.96875 -2.21875q0.265625 -1.25 -0.046875 -2.21875q-0.3125 -0.96875 -1.09375 -1.515625q-0.78125 -0.5625 -1.953125 -0.5625q-1.15625 0 -2.171875 0.5625q-1.015625 0.5625 -1.75 1.546875q-0.71875 0.96875 -0.96875 2.1875q-0.265625 1.21875 0.046875 2.203125q0.3125 0.96875 1.09375 1.515625q0.78125 0.546875 1.9375 0.546875z" fill-rule="nonzero"/><path fill="#595959" d="m418.29944 43.785915q-2.921875 -1.828125 -4.46875 -4.5625q-1.53125 -2.734375 -1.53125 -6.09375q0 -3.34375 1.546875 -6.09375q1.5625 -2.75 4.484375 -4.5625l1.3125 1.484375q-2.4375 1.703125 -3.734375 4.078125q-1.28125 2.359375 -1.28125 5.09375q0 2.734375 1.28125 5.09375q1.296875 2.359375 3.734375 4.0625l-1.34375 1.5z" fill-rule="nonzero"/><path fill="#595959" d="m419.22406 39.317165l0.09375 -0.390625l1.84375 -0.875l6.0 -6.46875l-3.640625 -6.921875l-1.28125 -0.796875l0.078125 -0.390625l6.953125 0l-0.0625 0.390625l-2.046875 0.84375l-0.015625 0.109375l2.65625 4.90625l4.46875 -4.90625l0.015625 -0.09375l-1.65625 -0.859375l0.078125 -0.390625l5.109375 0l-0.078125 0.390625l-1.578125 0.8125l-5.765625 6.171875l3.875 7.171875l1.4375 0.90625l-0.078125 0.390625l-7.046875 0l0.0625 -0.390625l1.875 -0.828125l0 -0.09375l-2.734375 -5.234375l-4.78125 5.171875l-0.0625 0.109375l1.703125 0.875l-0.078125 0.390625l-5.34375 0z" fill-rule="nonzero"/><path fill="#595959" d="m440.73502 47.535915l0 -9.09375l0.59375 0.453125l-2.203125 1.171875l-0.46875 -1.515625l3.0 -1.59375l0.828125 0l0 10.578125l-1.75 0zm-1.765625 0.78125l0 -1.65625l5.34375 0l0 1.65625l-5.34375 0z" fill-rule="nonzero"/><path fill="#595959" d="m447.37564 43.61404l-0.90625 -1.109375q0.84375 -0.46875 1.359375 -1.09375q0.53125 -0.625 0.53125 -1.078125q0 -0.25 -0.125 -0.484375q-0.109375 -0.21875 -0.5 -0.625q-0.484375 -0.453125 -0.625 -0.765625q-0.140625 -0.3125 -0.140625 -0.671875q0 -0.578125 0.40625 -0.921875q0.40625 -0.359375 1.0625 -0.359375q0.59375 0 1.078125 0.359375q0.5 0.34375 0.765625 0.953125q0.28125 0.609375 0.28125 1.40625q0 0.71875 -0.234375 1.390625q-0.234375 0.671875 -0.671875 1.25q-0.4375 0.578125 -1.015625 1.03125q-0.5625 0.453125 -1.265625 0.71875zm13.75296 -4.03125q-0.796875 0 -1.234375 -0.46875q-0.421875 -0.46875 -0.421875 -1.328125q0 -0.796875 0.453125 -1.296875q0.453125 -0.515625 1.203125 -0.515625q0.796875 0 1.21875 0.46875q0.4375 0.46875 0.4375 1.34375q0 0.78125 -0.453125 1.296875q-0.453125 0.5 -1.203125 0.5zm4.515625 0q-0.796875 0 -1.234375 -0.46875q-0.421875 -0.46875 -0.421875 -1.328125q0 -0.796875 0.453125 -1.296875q0.453125 -0.515625 1.203125 -0.515625q0.796875 0 1.21875 0.46875q0.4375 0.46875 0.4375 1.34375q0 0.78125 -0.453125 1.296875q-0.453125 0.5 -1.203125 0.5zm4.53125 0q-0.796875 0 -1.234375 -0.46875q-0.421875 -0.46875 -0.421875 -1.328125q0 -0.796875 0.453125 -1.296875q0.453125 -0.515625 1.203125 -0.515625q0.796875 0 1.21875 0.46875q0.4375 0.46875 0.4375 1.34375q0 0.78125 -0.453125 1.296875q-0.453125 0.5 -1.203125 0.5zm4.8480835 4.03125l-0.90625 -1.109375q0.84375 -0.46875 1.359375 -1.09375q0.53125 -0.625 0.53125 -1.078125q0 -0.25 -0.125 -0.484375q-0.109375 -0.21875 -0.5 -0.625q-0.484375 -0.453125 -0.625 -0.765625q-0.140625 -0.3125 -0.140625 -0.671875q0 -0.578125 0.40625 -0.921875q0.40625 -0.359375 1.0625 -0.359375q0.59375 0 1.078125 0.359375q0.5 0.34375 0.765625 0.953125q0.28125 0.609375 0.28125 1.40625q0 0.71875 -0.234375 1.390625q-0.234375 0.671875 -0.671875 1.25q-0.4375 0.578125 -1.015625 1.03125q-0.5625 0.453125 -1.265625 0.71875z" fill-rule="nonzero"/><path fill="#595959" d="m485.1359 39.317165l0.09375 -0.390625l1.84375 -0.875l6.0 -6.46875l-3.640625 -6.921875l-1.28125 -0.796875l0.078125 -0.390625l6.953125 0l-0.0625 0.390625l-2.046875 0.84375l-0.015625 0.109375l2.65625 4.90625l4.46875 -4.90625l0.015625 -0.09375l-1.65625 -0.859375l0.078125 -0.390625l5.109375 0l-0.078125 0.390625l-1.578125 0.8125l-5.765625 6.171875l3.875 7.171875l1.4375 0.90625l-0.078125 0.390625l-7.046875 0l0.0625 -0.390625l1.875 -0.828125l0 -0.09375l-2.734375 -5.234375l-4.78125 5.171875l-0.0625 0.109375l1.703125 0.875l-0.078125 0.390625l-5.34375 0z" fill-rule="nonzero"/><path fill="#595959" d="m504.33435 48.317165l1.78125 -8.40625l1.640625 0l-0.359375 1.734375l-0.328125 0.1875q0.28125 -0.5625 0.84375 -1.03125q0.5625 -0.46875 1.265625 -0.765625q0.703125 -0.296875 1.375 -0.296875q0.96875 0 1.515625 0.375q0.5625 0.375 0.71875 1.15625q0.15625 0.765625 -0.078125 1.921875l-1.09375 5.125l-1.65625 0l1.0625 -5.015625q0.15625 -0.71875 0.0625 -1.1875q-0.078125 -0.46875 -0.4375 -0.6875q-0.359375 -0.21875 -0.953125 -0.1875q-0.484375 0 -0.921875 0.15625q-0.421875 0.15625 -0.78125 0.4375q-0.34375 0.265625 -0.59375 0.625q-0.25 0.359375 -0.34375 0.765625l-1.078125 5.09375l-0.8125 0q-0.203125 0 -0.421875 0q-0.203125 0 -0.40625 0z" fill-rule="nonzero"/><path fill="#595959" d="m514.495 43.785915l-1.3125 -1.5q2.4375 -1.703125 3.71875 -4.0625q1.296875 -2.359375 1.296875 -5.09375q0 -2.734375 -1.296875 -5.09375q-1.28125 -2.375 -3.71875 -4.078125l1.34375 -1.484375q2.921875 1.8125 4.453125 4.5625q1.546875 2.734375 1.546875 6.09375q0 3.328125 -1.546875 6.078125q-1.546875 2.75 -4.484375 4.578125z" fill-rule="nonzero"/><path fill="#000000" fill-opacity="0.0" d="m331.7349 100.86352l174.26773 0l0 56.25196l-174.26773 0z" fill-rule="evenodd"/><path fill="#595959" d="m342.26614 131.91075q0 -4.140625 2.0 -7.953125q2.0 -3.828125 5.265625 -3.796875q2.015625 -0.0625 3.296875 1.390625q1.296875 1.4375 1.296875 4.40625q0 4.40625 -2.0 8.1875q-1.984375 3.765625 -5.234375 3.765625q-2.046875 0 -3.34375 -1.59375q-1.28125 -1.59375 -1.28125 -4.40625zm2.671875 -3.65625l6.890625 0q0.296875 -1.796875 0.296875 -2.890625q0 -1.59375 -0.734375 -2.53125q-0.734375 -0.9375 -1.953125 -0.9375q-3.015625 0 -4.5 6.359375zm6.546875 1.75l-6.921875 0q-0.21875 1.59375 -0.21875 2.4375q0 1.6875 0.71875 2.71875q0.71875 1.015625 1.953125 1.015625q1.4375 0 2.625 -1.65625q1.1875 -1.65625 1.84375 -4.515625z" fill-rule="nonzero"/><path fill="#595959" d="m354.91068 146.6295l1.78125 -8.40625l1.640625 0l-0.359375 1.734375l-0.328125 0.1875q0.28125 -0.5625 0.84375 -1.03125q0.5625 -0.46875 1.265625 -0.765625q0.703125 -0.296875 1.375 -0.296875q0.96875 0 1.515625 0.375q0.5625 0.375 0.71875 1.15625q0.15625 0.765625 -0.078125 1.921875l-1.09375 5.125l-1.65625 0l1.0625 -5.015625q0.15625 -0.71875 0.0625 -1.1875q-0.078125 -0.46875 -0.4375 -0.6875q-0.359375 -0.21875 -0.953125 -0.1875q-0.484375 0 -0.921875 0.15625q-0.421875 0.15625 -0.78125 0.4375q-0.34375 0.265625 -0.59375 0.625q-0.25 0.359375 -0.34375 0.765625l-1.078125 5.09375l-0.8125 0q-0.203125 0 -0.421875 0q-0.203125 0 -0.40625 0z" fill-rule="nonzero"/><path fill="#595959" d="m370.22757 142.09825q-2.921875 -1.828125 -4.46875 -4.5625q-1.53125 -2.734375 -1.53125 -6.09375q0 -3.34375 1.546875 -6.09375q1.5625 -2.75 4.484375 -4.5625l1.3125 1.484375q-2.4375 1.703125 -3.734375 4.078125q-1.28125 2.359375 -1.28125 5.09375q0 2.734375 1.28125 5.09375q1.296875 2.359375 3.734375 4.0625l-1.34375 1.5z" fill-rule="nonzero"/><path fill="#595959" d="m371.79282 137.6295q0 -0.28125 0.234375 -0.59375q0.21875 -0.3125 0.734375 -0.828125q0.515625 -0.515625 1.40625 -1.421875q0.890625 -0.90625 2.265625 -2.40625l-1.640625 -4.09375l-1.609375 -0.6875l0 -0.28125l4.203125 -0.875l0.046875 0l1.65625 4.171875q0.84375 -1.078125 1.296875 -1.734375q0.453125 -0.65625 0.671875 -1.046875q0.21875 -0.40625 0.328125 -0.65625q0.109375 -0.25 0.203125 -0.484375l1.84375 0q-0.015625 0.25 -0.21875 0.53125q-0.1875 0.28125 -0.625 0.734375q-0.421875 0.453125 -1.203125 1.28125q-0.78125 0.8125 -2.015625 2.125l1.8125 4.5625l1.625 0.6875l0 0.296875l-4.15625 0.859375l-0.0625 0l-1.84375 -4.609375q-0.984375 1.25 -1.5625 2.015625q-0.5625 0.75 -0.828125 1.203125q-0.25 0.4375 -0.375 0.703125q-0.125 0.265625 -0.265625 0.546875l-1.921875 0z" fill-rule="nonzero"/><path fill="#595959" d="m387.14316 145.84825l0 -9.09375l0.59375 0.453125l-2.203125 1.171875l-0.46875 -1.515625l3.0 -1.59375l0.828125 0l0 10.578125l-1.75 0zm-1.765625 0.78125l0 -1.65625l5.34375 0l0 1.65625l-5.34375 0z" fill-rule="nonzero"/><path fill="#595959" d="m393.78378 141.92638l-0.90625 -1.109375q0.84375 -0.46875 1.359375 -1.09375q0.53125 -0.625 0.53125 -1.078125q0 -0.25 -0.125 -0.484375q-0.109375 -0.21875 -0.5 -0.625q-0.484375 -0.453125 -0.625 -0.765625q-0.140625 -0.3125 -0.140625 -0.671875q0 -0.578125 0.40625 -0.921875q0.40625 -0.359375 1.0625 -0.359375q0.59375 0 1.078125 0.359375q0.5 0.34375 0.765625 0.953125q0.28125 0.609375 0.28125 1.40625q0 0.71875 -0.234375 1.390625q-0.234375 0.671875 -0.671875 1.25q-0.4375 0.578125 -1.015625 1.03125q-0.5625 0.453125 -1.265625 0.71875zm13.75296 -4.03125q-0.796875 0 -1.234375 -0.46875q-0.421875 -0.46875 -0.421875 -1.328125q0 -0.796875 0.453125 -1.296875q0.453125 -0.515625 1.203125 -0.515625q0.796875 0 1.21875 0.46875q0.4375 0.46875 0.4375 1.34375q0 0.78125 -0.453125 1.296875q-0.453125 0.5 -1.203125 0.5zm4.515625 0q-0.796875 0 -1.234375 -0.46875q-0.421875 -0.46875 -0.421875 -1.328125q0 -0.796875 0.453125 -1.296875q0.453125 -0.515625 1.203125 -0.515625q0.796875 0 1.21875 0.46875q0.4375 0.46875 0.4375 1.34375q0 0.78125 -0.453125 1.296875q-0.453125 0.5 -1.203125 0.5zm4.53125 0q-0.796875 0 -1.234375 -0.46875q-0.421875 -0.46875 -0.421875 -1.328125q0 -0.796875 0.453125 -1.296875q0.453125 -0.515625 1.203125 -0.515625q0.796875 0 1.21875 0.46875q0.4375 0.46875 0.4375 1.34375q0 0.78125 -0.453125 1.296875q-0.453125 0.5 -1.203125 0.5zm4.8480835 4.03125l-0.90625 -1.109375q0.84375 -0.46875 1.359375 -1.09375q0.53125 -0.625 0.53125 -1.078125q0 -0.25 -0.125 -0.484375q-0.109375 -0.21875 -0.5 -0.625q-0.484375 -0.453125 -0.625 -0.765625q-0.140625 -0.3125 -0.140625 -0.671875q0 -0.578125 0.40625 -0.921875q0.40625 -0.359375 1.0625 -0.359375q0.59375 0 1.078125 0.359375q0.5 0.34375 0.765625 0.953125q0.28125 0.609375 0.28125 1.40625q0 0.71875 -0.234375 1.390625q-0.234375 0.671875 -0.671875 1.25q-0.4375 0.578125 -1.015625 1.03125q-0.5625 0.453125 -1.265625 0.71875z" fill-rule="nonzero"/><path fill="#595959" d="m432.18466 137.6295q0 -0.28125 0.234375 -0.59375q0.21875 -0.3125 0.734375 -0.828125q0.515625 -0.515625 1.40625 -1.421875q0.890625 -0.90625 2.265625 -2.40625l-1.640625 -4.09375l-1.609375 -0.6875l0 -0.28125l4.203125 -0.875l0.046875 0l1.65625 4.171875q0.84375 -1.078125 1.296875 -1.734375q0.453125 -0.65625 0.671875 -1.046875q0.21875 -0.40625 0.328125 -0.65625q0.109375 -0.25 0.203125 -0.484375l1.84375 0q-0.015625 0.25 -0.21875 0.53125q-0.1875 0.28125 -0.625 0.734375q-0.421875 0.453125 -1.203125 1.28125q-0.78125 0.8125 -2.015625 2.125l1.8125 4.5625l1.625 0.6875l0 0.296875l-4.15625 0.859375l-0.0625 0l-1.84375 -4.609375q-0.984375 1.25 -1.5625 2.015625q-0.5625 0.75 -0.828125 1.203125q-0.25 0.4375 -0.375 0.703125q-0.125 0.265625 -0.265625 0.546875l-1.921875 0z" fill-rule="nonzero"/><path fill="#595959" d="m445.2225 146.6295l1.78125 -8.40625l1.640625 0l-0.359375 1.734375l-0.328125 0.1875q0.28125 -0.5625 0.84375 -1.03125q0.5625 -0.46875 1.265625 -0.765625q0.703125 -0.296875 1.375 -0.296875q0.96875 0 1.515625 0.375q0.5625 0.375 0.71875 1.15625q0.15625 0.765625 -0.078125 1.921875l-1.09375 5.125l-1.65625 0l1.0625 -5.015625q0.15625 -0.71875 0.0625 -1.1875q-0.078125 -0.46875 -0.4375 -0.6875q-0.359375 -0.21875 -0.953125 -0.1875q-0.484375 0 -0.921875 0.15625q-0.421875 0.15625 -0.78125 0.4375q-0.34375 0.265625 -0.59375 0.625q-0.25 0.359375 -0.34375 0.765625l-1.078125 5.09375l-0.8125 0q-0.203125 0 -0.421875 0q-0.203125 0 -0.40625 0z" fill-rule="nonzero"/><path fill="#595959" d="m455.38315 142.09825l-1.3125 -1.5q2.4375 -1.703125 3.71875 -4.0625q1.296875 -2.359375 1.296875 -5.09375q0 -2.734375 -1.296875 -5.09375q-1.28125 -2.375 -3.71875 -4.078125l1.34375 -1.484375q2.921875 1.8125 4.453125 4.5625q1.546875 2.734375 1.546875 6.09375q0 3.328125 -1.546875 6.078125q-1.546875 2.75 -4.484375 4.578125z" fill-rule="nonzero"/><path fill="#000000" fill-opacity="0.0" d="m534.4934 3.03937l138.96063 0l0 56.25197l-138.96063 0z" fill-rule="evenodd"/><path fill="#4285f4" d="m546.4793 39.805355l0 -16.796877l11.71875 0l0 3.484375l-7.75 0l0 9.828127l7.984375 0l0 3.484375l-11.953125 0zm1.921875 -6.890625l0 -3.312502l8.71875 0l0 3.312502l-8.71875 0zm17.44867 7.125q-1.875 0 -3.3125 -0.59375q-1.421875 -0.59375 -2.25 -1.609375l2.328125 -2.015625q0.734375 0.75 1.671875 1.09375q0.9375 0.34375 1.78125 0.34375q0.328125 0 0.59375 -0.0625q0.265625 -0.078125 0.4375 -0.203125q0.1875 -0.140625 0.28125 -0.3125q0.09375 -0.1875 0.09375 -0.421875q0 -0.484375 -0.421875 -0.75q-0.21875 -0.125 -0.734375 -0.28125q-0.5 -0.171875 -1.28125 -0.390625q-1.125 -0.28125 -1.953125 -0.671875q-0.828125 -0.40625 -1.359375 -0.9375q-0.484375 -0.5 -0.75 -1.109375q-0.265625 -0.6093769 -0.265625 -1.3906269q0 -0.875 0.421875 -1.59375q0.421875 -0.734375 1.125 -1.25q0.71875 -0.53125 1.640625 -0.8125q0.921875 -0.28125 1.90625 -0.28125q1.0625 0 2.015625 0.25q0.953125 0.234375 1.78125 0.671875q0.828125 0.4375 1.484375 1.03125l-2.015625 2.25q-0.4375 -0.40625 -0.984375 -0.71875q-0.53125 -0.328125 -1.109375 -0.515625q-0.578125 -0.203125 -1.046875 -0.203125q-0.359375 0 -0.640625 0.0625q-0.28125 0.0625 -0.46875 0.203125q-0.1875 0.125 -0.296875 0.3125q-0.09375 0.171875 -0.09375 0.40625q0 0.234375 0.125 0.453125q0.140625 0.21875 0.390625 0.359375q0.234375 0.15625 0.765625 0.34375q0.53125 0.171875 1.4375 0.4218769q1.125 0.3125 1.9375 0.703125q0.828125 0.390625 1.296875 0.90625q0.390625 0.421875 0.578125 0.96875q0.1875 0.53125 0.1875 1.15625q0 1.21875 -0.6875 2.171875q-0.671875 0.9375 -1.875 1.484375q-1.203125 0.53125 -2.734375 0.53125zm8.64563 -0.234375l0 -15.953127l3.828125 0l0 15.953127l-3.828125 0zm-2.265625 -9.390627l0 -3.359375l8.578125 0l0 3.359375l-8.578125 0zm10.973816 9.390627l0 -12.750002l3.84375 0l0 12.750002l-3.84375 0zm1.921875 -15.265627q-1.078125 0 -1.703125 -0.515625q-0.609375 -0.515625 -0.609375 -1.46875q0 -0.875 0.625 -1.421875q0.625 -0.546875 1.6875 -0.546875q1.078125 0 1.671875 0.515625q0.609375 0.515625 0.609375 1.453125q0 0.875 -0.625 1.4375q-0.609375 0.546875 -1.65625 0.546875zm5.499756 15.265627l0 -12.750002l3.640625 0l0.125 2.3125l-0.515625 0.015625q0.296875 -0.625 0.734375 -1.09375q0.453125 -0.484375 1.015625 -0.796875q0.5625 -0.328125 1.171875 -0.5q0.609375 -0.171875 1.234375 -0.171875q0.9375 0 1.703125 0.296875q0.765625 0.28125 1.34375 0.921875q0.578125 0.625 0.921875 1.703125l-0.609375 -0.046875l0.1875 -0.375q0.3125 -0.578125 0.796875 -1.046875q0.5 -0.46875 1.09375 -0.78125q0.609375 -0.328125 1.25 -0.5q0.65625 -0.171875 1.265625 -0.171875q1.5 0 2.5 0.59375q1.015625 0.578125 1.53125 1.765625q0.515625 1.171875 0.515625 2.843752l0 7.78125l-3.859375 0l0 -7.46875q0 -0.7656269 -0.21875 -1.2656269q-0.21875 -0.5 -0.640625 -0.75q-0.40625 -0.265625 -1.03125 -0.265625q-0.5 0 -0.921875 0.171875q-0.421875 0.171875 -0.734375 0.46875q-0.296875 0.28125 -0.46875 0.671875q-0.15625 0.375 -0.15625 0.8593769l0 7.578125l-3.859375 0l0 -7.484375q0 -0.7187519 -0.21875 -1.2187519q-0.21875 -0.515625 -0.65625 -0.78125q-0.421875 -0.265625 -1.0 -0.265625q-0.515625 0 -0.9375 0.171875q-0.40625 0.171875 -0.71875 0.46875q-0.296875 0.28125 -0.46875 0.671875q-0.15625 0.375 -0.15625 0.8281269l0 7.609375l-3.859375 0zm27.80664 0.21875q-1.609375 0 -2.875 -0.84375q-1.25 -0.859375 -2.0 -2.359375q-0.734375 -1.5 -0.734375 -3.40625q0 -1.9375019 0.734375 -3.421877q0.75 -1.484375 2.046875 -2.34375q1.296875 -0.859375 2.953125 -0.859375q0.90625 0 1.65625 0.265625q0.765625 0.265625 1.34375 0.734375q0.578125 0.46875 0.984375 1.09375q0.40625 0.609375 0.59375 1.296875l-0.796875 -0.09375l0 -3.03125l3.828125 0l0 12.750002l-3.890625 0l0 -3.078125l0.859375 -0.015625q-0.1875 0.671875 -0.625 1.28125q-0.421875 0.59375 -1.046875 1.046875q-0.625 0.453125 -1.40625 0.71875q-0.765625 0.265625 -1.625 0.265625zm1.0625 -3.25q0.890625 0 1.53125 -0.40625q0.640625 -0.40625 1.0 -1.15625q0.375 -0.765625 0.375 -1.796875q0 -1.03125 -0.375 -1.7812519q-0.359375 -0.75 -1.0 -1.171875q-0.640625 -0.421875 -1.53125 -0.421875q-0.875 0 -1.515625 0.421875q-0.625 0.421875 -0.984375 1.171875q-0.359375 0.7500019 -0.359375 1.7812519q0 1.03125 0.359375 1.796875q0.359375 0.75 0.984375 1.15625q0.640625 0.40625 1.515625 0.40625zm11.112854 3.03125l0 -15.953127l3.828125 0l0 15.953127l-3.828125 0zm-2.265625 -9.390627l0 -3.359375l8.578125 0l0 3.359375l-8.578125 0zm16.63507 9.625002q-1.984375 0 -3.546875 -0.859375q-1.546875 -0.859375 -2.453125 -2.34375q-0.890625 -1.5 -0.890625 -3.421875q0 -1.9062519 0.890625 -3.390627q0.90625 -1.5 2.453125 -2.359375q1.5625 -0.875 3.546875 -0.875q2.0 0 3.546875 0.875q1.546875 0.859375 2.421875 2.359375q0.890625 1.484375 0.890625 3.390627q0 1.921875 -0.890625 3.421875q-0.875 1.484375 -2.421875 2.34375q-1.546875 0.859375 -3.546875 0.859375zm0 -3.3125q0.859375 0 1.53125 -0.421875q0.671875 -0.4375 1.0625 -1.171875q0.390625 -0.75 0.359375 -1.71875q0.03125 -0.953125 -0.359375 -1.7031269q-0.390625 -0.765625 -1.0625 -1.1875q-0.671875 -0.4375 -1.53125 -0.4375q-0.859375 0 -1.546875 0.4375q-0.6875 0.421875 -1.078125 1.1875q-0.375 0.7500019 -0.34375 1.7031269q-0.03125 0.96875 0.34375 1.71875q0.390625 0.734375 1.078125 1.171875q0.6875 0.421875 1.546875 0.421875zm9.383972 3.078125l0 -12.750002l3.65625 0l0.15625 4.15625l-0.71875 -0.796875q0.296875 -1.03125 0.953125 -1.84375q0.65625 -0.8125 1.546875 -1.296875q0.890625 -0.484375 1.890625 -0.484375q0.4375 0 0.8125 0.078125q0.375 0.078125 0.6875 0.171875l-1.0625 4.25q-0.265625 -0.171875 -0.71875 -0.28125q-0.4375 -0.109375 -0.921875 -0.109375q-0.515625 0 -0.984375 0.1875q-0.453125 0.171875 -0.765625 0.515625q-0.3125 0.328125 -0.5 0.7968769q-0.171875 0.453125 -0.171875 1.015625l0 6.390625l-3.859375 0z" fill-rule="nonzero"/><path fill="#000000" fill-opacity="0.0" d="m476.14435 101.35171l138.96063 0l0 56.25196l-138.96063 0z" fill-rule="evenodd"/><path fill="#4285f4" d="m494.2502 138.11769l0 -16.796875l11.71875 0l0 3.484375l-7.75 0l0 9.828125l7.984375 0l0 3.484375l-11.953125 0zm1.921875 -6.890625l0 -3.3125l8.71875 0l0 3.3125l-8.71875 0zm17.4487 7.125q-1.875 0 -3.3125 -0.59375q-1.421875 -0.59375 -2.25 -1.609375l2.328125 -2.015625q0.734375 0.75 1.671875 1.09375q0.9375 0.34375 1.78125 0.34375q0.328125 0 0.59375 -0.0625q0.265625 -0.078125 0.4375 -0.203125q0.1875 -0.140625 0.28125 -0.3125q0.09375 -0.1875 0.09375 -0.421875q0 -0.484375 -0.421875 -0.75q-0.21875 -0.125 -0.734375 -0.28125q-0.5 -0.171875 -1.28125 -0.390625q-1.125 -0.28125 -1.953125 -0.671875q-0.828125 -0.40625 -1.359375 -0.9375q-0.484375 -0.5 -0.75 -1.109375q-0.265625 -0.609375 -0.265625 -1.390625q0 -0.875 0.421875 -1.59375q0.421875 -0.734375 1.125 -1.25q0.71875 -0.53125 1.640625 -0.8125q0.921875 -0.28125 1.90625 -0.28125q1.0625 0 2.015625 0.25q0.953125 0.234375 1.78125 0.671875q0.828125 0.4375 1.484375 1.03125l-2.015625 2.25q-0.4375 -0.40625 -0.984375 -0.71875q-0.53125 -0.328125 -1.109375 -0.515625q-0.578125 -0.203125 -1.046875 -0.203125q-0.359375 0 -0.640625 0.0625q-0.28125 0.0625 -0.46875 0.203125q-0.1875 0.125 -0.296875 0.3125q-0.09375 0.171875 -0.09375 0.40625q0 0.234375 0.125 0.453125q0.140625 0.21875 0.390625 0.359375q0.234375 0.15625 0.765625 0.34375q0.53125 0.171875 1.4375 0.421875q1.125 0.3125 1.9375 0.703125q0.828125 0.390625 1.296875 0.90625q0.390625 0.421875 0.578125 0.96875q0.1875 0.53125 0.1875 1.15625q0 1.21875 -0.6875 2.171875q-0.671875 0.9375 -1.875 1.484375q-1.203125 0.53125 -2.734375 0.53125zm8.645569 -0.234375l0 -15.953125l3.828125 0l0 15.953125l-3.828125 0zm-2.265625 -9.390625l0 -3.359375l8.578125 0l0 3.359375l-8.578125 0zm10.973877 9.390625l0 -12.75l3.84375 0l0 12.75l-3.84375 0zm1.921875 -15.265625q-1.078125 0 -1.703125 -0.515625q-0.609375 -0.515625 -0.609375 -1.46875q0 -0.875 0.625 -1.421875q0.625 -0.546875 1.6875 -0.546875q1.078125 0 1.671875 0.515625q0.609375 0.515625 0.609375 1.453125q0 0.875 -0.625 1.4375q-0.609375 0.546875 -1.65625 0.546875zm5.499695 15.265625l0 -12.75l3.640625 0l0.125 2.3125l-0.515625 0.015625q0.296875 -0.625 0.734375 -1.09375q0.453125 -0.484375 1.015625 -0.796875q0.5625 -0.328125 1.171875 -0.5q0.609375 -0.171875 1.234375 -0.171875q0.9375 0 1.703125 0.296875q0.765625 0.28125 1.34375 0.921875q0.578125 0.625 0.921875 1.703125l-0.609375 -0.046875l0.1875 -0.375q0.3125 -0.578125 0.796875 -1.046875q0.5 -0.46875 1.09375 -0.78125q0.609375 -0.328125 1.25 -0.5q0.65625 -0.171875 1.265625 -0.171875q1.5 0 2.5 0.59375q1.015625 0.578125 1.53125 1.765625q0.515625 1.171875 0.515625 2.84375l0 7.78125l-3.859375 0l0 -7.46875q0 -0.765625 -0.21875 -1.265625q-0.21875 -0.5 -0.640625 -0.75q-0.40625 -0.265625 -1.03125 -0.265625q-0.5 0 -0.921875 0.171875q-0.421875 0.171875 -0.734375 0.46875q-0.296875 0.28125 -0.46875 0.671875q-0.15625 0.375 -0.15625 0.859375l0 7.578125l-3.859375 0l0 -7.484375q0 -0.71875 -0.21875 -1.21875q-0.21875 -0.515625 -0.65625 -0.78125q-0.421875 -0.265625 -1.0 -0.265625q-0.515625 0 -0.9375 0.171875q-0.40625 0.171875 -0.71875 0.46875q-0.296875 0.28125 -0.46875 0.671875q-0.15625 0.375 -0.15625 0.828125l0 7.609375l-3.859375 0zm27.806702 0.21875q-1.609375 0 -2.875 -0.84375q-1.25 -0.859375 -2.0 -2.359375q-0.734375 -1.5 -0.734375 -3.40625q0 -1.9375 0.734375 -3.421875q0.75 -1.484375 2.046875 -2.34375q1.296875 -0.859375 2.953125 -0.859375q0.90625 0 1.65625 0.265625q0.765625 0.265625 1.34375 0.734375q0.578125 0.46875 0.984375 1.09375q0.40625 0.609375 0.59375 1.296875l-0.796875 -0.09375l0 -3.03125l3.828125 0l0 12.75l-3.890625 0l0 -3.078125l0.859375 -0.015625q-0.1875 0.671875 -0.625 1.28125q-0.421875 0.59375 -1.046875 1.046875q-0.625 0.453125 -1.40625 0.71875q-0.765625 0.265625 -1.625 0.265625zm1.0625 -3.25q0.890625 0 1.53125 -0.40625q0.640625 -0.40625 1.0 -1.15625q0.375 -0.765625 0.375 -1.796875q0 -1.03125 -0.375 -1.78125q-0.359375 -0.75 -1.0 -1.171875q-0.640625 -0.421875 -1.53125 -0.421875q-0.875 0 -1.515625 0.421875q-0.625 0.421875 -0.984375 1.171875q-0.359375 0.75 -0.359375 1.78125q0 1.03125 0.359375 1.796875q0.359375 0.75 0.984375 1.15625q0.640625 0.40625 1.515625 0.40625zm11.112793 3.03125l0 -15.953125l3.828125 0l0 15.953125l-3.828125 0zm-2.265625 -9.390625l0 -3.359375l8.578125 0l0 3.359375l-8.578125 0zm16.713257 9.625q-2.125 0 -3.6875 -0.84375q-1.546875 -0.859375 -2.421875 -2.328125q-0.859375 -1.484375 -0.859375 -3.375q0 -1.46875 0.484375 -2.6875q0.484375 -1.21875 1.34375 -2.125q0.859375 -0.90625 2.046875 -1.390625q1.1875 -0.5 2.609375 -0.5q1.34375 0 2.453125 0.484375q1.125 0.484375 1.9375 1.359375q0.8125 0.859375 1.25 2.03125q0.4375 1.171875 0.375 2.5625l-0.015625 1.03125l-10.15625 0l-0.546875 -2.15625l7.578125 0l-0.40625 0.453125l0 -0.484375q-0.046875 -0.59375 -0.375 -1.0625q-0.3125 -0.46875 -0.84375 -0.734375q-0.53125 -0.265625 -1.203125 -0.265625q-0.9375 0 -1.59375 0.375q-0.65625 0.375 -1.0 1.09375q-0.328125 0.703125 -0.328125 1.734375q0 1.046875 0.4375 1.828125q0.4375 0.78125 1.296875 1.21875q0.859375 0.421875 2.03125 0.421875q0.8125 0 1.4375 -0.234375q0.640625 -0.234375 1.390625 -0.8125l1.796875 2.546875q-0.734375 0.640625 -1.578125 1.046875q-0.84375 0.40625 -1.71875 0.609375q-0.875 0.203125 -1.734375 0.203125z" fill-rule="nonzero"/><path fill="#000000" fill-opacity="0.0" d="m261.13647 31.653543l70.6142 -0.9763775" fill-rule="evenodd"/><path stroke="#595959" stroke-width="3.0" stroke-linejoin="round" stroke-linecap="butt" d="m261.13647 31.653543l52.615906 -0.7275162" fill-rule="evenodd"/><path fill="#595959" stroke="#595959" stroke-width="3.0" stroke-linecap="butt" d="m313.8209 35.88075l13.544464 -5.142948l-13.681488 -4.7664986z" fill-rule="evenodd"/><path fill="#000000" fill-opacity="0.0" d="m261.13647 18.519686l0 24.314959" fill-rule="evenodd"/><path stroke="#595959" stroke-width="3.0" stroke-linejoin="round" stroke-linecap="butt" d="m261.13647 18.519686l0 24.314959" fill-rule="evenodd"/><path fill="#000000" fill-opacity="0.0" d="m261.13647 129.96588l70.6142 -0.9763794" fill-rule="evenodd"/><path stroke="#595959" stroke-width="3.0" stroke-linejoin="round" stroke-linecap="butt" d="m261.13647 129.96588l52.615906 -0.7275238" fill-rule="evenodd"/><path fill="#595959" stroke="#595959" stroke-width="3.0" stroke-linecap="butt" d="m313.8209 134.19308l13.544464 -5.1429443l-13.681488 -4.7665024z" fill-rule="evenodd"/><path fill="#000000" fill-opacity="0.0" d="m261.13647 116.83202l0 24.314964" fill-rule="evenodd"/><path stroke="#595959" stroke-width="3.0" stroke-linejoin="round" stroke-linecap="butt" d="m261.13647 116.83202l0 24.314964" fill-rule="evenodd"/><path fill="#000000" fill-opacity="0.0" d="m344.03674 20.637794l6.204712 -4.4724407" fill-rule="evenodd"/><path stroke="#000000" stroke-width="2.0" stroke-linejoin="round" stroke-linecap="butt" d="m344.03674 20.637794l6.204712 -4.4724407" fill-rule="evenodd"/><path fill="#000000" fill-opacity="0.0" d="m349.69553 16.277775l5.952759 4.2519684" fill-rule="evenodd"/><path stroke="#000000" stroke-width="2.0" stroke-linejoin="round" stroke-linecap="butt" d="m349.69553 16.277775l5.952759 4.2519684" fill-rule="evenodd"/><path fill="#000000" fill-opacity="0.0" d="m344.03674 118.78215l6.204712 -4.4724426" fill-rule="evenodd"/><path stroke="#000000" stroke-width="2.0" stroke-linejoin="round" stroke-linecap="butt" d="m344.03674 118.78215l6.204712 -4.4724426" fill-rule="evenodd"/><path fill="#000000" fill-opacity="0.0" d="m349.69553 114.422134l5.952759 4.2519684" fill-rule="evenodd"/><path stroke="#000000" stroke-width="2.0" stroke-linejoin="round" stroke-linecap="butt" d="m349.69553 114.422134l5.952759 4.2519684" fill-rule="evenodd"/></g></svg>