<svg version="1.1" viewBox="0.0 0.0 814.4435695538058 177.7769028871391" fill="none" stroke="none" stroke-linecap="square" stroke-miterlimit="10" xmlns:xlink="http://www.w3.org/1999/xlink" xmlns="http://www.w3.org/2000/svg"><clipPath id="p.0"><path d="m0 0l814.44354 0l0 177.7769l-814.44354 0l0 -177.7769z" clip-rule="nonzero"/></clipPath><g clip-path="url(#p.0)"><path fill="#000000" fill-opacity="0.0" d="m0 0l814.44354 0l0 177.7769l-814.44354 0z" fill-rule="evenodd"/><path fill="#000000" fill-opacity="0.0" d="m34.805775 147.9685l317.95276 0" fill-rule="evenodd"/><path stroke="#000000" stroke-width="2.0" stroke-linejoin="round" stroke-linecap="butt" d="m34.805775 147.9685l311.09857 0" fill-rule="evenodd"/><path fill="#000000" stroke="#000000" stroke-width="2.0" stroke-linecap="butt" d="m345.90436 147.9685l-2.249176 2.2491608l6.179535 -2.2491608l-6.179535 -2.249176z" fill-rule="evenodd"/><path fill="#000000" fill-opacity="0.0" d="m39.362206 147.97223c14.245041 0 22.692692 -17.241714 33.63517 -26.362206c10.931107 -9.111008 28.665215 -8.513702 38.183723 -19.091866c12.190422 -13.547516 19.102089 -38.59976 37.272972 -40.0c10.509766 -0.8098793 23.799988 1.4752693 30.0 10.0c8.454239 11.624199 12.582687 27.48288 24.543304 35.45407c11.448212 7.629692 27.562988 2.1233597 40.910767 5.456688c12.085648 3.0181427 18.608124 16.572731 28.181091 24.543312c7.660034 6.377823 19.265839 5.5423584 28.181122 10.0" fill-rule="evenodd"/><path stroke="#0000ff" stroke-width="3.0" stroke-linejoin="round" stroke-linecap="butt" d="m39.362206 147.97223c14.245041 0 22.692692 -17.241714 33.63517 -26.362206c10.931107 -9.111008 28.665215 -8.513702 38.183723 -19.091866c12.190422 -13.547516 19.102089 -38.59976 37.272972 -40.0c10.509766 -0.8098793 23.799988 1.4752693 30.0 10.0c8.454239 11.624199 12.582687 27.48288 24.543304 35.45407c11.448212 7.629692 27.562988 2.1233597 40.910767 5.456688c12.085648 3.0181427 18.608124 16.572731 28.181091 24.543312c7.660034 6.377823 19.265839 5.5423584 28.181122 10.0" fill-rule="evenodd"/><path fill="#000000" fill-opacity="0.0" d="m34.430447 148.1811l0 -118.92914" fill-rule="evenodd"/><path stroke="#000000" stroke-width="2.0" stroke-linejoin="round" stroke-linecap="butt" d="m34.430447 148.1811l0 -106.92914" fill-rule="evenodd"/><path fill="#000000" stroke="#000000" stroke-width="2.0" stroke-linecap="butt" d="m37.73391 41.25197l-3.303463 -9.076195l-3.303465 9.076195z" fill-rule="evenodd"/><path fill="#000000" fill-opacity="0.0" d="m157.50656 23.902887l0 131.40157" fill-rule="evenodd"/><path stroke="#ff0000" stroke-width="1.0" stroke-linejoin="round" stroke-linecap="butt" d="m157.50656 23.902887l0 131.40157" fill-rule="evenodd"/><path fill="#000000" fill-opacity="0.0" d="m141.60892 154.1916l20.724411 0l0 23.244095l-20.724411 0z" fill-rule="evenodd"/><path fill="#ffffff" d="m150.60892 152.61365l12.149414 0l0 26.399994l-12.149414 0l0 -26.399994z" fill-rule="nonzero"/><path fill="#000000" fill-opacity="0.0" d="m150.60892 153.32349l12.149414 0l0 25.78125l-12.149414 0l0 -25.78125z" fill-rule="nonzero"/><path fill="#111111" d="m158.12454 157.87427q1.125 0.03125 1.875 0.484375q0.75 0.4375 1.1875 1.171875q0.4375 0.71875 0.609375 1.625q0.1875 0.90625 0.1875 1.875q0 0.953125 -0.109375 1.84375l-0.3125 1.96875q-0.140625 0.984375 -0.421875 2.0q-0.265625 1.015625 -0.71875 1.953125q-0.4375 0.921875 -1.09375 1.65625q-0.65625 0.71875 -1.546875 1.125q-0.890625 0.40625 -2.0625 0.375q-1.140625 -0.03125 -1.890625 -0.484375q-0.734375 -0.453125 -1.171875 -1.203125q-0.421875 -0.75 -0.609375 -1.671875q-0.1875 -0.921875 -0.1875 -1.890625q0.015625 -0.96875 0.140625 -1.84375l0.28125 -1.984375q0.15625 -0.984375 0.421875 -1.984375q0.28125 -1.0 0.71875 -1.90625q0.453125 -0.921875 1.09375 -1.625q0.65625 -0.71875 1.546875 -1.109375q0.890625 -0.40625 2.0625 -0.375zm-0.09375 1.609375q-0.96875 -0.03125 -1.640625 0.453125q-0.671875 0.484375 -1.109375 1.28125q-0.421875 0.78125 -0.65625 1.671875q-0.21875 0.890625 -0.34375 1.640625l-0.078125 0.59375l5.6875 0l0.09375 -0.609375q0.0625 -0.5 0.109375 -1.140625q0.046875 -0.65625 0 -1.3125q-0.046875 -0.671875 -0.265625 -1.25q-0.203125 -0.578125 -0.640625 -0.9375q-0.421875 -0.359375 -1.15625 -0.390625zm-2.21875 12.84375q0.796875 0.03125 1.375 -0.28125q0.59375 -0.328125 1.0 -0.890625q0.421875 -0.5625 0.6875 -1.25q0.28125 -0.703125 0.453125 -1.421875q0.171875 -0.71875 0.25 -1.3125l0.0625 -0.421875l-5.703125 0l-0.0625 0.4375q-0.0625 0.484375 -0.109375 1.140625q-0.046875 0.640625 0 1.328125q0.0625 0.6875 0.265625 1.28125q0.203125 0.59375 0.625 0.984375q0.4375 0.375 1.15625 0.40625z" fill-rule="nonzero"/><path fill="#000000" fill-opacity="0.0" d="m352.75854 137.45407l20.724396 0l0 23.244095l-20.724396 0z" fill-rule="evenodd"/><path fill="#ffffff" d="m361.75854 138.27612l5.7128906 0l0 21.59999l-5.7128906 0l0 -21.59999z" fill-rule="nonzero"/><path fill="#000000" fill-opacity="0.0" d="m361.75854 138.8569l5.7128906 0l0 21.09375l-5.7128906 0l0 -21.09375z" fill-rule="nonzero"/><path fill="#111111" d="m367.57104 146.0405l-0.21875 1.25l-5.0 0l0.21875 -1.25l5.0 0zm-2.90625 -2.3125l1.578125 0l-1.609375 9.484375q-0.03125 0.3125 0.015625 0.5625q0.046875 0.25 0.203125 0.390625q0.171875 0.140625 0.515625 0.15625q0.203125 0 0.390625 -0.03125q0.1875 -0.03125 0.375 -0.0625l-0.109375 1.34375q-0.28125 0.078125 -0.578125 0.109375q-0.296875 0.046875 -0.578125 0.03125q-0.734375 0 -1.15625 -0.359375q-0.40625 -0.375 -0.5625 -0.9375q-0.140625 -0.578125 -0.078125 -1.21875l1.59375 -9.46875z" fill-rule="nonzero"/><path fill="#000000" fill-opacity="0.0" d="m0 2.3937008l64.031494 0l0 23.244093l-64.031494 0z" fill-rule="evenodd"/><path fill="#ffffff" d="m12.610567 4.015749l38.810364 0l0 19.999998l-38.810364 0l0 -19.999998z" fill-rule="nonzero"/><path fill="#000000" fill-opacity="0.0" d="m12.610567 4.5631723l5.619858 0l0 19.519043l-5.619858 0l0 -19.519043z" fill-rule="nonzero"/><path fill="#111111" d="m15.063692 20.015749l-1.484375 0l1.671875 -9.718751q0.109375 -0.890625 0.515625 -1.5625q0.40625 -0.671875 1.078125 -1.046875q0.671875 -0.375 1.609375 -0.359375q0.265625 0.015625 0.53125 0.046875q0.265625 0.03125 0.53125 0.09375l-0.1875 1.234375q-0.1875 -0.046875 -0.390625 -0.0625q-0.1875 -0.03125 -0.390625 -0.03125q-0.515625 0 -0.90625 0.21875q-0.375 0.203125 -0.609375 0.59375q-0.21875 0.375 -0.3125 0.859375l-1.65625 9.734376zm3.34375 -8.796876l-0.203125 1.15625l-4.640625 0l0.203125 -1.15625l4.640625 0z" fill-rule="nonzero"/><path fill="#010000" fill-opacity="0.0" d="m18.230425 4.5631723l8.181732 0l0 19.519043l-8.181732 0l0 -19.519043z" fill-rule="nonzero"/><path fill="#000000" fill-opacity="0.0" d="m26.412157 4.5631723l9.832716 0l0 19.519043l-9.832716 0l0 -19.519043z" fill-rule="nonzero"/><path fill="#111111" d="m27.505907 15.281373l0 -0.078125q0 -1.78125 0.390625 -3.203125q0.40625 -1.4375 1.015625 -2.515625q0.625 -1.09375 1.296875 -1.796875q0.6875 -0.71875 1.265625 -1.03125l0.328125 0.984375q-0.484375 0.375 -0.984375 1.015625q-0.484375 0.640625 -0.90625 1.578125q-0.40625 0.9375 -0.65625 2.171875q-0.25 1.234375 -0.25 2.78125l0 0.109375q0 1.546876 0.25 2.796876q0.25 1.234375 0.65625 2.171875q0.421875 0.953125 0.90625 1.609375q0.5 0.65625 0.984375 1.046875l-0.328125 0.921875q-0.578125 -0.328125 -1.265625 -1.046875q-0.671875 -0.703125 -1.296875 -1.78125q-0.609375 -1.078125 -1.015625 -2.515625q-0.390625 -1.4375 -0.390625 -3.218751z" fill-rule="nonzero"/><path fill="#010000" fill-opacity="0.0" d="m36.244873 4.5631723l9.377274 0l0 19.519043l-9.377274 0l0 -19.519043z" fill-rule="nonzero"/><path fill="#111111" d="m41.619873 11.218873l-0.203125 1.15625l-4.625 0l0.203125 -1.15625l4.625 0zm-2.6875 -2.140625l1.453125 0l-1.484375 8.781251q-0.015625 0.28125 0.015625 0.515625q0.046875 0.21875 0.203125 0.359375q0.15625 0.125 0.46875 0.140625q0.171875 0 0.34375 -0.03125q0.1875 -0.03125 0.359375 -0.0625l-0.109375 1.25q-0.25 0.0625 -0.53125 0.09375q-0.265625 0.046875 -0.53125 0.03125q-0.671875 0 -1.0625 -0.328125q-0.375 -0.34375 -0.515625 -0.859375q-0.140625 -0.53125 -0.078125 -1.140625l1.46875 -8.750001z" fill-rule="nonzero"/><path fill="#000000" fill-opacity="0.0" d="m45.622147 4.5631723l5.7987823 0l0 19.519043l-5.7987823 0l0 -19.519043z" fill-rule="nonzero"/><path fill="#111111" d="m50.23152 15.203248l0 0.078125q0 1.781251 -0.40625 3.218751q-0.390625 1.4375 -1.015625 2.515625q-0.609375 1.078125 -1.296875 1.78125q-0.671875 0.71875 -1.25 1.046875l-0.328125 -0.921875q0.484375 -0.359375 0.96875 -1.015625q0.484375 -0.65625 0.90625 -1.609375q0.421875 -0.953125 0.671875 -2.203125q0.25 -1.25 0.25 -2.796876l0 -0.109375q0 -1.546875 -0.28125 -2.796875q-0.265625 -1.25 -0.6875 -2.203125q-0.421875 -0.953125 -0.90625 -1.59375q-0.484375 -0.65625 -0.921875 -1.015625l0.328125 -0.921875q0.578125 0.3125 1.25 1.03125q0.6875 0.703125 1.296875 1.796875q0.625 1.078125 1.015625 2.515625q0.40625 1.421875 0.40625 3.203125z" fill-rule="nonzero"/><path fill="#000000" fill-opacity="0.0" d="m16.818897 17.112862l11.0236225 0l0 12.440945l-11.0236225 0z" fill-rule="evenodd"/><path fill="#ffffff" d="m18.836027 15.733334l6.9893646 0l0 15.200001l-6.9893646 0l0 -15.200001z" fill-rule="nonzero"/><path fill="#000000" fill-opacity="0.0" d="m18.836027 16.151695l6.9893646 0l0 14.831543l-6.9893646 0l0 -14.831543z" fill-rule="nonzero"/><path fill="#111111" d="m23.164152 18.768333q0.640625 0.015625 1.0625 0.28125q0.4375 0.25 0.6875 0.671875q0.25 0.421875 0.359375 0.9375q0.109375 0.515625 0.109375 1.078125q0 0.546875 -0.078125 1.0625l-0.171875 1.125q-0.078125 0.5625 -0.234375 1.15625q-0.15625 0.578125 -0.421875 1.125q-0.25 0.53125 -0.625 0.953125q-0.375 0.40625 -0.890625 0.640625q-0.515625 0.234375 -1.1875 0.21875q-0.65625 -0.015625 -1.09375 -0.265625q-0.421875 -0.265625 -0.671875 -0.703125q-0.234375 -0.4375 -0.34375 -0.96875q-0.109375 -0.53125 -0.109375 -1.078125q0.015625 -0.5625 0.078125 -1.0625l0.171875 -1.140625q0.078125 -0.5625 0.234375 -1.140625q0.15625 -0.578125 0.40625 -1.09375q0.265625 -0.53125 0.640625 -0.9375q0.375 -0.421875 0.890625 -0.640625q0.515625 -0.234375 1.1875 -0.21875zm-0.0625 0.9375q-0.5625 -0.03125 -0.953125 0.25q-0.375 0.28125 -0.625 0.734375q-0.234375 0.453125 -0.375 0.96875q-0.125 0.5 -0.203125 0.9375l-0.046875 0.34375l3.28125 0l0.046875 -0.34375q0.046875 -0.296875 0.0625 -0.65625q0.03125 -0.375 0 -0.75q-0.03125 -0.390625 -0.15625 -0.71875q-0.109375 -0.34375 -0.359375 -0.546875q-0.25 -0.203125 -0.671875 -0.21875zm-1.265625 7.375q0.453125 0.015625 0.78125 -0.15625q0.34375 -0.1875 0.578125 -0.515625q0.234375 -0.328125 0.390625 -0.71875q0.171875 -0.40625 0.265625 -0.8125q0.09375 -0.421875 0.140625 -0.765625l0.046875 -0.234375l-3.28125 0l-0.046875 0.25q-0.03125 0.28125 -0.0625 0.65625q-0.015625 0.375 0 0.765625q0.03125 0.390625 0.140625 0.734375q0.125 0.34375 0.375 0.5625q0.25 0.21875 0.671875 0.234375z" fill-rule="nonzero"/><path fill="#000000" fill-opacity="0.0" d="m21.307087 17.112862l2.047243 -2.047245" fill-rule="evenodd"/><path stroke="#000000" stroke-width="1.0" stroke-linejoin="round" stroke-linecap="butt" d="m21.307087 17.112862l2.047243 -2.047245" fill-rule="evenodd"/><path fill="#000000" fill-opacity="0.0" d="m22.787401 15.175853l1.8267727 1.8267717" fill-rule="evenodd"/><path stroke="#000000" stroke-width="1.0" stroke-linejoin="round" stroke-linecap="butt" d="m22.787401 15.175853l1.8267727 1.8267717" fill-rule="evenodd"/><path fill="#000000" fill-opacity="0.0" d="m25.467192 24.771654l4.062992 0l0 7.5905514l-4.062992 0z" fill-rule="evenodd"/><path fill="#ffffff" d="m21.00206 24.16693l3.9932556 0l0 8.800001l-3.9932556 0l0 -8.800001z" fill-rule="nonzero"/><path fill="#000000" fill-opacity="0.0" d="m21.00206 24.408377l3.9932556 0l0 8.587645l-3.9932556 0l0 -8.587645z" fill-rule="nonzero"/><path fill="#111111" d="m24.048935 25.972555l-0.890625 5.234375l-0.640625 0l0.765625 -4.390625l-1.390625 0.484375l0.125 -0.625l1.921875 -0.703125l0.109375 0z" fill-rule="nonzero"/><path fill="#000000" fill-opacity="0.0" d="m476.1942 146.8622l317.95276 0" fill-rule="evenodd"/><path stroke="#000000" stroke-width="2.0" stroke-linejoin="round" stroke-linecap="butt" d="m476.1942 146.8622l311.09857 0" fill-rule="evenodd"/><path fill="#000000" stroke="#000000" stroke-width="2.0" stroke-linecap="butt" d="m787.2928 146.8622l-2.2491455 2.249176l6.1795654 -2.249176l-6.1795654 -2.2491608z" fill-rule="evenodd"/><path fill="#000000" fill-opacity="0.0" d="m533.23883 146.86592c14.245056 0 22.692688 -17.241714 33.635193 -26.362198c10.931091 -9.111008 28.665222 -8.513702 38.183716 -19.091866c12.19043 -13.547516 19.102112 -38.599754 37.27295 -40.0c10.509766 -0.8098793 23.799988 1.4752731 30.0 10.0c8.454285 11.624199 12.582703 27.482887 24.543335 35.45407c11.448181 7.6296997 27.562988 2.1233597 40.910767 5.456688c12.085632 3.0181427 18.608093 16.572739 28.181091 24.543304c7.660034 6.377838 19.265808 5.5423737 28.181091 10.0" fill-rule="evenodd"/><path stroke="#0000ff" stroke-width="3.0" stroke-linejoin="round" stroke-linecap="butt" d="m533.23883 146.86592c14.245056 0 22.692688 -17.241714 33.635193 -26.362198c10.931091 -9.111008 28.665222 -8.513702 38.183716 -19.091866c12.19043 -13.547516 19.102112 -38.599754 37.27295 -40.0c10.509766 -0.8098793 23.799988 1.4752731 30.0 10.0c8.454285 11.624199 12.582703 27.482887 24.543335 35.45407c11.448181 7.6296997 27.562988 2.1233597 40.910767 5.456688c12.085632 3.0181427 18.608093 16.572739 28.181091 24.543304c7.660034 6.377838 19.265808 5.5423737 28.181091 10.0" fill-rule="evenodd"/><path fill="#000000" fill-opacity="0.0" d="m475.8189 147.0748l0 -118.92913" fill-rule="evenodd"/><path stroke="#000000" stroke-width="2.0" stroke-linejoin="round" stroke-linecap="butt" d="m475.8189 147.0748l0 -106.92913" fill-rule="evenodd"/><path fill="#000000" stroke="#000000" stroke-width="2.0" stroke-linecap="butt" d="m479.12238 40.145668l-3.3034668 -9.076195l-3.3034668 9.076195z" fill-rule="evenodd"/><path fill="#000000" fill-opacity="0.0" d="m598.895 35.97113l0 118.20473" fill-rule="evenodd"/><path stroke="#ff0000" stroke-width="1.0" stroke-linejoin="round" stroke-linecap="butt" d="m598.895 35.97113l0 118.20473" fill-rule="evenodd"/><path fill="#000000" fill-opacity="0.0" d="m584.1601 154.19029l20.724426 0l0 23.244095l-20.724426 0z" fill-rule="evenodd"/><path fill="#ffffff" d="m593.1601 152.61234l12.149414 0l0 26.399994l-12.149414 0l0 -26.399994z" fill-rule="nonzero"/><path fill="#000000" fill-opacity="0.0" d="m593.1601 153.32217l12.149414 0l0 25.78125l-12.149414 0l0 -25.78125z" fill-rule="nonzero"/><path fill="#111111" d="m600.6757 157.87296q1.125 0.03125 1.875 0.484375q0.75 0.4375 1.1875 1.171875q0.4375 0.71875 0.609375 1.625q0.1875 0.90625 0.1875 1.875q0 0.953125 -0.109375 1.84375l-0.3125 1.96875q-0.140625 0.984375 -0.421875 2.0q-0.265625 1.015625 -0.71875 1.953125q-0.4375 0.921875 -1.09375 1.65625q-0.65625 0.71875 -1.546875 1.125q-0.890625 0.40625 -2.0625 0.375q-1.140625 -0.03125 -1.890625 -0.484375q-0.734375 -0.453125 -1.171875 -1.203125q-0.421875 -0.75 -0.609375 -1.671875q-0.1875 -0.921875 -0.1875 -1.890625q0.015625 -0.96875 0.140625 -1.84375l0.28125 -1.984375q0.15625 -0.984375 0.421875 -1.984375q0.28125 -1.0 0.71875 -1.90625q0.453125 -0.921875 1.09375 -1.625q0.65625 -0.71875 1.546875 -1.109375q0.890625 -0.40625 2.0625 -0.375zm-0.09375 1.609375q-0.96875 -0.03125 -1.640625 0.453125q-0.671875 0.484375 -1.109375 1.28125q-0.421875 0.78125 -0.65625 1.671875q-0.21875 0.890625 -0.34375 1.640625l-0.078125 0.59375l5.6875 0l0.09375 -0.609375q0.0625 -0.5 0.109375 -1.140625q0.046875 -0.65625 0 -1.3125q-0.046875 -0.671875 -0.265625 -1.25q-0.203125 -0.578125 -0.640625 -0.9375q-0.421875 -0.359375 -1.15625 -0.390625zm-2.21875 12.84375q0.796875 0.03125 1.375 -0.28125q0.59375 -0.328125 1.0 -0.890625q0.421875 -0.5625 0.6875 -1.25q0.28125 -0.703125 0.453125 -1.421875q0.171875 -0.71875 0.25 -1.3125l0.0625 -0.421875l-5.703125 0l-0.0625 0.4375q-0.0625 0.484375 -0.109375 1.140625q-0.046875 0.640625 0 1.328125q0.0625 0.6875 0.265625 1.28125q0.203125 0.59375 0.625 0.984375q0.4375 0.375 1.15625 0.40625z" fill-rule="nonzero"/><path fill="#000000" fill-opacity="0.0" d="m794.147 136.34776l20.724426 0l0 23.244095l-20.724426 0z" fill-rule="evenodd"/><path fill="#ffffff" d="m803.147 137.16982l5.7128906 0l0 21.600006l-5.7128906 0l0 -21.600006z" fill-rule="nonzero"/><path fill="#000000" fill-opacity="0.0" d="m803.147 137.7506l5.7128906 0l0 21.09375l-5.7128906 0l0 -21.09375z" fill-rule="nonzero"/><path fill="#111111" d="m808.9595 144.93419l-0.21875 1.25l-5.0 0l0.21875 -1.25l5.0 0zm-2.90625 -2.3125l1.578125 0l-1.609375 9.484375q-0.03125 0.3125 0.015625 0.5625q0.046875 0.25 0.203125 0.390625q0.171875 0.140625 0.515625 0.15625q0.203125 0 0.390625 -0.03125q0.1875 -0.03125 0.375 -0.0625l-0.109375 1.34375q-0.28125 0.078125 -0.578125 0.109375q-0.296875 0.046875 -0.578125 0.03125q-0.734375 0 -1.15625 -0.359375q-0.40625 -0.375 -0.5625 -0.9375q-0.140625 -0.578125 -0.078125 -1.21875l1.59375 -9.46875z" fill-rule="nonzero"/><path fill="#000000" fill-opacity="0.0" d="m443.80316 -0.001312336l64.031494 0l0 23.244095l-64.031494 0z" fill-rule="evenodd"/><path fill="#ffffff" d="m456.41373 1.620736l38.810364 0l0 19.999998l-38.810364 0l0 -19.999998z" fill-rule="nonzero"/><path fill="#000000" fill-opacity="0.0" d="m456.41373 2.1681595l13.801575 0l0 19.519043l-13.801575 0l0 -19.519043z" fill-rule="nonzero"/><path fill="#111111" d="m458.86685 17.620735l-1.484375 0l1.671875 -9.71875q0.109375 -0.890625 0.515625 -1.5625q0.40625 -0.671875 1.078125 -1.046875q0.671875 -0.375 1.609375 -0.359375q0.265625 0.015625 0.53125 0.046875q0.265625 0.03125 0.53125 0.09375l-0.1875 1.234375q-0.1875 -0.046875 -0.390625 -0.0625q-0.1875 -0.03125 -0.390625 -0.03125q-0.515625 0 -0.90625 0.21875q-0.375 0.203125 -0.609375 0.59375q-0.21875 0.375 -0.3125 0.859375l-1.65625 9.734375zm3.34375 -8.796875l-0.203125 1.15625l-4.640625 0l0.203125 -1.15625l4.640625 0z" fill-rule="nonzero"/><path fill="#010000" fill-opacity="0.0" d="m470.2153 2.1681595l9.832733 0l0 19.519043l-9.832733 0l0 -19.519043z" fill-rule="nonzero"/><path fill="#111111" d="m471.30905 12.88636l0 -0.078125q0 -1.78125 0.390625 -3.203125q0.40625 -1.4375 1.015625 -2.515625q0.625 -1.09375 1.296875 -1.796875q0.6875 -0.71875 1.265625 -1.03125l0.328125 0.984375q-0.484375 0.375 -0.984375 1.015625q-0.484375 0.640625 -0.90625 1.578125q-0.40625 0.9375 -0.65625 2.171875q-0.25 1.234375 -0.25 2.78125l0 0.109375q0 1.546875 0.25 2.796875q0.25 1.234375 0.65625 2.171875q0.421875 0.953125 0.90625 1.609375q0.5 0.65625 0.984375 1.046875l-0.328125 0.921875q-0.578125 -0.328125 -1.265625 -1.046875q-0.671875 -0.703125 -1.296875 -1.78125q-0.609375 -1.078125 -1.015625 -2.515625q-0.390625 -1.4375 -0.390625 -3.21875z" fill-rule="nonzero"/><path fill="#000000" fill-opacity="0.0" d="m480.04803 2.1681595l9.377258 0l0 19.519043l-9.377258 0l0 -19.519043z" fill-rule="nonzero"/><path fill="#111111" d="m485.42303 8.82386l-0.203125 1.15625l-4.625 0l0.203125 -1.15625l4.625 0zm-2.6875 -2.140625l1.453125 0l-1.484375 8.78125q-0.015625 0.28125 0.015625 0.515625q0.046875 0.21875 0.203125 0.359375q0.15625 0.125 0.46875 0.140625q0.171875 0 0.34375 -0.03125q0.1875 -0.03125 0.359375 -0.0625l-0.109375 1.25q-0.25 0.0625 -0.53125 0.09375q-0.265625 0.046875 -0.53125 0.03125q-0.671875 0 -1.0625 -0.328125q-0.375 -0.34375 -0.515625 -0.859375q-0.140625 -0.53125 -0.078125 -1.140625l1.46875 -8.75z" fill-rule="nonzero"/><path fill="#010000" fill-opacity="0.0" d="m489.4253 2.1681595l5.7987976 0l0 19.519043l-5.7987976 0l0 -19.519043z" fill-rule="nonzero"/><path fill="#111111" d="m494.03467 12.808235l0 0.078125q0 1.78125 -0.40625 3.21875q-0.390625 1.4375 -1.015625 2.515625q-0.609375 1.078125 -1.296875 1.78125q-0.671875 0.71875 -1.25 1.046875l-0.328125 -0.921875q0.484375 -0.359375 0.96875 -1.015625q0.484375 -0.65625 0.90625 -1.609375q0.421875 -0.953125 0.671875 -2.203125q0.25 -1.25 0.25 -2.796875l0 -0.109375q0 -1.546875 -0.28125 -2.796875q-0.265625 -1.25 -0.6875 -2.203125q-0.421875 -0.953125 -0.90625 -1.59375q-0.484375 -0.65625 -0.921875 -1.015625l0.328125 -0.921875q0.578125 0.3125 1.25 1.03125q0.6875 0.703125 1.296875 1.796875q0.625 1.078125 1.015625 2.515625q0.40625 1.421875 0.40625 3.203125z" fill-rule="nonzero"/><path fill="#000000" fill-opacity="0.0" d="m460.62204 14.717848l11.023621 0l0 12.440945l-11.023621 0z" fill-rule="evenodd"/><path fill="#ffffff" d="m462.6392 13.338321l6.9893494 0l0 15.2l-6.9893494 0l0 -15.2z" fill-rule="nonzero"/><path fill="#000000" fill-opacity="0.0" d="m462.6392 13.756682l6.9893494 0l0 14.831542l-6.9893494 0l0 -14.831542z" fill-rule="nonzero"/><path fill="#111111" d="m466.96732 16.37332q0.640625 0.015625 1.0625 0.28125q0.4375 0.25 0.6875 0.671875q0.25 0.421875 0.359375 0.9375q0.109375 0.515625 0.109375 1.078125q0 0.546875 -0.078125 1.0625l-0.171875 1.125q-0.078125 0.5625 -0.234375 1.15625q-0.15625 0.578125 -0.421875 1.125q-0.25 0.53125 -0.625 0.953125q-0.375 0.40625 -0.890625 0.640625q-0.515625 0.234375 -1.1875 0.21875q-0.65625 -0.015625 -1.09375 -0.265625q-0.421875 -0.265625 -0.671875 -0.703125q-0.234375 -0.4375 -0.34375 -0.96875q-0.109375 -0.53125 -0.109375 -1.078125q0.015625 -0.5625 0.078125 -1.0625l0.171875 -1.140625q0.078125 -0.5625 0.234375 -1.140625q0.15625 -0.578125 0.40625 -1.09375q0.265625 -0.53125 0.640625 -0.9375q0.375 -0.421875 0.890625 -0.640625q0.515625 -0.234375 1.1875 -0.21875zm-0.0625 0.9375q-0.5625 -0.03125 -0.953125 0.25q-0.375 0.28125 -0.625 0.734375q-0.234375 0.453125 -0.375 0.96875q-0.125 0.5 -0.203125 0.9375l-0.046875 0.34375l3.28125 0l0.046875 -0.34375q0.046875 -0.296875 0.0625 -0.65625q0.03125 -0.375 0 -0.75q-0.03125 -0.390625 -0.15625 -0.71875q-0.109375 -0.34375 -0.359375 -0.546875q-0.25 -0.203125 -0.671875 -0.21875zm-1.265625 7.375q0.453125 0.015625 0.78125 -0.15625q0.34375 -0.1875 0.578125 -0.515625q0.234375 -0.328125 0.390625 -0.71875q0.171875 -0.40625 0.265625 -0.8125q0.09375 -0.421875 0.140625 -0.765625l0.046875 -0.234375l-3.28125 0l-0.046875 0.25q-0.03125 0.28125 -0.0625 0.65625q-0.015625 0.375 0 0.765625q0.03125 0.390625 0.140625 0.734375q0.125 0.34375 0.375 0.5625q0.25 0.21875 0.671875 0.234375z" fill-rule="nonzero"/><path fill="#000000" fill-opacity="0.0" d="m465.11023 14.717848l2.0472412 -2.047244" fill-rule="evenodd"/><path stroke="#000000" stroke-width="1.0" stroke-linejoin="round" stroke-linecap="butt" d="m465.11023 14.717848l2.0472412 -2.047244" fill-rule="evenodd"/><path fill="#000000" fill-opacity="0.0" d="m466.59055 12.78084l1.8267822 1.8267717" fill-rule="evenodd"/><path stroke="#000000" stroke-width="1.0" stroke-linejoin="round" stroke-linecap="butt" d="m466.59055 12.78084l1.8267822 1.8267717" fill-rule="evenodd"/><path fill="#000000" fill-opacity="0.0" d="m469.27036 22.37664l4.0629883 0l0 7.5905514l-4.0629883 0z" fill-rule="evenodd"/><path fill="#ffffff" d="m464.8052 21.771917l3.9932556 0l0 8.799999l-3.9932556 0l0 -8.799999z" fill-rule="nonzero"/><path fill="#000000" fill-opacity="0.0" d="m464.8052 22.013363l3.9932556 0l0 8.5876465l-3.9932556 0l0 -8.5876465z" fill-rule="nonzero"/><path fill="#111111" d="m468.28958 28.265041l-0.078125 0.546875l-3.328125 0l0.09375 -0.5l1.921875 -1.875q0.1875 -0.203125 0.40625 -0.421875q0.234375 -0.234375 0.390625 -0.484375q0.171875 -0.265625 0.21875 -0.5625q0.03125 -0.234375 -0.046875 -0.4375q-0.078125 -0.203125 -0.25 -0.328125q-0.171875 -0.125 -0.421875 -0.125q-0.34375 -0.015625 -0.59375 0.125q-0.234375 0.125 -0.390625 0.375q-0.140625 0.234375 -0.1875 0.546875l-0.640625 0.015625q0.046875 -0.5 0.296875 -0.859375q0.25 -0.359375 0.640625 -0.5625q0.40625 -0.203125 0.890625 -0.1875q0.40625 0 0.71875 0.171875q0.328125 0.15625 0.5 0.46875q0.171875 0.296875 0.140625 0.71875q-0.015625 0.28125 -0.140625 0.546875q-0.125 0.25 -0.296875 0.484375q-0.171875 0.234375 -0.375 0.453125q-0.1875 0.203125 -0.390625 0.375l-1.59375 1.515625l2.515625 0z" fill-rule="nonzero"/></g></svg>