<svg version="1.1" viewBox="0.0 0.0 794.6745406824147 335.503937007874" fill="none" stroke="none" stroke-linecap="square" stroke-miterlimit="10" xmlns:xlink="http://www.w3.org/1999/xlink" xmlns="http://www.w3.org/2000/svg"><clipPath id="p.0"><path d="m0 0l794.67456 0l0 335.50394l-794.67456 0l0 -335.50394z" clip-rule="nonzero"/></clipPath><g clip-path="url(#p.0)"><path fill="#000000" fill-opacity="0.0" d="m0 0l794.67456 0l0 335.50394l-794.67456 0z" fill-rule="evenodd"/><path shape-rendering="crispEdges" fill="#000000" d="m34.742783 22.254593l113.595795 0l0 63.99475l-113.595795 0l0 -63.99475z" fill-rule="nonzero"/><path shape-rendering="crispEdges" fill="#000000" d="m148.33858 22.254593l113.59581 0l0 63.99475l-113.59581 0l0 -63.99475z" fill-rule="nonzero"/><path stroke="#9e9e9e" stroke-width="1.0" stroke-linecap="butt" d="m34.742783 21.755905l0 189.77953" fill-rule="nonzero"/><path stroke="#9e9e9e" stroke-width="1.0" stroke-linecap="butt" d="m148.33858 21.755905l0 189.77953" fill-rule="nonzero"/><path stroke="#9e9e9e" stroke-width="1.0" stroke-linecap="butt" d="m261.9344 21.755905l0 189.77953" fill-rule="nonzero"/><path stroke="#9e9e9e" stroke-width="1.0" stroke-linecap="butt" d="m34.244095 22.254593l228.18898 0" fill-rule="nonzero"/><path stroke="#9e9e9e" stroke-width="1.0" stroke-linecap="butt" d="m34.244095 86.249344l228.18898 0" fill-rule="nonzero"/><path stroke="#9e9e9e" stroke-width="1.0" stroke-linecap="butt" d="m34.244095 127.845146l228.18898 0" fill-rule="nonzero"/><path stroke="#9e9e9e" stroke-width="1.0" stroke-linecap="butt" d="m34.244095 169.44095l228.18898 0" fill-rule="nonzero"/><path stroke="#9e9e9e" stroke-width="1.0" stroke-linecap="butt" d="m34.244095 211.03674l228.18898 0" fill-rule="nonzero"/><path fill="#ffffff" d="m69.69002 49.77197l0 -13.0625l3.171875 0l0 13.0625l-3.171875 0zm-8.093746 0l0 -13.0625l3.1718712 0l0 13.0625l-3.1718712 0zm1.234375 -5.09375l0.015625 -2.828125l8.531246 0l0 2.828125l-8.546871 0zm17.70509 5.28125q-1.640625 0 -2.859375 -0.65625q-1.203125 -0.671875 -1.875 -1.8125q-0.671875 -1.15625 -0.671875 -2.625q0 -1.140625 0.359375 -2.09375q0.375 -0.953125 1.046875 -1.640625q0.671875 -0.703125 1.59375 -1.078125q0.9375 -0.390625 2.03125 -0.390625q1.046875 0 1.90625 0.375q0.875 0.375 1.5 1.046875q0.640625 0.671875 0.96875 1.59375q0.34375 0.90625 0.3125 1.984375l-0.03125 0.796875l-7.890625 0l-0.421875 -1.671875l5.890625 0l-0.3125 0.34375l0 -0.359375q-0.03125 -0.46875 -0.296875 -0.828125q-0.25 -0.375 -0.65625 -0.578125q-0.40625 -0.203125 -0.9375 -0.203125q-0.71875 0 -1.234375 0.296875q-0.515625 0.28125 -0.78125 0.828125q-0.25 0.546875 -0.25 1.359375q0 0.8125 0.34375 1.421875q0.34375 0.609375 1.0 0.953125q0.671875 0.328125 1.578125 0.328125q0.640625 0 1.125 -0.1875q0.5 -0.1875 1.078125 -0.640625l1.40625 1.984375q-0.578125 0.5 -1.234375 0.828125q-0.65625 0.3125 -1.34375 0.46875q-0.671875 0.15625 -1.34375 0.15625zm6.3856964 -0.1875l0 -9.90625l2.984375 0l0 9.90625l-2.984375 0zm1.484375 -11.859375q-0.84375 0 -1.328125 -0.40625q-0.46875 -0.40625 -0.46875 -1.140625q0 -0.671875 0.484375 -1.09375q0.5 -0.4375 1.3125 -0.4375q0.84375 0 1.296875 0.40625q0.46875 0.390625 0.46875 1.125q0 0.6875 -0.46875 1.125q-0.46875 0.421875 -1.296875 0.421875zm8.82634 16.15625q-1.21875 0 -2.421875 -0.359375q-1.203125 -0.359375 -1.9375 -0.921875l1.03125 -2.078125q0.390625 0.25 0.859375 0.4375q0.484375 0.203125 1.0 0.3125q0.53125 0.125 1.078125 0.125q0.953125 0 1.546875 -0.28125q0.59375 -0.28125 0.890625 -0.859375q0.296875 -0.5625 0.296875 -1.421875l0 -1.65625l0.578125 0.09375q-0.125 0.609375 -0.640625 1.125q-0.515625 0.5 -1.265625 0.8125q-0.734375 0.296875 -1.578125 0.296875q-1.34375 0 -2.40625 -0.625q-1.046875 -0.625 -1.65625 -1.734375q-0.59375 -1.109375 -0.59375 -2.5625q0 -1.5 0.59375 -2.640625q0.59375 -1.140625 1.640625 -1.796875q1.046875 -0.671875 2.34375 -0.671875q0.5625 0 1.078125 0.140625q0.515625 0.125 0.953125 0.34375q0.4375 0.203125 0.78125 0.5q0.34375 0.28125 0.5625 0.625q0.21875 0.328125 0.28125 0.6875l-0.609375 0.140625l0.109375 -2.234375l2.84375 0l0 9.109375q0 1.203125 -0.375 2.140625q-0.359375 0.953125 -1.0625 1.609375q-0.703125 0.671875 -1.6875 1.0q-0.984375 0.34375 -2.234375 0.34375zm0.078125 -6.6875q0.71875 0 1.25 -0.328125q0.53125 -0.328125 0.8125 -0.90625q0.296875 -0.578125 0.296875 -1.359375q0 -0.78125 -0.296875 -1.359375q-0.28125 -0.59375 -0.8125 -0.921875q-0.53125 -0.328125 -1.25 -0.328125q-0.71875 0 -1.25 0.328125q-0.515625 0.328125 -0.8125 0.921875q-0.28125 0.578125 -0.28125 1.359375q0 0.78125 0.28125 1.359375q0.296875 0.578125 0.8125 0.90625q0.53125 0.328125 1.25 0.328125zm7.8716583 2.390625l0 -13.8125l2.921875 0l0 5.921875l-0.59375 0.21875q0.203125 -0.671875 0.734375 -1.21875q0.53125 -0.546875 1.28125 -0.875q0.75 -0.34375 1.5625 -0.34375q1.125 0 1.890625 0.453125q0.765625 0.453125 1.15625 1.359375q0.390625 0.90625 0.390625 2.21875l0 6.078125l-3.0 0l0 -5.84375q0 -0.59375 -0.171875 -0.984375q-0.171875 -0.390625 -0.515625 -0.578125q-0.34375 -0.203125 -0.84375 -0.1875q-0.390625 0 -0.734375 0.125q-0.328125 0.125 -0.578125 0.359375q-0.234375 0.21875 -0.375 0.53125q-0.140625 0.296875 -0.140625 0.640625l0 5.9375l-1.484375 0q-0.515625 0 -0.890625 0q-0.375 0 -0.609375 0zm12.659225 0l0 -12.40625l2.984375 0l0 12.40625l-2.984375 0zm-1.75 -7.296875l0 -2.609375l6.65625 0l0 2.609375l-6.65625 0z" fill-rule="nonzero"/><path fill="#ffffff" d="m80.77196 75.64072q-2.265625 -1.421875 -3.46875 -3.546875q-1.1875 -2.125 -1.1875 -4.734375q0 -2.59375 1.203125 -4.71875q1.203125 -2.140625 3.46875 -3.5625l1.6875 1.578125q-1.71875 1.203125 -2.578125 2.953125q-0.84375 1.75 -0.84375 3.75q0 2.0 0.84375 3.75q0.859375 1.75 2.578125 2.953125l-1.703125 1.578125zm3.36969 -3.46875l0 -9.90625l2.984375 0l0 9.90625l-2.984375 0zm1.484375 -11.859375q-0.84375 0 -1.328125 -0.40625q-0.46875 -0.40625 -0.46875 -1.140625q0 -0.671875 0.484375 -1.09375q0.5 -0.4375 1.3125 -0.4375q0.84375 0 1.296875 0.40625q0.46875 0.390625 0.46875 1.125q0 0.6875 -0.46875 1.125q-0.46875 0.421875 -1.296875 0.421875zm4.2950897 11.859375l0 -9.90625l2.828125 0l0.09375 2.015625l-0.59375 0.21875q0.203125 -0.671875 0.734375 -1.21875q0.53125 -0.546875 1.28125 -0.875q0.75 -0.34375 1.5625 -0.34375q1.125 0 1.890625 0.453125q0.765625 0.453125 1.15625 1.359375q0.390625 0.90625 0.390625 2.21875l0 6.078125l-3.0 0l0 -5.84375q0 -0.59375 -0.171875 -0.984375q-0.171875 -0.390625 -0.515625 -0.578125q-0.34375 -0.203125 -0.84375 -0.1875q-0.390625 0 -0.734375 0.125q-0.328125 0.125 -0.578125 0.359375q-0.234375 0.21875 -0.375 0.53125q-0.140625 0.296875 -0.140625 0.640625l0 5.9375l-1.484375 0q-0.515625 0 -0.890625 0q-0.375 0 -0.609375 0zm12.36235 3.46875l-1.671875 -1.578125q1.71875 -1.203125 2.546875 -2.953125q0.84375 -1.75 0.84375 -3.75q0 -2.0 -0.84375 -3.75q-0.828125 -1.75 -2.546875 -2.953125l1.6875 -1.578125q2.28125 1.421875 3.46875 3.546875q1.203125 2.125 1.203125 4.734375q0 2.59375 -1.203125 4.734375q-1.203125 2.125 -3.484375 3.546875z" fill-rule="nonzero"/><path fill="#ffffff" d="m175.78856 49.77197l-3.921875 -13.0625l3.21875 0l1.96875 6.875q0.125 0.453125 0.21875 0.9375q0.109375 0.46875 0.171875 0.90625q0.078125 0.421875 0.109375 0.796875q0.03125 0.359375 0.078125 0.59375l-0.421875 0q0.125 -0.6875 0.203125 -1.21875q0.078125 -0.546875 0.1875 -1.015625q0.125 -0.484375 0.28125 -1.0l1.953125 -5.171875l2.53125 0l1.90625 5.171875q0.21875 0.609375 0.359375 1.15625q0.15625 0.53125 0.234375 1.03125q0.09375 0.5 0.15625 0.984375l-0.375 0.046875q0.03125 -0.328125 0.046875 -0.609375q0.015625 -0.296875 0.046875 -0.5625q0.03125 -0.28125 0.0625 -0.578125q0.046875 -0.296875 0.109375 -0.65625q0.078125 -0.375 0.21875 -0.84375l1.9375 -6.84375l3.15625 0l-3.921875 13.0625l-2.421875 0l-3.09375 -7.515625l0.34375 0.03125l-2.84375 7.484375l-2.5 0zm20.10588 0.1875q-1.640625 0 -2.859375 -0.65625q-1.203125 -0.671875 -1.875 -1.8125q-0.671875 -1.15625 -0.671875 -2.625q0 -1.140625 0.359375 -2.09375q0.375 -0.953125 1.046875 -1.640625q0.671875 -0.703125 1.59375 -1.078125q0.9375 -0.390625 2.03125 -0.390625q1.046875 0 1.90625 0.375q0.875 0.375 1.5 1.046875q0.640625 0.671875 0.96875 1.59375q0.34375 0.90625 0.3125 1.984375l-0.03125 0.796875l-7.890625 0l-0.421875 -1.671875l5.890625 0l-0.3125 0.34375l0 -0.359375q-0.03125 -0.46875 -0.296875 -0.828125q-0.25 -0.375 -0.65625 -0.578125q-0.40625 -0.203125 -0.9375 -0.203125q-0.71875 0 -1.234375 0.296875q-0.515625 0.28125 -0.78125 0.828125q-0.25 0.546875 -0.25 1.359375q0 0.8125 0.34375 1.421875q0.34375 0.609375 1.0 0.953125q0.671875 0.328125 1.578125 0.328125q0.640625 0 1.125 -0.1875q0.5 -0.1875 1.078125 -0.640625l1.40625 1.984375q-0.578125 0.5 -1.234375 0.828125q-0.65625 0.3125 -1.34375 0.46875q-0.671875 0.15625 -1.34375 0.15625zm6.3856964 -0.1875l0 -9.90625l2.984375 0l0 9.90625l-2.984375 0zm1.484375 -11.859375q-0.84375 0 -1.328125 -0.40625q-0.46875 -0.40625 -0.46875 -1.140625q0 -0.671875 0.484375 -1.09375q0.5 -0.4375 1.3125 -0.4375q0.84375 0 1.296875 0.40625q0.46875 0.390625 0.46875 1.125q0 0.6875 -0.46875 1.125q-0.46875 0.421875 -1.296875 0.421875zm8.826324 16.15625q-1.2187347 0 -2.4218597 -0.359375q-1.203125 -0.359375 -1.9375 -0.921875l1.03125 -2.078125q0.390625 0.25 0.859375 0.4375q0.484375 0.203125 1.0 0.3125q0.53125 0.125 1.078125 0.125q0.95310974 0 1.5468597 -0.28125q0.59375 -0.28125 0.890625 -0.859375q0.296875 -0.5625 0.296875 -1.421875l0 -1.65625l0.578125 0.09375q-0.125 0.609375 -0.640625 1.125q-0.515625 0.5 -1.265625 0.8125q-0.734375 0.296875 -1.5781097 0.296875q-1.34375 0 -2.40625 -0.625q-1.046875 -0.625 -1.65625 -1.734375q-0.59375 -1.109375 -0.59375 -2.5625q0 -1.5 0.59375 -2.640625q0.59375 -1.140625 1.640625 -1.796875q1.046875 -0.671875 2.34375 -0.671875q0.56248474 0 1.0781097 0.140625q0.515625 0.125 0.953125 0.34375q0.4375 0.203125 0.78125 0.5q0.34375 0.28125 0.5625 0.625q0.21875 0.328125 0.28125 0.6875l-0.609375 0.140625l0.109375 -2.234375l2.84375 0l0 9.109375q0 1.203125 -0.375 2.140625q-0.359375 0.953125 -1.0625 1.609375q-0.703125 0.671875 -1.6875 1.0q-0.984375 0.34375 -2.234375 0.34375zm0.078125 -6.6875q0.71875 0 1.25 -0.328125q0.53125 -0.328125 0.8125 -0.90625q0.296875 -0.578125 0.296875 -1.359375q0 -0.78125 -0.296875 -1.359375q-0.28125 -0.59375 -0.8125 -0.921875q-0.53125 -0.328125 -1.25 -0.328125q-0.71873474 0 -1.2499847 0.328125q-0.515625 0.328125 -0.8125 0.921875q-0.28125 0.578125 -0.28125 1.359375q0 0.78125 0.28125 1.359375q0.296875 0.578125 0.8125 0.90625q0.53125 0.328125 1.2499847 0.328125zm7.8716583 2.390625l0 -13.8125l2.921875 0l0 5.921875l-0.59375 0.21875q0.203125 -0.671875 0.734375 -1.21875q0.53125 -0.546875 1.28125 -0.875q0.75 -0.34375 1.5625 -0.34375q1.125 0 1.890625 0.453125q0.765625 0.453125 1.15625 1.359375q0.390625 0.90625 0.390625 2.21875l0 6.078125l-3.0 0l0 -5.84375q0 -0.59375 -0.171875 -0.984375q-0.171875 -0.390625 -0.515625 -0.578125q-0.34375 -0.203125 -0.84375 -0.1875q-0.390625 0 -0.734375 0.125q-0.328125 0.125 -0.578125 0.359375q-0.234375 0.21875 -0.375 0.53125q-0.140625 0.296875 -0.140625 0.640625l0 5.9375l-1.484375 0q-0.515625 0 -0.890625 0q-0.375 0 -0.609375 0zm12.659225 0l0 -12.40625l2.984375 0l0 12.40625l-2.984375 0zm-1.75 -7.296875l0 -2.609375l6.65625 0l0 2.609375l-6.65625 0z" fill-rule="nonzero"/><path fill="#ffffff" d="m189.6757 75.64072q-2.265625 -1.421875 -3.46875 -3.546875q-1.1875 -2.125 -1.1875 -4.734375q0 -2.59375 1.203125 -4.71875q1.203125 -2.140625 3.46875 -3.5625l1.6875 1.578125q-1.71875 1.203125 -2.578125 2.953125q-0.84375 1.75 -0.84375 3.75q0 2.0 0.84375 3.75q0.859375 1.75 2.578125 2.953125l-1.703125 1.578125zm3.21344 -3.46875l0 -13.8125l2.984375 0l0 13.8125l-2.984375 0zm11.609009 0.203125q-0.671875 0 -1.296875 -0.1875q-0.609375 -0.1875 -1.109375 -0.5q-0.484375 -0.3125 -0.8125 -0.734375q-0.328125 -0.421875 -0.4375 -0.875l0.640625 -0.21875l-0.15625 2.296875l-2.78125 0l0 -13.796875l3.0 0l0 6.28125l-0.609375 -0.234375q0.109375 -0.484375 0.421875 -0.890625q0.3125 -0.421875 0.796875 -0.75q0.484375 -0.328125 1.0625 -0.515625q0.578125 -0.1875 1.203125 -0.1875q1.28125 0 2.28125 0.671875q1.0 0.65625 1.578125 1.828125q0.578125 1.15625 0.578125 2.640625q0 1.515625 -0.578125 2.6875q-0.5625 1.15625 -1.546875 1.828125q-0.984375 0.65625 -2.234375 0.65625zm-0.78125 -2.515625q0.65625 0 1.15625 -0.328125q0.515625 -0.34375 0.78125 -0.921875q0.28125 -0.59375 0.28125 -1.40625q0 -0.78125 -0.28125 -1.375q-0.265625 -0.59375 -0.78125 -0.90625q-0.5 -0.328125 -1.15625 -0.328125q-0.703125 0 -1.203125 0.328125q-0.5 0.3125 -0.78125 0.90625q-0.28125 0.59375 -0.28125 1.375q0 0.8125 0.28125 1.40625q0.28125 0.578125 0.78125 0.921875q0.5 0.328125 1.203125 0.328125zm10.447693 2.5q-1.46875 0 -2.578125 -0.46875q-1.109375 -0.46875 -1.765625 -1.25l1.8125 -1.5625q0.578125 0.578125 1.296875 0.84375q0.734375 0.265625 1.390625 0.265625q0.265625 0 0.46875 -0.046875q0.203125 -0.0625 0.34375 -0.15625q0.140625 -0.109375 0.21875 -0.25q0.078125 -0.140625 0.078125 -0.328125q0 -0.375 -0.34375 -0.578125q-0.171875 -0.09375 -0.5625 -0.21875q-0.390625 -0.125 -1.0 -0.296875q-0.875 -0.21875 -1.53125 -0.53125q-0.640625 -0.3125 -1.046875 -0.71875q-0.375 -0.390625 -0.578125 -0.859375q-0.203125 -0.484375 -0.203125 -1.078125q0 -0.703125 0.328125 -1.25q0.328125 -0.5625 0.875 -0.96875q0.546875 -0.421875 1.265625 -0.625q0.71875 -0.21875 1.484375 -0.21875q0.828125 0 1.5625 0.1875q0.75 0.1875 1.390625 0.53125q0.65625 0.328125 1.15625 0.796875l-1.578125 1.75q-0.328125 -0.3125 -0.75 -0.5625q-0.421875 -0.265625 -0.875 -0.40625q-0.4375 -0.15625 -0.8125 -0.15625q-0.28125 0 -0.5 0.046875q-0.203125 0.046875 -0.359375 0.15625q-0.140625 0.09375 -0.21875 0.234375q-0.078125 0.140625 -0.078125 0.328125q0 0.1875 0.09375 0.359375q0.109375 0.171875 0.296875 0.28125q0.1875 0.109375 0.59375 0.25q0.421875 0.140625 1.125 0.34375q0.875 0.234375 1.5 0.546875q0.640625 0.296875 1.015625 0.703125q0.296875 0.3125 0.4375 0.734375q0.15625 0.421875 0.15625 0.90625q0 0.953125 -0.53125 1.6875q-0.53125 0.734375 -1.46875 1.15625q-0.921875 0.421875 -2.109375 0.421875zm6.406723 3.28125l-1.671875 -1.578125q1.71875 -1.203125 2.546875 -2.953125q0.84375 -1.75 0.84375 -3.75q0 -2.0 -0.84375 -3.75q-0.828125 -1.75 -2.546875 -2.953125l1.6875 -1.578125q2.28125 1.421875 3.46875 3.546875q1.203125 2.125 1.203125 4.734375q0 2.59375 -1.203125 4.734375q-1.203125 2.125 -3.484375 3.546875z" fill-rule="nonzero"/><path fill="#000000" d="m79.94198 113.86099q-0.96875 0 -1.8125 -0.328125q-0.828125 -0.34375 -1.4375 -0.96875q-0.59375 -0.625 -0.9375 -1.46875q-0.328125 -0.859375 -0.328125 -1.859375q0 -0.484375 0.125 -1.0625q0.125 -0.59375 0.390625 -1.296875q0.265625 -0.703125 0.640625 -1.46875q0.375 -0.765625 0.859375 -1.578125l1.890625 -3.234375l1.421875 0l0.078125 0.1875l-2.109375 3.546875q-0.453125 0.75 -0.8125 1.484375q-0.359375 0.71875 -0.6875 1.453125q-0.3125 0.734375 -0.609375 1.5l-0.265625 -1.34375q0.359375 -0.59375 0.78125 -1.03125q0.421875 -0.453125 0.90625 -0.78125q0.484375 -0.328125 1.03125 -0.484375q0.546875 -0.171875 1.125 -0.171875q1.140625 0 2.0625 0.59375q0.921875 0.59375 1.484375 1.5625q0.5625 0.96875 0.5625 2.15625q0 1.3125 -0.578125 2.359375q-0.578125 1.046875 -1.578125 1.640625q-1.0 0.59375 -2.203125 0.59375zm-0.0625 -1.359375q0.84375 0 1.515625 -0.40625q0.671875 -0.421875 1.0625 -1.109375q0.390625 -0.703125 0.390625 -1.578125q0 -0.828125 -0.390625 -1.515625q-0.390625 -0.703125 -1.0625 -1.125q-0.671875 -0.421875 -1.5 -0.421875q-0.875 0 -1.5625 0.40625q-0.671875 0.40625 -1.0625 1.109375q-0.390625 0.6875 -0.390625 1.515625q0 0.890625 0.390625 1.59375q0.390625 0.6875 1.0625 1.109375q0.6875 0.421875 1.546875 0.421875zm9.177444 0.625l0 -11.265625l0.546875 0.40625l-2.421875 1.46875l-0.4375 -1.3125l3.234375 -1.90625l0.546875 0l0 12.609375l-1.46875 0zm-1.921875 0.640625l0 -1.421875l5.359375 0l0 1.421875l-5.359375 0zm8.732071 0.1875q-0.5 0 -0.78125 -0.296875q-0.265625 -0.296875 -0.265625 -0.859375q0 -0.5 0.28125 -0.828125q0.296875 -0.328125 0.765625 -0.328125q0.5 0 0.765625 0.3125q0.28125 0.296875 0.28125 0.84375q0 0.515625 -0.296875 0.84375q-0.28125 0.3125 -0.75 0.3125zm6.925514 -0.0625q-1.296875 0 -2.34375 -0.578125q-1.03125 -0.59375 -1.7187576 -1.6875l0.8750076 -0.953125q0.78125 1.046875 1.5625 1.453125q0.796875 0.390625 1.640625 0.390625q0.890625 0 1.625 -0.421875q0.75 -0.421875 1.171875 -1.125q0.4375 -0.703125 0.4375 -1.5625q0 -0.84375 -0.40625 -1.515625q-0.390625 -0.6875 -1.0625 -1.09375q-0.671875 -0.40625 -1.546875 -0.40625q-0.453125 0 -0.921875 0.109375q-0.46875 0.109375 -0.96875 0.328125q-0.484375 0.203125 -1.046875 0.515625l-0.828125 -1.09375l0.765625 -5.546875l7.046875 0l0 1.359375l-6.28125 0l0.46875 -0.328125l-0.6875 4.5625l-0.4375 -0.296875q0.296875 -0.234375 0.796875 -0.453125q0.515625 -0.234375 1.125 -0.375q0.609375 -0.140625 1.1875 -0.140625q1.203125 0 2.15625 0.5625q0.953125 0.546875 1.515625 1.515625q0.5625 0.953125 0.5625 2.203125q0 1.296875 -0.625 2.34375q-0.609375 1.03125 -1.671875 1.640625q-1.0625 0.59375 -2.390625 0.59375z" fill-rule="nonzero"/><path fill="#000000" d="m187.01878 113.12662l0 -11.265625l0.546875 0.40625l-2.421875 1.46875l-0.4375 -1.3125l3.234375 -1.90625l0.546875 0l0 12.609375l-1.46875 0zm-1.921875 0.640625l0 -1.421875l5.359375 0l0 1.421875l-5.359375 0zm11.388321 0.1875q-1.390625 0 -2.453125 -0.625q-1.046875 -0.625 -1.953125 -2.140625l1.1875 -0.75q0.515625 0.8125 1.046875 1.296875q0.53125 0.46875 1.078125 0.671875q0.5625 0.203125 1.203125 0.203125q0.78125 0 1.4375 -0.375q0.65625 -0.390625 1.046875 -1.046875q0.390625 -0.671875 0.390625 -1.484375q0 -0.84375 -0.359375 -1.46875q-0.359375 -0.640625 -0.984375 -1.0q-0.625 -0.359375 -1.4375 -0.359375q-0.296875 0 -0.640625 0.078125q-0.34375 0.0625 -0.75 0.234375q-0.40625 0.171875 -0.875 0.515625l-0.421875 -1.15625l4.609375 -5.015625l0.3125 0.53125l-5.9375 0l0 -1.359375l7.0625 0l0.375 0.75l-4.484375 4.78125l-0.375 -0.375q0.25 -0.15625 0.578125 -0.25q0.34375 -0.109375 0.671875 -0.109375q0.859375 0 1.609375 0.328125q0.75 0.3125 1.296875 0.875q0.546875 0.5625 0.859375 1.3125q0.328125 0.75 0.328125 1.625q0 1.21875 -0.578125 2.203125q-0.578125 0.96875 -1.59375 1.546875q-1.0 0.5625 -2.25 0.5625zm10.791031 0q-1.53125 0 -2.609375 -0.796875q-1.0625 -0.8125 -1.640625 -2.3125q-0.5625 -1.5 -0.5625 -3.609375q0 -2.109375 0.5625 -3.609375q0.578125 -1.5 1.640625 -2.296875q1.078125 -0.8125 2.609375 -0.8125q1.515625 0 2.59375 0.8125q1.09375 0.796875 1.65625 2.296875q0.5625 1.5 0.5625 3.609375q0 2.109375 -0.5625 3.609375q-0.5625 1.5 -1.65625 2.3125q-1.078125 0.796875 -2.59375 0.796875zm0 -1.359375q1.609375 0 2.46875 -1.390625q0.875 -1.40625 0.875 -3.96875q0 -2.546875 -0.875 -3.953125q-0.859375 -1.40625 -2.46875 -1.40625q-1.625 0 -2.5 1.40625q-0.859375 1.40625 -0.859375 3.953125q0 2.5625 0.859375 3.96875q0.875 1.390625 2.5 1.390625zm7.839508 1.359375q-0.5 0 -0.78125 -0.296875q-0.265625 -0.296875 -0.265625 -0.859375q0 -0.5 0.28125 -0.828125q0.296875 -0.328125 0.765625 -0.328125q0.5 0 0.765625 0.3125q0.28125 0.296875 0.28125 0.84375q0 0.515625 -0.296875 0.84375q-0.28125 0.3125 -0.75 0.3125zm6.9098816 0q-1.390625 0 -2.453125 -0.625q-1.046875 -0.625 -1.953125 -2.140625l1.1875 -0.75q0.515625 0.8125 1.046875 1.296875q0.53125 0.46875 1.078125 0.671875q0.5625 0.203125 1.203125 0.203125q0.78125 0 1.4375 -0.375q0.65625 -0.390625 1.046875 -1.046875q0.390625 -0.671875 0.390625 -1.484375q0 -0.84375 -0.359375 -1.46875q-0.359375 -0.640625 -0.984375 -1.0q-0.625 -0.359375 -1.4375 -0.359375q-0.296875 0 -0.640625 0.078125q-0.34375 0.0625 -0.75 0.234375q-0.40625 0.171875 -0.875 0.515625l-0.421875 -1.15625l4.609375 -5.015625l0.3125 0.53125l-5.9375 0l0 -1.359375l7.0625 0l0.375 0.75l-4.484375 4.78125l-0.375 -0.375q0.25 -0.15625 0.578125 -0.25q0.34375 -0.109375 0.671875 -0.109375q0.859375 0 1.609375 0.328125q0.75 0.3125 1.296875 0.875q0.546875 0.5625 0.859375 1.3125q0.328125 0.75 0.328125 1.625q0 1.21875 -0.578125 2.203125q-0.578125 0.96875 -1.59375 1.546875q-1.0 0.5625 -2.25 0.5625z" fill-rule="nonzero"/><path fill="#000000" d="m76.12529 155.36304l5.484375 -12.203125l0.234375 0.5l-6.984375 0l0 -1.359375l7.859375 0l0.25 1.140625l-5.265625 11.921875l-1.578125 0zm8.987671 0l-0.453125 -1.078125l4.40625 -4.953125q0.3125 -0.34375 0.65625 -0.796875q0.359375 -0.453125 0.65625 -0.9375q0.3125 -0.5 0.5 -0.984375q0.1875 -0.484375 0.1875 -0.953125q0 -0.6875 -0.296875 -1.15625q-0.296875 -0.484375 -0.859375 -0.734375q-0.546875 -0.265625 -1.265625 -0.265625q-0.640625 0 -1.265625 0.296875q-0.609375 0.296875 -1.109375 0.921875q-0.5 0.609375 -0.78125 1.5625l-1.15625 -0.703125q0.328125 -1.125 0.984375 -1.90625q0.65625 -0.78125 1.546875 -1.171875q0.90625 -0.390625 1.921875 -0.390625q1.09375 0 1.9375 0.4375q0.859375 0.4375 1.359375 1.234375q0.515625 0.796875 0.515625 1.828125q0 0.4375 -0.109375 0.890625q-0.09375 0.453125 -0.3125 0.90625q-0.203125 0.4375 -0.5 0.90625q-0.28125 0.46875 -0.671875 0.953125q-0.375 0.484375 -0.828125 1.0l-3.75 4.171875l-0.234375 -0.484375l6.8125 0l0 1.40625l-7.890625 0zm10.614258 0.1875q-0.5 0 -0.78125 -0.296875q-0.265625 -0.296875 -0.265625 -0.859375q0 -0.5 0.28125 -0.828125q0.296875 -0.328125 0.765625 -0.328125q0.5 0 0.765625 0.3125q0.28125 0.296875 0.28125 0.84375q0 0.515625 -0.296875 0.84375q-0.28125 0.3125 -0.75 0.3125zm8.755722 -0.1875l0 -11.328125l0.40625 0.140625l-5.40625 6.59375l-0.15625 -0.328125l8.84375 0l0 1.375l-9.375 0l-0.703125 -1.375l6.671875 -8.140625l1.125 0l0 13.0625l-1.40625 0z" fill-rule="nonzero"/><path fill="#000000" d="m186.12328 154.72241l0 -11.265625l0.546875 0.40625l-2.421875 1.46875l-0.4375 -1.3125l3.234375 -1.90625l0.546875 0l0 12.609375l-1.46875 0zm-1.921875 0.640625l0 -1.421875l5.359375 0l0 1.421875l-5.359375 0zm12.013321 0.0625q-1.203125 0 -2.203125 -0.515625q-1.0 -0.515625 -1.609375 -1.375q-0.59375 -0.875 -0.59375 -1.921875q0 -0.578125 0.171875 -1.09375q0.1875 -0.515625 0.53125 -0.953125q0.34375 -0.4375 0.84375 -0.796875q0.515625 -0.359375 1.171875 -0.625l-0.125 0.390625q-0.5 -0.15625 -0.90625 -0.421875q-0.40625 -0.28125 -0.6875 -0.640625q-0.28125 -0.375 -0.4375 -0.8125q-0.140625 -0.4375 -0.140625 -0.90625q0 -0.953125 0.53125 -1.734375q0.53125 -0.78125 1.4375 -1.25q0.90625 -0.46875 2.015625 -0.46875q1.109375 0 2.015625 0.46875q0.90625 0.46875 1.4375 1.25q0.53125 0.78125 0.53125 1.734375q0 0.46875 -0.140625 0.90625q-0.140625 0.421875 -0.421875 0.78125q-0.28125 0.359375 -0.703125 0.640625q-0.421875 0.28125 -0.9375 0.453125l-0.0625 -0.3125q0.59375 0.203125 1.09375 0.5625q0.5 0.359375 0.84375 0.8125q0.359375 0.453125 0.546875 0.96875q0.203125 0.5 0.203125 1.046875q0 1.0625 -0.59375 1.9375q-0.578125 0.859375 -1.578125 1.375q-1.0 0.5 -2.234375 0.5zm0 -1.390625q0.84375 0 1.5 -0.328125q0.671875 -0.328125 1.046875 -0.875q0.390625 -0.5625 0.390625 -1.25q0 -0.71875 -0.390625 -1.265625q-0.375 -0.546875 -1.046875 -0.875q-0.65625 -0.328125 -1.5 -0.328125q-0.828125 0 -1.5 0.328125q-0.65625 0.328125 -1.046875 0.875q-0.375 0.546875 -0.375 1.265625q0 0.6875 0.375 1.234375q0.390625 0.546875 1.046875 0.890625q0.671875 0.328125 1.5 0.328125zm0 -6.171875q0.71875 0 1.28125 -0.25q0.5625 -0.265625 0.890625 -0.734375q0.328125 -0.46875 0.328125 -1.09375q0 -0.59375 -0.328125 -1.0625q-0.328125 -0.484375 -0.890625 -0.75q-0.5625 -0.28125 -1.28125 -0.28125q-0.71875 0 -1.296875 0.28125q-0.5625 0.265625 -0.890625 0.75q-0.328125 0.46875 -0.328125 1.0625q0 0.609375 0.328125 1.09375q0.328125 0.46875 0.890625 0.734375q0.578125 0.25 1.296875 0.25zm11.117508 7.6875q-1.53125 0 -2.609375 -0.796875q-1.0625 -0.8125 -1.640625 -2.3125q-0.5625 -1.5 -0.5625 -3.609375q0 -2.109375 0.5625 -3.609375q0.578125 -1.5 1.640625 -2.296875q1.078125 -0.8125 2.609375 -0.8125q1.515625 0 2.59375 0.8125q1.09375 0.796875 1.65625 2.296875q0.5625 1.5 0.5625 3.609375q0 2.109375 -0.5625 3.609375q-0.5625 1.5 -1.65625 2.3125q-1.078125 0.796875 -2.59375 0.796875zm0 -1.359375q1.609375 0 2.46875 -1.390625q0.875 -1.40625 0.875 -3.96875q0 -2.546875 -0.875 -3.953125q-0.859375 -1.40625 -2.46875 -1.40625q-1.625 0 -2.5 1.40625q-0.859375 1.40625 -0.859375 3.953125q0 2.5625 0.859375 3.96875q0.875 1.390625 2.5 1.390625zm7.839508 1.359375q-0.5 0 -0.78125 -0.296875q-0.265625 -0.296875 -0.265625 -0.859375q0 -0.5 0.28125 -0.828125q0.296875 -0.328125 0.765625 -0.328125q0.5 0 0.765625 0.3125q0.28125 0.296875 0.28125 0.84375q0 0.515625 -0.296875 0.84375q-0.28125 0.3125 -0.75 0.3125zm7.5817566 -0.09375q-0.96875 0 -1.8125 -0.328125q-0.828125 -0.34375 -1.4375 -0.96875q-0.59375 -0.625 -0.9375 -1.46875q-0.328125 -0.859375 -0.328125 -1.859375q0 -0.484375 0.125 -1.0625q0.125 -0.59375 0.390625 -1.296875q0.265625 -0.703125 0.640625 -1.46875q0.375 -0.765625 0.859375 -1.578125l1.890625 -3.234375l1.421875 0l0.078125 0.1875l-2.109375 3.546875q-0.453125 0.75 -0.8125 1.484375q-0.359375 0.71875 -0.6875 1.453125q-0.3125 0.734375 -0.609375 1.5l-0.265625 -1.34375q0.359375 -0.59375 0.78125 -1.03125q0.421875 -0.453125 0.90625 -0.78125q0.484375 -0.328125 1.03125 -0.484375q0.546875 -0.171875 1.125 -0.171875q1.140625 0 2.0625 0.59375q0.921875 0.59375 1.484375 1.5625q0.5625 0.96875 0.5625 2.15625q0 1.3125 -0.578125 2.359375q-0.578125 1.046875 -1.578125 1.640625q-1.0 0.59375 -2.203125 0.59375zm-0.0625 -1.359375q0.84375 0 1.515625 -0.40625q0.671875 -0.421875 1.0625 -1.109375q0.390625 -0.703125 0.390625 -1.578125q0 -0.828125 -0.390625 -1.515625q-0.390625 -0.703125 -1.0625 -1.125q-0.671875 -0.421875 -1.5 -0.421875q-0.875 0 -1.5625 0.40625q-0.671875 0.40625 -1.0625 1.109375q-0.390625 0.6875 -0.390625 1.515625q0 0.890625 0.390625 1.59375q0.390625 0.6875 1.0625 1.109375q0.6875 0.421875 1.546875 0.421875z" fill-rule="nonzero"/><path fill="#000000" d="m77.951935 197.08385q-1.296875 0 -2.34375 -0.578125q-1.03125 -0.59375 -1.71875 -1.6875l0.875 -0.953125q0.78125 1.046875 1.5625 1.453125q0.796875 0.390625 1.640625 0.390625q0.890625 0 1.625 -0.421875q0.75 -0.421875 1.171875 -1.125q0.4375 -0.703125 0.4375 -1.5625q0 -0.84375 -0.40625 -1.515625q-0.390625 -0.6875 -1.0625 -1.09375q-0.671875 -0.40625 -1.546875 -0.40625q-0.453125 0 -0.921875 0.109375q-0.46875 0.109375 -0.96875 0.328125q-0.484375 0.203125 -1.046875 0.515625l-0.828125 -1.09375l0.765625 -5.546875l7.046875 0l0 1.359375l-6.28125 0l0.46875 -0.328125l-0.6875 4.5625l-0.4375 -0.296875q0.296875 -0.234375 0.796875 -0.453125q0.515625 -0.234375 1.125 -0.375q0.609375 -0.140625 1.1875 -0.140625q1.203125 0 2.15625 0.5625q0.953125 0.546875 1.515625 1.515625q0.5625 0.953125 0.5625 2.203125q0 1.296875 -0.625 2.34375q-0.609375 1.03125 -1.671875 1.640625q-1.0625 0.59375 -2.390625 0.59375zm11.206131 -0.0625q-1.203125 0 -2.203125 -0.515625q-1.0 -0.515625 -1.609375 -1.375q-0.59375 -0.875 -0.59375 -1.921875q0 -0.578125 0.171875 -1.09375q0.1875 -0.515625 0.53125 -0.953125q0.34375 -0.4375 0.84375 -0.796875q0.515625 -0.359375 1.171875 -0.625l-0.125 0.390625q-0.5 -0.15625 -0.90625 -0.421875q-0.40625 -0.28125 -0.6875 -0.640625q-0.28125 -0.375 -0.4375 -0.8125q-0.140625 -0.4375 -0.140625 -0.90625q0 -0.953125 0.53125 -1.734375q0.53125 -0.78125 1.4375 -1.25q0.90625 -0.46875 2.015625 -0.46875q1.109375 0 2.015625 0.46875q0.90625 0.46875 1.4375 1.25q0.53125 0.78125 0.53125 1.734375q0 0.46875 -0.140625 0.90625q-0.140625 0.421875 -0.421875 0.78125q-0.28125 0.359375 -0.703125 0.640625q-0.421875 0.28125 -0.9375 0.453125l-0.0625 -0.3125q0.59375 0.203125 1.09375 0.5625q0.5 0.359375 0.84375 0.8125q0.359375 0.453125 0.546875 0.96875q0.203125 0.5 0.203125 1.046875q0 1.0625 -0.59375 1.9375q-0.578125 0.859375 -1.578125 1.375q-1.0 0.5 -2.234375 0.5zm0 -1.390625q0.84375 0 1.5 -0.328125q0.671875 -0.328125 1.046875 -0.875q0.390625 -0.5625 0.390625 -1.25q0 -0.71875 -0.390625 -1.265625q-0.375 -0.546875 -1.046875 -0.875q-0.65625 -0.328125 -1.5 -0.328125q-0.828125 0 -1.5 0.328125q-0.65625 0.328125 -1.046875 0.875q-0.375 0.546875 -0.375 1.265625q0 0.6875 0.375 1.234375q0.390625 0.546875 1.046875 0.890625q0.671875 0.328125 1.5 0.328125zm0 -6.171875q0.71875 0 1.28125 -0.25q0.5625 -0.265625 0.890625 -0.734375q0.328125 -0.46875 0.328125 -1.09375q0 -0.59375 -0.328125 -1.0625q-0.328125 -0.484375 -0.890625 -0.75q-0.5625 -0.28125 -1.28125 -0.28125q-0.71875 0 -1.296875 0.28125q-0.5625 0.265625 -0.890625 0.75q-0.328125 0.46875 -0.328125 1.0625q0 0.609375 0.328125 1.09375q0.328125 0.46875 0.890625 0.734375q0.578125 0.25 1.296875 0.25zm7.539383 7.6875q-0.5 0 -0.78125 -0.296875q-0.265625 -0.296875 -0.265625 -0.859375q0 -0.5 0.28125 -0.828125q0.296875 -0.328125 0.765625 -0.328125q0.5 0 0.765625 0.3125q0.28125 0.296875 0.28125 0.84375q0 0.515625 -0.296875 0.84375q-0.28125 0.3125 -0.75 0.3125zm8.755722 -0.1875l0 -11.328125l0.40625 0.140625l-5.40625 6.59375l-0.15625 -0.328125l8.84375 0l0 1.375l-9.375 0l-0.703125 -1.375l6.671875 -8.140625l1.125 0l0 13.0625l-1.40625 0z" fill-rule="nonzero"/><path fill="#000000" d="m192.83794 197.02135q-1.203125 0 -2.203125 -0.515625q-1.0 -0.515625 -1.609375 -1.375q-0.59375 -0.875 -0.59375 -1.921875q0 -0.578125 0.171875 -1.09375q0.1875 -0.515625 0.53125 -0.953125q0.34375 -0.4375 0.84375 -0.796875q0.515625 -0.359375 1.171875 -0.625l-0.125 0.390625q-0.5 -0.15625 -0.90625 -0.421875q-0.40625 -0.28125 -0.6875 -0.640625q-0.28125 -0.375 -0.4375 -0.8125q-0.140625 -0.4375 -0.140625 -0.90625q0 -0.953125 0.53125 -1.734375q0.53125 -0.78125 1.4375 -1.25q0.90625 -0.46875 2.015625 -0.46875q1.109375 0 2.015625 0.46875q0.90625 0.46875 1.4375 1.25q0.53125 0.78125 0.53125 1.734375q0 0.46875 -0.140625 0.90625q-0.140625 0.421875 -0.421875 0.78125q-0.28125 0.359375 -0.703125 0.640625q-0.421875 0.28125 -0.9375 0.453125l-0.0625 -0.3125q0.59375 0.203125 1.09375 0.5625q0.5 0.359375 0.84375 0.8125q0.359375 0.453125 0.546875 0.96875q0.203125 0.5 0.203125 1.046875q0 1.0625 -0.59375 1.9375q-0.578125 0.859375 -1.578125 1.375q-1.0 0.5 -2.234375 0.5zm0 -1.390625q0.84375 0 1.5 -0.328125q0.671875 -0.328125 1.046875 -0.875q0.390625 -0.5625 0.390625 -1.25q0 -0.71875 -0.390625 -1.265625q-0.375 -0.546875 -1.046875 -0.875q-0.65625 -0.328125 -1.5 -0.328125q-0.828125 0 -1.5 0.328125q-0.65625 0.328125 -1.046875 0.875q-0.375 0.546875 -0.375 1.265625q0 0.6875 0.375 1.234375q0.390625 0.546875 1.046875 0.890625q0.671875 0.328125 1.5 0.328125zm0 -6.171875q0.71875 0 1.28125 -0.25q0.5625 -0.265625 0.890625 -0.734375q0.328125 -0.46875 0.328125 -1.09375q0 -0.59375 -0.328125 -1.0625q-0.328125 -0.484375 -0.890625 -0.75q-0.5625 -0.28125 -1.28125 -0.28125q-0.71875 0 -1.296875 0.28125q-0.5625 0.265625 -0.890625 0.75q-0.328125 0.46875 -0.328125 1.0625q0 0.609375 0.328125 1.09375q0.328125 0.46875 0.890625 0.734375q0.578125 0.25 1.296875 0.25zm10.867508 7.59375q-0.96875 0 -1.8125 -0.328125q-0.828125 -0.34375 -1.4375 -0.96875q-0.59375 -0.625 -0.9375 -1.46875q-0.328125 -0.859375 -0.328125 -1.859375q0 -0.484375 0.125 -1.0625q0.125 -0.59375 0.390625 -1.296875q0.265625 -0.703125 0.640625 -1.46875q0.375 -0.765625 0.859375 -1.578125l1.890625 -3.234375l1.421875 0l0.078125 0.1875l-2.109375 3.546875q-0.453125 0.75 -0.8125 1.484375q-0.359375 0.71875 -0.6875 1.453125q-0.3125 0.734375 -0.609375 1.5l-0.265625 -1.34375q0.359375 -0.59375 0.78125 -1.03125q0.421875 -0.453125 0.90625 -0.78125q0.484375 -0.328125 1.03125 -0.484375q0.546875 -0.171875 1.125 -0.171875q1.140625 0 2.0625 0.59375q0.921875 0.59375 1.484375 1.5625q0.5625 0.96875 0.5625 2.15625q0 1.3125 -0.578125 2.359375q-0.578125 1.046875 -1.578125 1.640625q-1.0 0.59375 -2.203125 0.59375zm-0.0625 -1.359375q0.84375 0 1.515625 -0.40625q0.671875 -0.421875 1.0625 -1.109375q0.390625 -0.703125 0.390625 -1.578125q0 -0.828125 -0.390625 -1.515625q-0.390625 -0.703125 -1.0625 -1.125q-0.671875 -0.421875 -1.5 -0.421875q-0.875 0 -1.5625 0.40625q-0.671875 0.40625 -1.0625 1.109375q-0.390625 0.6875 -0.390625 1.515625q0 0.890625 0.390625 1.59375q0.390625 0.6875 1.0625 1.109375q0.6875 0.421875 1.546875 0.421875zm7.4430695 1.453125q-0.5 0 -0.78125 -0.296875q-0.265625 -0.296875 -0.265625 -0.859375q0 -0.5 0.28125 -0.828125q0.296875 -0.328125 0.765625 -0.328125q0.5 0 0.765625 0.3125q0.28125 0.296875 0.28125 0.84375q0 0.515625 -0.296875 0.84375q-0.28125 0.3125 -0.75 0.3125zm4.1286316 -0.1875l5.484375 -12.203125l0.234375 0.5l-6.984375 0l0 -1.359375l7.859375 0l0.25 1.140625l-5.265625 11.921875l-1.578125 0z" fill-rule="nonzero"/><path fill="#000000" fill-opacity="0.0" d="m320.1391 180.36212c24.31488 -24.314865 78.84 -25.262375 103.15488 -0.94750977" fill-rule="evenodd"/><path stroke="#595959" stroke-width="4.0" stroke-linejoin="round" stroke-linecap="butt" d="m320.1391 180.36212c12.15744 -12.15744 31.867462 -18.473022 51.577423 -18.7099c9.855011 -0.11843872 19.709991 1.2827911 28.620941 4.233322c2.2277527 0.7376404 4.396454 1.5720978 6.491455 2.5038605c1.0474854 0.46588135 2.0765076 0.9560852 3.0852966 1.4706573c0.5043335 0.2572937 1.0036926 0.52067566 1.4976807 0.7901764c0.24700928 0.1347351 0.49267578 0.27101135 0.7369995 0.40881348l0.19326782 0.11079407" fill-rule="evenodd"/><path fill="#595959" stroke="#595959" stroke-width="4.0" stroke-linecap="butt" d="m412.34213 171.16985l-6.299286 0.8883209l12.579376 3.8394623l-7.168396 -11.027054z" fill-rule="evenodd"/><path fill="#000000" fill-opacity="0.0" d="m1.3569554 229.02887l343.30707 0l0 107.02362l-343.30707 0z" fill-rule="evenodd"/><path fill="#595959" d="m54.889412 243.397l0.90625 0.515625q-0.4375 0.890625 -0.59375 1.390625q-0.15625 0.5 -0.234375 1.296875l1.046875 0l0 3.234375l-2.125 0l0 -2.015625q0 -1.515625 0.203125 -2.375q0.203125 -0.859375 0.796875 -2.046875zm5.21875 0l0.90625 0.515625q-0.4375 0.890625 -0.59375 1.390625q-0.15625 0.5 -0.234375 1.296875l1.046875 0l0 3.234375l-2.125 0l0 -2.015625q0 -1.515625 0.1875 -2.375q0.203125 -0.859375 0.8125 -2.046875zm5.53125 17.671875l0 -17.234375l3.578125 0q3.875 0 5.609375 0.609375q2.515625 0.890625 3.921875 3.0625q1.421875 2.15625 1.421875 5.15625q0 2.59375 -1.125 4.5625q-1.125 1.96875 -2.90625 2.90625q-1.78125 0.9375 -5.015625 0.9375l-5.484375 0zm1.65625 -1.625l2.0 0q3.5625 0 4.953125 -0.453125q1.9375 -0.625 3.046875 -2.265625q1.125 -1.65625 1.125 -4.03125q0 -2.5 -1.21875 -4.265625q-1.203125 -1.78125 -3.359375 -2.4375q-1.609375 -0.484375 -5.328125 -0.484375l-1.21875 0l0 13.9375zm28.640625 -11.125l0 12.75l-1.609375 0l0 -2.1875q-1.03125 1.25 -2.328125 1.890625q-1.28125 0.625 -2.796875 0.625q-2.703125 0 -4.625 -1.953125q-1.921875 -1.96875 -1.921875 -4.78125q0 -2.765625 1.9375 -4.71875q1.9375 -1.953125 4.65625 -1.953125q1.5625 0 2.828125 0.671875q1.28125 0.65625 2.25 2.0l0 -2.34375l1.609375 0zm-6.5625 1.25q-1.375 0 -2.53125 0.671875q-1.15625 0.671875 -1.84375 1.890625q-0.6875 1.21875 -0.6875 2.578125q0 1.359375 0.6875 2.59375q0.703125 1.21875 1.859375 1.90625q1.171875 0.6875 2.5 0.6875q1.359375 0 2.5625 -0.671875q1.203125 -0.6875 1.84375 -1.84375q0.65625 -1.171875 0.65625 -2.625q0 -2.203125 -1.453125 -3.6875q-1.453125 -1.5 -3.59375 -1.5zm11.691406 -5.984375l1.640625 0l0 4.734375l2.609375 0l0 1.40625l-2.609375 0l0 11.34375l-1.640625 0l0 -11.34375l-2.25 0l0 -1.40625l2.25 0l0 -4.734375zm19.398438 4.734375l0 12.75l-1.609375 0l0 -2.1875q-1.03125 1.25 -2.328125 1.890625q-1.28125 0.625 -2.796875 0.625q-2.703125 0 -4.625 -1.953125q-1.921875 -1.96875 -1.921875 -4.78125q0 -2.765625 1.9375 -4.71875q1.9375 -1.953125 4.65625 -1.953125q1.5625 0 2.828125 0.671875q1.28125 0.65625 2.25 2.0l0 -2.34375l1.609375 0zm-6.5625 1.25q-1.375 0 -2.53125 0.671875q-1.15625 0.671875 -1.84375 1.890625q-0.6875 1.21875 -0.6875 2.578125q0 1.359375 0.6875 2.59375q0.703125 1.21875 1.859375 1.90625q1.171875 0.6875 2.5 0.6875q1.359375 0 2.5625 -0.671875q1.203125 -0.6875 1.84375 -1.84375q0.65625 -1.171875 0.65625 -2.625q0 -2.203125 -1.453125 -3.6875q-1.453125 -1.5 -3.59375 -1.5zm15.382805 8.28125l1.46875 -0.875q1.546875 2.84375 3.578125 2.84375q0.859375 0 1.625 -0.390625q0.765625 -0.40625 1.15625 -1.078125q0.40625 -0.6875 0.40625 -1.453125q0 -0.875 -0.59375 -1.703125q-0.796875 -1.140625 -2.953125 -2.765625q-2.15625 -1.625 -2.671875 -2.359375q-0.921875 -1.21875 -0.921875 -2.625q0 -1.125 0.53125 -2.046875q0.546875 -0.9375 1.515625 -1.46875q0.984375 -0.53125 2.140625 -0.53125q1.21875 0 2.28125 0.609375q1.0625 0.59375 2.234375 2.21875l-1.40625 1.0625q-0.96875 -1.296875 -1.65625 -1.703125q-0.6875 -0.40625 -1.484375 -0.40625q-1.046875 0 -1.71875 0.640625q-0.65625 0.625 -0.65625 1.546875q0 0.5625 0.234375 1.09375q0.234375 0.53125 0.859375 1.140625q0.34375 0.328125 2.21875 1.734375q2.25 1.640625 3.078125 2.9375q0.828125 1.28125 0.828125 2.59375q0 1.875 -1.421875 3.265625q-1.421875 1.375 -3.46875 1.375q-1.5625 0 -2.84375 -0.84375q-1.28125 -0.84375 -2.359375 -2.8125zm25.84375 -6.890625l-1.296875 0.8125q-1.6875 -2.234375 -4.609375 -2.234375q-2.328125 0 -3.875 1.5q-1.53125 1.5 -1.53125 3.640625q0 1.390625 0.703125 2.625q0.703125 1.234375 1.9375 1.921875q1.25 0.671875 2.78125 0.671875q2.8125 0 4.59375 -2.234375l1.296875 0.84375q-0.90625 1.375 -2.453125 2.140625q-1.546875 0.75 -3.515625 0.75q-3.015625 0 -5.015625 -1.921875q-1.984375 -1.921875 -1.984375 -4.671875q0 -1.859375 0.921875 -3.4375q0.9375 -1.59375 2.5625 -2.484375q1.640625 -0.890625 3.65625 -0.890625q1.265625 0 2.4375 0.390625q1.171875 0.375 1.984375 1.0q0.828125 0.625 1.40625 1.578125zm3.7304688 -7.890625q0.5625 0 0.953125 0.40625q0.40625 0.390625 0.40625 0.953125q0 0.546875 -0.40625 0.953125q-0.390625 0.390625 -0.953125 0.390625q-0.546875 0 -0.953125 -0.390625q-0.390625 -0.40625 -0.390625 -0.953125q0 -0.5625 0.390625 -0.953125q0.40625 -0.40625 0.953125 -0.40625zm-0.828125 5.25l1.65625 0l0 12.75l-1.65625 0l0 -12.75zm15.7890625 8.515625l1.390625 0.734375q-0.6875 1.328125 -1.578125 2.15625q-0.890625 0.8125 -2.0 1.25q-1.109375 0.421875 -2.515625 0.421875q-3.125 0 -4.890625 -2.046875q-1.75 -2.046875 -1.75 -4.625q0 -2.421875 1.484375 -4.328125q1.890625 -2.40625 5.0625 -2.40625q3.25 0 5.203125 2.46875q1.375 1.75 1.40625 4.359375l-11.46875 0q0.046875 2.234375 1.421875 3.65625q1.375 1.421875 3.390625 1.421875q0.96875 0 1.890625 -0.34375q0.921875 -0.34375 1.5625 -0.90625q0.640625 -0.5625 1.390625 -1.8125zm0 -3.4375q-0.328125 -1.3125 -0.953125 -2.09375q-0.625 -0.78125 -1.65625 -1.265625q-1.03125 -0.484375 -2.171875 -0.484375q-1.875 0 -3.21875 1.21875q-0.984375 0.875 -1.484375 2.625l9.484375 0zm4.8632812 -5.078125l1.640625 0l0 2.28125q0.984375 -1.3125 2.171875 -1.953125q1.203125 -0.65625 2.609375 -0.65625q1.4375 0 2.53125 0.734375q1.109375 0.71875 1.640625 1.953125q0.53125 1.21875 0.53125 3.828125l0 6.5625l-1.625 0l0 -6.078125q0 -2.203125 -0.1875 -2.953125q-0.296875 -1.265625 -1.109375 -1.890625q-0.8125 -0.640625 -2.109375 -0.640625q-1.484375 0 -2.671875 0.984375q-1.171875 0.984375 -1.546875 2.4375q-0.234375 0.9375 -0.234375 3.46875l0 4.671875l-1.640625 0l0 -12.75zm27.011719 2.640625l-1.296875 0.8125q-1.6875 -2.234375 -4.609375 -2.234375q-2.328125 0 -3.875 1.5q-1.53125 1.5 -1.53125 3.640625q0 1.390625 0.703125 2.625q0.703125 1.234375 1.9375 1.921875q1.25 0.671875 2.78125 0.671875q2.8125 0 4.59375 -2.234375l1.296875 0.84375q-0.90625 1.375 -2.453125 2.140625q-1.546875 0.75 -3.515625 0.75q-3.015625 0 -5.015625 -1.921875q-1.984375 -1.921875 -1.984375 -4.671875q0 -1.859375 0.921875 -3.4375q0.9375 -1.59375 2.5625 -2.484375q1.640625 -0.890625 3.65625 -0.890625q1.265625 0 2.4375 0.390625q1.171875 0.375 1.984375 1.0q0.828125 0.625 1.40625 1.578125zm13.886719 5.875l1.390625 0.734375q-0.6875 1.328125 -1.578125 2.15625q-0.890625 0.8125 -2.0 1.25q-1.109375 0.421875 -2.515625 0.421875q-3.125 0 -4.890625 -2.046875q-1.75 -2.046875 -1.75 -4.625q0 -2.421875 1.484375 -4.328125q1.890625 -2.40625 5.0625 -2.40625q3.25 0 5.203125 2.46875q1.375 1.75 1.40625 4.359375l-11.46875 0q0.046875 2.234375 1.421875 3.65625q1.375 1.421875 3.390625 1.421875q0.96875 0 1.890625 -0.34375q0.921875 -0.34375 1.5625 -0.90625q0.640625 -0.5625 1.390625 -1.8125zm0 -3.4375q-0.328125 -1.3125 -0.953125 -2.09375q-0.625 -0.78125 -1.65625 -1.265625q-1.03125 -0.484375 -2.171875 -0.484375q-1.875 0 -3.21875 1.21875q-0.984375 0.875 -1.484375 2.625l9.484375 0zm11.488281 -3.5625l-0.90625 -0.515625q0.453125 -0.890625 0.59375 -1.390625q0.15625 -0.515625 0.234375 -1.3125l-1.03125 0l0 -3.21875l2.109375 0l0 2.015625q0 1.515625 -0.203125 2.375q-0.203125 0.859375 -0.796875 2.046875zm-5.21875 0l-0.90625 -0.515625q0.453125 -0.890625 0.59375 -1.390625q0.15625 -0.515625 0.234375 -1.3125l-1.03125 0l0 -3.21875l2.125 0l0 2.015625q0 1.515625 -0.21875 2.375q-0.203125 0.859375 -0.796875 2.046875zm15.6484375 -1.515625l1.75 0l4.265625 9.28125l4.21875 -9.28125l1.765625 0l-5.84375 12.75l-0.28125 0l-5.875 -12.75zm15.082031 -5.25q0.5625 0 0.9531555 0.40625q0.40625 0.390625 0.40625 0.953125q0 0.546875 -0.40625 0.953125q-0.39065552 0.390625 -0.9531555 0.390625q-0.546875 0 -0.953125 -0.390625q-0.390625 -0.40625 -0.390625 -0.953125q0 -0.5625 0.390625 -0.953125q0.40625 -0.40625 0.953125 -0.40625zm-0.828125 5.25l1.6562805 0l0 12.75l-1.6562805 0l0 -12.75zm15.789093 8.515625l1.390625 0.734375q-0.6875 1.328125 -1.578125 2.15625q-0.890625 0.8125 -2.0 1.25q-1.109375 0.421875 -2.515625 0.421875q-3.125 0 -4.890625 -2.046875q-1.75 -2.046875 -1.75 -4.625q0 -2.421875 1.484375 -4.328125q1.890625 -2.40625 5.0625 -2.40625q3.25 0 5.203125 2.46875q1.375 1.75 1.40625 4.359375l-11.46875 0q0.046875 2.234375 1.421875 3.65625q1.375 1.421875 3.390625 1.421875q0.96875 0 1.890625 -0.34375q0.921875 -0.34375 1.5625 -0.90625q0.640625 -0.5625 1.390625 -1.8125zm0 -3.4375q-0.328125 -1.3125 -0.953125 -2.09375q-0.625 -0.78125 -1.65625 -1.265625q-1.03125 -0.484375 -2.171875 -0.484375q-1.875 0 -3.21875 1.21875q-0.984375 0.875 -1.484375 2.625l9.484375 0zm3.1445312 -5.078125l1.6875 0l3.90625 9.25l4.078125 -9.25l0.296875 0l4.078125 9.25l3.96875 -9.25l1.71875 0l-5.53125 12.75l-0.3125 0l-4.0625 -9.125l-4.09375 9.125l-0.296875 0l-5.4375 -12.75z" fill-rule="nonzero"/><path fill="#595959" d="m38.76832 271.86887l1.890625 0q-1.140625 2.359375 -1.84375 5.5q-0.6875 3.140625 -0.6875 6.46875q0 3.09375 0.515625 5.96875q0.53125 2.875 1.4375 5.0625l-1.796875 0q-0.875 -2.09375 -1.390625 -4.921875q-0.515625 -2.828125 -0.515625 -5.875q0 -3.296875 0.609375 -6.421875q0.609375 -3.125 1.78125 -5.78125zm11.203125 4.921875q2.953125 0 4.875 2.125q1.765625 1.953125 1.765625 4.609375q0 2.671875 -1.859375 4.671875q-1.859375 2.0 -4.78125 2.0q-2.921875 0 -4.78125 -2.0q-1.859375 -2.0 -1.859375 -4.671875q0 -2.640625 1.765625 -4.59375q1.921875 -2.140625 4.875 -2.140625zm0 1.609375q-2.03125 0 -3.5 1.515625q-1.46875 1.5 -1.46875 3.640625q0 1.390625 0.671875 2.59375q0.671875 1.1875 1.796875 1.84375q1.140625 0.640625 2.5 0.640625q1.359375 0 2.5 -0.640625q1.140625 -0.65625 1.796875 -1.84375q0.671875 -1.203125 0.671875 -2.59375q0 -2.140625 -1.46875 -3.640625q-1.46875 -1.515625 -3.5 -1.515625zm9.792969 11.46875l0 -17.671875l1.625 0l0 7.109375q1.03125 -1.265625 2.3125 -1.890625q1.28125 -0.625 2.796875 -0.625q2.703125 0 4.625 1.96875q1.921875 1.953125 1.921875 4.75q0 2.765625 -1.9375 4.734375q-1.9375 1.953125 -4.65625 1.953125q-1.5625 0 -2.828125 -0.671875q-1.265625 -0.671875 -2.234375 -2.0l0 2.34375l-1.625 0zm6.5625 -1.25q1.375 0 2.53125 -0.671875q1.15625 -0.6875 1.84375 -1.90625q0.6875 -1.21875 0.6875 -2.578125q0 -1.359375 -0.703125 -2.578125q-0.6875 -1.234375 -1.859375 -1.921875q-1.15625 -0.6875 -2.484375 -0.6875q-1.34375 0 -2.5625 0.6875q-1.203125 0.6875 -1.859375 1.84375q-0.640625 1.15625 -0.640625 2.609375q0 2.21875 1.453125 3.71875q1.453125 1.484375 3.59375 1.484375zm16.105469 -10.109375l-1.046875 1.09375q-1.3125 -1.28125 -2.5625 -1.28125q-0.796875 0 -1.375 0.53125q-0.5625 0.53125 -0.5625 1.234375q0 0.609375 0.46875 1.171875q0.46875 0.578125 1.96875 1.359375q1.828125 0.9375 2.484375 1.828125q0.640625 0.890625 0.640625 2.0q0 1.5625 -1.109375 2.65625q-1.09375 1.09375 -2.75 1.09375q-1.09375 0 -2.09375 -0.484375q-1.0 -0.484375 -1.65625 -1.328125l1.03125 -1.171875q1.25 1.421875 2.65625 1.421875q0.984375 0 1.671875 -0.625q0.6875 -0.640625 0.6875 -1.5q0 -0.703125 -0.453125 -1.25q-0.453125 -0.53125 -2.0625 -1.359375q-1.71875 -0.890625 -2.34375 -1.75q-0.625 -0.875 -0.625 -1.984375q0 -1.453125 0.984375 -2.40625q1.0 -0.96875 2.515625 -0.96875q1.75 0 3.53125 1.71875zm13.644531 7.125l1.390625 0.734375q-0.6875 1.328125 -1.578125 2.15625q-0.890625 0.8125 -2.0 1.25q-1.109375 0.421875 -2.515625 0.421875q-3.125 0 -4.890625 -2.046875q-1.75 -2.046875 -1.75 -4.625q0 -2.421875 1.484375 -4.328125q1.890625 -2.40625 5.0625 -2.40625q3.25 0 5.203125 2.46875q1.375 1.75 1.40625 4.359375l-11.46875 0q0.046875 2.234375 1.421875 3.65625q1.375 1.421875 3.390625 1.421875q0.96875 0 1.890625 -0.34375q0.921875 -0.34375 1.5625 -0.90625q0.640625 -0.5625 1.390625 -1.8125zm0 -3.4375q-0.328125 -1.3125 -0.953125 -2.09375q-0.625 -0.78125 -1.65625 -1.265625q-1.03125 -0.484375 -2.171875 -0.484375q-1.875 0 -3.21875 1.21875q-0.984375 0.875 -1.484375 2.625l9.484375 0zm4.2382812 -5.078125l1.6875 0l0 1.859375q0.75 -1.09375 1.578125 -1.640625q0.828125 -0.546875 1.734375 -0.546875q0.671875 0 1.453125 0.4375l-0.859375 1.375q-0.515625 -0.21875 -0.859375 -0.21875q-0.828125 0 -1.59375 0.671875q-0.75 0.671875 -1.15625 2.09375q-0.296875 1.09375 -0.296875 4.40625l0 4.3125l-1.6875 0l0 -12.75zm6.640625 0l1.75 0l4.265625 9.28125l4.21875 -9.28125l1.765625 0l-5.84375 12.75l-0.28125 0l-5.875 -12.75zm27.207024 0l0 12.75l-1.609375 0l0 -2.1875q-1.03125 1.25 -2.328125 1.890625q-1.28125 0.625 -2.7968674 0.625q-2.703125 0 -4.625 -1.953125q-1.921875 -1.96875 -1.921875 -4.78125q0 -2.765625 1.9375 -4.71875q1.9375 -1.953125 4.65625 -1.953125q1.5624924 0 2.8281174 0.671875q1.28125 0.65625 2.25 2.0l0 -2.34375l1.609375 0zm-6.5624924 1.25q-1.375 0 -2.53125 0.671875q-1.15625 0.671875 -1.84375 1.890625q-0.6875 1.21875 -0.6875 2.578125q0 1.359375 0.6875 2.59375q0.703125 1.21875 1.859375 1.90625q1.171875 0.6875 2.5 0.6875q1.3593674 0 2.5624924 -0.671875q1.203125 -0.6875 1.84375 -1.84375q0.65625 -1.171875 0.65625 -2.625q0 -2.203125 -1.453125 -3.6875q-1.453125 -1.5 -3.5937424 -1.5zm11.691399 -5.984375l1.640625 0l0 4.734375l2.609375 0l0 1.40625l-2.609375 0l0 11.34375l-1.640625 0l0 -11.34375l-2.25 0l0 -1.40625l2.25 0l0 -4.734375zm7.2734375 -0.515625q0.5625 0 0.953125 0.40625q0.40625 0.390625 0.40625 0.953125q0 0.546875 -0.40625 0.953125q-0.390625 0.390625 -0.953125 0.390625q-0.546875 0 -0.953125 -0.390625q-0.390625 -0.40625 -0.390625 -0.953125q0 -0.5625 0.390625 -0.953125q0.40625 -0.40625 0.953125 -0.40625zm-0.828125 5.25l1.65625 0l0 12.75l-1.65625 0l0 -12.75zm11.0859375 -0.328125q2.953125 0 4.875 2.125q1.765625 1.953125 1.765625 4.609375q0 2.671875 -1.859375 4.671875q-1.859375 2.0 -4.78125 2.0q-2.921875 0 -4.78125 -2.0q-1.859375 -2.0 -1.859375 -4.671875q0 -2.640625 1.765625 -4.59375q1.921875 -2.140625 4.875 -2.140625zm0 1.609375q-2.03125 0 -3.5 1.515625q-1.46875 1.5 -1.46875 3.640625q0 1.390625 0.671875 2.59375q0.671875 1.1875 1.796875 1.84375q1.140625 0.640625 2.5 0.640625q1.359375 0 2.5 -0.640625q1.140625 -0.65625 1.796875 -1.84375q0.671875 -1.203125 0.671875 -2.59375q0 -2.140625 -1.46875 -3.640625q-1.46875 -1.515625 -3.5 -1.515625zm9.683594 -1.28125l1.640625 0l0 2.28125q0.984375 -1.3125 2.171875 -1.953125q1.203125 -0.65625 2.609375 -0.65625q1.4375 0 2.53125 0.734375q1.109375 0.71875 1.640625 1.953125q0.53125 1.21875 0.53125 3.828125l0 6.5625l-1.625 0l0 -6.078125q0 -2.203125 -0.1875 -2.953125q-0.296875 -1.265625 -1.109375 -1.890625q-0.8125 -0.640625 -2.109375 -0.640625q-1.484375 0 -2.671875 0.984375q-1.171875 0.984375 -1.546875 2.4375q-0.234375 0.9375 -0.234375 3.46875l0 4.671875l-1.640625 0l0 -12.75zm21.042969 1.390625l-1.046875 1.09375q-1.3125 -1.28125 -2.5625 -1.28125q-0.796875 0 -1.375 0.53125q-0.5625 0.53125 -0.5625 1.234375q0 0.609375 0.46875 1.171875q0.46875 0.578125 1.96875 1.359375q1.828125 0.9375 2.484375 1.828125q0.640625 0.890625 0.640625 2.0q0 1.5625 -1.109375 2.65625q-1.09375 1.09375 -2.75 1.09375q-1.09375 0 -2.09375 -0.484375q-1.0 -0.484375 -1.65625 -1.328125l1.03125 -1.171875q1.25 1.421875 2.65625 1.421875q0.984375 0 1.671875 -0.625q0.6875 -0.640625 0.6875 -1.5q0 -0.703125 -0.453125 -1.25q-0.453125 -0.53125 -2.0625 -1.359375q-1.71875 -0.890625 -2.34375 -1.75q-0.625 -0.875 -0.625 -1.984375q0 -1.453125 0.984375 -2.40625q1.0 -0.96875 2.515625 -0.96875q1.75 0 3.53125 1.71875zm4.5351562 8.1875l1.59375 0.75l-2.390625 4.4375l-1.15625 -0.484375l1.953125 -4.703125zm10.4609375 -9.578125l1.75 0l4.265625 9.28125l4.21875 -9.28125l1.765625 0l-5.84375 12.75l-0.28125 0l-5.875 -12.75zm27.207031 0l0 12.75l-1.609375 0l0 -2.1875q-1.03125 1.25 -2.328125 1.890625q-1.28125 0.625 -2.796875 0.625q-2.703125 0 -4.625 -1.953125q-1.921875 -1.96875 -1.921875 -4.78125q0 -2.765625 1.9375 -4.71875q1.9375 -1.953125 4.65625 -1.953125q1.5625 0 2.828125 0.671875q1.28125 0.65625 2.25 2.0l0 -2.34375l1.609375 0zm-6.5625 1.25q-1.375 0 -2.53125 0.671875q-1.15625 0.671875 -1.84375 1.890625q-0.6875 1.21875 -0.6875 2.578125q0 1.359375 0.6875 2.59375q0.703125 1.21875 1.859375 1.90625q1.171875 0.6875 2.5 0.6875q1.359375 0 2.5625 -0.671875q1.203125 -0.6875 1.84375 -1.84375q0.65625 -1.171875 0.65625 -2.625q0 -2.203125 -1.453125 -3.6875q-1.453125 -1.5 -3.59375 -1.5zm9.628906 -1.25l1.6875 0l0 1.859375q0.75 -1.09375 1.578125 -1.640625q0.828125 -0.546875 1.734375 -0.546875q0.671875 0 1.453125 0.4375l-0.859375 1.375q-0.515625 -0.21875 -0.859375 -0.21875q-0.828125 0 -1.59375 0.671875q-0.75 0.671875 -1.15625 2.09375q-0.296875 1.09375 -0.296875 4.40625l0 4.3125l-1.6875 0l0 -12.75zm8.421875 -5.25q0.5625 0 0.953125 0.40625q0.40625 0.390625 0.40625 0.953125q0 0.546875 -0.40625 0.953125q-0.390625 0.390625 -0.953125 0.390625q-0.546875 0 -0.953125 -0.390625q-0.390625 -0.40625 -0.390625 -0.953125q0 -0.5625 0.390625 -0.953125q0.40625 -0.40625 0.953125 -0.40625zm-0.828125 5.25l1.65625 0l0 12.75l-1.65625 0l0 -12.75zm17.757843 0l0 12.75l-1.6094055 0l0 -2.1875q-1.03125 1.25 -2.328125 1.890625q-1.28125 0.625 -2.796875 0.625q-2.703125 0 -4.625 -1.953125q-1.921875 -1.96875 -1.921875 -4.78125q0 -2.765625 1.9375 -4.71875q1.9375 -1.953125 4.65625 -1.953125q1.5625 0 2.828125 0.671875q1.28125 0.65625 2.25 2.0l0 -2.34375l1.6094055 0zm-6.5625305 1.25q-1.375 0 -2.53125 0.671875q-1.15625 0.671875 -1.84375 1.890625q-0.6875 1.21875 -0.6875 2.578125q0 1.359375 0.6875 2.59375q0.703125 1.21875 1.859375 1.90625q1.171875 0.6875 2.5 0.6875q1.359375 0 2.5625 -0.671875q1.203125 -0.6875 1.84375 -1.84375q0.65625 -1.171875 0.65625 -2.625q0 -2.203125 -1.453125 -3.6875q-1.453125 -1.5 -3.59375 -1.5zm10.363312 11.5l0 -17.671875l1.625 0l0 7.109375q1.03125 -1.265625 2.3125 -1.890625q1.28125 -0.625 2.796875 -0.625q2.703125 0 4.625 1.96875q1.921875 1.953125 1.921875 4.75q0 2.765625 -1.9375 4.734375q-1.9375 1.953125 -4.65625 1.953125q-1.5625 0 -2.828125 -0.671875q-1.265625 -0.671875 -2.234375 -2.0l0 2.34375l-1.625 0zm6.5625 -1.25q1.375 0 2.53125 -0.671875q1.15625 -0.6875 1.84375 -1.90625q0.6875 -1.21875 0.6875 -2.578125q0 -1.359375 -0.703125 -2.578125q-0.6875 -1.234375 -1.859375 -1.921875q-1.15625 -0.6875 -2.484375 -0.6875q-1.34375 0 -2.5625 0.6875q-1.203125 0.6875 -1.859375 1.84375q-0.640625 1.15625 -0.640625 2.609375q0 2.21875 1.453125 3.71875q1.453125 1.484375 3.59375 1.484375zm9.449219 -16.421875l1.640625 0l0 17.671875l-1.640625 0l0 -17.671875zm15.7890625 13.4375l1.390625 0.734375q-0.6875 1.328125 -1.578125 2.15625q-0.890625 0.8125 -2.0 1.25q-1.109375 0.421875 -2.515625 0.421875q-3.125 0 -4.890625 -2.046875q-1.75 -2.046875 -1.75 -4.625q0 -2.421875 1.484375 -4.328125q1.890625 -2.40625 5.0625 -2.40625q3.25 0 5.203125 2.46875q1.375 1.75 1.40625 4.359375l-11.46875 0q0.046875 2.234375 1.421875 3.65625q1.375 1.421875 3.390625 1.421875q0.96875 0 1.890625 -0.34375q0.921875 -0.34375 1.5625 -0.90625q0.640625 -0.5625 1.390625 -1.8125zm0 -3.4375q-0.328125 -1.3125 -0.953125 -2.09375q-0.625 -0.78125 -1.65625 -1.265625q-1.03125 -0.484375 -2.171875 -0.484375q-1.875 0 -3.21875 1.21875q-0.984375 0.875 -1.484375 2.625l9.484375 0zm11.269531 -3.6875l-1.046875 1.09375q-1.3125 -1.28125 -2.5625 -1.28125q-0.796875 0 -1.375 0.53125q-0.5625 0.53125 -0.5625 1.234375q0 0.609375 0.46875 1.171875q0.46875 0.578125 1.96875 1.359375q1.828125 0.9375 2.484375 1.828125q0.640625 0.890625 0.640625 2.0q0 1.5625 -1.109375 2.65625q-1.09375 1.09375 -2.75 1.09375q-1.09375 0 -2.09375 -0.484375q-1.0 -0.484375 -1.65625 -1.328125l1.03125 -1.171875q1.25 1.421875 2.65625 1.421875q0.984375 0 1.671875 -0.625q0.6875 -0.640625 0.6875 -1.5q0 -0.703125 -0.453125 -1.25q-0.453125 -0.53125 -2.0625 -1.359375q-1.71875 -0.890625 -2.34375 -1.75q-0.625 -0.875 -0.625 -1.984375q0 -1.453125 0.984375 -2.40625q1.0 -0.96875 2.515625 -0.96875q1.75 0 3.53125 1.71875zm4.5351562 8.1875l1.59375 0.75l-2.390625 4.4375l-1.15625 -0.484375l1.953125 -4.703125z" fill-rule="nonzero"/><path fill="#595959" d="m158.19214 314.4345l1.390625 0.734375q-0.6875 1.328125 -1.578125 2.15625q-0.890625 0.8125 -2.0 1.25q-1.109375 0.421875 -2.515625 0.421875q-3.125 0 -4.890625 -2.046875q-1.75 -2.046875 -1.75 -4.625q0 -2.421875 1.484375 -4.328125q1.890625 -2.40625 5.0625 -2.40625q3.25 0 5.203125 2.46875q1.375 1.75 1.40625 4.359375l-11.46875 0q0.046875 2.234375 1.421875 3.65625q1.375 1.421875 3.390625 1.421875q0.96875 0 1.890625 -0.34375q0.921875 -0.34375 1.5625 -0.90625q0.640625 -0.5625 1.390625 -1.8125zm0 -3.4375q-0.328125 -1.3125 -0.953125 -2.09375q-0.625 -0.78125 -1.65625 -1.265625q-1.03125 -0.484375 -2.171875 -0.484375q-1.875 0 -3.21875 1.21875q-0.984375 0.875 -1.484375 2.625l9.484375 0zm6.3007812 -9.8125l1.640625 0l0 4.734375l2.609375 0l0 1.40625l-2.609375 0l0 11.34375l-1.640625 0l0 -11.34375l-2.25 0l0 -1.40625l2.25 0l0 -4.734375zm19.070312 7.375l-1.296875 0.8125q-1.6875 -2.234375 -4.609375 -2.234375q-2.328125 0 -3.875 1.5q-1.53125 1.5 -1.53125 3.640625q0 1.390625 0.703125 2.625q0.703125 1.234375 1.9375 1.921875q1.25 0.671875 2.78125 0.671875q2.8125 0 4.59375 -2.234375l1.296875 0.84375q-0.90625 1.375 -2.453125 2.140625q-1.546875 0.75 -3.515625 0.75q-3.015625 0 -5.015625 -1.921875q-1.984375 -1.921875 -1.984375 -4.671875q0 -1.859375 0.921875 -3.4375q0.9375 -1.59375 2.5625 -2.484375q1.640625 -0.890625 3.65625 -0.890625q1.265625 0 2.4375 0.390625q1.171875 0.375 1.984375 1.0q0.828125 0.625 1.40625 1.578125zm4.9648438 7.53125q0.59375 0 1.015625 0.421875q0.421875 0.421875 0.421875 1.03125q0 0.59375 -0.421875 1.03125q-0.421875 0.421875 -1.015625 0.421875q-0.609375 0 -1.03125 -0.421875q-0.421875 -0.4375 -0.421875 -1.03125q0 -0.609375 0.421875 -1.03125q0.421875 -0.421875 1.03125 -0.421875zm6.3632812 7.578125l-1.90625 0q1.15625 -2.359375 1.84375 -5.5q0.6875 -3.140625 0.6875 -6.484375q0 -3.09375 -0.53125 -5.96875q-0.515625 -2.875 -1.421875 -5.046875l1.796875 0q0.890625 2.078125 1.390625 4.921875q0.515625 2.828125 0.515625 5.875q0 3.28125 -0.609375 6.40625q-0.609375 3.125 -1.765625 5.796875z" fill-rule="nonzero"/><path fill="#000000" fill-opacity="0.0" d="m433.32022 206.39633l343.3071 0l0 107.02362l-343.3071 0z" fill-rule="evenodd"/><path fill="#595959" d="m481.05188 220.76445l0.90625 0.515625q-0.4375 0.890625 -0.59375 1.390625q-0.15625 0.5 -0.234375 1.296875l1.046875 0l0 3.234375l-2.125 0l0 -2.015625q0 -1.515625 0.203125 -2.375q0.203125 -0.859375 0.796875 -2.046875zm5.21875 0l0.90625 0.515625q-0.4375 0.890625 -0.59375 1.390625q-0.15625 0.5 -0.234375 1.296875l1.046875 0l0 3.234375l-2.125 0l0 -2.015625q0 -1.515625 0.1875 -2.375q0.203125 -0.859375 0.8125 -2.046875zm5.53125 0.4375l1.734375 0l0 15.5625l6.625 0l0 1.671875l-8.359375 0l0 -17.234375zm11.3984375 -0.765625q0.5625 0 0.953125 0.40625q0.40625 0.390625 0.40625 0.953125q0 0.546875 -0.40625 0.953125q-0.390625 0.390625 -0.953125 0.390625q-0.546875 0 -0.953125 -0.390625q-0.390625 -0.40625 -0.390625 -0.953125q0 -0.5625 0.390625 -0.953125q0.40625 -0.40625 0.953125 -0.40625zm-0.828125 5.25l1.65625 0l0 12.75l-1.65625 0l0 -12.75zm5.0546875 0l1.640625 0l0 2.28125q0.984375 -1.3125 2.171875 -1.953125q1.203125 -0.65625 2.609375 -0.65625q1.4375 0 2.53125 0.734375q1.109375 0.71875 1.640625 1.953125q0.53125 1.21875 0.53125 3.828125l0 6.5625l-1.625 0l0 -6.078125q0 -2.203125 -0.1875 -2.953125q-0.296875 -1.265625 -1.109375 -1.890625q-0.8125 -0.640625 -2.109375 -0.640625q-1.484375 0 -2.671875 0.984375q-1.171875 0.984375 -1.546875 2.4375q-0.234375 0.9375 -0.234375 3.46875l0 4.671875l-1.640625 0l0 -12.75zm25.371094 8.515625l1.390625 0.734375q-0.6875 1.328125 -1.578125 2.15625q-0.890625 0.8125 -2.0 1.25q-1.109375 0.421875 -2.515625 0.421875q-3.125 0 -4.890625 -2.046875q-1.75 -2.046875 -1.75 -4.625q0 -2.421875 1.484375 -4.328125q1.890625 -2.40625 5.0625 -2.40625q3.25 0 5.203125 2.46875q1.375 1.75 1.40625 4.359375l-11.46875 0q0.046875 2.234375 1.421875 3.65625q1.375 1.421875 3.390625 1.421875q0.96875 0 1.890625 -0.34375q0.921875 -0.34375 1.5625 -0.90625q0.640625 -0.5625 1.390625 -1.8125zm0 -3.4375q-0.328125 -1.3125 -0.953125 -2.09375q-0.625 -0.78125 -1.65625 -1.265625q-1.03125 -0.484375 -2.171875 -0.484375q-1.875 0 -3.21875 1.21875q-0.984375 0.875 -1.484375 2.625l9.484375 0zm17.566406 -5.078125l0 12.75l-1.609375 0l0 -2.1875q-1.03125 1.25 -2.328125 1.890625q-1.28125 0.625 -2.796875 0.625q-2.703125 0 -4.625 -1.953125q-1.921875 -1.96875 -1.921875 -4.78125q0 -2.765625 1.9375 -4.71875q1.9375 -1.953125 4.65625 -1.953125q1.5625 0 2.828125 0.671875q1.28125 0.65625 2.25 2.0l0 -2.34375l1.609375 0zm-6.5625 1.25q-1.375 0 -2.53125 0.671875q-1.15625 0.671875 -1.84375 1.890625q-0.6875 1.21875 -0.6875 2.578125q0 1.359375 0.6875 2.59375q0.703125 1.21875 1.859375 1.90625q1.171875 0.6875 2.5 0.6875q1.359375 0 2.5625 -0.671875q1.203125 -0.6875 1.84375 -1.84375q0.65625 -1.171875 0.65625 -2.625q0 -2.203125 -1.453125 -3.6875q-1.453125 -1.5 -3.59375 -1.5zm9.628906 -1.25l1.6875 0l0 1.859375q0.75 -1.09375 1.578125 -1.640625q0.828125 -0.546875 1.734375 -0.546875q0.671875 0 1.453125 0.4375l-0.859375 1.375q-0.515625 -0.21875 -0.859375 -0.21875q-0.828125 0 -1.59375 0.671875q-0.75 0.671875 -1.15625 2.09375q-0.296875 1.09375 -0.296875 4.40625l0 4.3125l-1.6875 0l0 -12.75zm21.800781 -4.484375l8.046875 17.234375l-1.859375 0l-2.703125 -5.671875l-7.4375 0l-2.6875 5.671875l-1.921875 0l8.140625 -17.234375l0.421875 0zm-0.203125 3.65625l-2.96875 6.234375l5.890625 0l-2.921875 -6.234375zm10.394531 -4.09375l1.640625 0l0 17.671875l-1.640625 0l0 -17.671875zm16.039062 4.921875l1.65625 0l0 10.15625q0 2.6875 -0.46875 3.9375q-0.65625 1.75 -2.25 2.703125q-1.59375 0.953125 -3.828125 0.953125q-1.640625 0 -2.953125 -0.46875q-1.296875 -0.46875 -2.125 -1.25q-0.8125 -0.765625 -1.5 -2.265625l1.78125 0q0.71875 1.265625 1.859375 1.875q1.15625 0.609375 2.859375 0.609375q1.671875 0 2.828125 -0.640625q1.15625 -0.625 1.640625 -1.578125q0.5 -0.9375 0.5 -3.046875l0 -0.65625q-0.921875 1.171875 -2.265625 1.796875q-1.328125 0.625 -2.828125 0.625q-1.765625 0 -3.3125 -0.875q-1.546875 -0.875 -2.390625 -2.34375q-0.84375 -1.484375 -0.84375 -3.25q0 -1.765625 0.875 -3.296875q0.890625 -1.53125 2.4375 -2.421875q1.546875 -0.890625 3.28125 -0.890625q1.421875 0 2.65625 0.59375q1.234375 0.59375 2.390625 1.953125l0 -2.21875zm-4.84375 1.25q-1.390625 0 -2.59375 0.671875q-1.1875 0.671875 -1.875 1.875q-0.671875 1.1875 -0.671875 2.5625q0 2.09375 1.40625 3.46875q1.40625 1.375 3.640625 1.375q2.265625 0 3.640625 -1.359375q1.375 -1.359375 1.375 -3.578125q0 -1.4375 -0.640625 -2.5625q-0.625 -1.140625 -1.78125 -1.796875q-1.15625 -0.65625 -2.5 -0.65625zm20.742188 7.265625l1.390625 0.734375q-0.6875 1.328125 -1.578125 2.15625q-0.890625 0.8125 -2.0 1.25q-1.109375 0.421875 -2.515625 0.421875q-3.125 0 -4.890625 -2.046875q-1.75 -2.046875 -1.75 -4.625q0 -2.421875 1.484375 -4.328125q1.890625 -2.40625 5.0625 -2.40625q3.25 0 5.203125 2.46875q1.375 1.75 1.40625 4.359375l-11.46875 0q0.046875 2.234375 1.421875 3.65625q1.375 1.421875 3.390625 1.421875q0.96875 0 1.890625 -0.34375q0.921875 -0.34375 1.5625 -0.90625q0.640625 -0.5625 1.390625 -1.8125zm0 -3.4375q-0.328125 -1.3125 -0.953125 -2.09375q-0.625 -0.78125 -1.65625 -1.265625q-1.03125 -0.484375 -2.171875 -0.484375q-1.875 0 -3.21875 1.21875q-0.984375 0.875 -1.484375 2.625l9.484375 0zm4.9726562 7.671875l0 -17.671875l1.625 0l0 7.109375q1.03125 -1.265625 2.3125 -1.890625q1.28125 -0.625 2.796875 -0.625q2.703125 0 4.625 1.96875q1.921875 1.953125 1.921875 4.75q0 2.765625 -1.9375 4.734375q-1.9375 1.953125 -4.65625 1.953125q-1.5625 0 -2.828125 -0.671875q-1.265625 -0.671875 -2.234375 -2.0l0 2.34375l-1.625 0zm6.5625 -1.25q1.375 0 2.53125 -0.671875q1.15625 -0.6875 1.84375 -1.90625q0.6875 -1.21875 0.6875 -2.578125q0 -1.359375 -0.703125 -2.578125q-0.6875 -1.234375 -1.859375 -1.921875q-1.15625 -0.6875 -2.484375 -0.6875q-1.34375 0 -2.5625 0.6875q-1.203125 0.6875 -1.859375 1.84375q-0.640625 1.15625 -0.640625 2.609375q0 2.21875 1.453125 3.71875q1.453125 1.484375 3.59375 1.484375zm9.074219 -11.5l1.6875 0l0 1.859375q0.75 -1.09375 1.578125 -1.640625q0.828125 -0.546875 1.734375 -0.546875q0.671875 0 1.453125 0.4375l-0.859375 1.375q-0.515625 -0.21875 -0.859375 -0.21875q-0.828125 0 -1.59375 0.671875q-0.75 0.671875 -1.15625 2.09375q-0.296875 1.09375 -0.296875 4.40625l0 4.3125l-1.6875 0l0 -12.75zm20.546875 0l0 12.75l-1.609375 0l0 -2.1875q-1.03125 1.25 -2.328125 1.890625q-1.28125 0.625 -2.796875 0.625q-2.703125 0 -4.625 -1.953125q-1.921875 -1.96875 -1.921875 -4.78125q0 -2.765625 1.9375 -4.71875q1.9375 -1.953125 4.65625 -1.953125q1.5625 0 2.828125 0.671875q1.28125 0.65625 2.25 2.0l0 -2.34375l1.609375 0zm-6.5625 1.25q-1.375 0 -2.53125 0.671875q-1.15625 0.671875 -1.84375 1.890625q-0.6875 1.21875 -0.6875 2.578125q0 1.359375 0.6875 2.59375q0.703125 1.21875 1.859375 1.90625q1.171875 0.6875 2.5 0.6875q1.359375 0 2.5625 -0.671875q1.203125 -0.6875 1.84375 -1.84375q0.65625 -1.171875 0.65625 -2.625q0 -2.203125 -1.453125 -3.6875q-1.453125 -1.5 -3.59375 -1.5zm16.878906 0.265625l-0.90625 -0.515625q0.453125 -0.890625 0.59375 -1.390625q0.15625 -0.515625 0.234375 -1.3125l-1.03125 0l0 -3.21875l2.109375 0l0 2.015625q0 1.515625 -0.203125 2.375q-0.203125 0.859375 -0.796875 2.046875zm-5.21875 0l-0.90625 -0.515625q0.453125 -0.890625 0.59375 -1.390625q0.15625 -0.515625 0.234375 -1.3125l-1.03125 0l0 -3.21875l2.125 0l0 2.015625q0 1.515625 -0.21875 2.375q-0.203125 0.859375 -0.796875 2.046875zm15.6484375 -1.515625l1.75 0l4.265625 9.28125l4.21875 -9.28125l1.765625 0l-5.84375 12.75l-0.28125 0l-5.875 -12.75zm15.082031 -5.25q0.5625 0 0.953125 0.40625q0.40625 0.390625 0.40625 0.953125q0 0.546875 -0.40625 0.953125q-0.390625 0.390625 -0.953125 0.390625q-0.546875 0 -0.953125 -0.390625q-0.390625 -0.40625 -0.390625 -0.953125q0 -0.5625 0.390625 -0.953125q0.40625 -0.40625 0.953125 -0.40625zm-0.828125 5.25l1.65625 0l0 12.75l-1.65625 0l0 -12.75zm15.7890625 8.515625l1.390625 0.734375q-0.6875 1.328125 -1.578125 2.15625q-0.890625 0.8125 -2.0 1.25q-1.109375 0.421875 -2.515625 0.421875q-3.125 0 -4.890625 -2.046875q-1.75 -2.046875 -1.75 -4.625q0 -2.421875 1.484375 -4.328125q1.890625 -2.40625 5.0625 -2.40625q3.25 0 5.203125 2.46875q1.375 1.75 1.40625 4.359375l-11.46875 0q0.046875 2.234375 1.421875 3.65625q1.375 1.421875 3.390625 1.421875q0.96875 0 1.890625 -0.34375q0.921875 -0.34375 1.5625 -0.90625q0.640625 -0.5625 1.390625 -1.8125zm0 -3.4375q-0.328125 -1.3125 -0.953125 -2.09375q-0.625 -0.78125 -1.65625 -1.265625q-1.03125 -0.484375 -2.171875 -0.484375q-1.875 0 -3.21875 1.21875q-0.984375 0.875 -1.484375 2.625l9.484375 0zm3.1445312 -5.078125l1.6875 0l3.90625 9.25l4.078125 -9.25l0.296875 0l4.078125 9.25l3.96875 -9.25l1.71875 0l-5.53125 12.75l-0.3125 0l-4.0625 -9.125l-4.09375 9.125l-0.296875 0l-5.4375 -12.75z" fill-rule="nonzero"/><path fill="#595959" d="m479.4386 249.23633l1.890625 0q-1.140625 2.359375 -1.84375 5.5q-0.6875 3.140625 -0.6875 6.46875q0 3.09375 0.515625 5.96875q0.53125 2.875 1.4375 5.0625l-1.796875 0q-0.875 -2.09375 -1.390625 -4.921875q-0.515625 -2.828125 -0.515625 -5.875q0 -3.296875 0.609375 -6.421875q0.609375 -3.125 1.78125 -5.78125zm5.15625 5.25l1.640625 0l0 2.203125q0.84375 -1.21875 1.75 -1.78125q1.25 -0.75 2.609375 -0.75q0.9375 0 1.765625 0.359375q0.828125 0.359375 1.359375 0.96875q0.53125 0.609375 0.90625 1.734375q0.828125 -1.5 2.046875 -2.28125q1.234375 -0.78125 2.65625 -0.78125q1.328125 0 2.34375 0.671875q1.015625 0.65625 1.5 1.859375q0.5 1.1875 0.5 3.578125l0 6.96875l-1.6875 0l0 -6.96875q0 -2.046875 -0.296875 -2.8125q-0.28125 -0.765625 -1.0 -1.234375q-0.703125 -0.46875 -1.6875 -0.46875q-1.1875 0 -2.1875 0.703125q-0.984375 0.703125 -1.453125 1.875q-0.453125 1.171875 -0.453125 3.90625l0 5.0l-1.625 0l0 -6.53125q0 -2.3125 -0.296875 -3.125q-0.28125 -0.828125 -1.0 -1.328125q-0.703125 -0.5 -1.6875 -0.5q-1.140625 0 -2.140625 0.6875q-0.984375 0.6875 -1.453125 1.84375q-0.46875 1.15625 -0.46875 3.546875l0 5.40625l-1.640625 0l0 -12.75zm35.23047 0l0 12.75l-1.609375 0l0 -2.1875q-1.03125 1.25 -2.328125 1.890625q-1.28125 0.625 -2.796875 0.625q-2.703125 0 -4.625 -1.953125q-1.921875 -1.96875 -1.921875 -4.78125q0 -2.765625 1.9375 -4.71875q1.9375 -1.953125 4.65625 -1.953125q1.5625 0 2.828125 0.671875q1.28125 0.65625 2.25 2.0l0 -2.34375l1.609375 0zm-6.5625 1.25q-1.375 0 -2.53125 0.671875q-1.15625 0.671875 -1.84375 1.890625q-0.6875 1.21875 -0.6875 2.578125q0 1.359375 0.6875 2.59375q0.703125 1.21875 1.859375 1.90625q1.171875 0.6875 2.5 0.6875q1.359375 0 2.5625 -0.671875q1.203125 -0.6875 1.84375 -1.84375q0.65625 -1.171875 0.65625 -2.625q0 -2.203125 -1.453125 -3.6875q-1.453125 -1.5 -3.59375 -1.5zm11.691406 -5.984375l1.640625 0l0 4.734375l2.609375 0l0 1.40625l-2.609375 0l0 11.34375l-1.640625 0l0 -11.34375l-2.25 0l0 -1.40625l2.25 0l0 -4.734375zm6.0703125 4.734375l1.6875 0l0 1.859375q0.75 -1.09375 1.578125 -1.640625q0.828125 -0.546875 1.734375 -0.546875q0.671875 0 1.453125 0.4375l-0.859375 1.375q-0.515625 -0.21875 -0.859375 -0.21875q-0.828125 0 -1.59375 0.671875q-0.75 0.671875 -1.15625 2.09375q-0.296875 1.09375 -0.296875 4.40625l0 4.3125l-1.6875 0l0 -12.75zm8.421875 -5.25q0.5625 0 0.953125 0.40625q0.40625 0.390625 0.40625 0.953125q0 0.546875 -0.40625 0.953125q-0.390625 0.390625 -0.953125 0.390625q-0.546875 0 -0.953125 -0.390625q-0.390625 -0.40625 -0.390625 -0.953125q0 -0.5625 0.390625 -0.953125q0.40625 -0.40625 0.953125 -0.40625zm-0.828125 5.25l1.65625 0l0 12.75l-1.65625 0l0 -12.75zm3.6015625 0l1.96875 0l3.375 4.71875l3.375 -4.71875l1.96875 0l-4.359375 6.0625l4.90625 6.6875l-1.984375 0l-3.90625 -5.359375l-3.84375 5.359375l-1.953125 0l4.828125 -6.6875l-4.375 -6.0625zm18.992188 0l1.6875 0l0 1.859375q0.75 -1.09375 1.578125 -1.640625q0.828125 -0.546875 1.734375 -0.546875q0.671875 0 1.453125 0.4375l-0.859375 1.375q-0.515625 -0.21875 -0.859375 -0.21875q-0.828125 0 -1.59375 0.671875q-0.75 0.671875 -1.15625 2.09375q-0.296875 1.09375 -0.296875 4.40625l0 4.3125l-1.6875 0l0 -12.75zm18.578125 8.515625l1.390625 0.734375q-0.6875 1.328125 -1.578125 2.15625q-0.890625 0.8125 -2.0 1.25q-1.109375 0.421875 -2.515625 0.421875q-3.125 0 -4.890625 -2.046875q-1.75 -2.046875 -1.75 -4.625q0 -2.421875 1.484375 -4.328125q1.890625 -2.40625 5.0625 -2.40625q3.25 0 5.203125 2.46875q1.375 1.75 1.40625 4.359375l-11.46875 0q0.046875 2.234375 1.421875 3.65625q1.375 1.421875 3.390625 1.421875q0.96875 0 1.890625 -0.34375q0.921875 -0.34375 1.5625 -0.90625q0.640625 -0.5625 1.390625 -1.8125zm0 -3.4375q-0.328125 -1.3125 -0.953125 -2.09375q-0.625 -0.78125 -1.65625 -1.265625q-1.03125 -0.484375 -2.171875 -0.484375q-1.875 0 -3.21875 1.21875q-0.984375 0.875 -1.484375 2.625l9.484375 0zm4.8945312 -5.078125l1.625 0l0 2.34375q0.96875 -1.34375 2.234375 -2.0q1.265625 -0.671875 2.828125 -0.671875q2.71875 0 4.640625 1.953125q1.9375 1.953125 1.9375 4.71875q0 2.8125 -1.921875 4.78125q-1.90625 1.953125 -4.609375 1.953125q-1.53125 0 -2.8125 -0.625q-1.265625 -0.640625 -2.296875 -1.890625l0 6.859375l-1.625 0l0 -17.421875zm6.5625 1.25q-2.140625 0 -3.609375 1.5q-1.453125 1.484375 -1.453125 3.6875q0 1.453125 0.65625 2.625q0.65625 1.15625 1.859375 1.84375q1.21875 0.671875 2.5625 0.671875q1.328125 0 2.484375 -0.6875q1.171875 -0.6875 1.859375 -1.90625q0.703125 -1.234375 0.703125 -2.59375q0 -1.359375 -0.6875 -2.578125q-0.6875 -1.21875 -1.859375 -1.890625q-1.15625 -0.671875 -2.515625 -0.671875zm9.152344 -1.25l1.6875 0l0 1.859375q0.75 -1.09375 1.578125 -1.640625q0.828125 -0.546875 1.734375 -0.546875q0.671875 0 1.453125 0.4375l-0.859375 1.375q-0.515625 -0.21875 -0.859375 -0.21875q-0.828125 0 -1.59375 0.671875q-0.75 0.671875 -1.15625 2.09375q-0.296875 1.09375 -0.296875 4.40625l0 4.3125l-1.6875 0l0 -12.75zm18.578125 8.515625l1.390625 0.734375q-0.6875 1.328125 -1.578125 2.15625q-0.890625 0.8125 -2.0 1.25q-1.109375 0.421875 -2.515625 0.421875q-3.125 0 -4.890625 -2.046875q-1.75 -2.046875 -1.75 -4.625q0 -2.421875 1.484375 -4.328125q1.890625 -2.40625 5.0625 -2.40625q3.25 0 5.203125 2.46875q1.375 1.75 1.40625 4.359375l-11.46875 0q0.046875 2.234375 1.421875 3.65625q1.375 1.421875 3.390625 1.421875q0.96875 0 1.890625 -0.34375q0.921875 -0.34375 1.5625 -0.90625q0.640625 -0.5625 1.390625 -1.8125zm0 -3.4375q-0.328125 -1.3125 -0.953125 -2.09375q-0.625 -0.78125 -1.65625 -1.265625q-1.03125 -0.484375 -2.171875 -0.484375q-1.875 0 -3.21875 1.21875q-0.984375 0.875 -1.484375 2.625l9.484375 0zm11.269531 -3.6875l-1.046875 1.09375q-1.3125 -1.28125 -2.5625 -1.28125q-0.796875 0 -1.375 0.53125q-0.5625 0.53125 -0.5625 1.234375q0 0.609375 0.46875 1.171875q0.46875 0.578125 1.96875 1.359375q1.828125 0.9375 2.484375 1.828125q0.640625 0.890625 0.640625 2.0q0 1.5625 -1.109375 2.65625q-1.09375 1.09375 -2.75 1.09375q-1.09375 0 -2.09375 -0.484375q-1.0 -0.484375 -1.65625 -1.328125l1.03125 -1.171875q1.25 1.421875 2.65625 1.421875q0.984375 0 1.671875 -0.625q0.6875 -0.640625 0.6875 -1.5q0 -0.703125 -0.453125 -1.25q-0.453125 -0.53125 -2.0625 -1.359375q-1.71875 -0.890625 -2.34375 -1.75q-0.625 -0.875 -0.625 -1.984375q0 -1.453125 0.984375 -2.40625q1.0 -0.96875 2.515625 -0.96875q1.75 0 3.53125 1.71875zm13.644531 7.125l1.390625 0.734375q-0.6875 1.328125 -1.578125 2.15625q-0.890625 0.8125 -2.0 1.25q-1.109375 0.421875 -2.515625 0.421875q-3.125 0 -4.890625 -2.046875q-1.75 -2.046875 -1.75 -4.625q0 -2.421875 1.484375 -4.328125q1.890625 -2.40625 5.0625 -2.40625q3.25 0 5.203125 2.46875q1.375 1.75 1.40625 4.359375l-11.46875 0q0.046875 2.234375 1.421875 3.65625q1.375 1.421875 3.390625 1.421875q0.96875 0 1.890625 -0.34375q0.921875 -0.34375 1.5625 -0.90625q0.640625 -0.5625 1.390625 -1.8125zm0 -3.4375q-0.328125 -1.3125 -0.953125 -2.09375q-0.625 -0.78125 -1.65625 -1.265625q-1.03125 -0.484375 -2.171875 -0.484375q-1.875 0 -3.21875 1.21875q-0.984375 0.875 -1.484375 2.625l9.484375 0zm4.8632812 -5.078125l1.640625 0l0 2.28125q0.984375 -1.3125 2.171875 -1.953125q1.203125 -0.65625 2.609375 -0.65625q1.4375 0 2.53125 0.734375q1.109375 0.71875 1.640625 1.953125q0.53125 1.21875 0.53125 3.828125l0 6.5625l-1.625 0l0 -6.078125q0 -2.203125 -0.1875 -2.953125q-0.296875 -1.265625 -1.109375 -1.890625q-0.8125 -0.640625 -2.109375 -0.640625q-1.484375 0 -2.671875 0.984375q-1.171875 0.984375 -1.546875 2.4375q-0.234375 0.9375 -0.234375 3.46875l0 4.671875l-1.640625 0l0 -12.75zm16.074219 -4.734375l1.640625 0l0 4.734375l2.609375 0l0 1.40625l-2.609375 0l0 11.34375l-1.640625 0l0 -11.34375l-2.25 0l0 -1.40625l2.25 0l0 -4.734375zm19.398438 4.734375l0 12.75l-1.609375 0l0 -2.1875q-1.03125 1.25 -2.328125 1.890625q-1.28125 0.625 -2.796875 0.625q-2.703125 0 -4.625 -1.953125q-1.921875 -1.96875 -1.921875 -4.78125q0 -2.765625 1.9375 -4.71875q1.9375 -1.953125 4.65625 -1.953125q1.5625 0 2.828125 0.671875q1.28125 0.65625 2.25 2.0l0 -2.34375l1.609375 0zm-6.5625 1.25q-1.375 0 -2.53125 0.671875q-1.15625 0.671875 -1.84375 1.890625q-0.6875 1.21875 -0.6875 2.578125q0 1.359375 0.6875 2.59375q0.703125 1.21875 1.859375 1.90625q1.171875 0.6875 2.5 0.6875q1.359375 0 2.5625 -0.671875q1.203125 -0.6875 1.84375 -1.84375q0.65625 -1.171875 0.65625 -2.625q0 -2.203125 -1.453125 -3.6875q-1.453125 -1.5 -3.59375 -1.5zm11.691406 -5.984375l1.640625 0l0 4.734375l2.609375 0l0 1.40625l-2.609375 0l0 11.34375l-1.640625 0l0 -11.34375l-2.25 0l0 -1.40625l2.25 0l0 -4.734375zm7.2734375 -0.515625q0.5625 0 0.953125 0.40625q0.40625 0.390625 0.40625 0.953125q0 0.546875 -0.40625 0.953125q-0.390625 0.390625 -0.953125 0.390625q-0.546875 0 -0.953125 -0.390625q-0.390625 -0.40625 -0.390625 -0.953125q0 -0.5625 0.390625 -0.953125q0.40625 -0.40625 0.953125 -0.40625zm-0.828125 5.25l1.65625 0l0 12.75l-1.65625 0l0 -12.75zm11.0859375 -0.328125q2.953125 0 4.875 2.125q1.765625 1.953125 1.765625 4.609375q0 2.671875 -1.859375 4.671875q-1.859375 2.0 -4.78125 2.0q-2.921875 0 -4.78125 -2.0q-1.859375 -2.0 -1.859375 -4.671875q0 -2.640625 1.765625 -4.59375q1.921875 -2.140625 4.875 -2.140625zm0 1.609375q-2.03125 0 -3.5 1.515625q-1.46875 1.5 -1.46875 3.640625q0 1.390625 0.671875 2.59375q0.671875 1.1875 1.796875 1.84375q1.140625 0.640625 2.5 0.640625q1.359375 0 2.5 -0.640625q1.140625 -0.65625 1.796875 -1.84375q0.671875 -1.203125 0.671875 -2.59375q0 -2.140625 -1.46875 -3.640625q-1.46875 -1.515625 -3.5 -1.515625zm9.683594 -1.28125l1.640625 0l0 2.28125q0.984375 -1.3125 2.171875 -1.953125q1.203125 -0.65625 2.609375 -0.65625q1.4375 0 2.53125 0.734375q1.109375 0.71875 1.640625 1.953125q0.53125 1.21875 0.53125 3.828125l0 6.5625l-1.625 0l0 -6.078125q0 -2.203125 -0.1875 -2.953125q-0.296875 -1.265625 -1.109375 -1.890625q-0.8125 -0.640625 -2.109375 -0.640625q-1.484375 0 -2.671875 0.984375q-1.171875 0.984375 -1.546875 2.4375q-0.234375 0.9375 -0.234375 3.46875l0 4.671875l-1.640625 0l0 -12.75zm16.449219 -0.328125q0.59375 0 1.015625 0.421875q0.421875 0.421875 0.421875 1.03125q0 0.609375 -0.421875 1.03125q-0.421875 0.421875 -1.015625 0.421875q-0.609375 0 -1.03125 -0.421875q-0.421875 -0.421875 -0.421875 -1.03125q0 -0.59375 0.421875 -1.015625q0.421875 -0.4375 1.03125 -0.4375zm-0.1875 9.90625l1.59375 0.75l-2.390625 4.4375l-1.15625 -0.484375l1.953125 -4.703125z" fill-rule="nonzero"/><path fill="#595959" d="m519.7687 283.28635l1.640625 0l0 2.203125q0.84375 -1.21875 1.75 -1.78125q1.25 -0.75 2.609375 -0.75q0.9375 0 1.765625 0.359375q0.828125 0.359375 1.359375 0.96875q0.53125 0.609375 0.90625 1.734375q0.828125 -1.5 2.046875 -2.28125q1.234375 -0.78125 2.65625 -0.78125q1.328125 0 2.34375 0.671875q1.015625 0.65625 1.5 1.859375q0.5 1.1875 0.5 3.578125l0 6.96875l-1.6875 0l0 -6.96875q0 -2.046875 -0.296875 -2.8125q-0.28125 -0.765625 -1.0 -1.234375q-0.703125 -0.46875 -1.6875 -0.46875q-1.1875 0 -2.1875 0.703125q-0.984375 0.703125 -1.453125 1.875q-0.453125 1.171875 -0.453125 3.90625l0 5.0l-1.625 0l0 -6.53125q0 -2.3125 -0.296875 -3.125q-0.28125 -0.828125 -1.0 -1.328125q-0.703125 -0.5 -1.6875 -0.5q-1.140625 0 -2.140625 0.6875q-0.984375 0.6875 -1.453125 1.84375q-0.46875 1.15625 -0.46875 3.546875l0 5.40625l-1.640625 0l0 -12.75zm28.558594 -0.328125q2.953125 0 4.875 2.125q1.765625 1.953125 1.765625 4.609375q0 2.671875 -1.859375 4.671875q-1.859375 2.0 -4.78125 2.0q-2.921875 0 -4.78125 -2.0q-1.859375 -2.0 -1.859375 -4.671875q0 -2.640625 1.765625 -4.59375q1.921875 -2.140625 4.875 -2.140625zm0 1.609375q-2.03125 0 -3.5 1.515625q-1.46875 1.5 -1.46875 3.640625q0 1.390625 0.671875 2.59375q0.671875 1.1875 1.796875 1.84375q1.140625 0.640625 2.5 0.640625q1.359375 0 2.5 -0.640625q1.140625 -0.65625 1.796875 -1.84375q0.671875 -1.203125 0.671875 -2.59375q0 -2.140625 -1.46875 -3.640625q-1.46875 -1.515625 -3.5 -1.515625zm9.058594 -1.28125l1.6875 0l0 1.859375q0.75 -1.09375 1.578125 -1.640625q0.828125 -0.546875 1.734375 -0.546875q0.671875 0 1.453125 0.4375l-0.859375 1.375q-0.515625 -0.21875 -0.859375 -0.21875q-0.828125 0 -1.59375 0.671875q-0.75 0.671875 -1.15625 2.09375q-0.296875 1.09375 -0.296875 4.40625l0 4.3125l-1.6875 0l0 -12.75zm18.578125 8.515625l1.390625 0.734375q-0.6875 1.328125 -1.578125 2.15625q-0.890625 0.8125 -2.0 1.25q-1.109375 0.421875 -2.515625 0.421875q-3.125 0 -4.890625 -2.046875q-1.75 -2.046875 -1.75 -4.625q0 -2.421875 1.484375 -4.328125q1.890625 -2.40625 5.0625 -2.40625q3.25 0 5.203125 2.46875q1.375 1.75 1.40625 4.359375l-11.46875 0q0.046875 2.234375 1.421875 3.65625q1.375 1.421875 3.390625 1.421875q0.96875 0 1.890625 -0.34375q0.921875 -0.34375 1.5625 -0.90625q0.640625 -0.5625 1.390625 -1.8125zm0 -3.4375q-0.328125 -1.3125 -0.953125 -2.09375q-0.625 -0.78125 -1.65625 -1.265625q-1.03125 -0.484375 -2.171875 -0.484375q-1.875 0 -3.21875 1.21875q-0.984375 0.875 -1.484375 2.625l9.484375 0zm24.210938 -5.078125l0 12.75l-1.609375 0l0 -2.1875q-1.03125 1.25 -2.328125 1.890625q-1.28125 0.625 -2.796875 0.625q-2.703125 0 -4.625 -1.953125q-1.921875 -1.96875 -1.921875 -4.78125q0 -2.765625 1.9375 -4.71875q1.9375 -1.953125 4.65625 -1.953125q1.5625 0 2.828125 0.671875q1.28125 0.65625 2.25 2.0l0 -2.34375l1.609375 0zm-6.5625 1.25q-1.375 0 -2.53125 0.671875q-1.15625 0.671875 -1.84375 1.890625q-0.6875 1.21875 -0.6875 2.578125q0 1.359375 0.6875 2.59375q0.703125 1.21875 1.859375 1.90625q1.171875 0.6875 2.5 0.6875q1.359375 0 2.5625 -0.671875q1.203125 -0.6875 1.84375 -1.84375q0.65625 -1.171875 0.65625 -2.625q0 -2.203125 -1.453125 -3.6875q-1.453125 -1.5 -3.59375 -1.5zm10.363281 11.5l0 -17.671875l1.625 0l0 7.109375q1.03125 -1.265625 2.3125 -1.890625q1.28125 -0.625 2.796875 -0.625q2.703125 0 4.625 1.96875q1.921875 1.953125 1.921875 4.75q0 2.765625 -1.9375 4.734375q-1.9375 1.953125 -4.65625 1.953125q-1.5625 0 -2.828125 -0.671875q-1.265625 -0.671875 -2.234375 -2.0l0 2.34375l-1.625 0zm6.5625 -1.25q1.375 0 2.53125 -0.671875q1.15625 -0.6875 1.84375 -1.90625q0.6875 -1.21875 0.6875 -2.578125q0 -1.359375 -0.703125 -2.578125q-0.6875 -1.234375 -1.859375 -1.921875q-1.15625 -0.6875 -2.484375 -0.6875q-1.34375 0 -2.5625 0.6875q-1.203125 0.6875 -1.859375 1.84375q-0.640625 1.15625 -0.640625 2.609375q0 2.21875 1.453125 3.71875q1.453125 1.484375 3.59375 1.484375zm16.105469 -10.109375l-1.046875 1.09375q-1.3125 -1.28125 -2.5625 -1.28125q-0.796875 0 -1.375 0.53125q-0.5625 0.53125 -0.5625 1.234375q0 0.609375 0.46875 1.171875q0.46875 0.578125 1.96875 1.359375q1.828125 0.9375 2.484375 1.828125q0.640625 0.890625 0.640625 2.0q0 1.5625 -1.109375 2.65625q-1.09375 1.09375 -2.75 1.09375q-1.09375 0 -2.09375 -0.484375q-1.0 -0.484375 -1.65625 -1.328125l1.03125 -1.171875q1.25 1.421875 2.65625 1.421875q0.984375 0 1.671875 -0.625q0.6875 -0.640625 0.6875 -1.5q0 -0.703125 -0.453125 -1.25q-0.453125 -0.53125 -2.0625 -1.359375q-1.71875 -0.890625 -2.34375 -1.75q-0.625 -0.875 -0.625 -1.984375q0 -1.453125 0.984375 -2.40625q1.0 -0.96875 2.515625 -0.96875q1.75 0 3.53125 1.71875zm4.3476562 -6.125l1.640625 0l0 4.734375l2.609375 0l0 1.40625l-2.609375 0l0 11.34375l-1.640625 0l0 -11.34375l-2.25 0l0 -1.40625l2.25 0l0 -4.734375zm6.0703125 4.734375l1.6875 0l0 1.859375q0.75 -1.09375 1.578125 -1.640625q0.828125 -0.546875 1.734375 -0.546875q0.671875 0 1.453125 0.4375l-0.859375 1.375q-0.515625 -0.21875 -0.859375 -0.21875q-0.828125 0 -1.59375 0.671875q-0.75 0.671875 -1.15625 2.09375q-0.296875 1.09375 -0.296875 4.40625l0 4.3125l-1.6875 0l0 -12.75zm20.546875 0l0 12.75l-1.609375 0l0 -2.1875q-1.03125 1.25 -2.328125 1.890625q-1.28125 0.625 -2.796875 0.625q-2.703125 0 -4.625 -1.953125q-1.921875 -1.96875 -1.921875 -4.78125q0 -2.765625 1.9375 -4.71875q1.9375 -1.953125 4.65625 -1.953125q1.5625 0 2.828125 0.671875q1.28125 0.65625 2.25 2.0l0 -2.34375l1.609375 0zm-6.5625 1.25q-1.375 0 -2.53125 0.671875q-1.15625 0.671875 -1.84375 1.890625q-0.6875 1.21875 -0.6875 2.578125q0 1.359375 0.6875 2.59375q0.703125 1.21875 1.859375 1.90625q1.171875 0.6875 2.5 0.6875q1.359375 0 2.5625 -0.671875q1.203125 -0.6875 1.84375 -1.84375q0.65625 -1.171875 0.65625 -2.625q0 -2.203125 -1.453125 -3.6875q-1.453125 -1.5 -3.59375 -1.5zm22.628906 1.390625l-1.296875 0.8125q-1.6875 -2.234375 -4.609375 -2.234375q-2.328125 0 -3.875 1.5q-1.53125 1.5 -1.53125 3.640625q0 1.390625 0.703125 2.625q0.703125 1.234375 1.9375 1.921875q1.25 0.671875 2.78125 0.671875q2.8125 0 4.59375 -2.234375l1.296875 0.84375q-0.90625 1.375 -2.453125 2.140625q-1.546875 0.75 -3.515625 0.75q-3.015625 0 -5.015625 -1.921875q-1.984375 -1.921875 -1.984375 -4.671875q0 -1.859375 0.921875 -3.4375q0.9375 -1.59375 2.5625 -2.484375q1.640625 -0.890625 3.65625 -0.890625q1.265625 0 2.4375 0.390625q1.171875 0.375 1.984375 1.0q0.828125 0.625 1.40625 1.578125zm4.5898438 -7.375l1.640625 0l0 4.734375l2.609375 0l0 1.40625l-2.609375 0l0 11.34375l-1.640625 0l0 -11.34375l-2.25 0l0 -1.40625l2.25 0l0 -4.734375zm8.2265625 22.484375l-1.90625 0q1.15625 -2.359375 1.84375 -5.5q0.6875 -3.140625 0.6875 -6.484375q0 -3.09375 -0.53125 -5.96875q-0.515625 -2.875 -1.421875 -5.046875l1.796875 0q0.890625 2.078125 1.390625 4.921875q0.515625 2.828125 0.515625 5.875q0 3.28125 -0.609375 6.40625q-0.609375 3.125 -1.765625 5.796875z" fill-rule="nonzero"/><path fill="#000000" fill-opacity="0.0" d="m503.66666 54.87664l212.00003 0l0 112.18897l-212.00003 0z" fill-rule="evenodd"/><path fill="#000000" d="m522.9323 70.13164l1.65625 1.09375l-5.421875 8.21875q1.09375 -0.359375 2.046875 -0.359375q2.390625 0 4.0625 1.734375q1.671875 1.71875 1.671875 4.25q0 1.734375 -0.8125 3.140625q-0.8125 1.390625 -2.296875 2.21875q-1.484375 0.828125 -3.1875 0.828125q-1.65625 0 -3.078125 -0.796875q-1.40625 -0.796875 -2.21875 -2.25q-0.796875 -1.453125 -0.796875 -3.09375q0 -1.234375 0.5 -2.59375q0.5 -1.359375 1.78125 -3.28125l6.09375 -9.109375zm-2.203125 10.71875q-1.75 0 -2.984375 1.234375q-1.234375 1.234375 -1.234375 3.0q0 1.75 1.234375 2.984375q1.234375 1.234375 2.984375 1.234375q1.75 0 2.984375 -1.234375q1.25 -1.234375 1.25 -2.984375q0 -1.765625 -1.25 -3.0q-1.234375 -1.234375 -2.984375 -1.234375zm12.642578 -10.203125l3.953125 0l0 20.109375l-2.0 0l0 -18.140625l-3.15625 0l1.203125 -1.96875zm14.564453 17.09375q0.703125 0 1.1875 0.5q0.5 0.484375 0.5 1.203125q0 0.703125 -0.5 1.203125q-0.484375 0.5 -1.1875 0.5q-0.6875 0 -1.1875 -0.5q-0.484375 -0.5 -0.484375 -1.203125q0 -0.71875 0.484375 -1.203125q0.5 -0.5 1.1875 -0.5zm17.283203 -17.09375l0 1.90625l-7.15625 0l-1.0 5.484375q1.3125 -0.375 2.359375 -0.375q2.75 0 4.53125 1.84375q1.78125 1.828125 1.78125 4.703125q0 1.984375 -0.921875 3.640625q-0.90625 1.640625 -2.46875 2.53125q-1.5625 0.875 -3.609375 0.875q-2.453125 0 -4.140625 -1.484375q-1.671875 -1.5 -2.0 -3.890625l2.0625 0q0.234375 1.171875 0.78125 1.90625q0.5625 0.71875 1.484375 1.15625q0.921875 0.4375 1.921875 0.4375q1.984375 0 3.40625 -1.5q1.421875 -1.5 1.421875 -3.75q0 -2.046875 -1.28125 -3.3125q-1.28125 -1.28125 -3.4375 -1.28125q-1.765625 0 -4.296875 1.09375l1.859375 -9.984375l8.703125 0z" fill-rule="nonzero"/><path fill="#000000" d="m621.60614 70.64726l3.953125 0l0 20.109375l-2.0 0l0 -18.140625l-3.15625 0l1.203125 -1.96875zm14.033203 4.65625l-2.046875 0q0.5625 -2.484375 2.140625 -3.828125q1.59375 -1.34375 3.75 -1.34375q1.578125 0 2.9375 0.71875q1.359375 0.71875 2.09375 1.9375q0.75 1.21875 0.75 2.546875q0 2.59375 -2.578125 4.109375q1.453125 0.59375 2.375 1.734375q1.3125 1.59375 1.3125 3.578125q0 1.703125 -0.90625 3.265625q-0.890625 1.546875 -2.453125 2.390625q-1.5625 0.84375 -3.484375 0.84375q-2.609375 0 -4.34375 -1.484375q-1.734375 -1.5 -2.265625 -4.40625l1.96875 0q0.515625 1.953125 1.484375 2.828125q1.25 1.109375 3.171875 1.109375q2.1875 0 3.515625 -1.3125q1.328125 -1.3125 1.328125 -3.078125q0 -1.171875 -0.671875 -2.1875q-0.65625 -1.03125 -1.765625 -1.546875q-1.109375 -0.53125 -3.453125 -0.65625l0 -1.84375q1.375 0 2.515625 -0.484375q1.140625 -0.484375 1.640625 -1.234375q0.515625 -0.75 0.515625 -1.640625q0 -1.3125 -1.046875 -2.265625q-1.046875 -0.953125 -2.640625 -0.953125q-1.296875 0 -2.25 0.734375q-0.9375 0.71875 -1.59375 2.46875zm12.705078 5.40625q0 -3.984375 0.84375 -6.15625q0.859375 -2.171875 2.421875 -3.296875q1.5625 -1.125 3.484375 -1.125q1.953125 0 3.53125 1.140625q1.59375 1.125 2.515625 3.390625q0.921875 2.25 0.921875 6.046875q0 3.78125 -0.90625 6.03125q-0.90625 2.234375 -2.515625 3.375q-1.59375 1.140625 -3.546875 1.140625q-1.921875 0 -3.46875 -1.09375q-1.546875 -1.109375 -2.421875 -3.296875q-0.859375 -2.203125 -0.859375 -6.15625zm1.90625 0.03125q0 3.40625 0.59375 5.15625q0.609375 1.734375 1.796875 2.640625q1.203125 0.90625 2.53125 0.90625q1.328125 0 2.484375 -0.875q1.171875 -0.890625 1.78125 -2.65625q0.75 -2.140625 0.75 -5.171875q0 -3.03125 -0.671875 -4.953125q-0.671875 -1.9375 -1.859375 -2.828125q-1.171875 -0.90625 -2.484375 -0.90625q-1.34375 0 -2.53125 0.90625q-1.171875 0.890625 -1.78125 2.640625q-0.609375 1.734375 -0.609375 5.140625zm16.955078 7.0q0.703125 0 1.1875 0.5q0.5 0.484375 0.5 1.203125q0 0.703125 -0.5 1.203125q-0.484375 0.5 -1.1875 0.5q-0.6875 0 -1.1875 -0.5q-0.484375 -0.5 -0.484375 -1.203125q0 -0.71875 0.484375 -1.203125q0.5 -0.5 1.1875 -0.5zm7.220703 -12.4375l-2.046875 0q0.5625 -2.484375 2.140625 -3.828125q1.59375 -1.34375 3.75 -1.34375q1.578125 0 2.9375 0.71875q1.359375 0.71875 2.09375 1.9375q0.75 1.21875 0.75 2.546875q0 2.59375 -2.578125 4.109375q1.453125 0.59375 2.375 1.734375q1.3125 1.59375 1.3125 3.578125q0 1.703125 -0.90625 3.265625q-0.890625 1.546875 -2.453125 2.390625q-1.5625 0.84375 -3.484375 0.84375q-2.609375 0 -4.34375 -1.484375q-1.734375 -1.5 -2.265625 -4.40625l1.96875 0q0.515625 1.953125 1.484375 2.828125q1.25 1.109375 3.171875 1.109375q2.1875 0 3.515625 -1.3125q1.328125 -1.3125 1.328125 -3.078125q0 -1.171875 -0.671875 -2.1875q-0.65625 -1.03125 -1.765625 -1.546875q-1.109375 -0.53125 -3.453125 -0.65625l0 -1.84375q1.375 0 2.515625 -0.484375q1.140625 -0.484375 1.640625 -1.234375q0.515625 -0.75 0.515625 -1.640625q0 -1.3125 -1.046875 -2.265625q-1.046875 -0.953125 -2.640625 -0.953125q-1.296875 0 -2.25 0.734375q-0.9375 0.71875 -1.59375 2.46875z" fill-rule="nonzero"/><path fill="#000000" d="m514.6823 109.287254l12.75 0l-10.765625 20.609383l-1.640625 -0.84375l9.296875 -17.875008l-9.640625 0l0 -1.890625zm16.736328 6.296875l-1.921875 0q0.078125 -2.984375 1.984375 -4.890625q1.90625 -1.921875 4.71875 -1.921875q2.765625 0 4.484375 1.796875q1.71875 1.796875 1.71875 4.21875q0 1.71875 -0.828125 3.21875q-0.8125 1.484375 -3.171875 4.046875l-5.015625 5.40625l9.296875 0l0 1.9375076l-13.671875 0l7.6875 -8.296883q2.34375 -2.5 3.046875 -3.703125q0.703125 -1.21875 0.703125 -2.5625q0 -1.6875 -1.265625 -2.90625q-1.265625 -1.234375 -3.09375 -1.234375q-1.9375 0 -3.21875 1.28125q-1.265625 1.28125 -1.453125 3.609375zm16.517578 10.796875q0.703125 0 1.1875 0.5q0.5 0.484375 0.5 1.2031326q0 0.703125 -0.5 1.203125q-0.484375 0.5 -1.1875 0.5q-0.6875 0 -1.1875 -0.5q-0.484375 -0.5 -0.484375 -1.203125q0 -0.7187576 0.484375 -1.2031326q0.5 -0.5 1.1875 -0.5zm15.439453 -17.609375l0.40625 0l0 14.015625l2.4375 0l0 1.9375l-2.4375 0l0 4.6718826l-2.0 0l0 -4.6718826l-9.609375 0l11.203125 -15.953125zm-1.59375 14.015625l0 -8.375l-5.921875 8.375l5.921875 0z" fill-rule="nonzero"/><path fill="#000000" d="m621.60614 109.287254l3.953125 0l0 20.109383l-2.0 0l0 -18.140633l-3.15625 0l1.203125 -1.96875zm21.095703 9.078125q2.03125 1.015625 2.90625 2.3125q0.890625 1.296875 0.890625 2.953125q0 2.3125 -1.515625 4.09375q-1.859375 2.1718826 -5.328125 2.1718826q-3.328125 0 -5.0625 -1.9062576q-1.71875 -1.90625 -1.71875 -4.203125q0 -1.671875 0.90625 -3.015625q0.90625 -1.359375 3.015625 -2.40625q-1.484375 -0.765625 -2.21875 -1.890625q-0.734375 -1.140625 -0.734375 -2.453125q0 -1.3125 0.78125 -2.5625q0.78125 -1.25 2.171875 -1.96875q1.390625 -0.71875 3.0 -0.71875q1.578125 0 2.90625 0.734375q1.34375 0.71875 2.09375 1.96875q0.765625 1.234375 0.765625 2.609375q0 1.359375 -0.71875 2.4375q-0.703125 1.0625 -2.140625 1.84375zm-3.0 -7.625q-1.65625 0 -2.75 0.984375q-1.078125 0.96875 -1.078125 2.3125q0 1.34375 1.171875 2.4375q1.171875 1.078125 2.71875 1.078125q1.0 0 1.890625 -0.484375q0.890625 -0.5 1.390625 -1.34375q0.5 -0.859375 0.5 -1.71875q0 -1.21875 -0.984375 -2.234375q-0.984375 -1.03125 -2.859375 -1.03125zm0.09375 8.640625q-2.078125 0 -3.484375 1.34375q-1.40625 1.34375 -1.40625 3.140625q0 1.09375 0.59375 2.078125q0.609375 0.984375 1.6875 1.53125q1.078125 0.5312576 2.5 0.5312576q2.203125 0 3.5 -1.2968826q1.296875 -1.3125 1.296875 -3.046875q0 -1.671875 -1.375 -2.96875q-1.375 -1.3125 -3.3125 -1.3125zm8.548828 -0.03125q0 -3.984375 0.84375 -6.15625q0.859375 -2.171875 2.421875 -3.296875q1.5625 -1.125 3.484375 -1.125q1.953125 0 3.53125 1.140625q1.59375 1.125 2.515625 3.390625q0.921875 2.25 0.921875 6.046875q0 3.78125 -0.90625 6.03125q-0.90625 2.234375 -2.515625 3.3750076q-1.59375 1.140625 -3.546875 1.140625q-1.921875 0 -3.46875 -1.09375q-1.546875 -1.1093826 -2.421875 -3.2968826q-0.859375 -2.203125 -0.859375 -6.15625zm1.90625 0.03125q0 3.40625 0.59375 5.15625q0.609375 1.734375 1.796875 2.640625q1.203125 0.9062576 2.53125 0.9062576q1.328125 0 2.484375 -0.8750076q1.171875 -0.890625 1.78125 -2.65625q0.75 -2.140625 0.75 -5.171875q0 -3.03125 -0.671875 -4.953125q-0.671875 -1.9375 -1.859375 -2.828125q-1.171875 -0.90625 -2.484375 -0.90625q-1.34375 0 -2.53125 0.90625q-1.171875 0.890625 -1.78125 2.640625q-0.609375 1.734375 -0.609375 5.140625zm16.955078 7.0q0.703125 0 1.1875 0.5q0.5 0.484375 0.5 1.2031326q0 0.703125 -0.5 1.203125q-0.484375 0.5 -1.1875 0.5q-0.6875 0 -1.1875 -0.5q-0.484375 -0.5 -0.484375 -1.203125q0 -0.7187576 0.484375 -1.2031326q0.5 -0.5 1.1875 -0.5zm13.783203 -17.609375l1.65625 1.09375l-5.421875 8.21875q1.09375 -0.359375 2.046875 -0.359375q2.390625 0 4.0625 1.734375q1.671875 1.71875 1.671875 4.25q0 1.734375 -0.8125 3.140625q-0.8125 1.3906326 -2.296875 2.2187576q-1.484375 0.828125 -3.1875 0.828125q-1.65625 0 -3.078125 -0.796875q-1.40625 -0.796875 -2.21875 -2.2500076q-0.796875 -1.453125 -0.796875 -3.09375q0 -1.234375 0.5 -2.59375q0.5 -1.359375 1.78125 -3.28125l6.09375 -9.109375zm-2.203125 10.71875q-1.75 0 -2.984375 1.234375q-1.234375 1.234375 -1.234375 3.0q0 1.75 1.234375 2.984375q1.234375 1.234375 2.984375 1.234375q1.75 0 2.984375 -1.234375q1.25 -1.234375 1.25 -2.984375q0 -1.765625 -1.25 -3.0q-1.234375 -1.234375 -2.984375 -1.234375z" fill-rule="nonzero"/><path fill="#000000" d="m526.4323 147.92725l0 1.90625l-7.15625 0l-1.0 5.484375q1.3125 -0.375 2.359375 -0.375q2.75 0 4.53125 1.84375q1.78125 1.828125 1.78125 4.703125q0 1.984375 -0.921875 3.640625q-0.90625 1.640625 -2.46875 2.53125q-1.5625 0.875 -3.609375 0.875q-2.453125 0 -4.140625 -1.484375q-1.671875 -1.5 -2.0 -3.890625l2.0625 0q0.234375 1.171875 0.78125 1.90625q0.5625 0.71875 1.484375 1.15625q0.921875 0.4375 1.921875 0.4375q1.984375 0 3.40625 -1.5q1.421875 -1.5 1.421875 -3.75q0 -2.046875 -1.28125 -3.3125q-1.28125 -1.28125 -3.4375 -1.28125q-1.765625 0 -4.296875 1.09375l1.859375 -9.984375l8.703125 0zm12.517578 9.078125q2.03125 1.015625 2.90625 2.3125q0.890625 1.296875 0.890625 2.953125q0 2.3125 -1.515625 4.09375q-1.859375 2.171875 -5.328125 2.171875q-3.328125 0 -5.0625 -1.90625q-1.71875 -1.90625 -1.71875 -4.203125q0 -1.671875 0.90625 -3.015625q0.90625 -1.359375 3.015625 -2.40625q-1.484375 -0.765625 -2.21875 -1.890625q-0.734375 -1.140625 -0.734375 -2.453125q0 -1.3125 0.78125 -2.5625q0.78125 -1.25 2.171875 -1.96875q1.390625 -0.71875 3.0 -0.71875q1.578125 0 2.90625 0.734375q1.34375 0.71875 2.09375 1.96875q0.765625 1.234375 0.765625 2.609375q0 1.359375 -0.71875 2.4375q-0.703125 1.0625 -2.140625 1.84375zm-3.0 -7.625q-1.65625 0 -2.75 0.984375q-1.078125 0.96875 -1.078125 2.3125q0 1.34375 1.171875 2.4375q1.171875 1.078125 2.71875 1.078125q1.0 0 1.890625 -0.484375q0.890625 -0.5 1.390625 -1.34375q0.5 -0.859375 0.5 -1.71875q0 -1.21875 -0.984375 -2.234375q-0.984375 -1.03125 -2.859375 -1.03125zm0.09375 8.640625q-2.078125 0 -3.484375 1.34375q-1.40625 1.34375 -1.40625 3.140625q0 1.09375 0.59375 2.078125q0.609375 0.984375 1.6875 1.53125q1.078125 0.53125 2.5 0.53125q2.203125 0 3.5 -1.296875q1.296875 -1.3125 1.296875 -3.046875q0 -1.671875 -1.375 -2.96875q-1.375 -1.3125 -3.3125 -1.3125zm11.892578 7.0q0.703125 0 1.1875 0.5q0.5 0.484375 0.5 1.203125q0 0.703125 -0.5 1.203125q-0.484375 0.5 -1.1875 0.5q-0.6875 0 -1.1875 -0.5q-0.484375 -0.5 -0.484375 -1.203125q0 -0.71875 0.484375 -1.203125q0.5 -0.5 1.1875 -0.5zm15.439453 -17.609375l0.40625 0l0 14.015625l2.4375 0l0 1.9375l-2.4375 0l0 4.671875l-2.0 0l0 -4.671875l-9.609375 0l11.203125 -15.953125zm-1.59375 14.015625l0 -8.375l-5.921875 8.375l5.921875 0z" fill-rule="nonzero"/><path fill="#000000" d="m634.9362 157.00537q2.03125 1.015625 2.90625 2.3125q0.890625 1.296875 0.890625 2.953125q0 2.3125 -1.515625 4.09375q-1.859375 2.171875 -5.328125 2.171875q-3.328125 0 -5.0625 -1.90625q-1.71875 -1.90625 -1.71875 -4.203125q0 -1.671875 0.90625 -3.015625q0.90625 -1.359375 3.015625 -2.40625q-1.484375 -0.765625 -2.21875 -1.890625q-0.734375 -1.140625 -0.734375 -2.453125q0 -1.3125 0.78125 -2.5625q0.78125 -1.25 2.171875 -1.96875q1.390625 -0.71875 3.0 -0.71875q1.578125 0 2.90625 0.734375q1.34375 0.71875 2.09375 1.96875q0.765625 1.234375 0.765625 2.609375q0 1.359375 -0.71875 2.4375q-0.703125 1.0625 -2.140625 1.84375zm-3.0 -7.625q-1.65625 0 -2.75 0.984375q-1.078125 0.96875 -1.078125 2.3125q0 1.34375 1.171875 2.4375q1.171875 1.078125 2.71875 1.078125q1.0 0 1.890625 -0.484375q0.890625 -0.5 1.390625 -1.34375q0.5 -0.859375 0.5 -1.71875q0 -1.21875 -0.984375 -2.234375q-0.984375 -1.03125 -2.859375 -1.03125zm0.09375 8.640625q-2.078125 0 -3.484375 1.34375q-1.40625 1.34375 -1.40625 3.140625q0 1.09375 0.59375 2.078125q0.609375 0.984375 1.6875 1.53125q1.078125 0.53125 2.5 0.53125q2.203125 0 3.5 -1.296875q1.296875 -1.3125 1.296875 -3.046875q0 -1.671875 -1.375 -2.96875q-1.375 -1.3125 -3.3125 -1.3125zm17.923828 -10.609375l1.65625 1.09375l-5.421875 8.21875q1.09375 -0.359375 2.046875 -0.359375q2.390625 0 4.0625 1.734375q1.671875 1.71875 1.671875 4.25q0 1.734375 -0.8125 3.140625q-0.8125 1.390625 -2.296875 2.21875q-1.484375 0.828125 -3.1875 0.828125q-1.65625 0 -3.078125 -0.796875q-1.40625 -0.796875 -2.21875 -2.25q-0.796875 -1.453125 -0.796875 -3.09375q0 -1.234375 0.5 -2.59375q0.5 -1.359375 1.78125 -3.28125l6.09375 -9.109375zm-2.203125 10.71875q-1.75 0 -2.984375 1.234375q-1.234375 1.234375 -1.234375 3.0q0 1.75 1.234375 2.984375q1.234375 1.234375 2.984375 1.234375q1.75 0 2.984375 -1.234375q1.25 -1.234375 1.25 -2.984375q0 -1.765625 -1.25 -3.0q-1.234375 -1.234375 -2.984375 -1.234375zm11.689453 6.890625q0.703125 0 1.1875 0.5q0.5 0.484375 0.5 1.203125q0 0.703125 -0.5 1.203125q-0.484375 0.5 -1.1875 0.5q-0.6875 0 -1.1875 -0.5q-0.484375 -0.5 -0.484375 -1.203125q0 -0.71875 0.484375 -1.203125q0.5 -0.5 1.1875 -0.5zm5.533203 -17.09375l12.75 0l-10.765625 20.609375l-1.640625 -0.84375l9.296875 -17.875l-9.640625 0l0 -1.890625z" fill-rule="nonzero"/><path fill="#000000" fill-opacity="0.0" d="m506.37534 172.61154l0 0c-4.557434 0 -8.251984 -0.30786133 -8.251984 -0.6876373l0 -105.64834l0 0c0 -0.18237305 0.8694153 -0.35727692 2.4169617 -0.48623657c1.5475464 -0.12895203 3.6464539 -0.20140076 5.835022 -0.20140076z" fill-rule="evenodd"/><path fill="#000000" fill-opacity="0.0" d="m506.37534 172.61154l0 0c-4.557434 0 -8.251984 -0.30786133 -8.251984 -0.6876373l0 -105.64834l0 0c0 -0.18237305 0.8694153 -0.35727692 2.4169617 -0.48623657c1.5475464 -0.12895203 3.6464539 -0.20140076 5.835022 -0.20140076" fill-rule="evenodd"/><path stroke="#000000" stroke-width="3.0" stroke-linejoin="round" stroke-linecap="butt" d="m506.37534 172.61154l0 0c-4.557434 0 -8.251984 -0.30786133 -8.251984 -0.6876373l0 -105.64834l0 0c0 -0.18237305 0.8694153 -0.35727692 2.4169617 -0.48623657c1.5475464 -0.12895203 3.6464539 -0.20140076 5.835022 -0.20140076" fill-rule="evenodd"/><path fill="#000000" fill-opacity="0.0" d="m688.4278 65.58793l0 0c4.557434 0 8.252014 0.30786133 8.252014 0.6876373l0 105.64834l0 0c0 0.18237305 -0.8694458 0.35728455 -2.4169922 0.48623657c-1.5475464 0.12896729 -3.6464233 0.20140076 -5.835022 0.20140076z" fill-rule="evenodd"/><path fill="#000000" fill-opacity="0.0" d="m688.4278 65.58793l0 0c4.557434 0 8.252014 0.30786133 8.252014 0.6876373l0 105.64834l0 0c0 0.18237305 -0.8694458 0.35728455 -2.4169922 0.48623657c-1.5475464 0.12896729 -3.6464233 0.20140076 -5.835022 0.20140076" fill-rule="evenodd"/><path stroke="#000000" stroke-width="3.0" stroke-linejoin="round" stroke-linecap="butt" d="m688.4278 65.58793l0 0c4.557434 0 8.252014 0.30786133 8.252014 0.6876373l0 105.64834l0 0c0 0.18237305 -0.8694458 0.35728455 -2.4169922 0.48623657c-1.5475464 0.12896729 -3.6464233 0.20140076 -5.835022 0.20140076" fill-rule="evenodd"/></g></svg>