<svg version="1.1" viewBox="0.0 0.0 840.5406824146982 414.86614173228344" fill="none" stroke="none" stroke-linecap="square" stroke-miterlimit="10" xmlns:xlink="http://www.w3.org/1999/xlink" xmlns="http://www.w3.org/2000/svg"><clipPath id="p.0"><path d="m0 0l840.5407 0l0 414.86615l-840.5407 0l0 -414.86615z" clip-rule="nonzero"/></clipPath><g clip-path="url(#p.0)"><path fill="#000000" fill-opacity="0.0" d="m0 0l840.5407 0l0 414.86615l-840.5407 0z" fill-rule="evenodd"/><path fill="#cfe2f3" d="m235.32545 277.76904l364.9449 0l0 129.73227l-364.9449 0z" fill-rule="evenodd"/><path stroke="#000000" stroke-width="3.0" stroke-linejoin="round" stroke-linecap="butt" d="m235.32545 277.76904l364.9449 0l0 129.73227l-364.9449 0z" fill-rule="evenodd"/><path fill="#e69f00" d="m33.55118 109.77165l0 0c0 -11.176155 9.060062 -20.236221 20.236221 -20.236221l0 0c5.3669777 0 10.514141 2.1320267 14.30917 5.9270554c3.7950287 3.7950287 5.9270477 8.942184 5.9270477 14.309166l0 0c0 11.176155 -9.060066 20.236221 -20.236217 20.236221l0 0c-11.176159 0 -20.236221 -9.060066 -20.236221 -20.236221z" fill-rule="evenodd"/><path stroke="#000000" stroke-width="3.0" stroke-linejoin="round" stroke-linecap="butt" d="m33.55118 109.77165l0 0c0 -11.176155 9.060062 -20.236221 20.236221 -20.236221l0 0c5.3669777 0 10.514141 2.1320267 14.30917 5.9270554c3.7950287 3.7950287 5.9270477 8.942184 5.9270477 14.309166l0 0c0 11.176155 -9.060066 20.236221 -20.236217 20.236221l0 0c-11.176159 0 -20.236221 -9.060066 -20.236221 -20.236221z" fill-rule="evenodd"/><path fill="#56b4e9" d="m145.30708 109.77165l0 0c0 -11.176155 9.060074 -20.236221 20.236221 -20.236221l0 0c5.366989 0 10.514145 2.1320267 14.309174 5.9270554c3.7950287 3.7950287 5.9270477 8.942184 5.9270477 14.309166l0 0c0 11.176155 -9.060059 20.236221 -20.236221 20.236221l0 0c-11.176147 0 -20.236221 -9.060066 -20.236221 -20.236221z" fill-rule="evenodd"/><path stroke="#000000" stroke-width="3.0" stroke-linejoin="round" stroke-linecap="butt" d="m145.30708 109.77165l0 0c0 -11.176155 9.060074 -20.236221 20.236221 -20.236221l0 0c5.366989 0 10.514145 2.1320267 14.309174 5.9270554c3.7950287 3.7950287 5.9270477 8.942184 5.9270477 14.309166l0 0c0 11.176155 -9.060059 20.236221 -20.236221 20.236221l0 0c-11.176147 0 -20.236221 -9.060066 -20.236221 -20.236221z" fill-rule="evenodd"/><path fill="#56b4e9" d="m257.063 109.77165l0 0c0 -11.176155 9.060059 -20.236221 20.236237 -20.236221l0 0c5.366974 0 10.51413 2.1320267 14.309143 5.9270554c3.795044 3.7950287 5.927063 8.942184 5.927063 14.309166l0 0c0 11.176155 -9.060059 20.236221 -20.236206 20.236221l0 0c-11.176178 0 -20.236237 -9.060066 -20.236237 -20.236221z" fill-rule="evenodd"/><path stroke="#000000" stroke-width="3.0" stroke-linejoin="round" stroke-linecap="butt" d="m257.063 109.77165l0 0c0 -11.176155 9.060059 -20.236221 20.236237 -20.236221l0 0c5.366974 0 10.51413 2.1320267 14.309143 5.9270554c3.795044 3.7950287 5.927063 8.942184 5.927063 14.309166l0 0c0 11.176155 -9.060059 20.236221 -20.236206 20.236221l0 0c-11.176178 0 -20.236237 -9.060066 -20.236237 -20.236221z" fill-rule="evenodd"/><path fill="#e69f00" d="m368.8189 109.77165l0 0c0 -11.176155 9.060059 -20.236221 20.236206 -20.236221l0 0c5.366974 0 10.51413 2.1320267 14.309174 5.9270554c3.7950134 3.7950287 5.927063 8.942184 5.927063 14.309166l0 0c0 11.176155 -9.060089 20.236221 -20.236237 20.236221l0 0c-11.176147 0 -20.236206 -9.060066 -20.236206 -20.236221z" fill-rule="evenodd"/><path stroke="#000000" stroke-width="3.0" stroke-linejoin="round" stroke-linecap="butt" d="m368.8189 109.77165l0 0c0 -11.176155 9.060059 -20.236221 20.236206 -20.236221l0 0c5.366974 0 10.51413 2.1320267 14.309174 5.9270554c3.7950134 3.7950287 5.927063 8.942184 5.927063 14.309166l0 0c0 11.176155 -9.060089 20.236221 -20.236237 20.236221l0 0c-11.176147 0 -20.236206 -9.060066 -20.236206 -20.236221z" fill-rule="evenodd"/><path fill="#56b4e9" d="m649.8163 109.77165l0 0c0 -11.176155 9.060059 -20.236221 20.236206 -20.236221l0 0c5.3670044 0 10.51416 2.1320267 14.309143 5.9270554c3.795044 3.7950287 5.927063 8.942184 5.927063 14.309166l0 0c0 11.176155 -9.060059 20.236221 -20.236206 20.236221l0 0c-11.176147 0 -20.236206 -9.060066 -20.236206 -20.236221z" fill-rule="evenodd"/><path stroke="#000000" stroke-width="3.0" stroke-linejoin="round" stroke-linecap="butt" d="m649.8163 109.77165l0 0c0 -11.176155 9.060059 -20.236221 20.236206 -20.236221l0 0c5.3670044 0 10.51416 2.1320267 14.309143 5.9270554c3.795044 3.7950287 5.927063 8.942184 5.927063 14.309166l0 0c0 11.176155 -9.060059 20.236221 -20.236206 20.236221l0 0c-11.176147 0 -20.236206 -9.060066 -20.236206 -20.236221z" fill-rule="evenodd"/><path fill="#e69f00" d="m761.5722 109.77165l0 0c0 -11.176155 9.060059 -20.236221 20.236206 -20.236221l0 0c5.3669434 0 10.514099 2.1320267 14.309143 5.9270554c3.795044 3.7950287 5.927063 8.942184 5.927063 14.309166l0 0c0 11.176155 -9.060059 20.236221 -20.236206 20.236221l0 0c-11.176147 0 -20.236206 -9.060066 -20.236206 -20.236221z" fill-rule="evenodd"/><path stroke="#000000" stroke-width="3.0" stroke-linejoin="round" stroke-linecap="butt" d="m761.5722 109.77165l0 0c0 -11.176155 9.060059 -20.236221 20.236206 -20.236221l0 0c5.3669434 0 10.514099 2.1320267 14.309143 5.9270554c3.795044 3.7950287 5.927063 8.942184 5.927063 14.309166l0 0c0 11.176155 -9.060059 20.236221 -20.236206 20.236221l0 0c-11.176147 0 -20.236206 -9.060066 -20.236206 -20.236221z" fill-rule="evenodd"/><path fill="#000000" fill-opacity="0.0" d="m74.02362 109.77165l71.27559 0" fill-rule="evenodd"/><path stroke="#000000" stroke-width="2.0" stroke-linejoin="round" stroke-linecap="butt" d="m74.02362 109.77165l71.27559 0" fill-rule="evenodd"/><path fill="#000000" fill-opacity="0.0" d="m185.77953 109.77165l71.27559 0" fill-rule="evenodd"/><path stroke="#000000" stroke-width="2.0" stroke-linejoin="round" stroke-linecap="butt" d="m185.77953 109.77165l71.27559 0" fill-rule="evenodd"/><path fill="#000000" fill-opacity="0.0" d="m297.53543 109.77165l71.275604 0" fill-rule="evenodd"/><path stroke="#000000" stroke-width="2.0" stroke-linejoin="round" stroke-linecap="butt" d="m297.53543 109.77165l71.275604 0" fill-rule="evenodd"/><path fill="#000000" fill-opacity="0.0" d="m409.29135 109.77165l71.27557 0" fill-rule="evenodd"/><path stroke="#000000" stroke-width="2.0" stroke-linejoin="round" stroke-linecap="butt" d="m409.29135 109.77165l71.27557 0" fill-rule="evenodd"/><path fill="#000000" fill-opacity="0.0" d="m578.5407 109.77165l71.27557 0" fill-rule="evenodd"/><path stroke="#000000" stroke-width="2.0" stroke-linejoin="round" stroke-linecap="butt" d="m578.5407 109.77165l71.27557 0" fill-rule="evenodd"/><path fill="#000000" fill-opacity="0.0" d="m690.2887 109.77165l71.275635 0" fill-rule="evenodd"/><path stroke="#000000" stroke-width="2.0" stroke-linejoin="round" stroke-linecap="butt" d="m690.2887 109.77165l71.275635 0" fill-rule="evenodd"/><path fill="#000000" fill-opacity="0.0" d="m484.75067 87.58268l89.60626 0l0 44.377953l-89.60626 0z" fill-rule="evenodd"/><path fill="#000000" d="m515.57324 109.94478q0 -0.953125 0.671875 -1.625q0.671875 -0.671875 1.625 -0.671875q0.953125 0 1.625 0.671875q0.6875 0.671875 0.6875 1.625q0 0.96875 -0.6875 1.640625q-0.671875 0.671875 -1.625 0.671875q-0.953125 0 -1.625 -0.671875q-0.671875 -0.671875 -0.671875 -1.640625zm11.714783 0q0 -0.953125 0.671875 -1.625q0.671875 -0.671875 1.625 -0.671875q0.953125 0 1.625 0.671875q0.6875 0.671875 0.6875 1.625q0 0.96875 -0.6875 1.640625q-0.671875 0.671875 -1.625 0.671875q-0.953125 0 -1.625 -0.671875q-0.671875 -0.671875 -0.671875 -1.640625zm11.714844 0q0 -0.953125 0.671875 -1.625q0.671875 -0.671875 1.625 -0.671875q0.953125 0 1.625 0.671875q0.6875 0.671875 0.6875 1.625q0 0.96875 -0.6875 1.640625q-0.671875 0.671875 -1.625 0.671875q-0.953125 0 -1.625 -0.671875q-0.671875 -0.671875 -0.671875 -1.640625z" fill-rule="nonzero"/><path fill="#f0e442" fill-opacity="0.5" d="m725.55646 14.761303l0 0c0 -4.08496 3.3114624 -7.3964734 7.3964233 -7.3964734l97.711 0c1.9616699 0 3.8430176 0.77926874 5.2301025 2.1663766c1.387146 1.3871078 2.1663818 3.2684298 2.1663818 5.230097l0 29.585007c0 4.084957 -3.3115234 7.396473 -7.3964844 7.396473l-97.711 0l0 0c-4.084961 0 -7.3964233 -3.3115158 -7.3964233 -7.396473z" fill-rule="evenodd"/><path fill="#000000" d="m761.18286 39.153805l-13.09375 0l0.546875 -2.609375l10.84375 -13.09375l-7.796875 0l0.703125 -3.328125l12.59375 0l-0.5625 2.609375l-10.828125 13.09375l8.296875 0l-0.703125 3.328125z" fill-rule="nonzero"/><path fill="#000000" d="m771.61475 49.1538l-2.640625 0l1.203125 -5.671875q0.21875 -1.046875 0.015625 -1.5625q-0.203125 -0.53125 -0.890625 -0.53125q-0.515625 0 -0.921875 0.21875q-0.390625 0.203125 -0.6875 0.609375q-0.28125 0.40625 -0.5 1.015625q-0.21875 0.59375 -0.375 1.359375l-0.96875 4.5625l-2.640625 0l2.0625 -9.703125l2.015625 0l0.09375 1.25l0.140625 0q0.296875 -0.375 0.65625 -0.640625q0.359375 -0.28125 0.75 -0.453125q0.390625 -0.171875 0.796875 -0.25q0.421875 -0.078125 0.828125 -0.078125q0.71875 0 1.25 0.203125q0.546875 0.203125 0.859375 0.640625q0.328125 0.421875 0.40625 1.09375q0.09375 0.671875 -0.109375 1.609375l-1.34375 6.328125z" fill-rule="nonzero"/><path fill="#000000" d="m781.02106 28.653805l0 -2.828125l12.390625 0l0 2.828125l-12.390625 0zm0 5.0625l0 -2.859375l12.390625 0l0 2.859375l-12.390625 0zm31.10614 5.4375l-4.03125 0l0 -11.015625q0 -0.328125 0 -0.796875q0.015625 -0.484375 0.03125 -1.0q0.03125 -0.515625 0.046875 -1.03125q0.015625 -0.53125 0.03125 -0.953125q-0.0625 0.078125 -0.21875 0.234375q-0.15625 0.15625 -0.359375 0.34375q-0.1875 0.1875 -0.40625 0.390625q-0.203125 0.1875 -0.390625 0.34375l-2.1875 1.75l-1.953125 -2.40625l6.125 -4.890625l3.3125 0l0 19.03125z" fill-rule="nonzero"/><path fill="#000000" fill-opacity="0.0" d="m53.787403 51.740158l0 37.795273" fill-rule="evenodd"/><path stroke="#000000" stroke-width="1.0" stroke-linejoin="round" stroke-linecap="butt" d="m53.787403 51.740158l0 37.795273" fill-rule="evenodd"/><path fill="#000000" fill-opacity="0.0" d="m389.0551 51.740158l0 37.795273" fill-rule="evenodd"/><path stroke="#000000" stroke-width="1.0" stroke-linejoin="round" stroke-linecap="butt" d="m389.0551 51.740158l0 37.795273" fill-rule="evenodd"/><path fill="#000000" fill-opacity="0.0" d="m781.8084 51.742783l0 37.795273" fill-rule="evenodd"/><path stroke="#000000" stroke-width="1.0" stroke-linejoin="round" stroke-linecap="butt" d="m781.8084 51.742783l0 37.795273" fill-rule="evenodd"/><path fill="#f0e442" fill-opacity="0.5" d="m114.23622 174.54869l0 0c0 -3.7254639 3.0200806 -6.7455444 6.7455444 -6.7455444l89.12309 0c1.7890167 0 3.504776 0.71069336 4.769806 1.9757233c1.2650452 1.2650452 1.9757233 2.9807892 1.9757233 4.769821l0 26.981354c0 3.7254639 -3.0200806 6.7455444 -6.745529 6.7455444l-89.12309 0l0 0c-3.7254639 0 -6.7455444 -3.0200806 -6.7455444 -6.7455444z" fill-rule="evenodd"/><path fill="#000000" d="m145.59436 197.63937l-13.09375 0l0.546875 -2.609375l10.84375 -13.09375l-7.796875 0l0.703125 -3.328125l12.59375 0l-0.5625 2.609375l-10.828125 13.09375l8.296875 0l-0.703125 3.328125z" fill-rule="nonzero"/><path fill="#000000" d="m155.44812 207.63937l-8.5 0l0 -1.859375l2.984375 -3.21875q0.5625 -0.609375 1.015625 -1.125q0.453125 -0.515625 0.78125 -1.0q0.34375 -0.484375 0.515625 -0.984375q0.1875 -0.5 0.1875 -1.078125q0 -0.65625 -0.390625 -1.0q-0.375 -0.359375 -1.03125 -0.359375q-0.6875 0 -1.328125 0.34375q-0.625 0.328125 -1.3125 0.953125l-1.46875 -1.71875q0.390625 -0.359375 0.8125 -0.6875q0.4375 -0.328125 0.9375 -0.578125q0.515625 -0.25 1.125 -0.390625q0.625 -0.15625 1.390625 -0.15625q0.90625 0 1.625 0.25q0.734375 0.25 1.234375 0.71875q0.515625 0.453125 0.78125 1.125q0.28125 0.65625 0.28125 1.46875q0 0.75 -0.265625 1.4375q-0.25 0.671875 -0.703125 1.328125q-0.453125 0.65625 -1.046875 1.3125q-0.59375 0.640625 -1.265625 1.3125l-1.53125 1.53125l0 0.125l5.171875 0l0 2.25z" fill-rule="nonzero"/><path fill="#000000" d="m164.07935 187.13937l0 -2.828125l12.390625 0l0 2.828125l-12.390625 0zm0 5.0625l0 -2.859375l12.390625 0l0 2.859375l-12.390625 0zm34.324905 -4.078125q0 2.3125 -0.359375 4.125q-0.359375 1.796875 -1.140625 3.0625q-0.78125 1.265625 -2.03125 1.9375q-1.25 0.65625 -3.0 0.65625q-1.65625 0 -2.875 -0.65625q-1.21875 -0.671875 -2.03125 -1.9375q-0.8125 -1.265625 -1.21875 -3.0625q-0.390625 -1.8125 -0.390625 -4.125q0 -2.296875 0.359375 -4.125q0.359375 -1.828125 1.140625 -3.078125q0.78125 -1.265625 2.015625 -1.9375q1.25 -0.671875 3.0 -0.671875q1.640625 0 2.859375 0.671875q1.234375 0.65625 2.046875 1.921875q0.828125 1.265625 1.21875 3.09375q0.40625 1.8125 0.40625 4.125zm-9.03125 0q0 3.25 0.5625 4.890625q0.5625 1.640625 1.9375 1.640625q1.359375 0 1.9375 -1.625q0.59375 -1.625 0.59375 -4.90625q0 -3.265625 -0.59375 -4.90625q-0.578125 -1.65625 -1.9375 -1.65625q-0.6875 0 -1.171875 0.421875q-0.46875 0.421875 -0.765625 1.25q-0.296875 0.8125 -0.4375 2.046875q-0.125 1.21875 -0.125 2.84375z" fill-rule="nonzero"/><path fill="#000000" fill-opacity="0.0" d="m165.5433 130.00656l0 37.795273" fill-rule="evenodd"/><path stroke="#000000" stroke-width="1.0" stroke-linejoin="round" stroke-linecap="butt" d="m165.5433 130.00656l0 37.795273" fill-rule="evenodd"/><path fill="#f0e442" fill-opacity="0.5" d="m225.99213 174.54869l0 0c0 -3.7254639 3.0200806 -6.7455444 6.7455444 -6.7455444l89.12308 0c1.789032 0 3.5047913 0.71069336 4.7698364 1.9757233c1.2650146 1.2650452 1.975708 2.9807892 1.975708 4.769821l0 26.981354c0 3.7254639 -3.0200806 6.7455444 -6.7455444 6.7455444l-89.12308 0l0 0c-3.7254639 0 -6.7455444 -3.0200806 -6.7455444 -6.7455444z" fill-rule="evenodd"/><path fill="#000000" d="m257.35028 197.63937l-13.093765 0l0.546875 -2.609375l10.84375 -13.09375l-7.796875 0l0.703125 -3.328125l12.593765 0l-0.5625 2.609375l-10.82814 13.09375l8.29689 0l-0.703125 3.328125z" fill-rule="nonzero"/><path fill="#000000" d="m266.71967 197.79562q0 0.65625 -0.21875 1.1875q-0.21875 0.515625 -0.59375 0.921875q-0.359375 0.390625 -0.859375 0.65625q-0.5 0.265625 -1.078125 0.40625l0 0.046875q1.53125 0.1875 2.3125 0.9375q0.796875 0.734375 0.796875 1.984375q0 0.84375 -0.296875 1.546875q-0.296875 0.703125 -0.921875 1.234375q-0.609375 0.515625 -1.5625 0.8125q-0.9375 0.28125 -2.203125 0.28125q-1.03125 0 -1.9375 -0.171875q-0.890625 -0.171875 -1.671875 -0.515625l0 -2.28125q0.390625 0.21875 0.8125 0.375q0.4375 0.15625 0.875 0.265625q0.4375 0.09375 0.859375 0.15625q0.421875 0.046875 0.78125 0.046875q0.75 0 1.234375 -0.140625q0.5 -0.140625 0.796875 -0.390625q0.296875 -0.25 0.421875 -0.59375q0.125 -0.359375 0.125 -0.765625q0 -0.390625 -0.15625 -0.703125q-0.15625 -0.328125 -0.515625 -0.546875q-0.359375 -0.21875 -0.953125 -0.34375q-0.578125 -0.125 -1.421875 -0.125l-0.90625 0l0 -1.875l0.890625 0q0.796875 0 1.328125 -0.140625q0.53125 -0.15625 0.84375 -0.390625q0.3125 -0.25 0.4375 -0.578125q0.140625 -0.34375 0.140625 -0.703125q0 -0.6875 -0.421875 -1.0625q-0.421875 -0.390625 -1.328125 -0.390625q-0.421875 0 -0.78125 0.09375q-0.359375 0.078125 -0.671875 0.203125q-0.3125 0.125 -0.5625 0.28125q-0.25 0.15625 -0.46875 0.296875l-1.34375 -1.78125q0.359375 -0.28125 0.78125 -0.5q0.4375 -0.21875 0.9375 -0.390625q0.5 -0.171875 1.078125 -0.265625q0.59375 -0.09375 1.25 -0.09375q0.9375 0 1.703125 0.203125q0.765625 0.203125 1.3125 0.59375q0.546875 0.375 0.84375 0.9375q0.3125 0.5625 0.3125 1.28125z" fill-rule="nonzero"/><path fill="#000000" d="m275.83527 187.13937l0 -2.828125l12.390625 0l0 2.828125l-12.390625 0zm0 5.0625l0 -2.859375l12.390625 0l0 2.859375l-12.390625 0zm34.32489 -4.078125q0 2.3125 -0.359375 4.125q-0.359375 1.796875 -1.140625 3.0625q-0.78125 1.265625 -2.03125 1.9375q-1.25 0.65625 -3.0 0.65625q-1.65625 0 -2.875 -0.65625q-1.21875 -0.671875 -2.03125 -1.9375q-0.8125 -1.265625 -1.21875 -3.0625q-0.390625 -1.8125 -0.390625 -4.125q0 -2.296875 0.359375 -4.125q0.359375 -1.828125 1.140625 -3.078125q0.78125 -1.265625 2.015625 -1.9375q1.25 -0.671875 3.0 -0.671875q1.640625 0 2.859375 0.671875q1.234375 0.65625 2.046875 1.921875q0.828125 1.265625 1.21875 3.09375q0.40625 1.8125 0.40625 4.125zm-9.03125 0q0 3.25 0.5625 4.890625q0.5625 1.640625 1.9375 1.640625q1.359375 0 1.9375 -1.625q0.59375 -1.625 0.59375 -4.90625q0 -3.265625 -0.59375 -4.90625q-0.578125 -1.65625 -1.9375 -1.65625q-0.6875 0 -1.171875 0.421875q-0.46875 0.421875 -0.765625 1.25q-0.296875 0.8125 -0.4375 2.046875q-0.125 1.21875 -0.125 2.84375z" fill-rule="nonzero"/><path fill="#f0e442" fill-opacity="0.5" d="m2.480315 18.013258l0 0c0 -3.725459 3.0200818 -6.7455416 6.7455416 -6.7455416l89.12309 0c1.789032 0 3.5047836 0.71068954 4.769821 1.9757233c1.2650299 1.2650347 1.9757233 2.9807901 1.9757233 4.7698183l0 26.98136c0 3.7254562 -3.0200806 6.7455406 -6.7455444 6.7455406l-89.12309 0l0 0c-3.72546 0 -6.7455416 -3.0200844 -6.7455416 -6.7455406z" fill-rule="evenodd"/><path fill="#000000" d="m33.83846 41.103935l-13.09375 0l0.546875 -2.609375l10.84375 -13.09375l-7.796875 0l0.703125 -3.328125l12.59375 0l-0.5625 2.609375l-10.828125 13.09375l8.296875 0l-0.703125 3.328125z" fill-rule="nonzero"/><path fill="#000000" d="m41.56722 51.10394l-2.6875 0l0 -7.34375q0 -0.21875 0 -0.53125q0.015625 -0.328125 0.015625 -0.671875q0.015625 -0.34375 0.03125 -0.6875q0.015625 -0.34375 0.015625 -0.625q-0.03125 0.046875 -0.140625 0.15625q-0.109375 0.09375 -0.234375 0.234375q-0.125 0.125 -0.265625 0.25q-0.140625 0.125 -0.265625 0.234375l-1.46875 1.171875l-1.296875 -1.609375l4.09375 -3.265625l2.203125 0l0 12.6875z" fill-rule="nonzero"/><path fill="#000000" d="m52.323444 30.603935l0 -2.828125l12.390629 0l0 2.828125l-12.390629 0zm0 5.0625l0 -2.859375l12.390629 0l0 2.859375l-12.390629 0zm31.106144 5.4375l-4.03125 0l0 -11.015625q0 -0.328125 0 -0.796875q0.015625 -0.484375 0.03125 -1.0q0.03125 -0.515625 0.046875 -1.03125q0.015625 -0.53125 0.03125 -0.953125q-0.0625 0.078125 -0.21875 0.234375q-0.15625 0.15625 -0.359375 0.34375q-0.1875 0.1875 -0.40625 0.390625q-0.203125 0.1875 -0.390625 0.34375l-2.1875 1.75l-1.953125 -2.40625l6.125 -4.890625l3.3125 0l0 19.03125z" fill-rule="nonzero"/><path fill="#f0e442" fill-opacity="0.5" d="m337.74802 18.013258l0 0c0 -3.725459 3.020111 -6.7455416 6.7455444 -6.7455416l89.12311 0c1.789032 0 3.5047913 0.71068954 4.769806 1.9757233c1.2650452 1.2650347 1.9757385 2.9807901 1.9757385 4.7698183l0 26.98136c0 3.7254562 -3.0200806 6.7455406 -6.7455444 6.7455406l-89.12311 0l0 0c-3.7254333 0 -6.7455444 -3.0200844 -6.7455444 -6.7455406z" fill-rule="evenodd"/><path fill="#000000" d="m369.10617 41.103935l-13.09375 0l0.546875 -2.609375l10.84375 -13.09375l-7.796875 0l0.703125 -3.328125l12.59375 0l-0.5625 2.609375l-10.828125 13.09375l8.296875 0l-0.703125 3.328125z" fill-rule="nonzero"/><path fill="#000000" d="m379.14743 48.47894l-1.515625 0l0 2.625l-2.609375 0l0 -2.625l-5.25 0l0 -1.875l5.390625 -8.1875l2.46875 0l0 7.984375l1.515625 0l0 2.078125zm-4.125 -2.078125l0 -2.15625q0 -0.109375 0 -0.328125q0 -0.21875 0 -0.484375q0.015625 -0.265625 0.03125 -0.546875q0.015625 -0.296875 0.03125 -0.546875q0.015625 -0.265625 0.015625 -0.453125q0.015625 -0.203125 0.03125 -0.28125l-0.078125 0q-0.15625 0.359375 -0.359375 0.765625q-0.1875 0.40625 -0.4375 0.8125l-2.125 3.21875l2.890625 0z" fill-rule="nonzero"/><path fill="#000000" d="m387.59116 30.603935l0 -2.828125l12.390625 0l0 2.828125l-12.390625 0zm0 5.0625l0 -2.859375l12.390625 0l0 2.859375l-12.390625 0zm31.10614 5.4375l-4.03125 0l0 -11.015625q0 -0.328125 0 -0.796875q0.015625 -0.484375 0.03125 -1.0q0.03125 -0.515625 0.046875 -1.03125q0.015625 -0.53125 0.03125 -0.953125q-0.0625 0.078125 -0.21875 0.234375q-0.15625 0.15625 -0.359375 0.34375q-0.1875 0.1875 -0.40625 0.390625q-0.203125 0.1875 -0.390625 0.34375l-2.1875 1.75l-1.953125 -2.40625l6.125 -4.890625l3.3125 0l0 19.03125z" fill-rule="nonzero"/><path fill="#000000" fill-opacity="0.0" d="m277.29922 130.00656l0 37.795273" fill-rule="evenodd"/><path stroke="#000000" stroke-width="1.0" stroke-linejoin="round" stroke-linecap="butt" d="m277.29922 130.00656l0 37.795273" fill-rule="evenodd"/><path fill="#f0e442" fill-opacity="0.5" d="m609.64307 174.54869l0 0c0 -3.7254639 3.0200806 -6.7455444 6.7455444 -6.7455444l107.32782 0c1.7890015 0 3.5047607 0.71069336 4.7697754 1.9757233c1.2650757 1.2650452 1.975708 2.9807892 1.975708 4.769821l0 26.981354c0 3.7254639 -3.0200806 6.7455444 -6.7454834 6.7455444l-107.32782 0c-3.7254639 0 -6.7455444 -3.0200806 -6.7455444 -6.7455444z" fill-rule="evenodd"/><path fill="#000000" d="m640.093 197.63937l-13.09375 0l0.546875 -2.609375l10.84375 -13.09375l-7.796875 0l0.703125 -3.328125l12.59375 0l-0.5625 2.609375l-10.828125 13.09375l8.296875 0l-0.703125 3.328125z" fill-rule="nonzero"/><path fill="#000000" d="m650.5249 207.63937l-2.640625 0l1.203125 -5.671875q0.21875 -1.046875 0.015625 -1.5625q-0.203125 -0.53125 -0.890625 -0.53125q-0.515625 0 -0.921875 0.21875q-0.390625 0.203125 -0.6875 0.609375q-0.28125 0.40625 -0.5 1.015625q-0.21875 0.59375 -0.375 1.359375l-0.96875 4.5625l-2.640625 0l2.0625 -9.703125l2.015625 0l0.09375 1.25l0.140625 0q0.296875 -0.375 0.65625 -0.640625q0.359375 -0.28125 0.75 -0.453125q0.390625 -0.171875 0.796875 -0.25q0.421875 -0.078125 0.828125 -0.078125q0.71875 0 1.25 0.203125q0.546875 0.203125 0.859375 0.640625q0.328125 0.421875 0.40625 1.09375q0.09375 0.671875 -0.109375 1.609375l-1.34375 6.328125z" fill-rule="nonzero"/><path fill="#000000" d="m652.585 203.85812l0 -2.0l7.453125 0l0 2.0l-7.453125 0zm15.2578125 3.78125l-2.6875 0l0 -7.34375q0 -0.21875 0 -0.53125q0.015625 -0.328125 0.015625 -0.671875q0.015625 -0.34375 0.03125 -0.6875q0.015625 -0.34375 0.015625 -0.625q-0.03125 0.046875 -0.140625 0.15625q-0.109375 0.09375 -0.234375 0.234375q-0.125 0.125 -0.265625 0.25q-0.140625 0.125 -0.265625 0.234375l-1.46875 1.171875l-1.296875 -1.609375l4.09375 -3.265625l2.203125 0l0 12.6875z" fill-rule="nonzero"/><path fill="#000000" d="m678.59906 187.13937l0 -2.828125l12.390625 0l0 2.828125l-12.390625 0zm0 5.0625l0 -2.859375l12.390625 0l0 2.859375l-12.390625 0zm34.32489 -4.078125q0 2.3125 -0.359375 4.125q-0.359375 1.796875 -1.140625 3.0625q-0.78125 1.265625 -2.03125 1.9375q-1.25 0.65625 -3.0 0.65625q-1.65625 0 -2.875 -0.65625q-1.21875 -0.671875 -2.03125 -1.9375q-0.8125 -1.265625 -1.21875 -3.0625q-0.390625 -1.8125 -0.390625 -4.125q0 -2.296875 0.359375 -4.125q0.359375 -1.828125 1.140625 -3.078125q0.78125 -1.265625 2.015625 -1.9375q1.25 -0.671875 3.0 -0.671875q1.640625 0 2.859375 0.671875q1.234375 0.65625 2.046875 1.921875q0.828125 1.265625 1.21875 3.09375q0.40625 1.8125 0.40625 4.125zm-9.03125 0q0 3.25 0.5625 4.890625q0.5625 1.640625 1.9375 1.640625q1.359375 0 1.9375 -1.625q0.59375 -1.625 0.59375 -4.90625q0 -3.265625 -0.59375 -4.90625q-0.578125 -1.65625 -1.9375 -1.65625q-0.6875 0 -1.171875 0.421875q-0.46875 0.421875 -0.765625 1.25q-0.296875 0.8125 -0.4375 2.046875q-0.125 1.21875 -0.125 2.84375z" fill-rule="nonzero"/><path fill="#000000" fill-opacity="0.0" d="m670.0525 130.00656l0 37.795273" fill-rule="evenodd"/><path stroke="#000000" stroke-width="1.0" stroke-linejoin="round" stroke-linecap="butt" d="m670.0525 130.00656l0 37.795273" fill-rule="evenodd"/><path fill="#e69f00" d="m262.73227 317.8819l0 0c0 -11.176178 9.060089 -20.236237 20.236237 -20.236237l0 0c5.366974 0 10.51413 2.132019 14.309174 5.927063c3.7950134 3.7950134 5.9270325 8.9422 5.9270325 14.309174l0 0c0 11.176147 -9.060059 20.236206 -20.236206 20.236206l0 0c-11.176147 0 -20.236237 -9.060059 -20.236237 -20.236206z" fill-rule="evenodd"/><path stroke="#000000" stroke-width="3.0" stroke-linejoin="round" stroke-linecap="butt" d="m262.73227 317.8819l0 0c0 -11.176178 9.060089 -20.236237 20.236237 -20.236237l0 0c5.366974 0 10.51413 2.132019 14.309174 5.927063c3.7950134 3.7950134 5.9270325 8.9422 5.9270325 14.309174l0 0c0 11.176147 -9.060059 20.236206 -20.236206 20.236206l0 0c-11.176147 0 -20.236237 -9.060059 -20.236237 -20.236206z" fill-rule="evenodd"/><path fill="#000000" fill-opacity="0.0" d="m348.02625 295.6929l233.22833 0l0 44.37796l-233.22833 0z" fill-rule="evenodd"/><path fill="#000000" d="m358.52625 313.49753l13.0 0l0 3.265625l-13.0 0l0 -3.265625zm0 5.578125l13.0 0l0 3.25l-13.0 0l0 -3.25zm33.18875 -11.21875q4.0625 0 6.984375 2.9375q2.921875 2.9375 2.921875 7.171875q0 4.1875 -2.890625 7.09375q-2.875 2.90625 -6.984375 2.90625q-4.3125 0 -7.171875 -2.984375q-2.84375 -2.984375 -2.84375 -7.078125q0 -2.75 1.328125 -5.046875q1.328125 -2.3125 3.640625 -3.65625q2.328125 -1.34375 5.015625 -1.34375zm-0.046875 3.5625q-2.65625 0 -4.46875 1.859375q-1.796875 1.84375 -1.796875 4.6875q0 3.171875 2.28125 5.03125q1.765625 1.4375 4.0625 1.4375q2.578125 0 4.40625 -1.875q1.828125 -1.875 1.828125 -4.625q0 -2.734375 -1.84375 -4.625q-1.828125 -1.890625 -4.46875 -1.890625zm12.99646 1.90625l3.546875 0l0 1.4375q1.203125 -1.015625 2.1875 -1.40625q0.984375 -0.40625 2.015625 -0.40625q2.109375 0 3.578125 1.46875q1.234375 1.25 1.234375 3.703125l0 9.359375l-3.515625 0l0 -6.203125q0 -2.546875 -0.234375 -3.375q-0.21875 -0.828125 -0.796875 -1.265625q-0.5625 -0.4375 -1.390625 -0.4375q-1.078125 0 -1.859375 0.71875q-0.765625 0.71875 -1.0625 2.0q-0.15625 0.65625 -0.15625 2.875l0 5.6875l-3.546875 0l0 -14.15625zm21.954376 -4.984375l10.578125 0l0 3.59375l-3.484375 0l0 15.546875l-3.6875 0l0 -15.546875l-3.40625 0l0 -3.59375zm11.8654175 4.984375l3.046875 0l0 1.78125q0.484375 -1.0625 1.296875 -1.609375q0.828125 -0.546875 1.8125 -0.546875q0.6875 0 1.4375 0.375l-1.109375 3.046875q-0.625 -0.3125 -1.015625 -0.3125q-0.828125 0 -1.390625 1.015625q-0.5625 1.015625 -0.5625 3.984375l0 0.6875l0 5.734375l-3.515625 0l0 -14.15625zm23.540955 8.109375l-11.421875 0q0.25 1.5 1.328125 2.390625q1.078125 0.890625 2.734375 0.890625q2.0 0 3.421875 -1.390625l3.0 1.40625q-1.125 1.59375 -2.6875 2.359375q-1.5625 0.75 -3.703125 0.75q-3.328125 0 -5.4375 -2.09375q-2.09375 -2.109375 -2.09375 -5.265625q0 -3.25 2.09375 -5.390625q2.09375 -2.140625 5.234375 -2.140625q3.359375 0 5.453125 2.140625q2.09375 2.140625 2.09375 5.65625l-0.015625 0.6875zm-3.5625 -2.796875q-0.359375 -1.1875 -1.390625 -1.921875q-1.03125 -0.75 -2.40625 -0.75q-1.484375 0 -2.59375 0.828125q-0.703125 0.515625 -1.3125 1.84375l7.703125 0zm16.90738 -5.3125l3.53125 0l0 14.15625l-3.53125 0l0 -1.5q-1.046875 1.0 -2.09375 1.4375q-1.046875 0.421875 -2.265625 0.421875q-2.75 0 -4.765625 -2.125q-2.0 -2.125 -2.0 -5.28125q0 -3.28125 1.9375 -5.375q1.953125 -2.109375 4.71875 -2.109375q1.28125 0 2.390625 0.484375q1.125 0.484375 2.078125 1.453125l0 -1.5625zm-3.734375 2.90625q-1.65625 0 -2.75 1.171875q-1.09375 1.15625 -1.09375 2.984375q0 1.828125 1.109375 3.015625q1.109375 1.1875 2.734375 1.1875q1.6875 0 2.796875 -1.15625q1.109375 -1.171875 1.109375 -3.0625q0 -1.84375 -1.109375 -2.984375q-1.109375 -1.15625 -2.796875 -1.15625zm11.28479 -8.125l3.546875 0l0 5.21875l2.109375 0l0 3.046875l-2.109375 0l0 11.109375l-3.546875 0l0 -11.109375l-1.8125 0l0 -3.046875l1.8125 0l0 -5.21875zm7.5385437 5.21875l3.578125 0l0 1.625q0.90625 -1.0 2.015625 -1.5q1.109375 -0.5 2.421875 -0.5q1.328125 0 2.390625 0.65625q1.078125 0.65625 1.734375 1.90625q0.84375 -1.25 2.0625 -1.90625q1.234375 -0.65625 2.703125 -0.65625q1.5 0 2.640625 0.703125q1.15625 0.703125 1.65625 1.84375q0.5 1.125 0.5 3.6875l0 8.296875l-3.578125 0l0 -7.1875q0 -2.40625 -0.609375 -3.25q-0.59375 -0.859375 -1.78125 -0.859375q-0.921875 0 -1.640625 0.53125q-0.71875 0.515625 -1.078125 1.4375q-0.34375 0.90625 -0.34375 2.9375l0 6.390625l-3.578125 0l0 -6.859375q0 -1.90625 -0.28125 -2.75q-0.28125 -0.859375 -0.84375 -1.265625q-0.5625 -0.421875 -1.359375 -0.421875q-0.875 0 -1.609375 0.53125q-0.71875 0.515625 -1.078125 1.46875q-0.34375 0.953125 -0.34375 3.0l0 6.296875l-3.578125 0l0 -14.15625zm39.274048 8.109375l-11.421875 0q0.25 1.5 1.328125 2.390625q1.078125 0.890625 2.734375 0.890625q2.0 0 3.421875 -1.390625l3.0 1.40625q-1.125 1.59375 -2.6875 2.359375q-1.5625 0.75 -3.703125 0.75q-3.328125 0 -5.4375 -2.09375q-2.09375 -2.109375 -2.09375 -5.265625q0 -3.25 2.09375 -5.390625q2.09375 -2.140625 5.234375 -2.140625q3.359375 0 5.453125 2.140625q2.09375 2.140625 2.09375 5.65625l-0.015625 0.6875zm-3.5625 -2.796875q-0.359375 -1.1875 -1.390625 -1.921875q-1.03125 -0.75 -2.40625 -0.75q-1.484375 0 -2.59375 0.828125q-0.703125 0.515625 -1.3125 1.84375l7.703125 0zm6.4386597 -5.3125l3.546875 0l0 1.4375q1.203125 -1.015625 2.1875 -1.40625q0.984375 -0.40625 2.015625 -0.40625q2.109375 0 3.578125 1.46875q1.234375 1.25 1.234375 3.703125l0 9.359375l-3.515625 0l0 -6.203125q0 -2.546875 -0.234375 -3.375q-0.21875 -0.828125 -0.796875 -1.265625q-0.5625 -0.4375 -1.390625 -0.4375q-1.078125 0 -1.859375 0.71875q-0.765625 0.71875 -1.0625 2.0q-0.15625 0.65625 -0.15625 2.875l0 5.6875l-3.546875 0l0 -14.15625zm16.418213 -5.21875l3.546875 0l0 5.21875l2.109375 0l0 3.046875l-2.109375 0l0 11.109375l-3.546875 0l0 -11.109375l-1.8125 0l0 -3.046875l1.8125 0l0 -5.21875z" fill-rule="nonzero"/><path fill="#56b4e9" d="m262.73227 367.8819l0 0c0 -11.176178 9.060089 -20.236237 20.236237 -20.236237l0 0c5.366974 0 10.51413 2.132019 14.309174 5.927063c3.7950134 3.7950134 5.9270325 8.9422 5.9270325 14.309174l0 0c0 11.176147 -9.060059 20.236206 -20.236206 20.236206l0 0c-11.176147 0 -20.236237 -9.060059 -20.236237 -20.236206z" fill-rule="evenodd"/><path stroke="#000000" stroke-width="3.0" stroke-linejoin="round" stroke-linecap="butt" d="m262.73227 367.8819l0 0c0 -11.176178 9.060089 -20.236237 20.236237 -20.236237l0 0c5.366974 0 10.51413 2.132019 14.309174 5.927063c3.7950134 3.7950134 5.9270325 8.9422 5.9270325 14.309174l0 0c0 11.176147 -9.060059 20.236206 -20.236206 20.236206l0 0c-11.176147 0 -20.236237 -9.060059 -20.236237 -20.236206z" fill-rule="evenodd"/><path fill="#000000" fill-opacity="0.0" d="m348.02625 345.6929l233.22833 0l0 44.37796l-233.22833 0z" fill-rule="evenodd"/><path fill="#000000" d="m358.52625 363.49753l13.0 0l0 3.265625l-13.0 0l0 -3.265625zm0 5.578125l13.0 0l0 3.25l-13.0 0l0 -3.25zm33.18875 -11.21875q4.0625 0 6.984375 2.9375q2.921875 2.9375 2.921875 7.171875q0 4.1875 -2.890625 7.09375q-2.875 2.90625 -6.984375 2.90625q-4.3125 0 -7.171875 -2.984375q-2.84375 -2.984375 -2.84375 -7.078125q0 -2.75 1.328125 -5.046875q1.328125 -2.3125 3.640625 -3.65625q2.328125 -1.34375 5.015625 -1.34375zm-0.046875 3.5625q-2.65625 0 -4.46875 1.859375q-1.796875 1.84375 -1.796875 4.6875q0 3.171875 2.28125 5.03125q1.765625 1.4375 4.0625 1.4375q2.578125 0 4.40625 -1.875q1.828125 -1.875 1.828125 -4.625q0 -2.734375 -1.84375 -4.625q-1.828125 -1.890625 -4.46875 -1.890625zm11.30896 1.90625l1.25 0q0.015625 -2.796875 0.09375 -3.296875q0.140625 -1.171875 0.984375 -1.859375q0.84375 -0.6875 2.375 -0.6875q1.109375 0 2.5 0.515625l0 2.703125q-0.765625 -0.21875 -1.265625 -0.21875q-0.625 0 -0.90625 0.265625q-0.203125 0.1875 -0.203125 0.796875l-0.015625 1.78125l2.25 0l0 3.015625l-2.25 0l0 11.140625l-3.5625 0l0 -11.140625l-1.25 0l0 -3.015625zm7.4580383 0l1.25 0q0.015625 -2.796875 0.09375 -3.296875q0.140625 -1.171875 0.984375 -1.859375q0.84375 -0.6875 2.375 -0.6875q1.109375 0 2.5 0.515625l0 2.703125q-0.765625 -0.21875 -1.265625 -0.21875q-0.625 0 -0.90625 0.265625q-0.203125 0.1875 -0.203125 0.796875l-0.015625 1.78125l2.25 0l0 3.015625l-2.25 0l0 11.140625l-3.5625 0l0 -11.140625l-1.25 0l0 -3.015625zm15.103546 -4.984375l10.578125 0l0 3.59375l-3.484375 0l0 15.546875l-3.6875 0l0 -15.546875l-3.40625 0l0 -3.59375zm11.8654175 4.984375l3.046875 0l0 1.78125q0.484375 -1.0625 1.296875 -1.609375q0.828125 -0.546875 1.8125 -0.546875q0.6875 0 1.4375 0.375l-1.109375 3.046875q-0.625 -0.3125 -1.015625 -0.3125q-0.828125 0 -1.390625 1.015625q-0.5625 1.015625 -0.5625 3.984375l0 0.6875l0 5.734375l-3.515625 0l0 -14.15625zm23.540924 8.109375l-11.421875 0q0.25 1.5 1.328125 2.390625q1.078125 0.890625 2.734375 0.890625q2.0 0 3.421875 -1.390625l3.0 1.40625q-1.125 1.59375 -2.6875 2.359375q-1.5625 0.75 -3.703125 0.75q-3.328125 0 -5.4375 -2.09375q-2.09375 -2.109375 -2.09375 -5.265625q0 -3.25 2.09375 -5.390625q2.09375 -2.140625 5.234375 -2.140625q3.359375 0 5.453125 2.140625q2.09375 2.140625 2.09375 5.65625l-0.015625 0.6875zm-3.5625 -2.796875q-0.359375 -1.1875 -1.390625 -1.921875q-1.03125 -0.75 -2.40625 -0.75q-1.484375 0 -2.59375 0.828125q-0.703125 0.515625 -1.3125 1.84375l7.703125 0zm16.90741 -5.3125l3.53125 0l0 14.15625l-3.53125 0l0 -1.5q-1.046875 1.0 -2.09375 1.4375q-1.046875 0.421875 -2.265625 0.421875q-2.75 0 -4.765625 -2.125q-2.0 -2.125 -2.0 -5.28125q0 -3.28125 1.9375 -5.375q1.953125 -2.109375 4.71875 -2.109375q1.28125 0 2.390625 0.484375q1.125 0.484375 2.078125 1.453125l0 -1.5625zm-3.734375 2.90625q-1.65625 0 -2.75 1.171875q-1.09375 1.15625 -1.09375 2.984375q0 1.828125 1.109375 3.015625q1.109375 1.1875 2.734375 1.1875q1.6875 0 2.796875 -1.15625q1.109375 -1.171875 1.109375 -3.0625q0 -1.84375 -1.109375 -2.984375q-1.109375 -1.15625 -2.796875 -1.15625zm11.28479 -8.125l3.546875 0l0 5.21875l2.109375 0l0 3.046875l-2.109375 0l0 11.109375l-3.546875 0l0 -11.109375l-1.8125 0l0 -3.046875l1.8125 0l0 -5.21875zm7.5385437 5.21875l3.578125 0l0 1.625q0.90625 -1.0 2.015625 -1.5q1.109375 -0.5 2.421875 -0.5q1.328125 0 2.390625 0.65625q1.078125 0.65625 1.734375 1.90625q0.84375 -1.25 2.0625 -1.90625q1.234375 -0.65625 2.703125 -0.65625q1.5 0 2.640625 0.703125q1.15625 0.703125 1.65625 1.84375q0.5 1.125 0.5 3.6875l0 8.296875l-3.578125 0l0 -7.1875q0 -2.40625 -0.609375 -3.25q-0.59375 -0.859375 -1.78125 -0.859375q-0.921875 0 -1.640625 0.53125q-0.71875 0.515625 -1.078125 1.4375q-0.34375 0.90625 -0.34375 2.9375l0 6.390625l-3.578125 0l0 -6.859375q0 -1.90625 -0.28125 -2.75q-0.28125 -0.859375 -0.84375 -1.265625q-0.5625 -0.421875 -1.359375 -0.421875q-0.875 0 -1.609375 0.53125q-0.71875 0.515625 -1.078125 1.46875q-0.34375 0.953125 -0.34375 3.0l0 6.296875l-3.578125 0l0 -14.15625zm39.27408 8.109375l-11.421875 0q0.25 1.5 1.328125 2.390625q1.078125 0.890625 2.734375 0.890625q2.0 0 3.421875 -1.390625l3.0 1.40625q-1.125 1.59375 -2.6875 2.359375q-1.5625 0.75 -3.703125 0.75q-3.328125 0 -5.4375 -2.09375q-2.09375 -2.109375 -2.09375 -5.265625q0 -3.25 2.09375 -5.390625q2.09375 -2.140625 5.234375 -2.140625q3.359375 0 5.453125 2.140625q2.09375 2.140625 2.09375 5.65625l-0.015625 0.6875zm-3.5625 -2.796875q-0.359375 -1.1875 -1.390625 -1.921875q-1.03125 -0.75 -2.40625 -0.75q-1.484375 0 -2.59375 0.828125q-0.703125 0.515625 -1.3125 1.84375l7.703125 0zm6.4385986 -5.3125l3.546875 0l0 1.4375q1.203125 -1.015625 2.1875 -1.40625q0.984375 -0.40625 2.015625 -0.40625q2.109375 0 3.578125 1.46875q1.234375 1.25 1.234375 3.703125l0 9.359375l-3.515625 0l0 -6.203125q0 -2.546875 -0.234375 -3.375q-0.21875 -0.828125 -0.796875 -1.265625q-0.5625 -0.4375 -1.390625 -0.4375q-1.078125 0 -1.859375 0.71875q-0.765625 0.71875 -1.0625 2.0q-0.15625 0.65625 -0.15625 2.875l0 5.6875l-3.546875 0l0 -14.15625zm16.418274 -5.21875l3.546875 0l0 5.21875l2.109375 0l0 3.046875l-2.109375 0l0 11.109375l-3.546875 0l0 -11.109375l-1.8125 0l0 -3.046875l1.8125 0l0 -5.21875z" fill-rule="nonzero"/></g></svg>