<svg version="1.1" viewBox="0.0 0.0 683.7637795275591 201.86614173228347" fill="none" stroke="none" stroke-linecap="square" stroke-miterlimit="10" xmlns:xlink="http://www.w3.org/1999/xlink" xmlns="http://www.w3.org/2000/svg"><clipPath id="p.0"><path d="m0 0l683.7638 0l0 201.86613l-683.7638 0l0 -201.86613z" clip-rule="nonzero"/></clipPath><g clip-path="url(#p.0)"><path fill="#000000" fill-opacity="0.0" d="m0 0l683.7638 0l0 201.86613l-683.7638 0z" fill-rule="evenodd"/><path shape-rendering="crispEdges" fill="#000000" d="m69.114174 45.374016l62.66404 0l0 22.41732l-62.66404 0l0 -22.41732z" fill-rule="nonzero"/><path shape-rendering="crispEdges" fill="#000000" d="m131.77821 45.374016l59.7769 0l0 22.41732l-59.7769 0l0 -22.41732z" fill-rule="nonzero"/><path shape-rendering="crispEdges" fill="#000000" d="m-0.2559055 67.791336l69.37008 0l0 30.619423l-69.37008 0l0 -30.619423z" fill-rule="nonzero"/><path shape-rendering="crispEdges" fill="#000000" d="m-0.2559055 98.41076l69.37008 0l0 30.412071l-69.37008 0l0 -30.412071z" fill-rule="nonzero"/><path shape-rendering="crispEdges" fill="#000000" d="m-0.2559055 128.82283l69.37008 0l0 27.669296l-69.37008 0l0 -27.669296z" fill-rule="nonzero"/><path stroke="#9e9e9e" stroke-width="1.0" stroke-linecap="butt" d="m-0.2559055 67.29265l0 89.698166" fill-rule="nonzero"/><path stroke="#9e9e9e" stroke-width="1.0" stroke-linecap="butt" d="m69.114174 44.875328l0 112.115486" fill-rule="nonzero"/><path stroke="#9e9e9e" stroke-width="1.0" stroke-linecap="butt" d="m131.77821 44.875328l0 112.115486" fill-rule="nonzero"/><path stroke="#9e9e9e" stroke-width="1.0" stroke-linecap="butt" d="m191.55511 44.875328l0 112.115486" fill-rule="nonzero"/><path stroke="#9e9e9e" stroke-width="1.0" stroke-linecap="butt" d="m68.615486 45.374016l123.43832 0" fill-rule="nonzero"/><path stroke="#9e9e9e" stroke-width="1.0" stroke-linecap="butt" d="m-0.7545932 67.791336l192.8084 0" fill-rule="nonzero"/><path stroke="#9e9e9e" stroke-width="1.0" stroke-linecap="butt" d="m-0.7545932 98.41076l192.8084 0" fill-rule="nonzero"/><path stroke="#9e9e9e" stroke-width="1.0" stroke-linecap="butt" d="m-0.7545932 128.82283l192.8084 0" fill-rule="nonzero"/><path stroke="#9e9e9e" stroke-width="1.0" stroke-linecap="butt" d="m-0.7545932 156.49213l192.8084 0" fill-rule="nonzero"/><path fill="#ffffff" d="m95.021194 63.302677l3.78125 -12.15625l3.28125 0l3.796875 12.15625l-2.921875 0l-1.5625 -6.15625q-0.21875 -0.921875 -0.484375 -1.9375q-0.265625 -1.03125 -0.484375 -1.984375l-0.078125 0q-0.21875 0.953125 -0.46875 1.984375q-0.234375 1.015625 -0.484375 1.9375l-1.578125 6.15625l-2.796875 0zm2.5 -2.890625l0 -2.140625l5.8125 0l0 2.140625l-5.8125 0z" fill-rule="nonzero"/><path fill="#ffffff" d="m157.4448 63.302677l0 -12.15625l4.09375 0q1.265625 0 2.265625 0.265625q1.015625 0.265625 1.59375 0.921875q0.59375 0.65625 0.59375 1.828125q0 0.8125 -0.5 1.578125q-0.5 0.765625 -1.59375 1.046875l0 0.078125q1.3125 0.21875 1.984375 0.921875q0.671875 0.703125 0.671875 1.9375q0 1.234375 -0.625 2.03125q-0.609375 0.78125 -1.671875 1.171875q-1.046875 0.375 -2.359375 0.375l-4.453125 0zm2.75 -7.28125l1.203125 0q1.015625 0 1.453125 -0.390625q0.453125 -0.40625 0.453125 -1.09375q0 -0.671875 -0.453125 -0.953125q-0.453125 -0.296875 -1.421875 -0.296875l-1.234375 0l0 2.734375zm0 5.140625l1.46875 0q1.125 0 1.65625 -0.40625q0.546875 -0.421875 0.546875 -1.234375q0 -0.8125 -0.546875 -1.15625q-0.53125 -0.359375 -1.65625 -0.359375l-1.46875 0l0 3.15625z" fill-rule="nonzero"/><path fill="#ffffff" d="m17.135372 90.0398q-1.015625 0 -2.109375 -0.4375q-1.078125 -0.453125 -1.890625 -1.578125l1.59375 -1.6875q0.515625 0.65625 1.109375 1.0q0.609375 0.34375 1.203125 0.34375q0.9375 0 1.40625 -0.484375q0.484375 -0.484375 0.484375 -1.734375l0 -5.515625l-4.765625 0l0 -2.28125l7.5 0l0 8.015625q0 1.1875 -0.4375 2.1875q-0.4375 0.984375 -1.421875 1.578125q-0.96875 0.59375 -2.671875 0.59375zm10.271881 0q-0.921875 0 -1.609375 -0.359375q-0.671875 -0.375 -1.046875 -1.015625q-0.375 -0.640625 -0.375 -1.421875q0 -1.546875 1.40625 -2.359375q1.40625 -0.828125 4.6875 -1.015625q-0.046875 -0.421875 -0.28125 -0.71875q-0.21875 -0.3125 -0.640625 -0.46875q-0.421875 -0.15625 -1.046875 -0.15625q-0.453125 0 -0.90625 0.109375q-0.4375 0.09375 -0.921875 0.296875q-0.46875 0.1875 -1.0 0.453125l-0.96875 -1.796875q0.640625 -0.359375 1.328125 -0.640625q0.703125 -0.28125 1.453125 -0.4375q0.765625 -0.171875 1.546875 -0.171875q1.3125 0 2.234375 0.46875q0.9375 0.453125 1.4375 1.375q0.515625 0.921875 0.515625 2.34375l0 5.296875l-2.234375 0l-0.21875 -1.046875l-0.0625 0q-0.703125 0.53125 -1.546875 0.90625q-0.828125 0.359375 -1.75 0.359375zm0.890625 -2.125q0.609375 0 1.140625 -0.25q0.546875 -0.25 1.03125 -0.625l0 -1.53125q-1.359375 0.078125 -2.125 0.28125q-0.75 0.203125 -1.046875 0.53125q-0.296875 0.3125 -0.296875 0.71875q0 0.28125 0.15625 0.484375q0.15625 0.203125 0.453125 0.296875q0.296875 0.09375 0.6875 0.09375zm7.475006 1.90625l0 -9.25l2.234375 0l0.203125 1.234375l0.078125 0q0.59375 -0.609375 1.359375 -1.03125q0.78125 -0.4375 1.828125 -0.4375q1.578125 0 2.296875 1.015625q0.734375 1.0 0.734375 2.765625l0 5.703125l-2.75 0l0 -5.359375q0 -0.921875 -0.3125 -1.34375q-0.296875 -0.4375 -1.046875 -0.4375q-0.5625 0 -0.984375 0.25q-0.40625 0.25 -0.90625 0.71875l0 6.171875l-2.734375 0zm16.006256 0.21875q-1.4375 0 -2.609375 -0.5625q-1.15625 -0.578125 -1.84375 -1.65625q-0.671875 -1.09375 -0.671875 -2.625q0 -1.515625 0.6875 -2.609375q0.6875 -1.09375 1.78125 -1.671875q1.109375 -0.578125 2.34375 -0.578125q1.4375 0 2.40625 0.59375q0.96875 0.59375 1.453125 1.59375q0.5 0.984375 0.5 2.265625q0 0.359375 -0.046875 0.71875q-0.046875 0.34375 -0.078125 0.5l-7.015625 0l0 -1.84375l5.171875 0l-0.4375 0.53125q0 -1.125 -0.484375 -1.6875q-0.46875 -0.578125 -1.375 -0.578125q-0.671875 0 -1.1875 0.296875q-0.5 0.296875 -0.78125 0.921875q-0.28125 0.609375 -0.28125 1.546875q0 0.953125 0.328125 1.5625q0.34375 0.59375 0.984375 0.90625q0.640625 0.296875 1.53125 0.296875q0.625 0 1.1875 -0.171875q0.578125 -0.171875 1.203125 -0.484375l0.90625 1.65625q-0.796875 0.5 -1.765625 0.796875q-0.96875 0.28125 -1.90625 0.28125z" fill-rule="nonzero"/><path fill="#000000" d="m95.43316 89.9148q-0.96875 0 -1.8125 -0.328125q-0.828125 -0.34375 -1.4375 -0.96875q-0.59375 -0.625 -0.9375 -1.46875q-0.328125 -0.859375 -0.328125 -1.859375q0 -0.484375 0.125 -1.0625q0.125 -0.59375 0.390625 -1.296875q0.265625 -0.703125 0.640625 -1.46875q0.375 -0.765625 0.859375 -1.578125l1.890625 -3.234375l1.421875 0l0.078125 0.1875l-2.109375 3.546875q-0.453125 0.75 -0.8125 1.484375q-0.359375 0.71875 -0.6875 1.453125q-0.3125 0.734375 -0.609375 1.5l-0.265625 -1.34375q0.359375 -0.59375 0.78125 -1.03125q0.421875 -0.453125 0.90625 -0.78125q0.484375 -0.328125 1.03125 -0.484375q0.546875 -0.171875 1.125 -0.171875q1.140625 0 2.0625 0.59375q0.921875 0.59375 1.484375 1.5625q0.5625 0.96875 0.5625 2.15625q0 1.3125 -0.578125 2.359375q-0.578125 1.046875 -1.578125 1.640625q-1.0 0.59375 -2.203125 0.59375zm-0.0625 -1.359375q0.84375 0 1.515625 -0.40625q0.671875 -0.421875 1.0625 -1.109375q0.390625 -0.703125 0.390625 -1.578125q0 -0.828125 -0.390625 -1.515625q-0.390625 -0.703125 -1.0625 -1.125q-0.671875 -0.421875 -1.5 -0.421875q-0.875 0 -1.5625 0.40625q-0.671875 0.40625 -1.0625 1.109375q-0.390625 0.6875 -0.390625 1.515625q0 0.890625 0.390625 1.59375q0.390625 0.6875 1.0625 1.109375q0.6875 0.421875 1.546875 0.421875zm7.0524445 1.265625l-0.453125 -1.078125l4.40625 -4.953125q0.3125 -0.34375 0.65625 -0.796875q0.359375 -0.453125 0.65625 -0.9375q0.3125 -0.5 0.5 -0.984375q0.1875 -0.484375 0.1875 -0.953125q0 -0.6875 -0.296875 -1.15625q-0.296875 -0.484375 -0.859375 -0.734375q-0.546875 -0.265625 -1.265625 -0.265625q-0.640625 0 -1.265625 0.296875q-0.609375 0.296875 -1.109375 0.921875q-0.5 0.609375 -0.78125 1.5625l-1.15625 -0.703125q0.328125 -1.125 0.984375 -1.90625q0.65625 -0.78125 1.546875 -1.171875q0.90625 -0.390625 1.921875 -0.390625q1.09375 0 1.9375 0.4375q0.859375 0.4375 1.359375 1.234375q0.515625 0.796875 0.515625 1.828125q0 0.4375 -0.109375 0.890625q-0.09375 0.453125 -0.3125 0.90625q-0.203125 0.4375 -0.5 0.90625q-0.28125 0.46875 -0.671875 0.953125q-0.375 0.484375 -0.828125 1.0l-3.75 4.171875l-0.234375 -0.484375l6.8125 0l0 1.40625l-7.890625 0z" fill-rule="nonzero"/><path fill="#000000" d="m156.46707 89.9148q-0.96875 0 -1.8125 -0.328125q-0.828125 -0.34375 -1.4375 -0.96875q-0.59375 -0.625 -0.9375 -1.46875q-0.328125 -0.859375 -0.328125 -1.859375q0 -0.484375 0.125 -1.0625q0.125 -0.59375 0.390625 -1.296875q0.265625 -0.703125 0.640625 -1.46875q0.375 -0.765625 0.859375 -1.578125l1.890625 -3.234375l1.421875 0l0.078125 0.1875l-2.109375 3.546875q-0.453125 0.75 -0.8125 1.484375q-0.359375 0.71875 -0.6875 1.453125q-0.3125 0.734375 -0.609375 1.5l-0.265625 -1.34375q0.359375 -0.59375 0.78125 -1.03125q0.421875 -0.453125 0.90625 -0.78125q0.484375 -0.328125 1.03125 -0.484375q0.546875 -0.171875 1.125 -0.171875q1.140625 0 2.0625 0.59375q0.921875 0.59375 1.484375 1.5625q0.5625 0.96875 0.5625 2.15625q0 1.3125 -0.578125 2.359375q-0.578125 1.046875 -1.578125 1.640625q-1.0 0.59375 -2.203125 0.59375zm-0.0625 -1.359375q0.84375 0 1.515625 -0.40625q0.671875 -0.421875 1.0625 -1.109375q0.390625 -0.703125 0.390625 -1.578125q0 -0.828125 -0.390625 -1.515625q-0.390625 -0.703125 -1.0625 -1.125q-0.671875 -0.421875 -1.5 -0.421875q-0.875 0 -1.5625 0.40625q-0.671875 0.40625 -1.0625 1.109375q-0.390625 0.6875 -0.390625 1.515625q0 0.890625 0.390625 1.59375q0.390625 0.6875 1.0625 1.109375q0.6875 0.421875 1.546875 0.421875zm10.114944 1.390625q-1.296875 0 -2.34375 -0.578125q-1.03125 -0.59375 -1.71875 -1.6875l0.875 -0.953125q0.78125 1.046875 1.5625 1.453125q0.796875 0.390625 1.640625 0.390625q0.890625 0 1.625 -0.421875q0.75 -0.421875 1.171875 -1.125q0.4375 -0.703125 0.4375 -1.5625q0 -0.84375 -0.40625 -1.515625q-0.390625 -0.6875 -1.0625 -1.09375q-0.671875 -0.40625 -1.546875 -0.40625q-0.453125 0 -0.921875 0.109375q-0.46875 0.109375 -0.96875 0.328125q-0.484375 0.203125 -1.046875 0.515625l-0.828125 -1.09375l0.765625 -5.546875l7.046875 0l0 1.359375l-6.28125 0l0.46875 -0.328125l-0.6875 4.5625l-0.4375 -0.296875q0.296875 -0.234375 0.796875 -0.453125q0.515625 -0.234375 1.125 -0.375q0.609375 -0.140625 1.1875 -0.140625q1.203125 0 2.15625 0.5625q0.953125 0.546875 1.515625 1.515625q0.5625 0.953125 0.5625 2.203125q0 1.296875 -0.625 2.34375q-0.609375 1.03125 -1.671875 1.640625q-1.0625 0.59375 -2.390625 0.59375z" fill-rule="nonzero"/><path fill="#ffffff" d="m17.135372 120.55555q-1.015625 0 -2.109375 -0.4375q-1.078125 -0.453125 -1.890625 -1.578125l1.59375 -1.6875q0.515625 0.65625 1.109375 1.0q0.609375 0.34375 1.203125 0.34375q0.9375 0 1.40625 -0.484375q0.484375 -0.484375 0.484375 -1.734375l0 -5.515625l-4.765625 0l0 -2.28125l7.5 0l0 8.015625q0 1.1875 -0.4375 2.1875q-0.4375 0.984375 -1.421875 1.578125q-0.96875 0.59375 -2.671875 0.59375zm11.693756 0q-1.203125 0 -2.296875 -0.5625q-1.078125 -0.578125 -1.75 -1.65625q-0.671875 -1.09375 -0.671875 -2.625q0 -1.53125 0.671875 -2.625q0.671875 -1.09375 1.75 -1.65625q1.09375 -0.578125 2.296875 -0.578125q1.21875 0 2.296875 0.578125q1.078125 0.5625 1.75 1.65625q0.671875 1.09375 0.671875 2.625q0 1.53125 -0.671875 2.625q-0.671875 1.078125 -1.75 1.65625q-1.078125 0.5625 -2.296875 0.5625zm0 -2.21875q0.640625 0 1.0625 -0.3125q0.421875 -0.3125 0.625 -0.90625q0.21875 -0.609375 0.21875 -1.40625q0 -0.796875 -0.21875 -1.390625q-0.203125 -0.609375 -0.625 -0.921875q-0.421875 -0.3125 -1.0625 -0.3125q-0.625 0 -1.046875 0.3125q-0.421875 0.3125 -0.640625 0.921875q-0.21875 0.59375 -0.21875 1.390625q0 0.796875 0.21875 1.40625q0.21875 0.59375 0.640625 0.90625q0.421875 0.3125 1.046875 0.3125zm6.943756 2.0l0 -13.078125l2.734375 0l0 3.203125l-0.140625 1.78125l0.0625 0q0.515625 -0.546875 1.265625 -0.96875q0.765625 -0.421875 1.8125 -0.421875q1.5625 0 2.28125 1.015625q0.71875 1.0 0.71875 2.765625l0 5.703125l-2.75 0l0 -5.359375q0 -0.921875 -0.3125 -1.34375q-0.296875 -0.4375 -1.046875 -0.4375q-0.5625 0 -0.984375 0.25q-0.40625 0.25 -0.90625 0.71875l0 6.171875l-2.734375 0zm11.193756 0l0 -9.25l2.234375 0l0.203125 1.234375l0.078125 0q0.59375 -0.609375 1.359375 -1.03125q0.78125 -0.4375 1.828125 -0.4375q1.578125 0 2.296875 1.015625q0.734375 1.0 0.734375 2.765625l0 5.703125l-2.75 0l0 -5.359375q0 -0.921875 -0.3125 -1.34375q-0.296875 -0.4375 -1.046875 -0.4375q-0.5625 0 -0.984375 0.25q-0.40625 0.25 -0.90625 0.71875l0 6.171875l-2.734375 0z" fill-rule="nonzero"/><path fill="#000000" d="m93.500595 120.3368l5.484375 -12.203125l0.234375 0.5l-6.984375 0l0 -1.359375l7.859375 0l0.25 1.140625l-5.265625 11.921875l-1.578125 0zm11.206009 -0.640625l0 -11.265625l0.546875 0.40625l-2.421875 1.46875l-0.4375 -1.3125l3.234375 -1.90625l0.546875 0l0 12.609375l-1.46875 0zm-1.921875 0.640625l0 -1.421875l5.359375 0l0 1.421875l-5.359375 0z" fill-rule="nonzero"/><path fill="#000000" d="m153.55498 120.3368l5.484375 -12.203125l0.234375 0.5l-6.984375 0l0 -1.359375l7.859375 0l0.25 1.140625l-5.265625 11.921875l-1.578125 0zm12.423508 0.125q-1.296875 0 -2.34375 -0.578125q-1.03125 -0.59375 -1.71875 -1.6875l0.875 -0.953125q0.78125 1.046875 1.5625 1.453125q0.796875 0.390625 1.640625 0.390625q0.890625 0 1.625 -0.421875q0.75 -0.421875 1.171875 -1.125q0.4375 -0.703125 0.4375 -1.5625q0 -0.84375 -0.40625 -1.515625q-0.390625 -0.6875 -1.0625 -1.09375q-0.671875 -0.40625 -1.546875 -0.40625q-0.453125 0 -0.921875 0.109375q-0.46875 0.109375 -0.96875 0.328125q-0.484375 0.203125 -1.046875 0.515625l-0.828125 -1.09375l0.765625 -5.546875l7.046875 0l0 1.359375l-6.28125 0l0.46875 -0.328125l-0.6875 4.5625l-0.4375 -0.296875q0.296875 -0.234375 0.796875 -0.453125q0.515625 -0.234375 1.125 -0.375q0.609375 -0.140625 1.1875 -0.140625q1.203125 0 2.15625 0.5625q0.953125 0.546875 1.515625 1.515625q0.5625 0.953125 0.5625 2.203125q0 1.296875 -0.625 2.34375q-0.609375 1.03125 -1.671875 1.640625q-1.0625 0.59375 -2.390625 0.59375z" fill-rule="nonzero"/><path fill="#ffffff" d="m17.135372 149.59624q-1.015625 0 -2.109375 -0.4375q-1.078125 -0.453125 -1.890625 -1.578125l1.59375 -1.6875q0.515625 0.65625 1.109375 1.0q0.609375 0.34375 1.203125 0.34375q0.9375 0 1.40625 -0.484375q0.484375 -0.484375 0.484375 -1.734375l0 -5.515625l-4.765625 0l0 -2.28125l7.5 0l0 8.015625q0 1.1875 -0.4375 2.1875q-0.4375 0.984375 -1.421875 1.578125q-0.96875 0.59375 -2.671875 0.59375zm10.271881 0q-0.921875 0 -1.609375 -0.359375q-0.671875 -0.375 -1.046875 -1.015625q-0.375 -0.640625 -0.375 -1.421875q0 -1.546875 1.40625 -2.359375q1.40625 -0.828125 4.6875 -1.015625q-0.046875 -0.421875 -0.28125 -0.71875q-0.21875 -0.3125 -0.640625 -0.46875q-0.421875 -0.15625 -1.046875 -0.15625q-0.453125 0 -0.90625 0.109375q-0.4375 0.09375 -0.921875 0.296875q-0.46875 0.1875 -1.0 0.453125l-0.96875 -1.796875q0.640625 -0.359375 1.328125 -0.640625q0.703125 -0.28125 1.453125 -0.4375q0.765625 -0.171875 1.546875 -0.171875q1.3125 0 2.234375 0.46875q0.9375 0.453125 1.4375 1.375q0.515625 0.921875 0.515625 2.34375l0 5.296875l-2.234375 0l-0.21875 -1.046875l-0.0625 0q-0.703125 0.53125 -1.546875 0.90625q-0.828125 0.359375 -1.75 0.359375zm0.890625 -2.125q0.609375 0 1.140625 -0.25q0.546875 -0.25 1.03125 -0.625l0 -1.53125q-1.359375 0.078125 -2.125 0.28125q-0.75 0.203125 -1.046875 0.53125q-0.296875 0.3125 -0.296875 0.71875q0 0.28125 0.15625 0.484375q0.15625 0.203125 0.453125 0.296875q0.296875 0.09375 0.6875 0.09375zm12.537506 2.125q-1.46875 0 -2.640625 -0.5625q-1.15625 -0.578125 -1.84375 -1.65625q-0.671875 -1.09375 -0.671875 -2.625q0 -1.53125 0.75 -2.625q0.75 -1.09375 1.96875 -1.65625q1.21875 -0.578125 2.640625 -0.578125q1.09375 0 1.984375 0.359375q0.90625 0.34375 1.484375 0.890625l-1.265625 1.703125q-0.546875 -0.375 -1.046875 -0.546875q-0.484375 -0.171875 -1.015625 -0.171875q-0.78125 0 -1.40625 0.3125q-0.609375 0.3125 -0.953125 0.921875q-0.328125 0.59375 -0.328125 1.390625q0 0.796875 0.328125 1.40625q0.328125 0.59375 0.90625 0.90625q0.59375 0.3125 1.359375 0.3125q0.734375 0 1.328125 -0.25q0.609375 -0.265625 1.125 -0.625l1.09375 1.734375q-0.8125 0.6875 -1.84375 1.03125q-1.015625 0.328125 -1.953125 0.328125zm6.209381 -0.21875l0 -13.078125l2.734375 0l0 7.5625l0.078125 0l3.390625 -3.734375l3.015625 0l-6.484375 6.921875l0 2.328125l-2.734375 0zm6.53125 0l-2.6875 -4.203125l1.5625 -1.6875l4.078125 5.890625l-2.953125 0z" fill-rule="nonzero"/><path fill="#000000" d="m94.761536 149.47124q-0.96875 0 -1.8125 -0.328125q-0.828125 -0.34375 -1.4375 -0.96875q-0.59375 -0.625 -0.9375 -1.46875q-0.328125 -0.859375 -0.328125 -1.859375q0 -0.484375 0.125 -1.0625q0.125 -0.59375 0.390625 -1.296875q0.265625 -0.703125 0.640625 -1.46875q0.375 -0.765625 0.859375 -1.578125l1.890625 -3.234375l1.421875 0l0.078125 0.1875l-2.109375 3.546875q-0.453125 0.75 -0.8125 1.484375q-0.359375 0.71875 -0.6875 1.453125q-0.3125 0.734375 -0.609375 1.5l-0.265625 -1.34375q0.359375 -0.59375 0.78125 -1.03125q0.421875 -0.453125 0.90625 -0.78125q0.484375 -0.328125 1.03125 -0.484375q0.546875 -0.171875 1.125 -0.171875q1.140625 0 2.0625 0.59375q0.921875 0.59375 1.484375 1.5625q0.5625 0.96875 0.5625 2.15625q0 1.3125 -0.578125 2.359375q-0.578125 1.046875 -1.578125 1.640625q-1.0 0.59375 -2.203125 0.59375zm-0.0625 -1.359375q0.84375 0 1.515625 -0.40625q0.671875 -0.421875 1.0625 -1.109375q0.390625 -0.703125 0.390625 -1.578125q0 -0.828125 -0.390625 -1.515625q-0.390625 -0.703125 -1.0625 -1.125q-0.671875 -0.421875 -1.5 -0.421875q-0.875 0 -1.5625 0.40625q-0.671875 0.40625 -1.0625 1.109375q-0.390625 0.6875 -0.390625 1.515625q0 0.890625 0.390625 1.59375q0.390625 0.6875 1.0625 1.109375q0.6875 0.421875 1.546875 0.421875zm12.411819 1.265625l0 -11.328125l0.40625 0.140625l-5.40625 6.59375l-0.15625 -0.328125l8.84375 0l0 1.375l-9.375 0l-0.703125 -1.375l6.671875 -8.140625l1.125 0l0 13.0625l-1.40625 0z" fill-rule="nonzero"/><path fill="#000000" d="m153.14453 149.37749l5.484375 -12.203125l0.234375 0.5l-6.984375 0l0 -1.359375l7.859375 0l0.25 1.140625l-5.265625 11.921875l-1.578125 0zm13.329758 0.1875q-1.53125 0 -2.609375 -0.796875q-1.0625 -0.8125 -1.640625 -2.3125q-0.5625 -1.5 -0.5625 -3.609375q0 -2.109375 0.5625 -3.609375q0.578125 -1.5 1.640625 -2.296875q1.078125 -0.8125 2.609375 -0.8125q1.515625 0 2.59375 0.8125q1.09375 0.796875 1.65625 2.296875q0.5625 1.5 0.5625 3.609375q0 2.109375 -0.5625 3.609375q-0.5625 1.5 -1.65625 2.3125q-1.078125 0.796875 -2.59375 0.796875zm0 -1.359375q1.609375 0 2.46875 -1.390625q0.875 -1.40625 0.875 -3.96875q0 -2.546875 -0.875 -3.953125q-0.859375 -1.40625 -2.46875 -1.40625q-1.625 0 -2.5 1.40625q-0.859375 1.40625 -0.859375 3.953125q0 2.5625 0.859375 3.96875q0.875 1.390625 2.5 1.390625z" fill-rule="nonzero"/><path shape-rendering="crispEdges" fill="#000000" d="m368.78348 8.811024l87.270325 0l0 25.95538l-87.270325 0l0 -25.95538z" fill-rule="nonzero"/><path shape-rendering="crispEdges" fill="#000000" d="m456.0538 8.811024l94.12076 0l0 25.95538l-94.12076 0l0 -25.95538z" fill-rule="nonzero"/><path shape-rendering="crispEdges" fill="#000000" d="m550.17456 8.811024l133.84515 0l0 25.95538l-133.84515 0l0 -25.95538z" fill-rule="nonzero"/><path stroke="#9e9e9e" stroke-width="1.0" stroke-linecap="butt" d="m368.78348 8.312336l0 185.23885" fill-rule="nonzero"/><path stroke="#9e9e9e" stroke-width="1.0" stroke-linecap="butt" d="m456.0538 8.312336l0 185.23885" fill-rule="nonzero"/><path stroke="#9e9e9e" stroke-width="1.0" stroke-linecap="butt" d="m550.17456 8.312336l0 185.23885" fill-rule="nonzero"/><path stroke="#9e9e9e" stroke-width="1.0" stroke-linecap="butt" d="m684.0197 8.312336l0 185.23885" fill-rule="nonzero"/><path stroke="#9e9e9e" stroke-width="1.0" stroke-linecap="butt" d="m368.2848 8.811024l316.23358 0" fill-rule="nonzero"/><path stroke="#9e9e9e" stroke-width="1.0" stroke-linecap="butt" d="m368.2848 34.766403l316.23358 0" fill-rule="nonzero"/><path stroke="#9e9e9e" stroke-width="1.0" stroke-linecap="butt" d="m368.2848 60.721786l316.23358 0" fill-rule="nonzero"/><path stroke="#9e9e9e" stroke-width="1.0" stroke-linecap="butt" d="m368.2848 86.67716l316.23358 0" fill-rule="nonzero"/><path stroke="#9e9e9e" stroke-width="1.0" stroke-linecap="butt" d="m368.2848 112.632545l316.23358 0" fill-rule="nonzero"/><path stroke="#9e9e9e" stroke-width="1.0" stroke-linecap="butt" d="m368.2848 138.58792l316.23358 0" fill-rule="nonzero"/><path stroke="#9e9e9e" stroke-width="1.0" stroke-linecap="butt" d="m368.2848 164.5433l316.23358 0" fill-rule="nonzero"/><path stroke="#9e9e9e" stroke-width="1.0" stroke-linecap="butt" d="m368.2848 193.05249l316.23358 0" fill-rule="nonzero"/><path fill="#ffffff" d="m391.2655 28.508713l0 -12.15625l2.8125 0l2.5625 6.03125l1.046875 2.6875l0.0625 0q-0.09375 -0.96875 -0.25 -2.15625q-0.140625 -1.203125 -0.140625 -2.265625l0 -4.296875l2.640625 0l0 12.15625l-2.828125 0l-2.546875 -6.0625l-1.046875 -2.65625l-0.078125 0q0.09375 1.0 0.234375 2.171875q0.15625 1.15625 0.15625 2.234375l0 4.3125l-2.625 0zm14.131256 0.21875q-0.921875 0 -1.609375 -0.359375q-0.671875 -0.375 -1.046875 -1.015625q-0.375 -0.640625 -0.375 -1.421875q0 -1.546875 1.40625 -2.359375q1.40625 -0.828125 4.6875 -1.015625q-0.046875 -0.421875 -0.28125 -0.71875q-0.21875 -0.3125 -0.640625 -0.46875q-0.421875 -0.15625 -1.046875 -0.15625q-0.453125 0 -0.90625 0.109375q-0.4375 0.09375 -0.921875 0.296875q-0.46875 0.1875 -1.0 0.453125l-0.96875 -1.796875q0.640625 -0.359375 1.328125 -0.640625q0.703125 -0.28125 1.453125 -0.4375q0.765625 -0.171875 1.546875 -0.171875q1.3125 0 2.234375 0.46875q0.9375 0.453125 1.4375 1.375q0.515625 0.921875 0.515625 2.34375l0 5.296875l-2.234375 0l-0.21875 -1.046875l-0.0625 0q-0.703125 0.53125 -1.546875 0.90625q-0.828125 0.359375 -1.75 0.359375zm0.890625 -2.125q0.609375 0 1.140625 -0.25q0.546875 -0.25 1.03125 -0.625l0 -1.53125q-1.359375 0.078125 -2.125 0.28125q-0.75 0.203125 -1.046875 0.53125q-0.296875 0.3125 -0.296875 0.71875q0 0.28125 0.15625 0.484375q0.15625 0.203125 0.453125 0.296875q0.296875 0.09375 0.6875 0.09375zm6.787506 1.90625l0 -9.25l2.0625 0l0.1875 1.140625l0.078125 0q0.265625 -0.5625 0.71875 -0.96875q0.46875 -0.40625 1.28125 -0.40625q0.59375 0 1.015625 0.390625q0.4375 0.375 0.578125 1.125q0.265625 -0.625 0.75 -1.0625q0.5 -0.453125 1.3125 -0.453125q0.984375 0 1.515625 0.8125q0.546875 0.796875 0.546875 2.171875l0 6.5l-2.609375 0l0 -6.3125q0 -0.828125 -0.5 -0.828125q-0.265625 0 -0.46875 0.21875q-0.1875 0.203125 -0.375 0.671875l0 6.25l-2.140625 0l0 -6.3125q0 -0.421875 -0.140625 -0.625q-0.125 -0.203125 -0.390625 -0.203125q-0.25 0 -0.4375 0.21875q-0.1875 0.203125 -0.375 0.671875l0 6.25l-2.609375 0zm16.693756 0.21875q-1.4375 0 -2.609375 -0.5625q-1.15625 -0.578125 -1.84375 -1.65625q-0.671875 -1.09375 -0.671875 -2.625q0 -1.515625 0.6875 -2.609375q0.6875 -1.09375 1.78125 -1.671875q1.109375 -0.578125 2.34375 -0.578125q1.4375 0 2.40625 0.59375q0.96875 0.59375 1.453125 1.59375q0.5 0.984375 0.5 2.265625q0 0.359375 -0.046875 0.71875q-0.046875 0.34375 -0.078125 0.5l-7.015625 0l0 -1.84375l5.171875 0l-0.4375 0.53125q0 -1.125 -0.484375 -1.6875q-0.46875 -0.578125 -1.375 -0.578125q-0.671875 0 -1.1875 0.296875q-0.5 0.296875 -0.78125 0.921875q-0.28125 0.609375 -0.28125 1.546875q0 0.953125 0.328125 1.5625q0.34375 0.59375 0.984375 0.90625q0.640625 0.296875 1.53125 0.296875q0.625 0 1.1875 -0.171875q0.578125 -0.171875 1.203125 -0.484375l0.90625 1.65625q-0.796875 0.5 -1.765625 0.796875q-0.96875 0.28125 -1.90625 0.28125z" fill-rule="nonzero"/><path fill="#ffffff" d="m470.8454 28.508713l0 -12.15625l3.359375 0q1.765625 0 3.078125 0.640625q1.3125 0.625 2.03125 1.953125q0.734375 1.328125 0.734375 3.421875q0 2.09375 -0.71875 3.453125q-0.71875 1.359375 -2.0 2.03125q-1.28125 0.65625 -2.96875 0.65625l-3.515625 0zm2.75 -2.21875l0.453125 0q0.96875 0 1.671875 -0.375q0.71875 -0.375 1.109375 -1.234375q0.40625 -0.859375 0.40625 -2.3125q0 -1.453125 -0.40625 -2.28125q-0.390625 -0.828125 -1.109375 -1.171875q-0.703125 -0.34375 -1.671875 -0.34375l-0.453125 0l0 7.71875zm12.725006 2.4375q-1.203125 0 -2.296875 -0.5625q-1.078125 -0.578125 -1.75 -1.65625q-0.671875 -1.09375 -0.671875 -2.625q0 -1.53125 0.671875 -2.625q0.671875 -1.09375 1.75 -1.65625q1.09375 -0.578125 2.296875 -0.578125q1.21875 0 2.296875 0.578125q1.078125 0.5625 1.75 1.65625q0.671875 1.09375 0.671875 2.625q0 1.53125 -0.671875 2.625q-0.671875 1.078125 -1.75 1.65625q-1.078125 0.5625 -2.296875 0.5625zm0 -2.21875q0.640625 0 1.0625 -0.3125q0.421875 -0.3125 0.625 -0.90625q0.21875 -0.609375 0.21875 -1.40625q0 -0.796875 -0.21875 -1.390625q-0.203125 -0.609375 -0.625 -0.921875q-0.421875 -0.3125 -1.0625 -0.3125q-0.625 0 -1.046875 0.3125q-0.421875 0.3125 -0.640625 0.921875q-0.21875 0.59375 -0.21875 1.390625q0 0.796875 0.21875 1.40625q0.21875 0.59375 0.640625 0.90625q0.421875 0.3125 1.046875 0.3125zm11.115631 2.21875q-1.21875 0 -2.4375 -0.40625q-1.21875 -0.421875 -2.09375 -1.0l1.1875 -1.71875q0.828125 0.53125 1.765625 0.8125q0.953125 0.28125 1.953125 0.28125q0.765625 0 1.125 -0.234375q0.359375 -0.234375 0.359375 -0.546875q0 -0.203125 -0.109375 -0.34375q-0.109375 -0.140625 -0.359375 -0.265625q-0.25 -0.125 -0.6875 -0.234375q-0.4375 -0.109375 -1.125 -0.25q-1.890625 -0.421875 -2.71875 -1.125q-0.8125 -0.703125 -0.8125 -1.765625q0 -1.3125 1.140625 -2.109375q1.140625 -0.796875 3.125 -0.796875q1.25 0 2.265625 0.40625q1.015625 0.40625 1.734375 0.875l-1.234375 1.640625q-0.6875 -0.4375 -1.46875 -0.65625q-0.78125 -0.21875 -1.546875 -0.21875q-0.421875 0 -0.703125 0.078125q-0.28125 0.078125 -0.4375 0.265625q-0.140625 0.171875 -0.140625 0.375q0 0.375 0.484375 0.5625q0.484375 0.171875 1.65625 0.421875q1.421875 0.328125 2.21875 0.734375q0.796875 0.40625 1.109375 0.9375q0.3125 0.53125 0.3125 1.296875q0 0.84375 -0.515625 1.515625q-0.515625 0.671875 -1.53125 1.078125q-1.015625 0.390625 -2.515625 0.390625zm9.850006 0q-0.921875 0 -1.609375 -0.359375q-0.671875 -0.375 -1.046875 -1.015625q-0.375 -0.640625 -0.375 -1.421875q0 -1.546875 1.40625 -2.359375q1.40625 -0.828125 4.6875 -1.015625q-0.046875 -0.421875 -0.28125 -0.71875q-0.21875 -0.3125 -0.640625 -0.46875q-0.421875 -0.15625 -1.046875 -0.15625q-0.453125 0 -0.90625 0.109375q-0.4375 0.09375 -0.921875 0.296875q-0.46875 0.1875 -1.0 0.453125l-0.96875 -1.796875q0.640625 -0.359375 1.328125 -0.640625q0.703125 -0.28125 1.453125 -0.4375q0.765625 -0.171875 1.546875 -0.171875q1.3125 0 2.234375 0.46875q0.9375305 0.453125 1.4375305 1.375q0.515625 0.921875 0.515625 2.34375l0 5.296875l-2.2344055 0l-0.21875 -1.046875l-0.0625 0q-0.703125 0.53125 -1.546875 0.90625q-0.828125 0.359375 -1.75 0.359375zm0.890625 -2.125q0.609375 0 1.140625 -0.25q0.546875 -0.25 1.03125 -0.625l0 -1.53125q-1.359375 0.078125 -2.125 0.28125q-0.75 0.203125 -1.046875 0.53125q-0.296875 0.3125 -0.296875 0.71875q0 0.28125 0.15625 0.484375q0.15625 0.203125 0.453125 0.296875q0.296875 0.09375 0.6875 0.09375zm11.303131 5.84375q-1.21875 0 -2.15625 -0.25q-0.9375 -0.25 -1.5 -0.78125q-0.546875 -0.515625 -0.546875 -1.34375q0 -0.5625 0.359375 -1.03125q0.375 -0.453125 1.078125 -0.8125l0 -0.078125q-0.390625 -0.25 -0.671875 -0.625q-0.265625 -0.375 -0.265625 -0.953125q0 -0.46875 0.3125 -0.9375q0.3125 -0.46875 0.796875 -0.796875l0 -0.078125q-0.5 -0.328125 -0.859375 -0.9375q-0.359375 -0.625 -0.359375 -1.4375q0 -1.109375 0.546875 -1.859375q0.5625 -0.75 1.453125 -1.125q0.90625 -0.375 1.953125 -0.375q0.859375 0 1.53125 0.234375l3.75 0l0 2.015625l-1.859375 0q0.171875 0.203125 0.28125 0.53125q0.125 0.328125 0.125 0.671875q0 1.0625 -0.515625 1.75q-0.515625 0.6875 -1.375 1.03125q-0.84375 0.328125 -1.9375 0.328125q-0.25 0 -0.59375 -0.046875q-0.328125 -0.046875 -0.671875 -0.140625q-0.21875 0.140625 -0.3125 0.296875q-0.09375 0.140625 -0.09375 0.390625q0 0.34375 0.375 0.515625q0.390625 0.171875 1.1875 0.171875l1.71875 0q1.828125 0 2.78125 0.546875q0.96875 0.53125 0.96875 1.78125q0 0.96875 -0.671875 1.71875q-0.671875 0.765625 -1.921875 1.1875q-1.234375 0.4375 -2.90625 0.4375zm0.140625 -8.53125q0.390625 0 0.703125 -0.15625q0.328125 -0.171875 0.515625 -0.515625q0.1875 -0.34375 0.1875 -0.859375q0 -0.484375 -0.1875 -0.8125q-0.1875 -0.34375 -0.515625 -0.515625q-0.3125 -0.171875 -0.703125 -0.171875q-0.375 0 -0.6875 0.171875q-0.3125 0.171875 -0.5 0.515625q-0.1875 0.328125 -0.1875 0.8125q0 0.515625 0.1875 0.859375q0.1875 0.34375 0.5 0.515625q0.3125 0.15625 0.6875 0.15625zm0.25 6.796875q0.75 0 1.296875 -0.15625q0.5625 -0.140625 0.875 -0.390625q0.328125 -0.25 0.328125 -0.578125q0 -0.46875 -0.421875 -0.59375q-0.40625 -0.109375 -1.203125 -0.109375l-1.15625 0q-0.5 0 -0.828125 -0.046875q-0.328125 -0.03125 -0.59375 -0.078125q-0.359375 0.21875 -0.515625 0.421875q-0.140625 0.21875 -0.140625 0.484375q0 0.5 0.640625 0.765625q0.640625 0.28125 1.71875 0.28125zm11.787537 -1.984375q-1.4375 0 -2.609375 -0.5625q-1.15625 -0.578125 -1.84375 -1.65625q-0.671875 -1.09375 -0.671875 -2.625q0 -1.515625 0.6875 -2.609375q0.6875 -1.09375 1.78125 -1.671875q1.109375 -0.578125 2.34375 -0.578125q1.4375 0 2.40625 0.59375q0.96875 0.59375 1.453125 1.59375q0.5 0.984375 0.5 2.265625q0 0.359375 -0.046875 0.71875q-0.046875 0.34375 -0.078125 0.5l-7.015625 0l0 -1.84375l5.171875 0l-0.4375 0.53125q0 -1.125 -0.484375 -1.6875q-0.46875 -0.578125 -1.375 -0.578125q-0.671875 0 -1.1875 0.296875q-0.5 0.296875 -0.78125 0.921875q-0.28125 0.609375 -0.28125 1.546875q0 0.953125 0.328125 1.5625q0.34375 0.59375 0.984375 0.90625q0.640625 0.296875 1.53125 0.296875q0.625 0 1.1875 -0.171875q0.578125 -0.171875 1.203125 -0.484375l0.90625 1.65625q-0.796875 0.5 -1.765625 0.796875q-0.96875 0.28125 -1.90625 0.28125z" fill-rule="nonzero"/><path fill="#ffffff" d="m562.31586 28.508713l0 -12.15625l2.75 0l0 4.6875l3.3125 0l0 -4.6875l2.75 0l0 12.15625l-2.75 0l0 -5.078125l-3.3125 0l0 5.078125l-2.75 0zm16.162476 0.21875q-1.4375 0 -2.609375 -0.5625q-1.15625 -0.578125 -1.84375 -1.65625q-0.671875 -1.09375 -0.671875 -2.625q0 -1.515625 0.6875 -2.609375q0.6875 -1.09375 1.78125 -1.671875q1.109375 -0.578125 2.34375 -0.578125q1.4375 0 2.40625 0.59375q0.96875 0.59375 1.453125 1.59375q0.5 0.984375 0.5 2.265625q0 0.359375 -0.046875 0.71875q-0.046875 0.34375 -0.078125 0.5l-7.015625 0l0 -1.84375l5.171875 0l-0.4375 0.53125q0 -1.125 -0.484375 -1.6875q-0.46875 -0.578125 -1.375 -0.578125q-0.671875 0 -1.1875 0.296875q-0.5 0.296875 -0.78125 0.921875q-0.28125 0.609375 -0.28125 1.546875q0 0.953125 0.328125 1.5625q0.34375 0.59375 0.984375 0.90625q0.640625 0.296875 1.53125 0.296875q0.625 0 1.1875 -0.171875q0.578125 -0.171875 1.203125 -0.484375l0.90625 1.65625q-0.796875 0.5 -1.765625 0.796875q-0.96875 0.28125 -1.90625 0.28125zm9.209412 0q-0.921875 0 -1.609375 -0.359375q-0.671875 -0.375 -1.046875 -1.015625q-0.375 -0.640625 -0.375 -1.421875q0 -1.546875 1.40625 -2.359375q1.40625 -0.828125 4.6875 -1.015625q-0.046875 -0.421875 -0.28125 -0.71875q-0.21875 -0.3125 -0.640625 -0.46875q-0.421875 -0.15625 -1.046875 -0.15625q-0.453125 0 -0.90625 0.109375q-0.4375 0.09375 -0.921875 0.296875q-0.46875 0.1875 -1.0 0.453125l-0.96875 -1.796875q0.640625 -0.359375 1.328125 -0.640625q0.703125 -0.28125 1.453125 -0.4375q0.765625 -0.171875 1.546875 -0.171875q1.3125 0 2.234375 0.46875q0.9375 0.453125 1.4375 1.375q0.515625 0.921875 0.515625 2.34375l0 5.296875l-2.234375 0l-0.21875 -1.046875l-0.0625 0q-0.703125 0.53125 -1.546875 0.90625q-0.828125 0.359375 -1.75 0.359375zm0.890625 -2.125q0.609375 0 1.140625 -0.25q0.546875 -0.25 1.03125 -0.625l0 -1.53125q-1.359375 0.078125 -2.125 0.28125q-0.75 0.203125 -1.046875 0.53125q-0.296875 0.3125 -0.296875 0.71875q0 0.28125 0.15625 0.484375q0.15625 0.203125 0.453125 0.296875q0.296875 0.09375 0.6875 0.09375zm8.303101 1.90625l0 -9.25l2.234375 0l0.21875 2.015625l0.0625 0q0.6875 -1.140625 1.65625 -1.6875q0.984375 -0.5625 2.09375 -0.5625q0.609375 0 0.984375 0.09375q0.390625 0.09375 0.796875 0.28125l-0.5625 2.296875q-0.421875 -0.125 -0.765625 -0.1875q-0.34375 -0.078125 -0.875 -0.078125q-0.859375 0 -1.6875 0.515625q-0.828125 0.5 -1.421875 1.75l0 4.8125l-2.734375 0zm16.256287 0.21875q-1.46875 0 -2.34375 -0.5q-0.859375 -0.515625 -1.25 -1.421875q-0.390625 -0.921875 -0.390625 -2.140625l0 -3.265625l-2.3125 0l0 -2.03125l2.4375 -0.109375l0.359375 -2.84375l2.25 0l0 2.84375l3.921875 0l0 2.140625l-3.921875 0l0 3.25q0 0.6875 0.203125 1.125q0.21875 0.421875 0.640625 0.625q0.421875 0.1875 1.09375 0.1875q0.546875 0 0.984375 -0.09375q0.453125 -0.09375 0.875 -0.234375l0.484375 1.96875q-0.625 0.1875 -1.359375 0.34375q-0.734375 0.15625 -1.671875 0.15625zm17.325012 -0.21875l0 -9.25l2.234375 0l0.21875 2.015625l0.0625 0q0.6875 -1.140625 1.65625 -1.6875q0.984375 -0.5625 2.09375 -0.5625q0.609375 0 0.984375 0.09375q0.390625 0.09375 0.796875 0.28125l-0.5625 2.296875q-0.421875 -0.125 -0.765625 -0.1875q-0.34375 -0.078125 -0.875 -0.078125q-0.859375 0 -1.6875 0.515625q-0.828125 0.5 -1.421875 1.75l0 4.8125l-2.734375 0zm13.193726 0.21875q-0.921875 0 -1.609375 -0.359375q-0.671875 -0.375 -1.046875 -1.015625q-0.375 -0.640625 -0.375 -1.421875q0 -1.546875 1.40625 -2.359375q1.40625 -0.828125 4.6875 -1.015625q-0.046875 -0.421875 -0.28125 -0.71875q-0.21875 -0.3125 -0.640625 -0.46875q-0.421875 -0.15625 -1.046875 -0.15625q-0.453125 0 -0.90625 0.109375q-0.4375 0.09375 -0.921875 0.296875q-0.46875 0.1875 -1.0 0.453125l-0.96875 -1.796875q0.640625 -0.359375 1.328125 -0.640625q0.703125 -0.28125 1.453125 -0.4375q0.765625 -0.171875 1.546875 -0.171875q1.3125 0 2.234375 0.46875q0.9375 0.453125 1.4375 1.375q0.515625 0.921875 0.515625 2.34375l0 5.296875l-2.234375 0l-0.21875 -1.046875l-0.0625 0q-0.703125 0.53125 -1.546875 0.90625q-0.828125 0.359375 -1.75 0.359375zm0.890625 -2.125q0.609375 0 1.140625 -0.25q0.546875 -0.25 1.03125 -0.625l0 -1.53125q-1.359375 0.078125 -2.125 0.28125q-0.75 0.203125 -1.046875 0.53125q-0.296875 0.3125 -0.296875 0.71875q0 0.28125 0.15625 0.484375q0.15625 0.203125 0.453125 0.296875q0.296875 0.09375 0.6875 0.09375zm13.365662 2.125q-1.46875 0 -2.34375 -0.5q-0.859375 -0.515625 -1.25 -1.421875q-0.390625 -0.921875 -0.390625 -2.140625l0 -3.265625l-2.3125 0l0 -2.03125l2.4375 -0.109375l0.359375 -2.84375l2.25 0l0 2.84375l3.921875 0l0 2.140625l-3.921875 0l0 3.25q0 0.6875 0.203125 1.125q0.21875 0.421875 0.640625 0.625q0.421875 0.1875 1.09375 0.1875q0.546875 0 0.984375 -0.09375q0.453125 -0.09375 0.875 -0.234375l0.484375 1.96875q-0.625 0.1875 -1.359375 0.34375q-0.734375 0.15625 -1.671875 0.15625zm10.115601 0q-1.4375 0 -2.609375 -0.5625q-1.15625 -0.578125 -1.84375 -1.65625q-0.671875 -1.09375 -0.671875 -2.625q0 -1.515625 0.6875 -2.609375q0.6875 -1.09375 1.78125 -1.671875q1.109375 -0.578125 2.34375 -0.578125q1.4375 0 2.40625 0.59375q0.96875 0.59375 1.453125 1.59375q0.5 0.984375 0.5 2.265625q0 0.359375 -0.046875 0.71875q-0.046875 0.34375 -0.078125 0.5l-7.015625 0l0 -1.84375l5.171875 0l-0.4375 0.53125q0 -1.125 -0.484375 -1.6875q-0.46875 -0.578125 -1.375 -0.578125q-0.671875 0 -1.1875 0.296875q-0.5 0.296875 -0.78125 0.921875q-0.28125 0.609375 -0.28125 1.546875q0 0.953125 0.328125 1.5625q0.34375 0.59375 0.984375 0.90625q0.640625 0.296875 1.53125 0.296875q0.625 0 1.1875 -0.171875q0.578125 -0.171875 1.203125 -0.484375l0.90625 1.65625q-0.796875 0.5 -1.765625 0.796875q-0.96875 0.28125 -1.90625 0.28125z" fill-rule="nonzero"/><path fill="#000000" d="m395.4973 54.651592q-0.640625 0 -1.203125 -0.15625q-0.546875 -0.15625 -1.03125 -0.46875q-0.484375 -0.3125 -0.875 -0.75q-0.390625 -0.453125 -0.703125 -1.0l0.984375 -1.0q0.328125 0.5625 0.671875 0.9375q0.34375 0.359375 0.6875 0.59375q0.34375 0.21875 0.703125 0.3125q0.375 0.09375 0.765625 0.09375q0.765625 0 1.34375 -0.359375q0.59375 -0.375 0.921875 -1.015625q0.328125 -0.640625 0.328125 -1.453125l0 -7.59375l-2.375 0l0 -1.390625l5.78125 0l0 1.390625l-1.90625 0l0 7.703125q0 0.890625 -0.3125 1.65625q-0.296875 0.765625 -0.84375 1.328125q-0.53125 0.5625 -1.28125 0.875q-0.734375 0.296875 -1.65625 0.296875zm11.123047 0q-1.265625 0 -2.296875 -0.65625q-1.03125 -0.671875 -1.625 -1.8125q-0.59375 -1.15625 -0.59375 -2.609375q0 -1.46875 0.609375 -2.609375q0.625 -1.140625 1.65625 -1.78125q1.03125 -0.65625 2.328125 -0.65625q0.75 0 1.40625 0.21875q0.65625 0.21875 1.171875 0.625q0.515625 0.40625 0.859375 0.9375q0.34375 0.53125 0.46875 1.140625l-0.40625 -0.203125l0.0625 -2.515625l1.390625 0l0 9.734375l-1.421875 0l0 -2.390625l0.375 -0.234375q-0.125 0.546875 -0.5 1.0625q-0.375 0.515625 -0.90625 0.90625q-0.53125 0.390625 -1.203125 0.625q-0.65625 0.21875 -1.375 0.21875zm0.3125 -1.34375q0.96875 0 1.734375 -0.46875q0.765625 -0.484375 1.203125 -1.328125q0.4375 -0.859375 0.4375 -1.9375q0 -1.078125 -0.4375 -1.921875q-0.4375 -0.84375 -1.203125 -1.328125q-0.765625 -0.484375 -1.734375 -0.484375q-0.984375 0 -1.75 0.484375q-0.75 0.484375 -1.1875 1.328125q-0.4375 0.84375 -0.4375 1.921875q0 1.0625 0.421875 1.921875q0.4375 0.84375 1.203125 1.328125q0.765625 0.484375 1.75 0.484375zm7.4418945 1.15625l0 -9.734375l1.390625 0l0.046875 2.03125l-0.21875 0.09375q0.1875 -0.640625 0.71875 -1.15625q0.546875 -0.53125 1.296875 -0.84375q0.765625 -0.328125 1.5625 -0.328125q1.078125 0 1.796875 0.4375q0.734375 0.421875 1.109375 1.3125q0.375 0.890625 0.375 2.28125l0 5.90625l-1.421875 0l0 -5.84375q0 -0.96875 -0.25 -1.59375q-0.25 -0.625 -0.78125 -0.921875q-0.515625 -0.296875 -1.28125 -0.28125q-0.625 0 -1.171875 0.21875q-0.53125 0.21875 -0.9375 0.59375q-0.390625 0.359375 -0.609375 0.84375q-0.21875 0.484375 -0.21875 1.046875l0 5.9375l-0.6875 0q-0.140625 0 -0.3125 0q-0.15625 0 -0.40625 0zm15.042877 0.1875q-1.453125 0 -2.59375 -0.625q-1.125 -0.640625 -1.765625 -1.78125q-0.625 -1.140625 -0.625 -2.609375q0 -1.140625 0.34375 -2.0625q0.359375 -0.921875 1.0 -1.609375q0.65625 -0.703125 1.546875 -1.078125q0.890625 -0.390625 1.9375 -0.390625q1.0 0 1.796875 0.359375q0.8125 0.359375 1.40625 0.984375q0.59375 0.625 0.890625 1.484375q0.296875 0.859375 0.25 1.875l-0.015625 0.65625l-8.109375 0l-0.203125 -1.171875l7.25 0l-0.328125 0.3125l0 -0.4375q-0.046875 -0.671875 -0.40625 -1.296875q-0.34375 -0.625 -0.984375 -1.015625q-0.640625 -0.40625 -1.546875 -0.40625q-1.046875 0 -1.8125 0.421875q-0.765625 0.421875 -1.171875 1.25q-0.40625 0.8125 -0.40625 2.03125q0 1.15625 0.4375 2.0q0.453125 0.84375 1.28125 1.3125q0.84375 0.46875 2.015625 0.46875q0.6875 0 1.359375 -0.234375q0.6875 -0.234375 1.515625 -0.921875l0.71875 1.015625q-0.421875 0.421875 -1.03125 0.75q-0.59375 0.328125 -1.296875 0.53125q-0.703125 0.1875 -1.453125 0.1875z" fill-rule="nonzero"/><path fill="#000000" d="m497.30508 54.464092l5.0 -13.0625l1.65625 0l4.96875 13.0625l-1.59375 0l-3.1875 -8.46875q-0.125 -0.359375 -0.296875 -0.828125q-0.15625 -0.484375 -0.328125 -0.984375q-0.171875 -0.515625 -0.34375 -1.0q-0.15625 -0.484375 -0.28125 -0.859375l0.375 0q-0.15625 0.46875 -0.3125 0.9375q-0.15625 0.46875 -0.328125 0.953125q-0.15625 0.46875 -0.328125 0.9375q-0.171875 0.46875 -0.34375 0.9375l-3.171875 8.375l-1.484375 0zm2.125 -3.59375l0.546875 -1.421875l6.171875 0l0.59375 1.421875l-7.3125 0z" fill-rule="nonzero"/><path fill="#000000" d="m612.08405 54.557842q-0.96875 0 -1.8125 -0.328125q-0.828125 -0.34375 -1.4375 -0.96875q-0.59375 -0.625 -0.9375 -1.46875q-0.328125 -0.859375 -0.328125 -1.859375q0 -0.484375 0.125 -1.0625q0.125 -0.59375 0.390625 -1.296875q0.265625 -0.703125 0.640625 -1.46875q0.375 -0.765625 0.859375 -1.578125l1.890625 -3.234375l1.421875 0l0.078125 0.1875l-2.109375 3.546875q-0.453125 0.75 -0.8125 1.484375q-0.359375 0.71875 -0.6875 1.453125q-0.3125 0.734375 -0.609375 1.5l-0.265625 -1.34375q0.359375 -0.59375 0.78125 -1.03125q0.421875 -0.453125 0.90625 -0.78125q0.484375 -0.328125 1.03125 -0.484375q0.546875 -0.171875 1.125 -0.171875q1.140625 0 2.0625 0.59375q0.921875 0.59375 1.484375 1.5625q0.5625 0.96875 0.5625 2.15625q0 1.3125 -0.578125 2.359375q-0.578125 1.046875 -1.578125 1.640625q-1.0 0.59375 -2.203125 0.59375zm-0.0625 -1.359375q0.84375 0 1.515625 -0.40625q0.671875 -0.421875 1.0625 -1.109375q0.390625 -0.703125 0.390625 -1.578125q0 -0.828125 -0.390625 -1.515625q-0.390625 -0.703125 -1.0625 -1.125q-0.671875 -0.421875 -1.5 -0.421875q-0.875 0 -1.5625 0.40625q-0.671875 0.40625 -1.0625 1.109375q-0.390625 0.6875 -0.390625 1.515625q0 0.890625 0.390625 1.59375q0.390625 0.6875 1.0625 1.109375q0.6875 0.421875 1.546875 0.421875zm7.05249 1.265625l-0.453125 -1.078125l4.40625 -4.953125q0.3125 -0.34375 0.65625 -0.796875q0.359375 -0.453125 0.65625 -0.9375q0.3125 -0.5 0.5 -0.984375q0.1875 -0.484375 0.1875 -0.953125q0 -0.6875 -0.296875 -1.15625q-0.296875 -0.484375 -0.859375 -0.734375q-0.546875 -0.265625 -1.265625 -0.265625q-0.640625 0 -1.265625 0.296875q-0.609375 0.296875 -1.109375 0.921875q-0.5 0.609375 -0.78125 1.5625l-1.15625 -0.703125q0.328125 -1.125 0.984375 -1.90625q0.65625 -0.78125 1.546875 -1.171875q0.90625 -0.390625 1.921875 -0.390625q1.09375 0 1.9375 0.4375q0.859375 0.4375 1.359375 1.234375q0.515625 0.796875 0.515625 1.828125q0 0.4375 -0.109375 0.890625q-0.09375 0.453125 -0.3125 0.90625q-0.203125 0.4375 -0.5 0.90625q-0.28125 0.46875 -0.671875 0.953125q-0.375 0.484375 -0.828125 1.0l-3.75 4.171875l-0.234375 -0.484375l6.8125 0l0 1.40625l-7.890625 0z" fill-rule="nonzero"/><path fill="#000000" d="m395.4973 80.60697q-0.640625 0 -1.203125 -0.15625q-0.546875 -0.15625 -1.03125 -0.46875q-0.484375 -0.3125 -0.875 -0.75q-0.390625 -0.453125 -0.703125 -1.0l0.984375 -1.0q0.328125 0.5625 0.671875 0.9375q0.34375 0.359375 0.6875 0.59375q0.34375 0.21875 0.703125 0.3125q0.375 0.09375 0.765625 0.09375q0.765625 0 1.34375 -0.359375q0.59375 -0.375 0.921875 -1.015625q0.328125 -0.640625 0.328125 -1.453125l0 -7.59375l-2.375 0l0 -1.390625l5.78125 0l0 1.390625l-1.90625 0l0 7.703125q0 0.890625 -0.3125 1.65625q-0.296875 0.765625 -0.84375 1.328125q-0.53125 0.5625 -1.28125 0.875q-0.734375 0.296875 -1.65625 0.296875zm11.123047 0q-1.265625 0 -2.296875 -0.65625q-1.03125 -0.671875 -1.625 -1.8125q-0.59375 -1.15625 -0.59375 -2.609375q0 -1.46875 0.609375 -2.609375q0.625 -1.140625 1.65625 -1.78125q1.03125 -0.65625 2.328125 -0.65625q0.75 0 1.40625 0.21875q0.65625 0.21875 1.171875 0.625q0.515625 0.40625 0.859375 0.9375q0.34375 0.53125 0.46875 1.140625l-0.40625 -0.203125l0.0625 -2.515625l1.390625 0l0 9.734375l-1.421875 0l0 -2.390625l0.375 -0.234375q-0.125 0.546875 -0.5 1.0625q-0.375 0.515625 -0.90625 0.90625q-0.53125 0.390625 -1.203125 0.625q-0.65625 0.21875 -1.375 0.21875zm0.3125 -1.34375q0.96875 0 1.734375 -0.46875q0.765625 -0.484375 1.203125 -1.328125q0.4375 -0.859375 0.4375 -1.9375q0 -1.078125 -0.4375 -1.921875q-0.4375 -0.84375 -1.203125 -1.328125q-0.765625 -0.484375 -1.734375 -0.484375q-0.984375 0 -1.75 0.484375q-0.75 0.484375 -1.1875 1.328125q-0.4375 0.84375 -0.4375 1.921875q0 1.0625 0.421875 1.921875q0.4375 0.84375 1.203125 1.328125q0.765625 0.484375 1.75 0.484375zm7.4418945 1.15625l0 -9.734375l1.390625 0l0.046875 2.03125l-0.21875 0.09375q0.1875 -0.640625 0.71875 -1.15625q0.546875 -0.53125 1.296875 -0.84375q0.765625 -0.328125 1.5625 -0.328125q1.078125 0 1.796875 0.4375q0.734375 0.421875 1.109375 1.3125q0.375 0.890625 0.375 2.28125l0 5.90625l-1.421875 0l0 -5.84375q0 -0.96875 -0.25 -1.59375q-0.25 -0.625 -0.78125 -0.921875q-0.515625 -0.296875 -1.28125 -0.28125q-0.625 0 -1.171875 0.21875q-0.53125 0.21875 -0.9375 0.59375q-0.390625 0.359375 -0.609375 0.84375q-0.21875 0.484375 -0.21875 1.046875l0 5.9375l-0.6875 0q-0.140625 0 -0.3125 0q-0.15625 0 -0.40625 0zm15.042877 0.1875q-1.453125 0 -2.59375 -0.625q-1.125 -0.640625 -1.765625 -1.78125q-0.625 -1.140625 -0.625 -2.609375q0 -1.140625 0.34375 -2.0625q0.359375 -0.921875 1.0 -1.609375q0.65625 -0.703125 1.546875 -1.078125q0.890625 -0.390625 1.9375 -0.390625q1.0 0 1.796875 0.359375q0.8125 0.359375 1.40625 0.984375q0.59375 0.625 0.890625 1.484375q0.296875 0.859375 0.25 1.875l-0.015625 0.65625l-8.109375 0l-0.203125 -1.171875l7.25 0l-0.328125 0.3125l0 -0.4375q-0.046875 -0.671875 -0.40625 -1.296875q-0.34375 -0.625 -0.984375 -1.015625q-0.640625 -0.40625 -1.546875 -0.40625q-1.046875 0 -1.8125 0.421875q-0.765625 0.421875 -1.171875 1.25q-0.40625 0.8125 -0.40625 2.03125q0 1.15625 0.4375 2.0q0.453125 0.84375 1.28125 1.3125q0.84375 0.46875 2.015625 0.46875q0.6875 0 1.359375 -0.234375q0.6875 -0.234375 1.515625 -0.921875l0.71875 1.015625q-0.421875 0.421875 -1.03125 0.75q-0.59375 0.328125 -1.296875 0.53125q-0.703125 0.1875 -1.453125 0.1875z" fill-rule="nonzero"/><path fill="#000000" d="m498.7769 80.41947l0 -13.0625l5.296875 0q1.140625 0 1.96875 0.40625q0.828125 0.40625 1.265625 1.140625q0.453125 0.734375 0.453125 1.734375q0 1.09375 -0.609375 1.875q-0.609375 0.765625 -1.671875 1.0625l-0.046875 -0.359375q0.921875 0.171875 1.59375 0.65625q0.671875 0.46875 1.046875 1.15625q0.390625 0.6875 0.390625 1.546875q0 0.875 -0.3125 1.59375q-0.296875 0.703125 -0.84375 1.203125q-0.546875 0.5 -1.328125 0.78125q-0.765625 0.265625 -1.71875 0.265625l-5.484375 0zm1.453125 -1.421875l3.921875 0q0.84375 0 1.46875 -0.28125q0.625 -0.296875 0.96875 -0.828125q0.34375 -0.546875 0.34375 -1.25q0 -0.671875 -0.375 -1.171875q-0.359375 -0.515625 -1.0 -0.796875q-0.640625 -0.28125 -1.5 -0.28125l-3.828125 0l0 4.609375zm0 -6.015625l3.734375 0q0.671875 0 1.1875 -0.265625q0.53125 -0.28125 0.828125 -0.75q0.296875 -0.484375 0.296875 -1.078125q0 -0.953125 -0.640625 -1.53125q-0.640625 -0.578125 -1.796875 -0.578125l-3.609375 0l0 4.203125z" fill-rule="nonzero"/><path fill="#000000" d="m611.8975 80.51322q-0.96875 0 -1.8125 -0.328125q-0.828125 -0.34375 -1.4375 -0.96875q-0.59375 -0.625 -0.9375 -1.46875q-0.328125 -0.859375 -0.328125 -1.859375q0 -0.484375 0.125 -1.0625q0.125 -0.59375 0.390625 -1.296875q0.265625 -0.703125 0.640625 -1.46875q0.375 -0.765625 0.859375 -1.578125l1.890625 -3.234375l1.421875 0l0.078125 0.1875l-2.109375 3.546875q-0.453125 0.75 -0.8125 1.484375q-0.359375 0.71875 -0.6875 1.453125q-0.3125 0.734375 -0.609375 1.5l-0.265625 -1.34375q0.359375 -0.59375 0.78125 -1.03125q0.421875 -0.453125 0.90625 -0.78125q0.484375 -0.328125 1.03125 -0.484375q0.546875 -0.171875 1.125 -0.171875q1.140625 0 2.0625 0.59375q0.921875 0.59375 1.484375 1.5625q0.5625 0.96875 0.5625 2.15625q0 1.3125 -0.578125 2.359375q-0.578125 1.046875 -1.578125 1.640625q-1.0 0.59375 -2.203125 0.59375zm-0.0625 -1.359375q0.84375 0 1.515625 -0.40625q0.671875 -0.421875 1.0625 -1.109375q0.390625 -0.703125 0.390625 -1.578125q0 -0.828125 -0.390625 -1.515625q-0.390625 -0.703125 -1.0625 -1.125q-0.671875 -0.421875 -1.5 -0.421875q-0.875 0 -1.5625 0.40625q-0.671875 0.40625 -1.0625 1.109375q-0.390625 0.6875 -0.390625 1.515625q0 0.890625 0.390625 1.59375q0.390625 0.6875 1.0625 1.109375q0.6875 0.421875 1.546875 0.421875zm10.114929 1.390625q-1.296875 0 -2.34375 -0.578125q-1.03125 -0.59375 -1.71875 -1.6875l0.875 -0.953125q0.78125 1.046875 1.5625 1.453125q0.796875 0.390625 1.640625 0.390625q0.890625 0 1.625 -0.421875q0.75 -0.421875 1.171875 -1.125q0.4375 -0.703125 0.4375 -1.5625q0 -0.84375 -0.40625 -1.515625q-0.390625 -0.6875 -1.0625 -1.09375q-0.671875 -0.40625 -1.546875 -0.40625q-0.453125 0 -0.921875 0.109375q-0.46875 0.109375 -0.96875 0.328125q-0.484375 0.203125 -1.046875 0.515625l-0.828125 -1.09375l0.765625 -5.546875l7.046875 0l0 1.359375l-6.28125 0l0.46875 -0.328125l-0.6875 4.5625l-0.4375 -0.296875q0.296875 -0.234375 0.796875 -0.453125q0.515625 -0.234375 1.125 -0.375q0.609375 -0.140625 1.1875 -0.140625q1.203125 0 2.15625 0.5625q0.953125 0.546875 1.515625 1.515625q0.5625 0.953125 0.5625 2.203125q0 1.296875 -0.625 2.34375q-0.609375 1.03125 -1.671875 1.640625q-1.0625 0.59375 -2.390625 0.59375z" fill-rule="nonzero"/><path fill="#000000" d="m395.488 106.562355q-0.640625 0 -1.203125 -0.15625q-0.546875 -0.15625 -1.03125 -0.46875q-0.484375 -0.3125 -0.875 -0.75q-0.390625 -0.453125 -0.703125 -1.0l0.984375 -1.0q0.328125 0.5625 0.671875 0.9375q0.34375 0.359375 0.6875 0.59375q0.34375 0.21875 0.703125 0.3125q0.375 0.09375 0.765625 0.09375q0.765625 0 1.34375 -0.359375q0.59375 -0.375 0.921875 -1.015625q0.328125 -0.640625 0.328125 -1.453125l0 -7.59375l-2.375 0l0 -1.390625l5.78125 0l0 1.390625l-1.90625 0l0 7.703125q0 0.890625 -0.3125 1.65625q-0.296875 0.765625 -0.84375 1.328125q-0.53125 0.5625 -1.28125 0.875q-0.734375 0.296875 -1.65625 0.296875zm11.623047 0q-1.453125 0 -2.59375 -0.65625q-1.125 -0.65625 -1.765625 -1.8125q-0.640625 -1.15625 -0.640625 -2.625q0 -1.453125 0.640625 -2.59375q0.640625 -1.140625 1.765625 -1.78125q1.140625 -0.65625 2.59375 -0.65625q1.4375 0 2.5625 0.65625q1.125 0.640625 1.765625 1.78125q0.65625 1.140625 0.65625 2.59375q0 1.46875 -0.65625 2.625q-0.640625 1.15625 -1.765625 1.8125q-1.125 0.65625 -2.5625 0.65625zm0 -1.328125q1.03125 0 1.828125 -0.484375q0.796875 -0.5 1.25 -1.34375q0.453125 -0.859375 0.453125 -1.9375q0 -1.078125 -0.453125 -1.921875q-0.453125 -0.84375 -1.25 -1.3125q-0.796875 -0.484375 -1.828125 -0.484375q-1.03125 0 -1.84375 0.484375q-0.8125 0.46875 -1.265625 1.328125q-0.453125 0.84375 -0.4375 1.90625q-0.015625 1.078125 0.4375 1.9375q0.453125 0.84375 1.265625 1.34375q0.8125 0.484375 1.84375 0.484375zm7.011841 1.140625l0 -13.8125l1.40625 0l0 6.203125l-0.28125 0.28125q0.203125 -0.765625 0.765625 -1.34375q0.5625 -0.59375 1.3125 -0.921875q0.75 -0.34375 1.53125 -0.34375q1.125 0 1.875 0.4375q0.75 0.421875 1.109375 1.3125q0.359375 0.890625 0.359375 2.28125l0 5.90625l-1.421875 0l0 -5.84375q0 -0.96875 -0.25 -1.59375q-0.25 -0.625 -0.78125 -0.921875q-0.515625 -0.296875 -1.296875 -0.28125q-0.609375 0 -1.15625 0.21875q-0.53125 0.21875 -0.9375 0.59375q-0.390625 0.359375 -0.609375 0.84375q-0.21875 0.484375 -0.21875 1.046875l0 5.9375l-0.6875 0q-0.140625 0 -0.3125 0q-0.15625 0 -0.40625 0zm10.746002 0l0 -9.734375l1.390625 0l0.046875 2.03125l-0.21875 0.09375q0.1875 -0.640625 0.71875 -1.15625q0.546875 -0.53125 1.296875 -0.84375q0.765625 -0.328125 1.5625 -0.328125q1.078125 0 1.796875 0.4375q0.734375 0.421875 1.109375 1.3125q0.375 0.890625 0.375 2.28125l0 5.90625l-1.421875 0l0 -5.84375q0 -0.96875 -0.25 -1.59375q-0.25 -0.625 -0.78125 -0.921875q-0.515625 -0.296875 -1.28125 -0.28125q-0.625 0 -1.171875 0.21875q-0.53125 0.21875 -0.9375 0.59375q-0.390625 0.359375 -0.609375 0.84375q-0.21875 0.484375 -0.21875 1.046875l0 5.9375l-0.6875 0q-0.140625 0 -0.3125 0q-0.15625 0 -0.40625 0z" fill-rule="nonzero"/><path fill="#000000" d="m497.30508 106.374855l5.0 -13.0625l1.65625 0l4.96875 13.0625l-1.59375 0l-3.1875 -8.46875q-0.125 -0.359375 -0.296875 -0.828125q-0.15625 -0.484375 -0.328125 -0.984375q-0.171875 -0.515625 -0.34375 -1.0q-0.15625 -0.484375 -0.28125 -0.859375l0.375 0q-0.15625 0.46875 -0.3125 0.9375q-0.15625 0.46875 -0.328125 0.953125q-0.15625 0.46875 -0.328125 0.9375q-0.171875 0.46875 -0.34375 0.9375l-3.171875 8.375l-1.484375 0zm2.125 -3.59375l0.546875 -1.421875l6.171875 0l0.59375 1.421875l-7.3125 0z" fill-rule="nonzero"/><path fill="#000000" d="m610.1515 106.374855l5.484375 -12.203125l0.234375 0.5l-6.984375 0l0 -1.359375l7.859375 0l0.25 1.140625l-5.265625 11.921875l-1.578125 0zm11.206055 -0.640625l0 -11.265625l0.546875 0.40625l-2.421875 1.46875l-0.4375 -1.3125l3.234375 -1.90625l0.546875 0l0 12.609375l-1.46875 0zm-1.921875 0.640625l0 -1.421875l5.359375 0l0 1.421875l-5.359375 0z" fill-rule="nonzero"/><path fill="#000000" d="m395.488 132.51773q-0.640625 0 -1.203125 -0.15625q-0.546875 -0.15625 -1.03125 -0.46875q-0.484375 -0.3125 -0.875 -0.75q-0.390625 -0.453125 -0.703125 -1.0l0.984375 -1.0q0.328125 0.5625 0.671875 0.9375q0.34375 0.359375 0.6875 0.59375q0.34375 0.21875 0.703125 0.3125q0.375 0.09375 0.765625 0.09375q0.765625 0 1.34375 -0.359375q0.59375 -0.375 0.921875 -1.015625q0.328125 -0.640625 0.328125 -1.453125l0 -7.5937424l-2.375 0l0 -1.390625l5.78125 0l0 1.390625l-1.90625 0l0 7.7031174q0 0.890625 -0.3125 1.65625q-0.296875 0.765625 -0.84375 1.328125q-0.53125 0.5625 -1.28125 0.875q-0.734375 0.296875 -1.65625 0.296875zm11.623047 0q-1.453125 0 -2.59375 -0.65625q-1.125 -0.65625 -1.765625 -1.8125q-0.640625 -1.15625 -0.640625 -2.6249924q0 -1.453125 0.640625 -2.59375q0.640625 -1.140625 1.765625 -1.78125q1.140625 -0.65625 2.59375 -0.65625q1.4375 0 2.5625 0.65625q1.125 0.640625 1.765625 1.78125q0.65625 1.140625 0.65625 2.59375q0 1.4687424 -0.65625 2.6249924q-0.640625 1.15625 -1.765625 1.8125q-1.125 0.65625 -2.5625 0.65625zm0 -1.328125q1.03125 0 1.828125 -0.484375q0.796875 -0.5 1.25 -1.34375q0.453125 -0.859375 0.453125 -1.9374924q0 -1.078125 -0.453125 -1.921875q-0.453125 -0.84375 -1.25 -1.3125q-0.796875 -0.484375 -1.828125 -0.484375q-1.03125 0 -1.84375 0.484375q-0.8125 0.46875 -1.265625 1.328125q-0.453125 0.84375 -0.4375 1.90625q-0.015625 1.0781174 0.4375 1.9374924q0.453125 0.84375 1.265625 1.34375q0.8125 0.484375 1.84375 0.484375zm7.011841 1.140625l0 -13.812492l1.40625 0l0 6.203125l-0.28125 0.28125q0.203125 -0.765625 0.765625 -1.34375q0.5625 -0.59375 1.3125 -0.921875q0.75 -0.34375 1.53125 -0.34375q1.125 0 1.875 0.4375q0.75 0.421875 1.109375 1.3125q0.359375 0.890625 0.359375 2.28125l0 5.9062424l-1.421875 0l0 -5.8437424q0 -0.96875 -0.25 -1.59375q-0.25 -0.625 -0.78125 -0.921875q-0.515625 -0.296875 -1.296875 -0.28125q-0.609375 0 -1.15625 0.21875q-0.53125 0.21875 -0.9375 0.59375q-0.390625 0.359375 -0.609375 0.84375q-0.21875 0.484375 -0.21875 1.046875l0 5.9374924l-0.6875 0q-0.140625 0 -0.3125 0q-0.15625 0 -0.40625 0zm10.746002 0l0 -9.734367l1.390625 0l0.046875 2.03125l-0.21875 0.09375q0.1875 -0.640625 0.71875 -1.15625q0.546875 -0.53125 1.296875 -0.84375q0.765625 -0.328125 1.5625 -0.328125q1.078125 0 1.796875 0.4375q0.734375 0.421875 1.109375 1.3125q0.375 0.890625 0.375 2.28125l0 5.9062424l-1.421875 0l0 -5.8437424q0 -0.96875 -0.25 -1.59375q-0.25 -0.625 -0.78125 -0.921875q-0.515625 -0.296875 -1.28125 -0.28125q-0.625 0 -1.171875 0.21875q-0.53125 0.21875 -0.9375 0.59375q-0.390625 0.359375 -0.609375 0.84375q-0.21875 0.484375 -0.21875 1.046875l0 5.9374924l-0.6875 0q-0.140625 0 -0.3125 0q-0.15625 0 -0.40625 0z" fill-rule="nonzero"/><path fill="#000000" d="m498.7769 132.33023l0 -13.062492l5.296875 0q1.140625 0 1.96875 0.40625q0.828125 0.40625 1.265625 1.140625q0.453125 0.734375 0.453125 1.734375q0 1.09375 -0.609375 1.875q-0.609375 0.765625 -1.671875 1.0625l-0.046875 -0.359375q0.921875 0.171875 1.59375 0.65625q0.671875 0.46875 1.046875 1.15625q0.390625 0.6875 0.390625 1.5468674q0 0.875 -0.3125 1.59375q-0.296875 0.703125 -0.84375 1.203125q-0.546875 0.5 -1.328125 0.78125q-0.765625 0.265625 -1.71875 0.265625l-5.484375 0zm1.453125 -1.421875l3.921875 0q0.84375 0 1.46875 -0.28125q0.625 -0.296875 0.96875 -0.828125q0.34375 -0.546875 0.34375 -1.25q0 -0.6718674 -0.375 -1.1718674q-0.359375 -0.515625 -1.0 -0.796875q-0.640625 -0.28125 -1.5 -0.28125l-3.828125 0l0 4.6093674zm0 -6.0156174l3.734375 0q0.671875 0 1.1875 -0.265625q0.53125 -0.28125 0.828125 -0.75q0.296875 -0.484375 0.296875 -1.078125q0 -0.953125 -0.640625 -1.53125q-0.640625 -0.578125 -1.796875 -0.578125l-3.609375 0l0 4.203125z" fill-rule="nonzero"/><path fill="#000000" d="m608.9854 132.33023l5.484375 -12.203117l0.234375 0.5l-6.984375 0l0 -1.359375l7.859375 0l0.25 1.140625l-5.265625 11.921867l-1.578125 0zm12.423523 0.125q-1.296875 0 -2.34375 -0.578125q-1.03125 -0.59375 -1.71875 -1.6875l0.875 -0.953125q0.78125 1.046875 1.5625 1.453125q0.796875 0.390625 1.640625 0.390625q0.890625 0 1.625 -0.421875q0.75 -0.421875 1.171875 -1.125q0.4375 -0.703125 0.4375 -1.5624924q0 -0.84375 -0.40625 -1.515625q-0.390625 -0.6875 -1.0625 -1.09375q-0.671875 -0.40625 -1.546875 -0.40625q-0.453125 0 -0.921875 0.109375q-0.46875 0.109375 -0.96875 0.328125q-0.484375 0.203125 -1.046875 0.515625l-0.828125 -1.09375l0.765625 -5.546875l7.046875 0l0 1.359375l-6.28125 0l0.46875 -0.328125l-0.6875 4.5625l-0.4375 -0.296875q0.296875 -0.234375 0.796875 -0.453125q0.515625 -0.234375 1.125 -0.375q0.609375 -0.140625 1.1875 -0.140625q1.203125 0 2.15625 0.5625q0.953125 0.546875 1.515625 1.515625q0.5625 0.953125 0.5625 2.203125q0 1.2968674 -0.625 2.3437424q-0.609375 1.03125 -1.671875 1.640625q-1.0625 0.59375 -2.390625 0.59375z" fill-rule="nonzero"/><path fill="#000000" d="m396.18762 158.47311q-0.640625 0 -1.203125 -0.15625q-0.546875 -0.15625 -1.03125 -0.46875q-0.484375 -0.3125 -0.875 -0.75q-0.390625 -0.453125 -0.703125 -1.0l0.984375 -1.0q0.328125 0.5625 0.671875 0.9375q0.34375 0.359375 0.6875 0.59375q0.34375 0.21875 0.703125 0.3125q0.375 0.09375 0.765625 0.09375q0.765625 0 1.34375 -0.359375q0.59375 -0.375 0.921875 -1.015625q0.328125 -0.640625 0.328125 -1.453125l0 -7.59375l-2.375 0l0 -1.390625l5.78125 0l0 1.390625l-1.90625 0l0 7.703125q0 0.890625 -0.3125 1.65625q-0.296875 0.765625 -0.84375 1.328125q-0.53125 0.5625 -1.28125 0.875q-0.734375 0.296875 -1.65625 0.296875zm11.123047 0q-1.265625 0 -2.296875 -0.65625q-1.03125 -0.671875 -1.625 -1.8125q-0.59375 -1.15625 -0.59375 -2.609375q0 -1.46875 0.609375 -2.609375q0.625 -1.140625 1.65625 -1.78125q1.03125 -0.65625 2.328125 -0.65625q0.75 0 1.40625 0.21875q0.65625 0.21875 1.171875 0.625q0.515625 0.40625 0.859375 0.9375q0.34375 0.53125 0.46875 1.140625l-0.40625 -0.203125l0.0625 -2.515625l1.390625 0l0 9.734375l-1.421875 0l0 -2.390625l0.375 -0.234375q-0.125 0.546875 -0.5 1.0625q-0.375 0.515625 -0.90625 0.90625q-0.53125 0.390625 -1.203125 0.625q-0.65625 0.21875 -1.375 0.21875zm0.3125 -1.34375q0.96875 0 1.734375 -0.46875q0.765625 -0.484375 1.203125 -1.328125q0.4375 -0.859375 0.4375 -1.9375q0 -1.078125 -0.4375 -1.921875q-0.4375 -0.84375 -1.203125 -1.328125q-0.765625 -0.484375 -1.734375 -0.484375q-0.984375 0 -1.75 0.484375q-0.75 0.484375 -1.1875 1.328125q-0.4375 0.84375 -0.4375 1.921875q0 1.0625 0.421875 1.921875q0.4375 0.84375 1.203125 1.328125q0.765625 0.484375 1.75 0.484375zm11.551239 1.34375q-1.390625 0 -2.46875 -0.65625q-1.078125 -0.671875 -1.703125 -1.8125q-0.625 -1.15625 -0.625 -2.609375q0 -1.453125 0.625 -2.59375q0.625 -1.15625 1.703125 -1.796875q1.078125 -0.65625 2.484375 -0.65625q1.25 0 2.265625 0.5q1.03125 0.484375 1.65625 1.359375l-0.828125 1.0q-0.34375 -0.453125 -0.84375 -0.8125q-0.5 -0.359375 -1.078125 -0.546875q-0.5625 -0.203125 -1.109375 -0.203125q-1.0 0 -1.78125 0.5q-0.78125 0.484375 -1.234375 1.328125q-0.453125 0.84375 -0.453125 1.921875q0 1.078125 0.453125 1.9375q0.453125 0.84375 1.234375 1.328125q0.78125 0.484375 1.75 0.484375q0.5625 0 1.09375 -0.171875q0.546875 -0.1875 1.03125 -0.515625q0.5 -0.34375 0.90625 -0.84375l0.8125 1.015625q-0.625 0.828125 -1.6875 1.34375q-1.0625 0.5 -2.203125 0.5zm6.953827 -3.328125l-0.046875 -1.609375l5.09375 -4.984375l1.875 0l-6.921875 6.59375zm-1.25 3.140625l0 -13.8125l1.40625 0l0 13.8125l-1.40625 0zm6.6875 0l-4.109375 -4.75l0.984375 -0.984375l4.953125 5.734375l-1.828125 0z" fill-rule="nonzero"/><path fill="#000000" d="m497.30508 158.28561l5.0 -13.0625l1.65625 0l4.96875 13.0625l-1.59375 0l-3.1875 -8.46875q-0.125 -0.359375 -0.296875 -0.828125q-0.15625 -0.484375 -0.328125 -0.984375q-0.171875 -0.515625 -0.34375 -1.0q-0.15625 -0.484375 -0.28125 -0.859375l0.375 0q-0.15625 0.46875 -0.3125 0.9375q-0.15625 0.46875 -0.328125 0.953125q-0.15625 0.46875 -0.328125 0.9375q-0.171875 0.46875 -0.34375 0.9375l-3.171875 8.375l-1.484375 0zm2.125 -3.59375l0.546875 -1.421875l6.171875 0l0.59375 1.421875l-7.3125 0z" fill-rule="nonzero"/><path fill="#000000" d="m611.4125 158.37936q-0.96875 0 -1.8125 -0.328125q-0.828125 -0.34375 -1.4375 -0.96875q-0.59375 -0.625 -0.9375 -1.46875q-0.328125 -0.859375 -0.328125 -1.859375q0 -0.484375 0.125 -1.0625q0.125 -0.59375 0.390625 -1.296875q0.265625 -0.703125 0.640625 -1.46875q0.375 -0.765625 0.859375 -1.578125l1.890625 -3.234375l1.421875 0l0.078125 0.1875l-2.109375 3.546875q-0.453125 0.75 -0.8125 1.484375q-0.359375 0.71875 -0.6875 1.453125q-0.3125 0.734375 -0.609375 1.5l-0.265625 -1.34375q0.359375 -0.59375 0.78125 -1.03125q0.421875 -0.453125 0.90625 -0.78125q0.484375 -0.328125 1.03125 -0.484375q0.546875 -0.171875 1.125 -0.171875q1.140625 0 2.0625 0.59375q0.921875 0.59375 1.484375 1.5625q0.5625 0.96875 0.5625 2.15625q0 1.3125 -0.578125 2.359375q-0.578125 1.046875 -1.578125 1.640625q-1.0 0.59375 -2.203125 0.59375zm-0.0625 -1.359375q0.84375 0 1.515625 -0.40625q0.671875 -0.421875 1.0625 -1.109375q0.390625 -0.703125 0.390625 -1.578125q0 -0.828125 -0.390625 -1.515625q-0.390625 -0.703125 -1.0625 -1.125q-0.671875 -0.421875 -1.5 -0.421875q-0.875 0 -1.5625 0.40625q-0.671875 0.40625 -1.0625 1.109375q-0.390625 0.6875 -0.390625 1.515625q0 0.890625 0.390625 1.59375q0.390625 0.6875 1.0625 1.109375q0.6875 0.421875 1.546875 0.421875zm12.411804 1.265625l0 -11.328125l0.40625 0.140625l-5.40625 6.59375l-0.15625 -0.328125l8.84375 0l0 1.375l-9.375 0l-0.703125 -1.375l6.671875 -8.140625l1.125 0l0 13.0625l-1.40625 0z" fill-rule="nonzero"/><path fill="#000000" d="m396.18762 185.7054q-0.640625 0 -1.203125 -0.15625q-0.546875 -0.15625 -1.03125 -0.46875q-0.484375 -0.3125 -0.875 -0.75q-0.390625 -0.453125 -0.703125 -1.0l0.984375 -1.0q0.328125 0.5625 0.671875 0.9375q0.34375 0.359375 0.6875 0.59375q0.34375 0.21875 0.703125 0.3125q0.375 0.09375 0.765625 0.09375q0.765625 0 1.34375 -0.359375q0.59375 -0.375 0.921875 -1.015625q0.328125 -0.640625 0.328125 -1.453125l0 -7.59375l-2.375 0l0 -1.390625l5.78125 0l0 1.390625l-1.90625 0l0 7.703125q0 0.890625 -0.3125 1.65625q-0.296875 0.765625 -0.84375 1.328125q-0.53125 0.5625 -1.28125 0.875q-0.734375 0.296875 -1.65625 0.296875zm11.123047 0q-1.265625 0 -2.296875 -0.65625q-1.03125 -0.671875 -1.625 -1.8125q-0.59375 -1.15625 -0.59375 -2.609375q0 -1.46875 0.609375 -2.609375q0.625 -1.140625 1.65625 -1.78125q1.03125 -0.65625 2.328125 -0.65625q0.75 0 1.40625 0.21875q0.65625 0.21875 1.171875 0.625q0.515625 0.40625 0.859375 0.9375q0.34375 0.53125 0.46875 1.140625l-0.40625 -0.203125l0.0625 -2.515625l1.390625 0l0 9.734375l-1.421875 0l0 -2.390625l0.375 -0.234375q-0.125 0.546875 -0.5 1.0625q-0.375 0.515625 -0.90625 0.90625q-0.53125 0.390625 -1.203125 0.625q-0.65625 0.21875 -1.375 0.21875zm0.3125 -1.34375q0.96875 0 1.734375 -0.46875q0.765625 -0.484375 1.203125 -1.328125q0.4375 -0.859375 0.4375 -1.9375q0 -1.078125 -0.4375 -1.921875q-0.4375 -0.84375 -1.203125 -1.328125q-0.765625 -0.484375 -1.734375 -0.484375q-0.984375 0 -1.75 0.484375q-0.75 0.484375 -1.1875 1.328125q-0.4375 0.84375 -0.4375 1.921875q0 1.0625 0.421875 1.921875q0.4375 0.84375 1.203125 1.328125q0.765625 0.484375 1.75 0.484375zm11.551239 1.34375q-1.390625 0 -2.46875 -0.65625q-1.078125 -0.671875 -1.703125 -1.8125q-0.625 -1.15625 -0.625 -2.609375q0 -1.453125 0.625 -2.59375q0.625 -1.15625 1.703125 -1.796875q1.078125 -0.65625 2.484375 -0.65625q1.25 0 2.265625 0.5q1.03125 0.484375 1.65625 1.359375l-0.828125 1.0q-0.34375 -0.453125 -0.84375 -0.8125q-0.5 -0.359375 -1.078125 -0.546875q-0.5625 -0.203125 -1.109375 -0.203125q-1.0 0 -1.78125 0.5q-0.78125 0.484375 -1.234375 1.328125q-0.453125 0.84375 -0.453125 1.921875q0 1.078125 0.453125 1.9375q0.453125 0.84375 1.234375 1.328125q0.78125 0.484375 1.75 0.484375q0.5625 0 1.09375 -0.171875q0.546875 -0.1875 1.03125 -0.515625q0.5 -0.34375 0.90625 -0.84375l0.8125 1.015625q-0.625 0.828125 -1.6875 1.34375q-1.0625 0.5 -2.203125 0.5zm6.953827 -3.328125l-0.046875 -1.609375l5.09375 -4.984375l1.875 0l-6.921875 6.59375zm-1.25 3.140625l0 -13.8125l1.40625 0l0 13.8125l-1.40625 0zm6.6875 0l-4.109375 -4.75l0.984375 -0.984375l4.953125 5.734375l-1.828125 0z" fill-rule="nonzero"/><path fill="#000000" d="m498.7769 185.5179l0 -13.0625l5.296875 0q1.140625 0 1.96875 0.40625q0.828125 0.40625 1.265625 1.140625q0.453125 0.734375 0.453125 1.734375q0 1.09375 -0.609375 1.875q-0.609375 0.765625 -1.671875 1.0625l-0.046875 -0.359375q0.921875 0.171875 1.59375 0.65625q0.671875 0.46875 1.046875 1.15625q0.390625 0.6875 0.390625 1.546875q0 0.875 -0.3125 1.59375q-0.296875 0.703125 -0.84375 1.203125q-0.546875 0.5 -1.328125 0.78125q-0.765625 0.265625 -1.71875 0.265625l-5.484375 0zm1.453125 -1.421875l3.921875 0q0.84375 0 1.46875 -0.28125q0.625 -0.296875 0.96875 -0.828125q0.34375 -0.546875 0.34375 -1.25q0 -0.671875 -0.375 -1.171875q-0.359375 -0.515625 -1.0 -0.796875q-0.640625 -0.28125 -1.5 -0.28125l-3.828125 0l0 4.609375zm0 -6.015625l3.734375 0q0.671875 0 1.1875 -0.265625q0.53125 -0.28125 0.828125 -0.75q0.296875 -0.484375 0.296875 -1.078125q0 -0.953125 -0.640625 -1.53125q-0.640625 -0.578125 -1.796875 -0.578125l-3.609375 0l0 4.203125z" fill-rule="nonzero"/><path fill="#000000" d="m608.57495 185.5179l5.484375 -12.203125l0.234375 0.5l-6.984375 0l0 -1.359375l7.859375 0l0.25 1.140625l-5.265625 11.921875l-1.578125 0zm13.329773 0.1875q-1.53125 0 -2.609375 -0.796875q-1.0625 -0.8125 -1.640625 -2.3125q-0.5625 -1.5 -0.5625 -3.609375q0 -2.109375 0.5625 -3.609375q0.578125 -1.5 1.640625 -2.296875q1.078125 -0.8125 2.609375 -0.8125q1.515625 0 2.59375 0.8125q1.09375 0.796875 1.65625 2.296875q0.5625 1.5 0.5625 3.609375q0 2.109375 -0.5625 3.609375q-0.5625 1.5 -1.65625 2.3125q-1.078125 0.796875 -2.59375 0.796875zm0 -1.359375q1.609375 0 2.46875 -1.390625q0.875 -1.40625 0.875 -3.96875q0 -2.546875 -0.875 -3.953125q-0.859375 -1.40625 -2.46875 -1.40625q-1.625 0 -2.5 1.40625q-0.859375 1.40625 -0.859375 3.953125q0 2.5625 0.859375 3.96875q0.875 1.390625 2.5 1.390625z" fill-rule="nonzero"/><path fill="#000000" fill-opacity="0.0" d="m115.05118 75.87008c121.85828 0 182.78741 -7.1181107 243.71655 -14.236221c60.929108 -7.1181107 121.858246 -14.236221 243.71652 -14.236221" fill-rule="evenodd"/><path stroke="#595959" stroke-width="4.0" stroke-linejoin="round" stroke-linecap="butt" d="m115.05118 75.87008c121.85828 0 182.78741 -7.1181107 243.71655 -14.236221c30.464539 -3.5590553 60.929108 -7.1181107 99.00983 -9.787399c19.040344 -1.3346481 39.98474 -2.4468536 63.785187 -3.2253952c11.9002075 -0.38927078 24.514465 -0.6951294 37.96167 -0.90366745c6.723633 -0.10426712 13.655518 -0.18420792 20.810547 -0.23807907c1.7887573 -0.013469696 3.5914917 -0.025310516 5.408325 -0.035491943l3.0326538 -0.0141067505" fill-rule="evenodd"/><path fill="#595959" stroke="#595959" stroke-width="4.0" stroke-linecap="butt" d="m588.77594 47.42972l-4.487793 4.5088463l12.348511 -4.5272446l-12.369568 -4.4693985z" fill-rule="evenodd"/><path fill="#000000" fill-opacity="0.0" d="m170.53674 85.5c108.33072 0 162.49606 -3.4251938 216.6614 -6.850395c54.165375 -3.4251938 108.33072 -6.850395 216.6614 -6.850395" fill-rule="evenodd"/><path stroke="#595959" stroke-width="4.0" stroke-linejoin="round" stroke-linecap="butt" d="m170.53674 85.5c108.33072 0 162.49606 -3.4251938 216.6614 -6.850395c27.082703 -1.7126007 54.165375 -3.4251938 88.01871 -4.7096405c16.926666 -0.6422272 35.54602 -1.177414 56.704346 -1.5520477c10.579224 -0.1873169 21.79309 -0.33448792 33.74756 -0.43483734c5.977234 -0.0501709 12.139587 -0.088638306 18.500305 -0.11456299c1.59021 -0.006477356 3.19281 -0.012176514 4.8079834 -0.017074585l1.1741943 -0.002960205" fill-rule="evenodd"/><path fill="#595959" stroke="#595959" stroke-width="4.0" stroke-linecap="butt" d="m590.15125 71.81848l-4.4920044 4.504654l12.352722 -4.5157013l-12.365356 -4.480957z" fill-rule="evenodd"/><path fill="#000000" fill-opacity="0.0" d="m109.82284 108.8937c123.850395 0 185.77557 -2.7007828 247.70078 -5.401573c61.9252 -2.7007904 123.8504 -5.401573 247.7008 -5.401573" fill-rule="evenodd"/><path stroke="#595959" stroke-width="4.0" stroke-linejoin="round" stroke-linecap="butt" d="m109.82284 108.8937c123.850395 0 185.77557 -2.7007828 247.70078 -5.401573c30.962585 -1.3503952 61.9252 -2.7007904 100.62845 -3.713585c19.351624 -0.50639343 40.638397 -0.9283905 64.82791 -1.223793c12.094788 -0.14769745 24.915222 -0.26374817 38.582336 -0.342865c6.833496 -0.03956604 13.878723 -0.06990814 21.150696 -0.09033966c1.8179932 -0.0051116943 3.6501465 -0.009605408 5.496765 -0.013473511l3.3062744 -0.0057373047" fill-rule="evenodd"/><path fill="#595959" stroke="#595959" stroke-width="4.0" stroke-linecap="butt" d="m591.51605 98.10233l-4.494446 4.502205l12.355225 -4.508957l-12.362976 -4.487709z" fill-rule="evenodd"/><path fill="#000000" fill-opacity="0.0" d="m170.53674 121.48425c108.33072 0 162.49606 1.6850357 216.6614 3.370079c54.165375 1.6850357 108.33072 3.370079 216.6614 3.370079" fill-rule="evenodd"/><path stroke="#595959" stroke-width="4.0" stroke-linejoin="round" stroke-linecap="butt" d="m170.53674 121.48425c108.33072 0 162.49606 1.6850357 216.6614 3.370079c27.082703 0.84252167 54.165375 1.6850357 88.01871 2.316925c16.926666 0.3159485 35.54602 0.5792389 56.704346 0.76353455c10.579224 0.09215546 21.79309 0.16455841 33.74756 0.2139206c5.977234 0.024673462 12.139587 0.04360962 18.500305 0.056365967l5.9821777 0.008911133" fill-rule="evenodd"/><path fill="#595959" stroke="#595959" stroke-width="4.0" stroke-linecap="butt" d="m590.15125 128.21399l-4.50177 4.494919l12.362488 -4.4889374l-12.355652 -4.5077286z" fill-rule="evenodd"/><path fill="#000000" fill-opacity="0.0" d="m109.82284 139.09055c123.16535 0 184.74802 3.448822 246.33069 6.897644c61.582672 3.448822 123.165375 6.897644 246.33072 6.897644" fill-rule="evenodd"/><path stroke="#595959" stroke-width="4.0" stroke-linejoin="round" stroke-linecap="butt" d="m109.82284 139.09055c123.16535 0 184.74802 3.448822 246.33069 6.897644c30.791351 1.724411 61.582672 3.448822 100.07187 4.7421265c19.244568 0.6466522 40.413635 1.1855316 64.46936 1.5627441c12.027832 0.18861389 24.777405 0.336792 38.368896 0.4378357c6.7957764 0.05052185 13.802002 0.08924866 21.033752 0.115356445c1.8079224 0.0065307617 3.6299438 0.012268066 5.4663086 0.017196655l3.2122192 0.007156372" fill-rule="evenodd"/><path fill="#595959" stroke="#595959" stroke-width="4.0" stroke-linecap="butt" d="m588.77594 152.8706l-4.503357 4.493347l12.364075 -4.484619l-12.354065 -4.5120544z" fill-rule="evenodd"/><path fill="#000000" fill-opacity="0.0" d="m170.53674 149.9567c107.98425 0 161.97638 8.267715 215.9685 16.53543c53.992126 8.267715 107.98425 16.53543 215.9685 16.53543" fill-rule="evenodd"/><path stroke="#595959" stroke-width="4.0" stroke-linejoin="round" stroke-linecap="butt" d="m170.53674 149.9567c107.98425 0 161.97638 8.267715 215.9685 16.53543c26.996063 4.1338654 53.992126 8.267715 87.73721 11.368103c16.872528 1.5502014 35.432312 2.842041 56.52298 3.7463226c10.545349 0.45213318 21.723389 0.8073883 33.63965 1.0496216c5.958069 0.12109375 12.100769 0.21394348 18.441162 0.27650452c1.585083 0.015655518 3.1825562 0.029403687 4.7925415 0.041244507l1.126709 0.006866455" fill-rule="evenodd"/><path fill="#595959" stroke="#595959" stroke-width="4.0" stroke-linecap="butt" d="m588.7655 182.98077l-4.513672 4.482971l12.374329 -4.4561462l-12.343628 -4.5404816z" fill-rule="evenodd"/></g></svg>