<svg version="1.1" viewBox="0.0 0.0 213.9317585301837 100.0" fill="none" stroke="none" stroke-linecap="square" stroke-miterlimit="10" xmlns:xlink="http://www.w3.org/1999/xlink" xmlns="http://www.w3.org/2000/svg"><clipPath id="p.0"><path d="m0 0l213.93176 0l0 100.0l-213.93176 0l0 -100.0z" clip-rule="nonzero"/></clipPath><g clip-path="url(#p.0)"><path fill="#000000" fill-opacity="0.0" d="m0 0l213.93176 0l0 100.0l-213.93176 0z" fill-rule="evenodd"/><path shape-rendering="crispEdges" fill="#000000" d="m0.7322835 1.4593176l53.089237 0l0 24.27034l-53.089237 0l0 -24.27034z" fill-rule="nonzero"/><path shape-rendering="crispEdges" fill="#000000" d="m53.82152 1.4593176l53.089237 0l0 24.27034l-53.089237 0l0 -24.27034z" fill-rule="nonzero"/><path shape-rendering="crispEdges" fill="#000000" d="m106.91076 1.4593176l53.08924 0l0 24.27034l-53.08924 0l0 -24.27034z" fill-rule="nonzero"/><path shape-rendering="crispEdges" fill="#000000" d="m160.0 1.4593176l53.089233 0l0 24.27034l-53.089233 0l0 -24.27034z" fill-rule="nonzero"/><path shape-rendering="crispEdges" fill="#eeeeee" d="m0.7322835 50.0l53.089237 0l0 24.27034l-53.089237 0l0 -24.27034z" fill-rule="nonzero"/><path shape-rendering="crispEdges" fill="#eeeeee" d="m53.82152 50.0l53.089237 0l0 24.27034l-53.089237 0l0 -24.27034z" fill-rule="nonzero"/><path shape-rendering="crispEdges" fill="#eeeeee" d="m106.91076 50.0l53.08924 0l0 24.27034l-53.08924 0l0 -24.27034z" fill-rule="nonzero"/><path shape-rendering="crispEdges" fill="#eeeeee" d="m160.0 50.0l53.089233 0l0 24.27034l-53.089233 0l0 -24.27034z" fill-rule="nonzero"/><path stroke="#9e9e9e" stroke-width="1.0" stroke-linecap="butt" d="m0.7322835 0.96062994l0 98.078735" fill-rule="nonzero"/><path stroke="#9e9e9e" stroke-width="1.0" stroke-linecap="butt" d="m53.82152 0.96062994l0 98.078735" fill-rule="nonzero"/><path stroke="#9e9e9e" stroke-width="1.0" stroke-linecap="butt" d="m106.91076 0.96062994l0 98.078735" fill-rule="nonzero"/><path stroke="#9e9e9e" stroke-width="1.0" stroke-linecap="butt" d="m160.0 0.96062994l0 98.078735" fill-rule="nonzero"/><path stroke="#9e9e9e" stroke-width="1.0" stroke-linecap="butt" d="m213.08923 0.96062994l0 98.078735" fill-rule="nonzero"/><path stroke="#9e9e9e" stroke-width="1.0" stroke-linecap="butt" d="m0.2335958 1.4593176l213.35432 0" fill-rule="nonzero"/><path stroke="#9e9e9e" stroke-width="1.0" stroke-linecap="butt" d="m0.2335958 25.729658l213.35432 0" fill-rule="nonzero"/><path stroke="#9e9e9e" stroke-width="1.0" stroke-linecap="butt" d="m0.2335958 50.0l213.35432 0" fill-rule="nonzero"/><path stroke="#9e9e9e" stroke-width="1.0" stroke-linecap="butt" d="m0.2335958 74.27034l213.35432 0" fill-rule="nonzero"/><path stroke="#9e9e9e" stroke-width="1.0" stroke-linecap="butt" d="m0.2335958 98.54068l213.35432 0" fill-rule="nonzero"/><path fill="#000000" fill-opacity="0.0" d="m19.03937 38.002625l0 0c0 -5.148861 4.173975 -9.322834 9.322836 -9.322834l0 0c2.4725685 0 4.8438683 0.9822235 6.5922394 2.7305946c1.7483711 1.7483711 2.7305946 4.119671 2.7305946 6.5922394l0 0c0 5.148861 -4.173977 9.322834 -9.322834 9.322834l0 0c-5.148861 0 -9.322836 -4.173973 -9.322836 -9.322834z" fill-rule="evenodd"/><path stroke="#4285f4" stroke-width="4.0" stroke-linejoin="round" stroke-linecap="butt" d="m19.03937 38.002625l0 0c0 -5.148861 4.173975 -9.322834 9.322836 -9.322834l0 0c2.4725685 0 4.8438683 0.9822235 6.5922394 2.7305946c1.7483711 1.7483711 2.7305946 4.119671 2.7305946 6.5922394l0 0c0 5.148861 -4.173977 9.322834 -9.322834 9.322834l0 0c-5.148861 0 -9.322836 -4.173973 -9.322836 -9.322834z" fill-rule="evenodd"/><path fill="#000000" fill-opacity="0.0" d="m71.10499 38.002625l0 0c0 -5.148861 4.173973 -9.322834 9.32283 -9.322834l0 0c2.4725723 0 4.843872 0.9822235 6.5922394 2.7305946c1.7483749 1.7483711 2.7305984 4.119671 2.7305984 6.5922394l0 0c0 5.148861 -4.173973 9.322834 -9.322838 9.322834l0 0c-5.148857 0 -9.32283 -4.173973 -9.32283 -9.322834z" fill-rule="evenodd"/><path stroke="#4285f4" stroke-width="4.0" stroke-linejoin="round" stroke-linecap="butt" d="m71.10499 38.002625l0 0c0 -5.148861 4.173973 -9.322834 9.32283 -9.322834l0 0c2.4725723 0 4.843872 0.9822235 6.5922394 2.7305946c1.7483749 1.7483711 2.7305984 4.119671 2.7305984 6.5922394l0 0c0 5.148861 -4.173973 9.322834 -9.322838 9.322834l0 0c-5.148857 0 -9.32283 -4.173973 -9.32283 -9.322834z" fill-rule="evenodd"/><path fill="#000000" fill-opacity="0.0" d="m124.855644 38.002625l0 0c0 -5.148861 4.173973 -9.322834 9.322838 -9.322834l0 0c2.4725647 0 4.843872 0.9822235 6.5922394 2.7305946c1.7483673 1.7483711 2.7305908 4.119671 2.7305908 6.5922394l0 0c0 5.148861 -4.1739807 9.322834 -9.32283 9.322834l0 0c-5.1488647 0 -9.322838 -4.173973 -9.322838 -9.322834z" fill-rule="evenodd"/><path stroke="#4285f4" stroke-width="4.0" stroke-linejoin="round" stroke-linecap="butt" d="m124.855644 38.002625l0 0c0 -5.148861 4.173973 -9.322834 9.322838 -9.322834l0 0c2.4725647 0 4.843872 0.9822235 6.5922394 2.7305946c1.7483673 1.7483711 2.7305908 4.119671 2.7305908 6.5922394l0 0c0 5.148861 -4.1739807 9.322834 -9.32283 9.322834l0 0c-5.1488647 0 -9.322838 -4.173973 -9.322838 -9.322834z" fill-rule="evenodd"/><path fill="#000000" fill-opacity="0.0" d="m177.76378 38.002625l0 0c0 -5.148861 4.1739807 -9.322834 9.32283 -9.322834l0 0c2.47258 0 4.843872 0.9822235 6.5922394 2.7305946c1.7483826 1.7483711 2.730606 4.119671 2.730606 6.5922394l0 0c0 5.148861 -4.1739807 9.322834 -9.322845 9.322834l0 0c-5.1488495 0 -9.32283 -4.173973 -9.32283 -9.322834z" fill-rule="evenodd"/><path stroke="#4285f4" stroke-width="4.0" stroke-linejoin="round" stroke-linecap="butt" d="m177.76378 38.002625l0 0c0 -5.148861 4.1739807 -9.322834 9.32283 -9.322834l0 0c2.47258 0 4.843872 0.9822235 6.5922394 2.7305946c1.7483826 1.7483711 2.730606 4.119671 2.730606 6.5922394l0 0c0 5.148861 -4.1739807 9.322834 -9.322845 9.322834l0 0c-5.1488495 0 -9.32283 -4.173973 -9.32283 -9.322834z" fill-rule="evenodd"/><path fill="#000000" fill-opacity="0.0" d="m19.03937 62.15223l0 0c0 -5.148857 4.173975 -9.322834 9.322836 -9.322834l0 0c2.4725685 0 4.8438683 0.9822273 6.5922394 2.7305946c1.7483711 1.7483711 2.7305946 4.119671 2.7305946 6.5922394l0 0c0 5.1488647 -4.173977 9.322838 -9.322834 9.322838l0 0c-5.148861 0 -9.322836 -4.173973 -9.322836 -9.322838z" fill-rule="evenodd"/><path stroke="#4285f4" stroke-width="4.0" stroke-linejoin="round" stroke-linecap="butt" d="m19.03937 62.15223l0 0c0 -5.148857 4.173975 -9.322834 9.322836 -9.322834l0 0c2.4725685 0 4.8438683 0.9822273 6.5922394 2.7305946c1.7483711 1.7483711 2.7305946 4.119671 2.7305946 6.5922394l0 0c0 5.1488647 -4.173977 9.322838 -9.322834 9.322838l0 0c-5.148861 0 -9.322836 -4.173973 -9.322836 -9.322838z" fill-rule="evenodd"/><path fill="#000000" fill-opacity="0.0" d="m71.10499 62.15223l0 0c0 -5.148857 4.173973 -9.322834 9.32283 -9.322834l0 0c2.4725723 0 4.843872 0.9822273 6.5922394 2.7305946c1.7483749 1.7483711 2.7305984 4.119671 2.7305984 6.5922394l0 0c0 5.1488647 -4.173973 9.322838 -9.322838 9.322838l0 0c-5.148857 0 -9.32283 -4.173973 -9.32283 -9.322838z" fill-rule="evenodd"/><path stroke="#4285f4" stroke-width="4.0" stroke-linejoin="round" stroke-linecap="butt" d="m71.10499 62.15223l0 0c0 -5.148857 4.173973 -9.322834 9.32283 -9.322834l0 0c2.4725723 0 4.843872 0.9822273 6.5922394 2.7305946c1.7483749 1.7483711 2.7305984 4.119671 2.7305984 6.5922394l0 0c0 5.1488647 -4.173973 9.322838 -9.322838 9.322838l0 0c-5.148857 0 -9.32283 -4.173973 -9.32283 -9.322838z" fill-rule="evenodd"/><path fill="#000000" fill-opacity="0.0" d="m124.855644 62.15223l0 0c0 -5.148857 4.173973 -9.322834 9.322838 -9.322834l0 0c2.4725647 0 4.843872 0.9822273 6.5922394 2.7305946c1.7483673 1.7483711 2.7305908 4.119671 2.7305908 6.5922394l0 0c0 5.1488647 -4.1739807 9.322838 -9.32283 9.322838l0 0c-5.1488647 0 -9.322838 -4.173973 -9.322838 -9.322838z" fill-rule="evenodd"/><path stroke="#4285f4" stroke-width="4.0" stroke-linejoin="round" stroke-linecap="butt" d="m124.855644 62.15223l0 0c0 -5.148857 4.173973 -9.322834 9.322838 -9.322834l0 0c2.4725647 0 4.843872 0.9822273 6.5922394 2.7305946c1.7483673 1.7483711 2.7305908 4.119671 2.7305908 6.5922394l0 0c0 5.1488647 -4.1739807 9.322838 -9.32283 9.322838l0 0c-5.1488647 0 -9.322838 -4.173973 -9.322838 -9.322838z" fill-rule="evenodd"/><path fill="#000000" fill-opacity="0.0" d="m177.76378 62.15223l0 0c0 -5.148857 4.1739807 -9.322834 9.32283 -9.322834l0 0c2.47258 0 4.843872 0.9822273 6.5922394 2.7305946c1.7483826 1.7483711 2.730606 4.119671 2.730606 6.5922394l0 0c0 5.1488647 -4.1739807 9.322838 -9.322845 9.322838l0 0c-5.1488495 0 -9.32283 -4.173973 -9.32283 -9.322838z" fill-rule="evenodd"/><path stroke="#4285f4" stroke-width="4.0" stroke-linejoin="round" stroke-linecap="butt" d="m177.76378 62.15223l0 0c0 -5.148857 4.1739807 -9.322834 9.32283 -9.322834l0 0c2.47258 0 4.843872 0.9822273 6.5922394 2.7305946c1.7483826 1.7483711 2.730606 4.119671 2.730606 6.5922394l0 0c0 5.1488647 -4.1739807 9.322838 -9.322845 9.322838l0 0c-5.1488495 0 -9.32283 -4.173973 -9.32283 -9.322838z" fill-rule="evenodd"/><path fill="#000000" fill-opacity="0.0" d="m19.03937 86.301834l0 0c0 -5.148857 4.173975 -9.32283 9.322836 -9.32283l0 0c2.4725685 0 4.8438683 0.9822235 6.5922394 2.7305908c1.7483711 1.7483749 2.7305946 4.1196747 2.7305946 6.5922394l0 0c0 5.1488647 -4.173977 9.322838 -9.322834 9.322838l0 0c-5.148861 0 -9.322836 -4.173973 -9.322836 -9.322838z" fill-rule="evenodd"/><path stroke="#4285f4" stroke-width="4.0" stroke-linejoin="round" stroke-linecap="butt" d="m19.03937 86.301834l0 0c0 -5.148857 4.173975 -9.32283 9.322836 -9.32283l0 0c2.4725685 0 4.8438683 0.9822235 6.5922394 2.7305908c1.7483711 1.7483749 2.7305946 4.1196747 2.7305946 6.5922394l0 0c0 5.1488647 -4.173977 9.322838 -9.322834 9.322838l0 0c-5.148861 0 -9.322836 -4.173973 -9.322836 -9.322838z" fill-rule="evenodd"/><path fill="#000000" fill-opacity="0.0" d="m71.10499 86.301834l0 0c0 -5.148857 4.173973 -9.32283 9.32283 -9.32283l0 0c2.4725723 0 4.843872 0.9822235 6.5922394 2.7305908c1.7483749 1.7483749 2.7305984 4.1196747 2.7305984 6.5922394l0 0c0 5.1488647 -4.173973 9.322838 -9.322838 9.322838l0 0c-5.148857 0 -9.32283 -4.173973 -9.32283 -9.322838z" fill-rule="evenodd"/><path stroke="#4285f4" stroke-width="4.0" stroke-linejoin="round" stroke-linecap="butt" d="m71.10499 86.301834l0 0c0 -5.148857 4.173973 -9.32283 9.32283 -9.32283l0 0c2.4725723 0 4.843872 0.9822235 6.5922394 2.7305908c1.7483749 1.7483749 2.7305984 4.1196747 2.7305984 6.5922394l0 0c0 5.1488647 -4.173973 9.322838 -9.322838 9.322838l0 0c-5.148857 0 -9.32283 -4.173973 -9.32283 -9.322838z" fill-rule="evenodd"/><path fill="#000000" fill-opacity="0.0" d="m124.855644 86.301834l0 0c0 -5.148857 4.173973 -9.32283 9.322838 -9.32283l0 0c2.4725647 0 4.843872 0.9822235 6.5922394 2.7305908c1.7483673 1.7483749 2.7305908 4.1196747 2.7305908 6.5922394l0 0c0 5.1488647 -4.1739807 9.322838 -9.32283 9.322838l0 0c-5.1488647 0 -9.322838 -4.173973 -9.322838 -9.322838z" fill-rule="evenodd"/><path stroke="#4285f4" stroke-width="4.0" stroke-linejoin="round" stroke-linecap="butt" d="m124.855644 86.301834l0 0c0 -5.148857 4.173973 -9.32283 9.322838 -9.32283l0 0c2.4725647 0 4.843872 0.9822235 6.5922394 2.7305908c1.7483673 1.7483749 2.7305908 4.1196747 2.7305908 6.5922394l0 0c0 5.1488647 -4.1739807 9.322838 -9.32283 9.322838l0 0c-5.1488647 0 -9.322838 -4.173973 -9.322838 -9.322838z" fill-rule="evenodd"/><path fill="#000000" fill-opacity="0.0" d="m177.76378 86.301834l0 0c0 -5.148857 4.1739807 -9.32283 9.32283 -9.32283l0 0c2.47258 0 4.843872 0.9822235 6.5922394 2.7305908c1.7483826 1.7483749 2.730606 4.1196747 2.730606 6.5922394l0 0c0 5.1488647 -4.1739807 9.322838 -9.322845 9.322838l0 0c-5.1488495 0 -9.32283 -4.173973 -9.32283 -9.322838z" fill-rule="evenodd"/><path stroke="#4285f4" stroke-width="4.0" stroke-linejoin="round" stroke-linecap="butt" d="m177.76378 86.301834l0 0c0 -5.148857 4.1739807 -9.32283 9.32283 -9.32283l0 0c2.47258 0 4.843872 0.9822235 6.5922394 2.7305908c1.7483826 1.7483749 2.730606 4.1196747 2.730606 6.5922394l0 0c0 5.1488647 -4.1739807 9.322838 -9.322845 9.322838l0 0c-5.1488495 0 -9.32283 -4.173973 -9.32283 -9.322838z" fill-rule="evenodd"/></g></svg>