<svg version="1.1" viewBox="0.0 0.0 213.8215223097113 100.0" fill="none" stroke="none" stroke-linecap="square" stroke-miterlimit="10" xmlns:xlink="http://www.w3.org/1999/xlink" xmlns="http://www.w3.org/2000/svg"><clipPath id="p.0"><path d="m0 0l213.82152 0l0 100.0l-213.82152 0l0 -100.0z" clip-rule="nonzero"/></clipPath><g clip-path="url(#p.0)"><path fill="#000000" fill-opacity="0.0" d="m0 0l213.82152 0l0 100.0l-213.82152 0z" fill-rule="evenodd"/><path shape-rendering="crispEdges" fill="#000000" d="m0.7322835 2.395013l53.089237 0l0 22.398949l-53.089237 0l0 -22.398949z" fill-rule="nonzero"/><path shape-rendering="crispEdges" fill="#000000" d="m53.82152 2.395013l53.089237 0l0 22.398949l-53.089237 0l0 -22.398949z" fill-rule="nonzero"/><path shape-rendering="crispEdges" fill="#000000" d="m106.91076 2.395013l53.08924 0l0 22.398949l-53.08924 0l0 -22.398949z" fill-rule="nonzero"/><path shape-rendering="crispEdges" fill="#000000" d="m160.0 2.395013l53.089233 0l0 22.398949l-53.089233 0l0 -22.398949z" fill-rule="nonzero"/><path shape-rendering="crispEdges" fill="#eeeeee" d="m0.7322835 49.064304l53.089237 0l0 24.270344l-53.089237 0l0 -24.270344z" fill-rule="nonzero"/><path shape-rendering="crispEdges" fill="#eeeeee" d="m53.82152 49.064304l53.089237 0l0 24.270344l-53.089237 0l0 -24.270344z" fill-rule="nonzero"/><path shape-rendering="crispEdges" fill="#eeeeee" d="m106.91076 49.064304l53.08924 0l0 24.270344l-53.08924 0l0 -24.270344z" fill-rule="nonzero"/><path shape-rendering="crispEdges" fill="#eeeeee" d="m160.0 49.064304l53.089233 0l0 24.270344l-53.089233 0l0 -24.270344z" fill-rule="nonzero"/><path stroke="#9e9e9e" stroke-width="1.0" stroke-linecap="butt" d="m0.7322835 1.8963255l0 96.20735" fill-rule="nonzero"/><path stroke="#9e9e9e" stroke-width="1.0" stroke-linecap="butt" d="m53.82152 1.8963255l0 96.20735" fill-rule="nonzero"/><path stroke="#9e9e9e" stroke-width="1.0" stroke-linecap="butt" d="m106.91076 1.8963255l0 96.20735" fill-rule="nonzero"/><path stroke="#9e9e9e" stroke-width="1.0" stroke-linecap="butt" d="m160.0 1.8963255l0 96.20735" fill-rule="nonzero"/><path stroke="#9e9e9e" stroke-width="1.0" stroke-linecap="butt" d="m213.08923 1.8963255l0 96.20735" fill-rule="nonzero"/><path stroke="#9e9e9e" stroke-width="1.0" stroke-linecap="butt" d="m0.2335958 2.395013l213.35432 0" fill-rule="nonzero"/><path stroke="#9e9e9e" stroke-width="1.0" stroke-linecap="butt" d="m0.2335958 24.793962l213.35432 0" fill-rule="nonzero"/><path stroke="#9e9e9e" stroke-width="1.0" stroke-linecap="butt" d="m0.2335958 49.064304l213.35432 0" fill-rule="nonzero"/><path stroke="#9e9e9e" stroke-width="1.0" stroke-linecap="butt" d="m0.2335958 73.33465l213.35432 0" fill-rule="nonzero"/><path stroke="#9e9e9e" stroke-width="1.0" stroke-linecap="butt" d="m0.2335958 97.60499l213.35432 0" fill-rule="nonzero"/><path fill="#000000" fill-opacity="0.0" d="m204.5328 39.366142l-195.2441 -1.5748024" fill-rule="evenodd"/><path stroke="#4285f4" stroke-width="4.0" stroke-linejoin="round" stroke-linecap="butt" d="m190.8249 39.255577l-167.8283 -1.3536758" fill-rule="evenodd"/><path fill="#4285f4" stroke="#4285f4" stroke-width="4.0" stroke-linecap="butt" d="m190.8249 39.255577l-4.5344696 4.4619064l12.3949585 -4.398506l-12.322388 -4.59787z" fill-rule="evenodd"/><path fill="#4285f4" stroke="#4285f4" stroke-width="4.0" stroke-linecap="butt" d="m22.996614 37.901905l4.5344696 -4.4619064l-12.394952 4.3985023l12.322389 4.5978737z" fill-rule="evenodd"/><path fill="#000000" fill-opacity="0.0" d="m204.5328 64.891075l-195.2441 -1.5748024" fill-rule="evenodd"/><path stroke="#4285f4" stroke-width="4.0" stroke-linejoin="round" stroke-linecap="butt" d="m190.8249 64.78051l-167.8283 -1.353672" fill-rule="evenodd"/><path fill="#4285f4" stroke="#4285f4" stroke-width="4.0" stroke-linecap="butt" d="m190.8249 64.78051l-4.5344696 4.4619064l12.3949585 -4.398506l-12.322388 -4.59787z" fill-rule="evenodd"/><path fill="#4285f4" stroke="#4285f4" stroke-width="4.0" stroke-linecap="butt" d="m22.996614 63.426838l4.5344696 -4.4619064l-12.394952 4.398506l12.322389 4.5978737z" fill-rule="evenodd"/><path fill="#000000" fill-opacity="0.0" d="m204.5328 90.28346l-195.2441 -1.5747986" fill-rule="evenodd"/><path stroke="#4285f4" stroke-width="4.0" stroke-linejoin="round" stroke-linecap="butt" d="m190.8249 90.1729l-167.8283 -1.3536682" fill-rule="evenodd"/><path fill="#4285f4" stroke="#4285f4" stroke-width="4.0" stroke-linecap="butt" d="m190.8249 90.1729l-4.5344696 4.4619064l12.3949585 -4.398506l-12.322388 -4.59787z" fill-rule="evenodd"/><path fill="#4285f4" stroke="#4285f4" stroke-width="4.0" stroke-linecap="butt" d="m22.996614 88.81923l4.5344696 -4.4619064l-12.394952 4.398506l12.322389 4.59787z" fill-rule="evenodd"/></g></svg>